{
	"asset" : {
		"generator" : "FME 2023.1.0.0",
		"version" : "2.0"
	},
	"materials" : [
		{
			"name" : "default_material",
			"pbrMetallicRoughness" : {
				"baseColorFactor" : [ 1, 1, 1, 1 ],
				"roughnessFactor" : 0.30000000000000004,
				"metallicFactor" : 0.5
			}
		}
	],
	"meshes" : [
		{
			"primitives" : [
				{
					"attributes" : {
						"NORMAL" : 1,
						"POSITION" : 0,
						"COLOR_0" : 2
					},
					"indices" : 3,
					"material" : 0,
					"mode" : 4
				}
			]
		}
	],
	"nodes" : [
		{
			"name" : "B340371623001063C0",
			"matrix" : [ 1, 0, 0, 0, 0, 0, -1, 0, 0, 1, 0, 0, 834035.1875, 18.022003173828125, -816221.375, 1 ],
			"children" : [ 1 ]
		},
		{
			"mesh" : 0
		}
	],
	"scenes" : [
		{
			"nodes" : [ 0 ]
		}
	],
	"scene" : 0,
	"accessors" : [
		{
			"bufferView" : 0,
			"byteOffset" : 0,
			"componentType" : 5126,
			"count" : 324,
			"type" : "VEC3",
			"min" : [ -7.8916015625, -7.9677734375, 0 ],
			"max" : [ 7.892578125, 7.96875, 43.3390007019043 ]
		},
		{
			"bufferView" : 1,
			"byteOffset" : 0,
			"componentType" : 5126,
			"count" : 324,
			"type" : "VEC3",
			"min" : [ -0.8380194902420044, -0.8419862985610962, -0.000849737087264657 ],
			"max" : [ 0.8375698924064636, 0.8428928852081299, 1 ]
		},
		{
			"bufferView" : 2,
			"byteOffset" : 0,
			"componentType" : 5126,
			"count" : 324,
			"type" : "VEC3"
		},
		{
			"bufferView" : 3,
			"byteOffset" : 0,
			"componentType" : 5123,
			"count" : 324,
			"type" : "SCALAR",
			"min" : [ 0 ],
			"max" : [ 323 ]
		}
	],
	"bufferViews" : [
		{
			"buffer" : 0,
			"byteOffset" : 0,
			"byteLength" : 3888,
			"target" : 34962
		},
		{
			"buffer" : 0,
			"byteOffset" : 3888,
			"byteLength" : 3888,
			"target" : 34962
		},
		{
			"buffer" : 0,
			"byteOffset" : 7776,
			"byteLength" : 3888,
			"target" : 34962
		},
		{
			"buffer" : 0,
			"byteOffset" : 11664,
			"byteLength" : 648,
			"target" : 34963
		}
	],
	"buffers" : [
		{
			"uri" : "B340371623001063C0.bin",
			"byteLength" : 12312
		}
	]
}
