{
	"asset" : {
		"generator" : "FME 2023.1.0.0",
		"version" : "2.0"
	},
	"materials" : [
		{
			"name" : "default_material",
			"pbrMetallicRoughness" : {
				"baseColorFactor" : [ 1, 1, 1, 1 ],
				"roughnessFactor" : 0.30000000000000004,
				"metallicFactor" : 0.5
			}
		}
	],
	"meshes" : [
		{
			"primitives" : [
				{
					"attributes" : {
						"NORMAL" : 1,
						"POSITION" : 0,
						"COLOR_0" : 2
					},
					"indices" : 3,
					"material" : 0,
					"mode" : 4
				}
			]
		}
	],
	"nodes" : [
		{
			"name" : "B359111505401063C0",
			"matrix" : [ 1, 0, 0, 0, 0, 0, -1, 0, 0, 1, 0, 0, 835915.75, 7.97599983215332, -815048.125, 1 ],
			"children" : [ 1 ]
		},
		{
			"mesh" : 0
		}
	],
	"scenes" : [
		{
			"nodes" : [ 0 ]
		}
	],
	"scene" : 0,
	"accessors" : [
		{
			"bufferView" : 0,
			"byteOffset" : 0,
			"componentType" : 5126,
			"count" : 1668,
			"type" : "VEC3",
			"min" : [ -9.6171875, -9.291015625, 0 ],
			"max" : [ 9.6171875, 9.2900390625, 42.736000061035156 ]
		},
		{
			"bufferView" : 1,
			"byteOffset" : 0,
			"componentType" : 5126,
			"count" : 1668,
			"type" : "VEC3",
			"min" : [ -1, -0.9845064878463745, -1 ],
			"max" : [ 0.9888757467269897, 0.9993075728416443, 1 ]
		},
		{
			"bufferView" : 2,
			"byteOffset" : 0,
			"componentType" : 5126,
			"count" : 1668,
			"type" : "VEC3"
		},
		{
			"bufferView" : 3,
			"byteOffset" : 0,
			"componentType" : 5123,
			"count" : 1668,
			"type" : "SCALAR",
			"min" : [ 0 ],
			"max" : [ 1667 ]
		}
	],
	"bufferViews" : [
		{
			"buffer" : 0,
			"byteOffset" : 0,
			"byteLength" : 20016,
			"target" : 34962
		},
		{
			"buffer" : 0,
			"byteOffset" : 20016,
			"byteLength" : 20016,
			"target" : 34962
		},
		{
			"buffer" : 0,
			"byteOffset" : 40032,
			"byteLength" : 20016,
			"target" : 34962
		},
		{
			"buffer" : 0,
			"byteOffset" : 60048,
			"byteLength" : 3336,
			"target" : 34963
		}
	],
	"buffers" : [
		{
			"uri" : "B359111505401063C0.bin",
			"byteLength" : 63384
		}
	]
}
