{
	"asset" : {
		"generator" : "FME 2023.1.0.0",
		"version" : "2.0"
	},
	"materials" : [
		{
			"name" : "default_material",
			"pbrMetallicRoughness" : {
				"baseColorFactor" : [ 1, 1, 1, 1 ],
				"roughnessFactor" : 0.30000000000000004,
				"metallicFactor" : 0.5
			}
		}
	],
	"meshes" : [
		{
			"primitives" : [
				{
					"attributes" : {
						"NORMAL" : 1,
						"POSITION" : 0,
						"COLOR_0" : 2
					},
					"indices" : 3,
					"material" : 0,
					"mode" : 4
				}
			]
		}
	],
	"nodes" : [
		{
			"name" : "B340651608801063C0",
			"matrix" : [ 1, 0, 0, 0, 0, 0, -1, 0, 0, 1, 0, 0, 834067, 5.247000217437744, -816085.6875, 1 ],
			"children" : [ 1 ]
		},
		{
			"mesh" : 0
		}
	],
	"scenes" : [
		{
			"nodes" : [ 0 ]
		}
	],
	"scene" : 0,
	"accessors" : [
		{
			"bufferView" : 0,
			"byteOffset" : 0,
			"componentType" : 5126,
			"count" : 393,
			"type" : "VEC3",
			"min" : [ -6.525390625, -6.97265625, 0 ],
			"max" : [ 6.466796875, 7.02734375, 23.33500099182129 ]
		},
		{
			"bufferView" : 1,
			"byteOffset" : 0,
			"componentType" : 5126,
			"count" : 393,
			"type" : "VEC3",
			"min" : [ -0.8076633810997009, -0.8080306649208069, -1 ],
			"max" : [ 0.7996153831481934, 0.8079668879508972, 1 ]
		},
		{
			"bufferView" : 2,
			"byteOffset" : 0,
			"componentType" : 5126,
			"count" : 393,
			"type" : "VEC3"
		},
		{
			"bufferView" : 3,
			"byteOffset" : 0,
			"componentType" : 5123,
			"count" : 393,
			"type" : "SCALAR",
			"min" : [ 0 ],
			"max" : [ 392 ]
		}
	],
	"bufferViews" : [
		{
			"buffer" : 0,
			"byteOffset" : 0,
			"byteLength" : 4716,
			"target" : 34962
		},
		{
			"buffer" : 0,
			"byteOffset" : 4716,
			"byteLength" : 4716,
			"target" : 34962
		},
		{
			"buffer" : 0,
			"byteOffset" : 9432,
			"byteLength" : 4716,
			"target" : 34962
		},
		{
			"buffer" : 0,
			"byteOffset" : 14148,
			"byteLength" : 786,
			"target" : 34963
		}
	],
	"buffers" : [
		{
			"uri" : "B340651608801063C0.bin",
			"byteLength" : 14934
		}
	]
}
