{
	"asset" : {
		"generator" : "FME 2023.1.0.0",
		"version" : "2.0"
	},
	"materials" : [
		{
			"name" : "default_material",
			"pbrMetallicRoughness" : {
				"baseColorFactor" : [ 1, 1, 1, 1 ],
				"roughnessFactor" : 0.30000000000000004,
				"metallicFactor" : 0.5
			}
		}
	],
	"meshes" : [
		{
			"primitives" : [
				{
					"attributes" : {
						"NORMAL" : 1,
						"POSITION" : 0,
						"COLOR_0" : 2
					},
					"indices" : 3,
					"material" : 0,
					"mode" : 4
				}
			]
		}
	],
	"nodes" : [
		{
			"name" : "B358781516701063C0",
			"matrix" : [ 1, 0, 0, 0, 0, 0, -1, 0, 0, 1, 0, 0, 835877.5, 31.479000091552734, -815167.6875, 1 ],
			"children" : [ 1 ]
		},
		{
			"mesh" : 0
		}
	],
	"scenes" : [
		{
			"nodes" : [ 0 ]
		}
	],
	"scene" : 0,
	"accessors" : [
		{
			"bufferView" : 0,
			"byteOffset" : 0,
			"componentType" : 5126,
			"count" : 6009,
			"type" : "VEC3",
			"min" : [ -15.2431640625, -14.91015625, 0 ],
			"max" : [ 15.2421875, 14.91015625, 85.24299621582031 ]
		},
		{
			"bufferView" : 1,
			"byteOffset" : 0,
			"componentType" : 5126,
			"count" : 6009,
			"type" : "VEC3",
			"min" : [ -1, -0.994823694229126, -1 ],
			"max" : [ 0.9977852702140808, 0.9976775646209717, 1 ]
		},
		{
			"bufferView" : 2,
			"byteOffset" : 0,
			"componentType" : 5126,
			"count" : 6009,
			"type" : "VEC3"
		},
		{
			"bufferView" : 3,
			"byteOffset" : 0,
			"componentType" : 5123,
			"count" : 6009,
			"type" : "SCALAR",
			"min" : [ 0 ],
			"max" : [ 6008 ]
		}
	],
	"bufferViews" : [
		{
			"buffer" : 0,
			"byteOffset" : 0,
			"byteLength" : 72108,
			"target" : 34962
		},
		{
			"buffer" : 0,
			"byteOffset" : 72108,
			"byteLength" : 72108,
			"target" : 34962
		},
		{
			"buffer" : 0,
			"byteOffset" : 144216,
			"byteLength" : 72108,
			"target" : 34962
		},
		{
			"buffer" : 0,
			"byteOffset" : 216324,
			"byteLength" : 12018,
			"target" : 34963
		}
	],
	"buffers" : [
		{
			"uri" : "B358781516701063C0.bin",
			"byteLength" : 228342
		}
	]
}
