{
	"asset" : {
		"generator" : "FME 2023.1.0.0",
		"version" : "2.0"
	},
	"materials" : [
		{
			"name" : "default_material",
			"pbrMetallicRoughness" : {
				"baseColorFactor" : [ 1, 1, 1, 1 ],
				"roughnessFactor" : 0.30000000000000004,
				"metallicFactor" : 0.5
			}
		}
	],
	"meshes" : [
		{
			"primitives" : [
				{
					"attributes" : {
						"NORMAL" : 1,
						"POSITION" : 0,
						"COLOR_0" : 2
					},
					"indices" : 3,
					"material" : 0,
					"mode" : 4
				}
			]
		}
	],
	"nodes" : [
		{
			"name" : "B336621627501063C0",
			"matrix" : [ 1, 0, 0, 0, 0, 0, -1, 0, 0, 1, 0, 0, 833664.375, 2.846000909805298, -816273.75, 1 ],
			"children" : [ 1 ]
		},
		{
			"mesh" : 0
		}
	],
	"scenes" : [
		{
			"nodes" : [ 0 ]
		}
	],
	"scene" : 0,
	"accessors" : [
		{
			"bufferView" : 0,
			"byteOffset" : 0,
			"componentType" : 5126,
			"count" : 390,
			"type" : "VEC3",
			"min" : [ -5.4755859375, -4.53515625, 0 ],
			"max" : [ 5.4765625, 4.53515625, 24.751998901367188 ]
		},
		{
			"bufferView" : 1,
			"byteOffset" : 0,
			"componentType" : 5126,
			"count" : 390,
			"type" : "VEC3",
			"min" : [ -0.8523227572441101, -0.8527116775512695, -1 ],
			"max" : [ 0.8515467047691345, 0.8523227572441101, 1 ]
		},
		{
			"bufferView" : 2,
			"byteOffset" : 0,
			"componentType" : 5126,
			"count" : 390,
			"type" : "VEC3"
		},
		{
			"bufferView" : 3,
			"byteOffset" : 0,
			"componentType" : 5123,
			"count" : 390,
			"type" : "SCALAR",
			"min" : [ 0 ],
			"max" : [ 389 ]
		}
	],
	"bufferViews" : [
		{
			"buffer" : 0,
			"byteOffset" : 0,
			"byteLength" : 4680,
			"target" : 34962
		},
		{
			"buffer" : 0,
			"byteOffset" : 4680,
			"byteLength" : 4680,
			"target" : 34962
		},
		{
			"buffer" : 0,
			"byteOffset" : 9360,
			"byteLength" : 4680,
			"target" : 34962
		},
		{
			"buffer" : 0,
			"byteOffset" : 14040,
			"byteLength" : 780,
			"target" : 34963
		}
	],
	"buffers" : [
		{
			"uri" : "B336621627501063C0.bin",
			"byteLength" : 14820
		}
	]
}
