{
	"asset" : {
		"generator" : "FME 2022.2.4.0",
		"version" : "2.0"
	},
	"materials" : [
		{
			"name" : "default_material",
			"pbrMetallicRoughness" : {
				"baseColorFactor" : [ 1, 1, 1, 1 ],
				"roughnessFactor" : 0.30000000000000004,
				"metallicFactor" : 0.5
			}
		}
	],
	"meshes" : [
		{
			"primitives" : [
				{
					"attributes" : {
						"NORMAL" : 1,
						"POSITION" : 0,
						"COLOR_0" : 2
					},
					"indices" : 3,
					"material" : 0,
					"mode" : 4
				}
			]
		}
	],
	"nodes" : [
		{
			"name" : "B338721576001063C0",
			"matrix" : [ 1, 0, 0, 0, 0, 0, -1, 0, 0, 1, 0, 0, 833871.125, 59.70500183105469, -815754.25, 1 ],
			"children" : [ 1 ]
		},
		{
			"mesh" : 0
		}
	],
	"scenes" : [
		{
			"nodes" : [ 0 ]
		}
	],
	"scene" : 0,
	"accessors" : [
		{
			"bufferView" : 0,
			"byteOffset" : 0,
			"componentType" : 5126,
			"count" : 498,
			"type" : "VEC3",
			"min" : [ -7.1650390625, -9.1337890625, 0 ],
			"max" : [ 7.1650390625, 9.134765625, 21.0260009765625 ]
		},
		{
			"bufferView" : 1,
			"byteOffset" : 0,
			"componentType" : 5126,
			"count" : 498,
			"type" : "VEC3",
			"min" : [ -0.8953613638877869, -0.9027591943740845, -0.004452018067240715 ],
			"max" : [ 0.8951615691184998, 0.9059150815010071, 1 ]
		},
		{
			"bufferView" : 2,
			"byteOffset" : 0,
			"componentType" : 5126,
			"count" : 498,
			"type" : "VEC3"
		},
		{
			"bufferView" : 3,
			"byteOffset" : 0,
			"componentType" : 5123,
			"count" : 498,
			"type" : "SCALAR",
			"min" : [ 0 ],
			"max" : [ 497 ]
		}
	],
	"bufferViews" : [
		{
			"buffer" : 0,
			"byteOffset" : 0,
			"byteLength" : 5976,
			"target" : 34962
		},
		{
			"buffer" : 0,
			"byteOffset" : 5976,
			"byteLength" : 5976,
			"target" : 34962
		},
		{
			"buffer" : 0,
			"byteOffset" : 11952,
			"byteLength" : 5976,
			"target" : 34962
		},
		{
			"buffer" : 0,
			"byteOffset" : 17928,
			"byteLength" : 996,
			"target" : 34963
		}
	],
	"buffers" : [
		{
			"uri" : "B338721576001063C0.bin",
			"byteLength" : 18924
		}
	]
}
