{
	"asset" : {
		"generator" : "FME 2022.2.4.0",
		"version" : "2.0"
	},
	"materials" : [
		{
			"name" : "default_material",
			"pbrMetallicRoughness" : {
				"baseColorFactor" : [ 1, 1, 1, 1 ],
				"roughnessFactor" : 0.30000000000000004,
				"metallicFactor" : 0.5
			}
		}
	],
	"meshes" : [
		{
			"primitives" : [
				{
					"attributes" : {
						"NORMAL" : 1,
						"POSITION" : 0,
						"COLOR_0" : 2
					},
					"indices" : 3,
					"material" : 0,
					"mode" : 4
				}
			]
		}
	],
	"nodes" : [
		{
			"name" : "B336391586501063C0",
			"matrix" : [ 1, 0, 0, 0, 0, 0, -1, 0, 0, 1, 0, 0, 833636.8125, 86.39398193359375, -815858.875, 1 ],
			"children" : [ 1 ]
		},
		{
			"mesh" : 0
		}
	],
	"scenes" : [
		{
			"nodes" : [ 0 ]
		}
	],
	"scene" : 0,
	"accessors" : [
		{
			"bufferView" : 0,
			"byteOffset" : 0,
			"componentType" : 5126,
			"count" : 3147,
			"type" : "VEC3",
			"min" : [ -14.1962890625, -15.3564453125, 0 ],
			"max" : [ 14.1962890625, 15.3564453125, 69.68499755859375 ]
		},
		{
			"bufferView" : 1,
			"byteOffset" : 0,
			"componentType" : 5126,
			"count" : 3147,
			"type" : "VEC3",
			"min" : [ -0.7884946465492249, -0.7887371182441711, -1 ],
			"max" : [ 0.8025372624397278, 0.9586837291717529, 1 ]
		},
		{
			"bufferView" : 2,
			"byteOffset" : 0,
			"componentType" : 5126,
			"count" : 3147,
			"type" : "VEC3"
		},
		{
			"bufferView" : 3,
			"byteOffset" : 0,
			"componentType" : 5123,
			"count" : 3147,
			"type" : "SCALAR",
			"min" : [ 0 ],
			"max" : [ 3146 ]
		}
	],
	"bufferViews" : [
		{
			"buffer" : 0,
			"byteOffset" : 0,
			"byteLength" : 37764,
			"target" : 34962
		},
		{
			"buffer" : 0,
			"byteOffset" : 37764,
			"byteLength" : 37764,
			"target" : 34962
		},
		{
			"buffer" : 0,
			"byteOffset" : 75528,
			"byteLength" : 37764,
			"target" : 34962
		},
		{
			"buffer" : 0,
			"byteOffset" : 113292,
			"byteLength" : 6294,
			"target" : 34963
		}
	],
	"buffers" : [
		{
			"uri" : "B336391586501063C0.bin",
			"byteLength" : 119586
		}
	]
}
