{
	"asset" : {
		"generator" : "FME 2023.1.0.0",
		"version" : "2.0"
	},
	"materials" : [
		{
			"name" : "default_material",
			"pbrMetallicRoughness" : {
				"baseColorFactor" : [ 1, 1, 1, 1 ],
				"roughnessFactor" : 0.30000000000000004,
				"metallicFactor" : 0.5
			}
		}
	],
	"meshes" : [
		{
			"primitives" : [
				{
					"attributes" : {
						"NORMAL" : 1,
						"POSITION" : 0,
						"COLOR_0" : 2
					},
					"indices" : 3,
					"material" : 0,
					"mode" : 4
				}
			]
		}
	],
	"nodes" : [
		{
			"name" : "B334581652701063C0",
			"matrix" : [ 1, 0, 0, 0, 0, 0, -1, 0, 0, 1, 0, 0, 833457.625, 18.501007080078125, -816527.4375, 1 ],
			"children" : [ 1 ]
		},
		{
			"mesh" : 0
		}
	],
	"scenes" : [
		{
			"nodes" : [ 0 ]
		}
	],
	"scene" : 0,
	"accessors" : [
		{
			"bufferView" : 0,
			"byteOffset" : 0,
			"componentType" : 5126,
			"count" : 255,
			"type" : "VEC3",
			"min" : [ -6.177734375, -8.7783203125, 0 ],
			"max" : [ 6.1787109375, 8.779296875, 97.16600036621094 ]
		},
		{
			"bufferView" : 1,
			"byteOffset" : 0,
			"componentType" : 5126,
			"count" : 255,
			"type" : "VEC3",
			"min" : [ -0.9679622054100037, -0.9679239392280579, -0.0004051907453685999 ],
			"max" : [ 0.9679655432701111, 0.9707820415496826, 1 ]
		},
		{
			"bufferView" : 2,
			"byteOffset" : 0,
			"componentType" : 5126,
			"count" : 255,
			"type" : "VEC3"
		},
		{
			"bufferView" : 3,
			"byteOffset" : 0,
			"componentType" : 5121,
			"count" : 255,
			"type" : "SCALAR",
			"min" : [ 0 ],
			"max" : [ 254 ]
		}
	],
	"bufferViews" : [
		{
			"buffer" : 0,
			"byteOffset" : 0,
			"byteLength" : 3060,
			"target" : 34962
		},
		{
			"buffer" : 0,
			"byteOffset" : 3060,
			"byteLength" : 3060,
			"target" : 34962
		},
		{
			"buffer" : 0,
			"byteOffset" : 6120,
			"byteLength" : 3060,
			"target" : 34962
		},
		{
			"buffer" : 0,
			"byteOffset" : 9180,
			"byteLength" : 255,
			"target" : 34963
		}
	],
	"buffers" : [
		{
			"uri" : "B334581652701063C0.bin",
			"byteLength" : 9435
		}
	]
}
