{
	"asset" : {
		"generator" : "FME 2023.2.1.0",
		"version" : "2.0"
	},
	"materials" : [
		{
			"name" : "default_material",
			"pbrMetallicRoughness" : {
				"baseColorFactor" : [ 1, 1, 1, 1 ],
				"roughnessFactor" : 0.30000000000000004,
				"metallicFactor" : 0.5
			}
		}
	],
	"meshes" : [
		{
			"primitives" : [
				{
					"attributes" : {
						"NORMAL" : 1,
						"POSITION" : 0,
						"COLOR_0" : 2
					},
					"indices" : 3,
					"material" : 0,
					"mode" : 4
				}
			]
		}
	],
	"nodes" : [
		{
			"name" : "B355071522801063C0",
			"matrix" : [ 1, 0, 0, 0, 0, 0, -1, 0, 0, 1, 0, 0, 835513.25, 19.45199966430664, -815222.4375, 1 ],
			"children" : [ 1 ]
		},
		{
			"mesh" : 0
		}
	],
	"scenes" : [
		{
			"nodes" : [ 0 ]
		}
	],
	"scene" : 0,
	"accessors" : [
		{
			"bufferView" : 0,
			"byteOffset" : 0,
			"componentType" : 5126,
			"count" : 1236,
			"type" : "VEC3",
			"min" : [ -9.5947265625, -9.1328125, 0 ],
			"max" : [ 9.5947265625, 9.1328125, 78.10700988769531 ]
		},
		{
			"bufferView" : 1,
			"byteOffset" : 0,
			"componentType" : 5126,
			"count" : 1236,
			"type" : "VEC3",
			"min" : [ -0.9867445826530457, -0.9908510446548462, -1 ],
			"max" : [ 0.921603262424469, 0.8126858472824097, 1 ]
		},
		{
			"bufferView" : 2,
			"byteOffset" : 0,
			"componentType" : 5126,
			"count" : 1236,
			"type" : "VEC3"
		},
		{
			"bufferView" : 3,
			"byteOffset" : 0,
			"componentType" : 5123,
			"count" : 1236,
			"type" : "SCALAR",
			"min" : [ 0 ],
			"max" : [ 1235 ]
		}
	],
	"bufferViews" : [
		{
			"buffer" : 0,
			"byteOffset" : 0,
			"byteLength" : 14832,
			"target" : 34962
		},
		{
			"buffer" : 0,
			"byteOffset" : 14832,
			"byteLength" : 14832,
			"target" : 34962
		},
		{
			"buffer" : 0,
			"byteOffset" : 29664,
			"byteLength" : 14832,
			"target" : 34962
		},
		{
			"buffer" : 0,
			"byteOffset" : 44496,
			"byteLength" : 2472,
			"target" : 34963
		}
	],
	"buffers" : [
		{
			"uri" : "B355071522801063C0.bin",
			"byteLength" : 46968
		}
	]
}
