{
	"asset" : {
		"generator" : "FME 2023.1.0.0",
		"version" : "2.0"
	},
	"materials" : [
		{
			"name" : "default_material",
			"pbrMetallicRoughness" : {
				"baseColorFactor" : [ 1, 1, 1, 1 ],
				"roughnessFactor" : 0.30000000000000004,
				"metallicFactor" : 0.5
			}
		}
	],
	"meshes" : [
		{
			"primitives" : [
				{
					"attributes" : {
						"NORMAL" : 1,
						"POSITION" : 0,
						"COLOR_0" : 2
					},
					"indices" : 3,
					"material" : 0,
					"mode" : 4
				}
			]
		}
	],
	"nodes" : [
		{
			"name" : "B355211504601063C0",
			"matrix" : [ 1, 0, 0, 0, 0, 0, -1, 0, 0, 1, 0, 0, 835521.1875, 73.3479995727539, -815045.375, 1 ],
			"children" : [ 1 ]
		},
		{
			"mesh" : 0
		}
	],
	"scenes" : [
		{
			"nodes" : [ 0 ]
		}
	],
	"scene" : 0,
	"accessors" : [
		{
			"bufferView" : 0,
			"byteOffset" : 0,
			"componentType" : 5126,
			"count" : 591,
			"type" : "VEC3",
			"min" : [ -2.80078125, -2.8544921875, 0 ],
			"max" : [ 2.7998046875, 2.8544921875, 5.266998291015625 ]
		},
		{
			"bufferView" : 1,
			"byteOffset" : 0,
			"componentType" : 5126,
			"count" : 591,
			"type" : "VEC3",
			"min" : [ -0.9999986886978149, -0.9977986216545105, 0 ],
			"max" : [ 1, 0.9977281093597412, 1 ]
		},
		{
			"bufferView" : 2,
			"byteOffset" : 0,
			"componentType" : 5126,
			"count" : 591,
			"type" : "VEC3"
		},
		{
			"bufferView" : 3,
			"byteOffset" : 0,
			"componentType" : 5123,
			"count" : 591,
			"type" : "SCALAR",
			"min" : [ 0 ],
			"max" : [ 590 ]
		}
	],
	"bufferViews" : [
		{
			"buffer" : 0,
			"byteOffset" : 0,
			"byteLength" : 7092,
			"target" : 34962
		},
		{
			"buffer" : 0,
			"byteOffset" : 7092,
			"byteLength" : 7092,
			"target" : 34962
		},
		{
			"buffer" : 0,
			"byteOffset" : 14184,
			"byteLength" : 7092,
			"target" : 34962
		},
		{
			"buffer" : 0,
			"byteOffset" : 21276,
			"byteLength" : 1182,
			"target" : 34963
		}
	],
	"buffers" : [
		{
			"uri" : "B355211504601063C0.bin",
			"byteLength" : 22458
		}
	]
}
