{
	"asset" : {
		"generator" : "FME 2022.2.4.0",
		"version" : "2.0"
	},
	"materials" : [
		{
			"name" : "default_material",
			"pbrMetallicRoughness" : {
				"baseColorFactor" : [ 1, 1, 1, 1 ],
				"roughnessFactor" : 0.30000000000000004,
				"metallicFactor" : 0.5
			}
		}
	],
	"meshes" : [
		{
			"primitives" : [
				{
					"attributes" : {
						"NORMAL" : 1,
						"POSITION" : 0,
						"COLOR_0" : 2
					},
					"indices" : 3,
					"material" : 0,
					"mode" : 4
				}
			]
		}
	],
	"nodes" : [
		{
			"name" : "B337321632101063C0",
			"matrix" : [ 1, 0, 0, 0, 0, 0, -1, 0, 0, 1, 0, 0, 833731.8125, 3.1370038986206055, -816321.125, 1 ],
			"children" : [ 1 ]
		},
		{
			"mesh" : 0
		}
	],
	"scenes" : [
		{
			"nodes" : [ 0 ]
		}
	],
	"scene" : 0,
	"accessors" : [
		{
			"bufferView" : 0,
			"byteOffset" : 0,
			"componentType" : 5126,
			"count" : 1029,
			"type" : "VEC3",
			"min" : [ -6.390625, -8.337890625, 0 ],
			"max" : [ 6.390625, 8.337890625, 75.6449966430664 ]
		},
		{
			"bufferView" : 1,
			"byteOffset" : 0,
			"componentType" : 5126,
			"count" : 1029,
			"type" : "VEC3",
			"min" : [ -0.9708575010299683, -0.9710149168968201, -1 ],
			"max" : [ 0.9666019678115845, 0.9726805090904236, 1 ]
		},
		{
			"bufferView" : 2,
			"byteOffset" : 0,
			"componentType" : 5126,
			"count" : 1029,
			"type" : "VEC3"
		},
		{
			"bufferView" : 3,
			"byteOffset" : 0,
			"componentType" : 5123,
			"count" : 1029,
			"type" : "SCALAR",
			"min" : [ 0 ],
			"max" : [ 1028 ]
		}
	],
	"bufferViews" : [
		{
			"buffer" : 0,
			"byteOffset" : 0,
			"byteLength" : 12348,
			"target" : 34962
		},
		{
			"buffer" : 0,
			"byteOffset" : 12348,
			"byteLength" : 12348,
			"target" : 34962
		},
		{
			"buffer" : 0,
			"byteOffset" : 24696,
			"byteLength" : 12348,
			"target" : 34962
		},
		{
			"buffer" : 0,
			"byteOffset" : 37044,
			"byteLength" : 2058,
			"target" : 34963
		}
	],
	"buffers" : [
		{
			"uri" : "B337321632101063C0.bin",
			"byteLength" : 39102
		}
	]
}
