{
	"asset" : {
		"generator" : "FME 2022.2.4.0",
		"version" : "2.0"
	},
	"materials" : [
		{
			"name" : "default_material",
			"pbrMetallicRoughness" : {
				"baseColorFactor" : [ 1, 1, 1, 1 ],
				"roughnessFactor" : 0.30000000000000004,
				"metallicFactor" : 0.5
			}
		}
	],
	"meshes" : [
		{
			"primitives" : [
				{
					"attributes" : {
						"NORMAL" : 1,
						"POSITION" : 0,
						"COLOR_0" : 2
					},
					"indices" : 3,
					"material" : 0,
					"mode" : 4
				}
			]
		}
	],
	"nodes" : [
		{
			"name" : "B337691584601063C0",
			"matrix" : [ 1, 0, 0, 0, 0, 0, -1, 0, 0, 1, 0, 0, 833774.875, 51.7700080871582, -815849.1875, 1 ],
			"children" : [ 1 ]
		},
		{
			"mesh" : 0
		}
	],
	"scenes" : [
		{
			"nodes" : [ 0 ]
		}
	],
	"scene" : 0,
	"accessors" : [
		{
			"bufferView" : 0,
			"byteOffset" : 0,
			"componentType" : 5126,
			"count" : 747,
			"type" : "VEC3",
			"min" : [ -8.3447265625, -9.615234375, 0 ],
			"max" : [ 8.3447265625, 9.6142578125, 24.36099624633789 ]
		},
		{
			"bufferView" : 1,
			"byteOffset" : 0,
			"componentType" : 5126,
			"count" : 747,
			"type" : "VEC3",
			"min" : [ -0.9158361554145813, -0.9992941617965698, -1 ],
			"max" : [ 0.9139837622642517, 0.9289239645004272, 1 ]
		},
		{
			"bufferView" : 2,
			"byteOffset" : 0,
			"componentType" : 5126,
			"count" : 747,
			"type" : "VEC3"
		},
		{
			"bufferView" : 3,
			"byteOffset" : 0,
			"componentType" : 5123,
			"count" : 747,
			"type" : "SCALAR",
			"min" : [ 0 ],
			"max" : [ 746 ]
		}
	],
	"bufferViews" : [
		{
			"buffer" : 0,
			"byteOffset" : 0,
			"byteLength" : 8964,
			"target" : 34962
		},
		{
			"buffer" : 0,
			"byteOffset" : 8964,
			"byteLength" : 8964,
			"target" : 34962
		},
		{
			"buffer" : 0,
			"byteOffset" : 17928,
			"byteLength" : 8964,
			"target" : 34962
		},
		{
			"buffer" : 0,
			"byteOffset" : 26892,
			"byteLength" : 1494,
			"target" : 34963
		}
	],
	"buffers" : [
		{
			"uri" : "B337691584601063C0.bin",
			"byteLength" : 28386
		}
	]
}
