{
	"asset" : {
		"generator" : "FME 2022.2.4.0",
		"version" : "2.0"
	},
	"materials" : [
		{
			"name" : "default_material",
			"pbrMetallicRoughness" : {
				"baseColorFactor" : [ 1, 1, 1, 1 ],
				"roughnessFactor" : 0.30000000000000004,
				"metallicFactor" : 0.5
			}
		}
	],
	"meshes" : [
		{
			"primitives" : [
				{
					"attributes" : {
						"NORMAL" : 1,
						"POSITION" : 0,
						"COLOR_0" : 2
					},
					"indices" : 3,
					"material" : 0,
					"mode" : 4
				}
			]
		}
	],
	"nodes" : [
		{
			"name" : "B336571626901063C0",
			"matrix" : [ 1, 0, 0, 0, 0, 0, -1, 0, 0, 1, 0, 0, 833659.6875, 2.846000909805298, -816267.9375, 1 ],
			"children" : [ 1 ]
		},
		{
			"mesh" : 0
		}
	],
	"scenes" : [
		{
			"nodes" : [ 0 ]
		}
	],
	"scene" : 0,
	"accessors" : [
		{
			"bufferView" : 0,
			"byteOffset" : 0,
			"componentType" : 5126,
			"count" : 642,
			"type" : "VEC3",
			"min" : [ -8.318359375, -6.46875, 0 ],
			"max" : [ 8.3193359375, 6.4677734375, 21.138999938964844 ]
		},
		{
			"bufferView" : 1,
			"byteOffset" : 0,
			"componentType" : 5126,
			"count" : 642,
			"type" : "VEC3",
			"min" : [ -0.9204871654510498, -0.9987434148788452, -1 ],
			"max" : [ 1, 0.9993644952774048, 1 ]
		},
		{
			"bufferView" : 2,
			"byteOffset" : 0,
			"componentType" : 5126,
			"count" : 642,
			"type" : "VEC3"
		},
		{
			"bufferView" : 3,
			"byteOffset" : 0,
			"componentType" : 5123,
			"count" : 642,
			"type" : "SCALAR",
			"min" : [ 0 ],
			"max" : [ 641 ]
		}
	],
	"bufferViews" : [
		{
			"buffer" : 0,
			"byteOffset" : 0,
			"byteLength" : 7704,
			"target" : 34962
		},
		{
			"buffer" : 0,
			"byteOffset" : 7704,
			"byteLength" : 7704,
			"target" : 34962
		},
		{
			"buffer" : 0,
			"byteOffset" : 15408,
			"byteLength" : 7704,
			"target" : 34962
		},
		{
			"buffer" : 0,
			"byteOffset" : 23112,
			"byteLength" : 1284,
			"target" : 34963
		}
	],
	"buffers" : [
		{
			"uri" : "B336571626901063C0.bin",
			"byteLength" : 24396
		}
	]
}
