{"asset":{"generator":"FME 2023.2.1.0","version":"2.0"},"materials":[{"name":"T18750156000106E10","pbrMetallicRoughness":{"roughnessFactor":0.984375,"metallicFactor":0.5}}],"meshes":[{"primitives":[{"attributes":{"NORMAL":1,"POSITION":0,"TEXCOORD_0":2},"indices":3,"material":0,"mode":4}]}],"nodes":[{"name":"T18750156000106E10","matrix":[1,0,0,0,0,0,-1,0,0,1,0,0,819125,122.25978088378906,-815900,1],"children":[1]},{"mesh":0}],"scenes":[{"nodes":[0]}],"scene":0,"accessors":[{"bufferView":0,"byteOffset":0,"componentType":5126,"count":226038,"type":"VEC3","min":[-375,-299.9951171875,0],"max":[375,300.0009765625,153.25523376464844]},{"bufferView":1,"byteOffset":0,"componentType":5126,"count":226038,"type":"VEC3","min":[-0.6853490471839905,-0.7724137306213379,0.5792933106422424],"max":[0.7417944073677063,0.7449970245361328,0.9999998807907104]},{"bufferView":2,"byteOffset":0,"componentType":5126,"count":226038,"type":"VEC2","min":[-5.960464477539063e-08,0],"max":[1,1]},{"bufferView":3,"byteOffset":0,"componentType":5125,"count":226038,"type":"SCALAR","min":[0],"max":[226037]}],"bufferViews":[{"buffer":0,"byteOffset":0,"byteLength":2712456,"target":34962},{"buffer":0,"byteOffset":2712456,"byteLength":2712456,"target":34962},{"buffer":0,"byteOffset":5424912,"byteLength":1808304,"target":34962},{"buffer":0,"byteOffset":7233216,"byteLength":904152,"target":34963}],"buffers":[{"uri":"T18750156000106E10.bin","byteLength":8137368}]}