{
	"asset" : {
		"generator" : "FME 2023.1.0.0",
		"version" : "2.0"
	},
	"materials" : [
		{
			"name" : "default_material",
			"pbrMetallicRoughness" : {
				"baseColorFactor" : [ 1, 1, 1, 1 ],
				"roughnessFactor" : 0.30000000000000004,
				"metallicFactor" : 0.5
			}
		}
	],
	"meshes" : [
		{
			"primitives" : [
				{
					"attributes" : {
						"NORMAL" : 1,
						"POSITION" : 0,
						"COLOR_0" : 2
					},
					"indices" : 3,
					"material" : 0,
					"mode" : 4
				}
			]
		}
	],
	"nodes" : [
		{
			"name" : "B355841530401063C0",
			"matrix" : [ 1, 0, 0, 0, 0, 0, -1, 0, 0, 1, 0, 0, 835584.875, 4.258999824523926, -815303.4375, 1 ],
			"children" : [ 1 ]
		},
		{
			"mesh" : 0
		}
	],
	"scenes" : [
		{
			"nodes" : [ 0 ]
		}
	],
	"scene" : 0,
	"accessors" : [
		{
			"bufferView" : 0,
			"byteOffset" : 0,
			"componentType" : 5126,
			"count" : 81,
			"type" : "VEC3",
			"min" : [ -3.1884765625, -3.408203125, 0 ],
			"max" : [ 3.1884765625, 3.408203125, 4.432000160217285 ]
		},
		{
			"bufferView" : 1,
			"byteOffset" : 0,
			"componentType" : 5126,
			"count" : 81,
			"type" : "VEC3",
			"min" : [ -0.8279932141304016, -0.8275145292282104, -0.0005110868369229138 ],
			"max" : [ 0.8280534744262695, 0.8276398181915283, 1 ]
		},
		{
			"bufferView" : 2,
			"byteOffset" : 0,
			"componentType" : 5126,
			"count" : 81,
			"type" : "VEC3"
		},
		{
			"bufferView" : 3,
			"byteOffset" : 0,
			"componentType" : 5121,
			"count" : 81,
			"type" : "SCALAR",
			"min" : [ 0 ],
			"max" : [ 80 ]
		}
	],
	"bufferViews" : [
		{
			"buffer" : 0,
			"byteOffset" : 0,
			"byteLength" : 972,
			"target" : 34962
		},
		{
			"buffer" : 0,
			"byteOffset" : 972,
			"byteLength" : 972,
			"target" : 34962
		},
		{
			"buffer" : 0,
			"byteOffset" : 1944,
			"byteLength" : 972,
			"target" : 34962
		},
		{
			"buffer" : 0,
			"byteOffset" : 2916,
			"byteLength" : 81,
			"target" : 34963
		}
	],
	"buffers" : [
		{
			"uri" : "B355841530401063C0.bin",
			"byteLength" : 2997
		}
	]
}
