{
	"asset" : {
		"generator" : "FME 2022.2.4.0",
		"version" : "2.0"
	},
	"materials" : [
		{
			"name" : "default_material",
			"pbrMetallicRoughness" : {
				"baseColorFactor" : [ 1, 1, 1, 1 ],
				"roughnessFactor" : 0.30000000000000004,
				"metallicFactor" : 0.5
			}
		}
	],
	"meshes" : [
		{
			"primitives" : [
				{
					"attributes" : {
						"NORMAL" : 1,
						"POSITION" : 0,
						"COLOR_0" : 2
					},
					"indices" : 3,
					"material" : 0,
					"mode" : 4
				}
			]
		}
	],
	"nodes" : [
		{
			"name" : "B343601584801063C0",
			"matrix" : [ 1, 0, 0, 0, 0, 0, -1, 0, 0, 1, 0, 0, 834379.1875, 16.211000442504883, -815846.5625, 1 ],
			"children" : [ 1 ]
		},
		{
			"mesh" : 0
		}
	],
	"scenes" : [
		{
			"nodes" : [ 0 ]
		}
	],
	"scene" : 0,
	"accessors" : [
		{
			"bufferView" : 0,
			"byteOffset" : 0,
			"componentType" : 5126,
			"count" : 5184,
			"type" : "VEC3",
			"min" : [ -26.357421875, -24.5517578125, 0 ],
			"max" : [ 26.3564453125, 24.5517578125, 118.97100830078125 ]
		},
		{
			"bufferView" : 1,
			"byteOffset" : 0,
			"componentType" : 5126,
			"count" : 5184,
			"type" : "VEC3",
			"min" : [ -0.9983299970626831, -0.9982496500015259, -1 ],
			"max" : [ 0.9956889748573303, 0.9974400997161865, 1 ]
		},
		{
			"bufferView" : 2,
			"byteOffset" : 0,
			"componentType" : 5126,
			"count" : 5184,
			"type" : "VEC3"
		},
		{
			"bufferView" : 3,
			"byteOffset" : 0,
			"componentType" : 5123,
			"count" : 5184,
			"type" : "SCALAR",
			"min" : [ 0 ],
			"max" : [ 5183 ]
		}
	],
	"bufferViews" : [
		{
			"buffer" : 0,
			"byteOffset" : 0,
			"byteLength" : 62208,
			"target" : 34962
		},
		{
			"buffer" : 0,
			"byteOffset" : 62208,
			"byteLength" : 62208,
			"target" : 34962
		},
		{
			"buffer" : 0,
			"byteOffset" : 124416,
			"byteLength" : 62208,
			"target" : 34962
		},
		{
			"buffer" : 0,
			"byteOffset" : 186624,
			"byteLength" : 10368,
			"target" : 34963
		}
	],
	"buffers" : [
		{
			"uri" : "B343601584801063C0.bin",
			"byteLength" : 196992
		}
	]
}
