{
	"asset" : {
		"generator" : "FME 2023.2.1.0",
		"version" : "2.0"
	},
	"materials" : [
		{
			"name" : "default_material",
			"pbrMetallicRoughness" : {
				"baseColorFactor" : [ 1, 1, 1, 1 ],
				"roughnessFactor" : 0.30000000000000004,
				"metallicFactor" : 0.5
			}
		}
	],
	"meshes" : [
		{
			"primitives" : [
				{
					"attributes" : {
						"NORMAL" : 1,
						"POSITION" : 0,
						"COLOR_0" : 2
					},
					"indices" : 3,
					"material" : 0,
					"mode" : 4
				}
			]
		}
	],
	"nodes" : [
		{
			"name" : "B337231591801063C0",
			"matrix" : [ 1, 0, 0, 0, 0, 0, -1, 0, 0, 1, 0, 0, 833720.1875, 51.3900146484375, -815914, 1 ],
			"children" : [ 1 ]
		},
		{
			"mesh" : 0
		}
	],
	"scenes" : [
		{
			"nodes" : [ 0 ]
		}
	],
	"scene" : 0,
	"accessors" : [
		{
			"bufferView" : 0,
			"byteOffset" : 0,
			"componentType" : 5126,
			"count" : 831,
			"type" : "VEC3",
			"min" : [ -6.46875, -7.6533203125, 0 ],
			"max" : [ 6.46875, 7.6533203125, 26.18000030517578 ]
		},
		{
			"bufferView" : 1,
			"byteOffset" : 0,
			"componentType" : 5126,
			"count" : 831,
			"type" : "VEC3",
			"min" : [ -0.9062684774398804, -0.9063572287559509, -1 ],
			"max" : [ 0.9061476588249207, 0.9057461023330688, 1 ]
		},
		{
			"bufferView" : 2,
			"byteOffset" : 0,
			"componentType" : 5126,
			"count" : 831,
			"type" : "VEC3"
		},
		{
			"bufferView" : 3,
			"byteOffset" : 0,
			"componentType" : 5123,
			"count" : 831,
			"type" : "SCALAR",
			"min" : [ 0 ],
			"max" : [ 830 ]
		}
	],
	"bufferViews" : [
		{
			"buffer" : 0,
			"byteOffset" : 0,
			"byteLength" : 9972,
			"target" : 34962
		},
		{
			"buffer" : 0,
			"byteOffset" : 9972,
			"byteLength" : 9972,
			"target" : 34962
		},
		{
			"buffer" : 0,
			"byteOffset" : 19944,
			"byteLength" : 9972,
			"target" : 34962
		},
		{
			"buffer" : 0,
			"byteOffset" : 29916,
			"byteLength" : 1662,
			"target" : 34963
		}
	],
	"buffers" : [
		{
			"uri" : "B337231591801063C0.bin",
			"byteLength" : 31578
		}
	]
}
