{
	"asset" : {
		"generator" : "FME 2022.2.4.0",
		"version" : "2.0"
	},
	"materials" : [
		{
			"name" : "default_material",
			"pbrMetallicRoughness" : {
				"baseColorFactor" : [ 1, 1, 1, 1 ],
				"roughnessFactor" : 0.30000000000000004,
				"metallicFactor" : 0.5
			}
		}
	],
	"meshes" : [
		{
			"primitives" : [
				{
					"attributes" : {
						"NORMAL" : 1,
						"POSITION" : 0,
						"COLOR_0" : 2
					},
					"indices" : 3,
					"material" : 0,
					"mode" : 4
				}
			]
		}
	],
	"nodes" : [
		{
			"name" : "B341701513901063C0",
			"matrix" : [ 1, 0, 0, 0, 0, 0, -1, 0, 0, 1, 0, 0, 834178.1875, 112.62100219726562, -815143.4375, 1 ],
			"children" : [ 1 ]
		},
		{
			"mesh" : 0
		}
	],
	"scenes" : [
		{
			"nodes" : [ 0 ]
		}
	],
	"scene" : 0,
	"accessors" : [
		{
			"bufferView" : 0,
			"byteOffset" : 0,
			"componentType" : 5126,
			"count" : 1824,
			"type" : "VEC3",
			"min" : [ -25.75, -11.25, 0 ],
			"max" : [ 25.75, 11.25, 121.15699768066406 ]
		},
		{
			"bufferView" : 1,
			"byteOffset" : 0,
			"componentType" : 5126,
			"count" : 1824,
			"type" : "VEC3",
			"min" : [ -1, -1, -1 ],
			"max" : [ 1, 0.988371729850769, 1 ]
		},
		{
			"bufferView" : 2,
			"byteOffset" : 0,
			"componentType" : 5126,
			"count" : 1824,
			"type" : "VEC3"
		},
		{
			"bufferView" : 3,
			"byteOffset" : 0,
			"componentType" : 5123,
			"count" : 1824,
			"type" : "SCALAR",
			"min" : [ 0 ],
			"max" : [ 1823 ]
		}
	],
	"bufferViews" : [
		{
			"buffer" : 0,
			"byteOffset" : 0,
			"byteLength" : 21888,
			"target" : 34962
		},
		{
			"buffer" : 0,
			"byteOffset" : 21888,
			"byteLength" : 21888,
			"target" : 34962
		},
		{
			"buffer" : 0,
			"byteOffset" : 43776,
			"byteLength" : 21888,
			"target" : 34962
		},
		{
			"buffer" : 0,
			"byteOffset" : 65664,
			"byteLength" : 3648,
			"target" : 34963
		}
	],
	"buffers" : [
		{
			"uri" : "B341701513901063C0.bin",
			"byteLength" : 69312
		}
	]
}
