{
	"asset" : {
		"generator" : "FME 2023.2.1.0",
		"version" : "2.0"
	},
	"materials" : [
		{
			"name" : "default_material",
			"pbrMetallicRoughness" : {
				"baseColorFactor" : [ 1, 1, 1, 1 ],
				"roughnessFactor" : 0.30000000000000004,
				"metallicFactor" : 0.5
			}
		}
	],
	"meshes" : [
		{
			"primitives" : [
				{
					"attributes" : {
						"NORMAL" : 1,
						"POSITION" : 0,
						"COLOR_0" : 2
					},
					"indices" : 3,
					"material" : 0,
					"mode" : 4
				}
			]
		}
	],
	"nodes" : [
		{
			"name" : "B346121534401063C0",
			"matrix" : [ 1, 0, 0, 0, 0, 0, -1, 0, 0, 1, 0, 0, 834613.5625, 45.85300064086914, -815343.1875, 1 ],
			"children" : [ 1 ]
		},
		{
			"mesh" : 0
		}
	],
	"scenes" : [
		{
			"nodes" : [ 0 ]
		}
	],
	"scene" : 0,
	"accessors" : [
		{
			"bufferView" : 0,
			"byteOffset" : 0,
			"componentType" : 5126,
			"count" : 15834,
			"type" : "VEC3",
			"min" : [ -4.5068359375, -4.5068359375, 0 ],
			"max" : [ 4.5068359375, 4.5068359375, 30.239002227783203 ]
		},
		{
			"bufferView" : 1,
			"byteOffset" : 0,
			"componentType" : 5126,
			"count" : 15834,
			"type" : "VEC3",
			"min" : [ -0.9999901652336121, -1, -1 ],
			"max" : [ 0.9999828338623047, 0.9999998807907104, 1 ]
		},
		{
			"bufferView" : 2,
			"byteOffset" : 0,
			"componentType" : 5126,
			"count" : 15834,
			"type" : "VEC3"
		},
		{
			"bufferView" : 3,
			"byteOffset" : 0,
			"componentType" : 5123,
			"count" : 15834,
			"type" : "SCALAR",
			"min" : [ 0 ],
			"max" : [ 15833 ]
		}
	],
	"bufferViews" : [
		{
			"buffer" : 0,
			"byteOffset" : 0,
			"byteLength" : 190008,
			"target" : 34962
		},
		{
			"buffer" : 0,
			"byteOffset" : 190008,
			"byteLength" : 190008,
			"target" : 34962
		},
		{
			"buffer" : 0,
			"byteOffset" : 380016,
			"byteLength" : 190008,
			"target" : 34962
		},
		{
			"buffer" : 0,
			"byteOffset" : 570024,
			"byteLength" : 31668,
			"target" : 34963
		}
	],
	"buffers" : [
		{
			"uri" : "B346121534401063C0.bin",
			"byteLength" : 601692
		}
	]
}
