{
	"asset" : {
		"generator" : "FME 2023.2.1.0",
		"version" : "2.0"
	},
	"materials" : [
		{
			"name" : "default_material",
			"pbrMetallicRoughness" : {
				"baseColorFactor" : [ 1, 1, 1, 1 ],
				"roughnessFactor" : 0.30000000000000004,
				"metallicFactor" : 0.5
			}
		}
	],
	"meshes" : [
		{
			"primitives" : [
				{
					"attributes" : {
						"NORMAL" : 1,
						"POSITION" : 0,
						"COLOR_0" : 2
					},
					"indices" : 3,
					"material" : 0,
					"mode" : 4
				}
			]
		}
	],
	"nodes" : [
		{
			"name" : "B333351640601063C0",
			"matrix" : [ 1, 0, 0, 0, 0, 0, -1, 0, 0, 1, 0, 0, 833350.75, 3.0160038471221924, -816418.4375, 1 ],
			"children" : [ 1 ]
		},
		{
			"mesh" : 0
		}
	],
	"scenes" : [
		{
			"nodes" : [ 0 ]
		}
	],
	"scene" : 0,
	"accessors" : [
		{
			"bufferView" : 0,
			"byteOffset" : 0,
			"componentType" : 5126,
			"count" : 2100,
			"type" : "VEC3",
			"min" : [ -20.4560546875, -21.3720703125, 0 ],
			"max" : [ 20.45703125, 21.373046875, 72.78900146484375 ]
		},
		{
			"bufferView" : 1,
			"byteOffset" : 0,
			"componentType" : 5126,
			"count" : 2100,
			"type" : "VEC3",
			"min" : [ -1, -0.7646133899688721, -1 ],
			"max" : [ 0.9955483078956604, 0.9984939694404602, 1 ]
		},
		{
			"bufferView" : 2,
			"byteOffset" : 0,
			"componentType" : 5126,
			"count" : 2100,
			"type" : "VEC3"
		},
		{
			"bufferView" : 3,
			"byteOffset" : 0,
			"componentType" : 5123,
			"count" : 2100,
			"type" : "SCALAR",
			"min" : [ 0 ],
			"max" : [ 2099 ]
		}
	],
	"bufferViews" : [
		{
			"buffer" : 0,
			"byteOffset" : 0,
			"byteLength" : 25200,
			"target" : 34962
		},
		{
			"buffer" : 0,
			"byteOffset" : 25200,
			"byteLength" : 25200,
			"target" : 34962
		},
		{
			"buffer" : 0,
			"byteOffset" : 50400,
			"byteLength" : 25200,
			"target" : 34962
		},
		{
			"buffer" : 0,
			"byteOffset" : 75600,
			"byteLength" : 4200,
			"target" : 34963
		}
	],
	"buffers" : [
		{
			"uri" : "B333351640601063C0.bin",
			"byteLength" : 79800
		}
	]
}
