{"asset":{"generator":"FME 2023.1.0.0","version":"2.0"},"materials":[{"name":"T35250150000106E11_001","pbrMetallicRoughness":{"roughnessFactor":0.984375,"metallicFactor":0.5}}],"meshes":[{"primitives":[{"attributes":{"NORMAL":1,"POSITION":0,"TEXCOORD_0":2},"indices":3,"material":0,"mode":4}]}],"nodes":[{"name":"T35250150000106E11","matrix":[0.0254,0,0,0,0,0,-0.0254,0,0,0.0254,0,0,835624.9988,2.2166137313842773,-815300.0203999999,1],"children":[1]},{"mesh":0}],"scenes":[{"nodes":[0]}],"scene":0,"accessors":[{"bufferView":0,"byteOffset":0,"componentType":5126,"count":587321,"type":"VEC3","min":[-14783.46484375,-11830.708984375,0],"max":[14783.46484375,11830.708984375,5307.50390625]},{"bufferView":1,"byteOffset":0,"componentType":5126,"count":587321,"type":"VEC3","min":[-1,-1,-1],"max":[1,1,1]},{"bufferView":2,"byteOffset":0,"componentType":5126,"count":587321,"type":"VEC2","min":[0.000664830207824707,0.0008304119110107422],"max":[0.9993351697921753,0.9991695880889893]},{"bufferView":3,"byteOffset":0,"componentType":5125,"count":673176,"type":"SCALAR","min":[0],"max":[587320]}],"bufferViews":[{"buffer":0,"byteOffset":0,"byteLength":7047852,"target":34962},{"buffer":0,"byteOffset":7047852,"byteLength":7047852,"target":34962},{"buffer":0,"byteOffset":14095704,"byteLength":4698568,"target":34962},{"buffer":0,"byteOffset":18794272,"byteLength":2692704,"target":34963}],"buffers":[{"uri":"T35250150000106E11.bin","byteLength":21486976}]}