{
	"asset" : {
		"generator" : "FME 2022.2.4.0",
		"version" : "2.0"
	},
	"materials" : [
		{
			"name" : "default_material",
			"pbrMetallicRoughness" : {
				"baseColorFactor" : [ 1, 1, 1, 1 ],
				"roughnessFactor" : 0.30000000000000004,
				"metallicFactor" : 0.5
			}
		}
	],
	"meshes" : [
		{
			"primitives" : [
				{
					"attributes" : {
						"NORMAL" : 1,
						"POSITION" : 0,
						"COLOR_0" : 2
					},
					"indices" : 3,
					"material" : 0,
					"mode" : 4
				}
			]
		}
	],
	"nodes" : [
		{
			"name" : "B339431599901063C0",
			"matrix" : [ 1, 0, 0, 0, 0, 0, -1, 0, 0, 1, 0, 0, 833945.4375, 19.607999801635742, -815997.0625, 1 ],
			"children" : [ 1 ]
		},
		{
			"mesh" : 0
		}
	],
	"scenes" : [
		{
			"nodes" : [ 0 ]
		}
	],
	"scene" : 0,
	"accessors" : [
		{
			"bufferView" : 0,
			"byteOffset" : 0,
			"componentType" : 5126,
			"count" : 312,
			"type" : "VEC3",
			"min" : [ -6.1923828125, -7.033203125, 0 ],
			"max" : [ 6.193359375, 7.033203125, 23.385000228881836 ]
		},
		{
			"bufferView" : 1,
			"byteOffset" : 0,
			"componentType" : 5126,
			"count" : 312,
			"type" : "VEC3",
			"min" : [ -0.808544397354126, -0.7384855151176453, -1 ],
			"max" : [ 0.8912708759307861, 0.7274422645568848, 1 ]
		},
		{
			"bufferView" : 2,
			"byteOffset" : 0,
			"componentType" : 5126,
			"count" : 312,
			"type" : "VEC3"
		},
		{
			"bufferView" : 3,
			"byteOffset" : 0,
			"componentType" : 5123,
			"count" : 312,
			"type" : "SCALAR",
			"min" : [ 0 ],
			"max" : [ 311 ]
		}
	],
	"bufferViews" : [
		{
			"buffer" : 0,
			"byteOffset" : 0,
			"byteLength" : 3744,
			"target" : 34962
		},
		{
			"buffer" : 0,
			"byteOffset" : 3744,
			"byteLength" : 3744,
			"target" : 34962
		},
		{
			"buffer" : 0,
			"byteOffset" : 7488,
			"byteLength" : 3744,
			"target" : 34962
		},
		{
			"buffer" : 0,
			"byteOffset" : 11232,
			"byteLength" : 624,
			"target" : 34963
		}
	],
	"buffers" : [
		{
			"uri" : "B339431599901063C0.bin",
			"byteLength" : 11856
		}
	]
}
