{
	"asset" : {
		"generator" : "FME 2023.1.0.0",
		"version" : "2.0"
	},
	"materials" : [
		{
			"name" : "default_material",
			"pbrMetallicRoughness" : {
				"baseColorFactor" : [ 1, 1, 1, 1 ],
				"roughnessFactor" : 0.30000000000000004,
				"metallicFactor" : 0.5
			}
		}
	],
	"meshes" : [
		{
			"primitives" : [
				{
					"attributes" : {
						"NORMAL" : 1,
						"POSITION" : 0,
						"COLOR_0" : 2
					},
					"indices" : 3,
					"material" : 0,
					"mode" : 4
				}
			]
		}
	],
	"nodes" : [
		{
			"name" : "B337671585201063C0",
			"matrix" : [ 1, 0, 0, 0, 0, 0, -1, 0, 0, 1, 0, 0, 833771.0625, 52.06100845336914, -815854.625, 1 ],
			"children" : [ 1 ]
		},
		{
			"mesh" : 0
		}
	],
	"scenes" : [
		{
			"nodes" : [ 0 ]
		}
	],
	"scene" : 0,
	"accessors" : [
		{
			"bufferView" : 0,
			"byteOffset" : 0,
			"componentType" : 5126,
			"count" : 906,
			"type" : "VEC3",
			"min" : [ -8.603515625, -8.630859375, 0 ],
			"max" : [ 8.603515625, 8.6318359375, 24.069995880126953 ]
		},
		{
			"bufferView" : 1,
			"byteOffset" : 0,
			"componentType" : 5126,
			"count" : 906,
			"type" : "VEC3",
			"min" : [ -0.9151143431663513, -0.9472652673721313, -1 ],
			"max" : [ 0.9958527684211731, 0.9954341053962708, 1 ]
		},
		{
			"bufferView" : 2,
			"byteOffset" : 0,
			"componentType" : 5126,
			"count" : 906,
			"type" : "VEC3"
		},
		{
			"bufferView" : 3,
			"byteOffset" : 0,
			"componentType" : 5123,
			"count" : 906,
			"type" : "SCALAR",
			"min" : [ 0 ],
			"max" : [ 905 ]
		}
	],
	"bufferViews" : [
		{
			"buffer" : 0,
			"byteOffset" : 0,
			"byteLength" : 10872,
			"target" : 34962
		},
		{
			"buffer" : 0,
			"byteOffset" : 10872,
			"byteLength" : 10872,
			"target" : 34962
		},
		{
			"buffer" : 0,
			"byteOffset" : 21744,
			"byteLength" : 10872,
			"target" : 34962
		},
		{
			"buffer" : 0,
			"byteOffset" : 32616,
			"byteLength" : 1812,
			"target" : 34963
		}
	],
	"buffers" : [
		{
			"uri" : "B337671585201063C0.bin",
			"byteLength" : 34428
		}
	]
}
