{
	"asset" : {
		"generator" : "FME 2023.2.1.0",
		"version" : "2.0"
	},
	"materials" : [
		{
			"name" : "default_material",
			"pbrMetallicRoughness" : {
				"baseColorFactor" : [ 1, 1, 1, 1 ],
				"roughnessFactor" : 0.30000000000000004,
				"metallicFactor" : 0.5
			}
		}
	],
	"meshes" : [
		{
			"primitives" : [
				{
					"attributes" : {
						"NORMAL" : 1,
						"POSITION" : 0,
						"COLOR_0" : 2
					},
					"indices" : 3,
					"material" : 0,
					"mode" : 4
				}
			]
		}
	],
	"nodes" : [
		{
			"name" : "B336051566002063C0",
			"matrix" : [ 1, 0, 0, 0, 0, 0, -1, 0, 0, 1, 0, 0, 833608.6875, 100.67400360107422, -815662, 1 ],
			"children" : [ 1 ]
		},
		{
			"mesh" : 0
		}
	],
	"scenes" : [
		{
			"nodes" : [ 0 ]
		}
	],
	"scene" : 0,
	"accessors" : [
		{
			"bufferView" : 0,
			"byteOffset" : 0,
			"componentType" : 5126,
			"count" : 729,
			"type" : "VEC3",
			"min" : [ -22.740234375, -27.4658203125, 0 ],
			"max" : [ 22.7412109375, 27.46484375, 16.285995483398438 ]
		},
		{
			"bufferView" : 1,
			"byteOffset" : 0,
			"componentType" : 5126,
			"count" : 729,
			"type" : "VEC3",
			"min" : [ -0.906183123588562, -0.9027236700057983, -0.01340410578995943 ],
			"max" : [ 0.8801102042198181, 0.9006044864654541, 1 ]
		},
		{
			"bufferView" : 2,
			"byteOffset" : 0,
			"componentType" : 5126,
			"count" : 729,
			"type" : "VEC3"
		},
		{
			"bufferView" : 3,
			"byteOffset" : 0,
			"componentType" : 5123,
			"count" : 729,
			"type" : "SCALAR",
			"min" : [ 0 ],
			"max" : [ 728 ]
		}
	],
	"bufferViews" : [
		{
			"buffer" : 0,
			"byteOffset" : 0,
			"byteLength" : 8748,
			"target" : 34962
		},
		{
			"buffer" : 0,
			"byteOffset" : 8748,
			"byteLength" : 8748,
			"target" : 34962
		},
		{
			"buffer" : 0,
			"byteOffset" : 17496,
			"byteLength" : 8748,
			"target" : 34962
		},
		{
			"buffer" : 0,
			"byteOffset" : 26244,
			"byteLength" : 1458,
			"target" : 34963
		}
	],
	"buffers" : [
		{
			"uri" : "B336051566002063C0.bin",
			"byteLength" : 27702
		}
	]
}
