{
	"asset" : {
		"generator" : "FME 2022.2.4.0",
		"version" : "2.0"
	},
	"materials" : [
		{
			"name" : "default_material",
			"pbrMetallicRoughness" : {
				"baseColorFactor" : [ 1, 1, 1, 1 ],
				"roughnessFactor" : 0.30000000000000004,
				"metallicFactor" : 0.5
			}
		}
	],
	"meshes" : [
		{
			"primitives" : [
				{
					"attributes" : {
						"NORMAL" : 1,
						"POSITION" : 0,
						"COLOR_0" : 2
					},
					"indices" : 3,
					"material" : 0,
					"mode" : 4
				}
			]
		}
	],
	"nodes" : [
		{
			"name" : "B344011519402063C0",
			"matrix" : [ 1, 0, 0, 0, 0, 0, -1, 0, 0, 1, 0, 0, 834403.75, 63.57400131225586, -815193.0625, 1 ],
			"children" : [ 1 ]
		},
		{
			"mesh" : 0
		}
	],
	"scenes" : [
		{
			"nodes" : [ 0 ]
		}
	],
	"scene" : 0,
	"accessors" : [
		{
			"bufferView" : 0,
			"byteOffset" : 0,
			"componentType" : 5126,
			"count" : 1080,
			"type" : "VEC3",
			"min" : [ -21.0390625, -26.845703125, 0 ],
			"max" : [ 21.0390625, 26.845703125, 26.711002349853516 ]
		},
		{
			"bufferView" : 1,
			"byteOffset" : 0,
			"componentType" : 5126,
			"count" : 1080,
			"type" : "VEC3",
			"min" : [ -0.9964823126792908, -0.9995457530021667, -1 ],
			"max" : [ 0.9965367317199707, 0.9999335408210754, 1 ]
		},
		{
			"bufferView" : 2,
			"byteOffset" : 0,
			"componentType" : 5126,
			"count" : 1080,
			"type" : "VEC3"
		},
		{
			"bufferView" : 3,
			"byteOffset" : 0,
			"componentType" : 5123,
			"count" : 1080,
			"type" : "SCALAR",
			"min" : [ 0 ],
			"max" : [ 1079 ]
		}
	],
	"bufferViews" : [
		{
			"buffer" : 0,
			"byteOffset" : 0,
			"byteLength" : 12960,
			"target" : 34962
		},
		{
			"buffer" : 0,
			"byteOffset" : 12960,
			"byteLength" : 12960,
			"target" : 34962
		},
		{
			"buffer" : 0,
			"byteOffset" : 25920,
			"byteLength" : 12960,
			"target" : 34962
		},
		{
			"buffer" : 0,
			"byteOffset" : 38880,
			"byteLength" : 2160,
			"target" : 34963
		}
	],
	"buffers" : [
		{
			"uri" : "B344011519402063C0.bin",
			"byteLength" : 41040
		}
	]
}
