{
	"asset" : {
		"generator" : "FME 2023.0.2.0",
		"version" : "2.0"
	},
	"images" : [
		{
			"uri" : "T09000312000106E10_001.jpg"
		}
	],
	"samplers" : [
		{
			"wrapS" : 10497,
			"wrapT" : 10497,
			"magFilter" : 9729,
			"minFilter" : 9986
		}
	],
	"textures" : [
		{
			"source" : 0,
			"sampler" : 0
		}
	],
	"materials" : [
		{
			"name" : "T09000312000106E10",
			"pbrMetallicRoughness" : {
				"baseColorTexture" : {
					"index" : 0,
					"texCoord" : 0
				},
				"roughnessFactor" : 0.984375,
				"metallicFactor" : 0.5
			}
		}
	],
	"meshes" : [
		{
			"primitives" : [
				{
					"attributes" : {
						"NORMAL" : 1,
						"POSITION" : 0,
						"TEXCOORD_0" : 2
					},
					"indices" : 3,
					"material" : 0,
					"mode" : 4
				}
			]
		}
	],
	"nodes" : [
		{
			"name" : "T09000312000106E10",
			"matrix" : [ 1, 0, 0, 0, 0, 0, -1, 0, 0, 1, 0, 0, 809375, 0.9474501609802246, -831500, 1 ],
			"children" : [ 1 ]
		},
		{
			"mesh" : 0
		}
	],
	"scenes" : [
		{
			"nodes" : [ 0 ]
		}
	],
	"scene" : 0,
	"accessors" : [
		{
			"bufferView" : 0,
			"byteOffset" : 0,
			"componentType" : 5126,
			"count" : 11961,
			"type" : "VEC3",
			"min" : [ -375, -300, 0 ],
			"max" : [ 375.0009765625, 300, 12.27981948852539 ]
		},
		{
			"bufferView" : 1,
			"byteOffset" : 0,
			"componentType" : 5126,
			"count" : 11961,
			"type" : "VEC3",
			"min" : [ -1, -0.9362156987190247, -0.06171778216958046 ],
			"max" : [ 1, 0.9962350130081177, 1 ]
		},
		{
			"bufferView" : 2,
			"byteOffset" : 0,
			"componentType" : 5126,
			"count" : 11961,
			"type" : "VEC2",
			"min" : [ 6.67572021484375e-5, 8.344650268554688e-5 ],
			"max" : [ 0.9999351501464844, 0.9999170303344727 ]
		},
		{
			"bufferView" : 3,
			"byteOffset" : 0,
			"componentType" : 5123,
			"count" : 13386,
			"type" : "SCALAR",
			"min" : [ 0 ],
			"max" : [ 11960 ]
		}
	],
	"bufferViews" : [
		{
			"buffer" : 0,
			"byteOffset" : 0,
			"byteLength" : 143532,
			"target" : 34962
		},
		{
			"buffer" : 0,
			"byteOffset" : 143532,
			"byteLength" : 143532,
			"target" : 34962
		},
		{
			"buffer" : 0,
			"byteOffset" : 287064,
			"byteLength" : 95688,
			"target" : 34962
		},
		{
			"buffer" : 0,
			"byteOffset" : 382752,
			"byteLength" : 26772,
			"target" : 34963
		}
	],
	"buffers" : [
		{
			"uri" : "T09000312000106E10.bin",
			"byteLength" : 409524
		}
	]
}