{
	"asset" : {
		"generator" : "FME 2022.2.4.0",
		"version" : "2.0"
	},
	"materials" : [
		{
			"name" : "default_material",
			"pbrMetallicRoughness" : {
				"baseColorFactor" : [ 1, 1, 1, 1 ],
				"roughnessFactor" : 0.30000000000000004,
				"metallicFactor" : 0.5
			}
		}
	],
	"meshes" : [
		{
			"primitives" : [
				{
					"attributes" : {
						"NORMAL" : 1,
						"POSITION" : 0,
						"COLOR_0" : 2
					},
					"indices" : 3,
					"material" : 0,
					"mode" : 4
				}
			]
		}
	],
	"nodes" : [
		{
			"name" : "B331321651301063C0",
			"matrix" : [ 1, 0, 0, 0, 0, 0, -1, 0, 0, 1, 0, 0, 833135.5, 10.861000061035156, -816514.4375, 1 ],
			"children" : [ 1 ]
		},
		{
			"mesh" : 0
		}
	],
	"scenes" : [
		{
			"nodes" : [ 0 ]
		}
	],
	"scene" : 0,
	"accessors" : [
		{
			"bufferView" : 0,
			"byteOffset" : 0,
			"componentType" : 5126,
			"count" : 654,
			"type" : "VEC3",
			"min" : [ -5.28076171875, -8.3095703125, 0 ],
			"max" : [ 5.2802734375, 8.30859375, 44.60499954223633 ]
		},
		{
			"bufferView" : 1,
			"byteOffset" : 0,
			"componentType" : 5126,
			"count" : 654,
			"type" : "VEC3",
			"min" : [ -0.9972860217094421, -0.9962501525878906, -1 ],
			"max" : [ 0.9963573813438416, 0.9962755441665649, 1 ]
		},
		{
			"bufferView" : 2,
			"byteOffset" : 0,
			"componentType" : 5126,
			"count" : 654,
			"type" : "VEC3"
		},
		{
			"bufferView" : 3,
			"byteOffset" : 0,
			"componentType" : 5123,
			"count" : 654,
			"type" : "SCALAR",
			"min" : [ 0 ],
			"max" : [ 653 ]
		}
	],
	"bufferViews" : [
		{
			"buffer" : 0,
			"byteOffset" : 0,
			"byteLength" : 7848,
			"target" : 34962
		},
		{
			"buffer" : 0,
			"byteOffset" : 7848,
			"byteLength" : 7848,
			"target" : 34962
		},
		{
			"buffer" : 0,
			"byteOffset" : 15696,
			"byteLength" : 7848,
			"target" : 34962
		},
		{
			"buffer" : 0,
			"byteOffset" : 23544,
			"byteLength" : 1308,
			"target" : 34963
		}
	],
	"buffers" : [
		{
			"uri" : "B331321651301063C0.bin",
			"byteLength" : 24852
		}
	]
}
