<svg xmlns="http://www.w3.org/2000/svg" width="1552" height="1891" version="1.2" viewBox="0 0 1552 1891"><title>0293</title><style>.s0{fill:#005d63}</style><g id="Page-1"><g id="cathay-en"><path id="Fill-1" d="m1551 1257.5c-8.1-29.3-91.7-16.7-160.8-23.2-62.4-5.6-143.1-17.2-240.3-50.9-90.2-31.8-177.9-68.1-254.5-109.9 0 0-31.2-16.1-34.2-18.1-6.1-4.1-11.1-6.6-17.7-10.6-3.5-2-9.6-5.6-13.6-7.6-5.5-2.5-9.1-5-13.6-8-4.5-3.1-11.1-6.1-15.6-9.1-7.6-4.5-11.6-7.6-18.1-12.6-4.1-3-6.1-4-11.6-7.1-3.6-2-9.1-5.5-12.1-7.5-6.6-4.1-10.1-7.6-16.2-11.6-4-3-6.5-4.5-11-7.1-4.6-2.5-9.1-6.5-13.1-9-2.1-2.1-5.1-3.6-7.1-6.1-4.5-4-9.1-8.1-13.6-11.6-4-3.5-8.1-7.5-12.6-10.6-2.5-2-7.6-6-10.1-8-6.5-5.1-11.1-8.6-18.1-13.6-4.1-3.1-8.1-7.6-12.1-11.1-5.6-4.1-9.6-8.1-15.1-11.1-3.1-3-7.1-5.6-9.6-8.6-3-4-6.1-6.5-10.1-10.6-2.5-2.5-7-6-10.1-8.5-4-5.6-10-11.1-15.6-15.7-3.5-3-4.5-4.5-5.5-6.5-1-1.5-2.5-3-5.1-5.5l-5-5.1c-1-1-2.5-2.5-6-6-1.6-1-3.6-4.1-5.6-6.6-1.5-2.5-3-4.5-4-6-3.5-3.6-6.1-6.1-8.1-8.6-1.5-1.5-3.5-3.5-6-5.5q-2-2.6-3.1-5.1c-1-1.5-2-3.5-3.5-4.5-2-2.5-3.5-1.5-4-1.5-1 1.5-1.5 3.5 0 6.5 1.5 3 4 7.1 6 9.1 0 0.5 0.5 1 0.5 1 0.5 1.5 1.5 2 2.1 3.5q1.5 2 2.5 4.6c3 3.5 6 6.5 8 9l3.1 3.1q2.2 3 4.5 6c1.5 2 3 4.5 5 6.6 1 1 1.5 2 2.6 3 0.5 1 1.5 2.5 2.5 3.5l4.5 5c2.5 2.6 5.5 5.1 8.1 7.1 1.5 1.5 3.5 4 6 6.1 4.6 6 10.6 12 15.1 18.1 2.6 3 7.1 5.5 10.1 8.1 4 2.5 6.1 6.5 9.1 10 2 2.6 6.5 6.1 8 9.1 5.1 6.6 9.1 10.1 15.7 15.1 4 3.1 7 5.6 10.5 10.1 1.6 2 7.6 8.1 9.6 10.6 5.6 7 8.1 13.6 7.1 13.6-3.6 1-12.6-7.1-18.2-10.6-4.5-3-5.5-4-9.5-7.5-1-1.1-7.6-5.6-10.1-8.6-2-1.5-6.6-7.1-8.6-9.1-7.5-9.6-10.1-10.6-19.1-19.1-6.6-6.6-14.6-12.1-20.7-18.2-2-1.5-4-3.5-5.5-5.5-2.1-2.5-4.6-4.6-6.6-6.1-3-4-7-11.1-10.6-14.1-3.5-2.5-6-5-10-8-1.6-1.1-2.6-2.6-3.6-3.6-2-1-4-3-5.5-5-4-5.1-8.6-10.6-12.6-16.1-2-3.1-5.1-5.1-7.1-7.6-4-6-7.5-12.1-12.1-18.1-5.5-7.6-14.1-13.6-20.1-21.2-5.6-8.1-9.6-17.6-15.1-25.7-2-4-6.1-7.1-8.6-10.1-1.5-2-2.5-4.5-4-6.5-2.6-4.6-6.1-9.1-9.6-13.7-3.5-5.5-6.1-12-10.1-18.1-1-1-2.5-5-4-8.1-3-3-5.1-6.5-7.6-11-2.5-4.1-4-7.1-6-10.1-2-3-3-5.6-4.6-8.1-1.5-2-4-5.5-5-7.5-4-5.1-4.5-8.1-8.6-13.2-2-3-4.5-5.5-6.5-5-1.5 1.5-1 3-0.5 4.5 1 4.6 1 4.1 3 7.6 3 5 4 7.6 7.6 12.6 1 2.5 4 8.1 6 11.1 2 3 4 6.5 5.6 9.1 1 3 3.5 9.5 6 12.6 1.5 2 3.5 6.5 5 9.5 3.6 6.1 7.1 11.1 10.6 15.7 2 4 4.1 8.5 6.1 12.6 4.5 6.5 9.5 12.1 13.6 19.1l7.5 13.6c2.6 4.1 6.6 7.1 8.6 11.1 3 4.5 5 9.6 8.1 14.1 2 4.1 5 7.1 7.5 11.1 4.6 6.1 8.1 12.1 12.1 17.6 2.5 3.6 5.6 6.1 8.1 9.1 3 4.6 5.5 9.6 9 13.6 4.1 3.6 5.1 6.1 8.1 9.6 5 6 16.6 22.7 14.6 22.7-7 0.5-19.6-14.1-25.7-19.7-4-4.5-9-7.5-12.1-11.6-4-6-7.5-12.6-11.6-18.6-2-2-4.5-3.5-6-5.6-3-4-6.1-8-9.6-12.1-1.5-1-3-2-4-4-5.6-7-10.1-14.1-15.6-21.7-2-2.5-4.6-5.5-6.6-8.5-2-2-3-4.6-4.5-7.1-1.5-3.5-4.6-6.5-6.6-9.6-2-2.5-3-5-4.5-7-2.5-4.5-6.6-8.6-9.6-12.6-2-3.5-2.5-8.1-4.5-12.1-6.1-8.6-12.6-18.2-18.2-27.2-1.5-2.5-2.5-5.1-3.5-7.6-4.5-7.5-9-15.1-14.1-22.7-1.5-2.5-2-6-4-8.5-2-3.6-5.6-5.6-7.1-9.1-2-2.5-3-5-4-8.1-2-4-4-8-6.1-11.1-1-2.5-2-5-3.5-7q-7.5-13.1-14.6-27.7c-2.5-5.6-6-9.6-8.1-15.1-3-5.6-5.5-11.6-8-16.7-1.5-4-3-7.5-3.5-11.6-3.1-6-7.1-11.1-10.1-17.1-1.5-4-2.5-8.1-4.1-11.6-1.5-1.5-3-3.5-5-2.5-1 1-1.5 2.5-0.5 5.5 2 6.6 5 13.6 7.1 17.2 3 7 4.5 14.6 7.5 21.6 2 3.6 4.6 7.6 6.1 11.6l9 20.2c1.5 3.5 3.1 7 5.6 10.6 0.5 2 2.5 4 3 6 2 5.1 3 9.6 4.5 14.1 2.6 4.6 6.1 8.1 7.6 12.6 11.1 22.7 21.7 44.9 34.8 65 3.5 5.6 5.5 12.6 9 18.2 4.1 6 9.1 10.1 12.6 16.1 3.1 5.1 4.1 11.6 6.6 16.6 4 7.6 9.6 14.2 14.1 21.2 1 2 1.5 4 3 6.1 1.5 2.5 4 5.5 5.6 8.5 2.5 4.1 3.5 8.1 6 11.1 3 4 6.6 7.1 9.1 11.1 4 4.5 6 10.1 9.5 14.6 2.6 3.5 6.1 5.6 8.6 9.1 4 5 17.6 23.2 21.7 28.2 6 7.6 16.6 19.2 21.6 29.2 1.6 3.1 6.6 10.1 5.6 11.6-2.5 2.6-16.1-12.6-18.7-15.1-5-5-10-12.6-15.1-18.6-1-1.5-14.1-14.1-15.6-15.7q-1.5-2.5-3-5.5c-4-5-6.1-11.6-10.1-16.6-1.5-2-4-3.6-5.5-6.1-2.6-4-5.1-8-7.6-12.6-4.5-6-10.6-11.6-15.1-18.1-5.6-6.6-9.1-14.6-13.6-21.7-3-3.5-6.1-6.5-8.1-10.1-1.5-1.5-1.5-3.5-2.5-5-2-2.5-4.5-6.1-5.5-9.1-1.6-3-2.6-5.5-4.6-8-5-8.1-10.6-17.2-15.6-25.8-2-3.5-3.5-7.5-6-11.5-4.1-6.1-9.1-11.6-13.1-17.7-5.1-7.5-7.1-16.1-11.6-23.7-3.6-5-7.1-9.5-10.1-14.1-3.5-5.5-5.1-11.6-8.1-17.1-2.5-5.1-6.5-9.6-8.5-14.6-2.6-5.6-4.1-10.6-6.6-16.2-1.5-2.5-4-5.5-5-8.5-1.5-4.1-2-7.6-3.6-11.1-4.5-10.6-11.5-20.2-16.6-30.3q-5.3-10.5-9.1-22.6c-1.5-4.1-2-8.1-4-12.1-4-9.1-9.1-19.2-13.6-28.8-1.5-4.5-3.5-9.5-5-14.6q-0.5-2-1-4c-2.1-4.5-4.6-8.6-6.1-13.1-2-5-3.5-10.1-5-15.6-6.6-16.2-12.6-34.8-18.7-51.9-1-3.1-1-6.6-2.5-10.1-3-8.6-6-17.7-9.1-26.7-2-4.6-6.5-2.5-5 1.5 1 6 2 8 2.5 12.6 0.5 2.5 1 5 1.5 7 1 3.1 2.6 6.1 3.6 9.1 1.5 5.1 1.5 10.1 3.5 15.6q3.5 10.1 7 21.2 1.1 5 2.1 10.6c1.5 3.5 2.5 7 4 10.1 3 9 7 17.6 10.1 26.2 1 5 2.5 10.1 3.5 15.6 1.5 2.5 4 5.5 4.5 8.6 1.5 2 1.5 4.5 2.5 7 2.6 5.6 4.6 11.6 7.1 17.2 2 5 5 9.5 6.6 14.6 1 2.5 1 4.5 1.5 7 5.5 15.1 11.6 30.8 18.1 44.9 1.5 4 2 7 3.5 11.1 1 3 3.1 6 4.6 9q0.5 2.6 2 6.1c2 4 5 7.5 7 11.6 5.6 11.6 10.6 22.7 17.2 32.7 6.5 9.1 9.5 21.7 14.1 32.8 2.5 5 5.5 9.6 8.5 14.1 1.6 2 2.6 5 3.6 7.6 3 5.5 4.5 10.5 8.5 15.6 3.1 4.5 2.6 5.5 5.1 11.1 0.5 2 3.5 12.6 3 12.6-1 1-6.5-2.5-8.1-4.6-2.5-3-6.5-6-9-12.1-1-3.5-4.1-8.5-5.1-11.5-3.5-7.1-9.5-13.2-13.6-19.7-2.5-4-3.5-8.6-5.5-12.6-3.5-7.6-7.6-15.6-11.6-23.7-1.5-3-3.5-6-5.5-9.1-2.1-3-3.1-6.5-5.1-9.5-4-6.6-9.1-14.1-12.1-21.2-2.5-5.5-4-11.1-6.5-16.1-0.5-2-2-3.6-3.1-5.1-1.5-3-2-5.5-4-9-1.5-4.1-4.5-7.6-6.5-12.1-3.6-8.6-6.1-16.7-10.1-24.7-1.5-4.6-4.6-7.6-6.6-11.1-2.5-6.1-3-13.6-6-19.7-6.6-16.1-15.1-32.7-21.2-49.9-1-3-1.5-6.5-2-9-3-7.6-6-14.7-9.1-21.7-1.5-3.5-1.5-6.6-2.5-9.6-2-5-4-10.6-6-15.6-0.5-1.5-0.5-3.5-1.5-5-2.1-4.6-3.1-10.1-5.6-15.2-1-2.5-3-5-3.5-7.5-2-5.1-1.5-11.1-3-16.2-2.6-7-5.6-14.6-8.1-21.1-1-4.1-1.5-7.6-3-11.6-2-5.1-3.5-10.1-5.1-14.1-2-5.1-1.5-10.1-3.5-15.1-0.5-3.6-2.5-8.1-4-11.1-2-7.1-3-14.1-5.6-20.2 0-1-0.5-2.5-1-3.5-0.5-2-2-3.5-3.5-3-2 0.5-2 3.5-2 5 0.5 4.5 2.5 9.1 4 13.1 1 4 2 8.6 3 12.6 1.1 3 0.5 5.5 1.6 8.6 1 4 2 7.5 3 11.6 1 3.5 0.5 7.5 1.5 10.5 2.5 8.1 5 17.7 8.1 25.7 1 4.1 1.5 9.1 2.5 12.1 1.5 4.6 3 9.1 4.5 13.1 1.5 3.6 1.5 6.6 3 10.1 1.5 3.6 3.6 7.1 4.6 11.6 1.5 5.1 1.5 10.1 3 14.6 3 8.1 6.5 15.7 9.6 23.2 1 3 1 6.1 2 8.6 2.5 6.5 4 13.6 6 20.6 4.1 9.1 8.1 18.2 11.1 27.8 3.5 9 4 20.1 8.1 28.7 2 4 5.5 7 7.5 11.1 1.5 2.5 1 5.5 2 8.5 1.1 3.6 2.6 7.1 4.1 10.6 0.5 3.1 1.5 5.6 2 8.6 1.5 3.5 4.5 7.1 5.5 10.1 2.6 5.5 4.1 11.6 7.1 16.1 2 4 5 7.6 7.6 11.6 2 4.5 2.5 9.6 4.5 14.1 3 7.1 7 13.6 9.1 21.2 2.5 6 3.5 13.6 6.5 19.1 3 6.1 7.1 11.1 10.6 16.7 1.5 4.5 3.5 8.5 5.5 13.1 1.5 3 4.6 6.5 6.6 10 2.5 4.1 5 8.6 7 13.1 1.5 3.6 2.1 6.6 3.6 9.6 3 4.6 5 8.1 8 12.6 2.5 4 5.1 9.1 7.1 13.6 1.5 4.1 2.5 7.1 4.5 10.6 2.5 3 5.6 6.1 7.1 9.1 2 3 4.5 14.1 3.5 14.6-2 0.5-8.6-5.5-10.6-7.6-5-6.5-8-15.1-12.6-21.6-5-7.6-8-11.6-11.6-19.7-2.5-5-6.5-13.6-9-18.1-3.1-3.6-6.6-7.6-8.6-12.1-1.5-3.6-2.5-8.1-4-11.6-2.6-5.6-7.1-9.1-9.6-14.1-3.5-6.1-4.5-12.6-7.6-18.7-1.5-2.5-3.5-5.5-4.5-8.5-2-4.1-3-7.1-4.5-11.1-3.6-7.6-8.6-13.6-11.6-21.2-4.1-7.6-6.1-15.6-10.1-23.7-1.5-4-5-7.5-7.1-12.1-3-5.5-4-11.1-6.5-16.6-1.5-3.5-4-6.6-5.6-10.1-2-4.5-3-10.1-5-15.1-5.5-11.6-10.6-23.2-15.6-34.8-1.5-4.5-2-8.6-4.6-13.1-1.5-4-3.5-7.6-5.5-11.6-4-10.1-6-22.2-10.1-31.7-2.5-5.6-5-10.1-7.5-15.7-2.6-8.5-4.1-17.6-7.1-26.2-5-13.6-9.1-28.2-13.6-40.8-1.5-4.5-1.5-8.1-3-12.6-1.5-4-3-7.5-4.5-11.6-1.1-3-1.6-8-2.6-12.1-3.5-11.1-7-22.7-10.6-34.2-1-2.6-1-7.6-2-11.1-0.5-2-1.5-4.6-2-6.1-1-2.5-1-4.5-1.5-7.5-3.5-8.6-5.5-18.2-8.1-26.8-0.5-2.5-1-6-2-9-3.5-12.1-5.5-26.7-10-37.3-1.1-2-2.1-4.6-4.6-4-2 0.5-1.5 3-1 4.5 0.5 6 2.5 10.6 3.5 15.1 0 2 0 4.5 0 7.1 0.5 2 1 4.5 1.5 6.5 2.6 7.1 4.6 15.6 6.6 22.7 1 3.5 0.5 8.6 1 12.1 3 11.6 5.5 24.7 9.6 35.3 4 9 4.5 20.1 7 30.2 1 4 1 8.6 1.5 13.1 1.1 4 3.1 7.1 4.6 10.6 1 2.5 1 4.5 2 7 2 7.6 3.5 14.7 6 21.7 2.1 5.1 4.6 10.1 6.1 15.1 1 2.1 0.5 4.1 1 6.1 1.5 5 2.5 10.1 4 15.1 3.6 9.6 6.6 20.7 10.1 30.2 2 5.6 2.5 11.1 4.5 16.2 7.6 21.1 15.7 42.3 23.2 63.5 1.5 4.5 2.5 9 3.5 13.6 2.1 5 4.6 9.1 6.6 13.1 3 6 3 11.6 5.5 17.1 2.6 6.6 5.6 12.1 8.1 19.2 1 3.5 2.5 7 4 10.6 1 2.5 3.1 4.5 4.6 7 1.5 4 2 9.6 4 13.6 2 4.6 5.5 7.6 8.1 11.6 2.5 3.5 2.5 8.1 4 12.6 3.5 6.1 7 12.1 9.6 19.2 1.5 3 2 5.5 3 8 1.5 3 4 6.1 5.5 9.6 0.5 0.5 0.5 1 0.5 2 0.5 1.5 1 3 1.6 4 0.5 2.1 2.5 5.1 3 6.1 0.5 1 2 2.5 3.5 4q1 1 1.5 2c2.5 4.6 3 11.1 5.1 15.7 2.5 4.5 6.5 8.5 8.5 13.1 2 4 2.5 13.1 0.5 13.6-9 0-10.1-13.6-13.1-20.2-2.5-6-6.5-10.1-9-15.6-0.6-1-1.6-3-2.6-5-0.5-2.1-1.5-4.1-2-5.6-1-2.5-1-2.5-2-4-1-1.5-3.5-5.1-4-6.6v-0.5c-4.1-5.5-6.6-14.1-9.6-18.1-1-2-3-4.6-4.5-6.6-2.1-4-3.6-8.5-5.6-12.6-1.5-3.5-4.5-7.5-6-11.6-2-4.5-2.5-10.5-4.6-15.1-1-2.5-3.5-5.5-4.5-7.5-2.5-6.1-4-11.6-7.1-17.2-1-2.5-3-5-4.5-7.5-2-4.6-3-9.1-5.5-13.6-5.1-9.1-10.1-18.7-14.6-28.3-2.1-6-3.1-11.6-5.6-17.1-2-4.5-5-9.6-7-13.6-1.1-3-1.6-6.1-3.1-9.6-2-5.5-4-10.6-6.5-16.1-1-3.5-2-11.6-2.5-15.1-2.1-3.6-4.1-8.1-5.6-12.1-2.5-5.6-3.5-11.6-6-17.7-2-4.5-4.1-9.5-6.1-14.1-1-4-1.5-7.5-3-11.1-1-3-3-6-4-9-1.5-3.1-2-9.1-3.1-13.6-1.5-5.1-4-9.6-5.5-14.7-1-3.5-1-12.6-2-14.6-5-15.1-10.1-31.7-15.1-47.4-1.5-7-3-14.1-5.1-21.1-0.5-3-0.5-6.6-1.5-9.1q-2.2-6.8-4.5-13.6c-0.5-3-1-6.5-2-9.6-0.5-3-2.5-6.5-3.6-9.5-3-9.1-4.5-19.2-7-28.3-1-4-1-8.5-2-12.1-3.6-11.1-4.6-24.2-7.6-36.3-0.5-3.5-1.5-6.5-2-10-5.5-21.7-8.6-46.4-14.6-67.6-1-4 0-9-0.5-13.6q-2.3-6.8-4.6-13.6c-0.5-2.5-0.5-4-1-6-1-4.1-2.5-6.6-4.5-6.1-2 1-2 3-2 6.1 0.5 5 1 8.5 2 12.6 0.5 4 0.5 6.5 1 9.5 2 6.6 3 16.2 3.5 22.2 0.5 3 0.5 6.1 1 9.6 0.6 3 3.1 7.6 4.1 10.6 0.5 4.5 0.5 10.6 1 15.1q1 6.6 3 12.1c1 3.5 0 7.1 1.5 10.1 0.5 3.5 2.5 6 3 9.6 1.1 4.5 0 10 1.1 13.6 4.5 19.1 6 41.8 12 60.4 0.6 3.1 0.6 5.6 1.1 8.1 5 16.1 8.5 33.8 13.1 49.9 0.5 2.5 0.5 5 1.5 8.1 1.5 5.5 2.5 11.5 4 17.6 0.5 2.5 0.5 5 1 7.6 1.5 6 4 11.5 6.1 17.6 0.5 3 1 5 1.5 8.1 0.5 2.5 1.5 5 2 7 1 3.5 0.5 7.1 1.5 9.6 1 2 2.5 4 3 6 0.5 3.6 1 6.6 2 10.1 1.5 4.6 3.6 8.1 5.1 12.1 1.5 3.5 1.5 7.1 2.5 10.1 2.5 6 5 12.6 7 18.6 2.1 5.1 2.1 10.1 4.1 15.2 1.5 3 2.5 6.5 4 10 0.5 2.6 1 5.1 2 7.6 1 2.5 3.6 6.6 5.1 9.6 1.5 4 1 8.5 2 12.1 1 4 3 7 4.5 10.6 1.5 4 1.5 7.5 2 11 1 3.1 3.1 6.1 4.6 8.6 1 3 2 6.6 3 9.1 1 2 3 4.5 3.5 6.5 1.5 3.6 3 7.6 4.5 11.1 2.1 5.1 2.6 12.1 4.1 18.2 0.5 1.5 0.5 6-1 6-2 0.5-5.1-3.5-6.6-5.5-2.5-4.1-5.5-9.1-7.5-13.6-0.5-2.1-1-3.6-1.5-5.6-1.6-4-3.1-8.6-5.1-12.6-1-2.5-2.5-5-3.5-8-1-3.6-0.5-8.6-2-11.6-1-3.1-3.6-5.1-5.1-8.1-1-2.5-1-5.5-2-7.6-1.5-3.5-3-6-5-9-1.5-3.1-1.5-5.6-2.5-9.1-1.1-4-2.1-8.1-3.6-11.6-2-3.5-4-7.1-6-11.6-0.5-1.5-1-4-1.5-6-1-3.1-2.5-6.1-3.6-8.6q-1-3.5-2-6.6c-1.5-3-3-6.5-4.5-10-1-3.1-1-5.6-2-8.6-1.5-4.5-3-10.1-5.1-15.1-1-3.5-1-7.6-2.5-11.1-1-4.5-3-8.6-4.5-13.1-1.5-3.5-1.5-7.6-2.5-10.6-2.1-5-4.1-9.1-5.6-14.1-1-4-1-8.1-2-11.6-2.5-9.1-5.5-19.2-8.6-28.2-3-10.6-3.5-22.7-6.5-33.3-2-7-4.5-14.6-7.1-21.7-1-4-1-8-1.5-11.5-2.5-8.1-5-19.2-8-27.8-1.6-4.5-1-9.5-2.6-14.1-1-5-1.5-11.1-2.5-16.1-1.5-3.5-2.5-5.5-3-9.6-1-4-1-9.1-1.5-12.6-0.5-3-6.1-21.7-6.6-24.7-0.5-3-0.5-9.6-1-11.6 0-1.5-3-9.5-3-11.6-0.5-2-0.5-4.5-1.5-8.5-1-4.6-3-13.1-3.5-15.6-0.5-2.6-0.5-8.1-1-10.6-0.5-3.1-2.1-8.6-3.6-13.1-1.5-5.1 0-11.1-1.5-15.7-1-4-2.5-7.5-4-11-0.5-3.1-1.5-7.1-1.5-9.1-0.5-2.5-0.5-8.6-0.5-10.6 0-3-1.5-8.1-2-12.1 0-6-1.6-12.6-2.6-16.1-0.5-2-0.5-4.6-0.5-6.6-2-5.5-3-11.1-6.5-10.6q-3 0-1.5 6.1c1 4 1.5 7.5 2.5 12.1 1 2.5 1 8.6 1 10.6 0 3 0.5 3.5 1 6.5 0 1 0.5 4.6 0.5 5.6 0.5 2 1 5 1 6.5v7.1c0 1.5 0 2 0.5 4.5 1 3 1 3 1.5 5.5 0 2.1 0 3.6 0 5.1 0 2 0 4 0.5 6 1.5 4.1 4.1 9.1 3.1 14.7-1 6.5 0.5 12 2 17.1 0.5 3.5 0 7 0.5 10.1l3.5 14.1c1 4 0.5 7.5 1.5 11.1 1 5 5.1 12.1 5.1 14.1 0.5 2.5 0 8.5 1 12.6 0.5 3.5 1.5 8 1.5 11.1 0.5 2 0 3.5 0.5 5 0 1.5 3 10.6 3 13.1 0.5 2.5 0.5 3.5 1 6.1 0.5 2 2.5 11.5 3 14.6 0.5 3 0 5 0.5 8 1 5.1 3.1 8.6 4.1 13.1 0.5 3.6 0.5 5.6 1 8.6q1.5 6.1 3 12.1c0.5 3 0.5 6 1 9.1 1.5 7 2.5 14.1 4 20.6 1.6 4.1 4.1 8.1 5.1 11.6 1 3.6 1 7.6 2 11.1 1 3 3 5.6 4 9.1 0.5 2.5 0 5.5 0.5 8.6 1 3 2.6 6 3.1 9.5 1 2.5 0.5 5.1 1 7.6 0.5 3 2 5.5 2.5 8.1 1 3.5 1 7.5 2 10.5 1 4.1 2.5 8.1 4 12.1 1 3.6 0.5 7.1 1.5 11.1 2.1 8.6 5.1 17.7 7.6 25.2 1.5 4.1 1 8.6 2.5 13.1 1 2.5 2.5 5.1 3.5 7.6 1.1 2.5 0.5 5.5 1.1 8.5 1.5 5.1 2 12.1 4 16.7 1.5 5.5 5 10.6 7 15.6 2.1 5.5 2.1 11.6 4.1 17.1 1.5 5.1 4 10.1 6 14.2 1.5 4.5 1 9.5 2.5 14.1 1.5 4.5 4.6 8 6.6 13.1 2.5 5 3.5 10.5 5.5 16.1 0.5 2.5 1 4.5 1.5 7 2.1 7.1 5.6 13.2 8.1 19.7 1 3.5 1 6.1 2 8.6q2.3 7.5 6.1 15.1 3 6 6 12.1c2 4 2 8 4 12.1 1.6 3.5 3.1 8 4.6 11.6 1 2.5 1 5 2.5 7.5 4.5 10.6 10.1 21.2 15.1 32.3 3 5.5 4 11.6 6.6 17.6 2.5 4.6 5 9.1 7 14.1 1 3.1 1.5 6.1 3 9.1 2.6 5.6 6.1 11.6 9.1 17.6 0.5 1.1 2.5 7.1 1.5 9.6l-0.5 0.5c-1.5 0.5-5.5-2-7-4-7.1-7.1-8.1-19.7-12.6-28.7-1.5-2-3.1-5.1-4.6-7.6-1-2-1-3.5-2-5.5-3-5.6-6.5-10.6-9.1-16.7-2-4.5-2.5-9-4-13.1-8-17.1-17.1-33.2-24.2-50.4-3.5-7.5-4.5-16.6-7-25.2-2-4.5-5.1-8.5-7.1-13.1-1.5-4-2-8-3.5-11.1-2.5-5-5.5-9.5-7.1-15.1-1.5-3.5-2-6.5-3-10.1-1.5-4-4-7-5.5-10-2.5-5.6-3-11.1-5.1-17.2-0.5-3-2-6.5-3-9.5-1-2.6-1-5.6-2-8.6-2-6.6-6.1-12.1-8.6-18.2-1.5-4.5-1-10-3-14.6-1.5-3.5-4.5-6-6-10.1-1-3.5 0-8.5-1-13.1-1.1-4-3.1-8-4.6-12.1-0.5-3-0.5-5.5-1.5-7.5q-3-8.1-5.5-15.6c-1-3.1-1-5.6-2.1-8.1-1.5-2.5-4-5.5-5-9.1-1.5-5-1.5-10.6-3-15.6-2-6.5-4.6-12.1-6.1-18.6-1-2.1-1-4.1-1.5-6.1-1.5-6-2-12.6-3.5-17.6-1-3.1-0.5-5.6-1-8.1-2-5.5-4-11.1-5.6-16.1-0.5-3.5-1-7.1-1.5-10.1-2.5-8.6-5-18.6-8-26.7-0.5-2.5 0-4.5-1-7.1-1.5-6.5-4.6-14.6-6.1-21.1-0.5-4.1-0.5-7.6-1.5-11.1-1-5.1-2.5-9.1-3.5-13.6 0-2 0-3.6 0-5.1-0.5-3-0.5-6.5-1-8.5-3.1-12.1-7.6-26.2-10.1-38.3-1-4.1-1-8.6-1.5-12.6-0.5-3.1-0.5-6.6-1.5-9.6-1-3-2.5-6.1-3.1-9.6-0.5-5-0.5-10.1-1.5-14.6 0-0.5 0-0.5 0-1-0.5-6.1-4-18.7-4.5-23.2-1-6-1.5-11.6-2.5-17.6 0-3.6-0.5-7.6-1-11.6-1-6.1-2.5-11.6-3-17.7 0-4.5 0-8-0.6-11.6 0-2.5-0.5-6-3.5-6-2.5 0-2 3.5-2.5 6 0 6.1 1 14.7 1.5 18.2 1 7 0 14.6 1 21.7 0.5 4 2 8.5 2.5 12.1 1 7 1.6 14.1 2.1 20.6v0.5c0.5 3 0.5 6.1 1 9.1 0 0.5 0 0.5 0.5 0.5v0.5 0.5c0.5 1.5 0.5 3 1 4 1 2.6 0.5 5.1 1.5 7.6 2 8.6 1.5 17.1 3.5 25.2 3 11.6 4.5 24.2 8.6 35.8 0.5 3 0 6.5 0.5 10.6 1.5 3 2.5 7 3 10.5 1 4.6 0.5 9.1 1.5 13.2 1 4 2 8.5 3 12.5 1.6 4.6 1.6 9.1 3.1 14.7 1.5 5 3 11.1 4 15.6 1 6.5 1.5 13.1 3 19.1 0.5 5.6 4.1 11.6 5.1 17.7q0 2.5 0 6c1 3.6 2 8.1 3 11.6 0.5 2 0 3.5 1 5.6 2 7.5 4 17.1 6.5 24.7 0.5 2 0.5 4 1 6.5 1.6 5 3.1 9.1 4.1 11.6 0.5 3 1 5.5 1.5 8.6 1 4 2.5 7.5 3 11.1 0.5 3 1 5.5 1.5 8 1 3.5 2.5 6.6 4.1 10.1 2 6.6 2.5 13.6 4.5 20.7 1.5 3.5 3.5 7.5 4.5 11.6 1 4 1.5 8.5 3.1 12.6 2 6.5 4 14.1 6.5 20.6 3 7.6 4.5 16.6 7.1 23.7 1 3 1 6.1 2 9.1 2.5 7.5 4.5 15.6 7 23.2 1 4 1 7.5 3 11.5 2.6 6.1 6.1 11.6 8.1 17.7 2 6 2.5 11.1 4.5 16.1 3.1 7.1 5.6 13.6 8.6 21.2 1.5 5 2.5 10.1 4.5 14.6 1.6 3.5 3.6 8.1 5.6 12.1 1.5 3.5 3 7 4 10.6 1 2.5 3.5 7 5.6 11.1 2.5 5 3 10 4.5 15.1 3 8 6.6 16.6 10.1 23.7 1.5 3 1.5 5.5 2.5 9 2 5.1 5.5 9.1 8.1 14.2 2 4.5 2.5 9.5 4.5 14.1 3 6.5 5.5 10.5 5 19.6 0 1 0 1.5-1 2-1.5 0.5-3.5-2.5-5-3-5.1-5.5-5.6-10.1-8.6-17.1-5-10.6-11.1-20.2-16.1-30.8-2-5-3.5-11.1-6.1-16.6-1-3-3.5-6.5-5-10.1-2.5-4.5-3.5-9.6-6-14.1-3.1-6.5-6.1-14.1-9.1-20.7-1-3-1-5.5-2.5-8-1-3-3-5.6-4.6-8.1-1.5-4.5-2.5-10.1-4.5-14.6-3.5-8.1-8.1-17.1-11.6-26.2-2.5-8.1-4-15.6-7-24.7-1-3-3.1-7.1-4.1-10.1-1-3.5-1-6-2-9-3-7.6-6-15.7-9.6-22.7-1.5-3.6-2-7.1-3.5-11.1-1.5-4.5-3.5-9.6-5-14.1-2-6.1-2.5-13.1-4.6-19.7-5-13.1-11-27.2-15.1-41.8-1-3.5-0.5-6.6-1.5-10.1-2.5-7-5-15.1-6.5-22.7-3.1-8.5-2.6-17.6-5.1-26.2-3.5-10.6-7-21.6-10.6-31.7-1-3.6-0.5-7.1-1.5-10.1-2-8.6-5-18.1-8-25.7-1.5-4-1.5-8.1-2.6-11.6-1.5-4.5-6-2.5-6 2.5 0.5 4.1 2 9.6 2.5 12.1 0.5 3 0.5 6.1 1.5 9.6 1 5.5 2.5 10.6 4.6 15.6 1.5 5.6 1.5 10.1 3 16.1 1 2.6 2.5 5.6 3 8.6 1.5 5.6 1.5 11.1 3.5 16.1 1.5 4.1 2.6 9.1 4.1 13.1 0.5 3.1 0.5 5.6 1.5 8.1 1 5 2.5 10.6 4.5 15.1 0.5 3 0.5 5.6 1 8.1 1 4 2 8.6 3.6 11.6 1 4 1 9 1.5 13.1 2.5 7 5 14.1 7.5 20.6 2.5 7.1 2.5 15.2 5.1 22.2 5 13.6 9 28.7 14.1 41.8 1.5 3.6 1 7.1 2 10.6 1.5 5.6 2.5 11.6 4.5 17.2 1 2.5 2.5 5 4.1 8 1.5 3.1 1.5 6.1 3 9.6 1 3 3 5.6 4 8.1 1.5 4.5 1 9.5 2.5 13.6 1.5 3.5 3 6.5 4.1 10.1 1.5 3.5 1.5 7.5 3 10.5 1.5 3.6 3.5 6.1 4.5 9.1 1.5 3 2 6.1 3 9.1 1 3 2.6 6.5 4.1 9.6 1.5 3 2 6.5 3 10 1.5 3.1 3.5 6.1 4.5 9.1 1 3.5 1 7.1 2.5 10.6 2.1 5.5 5.1 9.6 7.6 15.1 1.5 3 1.5 7.6 3 11.1 2 4.5 4.6 8.6 6.6 12.6 2.5 6 5 12.1 7 17.1 4.1 9.6 6.1 20.2 10.1 29.8 3.5 6.5 7.6 13.6 10.6 20.1 1.5 3.6 2 7.6 4 11.6 2 4.1 5.6 7.6 7.1 12.1q2.2 6.1 4.5 12.1c2.5 5.1 6.1 10.1 8.1 15.1 1.5 3.1 2.5 6.1 3.5 8.6 2.5 6 7.1 10.6 9.6 16.6 1.5 3.6 2.5 7.1 3.5 11.1 3.5 6.1 7.6 11.1 10.6 17.2 2 4.5 3.5 9 6 13.6 4.1 6 6.6 10.5 10.6 17.1 3 4 6.1 10.6 8.1 14.6 2 5.1 5.5 8.6 8 13.1 1.6 4 4.6 9.1 7.1 13.1 2.5 5.1 5 8.6 8.1 12.6 5 7.1 7.5 15.1 12.6 22.7q4.5 7.6 10.5 15.1c9.1 12.6 22.7 36.3 28.8 44.4 4.5 6 8.5 14.1 13.1 20.6 3.5 5.1 7.5 10.1 11 14.6 3.6 4.6 5.6 8.6 8.6 13.1l2.5 3.1c121.5 155.2 245.9 258.5 351.8 326h-0.6c56 35.3 86.2 45.4 86.2 45.4 7.1 3 1.5 8.1-1.5 10.6l-625.8 403.7c-2.1 1-7.1 4.5-5.1 9 1.5 3.1 8.1 1.1 9.6 0.6 502.4-178 866.7-324.1 1089.4-430.9 225.8-108.4 301.9-169.9 293.8-200.6zm-1336.3-597.8c-1.6-2.5-2.6-5-3.6-7-1-3-1-6.1-2.5-8.1-3.5-9.5-8-19.1-12.1-27.7-2-3.5-4-10.6-2.5-15.1 0-0.5 1.5 0 2 0 1.5 1.5 2.5 2 3.5 3.5 1.1 1.5 1.1 2.5 2.1 4.1 2 3 4.5 6 6 9.5 3.5 7.1 4 15.1 7.6 22.2 2 4.5 5.5 8.6 7.5 13.1 1 2.5 2 5 3 8.1 0.5 2 0 4.5 0.5 6 0 2.5-0.5 4-1.5 4-6 0-7.5-8-10-12.6zm26.2 193.6c-0.5 1-0.5 1.5-2.1 1.5-6.5 0-8.5-10.1-11-14.6-3.1-3.6-5.1-8.1-7.1-12.1-2-2.5-4-5.6-5.5-8.1-2.1-4-2.6-8.6-5.1-11.6-1-2-3-3.5-4.5-5.5-3.5-4.6-6.6-10.1-9.1-16.1-0.5-2.6-1-4.6-2-7.1-1-3.5-2.5-7.6-4-11.6-0.5-2.5-1-6-0.5-7.6 0-0.5 0.5-1 1-1 5 1 10.1 13.6 12.6 18.2 2.5 5 7 8.5 9.5 13.6 2.1 5 2.6 10.6 5.1 15.1 2 3.5 5 6.1 7 9.6 3.1 4 4.6 10.1 7.1 14.1 2 5.5 5.5 9.6 8.1 15.1 0.5 2 1 6.1 0.5 8.1zm140.5-28.2c-3-0.6-4.5-2.6-6.5-4.1-5-4-9.6-10.1-9.6-19.1 0-1 0-1.5 1-1.5 6.1 0 12.6 9.5 15.1 14.1 0.6 2 2.1 5.5 1.6 7.5 0 2-0.5 2.5-1.6 3.1zm42.4 1.5c-4.6 1.5-14.1-10.1-17.2-15.2-5.5-7.5-10.5-16.1-16.1-24.1-5-7.1-11.1-12.1-12.1-23.7 0-1.5-1-5.6 0-5.6 5.6 0.5 10.6 10.6 13.6 14.6 2 2.6 4.6 5.6 6.6 8.1 2 4.5 3.5 9.6 6.5 13.6 3.6 5.1 7.6 9.6 11.6 14.1 2 3 4.6 5.1 5.6 8.6 1 2 3 9.1 1.5 9.6zm147.6 82.6c-6 0.5-13.1-8.6-15.6-12.6-1-1.5-4.5-8-3.5-9.1 1-1.5 8 1.1 10 2.6 4.6 3.5 8.1 8.5 10.6 17.6 0 1-1 1.5-1.5 1.5z" class="s0"/></g></g></svg>