{
	"asset" : {
		"generator" : "FME 2023.1.0.0",
		"version" : "2.0"
	},
	"materials" : [
		{
			"name" : "default_material",
			"pbrMetallicRoughness" : {
				"baseColorFactor" : [ 1, 1, 1, 1 ],
				"roughnessFactor" : 0.30000000000000004,
				"metallicFactor" : 0.5
			}
		}
	],
	"meshes" : [
		{
			"primitives" : [
				{
					"attributes" : {
						"NORMAL" : 1,
						"POSITION" : 0,
						"COLOR_0" : 2
					},
					"indices" : 3,
					"material" : 0,
					"mode" : 4
				}
			]
		}
	],
	"nodes" : [
		{
			"name" : "B339351579901063C0",
			"matrix" : [ 1, 0, 0, 0, 0, 0, -1, 0, 0, 1, 0, 0, 833935.9375, 45.768001556396484, -815798.375, 1 ],
			"children" : [ 1 ]
		},
		{
			"mesh" : 0
		}
	],
	"scenes" : [
		{
			"nodes" : [ 0 ]
		}
	],
	"scene" : 0,
	"accessors" : [
		{
			"bufferView" : 0,
			"byteOffset" : 0,
			"componentType" : 5126,
			"count" : 921,
			"type" : "VEC3",
			"min" : [ -9.2158203125, -10.5576171875, 0 ],
			"max" : [ 9.2158203125, 10.5576171875, 21.408000946044922 ]
		},
		{
			"bufferView" : 1,
			"byteOffset" : 0,
			"componentType" : 5126,
			"count" : 921,
			"type" : "VEC3",
			"min" : [ -0.9571447968482971, -0.9572861790657043, -1 ],
			"max" : [ 0.9593205451965332, 0.9572639465332031, 1 ]
		},
		{
			"bufferView" : 2,
			"byteOffset" : 0,
			"componentType" : 5126,
			"count" : 921,
			"type" : "VEC3"
		},
		{
			"bufferView" : 3,
			"byteOffset" : 0,
			"componentType" : 5123,
			"count" : 921,
			"type" : "SCALAR",
			"min" : [ 0 ],
			"max" : [ 920 ]
		}
	],
	"bufferViews" : [
		{
			"buffer" : 0,
			"byteOffset" : 0,
			"byteLength" : 11052,
			"target" : 34962
		},
		{
			"buffer" : 0,
			"byteOffset" : 11052,
			"byteLength" : 11052,
			"target" : 34962
		},
		{
			"buffer" : 0,
			"byteOffset" : 22104,
			"byteLength" : 11052,
			"target" : 34962
		},
		{
			"buffer" : 0,
			"byteOffset" : 33156,
			"byteLength" : 1842,
			"target" : 34963
		}
	],
	"buffers" : [
		{
			"uri" : "B339351579901063C0.bin",
			"byteLength" : 34998
		}
	]
}
