{
	"asset" : {
		"generator" : "FME 2023.1.0.0",
		"version" : "2.0"
	},
	"materials" : [
		{
			"name" : "default_material",
			"pbrMetallicRoughness" : {
				"baseColorFactor" : [ 1, 1, 1, 1 ],
				"roughnessFactor" : 0.30000000000000004,
				"metallicFactor" : 0.5
			}
		}
	],
	"meshes" : [
		{
			"primitives" : [
				{
					"attributes" : {
						"NORMAL" : 1,
						"POSITION" : 0,
						"COLOR_0" : 2
					},
					"indices" : 3,
					"material" : 0,
					"mode" : 4
				}
			]
		}
	],
	"nodes" : [
		{
			"name" : "B334101645401063C0",
			"matrix" : [ 1, 0, 0, 0, 0, 0, -1, 0, 0, 1, 0, 0, 833402.8125, 2.9459962844848633, -816439.375, 1 ],
			"children" : [ 1 ]
		},
		{
			"mesh" : 0
		}
	],
	"scenes" : [
		{
			"nodes" : [ 0 ]
		}
	],
	"scene" : 0,
	"accessors" : [
		{
			"bufferView" : 0,
			"byteOffset" : 0,
			"componentType" : 5126,
			"count" : 2214,
			"type" : "VEC3",
			"min" : [ -19.4541015625, -20.6767578125, 0 ],
			"max" : [ 19.453125, 20.67578125, 78.82398986816406 ]
		},
		{
			"bufferView" : 1,
			"byteOffset" : 0,
			"componentType" : 5126,
			"count" : 2214,
			"type" : "VEC3",
			"min" : [ -0.9528141021728516, -0.916977047920227, -1 ],
			"max" : [ 1, 0.8944272994995117, 1 ]
		},
		{
			"bufferView" : 2,
			"byteOffset" : 0,
			"componentType" : 5126,
			"count" : 2214,
			"type" : "VEC3"
		},
		{
			"bufferView" : 3,
			"byteOffset" : 0,
			"componentType" : 5123,
			"count" : 2214,
			"type" : "SCALAR",
			"min" : [ 0 ],
			"max" : [ 2213 ]
		}
	],
	"bufferViews" : [
		{
			"buffer" : 0,
			"byteOffset" : 0,
			"byteLength" : 26568,
			"target" : 34962
		},
		{
			"buffer" : 0,
			"byteOffset" : 26568,
			"byteLength" : 26568,
			"target" : 34962
		},
		{
			"buffer" : 0,
			"byteOffset" : 53136,
			"byteLength" : 26568,
			"target" : 34962
		},
		{
			"buffer" : 0,
			"byteOffset" : 79704,
			"byteLength" : 4428,
			"target" : 34963
		}
	],
	"buffers" : [
		{
			"uri" : "B334101645401063C0.bin",
			"byteLength" : 84132
		}
	]
}
