{
	"asset" : {
		"generator" : "FME 2023.1.0.0",
		"version" : "2.0"
	},
	"materials" : [
		{
			"name" : "default_material",
			"pbrMetallicRoughness" : {
				"baseColorFactor" : [ 1, 1, 1, 1 ],
				"roughnessFactor" : 0.30000000000000004,
				"metallicFactor" : 0.5
			}
		}
	],
	"meshes" : [
		{
			"primitives" : [
				{
					"attributes" : {
						"NORMAL" : 1,
						"POSITION" : 0,
						"COLOR_0" : 2
					},
					"indices" : 3,
					"material" : 0,
					"mode" : 4
				}
			]
		}
	],
	"nodes" : [
		{
			"name" : "B340081596701063C0",
			"matrix" : [ 1, 0, 0, 0, 0, 0, -1, 0, 0, 1, 0, 0, 834012.4375, 20.781999588012695, -815969.9375, 1 ],
			"children" : [ 1 ]
		},
		{
			"mesh" : 0
		}
	],
	"scenes" : [
		{
			"nodes" : [ 0 ]
		}
	],
	"scene" : 0,
	"accessors" : [
		{
			"bufferView" : 0,
			"byteOffset" : 0,
			"componentType" : 5126,
			"count" : 543,
			"type" : "VEC3",
			"min" : [ -5.9189453125, -7.6171875, 0 ],
			"max" : [ 5.9189453125, 7.6162109375, 21.921998977661133 ]
		},
		{
			"bufferView" : 1,
			"byteOffset" : 0,
			"componentType" : 5126,
			"count" : 543,
			"type" : "VEC3",
			"min" : [ -0.8133105635643005, -0.9143330454826355, -1 ],
			"max" : [ 0.9541781544685364, 0.9714719653129578, 1 ]
		},
		{
			"bufferView" : 2,
			"byteOffset" : 0,
			"componentType" : 5126,
			"count" : 543,
			"type" : "VEC3"
		},
		{
			"bufferView" : 3,
			"byteOffset" : 0,
			"componentType" : 5123,
			"count" : 543,
			"type" : "SCALAR",
			"min" : [ 0 ],
			"max" : [ 542 ]
		}
	],
	"bufferViews" : [
		{
			"buffer" : 0,
			"byteOffset" : 0,
			"byteLength" : 6516,
			"target" : 34962
		},
		{
			"buffer" : 0,
			"byteOffset" : 6516,
			"byteLength" : 6516,
			"target" : 34962
		},
		{
			"buffer" : 0,
			"byteOffset" : 13032,
			"byteLength" : 6516,
			"target" : 34962
		},
		{
			"buffer" : 0,
			"byteOffset" : 19548,
			"byteLength" : 1086,
			"target" : 34963
		}
	],
	"buffers" : [
		{
			"uri" : "B340081596701063C0.bin",
			"byteLength" : 20634
		}
	]
}
