{
	"asset" : {
		"generator" : "FME 2022.2.4.0",
		"version" : "2.0"
	},
	"materials" : [
		{
			"name" : "default_material",
			"pbrMetallicRoughness" : {
				"baseColorFactor" : [ 1, 1, 1, 1 ],
				"roughnessFactor" : 0.30000000000000004,
				"metallicFactor" : 0.5
			}
		}
	],
	"meshes" : [
		{
			"primitives" : [
				{
					"attributes" : {
						"NORMAL" : 1,
						"POSITION" : 0,
						"COLOR_0" : 2
					},
					"indices" : 3,
					"material" : 0,
					"mode" : 4
				}
			]
		}
	],
	"nodes" : [
		{
			"name" : "B339231616301063C0",
			"matrix" : [ 1, 0, 0, 0, 0, 0, -1, 0, 0, 1, 0, 0, 833926.375, 7.885000228881836, -816163.625, 1 ],
			"children" : [ 1 ]
		},
		{
			"mesh" : 0
		}
	],
	"scenes" : [
		{
			"nodes" : [ 0 ]
		}
	],
	"scene" : 0,
	"accessors" : [
		{
			"bufferView" : 0,
			"byteOffset" : 0,
			"componentType" : 5126,
			"count" : 750,
			"type" : "VEC3",
			"min" : [ -6.9736328125, -7.166015625, 0 ],
			"max" : [ 6.9638671875, 7.240234375, 47.26599884033203 ]
		},
		{
			"bufferView" : 1,
			"byteOffset" : 0,
			"componentType" : 5126,
			"count" : 750,
			"type" : "VEC3",
			"min" : [ -0.8325870633125305, -0.968449056148529, -1 ],
			"max" : [ 0.8373851776123047, 0.8389813899993896, 1 ]
		},
		{
			"bufferView" : 2,
			"byteOffset" : 0,
			"componentType" : 5126,
			"count" : 750,
			"type" : "VEC3"
		},
		{
			"bufferView" : 3,
			"byteOffset" : 0,
			"componentType" : 5123,
			"count" : 750,
			"type" : "SCALAR",
			"min" : [ 0 ],
			"max" : [ 749 ]
		}
	],
	"bufferViews" : [
		{
			"buffer" : 0,
			"byteOffset" : 0,
			"byteLength" : 9000,
			"target" : 34962
		},
		{
			"buffer" : 0,
			"byteOffset" : 9000,
			"byteLength" : 9000,
			"target" : 34962
		},
		{
			"buffer" : 0,
			"byteOffset" : 18000,
			"byteLength" : 9000,
			"target" : 34962
		},
		{
			"buffer" : 0,
			"byteOffset" : 27000,
			"byteLength" : 1500,
			"target" : 34963
		}
	],
	"buffers" : [
		{
			"uri" : "B339231616301063C0.bin",
			"byteLength" : 28500
		}
	]
}
