{
	"asset" : {
		"generator" : "FME 2023.2.1.0",
		"version" : "2.0"
	},
	"materials" : [
		{
			"name" : "default_material",
			"pbrMetallicRoughness" : {
				"baseColorFactor" : [ 1, 1, 1, 1 ],
				"roughnessFactor" : 0.30000000000000004,
				"metallicFactor" : 0.5
			}
		}
	],
	"meshes" : [
		{
			"primitives" : [
				{
					"attributes" : {
						"NORMAL" : 1,
						"POSITION" : 0,
						"COLOR_0" : 2
					},
					"indices" : 3,
					"material" : 0,
					"mode" : 4
				}
			]
		}
	],
	"nodes" : [
		{
			"name" : "B337091583201063C0",
			"matrix" : [ 1, 0, 0, 0, 0, 0, -1, 0, 0, 1, 0, 0, 833715.6875, 60.6669921875, -815837.875, 1 ],
			"children" : [ 1 ]
		},
		{
			"mesh" : 0
		}
	],
	"scenes" : [
		{
			"nodes" : [ 0 ]
		}
	],
	"scene" : 0,
	"accessors" : [
		{
			"bufferView" : 0,
			"byteOffset" : 0,
			"componentType" : 5126,
			"count" : 930,
			"type" : "VEC3",
			"min" : [ -10.5322265625, -10.9365234375, 0 ],
			"max" : [ 10.53125, 10.9365234375, 40.69000244140625 ]
		},
		{
			"bufferView" : 1,
			"byteOffset" : 0,
			"componentType" : 5126,
			"count" : 930,
			"type" : "VEC3",
			"min" : [ -0.743415355682373, -0.7432942390441895, -0.03614763170480728 ],
			"max" : [ 0.7808688879013062, 0.7435209155082703, 1 ]
		},
		{
			"bufferView" : 2,
			"byteOffset" : 0,
			"componentType" : 5126,
			"count" : 930,
			"type" : "VEC3"
		},
		{
			"bufferView" : 3,
			"byteOffset" : 0,
			"componentType" : 5123,
			"count" : 930,
			"type" : "SCALAR",
			"min" : [ 0 ],
			"max" : [ 929 ]
		}
	],
	"bufferViews" : [
		{
			"buffer" : 0,
			"byteOffset" : 0,
			"byteLength" : 11160,
			"target" : 34962
		},
		{
			"buffer" : 0,
			"byteOffset" : 11160,
			"byteLength" : 11160,
			"target" : 34962
		},
		{
			"buffer" : 0,
			"byteOffset" : 22320,
			"byteLength" : 11160,
			"target" : 34962
		},
		{
			"buffer" : 0,
			"byteOffset" : 33480,
			"byteLength" : 1860,
			"target" : 34963
		}
	],
	"buffers" : [
		{
			"uri" : "B337091583201063C0.bin",
			"byteLength" : 35340
		}
	]
}
