{
	"asset" : {
		"generator" : "FME 2022.2.4.0",
		"version" : "2.0"
	},
	"materials" : [
		{
			"name" : "default_material",
			"pbrMetallicRoughness" : {
				"baseColorFactor" : [ 1, 1, 1, 1 ],
				"roughnessFactor" : 0.30000000000000004,
				"metallicFactor" : 0.5
			}
		}
	],
	"meshes" : [
		{
			"primitives" : [
				{
					"attributes" : {
						"NORMAL" : 1,
						"POSITION" : 0,
						"COLOR_0" : 2
					},
					"indices" : 3,
					"material" : 0,
					"mode" : 4
				}
			]
		}
	],
	"nodes" : [
		{
			"name" : "B335641602002063C0",
			"matrix" : [ 1, 0, 0, 0, 0, 0, -1, 0, 0, 1, 0, 0, 833549.5625, 53.40899658203125, -816013.125, 1 ],
			"children" : [ 1 ]
		},
		{
			"mesh" : 0
		}
	],
	"scenes" : [
		{
			"nodes" : [ 0 ]
		}
	],
	"scene" : 0,
	"accessors" : [
		{
			"bufferView" : 0,
			"byteOffset" : 0,
			"componentType" : 5126,
			"count" : 810,
			"type" : "VEC3",
			"min" : [ -26.4306640625, -15.740234375, 0 ],
			"max" : [ 26.4306640625, 15.740234375, 25.231002807617188 ]
		},
		{
			"bufferView" : 1,
			"byteOffset" : 0,
			"componentType" : 5126,
			"count" : 810,
			"type" : "VEC3",
			"min" : [ -0.998640775680542, -0.9925651550292969, -0.03122197836637497 ],
			"max" : [ 0.9987000226974487, 0.9901636242866516, 1 ]
		},
		{
			"bufferView" : 2,
			"byteOffset" : 0,
			"componentType" : 5126,
			"count" : 810,
			"type" : "VEC3"
		},
		{
			"bufferView" : 3,
			"byteOffset" : 0,
			"componentType" : 5123,
			"count" : 810,
			"type" : "SCALAR",
			"min" : [ 0 ],
			"max" : [ 809 ]
		}
	],
	"bufferViews" : [
		{
			"buffer" : 0,
			"byteOffset" : 0,
			"byteLength" : 9720,
			"target" : 34962
		},
		{
			"buffer" : 0,
			"byteOffset" : 9720,
			"byteLength" : 9720,
			"target" : 34962
		},
		{
			"buffer" : 0,
			"byteOffset" : 19440,
			"byteLength" : 9720,
			"target" : 34962
		},
		{
			"buffer" : 0,
			"byteOffset" : 29160,
			"byteLength" : 1620,
			"target" : 34963
		}
	],
	"buffers" : [
		{
			"uri" : "B335641602002063C0.bin",
			"byteLength" : 30780
		}
	]
}
