{
	"asset" : {
		"generator" : "FME 2023.2.1.0",
		"version" : "2.0"
	},
	"materials" : [
		{
			"name" : "default_material",
			"pbrMetallicRoughness" : {
				"baseColorFactor" : [ 1, 1, 1, 1 ],
				"roughnessFactor" : 0.30000000000000004,
				"metallicFactor" : 0.5
			}
		}
	],
	"meshes" : [
		{
			"primitives" : [
				{
					"attributes" : {
						"NORMAL" : 1,
						"POSITION" : 0,
						"COLOR_0" : 2
					},
					"indices" : 3,
					"material" : 0,
					"mode" : 4
				}
			]
		}
	],
	"nodes" : [
		{
			"name" : "B354961506001063C0",
			"matrix" : [ 1, 0, 0, 0, 0, 0, -1, 0, 0, 1, 0, 0, 835498.5, 75.43900299072266, -815056.875, 1 ],
			"children" : [ 1 ]
		},
		{
			"mesh" : 0
		}
	],
	"scenes" : [
		{
			"nodes" : [ 0 ]
		}
	],
	"scene" : 0,
	"accessors" : [
		{
			"bufferView" : 0,
			"byteOffset" : 0,
			"componentType" : 5126,
			"count" : 1476,
			"type" : "VEC3",
			"min" : [ -17.556640625, -11.7802734375, 0 ],
			"max" : [ 17.630859375, 11.7578125, 44.756996154785156 ]
		},
		{
			"bufferView" : 1,
			"byteOffset" : 0,
			"componentType" : 5126,
			"count" : 1476,
			"type" : "VEC3",
			"min" : [ -0.9210883975028992, -0.9117935299873352, -1 ],
			"max" : [ 0.9140353202819824, 0.9178571105003357, 1 ]
		},
		{
			"bufferView" : 2,
			"byteOffset" : 0,
			"componentType" : 5126,
			"count" : 1476,
			"type" : "VEC3"
		},
		{
			"bufferView" : 3,
			"byteOffset" : 0,
			"componentType" : 5123,
			"count" : 1476,
			"type" : "SCALAR",
			"min" : [ 0 ],
			"max" : [ 1475 ]
		}
	],
	"bufferViews" : [
		{
			"buffer" : 0,
			"byteOffset" : 0,
			"byteLength" : 17712,
			"target" : 34962
		},
		{
			"buffer" : 0,
			"byteOffset" : 17712,
			"byteLength" : 17712,
			"target" : 34962
		},
		{
			"buffer" : 0,
			"byteOffset" : 35424,
			"byteLength" : 17712,
			"target" : 34962
		},
		{
			"buffer" : 0,
			"byteOffset" : 53136,
			"byteLength" : 2952,
			"target" : 34963
		}
	],
	"buffers" : [
		{
			"uri" : "B354961506001063C0.bin",
			"byteLength" : 56088
		}
	]
}
