{
	"asset" : {
		"generator" : "FME 2023.1.0.0",
		"version" : "2.0"
	},
	"materials" : [
		{
			"name" : "default_material",
			"pbrMetallicRoughness" : {
				"baseColorFactor" : [ 1, 1, 1, 1 ],
				"roughnessFactor" : 0.30000000000000004,
				"metallicFactor" : 0.5
			}
		}
	],
	"meshes" : [
		{
			"primitives" : [
				{
					"attributes" : {
						"NORMAL" : 1,
						"POSITION" : 0,
						"COLOR_0" : 2
					},
					"indices" : 3,
					"material" : 0,
					"mode" : 4
				}
			]
		}
	],
	"nodes" : [
		{
			"name" : "B336691624201063C0",
			"matrix" : [ 1, 0, 0, 0, 0, 0, -1, 0, 0, 1, 0, 0, 833671.5625, 3.1730000972747803, -816245.75, 1 ],
			"children" : [ 1 ]
		},
		{
			"mesh" : 0
		}
	],
	"scenes" : [
		{
			"nodes" : [ 0 ]
		}
	],
	"scene" : 0,
	"accessors" : [
		{
			"bufferView" : 0,
			"byteOffset" : 0,
			"componentType" : 5126,
			"count" : 1755,
			"type" : "VEC3",
			"min" : [ -10.412109375, -11.703125, 0 ],
			"max" : [ 10.4130859375, 11.7041015625, 49.45199966430664 ]
		},
		{
			"bufferView" : 1,
			"byteOffset" : 0,
			"componentType" : 5126,
			"count" : 1755,
			"type" : "VEC3",
			"min" : [ -1, -0.9999279379844666, -1 ],
			"max" : [ 0.999949038028717, 0.9999537467956543, 1 ]
		},
		{
			"bufferView" : 2,
			"byteOffset" : 0,
			"componentType" : 5126,
			"count" : 1755,
			"type" : "VEC3"
		},
		{
			"bufferView" : 3,
			"byteOffset" : 0,
			"componentType" : 5123,
			"count" : 1755,
			"type" : "SCALAR",
			"min" : [ 0 ],
			"max" : [ 1754 ]
		}
	],
	"bufferViews" : [
		{
			"buffer" : 0,
			"byteOffset" : 0,
			"byteLength" : 21060,
			"target" : 34962
		},
		{
			"buffer" : 0,
			"byteOffset" : 21060,
			"byteLength" : 21060,
			"target" : 34962
		},
		{
			"buffer" : 0,
			"byteOffset" : 42120,
			"byteLength" : 21060,
			"target" : 34962
		},
		{
			"buffer" : 0,
			"byteOffset" : 63180,
			"byteLength" : 3510,
			"target" : 34963
		}
	],
	"buffers" : [
		{
			"uri" : "B336691624201063C0.bin",
			"byteLength" : 66690
		}
	]
}
