{
    "accessors": [
        {
            "bufferView": 0,
            "byteOffset": 0,
            "componentType": 5126,
            "count": 132078,
            "max": [
                375,
                300,
                6.9901604652404785
            ],
            "min": [
                -375.00006103515625,
                -300,
                0
            ],
            "type": "VEC3"
        },
        {
            "bufferView": 1,
            "byteOffset": 0,
            "componentType": 5126,
            "count": 132078,
            "max": [
                1,
                1,
                1
            ],
            "min": [
                -0.996629536151886,
                -1,
                -1
            ],
            "type": "VEC3"
        },
        {
            "bufferView": 2,
            "byteOffset": 0,
            "componentType": 5126,
            "count": 132078,
            "max": [
                0.9999334812164307,
                0.9999168515205383
            ],
            "min": [
                6.654858589172363e-05,
                8.314847946166992e-05
            ],
            "type": "VEC2"
        },
        {
            "bufferView": 3,
            "byteOffset": 0,
            "componentType": 5125,
            "count": 132078,
            "max": [
                132077
            ],
            "min": [
                0
            ],
            "type": "SCALAR"
        }
    ],
    "asset": {
        "generator": "FME 2020.0.0.0",
        "version": "2.0"
    },
    "bufferViews": [
        {
            "buffer": 0,
            "byteLength": 1584936,
            "byteOffset": 0,
            "target": 34962
        },
        {
            "buffer": 0,
            "byteLength": 1584936,
            "byteOffset": 1584936,
            "target": 34962
        },
        {
            "buffer": 0,
            "byteLength": 1056624,
            "byteOffset": 3169872,
            "target": 34962
        },
        {
            "buffer": 0,
            "byteLength": 528312,
            "byteOffset": 4226496,
            "target": 34963
        }
    ],
    "buffers": [
        {
            "byteLength": 4754808,
            "uri": "T18000354000106E10.bin"
        }
    ],
    "images": [
        {
            "uri": "T18000354000106E10_001.jpg"
        }
    ],
    "materials": [
        {
            "name": "default_material",
            "pbrMetallicRoughness": {
                "baseColorFactor": [
                    0.8,
                    0.8,
                    0.8,
                    1
                ],
                "metallicFactor": 0.5,
                "roughnessFactor": 0.30000000000000004
            }
        },
        {
            "name": "T18000354000106E10",
            "pbrMetallicRoughness": {
                "baseColorTexture": {
                    "index": 0,
                    "texCoord": 0
                },
                "metallicFactor": 0.5,
                "roughnessFactor": 0.984375
            }
        }
    ],
    "meshes": [
        {
            "primitives": [
                {
                    "attributes": {
                        "NORMAL": 1,
                        "POSITION": 0,
                        "TEXCOORD_0": 2
                    },
                    "indices": 3,
                    "material": 1,
                    "mode": 4
                }
            ]
        }
    ],
    "nodes": [
        {
            "children": [
                1
            ],
            "matrix": [
                1,
                0,
                0,
                0,
                0,
                0,
                -1,
                0,
                0,
                1,
                0,
                0,
                818375,
                2.4880099296569824,
                -835700,
                1
            ],
            "name": "T18000354000106E10"
        },
        {
            "mesh": 0
        }
    ],
    "samplers": [
        {
            "wrapS": 10497,
            "wrapT": 10497
        }
    ],
    "scene": 0,
    "scenes": [
        {
            "nodes": [
                0
            ]
        }
    ],
    "textures": [
        {
            "sampler": 0,
            "source": 0
        }
    ]
}
