{
	"asset" : {
		"generator" : "FME 2023.2.1.0",
		"version" : "2.0"
	},
	"materials" : [
		{
			"name" : "default_material",
			"pbrMetallicRoughness" : {
				"baseColorFactor" : [ 1, 1, 1, 1 ],
				"roughnessFactor" : 0.30000000000000004,
				"metallicFactor" : 0.5
			}
		}
	],
	"meshes" : [
		{
			"primitives" : [
				{
					"attributes" : {
						"NORMAL" : 1,
						"POSITION" : 0,
						"COLOR_0" : 2
					},
					"indices" : 3,
					"material" : 0,
					"mode" : 4
				}
			]
		}
	],
	"nodes" : [
		{
			"name" : "B359631537502063C0",
			"matrix" : [ 1, 0, 0, 0, 0, 0, -1, 0, 0, 1, 0, 0, 835963.5, 3.846000909805298, -815379.4375, 1 ],
			"children" : [ 1 ]
		},
		{
			"mesh" : 0
		}
	],
	"scenes" : [
		{
			"nodes" : [ 0 ]
		}
	],
	"scene" : 0,
	"accessors" : [
		{
			"bufferView" : 0,
			"byteOffset" : 0,
			"componentType" : 5126,
			"count" : 627,
			"type" : "VEC3",
			"min" : [ -11.3046875, -9.5244140625, 0 ],
			"max" : [ 11.3046875, 9.5244140625, 17.45600128173828 ]
		},
		{
			"bufferView" : 1,
			"byteOffset" : 0,
			"componentType" : 5126,
			"count" : 627,
			"type" : "VEC3",
			"min" : [ -0.9945434927940369, -0.9939118027687073, -1 ],
			"max" : [ 0.99446702003479, 0.9937402606010437, 1 ]
		},
		{
			"bufferView" : 2,
			"byteOffset" : 0,
			"componentType" : 5126,
			"count" : 627,
			"type" : "VEC3"
		},
		{
			"bufferView" : 3,
			"byteOffset" : 0,
			"componentType" : 5123,
			"count" : 627,
			"type" : "SCALAR",
			"min" : [ 0 ],
			"max" : [ 626 ]
		}
	],
	"bufferViews" : [
		{
			"buffer" : 0,
			"byteOffset" : 0,
			"byteLength" : 7524,
			"target" : 34962
		},
		{
			"buffer" : 0,
			"byteOffset" : 7524,
			"byteLength" : 7524,
			"target" : 34962
		},
		{
			"buffer" : 0,
			"byteOffset" : 15048,
			"byteLength" : 7524,
			"target" : 34962
		},
		{
			"buffer" : 0,
			"byteOffset" : 22572,
			"byteLength" : 1254,
			"target" : 34963
		}
	],
	"buffers" : [
		{
			"uri" : "B359631537502063C0.bin",
			"byteLength" : 23826
		}
	]
}
