{
	"asset" : {
		"generator" : "FME 2022.2.4.0",
		"version" : "2.0"
	},
	"materials" : [
		{
			"name" : "default_material",
			"pbrMetallicRoughness" : {
				"baseColorFactor" : [ 1, 1, 1, 1 ],
				"roughnessFactor" : 0.30000000000000004,
				"metallicFactor" : 0.5
			}
		}
	],
	"meshes" : [
		{
			"primitives" : [
				{
					"attributes" : {
						"NORMAL" : 1,
						"POSITION" : 0,
						"COLOR_0" : 2
					},
					"indices" : 3,
					"material" : 0,
					"mode" : 4
				}
			]
		}
	],
	"nodes" : [
		{
			"name" : "B180421374201062G0",
			"matrix" : [ 1, 0, 0, 0, 0, 0, -1, 0, 0, 1, 0, 0, 818042.625, 33.95140075683594, -813741.5, 1 ],
			"children" : [ 1 ]
		},
		{
			"mesh" : 0
		}
	],
	"scenes" : [
		{
			"nodes" : [ 0 ]
		}
	],
	"scene" : 0,
	"accessors" : [
		{
			"bufferView" : 0,
			"byteOffset" : 0,
			"componentType" : 5126,
			"count" : 180,
			"type" : "VEC3",
			"min" : [ -3, -4.8125, 0 ],
			"max" : [ 3.0625, 4.875, 5.881797790527344 ]
		},
		{
			"bufferView" : 1,
			"byteOffset" : 0,
			"componentType" : 5126,
			"count" : 180,
			"type" : "VEC3",
			"min" : [ -0.9707748889923096, -0.9708203673362732, -1 ],
			"max" : [ 0.9707753658294678, 0.9708207845687866, 1 ]
		},
		{
			"bufferView" : 2,
			"byteOffset" : 0,
			"componentType" : 5126,
			"count" : 180,
			"type" : "VEC3"
		},
		{
			"bufferView" : 3,
			"byteOffset" : 0,
			"componentType" : 5121,
			"count" : 180,
			"type" : "SCALAR",
			"min" : [ 0 ],
			"max" : [ 179 ]
		}
	],
	"bufferViews" : [
		{
			"buffer" : 0,
			"byteOffset" : 0,
			"byteLength" : 2160,
			"target" : 34962
		},
		{
			"buffer" : 0,
			"byteOffset" : 2160,
			"byteLength" : 2160,
			"target" : 34962
		},
		{
			"buffer" : 0,
			"byteOffset" : 4320,
			"byteLength" : 2160,
			"target" : 34962
		},
		{
			"buffer" : 0,
			"byteOffset" : 6480,
			"byteLength" : 180,
			"target" : 34963
		}
	],
	"buffers" : [
		{
			"uri" : "B180421374201062G0.bin",
			"byteLength" : 6660
		}
	]
}
