{
	"asset" : {
		"generator" : "FME 2023.2.1.0",
		"version" : "2.0"
	},
	"materials" : [
		{
			"name" : "default_material",
			"pbrMetallicRoughness" : {
				"baseColorFactor" : [ 1, 1, 1, 1 ],
				"roughnessFactor" : 0.30000000000000004,
				"metallicFactor" : 0.5
			}
		}
	],
	"meshes" : [
		{
			"primitives" : [
				{
					"attributes" : {
						"NORMAL" : 1,
						"POSITION" : 0,
						"COLOR_0" : 2
					},
					"indices" : 3,
					"material" : 0,
					"mode" : 4
				}
			]
		}
	],
	"nodes" : [
		{
			"name" : "B335921642401063C0",
			"matrix" : [ 1, 0, 0, 0, 0, 0, -1, 0, 0, 1, 0, 0, 833588.8125, 19.040996551513672, -816415.1875, 1 ],
			"children" : [ 1 ]
		},
		{
			"mesh" : 0
		}
	],
	"scenes" : [
		{
			"nodes" : [ 0 ]
		}
	],
	"scene" : 0,
	"accessors" : [
		{
			"bufferView" : 0,
			"byteOffset" : 0,
			"componentType" : 5126,
			"count" : 891,
			"type" : "VEC3",
			"min" : [ -8.95703125, -11.2998046875, 0 ],
			"max" : [ 8.95703125, 11.2998046875, 57.84700393676758 ]
		},
		{
			"bufferView" : 1,
			"byteOffset" : 0,
			"componentType" : 5126,
			"count" : 891,
			"type" : "VEC3",
			"min" : [ -0.9805806875228882, -0.976880669593811, -1 ],
			"max" : [ 0.9769312143325806, 0.976126492023468, 1 ]
		},
		{
			"bufferView" : 2,
			"byteOffset" : 0,
			"componentType" : 5126,
			"count" : 891,
			"type" : "VEC3"
		},
		{
			"bufferView" : 3,
			"byteOffset" : 0,
			"componentType" : 5123,
			"count" : 891,
			"type" : "SCALAR",
			"min" : [ 0 ],
			"max" : [ 890 ]
		}
	],
	"bufferViews" : [
		{
			"buffer" : 0,
			"byteOffset" : 0,
			"byteLength" : 10692,
			"target" : 34962
		},
		{
			"buffer" : 0,
			"byteOffset" : 10692,
			"byteLength" : 10692,
			"target" : 34962
		},
		{
			"buffer" : 0,
			"byteOffset" : 21384,
			"byteLength" : 10692,
			"target" : 34962
		},
		{
			"buffer" : 0,
			"byteOffset" : 32076,
			"byteLength" : 1782,
			"target" : 34963
		}
	],
	"buffers" : [
		{
			"uri" : "B335921642401063C0.bin",
			"byteLength" : 33858
		}
	]
}
