{"asset":{"generator":"FME 2022.2.4.0","version":"2.0"},"materials":[{"name":"T16500144000106E11","pbrMetallicRoughness":{"roughnessFactor":0.984375,"metallicFactor":0.5}}],"meshes":[{"primitives":[{"attributes":{"NORMAL":1,"POSITION":0,"TEXCOORD_0":2},"indices":3,"material":0,"mode":4}]}],"nodes":[{"name":"T16500144000106E11","matrix":[1,0,0,0,0,0,-1,0,0,1,0,0,816875,4.529857635498047,-814700,1],"children":[1]},{"mesh":0}],"scenes":[{"nodes":[0]}],"scene":0,"accessors":[{"bufferView":0,"byteOffset":0,"componentType":5126,"count":229320,"type":"VEC3","min":[-375,-300,9.5367431640625e-07],"max":[375,300,101.260498046875]},{"bufferView":1,"byteOffset":0,"componentType":5126,"count":229320,"type":"VEC3","min":[-0.7339138984680176,-0.8811081051826477,0.3353949785232544],"max":[0.8593488335609436,0.7238619327545166,1]},{"bufferView":2,"byteOffset":0,"componentType":5126,"count":229320,"type":"VEC2","min":[0.00013318657875061035,0.00016641616821289062],"max":[0.9998668432235718,0.9998335838317871]},{"bufferView":3,"byteOffset":0,"componentType":5125,"count":229320,"type":"SCALAR","min":[0],"max":[229319]}],"bufferViews":[{"buffer":0,"byteOffset":0,"byteLength":2751840,"target":34962},{"buffer":0,"byteOffset":2751840,"byteLength":2751840,"target":34962},{"buffer":0,"byteOffset":5503680,"byteLength":1834560,"target":34962},{"buffer":0,"byteOffset":7338240,"byteLength":917280,"target":34963}],"buffers":[{"uri":"T16500144000106E11.bin","byteLength":8255520}]}