{
	"asset" : {
		"generator" : "FME 2022.2.4.0",
		"version" : "2.0"
	},
	"materials" : [
		{
			"name" : "default_material",
			"pbrMetallicRoughness" : {
				"baseColorFactor" : [ 1, 1, 1, 1 ],
				"roughnessFactor" : 0.30000000000000004,
				"metallicFactor" : 0.5
			}
		}
	],
	"meshes" : [
		{
			"primitives" : [
				{
					"attributes" : {
						"NORMAL" : 1,
						"POSITION" : 0,
						"COLOR_0" : 2
					},
					"indices" : 3,
					"material" : 0,
					"mode" : 4
				}
			]
		}
	],
	"nodes" : [
		{
			"name" : "B335791649102063C0",
			"matrix" : [ 1, 0, 0, 0, 0, 0, -1, 0, 0, 1, 0, 0, 833580.9375, 3.7679998874664307, -816492.1875, 1 ],
			"children" : [ 1 ]
		},
		{
			"mesh" : 0
		}
	],
	"scenes" : [
		{
			"nodes" : [ 0 ]
		}
	],
	"scene" : 0,
	"accessors" : [
		{
			"bufferView" : 0,
			"byteOffset" : 0,
			"componentType" : 5126,
			"count" : 474,
			"type" : "VEC3",
			"min" : [ -6.400390625, -13.55859375, 0 ],
			"max" : [ 6.400390625, 13.55859375, 15.277999877929688 ]
		},
		{
			"bufferView" : 1,
			"byteOffset" : 0,
			"componentType" : 5126,
			"count" : 474,
			"type" : "VEC3",
			"min" : [ -0.965786337852478, -0.9656094312667847, -1 ],
			"max" : [ 0.9677579402923584, 0.9701425433158875, 1 ]
		},
		{
			"bufferView" : 2,
			"byteOffset" : 0,
			"componentType" : 5126,
			"count" : 474,
			"type" : "VEC3"
		},
		{
			"bufferView" : 3,
			"byteOffset" : 0,
			"componentType" : 5123,
			"count" : 474,
			"type" : "SCALAR",
			"min" : [ 0 ],
			"max" : [ 473 ]
		}
	],
	"bufferViews" : [
		{
			"buffer" : 0,
			"byteOffset" : 0,
			"byteLength" : 5688,
			"target" : 34962
		},
		{
			"buffer" : 0,
			"byteOffset" : 5688,
			"byteLength" : 5688,
			"target" : 34962
		},
		{
			"buffer" : 0,
			"byteOffset" : 11376,
			"byteLength" : 5688,
			"target" : 34962
		},
		{
			"buffer" : 0,
			"byteOffset" : 17064,
			"byteLength" : 948,
			"target" : 34963
		}
	],
	"buffers" : [
		{
			"uri" : "B335791649102063C0.bin",
			"byteLength" : 18012
		}
	]
}
