{
	"asset" : {
		"generator" : "FME 2023.2.1.0",
		"version" : "2.0"
	},
	"materials" : [
		{
			"name" : "default_material",
			"pbrMetallicRoughness" : {
				"baseColorFactor" : [ 1, 1, 1, 1 ],
				"roughnessFactor" : 0.30000000000000004,
				"metallicFactor" : 0.5
			}
		}
	],
	"meshes" : [
		{
			"primitives" : [
				{
					"attributes" : {
						"NORMAL" : 1,
						"POSITION" : 0,
						"COLOR_0" : 2
					},
					"indices" : 3,
					"material" : 0,
					"mode" : 4
				}
			]
		}
	],
	"nodes" : [
		{
			"name" : "B334411625101063C0",
			"matrix" : [ 1, 0, 0, 0, 0, 0, -1, 0, 0, 1, 0, 0, 833443.4375, 13.550999641418457, -816248.6875, 1 ],
			"children" : [ 1 ]
		},
		{
			"mesh" : 0
		}
	],
	"scenes" : [
		{
			"nodes" : [ 0 ]
		}
	],
	"scene" : 0,
	"accessors" : [
		{
			"bufferView" : 0,
			"byteOffset" : 0,
			"componentType" : 5126,
			"count" : 507,
			"type" : "VEC3",
			"min" : [ -6.4794921875, -5.9482421875, 0 ],
			"max" : [ 6.51953125, 5.9150390625, 20.939002990722656 ]
		},
		{
			"bufferView" : 1,
			"byteOffset" : 0,
			"componentType" : 5126,
			"count" : 507,
			"type" : "VEC3",
			"min" : [ -0.7609929442405701, -0.7582263946533203, -1 ],
			"max" : [ 0.7589201927185059, 0.7654460072517395, 1 ]
		},
		{
			"bufferView" : 2,
			"byteOffset" : 0,
			"componentType" : 5126,
			"count" : 507,
			"type" : "VEC3"
		},
		{
			"bufferView" : 3,
			"byteOffset" : 0,
			"componentType" : 5123,
			"count" : 507,
			"type" : "SCALAR",
			"min" : [ 0 ],
			"max" : [ 506 ]
		}
	],
	"bufferViews" : [
		{
			"buffer" : 0,
			"byteOffset" : 0,
			"byteLength" : 6084,
			"target" : 34962
		},
		{
			"buffer" : 0,
			"byteOffset" : 6084,
			"byteLength" : 6084,
			"target" : 34962
		},
		{
			"buffer" : 0,
			"byteOffset" : 12168,
			"byteLength" : 6084,
			"target" : 34962
		},
		{
			"buffer" : 0,
			"byteOffset" : 18252,
			"byteLength" : 1014,
			"target" : 34963
		}
	],
	"buffers" : [
		{
			"uri" : "B334411625101063C0.bin",
			"byteLength" : 19266
		}
	]
}
