{
	"asset" : {
		"generator" : "FME 2023.1.0.0",
		"version" : "2.0"
	},
	"materials" : [
		{
			"name" : "default_material",
			"pbrMetallicRoughness" : {
				"baseColorFactor" : [ 1, 1, 1, 1 ],
				"roughnessFactor" : 0.30000000000000004,
				"metallicFactor" : 0.5
			}
		}
	],
	"meshes" : [
		{
			"primitives" : [
				{
					"attributes" : {
						"NORMAL" : 1,
						"POSITION" : 0,
						"COLOR_0" : 2
					},
					"indices" : 3,
					"material" : 0,
					"mode" : 4
				}
			]
		}
	],
	"nodes" : [
		{
			"name" : "B335601585001063C0",
			"matrix" : [ 1, 0, 0, 0, 0, 0, -1, 0, 0, 1, 0, 0, 833557.1875, 92.916015625, -815844.875, 1 ],
			"children" : [ 1 ]
		},
		{
			"mesh" : 0
		}
	],
	"scenes" : [
		{
			"nodes" : [ 0 ]
		}
	],
	"scene" : 0,
	"accessors" : [
		{
			"bufferView" : 0,
			"byteOffset" : 0,
			"componentType" : 5126,
			"count" : 309,
			"type" : "VEC3",
			"min" : [ -7.056640625, -7.314453125, 0 ],
			"max" : [ 7.0556640625, 7.314453125, 18.080001831054688 ]
		},
		{
			"bufferView" : 1,
			"byteOffset" : 0,
			"componentType" : 5126,
			"count" : 309,
			"type" : "VEC3",
			"min" : [ -0.7381589412689209, -0.7326251864433289, -1 ],
			"max" : [ 0.7384274005889893, 0.7315731644630432, 1 ]
		},
		{
			"bufferView" : 2,
			"byteOffset" : 0,
			"componentType" : 5126,
			"count" : 309,
			"type" : "VEC3"
		},
		{
			"bufferView" : 3,
			"byteOffset" : 0,
			"componentType" : 5123,
			"count" : 309,
			"type" : "SCALAR",
			"min" : [ 0 ],
			"max" : [ 308 ]
		}
	],
	"bufferViews" : [
		{
			"buffer" : 0,
			"byteOffset" : 0,
			"byteLength" : 3708,
			"target" : 34962
		},
		{
			"buffer" : 0,
			"byteOffset" : 3708,
			"byteLength" : 3708,
			"target" : 34962
		},
		{
			"buffer" : 0,
			"byteOffset" : 7416,
			"byteLength" : 3708,
			"target" : 34962
		},
		{
			"buffer" : 0,
			"byteOffset" : 11124,
			"byteLength" : 618,
			"target" : 34963
		}
	],
	"buffers" : [
		{
			"uri" : "B335601585001063C0.bin",
			"byteLength" : 11742
		}
	]
}
