{
	"asset" : {
		"generator" : "FME 2023.1.0.0",
		"version" : "2.0"
	},
	"materials" : [
		{
			"name" : "default_material",
			"pbrMetallicRoughness" : {
				"baseColorFactor" : [ 1, 1, 1, 1 ],
				"roughnessFactor" : 0.30000000000000004,
				"metallicFactor" : 0.5
			}
		}
	],
	"meshes" : [
		{
			"primitives" : [
				{
					"attributes" : {
						"NORMAL" : 1,
						"POSITION" : 0,
						"COLOR_0" : 2
					},
					"indices" : 3,
					"material" : 0,
					"mode" : 4
				}
			]
		}
	],
	"nodes" : [
		{
			"name" : "B335381604001063C0",
			"matrix" : [ 1, 0, 0, 0, 0, 0, -1, 0, 0, 1, 0, 0, 833538.5625, 52.910003662109375, -816036.625, 1 ],
			"children" : [ 1 ]
		},
		{
			"mesh" : 0
		}
	],
	"scenes" : [
		{
			"nodes" : [ 0 ]
		}
	],
	"scene" : 0,
	"accessors" : [
		{
			"bufferView" : 0,
			"byteOffset" : 0,
			"componentType" : 5126,
			"count" : 792,
			"type" : "VEC3",
			"min" : [ -3.212890625, -6.03515625, 0 ],
			"max" : [ 3.212890625, 6.0341796875, 14.850997924804688 ]
		},
		{
			"bufferView" : 1,
			"byteOffset" : 0,
			"componentType" : 5126,
			"count" : 792,
			"type" : "VEC3",
			"min" : [ -0.9914112091064453, -0.9902963638305664, -1 ],
			"max" : [ 0.9912705421447754, 0.9903510212898254, 1 ]
		},
		{
			"bufferView" : 2,
			"byteOffset" : 0,
			"componentType" : 5126,
			"count" : 792,
			"type" : "VEC3"
		},
		{
			"bufferView" : 3,
			"byteOffset" : 0,
			"componentType" : 5123,
			"count" : 792,
			"type" : "SCALAR",
			"min" : [ 0 ],
			"max" : [ 791 ]
		}
	],
	"bufferViews" : [
		{
			"buffer" : 0,
			"byteOffset" : 0,
			"byteLength" : 9504,
			"target" : 34962
		},
		{
			"buffer" : 0,
			"byteOffset" : 9504,
			"byteLength" : 9504,
			"target" : 34962
		},
		{
			"buffer" : 0,
			"byteOffset" : 19008,
			"byteLength" : 9504,
			"target" : 34962
		},
		{
			"buffer" : 0,
			"byteOffset" : 28512,
			"byteLength" : 1584,
			"target" : 34963
		}
	],
	"buffers" : [
		{
			"uri" : "B335381604001063C0.bin",
			"byteLength" : 30096
		}
	]
}
