{
	"asset" : {
		"generator" : "FME 2022.2.4.0",
		"version" : "2.0"
	},
	"materials" : [
		{
			"name" : "default_material",
			"pbrMetallicRoughness" : {
				"baseColorFactor" : [ 1, 1, 1, 1 ],
				"roughnessFactor" : 0.30000000000000004,
				"metallicFactor" : 0.5
			}
		}
	],
	"meshes" : [
		{
			"primitives" : [
				{
					"attributes" : {
						"NORMAL" : 1,
						"POSITION" : 0,
						"COLOR_0" : 2
					},
					"indices" : 3,
					"material" : 0,
					"mode" : 4
				}
			]
		}
	],
	"nodes" : [
		{
			"name" : "B337031563301063C0",
			"matrix" : [ 1, 0, 0, 0, 0, 0, -1, 0, 0, 1, 0, 0, 833701.3125, 106.5739974975586, -815633.125, 1 ],
			"children" : [ 1 ]
		},
		{
			"mesh" : 0
		}
	],
	"scenes" : [
		{
			"nodes" : [ 0 ]
		}
	],
	"scene" : 0,
	"accessors" : [
		{
			"bufferView" : 0,
			"byteOffset" : 0,
			"componentType" : 5126,
			"count" : 1947,
			"type" : "VEC3",
			"min" : [ -11.8515625, -10.9541015625, 0 ],
			"max" : [ 11.8525390625, 10.953125, 101.30500030517578 ]
		},
		{
			"bufferView" : 1,
			"byteOffset" : 0,
			"componentType" : 5126,
			"count" : 1947,
			"type" : "VEC3",
			"min" : [ -0.9931507110595703, -0.9893150925636292, -1 ],
			"max" : [ 0.9945055246353149, 0.9918817281723022, 1 ]
		},
		{
			"bufferView" : 2,
			"byteOffset" : 0,
			"componentType" : 5126,
			"count" : 1947,
			"type" : "VEC3"
		},
		{
			"bufferView" : 3,
			"byteOffset" : 0,
			"componentType" : 5123,
			"count" : 1947,
			"type" : "SCALAR",
			"min" : [ 0 ],
			"max" : [ 1946 ]
		}
	],
	"bufferViews" : [
		{
			"buffer" : 0,
			"byteOffset" : 0,
			"byteLength" : 23364,
			"target" : 34962
		},
		{
			"buffer" : 0,
			"byteOffset" : 23364,
			"byteLength" : 23364,
			"target" : 34962
		},
		{
			"buffer" : 0,
			"byteOffset" : 46728,
			"byteLength" : 23364,
			"target" : 34962
		},
		{
			"buffer" : 0,
			"byteOffset" : 70092,
			"byteLength" : 3894,
			"target" : 34963
		}
	],
	"buffers" : [
		{
			"uri" : "B337031563301063C0.bin",
			"byteLength" : 73986
		}
	]
}
