{
	"asset" : {
		"generator" : "FME 2023.1.0.0",
		"version" : "2.0"
	},
	"materials" : [
		{
			"name" : "default_material",
			"pbrMetallicRoughness" : {
				"baseColorFactor" : [ 1, 1, 1, 1 ],
				"roughnessFactor" : 0.30000000000000004,
				"metallicFactor" : 0.5
			}
		}
	],
	"meshes" : [
		{
			"primitives" : [
				{
					"attributes" : {
						"NORMAL" : 1,
						"POSITION" : 0,
						"COLOR_0" : 2
					},
					"indices" : 3,
					"material" : 0,
					"mode" : 4
				}
			]
		}
	],
	"nodes" : [
		{
			"name" : "B342931615201063C0",
			"matrix" : [ 1, 0, 0, 0, 0, 0, -1, 0, 0, 1, 0, 0, 834293.1875, 12.833000183105469, -816151.8125, 1 ],
			"children" : [ 1 ]
		},
		{
			"mesh" : 0
		}
	],
	"scenes" : [
		{
			"nodes" : [ 0 ]
		}
	],
	"scene" : 0,
	"accessors" : [
		{
			"bufferView" : 0,
			"byteOffset" : 0,
			"componentType" : 5126,
			"count" : 42912,
			"type" : "VEC3",
			"min" : [ -25.501953125, -27.451171875, 0 ],
			"max" : [ 25.501953125, 27.451171875, 31.365001678466797 ]
		},
		{
			"bufferView" : 1,
			"byteOffset" : 0,
			"componentType" : 5126,
			"count" : 42912,
			"type" : "VEC3",
			"min" : [ -1, -1, -1 ],
			"max" : [ 1, 1, 1 ]
		},
		{
			"bufferView" : 2,
			"byteOffset" : 0,
			"componentType" : 5126,
			"count" : 42912,
			"type" : "VEC3"
		},
		{
			"bufferView" : 3,
			"byteOffset" : 0,
			"componentType" : 5123,
			"count" : 42912,
			"type" : "SCALAR",
			"min" : [ 0 ],
			"max" : [ 42911 ]
		}
	],
	"bufferViews" : [
		{
			"buffer" : 0,
			"byteOffset" : 0,
			"byteLength" : 514944,
			"target" : 34962
		},
		{
			"buffer" : 0,
			"byteOffset" : 514944,
			"byteLength" : 514944,
			"target" : 34962
		},
		{
			"buffer" : 0,
			"byteOffset" : 1029888,
			"byteLength" : 514944,
			"target" : 34962
		},
		{
			"buffer" : 0,
			"byteOffset" : 1544832,
			"byteLength" : 85824,
			"target" : 34963
		}
	],
	"buffers" : [
		{
			"uri" : "B342931615201063C0.bin",
			"byteLength" : 1630656
		}
	]
}
