{
	"asset" : {
		"generator" : "FME 2022.2.4.0",
		"version" : "2.0"
	},
	"materials" : [
		{
			"name" : "default_material",
			"pbrMetallicRoughness" : {
				"baseColorFactor" : [ 1, 1, 1, 1 ],
				"roughnessFactor" : 0.30000000000000004,
				"metallicFactor" : 0.5
			}
		}
	],
	"meshes" : [
		{
			"primitives" : [
				{
					"attributes" : {
						"NORMAL" : 1,
						"POSITION" : 0,
						"COLOR_0" : 2
					},
					"indices" : 3,
					"material" : 0,
					"mode" : 4
				}
			]
		}
	],
	"nodes" : [
		{
			"name" : "B356331524401063C0",
			"matrix" : [ 1, 0, 0, 0, 0, 0, -1, 0, 0, 1, 0, 0, 835635.625, 9.666000366210938, -815242.5, 1 ],
			"children" : [ 1 ]
		},
		{
			"mesh" : 0
		}
	],
	"scenes" : [
		{
			"nodes" : [ 0 ]
		}
	],
	"scene" : 0,
	"accessors" : [
		{
			"bufferView" : 0,
			"byteOffset" : 0,
			"componentType" : 5126,
			"count" : 1539,
			"type" : "VEC3",
			"min" : [ -7.923828125, -7.94921875, 0 ],
			"max" : [ 7.923828125, 7.9482421875, 84.41400146484375 ]
		},
		{
			"bufferView" : 1,
			"byteOffset" : 0,
			"componentType" : 5126,
			"count" : 1539,
			"type" : "VEC3",
			"min" : [ -0.9959211945533752, -0.7916961312294006, -1 ],
			"max" : [ 0.9959180355072021, 0.7715393900871277, 1 ]
		},
		{
			"bufferView" : 2,
			"byteOffset" : 0,
			"componentType" : 5126,
			"count" : 1539,
			"type" : "VEC3"
		},
		{
			"bufferView" : 3,
			"byteOffset" : 0,
			"componentType" : 5123,
			"count" : 1539,
			"type" : "SCALAR",
			"min" : [ 0 ],
			"max" : [ 1538 ]
		}
	],
	"bufferViews" : [
		{
			"buffer" : 0,
			"byteOffset" : 0,
			"byteLength" : 18468,
			"target" : 34962
		},
		{
			"buffer" : 0,
			"byteOffset" : 18468,
			"byteLength" : 18468,
			"target" : 34962
		},
		{
			"buffer" : 0,
			"byteOffset" : 36936,
			"byteLength" : 18468,
			"target" : 34962
		},
		{
			"buffer" : 0,
			"byteOffset" : 55404,
			"byteLength" : 3078,
			"target" : 34963
		}
	],
	"buffers" : [
		{
			"uri" : "B356331524401063C0.bin",
			"byteLength" : 58482
		}
	]
}
