{
	"asset" : {
		"generator" : "FME 2023.1.0.0",
		"version" : "2.0"
	},
	"materials" : [
		{
			"name" : "default_material",
			"pbrMetallicRoughness" : {
				"baseColorFactor" : [ 1, 1, 1, 1 ],
				"roughnessFactor" : 0.30000000000000004,
				"metallicFactor" : 0.5
			}
		}
	],
	"meshes" : [
		{
			"primitives" : [
				{
					"attributes" : {
						"NORMAL" : 1,
						"POSITION" : 0,
						"COLOR_0" : 2
					},
					"indices" : 3,
					"material" : 0,
					"mode" : 4
				}
			]
		}
	],
	"nodes" : [
		{
			"name" : "B357641526002063C0",
			"matrix" : [ 1, 0, 0, 0, 0, 0, -1, 0, 0, 1, 0, 0, 835771.4375, 3.75600004196167, -815263.375, 1 ],
			"children" : [ 1 ]
		},
		{
			"mesh" : 0
		}
	],
	"scenes" : [
		{
			"nodes" : [ 0 ]
		}
	],
	"scene" : 0,
	"accessors" : [
		{
			"bufferView" : 0,
			"byteOffset" : 0,
			"componentType" : 5126,
			"count" : 1137,
			"type" : "VEC3",
			"min" : [ -15.3095703125, -15.4033203125, 0 ],
			"max" : [ 15.3095703125, 15.40234375, 13.421998977661133 ]
		},
		{
			"bufferView" : 1,
			"byteOffset" : 0,
			"componentType" : 5126,
			"count" : 1137,
			"type" : "VEC3",
			"min" : [ -0.9952281713485718, -0.9954766631126404, -1 ],
			"max" : [ 0.9952704310417175, 0.9943652153015137, 1 ]
		},
		{
			"bufferView" : 2,
			"byteOffset" : 0,
			"componentType" : 5126,
			"count" : 1137,
			"type" : "VEC3"
		},
		{
			"bufferView" : 3,
			"byteOffset" : 0,
			"componentType" : 5123,
			"count" : 1137,
			"type" : "SCALAR",
			"min" : [ 0 ],
			"max" : [ 1136 ]
		}
	],
	"bufferViews" : [
		{
			"buffer" : 0,
			"byteOffset" : 0,
			"byteLength" : 13644,
			"target" : 34962
		},
		{
			"buffer" : 0,
			"byteOffset" : 13644,
			"byteLength" : 13644,
			"target" : 34962
		},
		{
			"buffer" : 0,
			"byteOffset" : 27288,
			"byteLength" : 13644,
			"target" : 34962
		},
		{
			"buffer" : 0,
			"byteOffset" : 40932,
			"byteLength" : 2274,
			"target" : 34963
		}
	],
	"buffers" : [
		{
			"uri" : "B357641526002063C0.bin",
			"byteLength" : 43206
		}
	]
}
