{
	"asset" : {
		"generator" : "FME 2023.1.0.0",
		"version" : "2.0"
	},
	"materials" : [
		{
			"name" : "default_material",
			"pbrMetallicRoughness" : {
				"baseColorFactor" : [ 1, 1, 1, 1 ],
				"roughnessFactor" : 0.30000000000000004,
				"metallicFactor" : 0.5
			}
		}
	],
	"meshes" : [
		{
			"primitives" : [
				{
					"attributes" : {
						"NORMAL" : 1,
						"POSITION" : 0,
						"COLOR_0" : 2
					},
					"indices" : 3,
					"material" : 0,
					"mode" : 4
				}
			]
		}
	],
	"nodes" : [
		{
			"name" : "B341551593801063C0",
			"matrix" : [ 1, 0, 0, 0, 0, 0, -1, 0, 0, 1, 0, 0, 834155.5, 23.031999588012695, -815936.625, 1 ],
			"children" : [ 1 ]
		},
		{
			"mesh" : 0
		}
	],
	"scenes" : [
		{
			"nodes" : [ 0 ]
		}
	],
	"scene" : 0,
	"accessors" : [
		{
			"bufferView" : 0,
			"byteOffset" : 0,
			"componentType" : 5126,
			"count" : 2766,
			"type" : "VEC3",
			"min" : [ -10.62890625, -8.80078125, 0 ],
			"max" : [ 10.6298828125, 8.7998046875, 78.05900573730469 ]
		},
		{
			"bufferView" : 1,
			"byteOffset" : 0,
			"componentType" : 5126,
			"count" : 2766,
			"type" : "VEC3",
			"min" : [ -0.8286532759666443, -0.8557701110839844, -1 ],
			"max" : [ 0.8133516311645508, 0.8199127316474915, 1 ]
		},
		{
			"bufferView" : 2,
			"byteOffset" : 0,
			"componentType" : 5126,
			"count" : 2766,
			"type" : "VEC3"
		},
		{
			"bufferView" : 3,
			"byteOffset" : 0,
			"componentType" : 5123,
			"count" : 2766,
			"type" : "SCALAR",
			"min" : [ 0 ],
			"max" : [ 2765 ]
		}
	],
	"bufferViews" : [
		{
			"buffer" : 0,
			"byteOffset" : 0,
			"byteLength" : 33192,
			"target" : 34962
		},
		{
			"buffer" : 0,
			"byteOffset" : 33192,
			"byteLength" : 33192,
			"target" : 34962
		},
		{
			"buffer" : 0,
			"byteOffset" : 66384,
			"byteLength" : 33192,
			"target" : 34962
		},
		{
			"buffer" : 0,
			"byteOffset" : 99576,
			"byteLength" : 5532,
			"target" : 34963
		}
	],
	"buffers" : [
		{
			"uri" : "B341551593801063C0.bin",
			"byteLength" : 105108
		}
	]
}
