{
	"asset" : {
		"generator" : "FME 2022.2.4.0",
		"version" : "2.0"
	},
	"materials" : [
		{
			"name" : "default_material",
			"pbrMetallicRoughness" : {
				"baseColorFactor" : [ 1, 1, 1, 1 ],
				"roughnessFactor" : 0.30000000000000004,
				"metallicFactor" : 0.5
			}
		}
	],
	"meshes" : [
		{
			"primitives" : [
				{
					"attributes" : {
						"NORMAL" : 1,
						"POSITION" : 0,
						"COLOR_0" : 2
					},
					"indices" : 3,
					"material" : 0,
					"mode" : 4
				}
			]
		}
	],
	"nodes" : [
		{
			"name" : "B168781469301062G0",
			"matrix" : [ 1, 0, 0, 0, 0, 0, -1, 0, 0, 1, 0, 0, 816878.875, 23.25200080871582, -814692.75, 1 ],
			"children" : [ 1 ]
		},
		{
			"mesh" : 0
		}
	],
	"scenes" : [
		{
			"nodes" : [ 0 ]
		}
	],
	"scene" : 0,
	"accessors" : [
		{
			"bufferView" : 0,
			"byteOffset" : 0,
			"componentType" : 5126,
			"count" : 120,
			"type" : "VEC3",
			"min" : [ -4.1875, -2.875, 0 ],
			"max" : [ 4.1875, 2.875, 4.770599365234375 ]
		},
		{
			"bufferView" : 1,
			"byteOffset" : 0,
			"componentType" : 5126,
			"count" : 120,
			"type" : "VEC3",
			"min" : [ -0.9777213931083679, -0.9770961403846741, -1 ],
			"max" : [ 0.9772918224334717, 0.9771357774734497, 1 ]
		},
		{
			"bufferView" : 2,
			"byteOffset" : 0,
			"componentType" : 5126,
			"count" : 120,
			"type" : "VEC3"
		},
		{
			"bufferView" : 3,
			"byteOffset" : 0,
			"componentType" : 5121,
			"count" : 120,
			"type" : "SCALAR",
			"min" : [ 0 ],
			"max" : [ 119 ]
		}
	],
	"bufferViews" : [
		{
			"buffer" : 0,
			"byteOffset" : 0,
			"byteLength" : 1440,
			"target" : 34962
		},
		{
			"buffer" : 0,
			"byteOffset" : 1440,
			"byteLength" : 1440,
			"target" : 34962
		},
		{
			"buffer" : 0,
			"byteOffset" : 2880,
			"byteLength" : 1440,
			"target" : 34962
		},
		{
			"buffer" : 0,
			"byteOffset" : 4320,
			"byteLength" : 120,
			"target" : 34963
		}
	],
	"buffers" : [
		{
			"uri" : "B168781469301062G0.bin",
			"byteLength" : 4440
		}
	]
}
