{
	"asset" : {
		"generator" : "FME 2023.1.0.0",
		"version" : "2.0"
	},
	"materials" : [
		{
			"name" : "default_material",
			"pbrMetallicRoughness" : {
				"baseColorFactor" : [ 1, 1, 1, 1 ],
				"roughnessFactor" : 0.30000000000000004,
				"metallicFactor" : 0.5
			}
		}
	],
	"meshes" : [
		{
			"primitives" : [
				{
					"attributes" : {
						"NORMAL" : 1,
						"POSITION" : 0,
						"COLOR_0" : 2
					},
					"indices" : 3,
					"material" : 0,
					"mode" : 4
				}
			]
		}
	],
	"nodes" : [
		{
			"name" : "B342901651201063C0",
			"matrix" : [ 1, 0, 0, 0, 0, 0, -1, 0, 0, 1, 0, 0, 834291.875, 5.576995849609375, -816507.1875, 1 ],
			"children" : [ 1 ]
		},
		{
			"mesh" : 0
		}
	],
	"scenes" : [
		{
			"nodes" : [ 0 ]
		}
	],
	"scene" : 0,
	"accessors" : [
		{
			"bufferView" : 0,
			"byteOffset" : 0,
			"componentType" : 5126,
			"count" : 306,
			"type" : "VEC3",
			"min" : [ -10.8212890625, -8.5283203125, 0 ],
			"max" : [ 10.822265625, 8.5283203125, 5.421001434326172 ]
		},
		{
			"bufferView" : 1,
			"byteOffset" : 0,
			"componentType" : 5126,
			"count" : 306,
			"type" : "VEC3",
			"min" : [ -0.999592125415802, -0.9696424007415771, -0.0001888166443677619 ],
			"max" : [ 0.9685958027839661, 0.999947726726532, 1 ]
		},
		{
			"bufferView" : 2,
			"byteOffset" : 0,
			"componentType" : 5126,
			"count" : 306,
			"type" : "VEC3"
		},
		{
			"bufferView" : 3,
			"byteOffset" : 0,
			"componentType" : 5123,
			"count" : 306,
			"type" : "SCALAR",
			"min" : [ 0 ],
			"max" : [ 305 ]
		}
	],
	"bufferViews" : [
		{
			"buffer" : 0,
			"byteOffset" : 0,
			"byteLength" : 3672,
			"target" : 34962
		},
		{
			"buffer" : 0,
			"byteOffset" : 3672,
			"byteLength" : 3672,
			"target" : 34962
		},
		{
			"buffer" : 0,
			"byteOffset" : 7344,
			"byteLength" : 3672,
			"target" : 34962
		},
		{
			"buffer" : 0,
			"byteOffset" : 11016,
			"byteLength" : 612,
			"target" : 34963
		}
	],
	"buffers" : [
		{
			"uri" : "B342901651201063C0.bin",
			"byteLength" : 11628
		}
	]
}
