{
	"asset" : {
		"generator" : "FME 2022.2.4.0",
		"version" : "2.0"
	},
	"materials" : [
		{
			"name" : "default_material",
			"pbrMetallicRoughness" : {
				"baseColorFactor" : [ 1, 1, 1, 1 ],
				"roughnessFactor" : 0.30000000000000004,
				"metallicFactor" : 0.5
			}
		}
	],
	"meshes" : [
		{
			"primitives" : [
				{
					"attributes" : {
						"NORMAL" : 1,
						"POSITION" : 0,
						"COLOR_0" : 2
					},
					"indices" : 3,
					"material" : 0,
					"mode" : 4
				}
			]
		}
	],
	"nodes" : [
		{
			"name" : "B330881604001063C0",
			"matrix" : [ 1, 0, 0, 0, 0, 0, -1, 0, 0, 1, 0, 0, 833089.3125, 78.9739990234375, -816039.875, 1 ],
			"children" : [ 1 ]
		},
		{
			"mesh" : 0
		}
	],
	"scenes" : [
		{
			"nodes" : [ 0 ]
		}
	],
	"scene" : 0,
	"accessors" : [
		{
			"bufferView" : 0,
			"byteOffset" : 0,
			"componentType" : 5126,
			"count" : 480,
			"type" : "VEC3",
			"min" : [ -4.7177734375, -5.62890625, 0 ],
			"max" : [ 4.71728515625, 5.62890625, 13.332000732421875 ]
		},
		{
			"bufferView" : 1,
			"byteOffset" : 0,
			"componentType" : 5126,
			"count" : 480,
			"type" : "VEC3",
			"min" : [ -0.998801589012146, -0.9978759288787842, -1 ],
			"max" : [ 0.9982547760009766, 0.9978282451629639, 1 ]
		},
		{
			"bufferView" : 2,
			"byteOffset" : 0,
			"componentType" : 5126,
			"count" : 480,
			"type" : "VEC3"
		},
		{
			"bufferView" : 3,
			"byteOffset" : 0,
			"componentType" : 5123,
			"count" : 480,
			"type" : "SCALAR",
			"min" : [ 0 ],
			"max" : [ 479 ]
		}
	],
	"bufferViews" : [
		{
			"buffer" : 0,
			"byteOffset" : 0,
			"byteLength" : 5760,
			"target" : 34962
		},
		{
			"buffer" : 0,
			"byteOffset" : 5760,
			"byteLength" : 5760,
			"target" : 34962
		},
		{
			"buffer" : 0,
			"byteOffset" : 11520,
			"byteLength" : 5760,
			"target" : 34962
		},
		{
			"buffer" : 0,
			"byteOffset" : 17280,
			"byteLength" : 960,
			"target" : 34963
		}
	],
	"buffers" : [
		{
			"uri" : "B330881604001063C0.bin",
			"byteLength" : 18240
		}
	]
}
