{
	"asset" : {
		"generator" : "FME 2023.2.1.0",
		"version" : "2.0"
	},
	"materials" : [
		{
			"name" : "default_material",
			"pbrMetallicRoughness" : {
				"baseColorFactor" : [ 1, 1, 1, 1 ],
				"roughnessFactor" : 0.30000000000000004,
				"metallicFactor" : 0.5
			}
		}
	],
	"meshes" : [
		{
			"primitives" : [
				{
					"attributes" : {
						"NORMAL" : 1,
						"POSITION" : 0,
						"COLOR_0" : 2
					},
					"indices" : 3,
					"material" : 0,
					"mode" : 4
				}
			]
		}
	],
	"nodes" : [
		{
			"name" : "B345501562602063C0",
			"matrix" : [ 1, 0, 0, 0, 0, 0, -1, 0, 0, 1, 0, 0, 834526.125, 7.01300048828125, -815621.5, 1 ],
			"children" : [ 1 ]
		},
		{
			"mesh" : 0
		}
	],
	"scenes" : [
		{
			"nodes" : [ 0 ]
		}
	],
	"scene" : 0,
	"accessors" : [
		{
			"bufferView" : 0,
			"byteOffset" : 0,
			"componentType" : 5126,
			"count" : 1956,
			"type" : "VEC3",
			"min" : [ -57.94921875, -34.833984375, 0 ],
			"max" : [ 57.94921875, 34.833984375, 6.525999069213867 ]
		},
		{
			"bufferView" : 1,
			"byteOffset" : 0,
			"componentType" : 5126,
			"count" : 1956,
			"type" : "VEC3",
			"min" : [ -0.9988973736763, -0.9996939301490784, -1 ],
			"max" : [ 0.9994005560874939, 0.9999589920043945, 1 ]
		},
		{
			"bufferView" : 2,
			"byteOffset" : 0,
			"componentType" : 5126,
			"count" : 1956,
			"type" : "VEC3"
		},
		{
			"bufferView" : 3,
			"byteOffset" : 0,
			"componentType" : 5123,
			"count" : 1956,
			"type" : "SCALAR",
			"min" : [ 0 ],
			"max" : [ 1955 ]
		}
	],
	"bufferViews" : [
		{
			"buffer" : 0,
			"byteOffset" : 0,
			"byteLength" : 23472,
			"target" : 34962
		},
		{
			"buffer" : 0,
			"byteOffset" : 23472,
			"byteLength" : 23472,
			"target" : 34962
		},
		{
			"buffer" : 0,
			"byteOffset" : 46944,
			"byteLength" : 23472,
			"target" : 34962
		},
		{
			"buffer" : 0,
			"byteOffset" : 70416,
			"byteLength" : 3912,
			"target" : 34963
		}
	],
	"buffers" : [
		{
			"uri" : "B345501562602063C0.bin",
			"byteLength" : 74328
		}
	]
}
