{
	"asset" : {
		"generator" : "FME 2022.2.4.0",
		"version" : "2.0"
	},
	"materials" : [
		{
			"name" : "default_material",
			"pbrMetallicRoughness" : {
				"baseColorFactor" : [ 1, 1, 1, 1 ],
				"roughnessFactor" : 0.30000000000000004,
				"metallicFactor" : 0.5
			}
		}
	],
	"meshes" : [
		{
			"primitives" : [
				{
					"attributes" : {
						"NORMAL" : 1,
						"POSITION" : 0,
						"COLOR_0" : 2
					},
					"indices" : 3,
					"material" : 0,
					"mode" : 4
				}
			]
		}
	],
	"nodes" : [
		{
			"name" : "B359831525501063C0",
			"matrix" : [ 1, 0, 0, 0, 0, 0, -1, 0, 0, 1, 0, 0, 835984.625, 4.479000091552734, -815254.625, 1 ],
			"children" : [ 1 ]
		},
		{
			"mesh" : 0
		}
	],
	"scenes" : [
		{
			"nodes" : [ 0 ]
		}
	],
	"scene" : 0,
	"accessors" : [
		{
			"bufferView" : 0,
			"byteOffset" : 0,
			"componentType" : 5126,
			"count" : 126,
			"type" : "VEC3",
			"min" : [ -1.7607421875, -1.7744140625, 0 ],
			"max" : [ 1.7607421875, 1.7744140625, 2.868000030517578 ]
		},
		{
			"bufferView" : 1,
			"byteOffset" : 0,
			"componentType" : 5126,
			"count" : 126,
			"type" : "VEC3",
			"min" : [ -0.9966694116592407, -0.9966583251953125, -1 ],
			"max" : [ 0.996658444404602, 0.9966852068901062, 1 ]
		},
		{
			"bufferView" : 2,
			"byteOffset" : 0,
			"componentType" : 5126,
			"count" : 126,
			"type" : "VEC3"
		},
		{
			"bufferView" : 3,
			"byteOffset" : 0,
			"componentType" : 5121,
			"count" : 126,
			"type" : "SCALAR",
			"min" : [ 0 ],
			"max" : [ 125 ]
		}
	],
	"bufferViews" : [
		{
			"buffer" : 0,
			"byteOffset" : 0,
			"byteLength" : 1512,
			"target" : 34962
		},
		{
			"buffer" : 0,
			"byteOffset" : 1512,
			"byteLength" : 1512,
			"target" : 34962
		},
		{
			"buffer" : 0,
			"byteOffset" : 3024,
			"byteLength" : 1512,
			"target" : 34962
		},
		{
			"buffer" : 0,
			"byteOffset" : 4536,
			"byteLength" : 126,
			"target" : 34963
		}
	],
	"buffers" : [
		{
			"uri" : "B359831525501063C0.bin",
			"byteLength" : 4662
		}
	]
}
