{
	"asset" : {
		"generator" : "FME 2023.2.1.0",
		"version" : "2.0"
	},
	"materials" : [
		{
			"name" : "default_material",
			"pbrMetallicRoughness" : {
				"baseColorFactor" : [ 1, 1, 1, 1 ],
				"roughnessFactor" : 0.30000000000000004,
				"metallicFactor" : 0.5
			}
		}
	],
	"meshes" : [
		{
			"primitives" : [
				{
					"attributes" : {
						"NORMAL" : 1,
						"POSITION" : 0,
						"COLOR_0" : 2
					},
					"indices" : 3,
					"material" : 0,
					"mode" : 4
				}
			]
		}
	],
	"nodes" : [
		{
			"name" : "B176561546201062G0",
			"matrix" : [ 1, 0, 0, 0, 0, 0, -1, 0, 0, 1, 0, 0, 817655.75, 44.82160186767578, -815462.25, 1 ],
			"children" : [ 1 ]
		},
		{
			"mesh" : 0
		}
	],
	"scenes" : [
		{
			"nodes" : [ 0 ]
		}
	],
	"scene" : 0,
	"accessors" : [
		{
			"bufferView" : 0,
			"byteOffset" : 0,
			"componentType" : 5126,
			"count" : 78,
			"type" : "VEC3",
			"min" : [ -3.625, -3.3125, 0 ],
			"max" : [ 3.5625, 3.375, 2.969799041748047 ]
		},
		{
			"bufferView" : 1,
			"byteOffset" : 0,
			"componentType" : 5126,
			"count" : 78,
			"type" : "VEC3",
			"min" : [ -0.978001058101654, -0.9780025482177734, -1 ],
			"max" : [ 0.9780022501945496, 0.9780025482177734, 1 ]
		},
		{
			"bufferView" : 2,
			"byteOffset" : 0,
			"componentType" : 5126,
			"count" : 78,
			"type" : "VEC3"
		},
		{
			"bufferView" : 3,
			"byteOffset" : 0,
			"componentType" : 5121,
			"count" : 78,
			"type" : "SCALAR",
			"min" : [ 0 ],
			"max" : [ 77 ]
		}
	],
	"bufferViews" : [
		{
			"buffer" : 0,
			"byteOffset" : 0,
			"byteLength" : 936,
			"target" : 34962
		},
		{
			"buffer" : 0,
			"byteOffset" : 936,
			"byteLength" : 936,
			"target" : 34962
		},
		{
			"buffer" : 0,
			"byteOffset" : 1872,
			"byteLength" : 936,
			"target" : 34962
		},
		{
			"buffer" : 0,
			"byteOffset" : 2808,
			"byteLength" : 78,
			"target" : 34963
		}
	],
	"buffers" : [
		{
			"uri" : "B176561546201062G0.bin",
			"byteLength" : 2886
		}
	]
}
