{
	"asset" : {
		"generator" : "FME 2023.2.1.0",
		"version" : "2.0"
	},
	"materials" : [
		{
			"name" : "default_material",
			"pbrMetallicRoughness" : {
				"baseColorFactor" : [ 1, 1, 1, 1 ],
				"roughnessFactor" : 0.30000000000000004,
				"metallicFactor" : 0.5
			}
		}
	],
	"meshes" : [
		{
			"primitives" : [
				{
					"attributes" : {
						"NORMAL" : 1,
						"POSITION" : 0,
						"COLOR_0" : 2
					},
					"indices" : 3,
					"material" : 0,
					"mode" : 4
				}
			]
		}
	],
	"nodes" : [
		{
			"name" : "B359471500901063C0",
			"matrix" : [ 1, 0, 0, 0, 0, 0, -1, 0, 0, 1, 0, 0, 835947.5625, 11.411999702453613, -815006.875, 1 ],
			"children" : [ 1 ]
		},
		{
			"mesh" : 0
		}
	],
	"scenes" : [
		{
			"nodes" : [ 0 ]
		}
	],
	"scene" : 0,
	"accessors" : [
		{
			"bufferView" : 0,
			"byteOffset" : 0,
			"componentType" : 5126,
			"count" : 21,
			"type" : "VEC3",
			"min" : [ -1.388671875, -2.609375, 0 ],
			"max" : [ 1.3876953125, 2.6103515625, 3.4619998931884766 ]
		},
		{
			"bufferView" : 1,
			"byteOffset" : 0,
			"componentType" : 5126,
			"count" : 21,
			"type" : "VEC3",
			"min" : [ -0.9729135036468506, -0.32899925112724304, 0 ],
			"max" : [ 0.9443302154541016, 0.9599280953407288, 1 ]
		},
		{
			"bufferView" : 2,
			"byteOffset" : 0,
			"componentType" : 5126,
			"count" : 21,
			"type" : "VEC3"
		},
		{
			"bufferView" : 3,
			"byteOffset" : 0,
			"componentType" : 5121,
			"count" : 21,
			"type" : "SCALAR",
			"min" : [ 0 ],
			"max" : [ 20 ]
		}
	],
	"bufferViews" : [
		{
			"buffer" : 0,
			"byteOffset" : 0,
			"byteLength" : 252,
			"target" : 34962
		},
		{
			"buffer" : 0,
			"byteOffset" : 252,
			"byteLength" : 252,
			"target" : 34962
		},
		{
			"buffer" : 0,
			"byteOffset" : 504,
			"byteLength" : 252,
			"target" : 34962
		},
		{
			"buffer" : 0,
			"byteOffset" : 756,
			"byteLength" : 21,
			"target" : 34963
		}
	],
	"buffers" : [
		{
			"uri" : "B359471500901063C0.bin",
			"byteLength" : 777
		}
	]
}
