{
	"asset" : {
		"generator" : "FME 2023.1.0.0",
		"version" : "2.0"
	},
	"materials" : [
		{
			"name" : "default_material",
			"pbrMetallicRoughness" : {
				"baseColorFactor" : [ 1, 1, 1, 1 ],
				"roughnessFactor" : 0.30000000000000004,
				"metallicFactor" : 0.5
			}
		}
	],
	"meshes" : [
		{
			"primitives" : [
				{
					"attributes" : {
						"NORMAL" : 1,
						"POSITION" : 0,
						"COLOR_0" : 2
					},
					"indices" : 3,
					"material" : 0,
					"mode" : 4
				}
			]
		}
	],
	"nodes" : [
		{
			"name" : "B352211555201063C0",
			"matrix" : [ 1, 0, 0, 0, 0, 0, -1, 0, 0, 1, 0, 0, 835220.75, 6.154998302459717, -815552.3125, 1 ],
			"children" : [ 1 ]
		},
		{
			"mesh" : 0
		}
	],
	"scenes" : [
		{
			"nodes" : [ 0 ]
		}
	],
	"scene" : 0,
	"accessors" : [
		{
			"bufferView" : 0,
			"byteOffset" : 0,
			"componentType" : 5126,
			"count" : 150,
			"type" : "VEC3",
			"min" : [ -3.771484375, -3.1728515625, 0 ],
			"max" : [ 3.771484375, 3.171875, 19.011001586914062 ]
		},
		{
			"bufferView" : 1,
			"byteOffset" : 0,
			"componentType" : 5126,
			"count" : 150,
			"type" : "VEC3",
			"min" : [ -0.9015231132507324, -0.8428062796592712, -0.004450049251317978 ],
			"max" : [ 0.8970890045166016, 0.8989438414573669, 1 ]
		},
		{
			"bufferView" : 2,
			"byteOffset" : 0,
			"componentType" : 5126,
			"count" : 150,
			"type" : "VEC3"
		},
		{
			"bufferView" : 3,
			"byteOffset" : 0,
			"componentType" : 5121,
			"count" : 150,
			"type" : "SCALAR",
			"min" : [ 0 ],
			"max" : [ 149 ]
		}
	],
	"bufferViews" : [
		{
			"buffer" : 0,
			"byteOffset" : 0,
			"byteLength" : 1800,
			"target" : 34962
		},
		{
			"buffer" : 0,
			"byteOffset" : 1800,
			"byteLength" : 1800,
			"target" : 34962
		},
		{
			"buffer" : 0,
			"byteOffset" : 3600,
			"byteLength" : 1800,
			"target" : 34962
		},
		{
			"buffer" : 0,
			"byteOffset" : 5400,
			"byteLength" : 150,
			"target" : 34963
		}
	],
	"buffers" : [
		{
			"uri" : "B352211555201063C0.bin",
			"byteLength" : 5550
		}
	]
}
