{
	"asset" : {
		"generator" : "FME 2023.1.0.0",
		"version" : "2.0"
	},
	"materials" : [
		{
			"name" : "default_material",
			"pbrMetallicRoughness" : {
				"baseColorFactor" : [ 1, 1, 1, 1 ],
				"roughnessFactor" : 0.30000000000000004,
				"metallicFactor" : 0.5
			}
		}
	],
	"meshes" : [
		{
			"primitives" : [
				{
					"attributes" : {
						"NORMAL" : 1,
						"POSITION" : 0,
						"COLOR_0" : 2
					},
					"indices" : 3,
					"material" : 0,
					"mode" : 4
				}
			]
		}
	],
	"nodes" : [
		{
			"name" : "B355051520501063C0",
			"matrix" : [ 1, 0, 0, 0, 0, 0, -1, 0, 0, 1, 0, 0, 835503.5, 19.500999450683594, -815202.6875, 1 ],
			"children" : [ 1 ]
		},
		{
			"mesh" : 0
		}
	],
	"scenes" : [
		{
			"nodes" : [ 0 ]
		}
	],
	"scene" : 0,
	"accessors" : [
		{
			"bufferView" : 0,
			"byteOffset" : 0,
			"componentType" : 5126,
			"count" : 249,
			"type" : "VEC3",
			"min" : [ -5.7705078125, -5.9501953125, 0 ],
			"max" : [ 5.76953125, 5.94921875, 19.963001251220703 ]
		},
		{
			"bufferView" : 1,
			"byteOffset" : 0,
			"componentType" : 5126,
			"count" : 249,
			"type" : "VEC3",
			"min" : [ -0.7753527164459229, -0.7898176312446594, -1 ],
			"max" : [ 0.796919584274292, 0.797869861125946, 1 ]
		},
		{
			"bufferView" : 2,
			"byteOffset" : 0,
			"componentType" : 5126,
			"count" : 249,
			"type" : "VEC3"
		},
		{
			"bufferView" : 3,
			"byteOffset" : 0,
			"componentType" : 5121,
			"count" : 249,
			"type" : "SCALAR",
			"min" : [ 0 ],
			"max" : [ 248 ]
		}
	],
	"bufferViews" : [
		{
			"buffer" : 0,
			"byteOffset" : 0,
			"byteLength" : 2988,
			"target" : 34962
		},
		{
			"buffer" : 0,
			"byteOffset" : 2988,
			"byteLength" : 2988,
			"target" : 34962
		},
		{
			"buffer" : 0,
			"byteOffset" : 5976,
			"byteLength" : 2988,
			"target" : 34962
		},
		{
			"buffer" : 0,
			"byteOffset" : 8964,
			"byteLength" : 249,
			"target" : 34963
		}
	],
	"buffers" : [
		{
			"uri" : "B355051520501063C0.bin",
			"byteLength" : 9213
		}
	]
}
