{
	"asset" : {
		"generator" : "FME 2023.1.0.0",
		"version" : "2.0"
	},
	"materials" : [
		{
			"name" : "default_material",
			"pbrMetallicRoughness" : {
				"baseColorFactor" : [ 1, 1, 1, 1 ],
				"roughnessFactor" : 0.30000000000000004,
				"metallicFactor" : 0.5
			}
		}
	],
	"meshes" : [
		{
			"primitives" : [
				{
					"attributes" : {
						"NORMAL" : 1,
						"POSITION" : 0,
						"COLOR_0" : 2
					},
					"indices" : 3,
					"material" : 0,
					"mode" : 4
				}
			]
		}
	],
	"nodes" : [
		{
			"name" : "B337131644901063C0",
			"matrix" : [ 1, 0, 0, 0, 0, 0, -1, 0, 0, 1, 0, 0, 833714.5, 18.809995651245117, -816452.25, 1 ],
			"children" : [ 1 ]
		},
		{
			"mesh" : 0
		}
	],
	"scenes" : [
		{
			"nodes" : [ 0 ]
		}
	],
	"scene" : 0,
	"accessors" : [
		{
			"bufferView" : 0,
			"byteOffset" : 0,
			"componentType" : 5126,
			"count" : 789,
			"type" : "VEC3",
			"min" : [ -6.056640625, -8.6923828125, 0 ],
			"max" : [ 6.056640625, 8.6923828125, 67.07699584960938 ]
		},
		{
			"bufferView" : 1,
			"byteOffset" : 0,
			"componentType" : 5126,
			"count" : 789,
			"type" : "VEC3",
			"min" : [ -0.9666305780410767, -0.9675246477127075, -1 ],
			"max" : [ 0.9657665491104126, 0.9675246477127075, 1 ]
		},
		{
			"bufferView" : 2,
			"byteOffset" : 0,
			"componentType" : 5126,
			"count" : 789,
			"type" : "VEC3"
		},
		{
			"bufferView" : 3,
			"byteOffset" : 0,
			"componentType" : 5123,
			"count" : 789,
			"type" : "SCALAR",
			"min" : [ 0 ],
			"max" : [ 788 ]
		}
	],
	"bufferViews" : [
		{
			"buffer" : 0,
			"byteOffset" : 0,
			"byteLength" : 9468,
			"target" : 34962
		},
		{
			"buffer" : 0,
			"byteOffset" : 9468,
			"byteLength" : 9468,
			"target" : 34962
		},
		{
			"buffer" : 0,
			"byteOffset" : 18936,
			"byteLength" : 9468,
			"target" : 34962
		},
		{
			"buffer" : 0,
			"byteOffset" : 28404,
			"byteLength" : 1578,
			"target" : 34963
		}
	],
	"buffers" : [
		{
			"uri" : "B337131644901063C0.bin",
			"byteLength" : 29982
		}
	]
}
