{
	"asset" : {
		"generator" : "FME 2023.2.1.0",
		"version" : "2.0"
	},
	"materials" : [
		{
			"name" : "default_material",
			"pbrMetallicRoughness" : {
				"baseColorFactor" : [ 1, 1, 1, 1 ],
				"roughnessFactor" : 0.30000000000000004,
				"metallicFactor" : 0.5
			}
		}
	],
	"meshes" : [
		{
			"primitives" : [
				{
					"attributes" : {
						"NORMAL" : 1,
						"POSITION" : 0,
						"COLOR_0" : 2
					},
					"indices" : 3,
					"material" : 0,
					"mode" : 4
				}
			]
		}
	],
	"nodes" : [
		{
			"name" : "B171481440401062G0",
			"matrix" : [ 1, 0, 0, 0, 0, 0, -1, 0, 0, 1, 0, 0, 817149.25, 10.168100357055664, -814404, 1 ],
			"children" : [ 1 ]
		},
		{
			"mesh" : 0
		}
	],
	"scenes" : [
		{
			"nodes" : [ 0 ]
		}
	],
	"scene" : 0,
	"accessors" : [
		{
			"bufferView" : 0,
			"byteOffset" : 0,
			"componentType" : 5126,
			"count" : 543,
			"type" : "VEC3",
			"min" : [ -5.375, -6.6875, 0 ],
			"max" : [ 5.4375, 6.625, 10.939699172973633 ]
		},
		{
			"bufferView" : 1,
			"byteOffset" : 0,
			"componentType" : 5126,
			"count" : 543,
			"type" : "VEC3",
			"min" : [ -0.9823374152183533, -0.9778038263320923, -1 ],
			"max" : [ 0.9823374152183533, 0.9778038263320923, 1 ]
		},
		{
			"bufferView" : 2,
			"byteOffset" : 0,
			"componentType" : 5126,
			"count" : 543,
			"type" : "VEC3"
		},
		{
			"bufferView" : 3,
			"byteOffset" : 0,
			"componentType" : 5123,
			"count" : 543,
			"type" : "SCALAR",
			"min" : [ 0 ],
			"max" : [ 542 ]
		}
	],
	"bufferViews" : [
		{
			"buffer" : 0,
			"byteOffset" : 0,
			"byteLength" : 6516,
			"target" : 34962
		},
		{
			"buffer" : 0,
			"byteOffset" : 6516,
			"byteLength" : 6516,
			"target" : 34962
		},
		{
			"buffer" : 0,
			"byteOffset" : 13032,
			"byteLength" : 6516,
			"target" : 34962
		},
		{
			"buffer" : 0,
			"byteOffset" : 19548,
			"byteLength" : 1086,
			"target" : 34963
		}
	],
	"buffers" : [
		{
			"uri" : "B171481440401062G0.bin",
			"byteLength" : 20634
		}
	]
}
