{
	"asset" : {
		"generator" : "FME 2023.2.1.0",
		"version" : "2.0"
	},
	"materials" : [
		{
			"name" : "default_material",
			"pbrMetallicRoughness" : {
				"baseColorFactor" : [ 1, 1, 1, 1 ],
				"roughnessFactor" : 0.30000000000000004,
				"metallicFactor" : 0.5
			}
		}
	],
	"meshes" : [
		{
			"primitives" : [
				{
					"attributes" : {
						"NORMAL" : 1,
						"POSITION" : 0,
						"COLOR_0" : 2
					},
					"indices" : 3,
					"material" : 0,
					"mode" : 4
				}
			]
		}
	],
	"nodes" : [
		{
			"name" : "B345211605101063C0",
			"matrix" : [ 1, 0, 0, 0, 0, 0, -1, 0, 0, 1, 0, 0, 834521, 3.5309998989105225, -816051.4375, 1 ],
			"children" : [ 1 ]
		},
		{
			"mesh" : 0
		}
	],
	"scenes" : [
		{
			"nodes" : [ 0 ]
		}
	],
	"scene" : 0,
	"accessors" : [
		{
			"bufferView" : 0,
			"byteOffset" : 0,
			"componentType" : 5126,
			"count" : 93,
			"type" : "VEC3",
			"min" : [ -4.0361328125, -4.955078125, 0 ],
			"max" : [ 4.0361328125, 4.955078125, 4.081000328063965 ]
		},
		{
			"bufferView" : 1,
			"byteOffset" : 0,
			"componentType" : 5126,
			"count" : 93,
			"type" : "VEC3",
			"min" : [ -0.8480055928230286, -0.8372461199760437, -0.022150805220007896 ],
			"max" : [ 0.8472843170166016, 0.8505418300628662, 0.9999090433120728 ]
		},
		{
			"bufferView" : 2,
			"byteOffset" : 0,
			"componentType" : 5126,
			"count" : 93,
			"type" : "VEC3"
		},
		{
			"bufferView" : 3,
			"byteOffset" : 0,
			"componentType" : 5121,
			"count" : 93,
			"type" : "SCALAR",
			"min" : [ 0 ],
			"max" : [ 92 ]
		}
	],
	"bufferViews" : [
		{
			"buffer" : 0,
			"byteOffset" : 0,
			"byteLength" : 1116,
			"target" : 34962
		},
		{
			"buffer" : 0,
			"byteOffset" : 1116,
			"byteLength" : 1116,
			"target" : 34962
		},
		{
			"buffer" : 0,
			"byteOffset" : 2232,
			"byteLength" : 1116,
			"target" : 34962
		},
		{
			"buffer" : 0,
			"byteOffset" : 3348,
			"byteLength" : 93,
			"target" : 34963
		}
	],
	"buffers" : [
		{
			"uri" : "B345211605101063C0.bin",
			"byteLength" : 3441
		}
	]
}
