{
	"asset" : {
		"generator" : "FME 2023.2.1.0",
		"version" : "2.0"
	},
	"materials" : [
		{
			"name" : "default_material",
			"pbrMetallicRoughness" : {
				"baseColorFactor" : [ 1, 1, 1, 1 ],
				"roughnessFactor" : 0.30000000000000004,
				"metallicFactor" : 0.5
			}
		}
	],
	"meshes" : [
		{
			"primitives" : [
				{
					"attributes" : {
						"NORMAL" : 1,
						"POSITION" : 0,
						"COLOR_0" : 2
					},
					"indices" : 3,
					"material" : 0,
					"mode" : 4
				}
			]
		}
	],
	"nodes" : [
		{
			"name" : "B336271604701063C0",
			"matrix" : [ 1, 0, 0, 0, 0, 0, -1, 0, 0, 1, 0, 0, 833627.75, 47.696998596191406, -816044.1875, 1 ],
			"children" : [ 1 ]
		},
		{
			"mesh" : 0
		}
	],
	"scenes" : [
		{
			"nodes" : [ 0 ]
		}
	],
	"scene" : 0,
	"accessors" : [
		{
			"bufferView" : 0,
			"byteOffset" : 0,
			"componentType" : 5126,
			"count" : 246,
			"type" : "VEC3",
			"min" : [ -5.9150390625, -5.5341796875, 0 ],
			"max" : [ 5.9150390625, 5.533203125, 17.58599853515625 ]
		},
		{
			"bufferView" : 1,
			"byteOffset" : 0,
			"componentType" : 5126,
			"count" : 246,
			"type" : "VEC3",
			"min" : [ -0.7258949279785156, -0.7379960417747498, -0.005517251789569855 ],
			"max" : [ 0.7311768531799316, 0.7312978506088257, 1 ]
		},
		{
			"bufferView" : 2,
			"byteOffset" : 0,
			"componentType" : 5126,
			"count" : 246,
			"type" : "VEC3"
		},
		{
			"bufferView" : 3,
			"byteOffset" : 0,
			"componentType" : 5121,
			"count" : 246,
			"type" : "SCALAR",
			"min" : [ 0 ],
			"max" : [ 245 ]
		}
	],
	"bufferViews" : [
		{
			"buffer" : 0,
			"byteOffset" : 0,
			"byteLength" : 2952,
			"target" : 34962
		},
		{
			"buffer" : 0,
			"byteOffset" : 2952,
			"byteLength" : 2952,
			"target" : 34962
		},
		{
			"buffer" : 0,
			"byteOffset" : 5904,
			"byteLength" : 2952,
			"target" : 34962
		},
		{
			"buffer" : 0,
			"byteOffset" : 8856,
			"byteLength" : 246,
			"target" : 34963
		}
	],
	"buffers" : [
		{
			"uri" : "B336271604701063C0.bin",
			"byteLength" : 9102
		}
	]
}
