{
	"asset" : {
		"generator" : "FME 2023.1.0.0",
		"version" : "2.0"
	},
	"materials" : [
		{
			"name" : "default_material",
			"pbrMetallicRoughness" : {
				"baseColorFactor" : [ 1, 1, 1, 1 ],
				"roughnessFactor" : 0.30000000000000004,
				"metallicFactor" : 0.5
			}
		}
	],
	"meshes" : [
		{
			"primitives" : [
				{
					"attributes" : {
						"NORMAL" : 1,
						"POSITION" : 0,
						"COLOR_0" : 2
					},
					"indices" : 3,
					"material" : 0,
					"mode" : 4
				}
			]
		}
	],
	"nodes" : [
		{
			"name" : "B338901574002063C0",
			"matrix" : [ 1, 0, 0, 0, 0, 0, -1, 0, 0, 1, 0, 0, 833891.6875, 60.83000183105469, -815742.25, 1 ],
			"children" : [ 1 ]
		},
		{
			"mesh" : 0
		}
	],
	"scenes" : [
		{
			"nodes" : [ 0 ]
		}
	],
	"scene" : 0,
	"accessors" : [
		{
			"bufferView" : 0,
			"byteOffset" : 0,
			"componentType" : 5126,
			"count" : 441,
			"type" : "VEC3",
			"min" : [ -14.513671875, -11.650390625, 0 ],
			"max" : [ 14.513671875, 11.650390625, 4.063995361328125 ]
		},
		{
			"bufferView" : 1,
			"byteOffset" : 0,
			"componentType" : 5126,
			"count" : 441,
			"type" : "VEC3",
			"min" : [ -0.8854145407676697, -0.9802950620651245, -0.014938292093575 ],
			"max" : [ 0.9212005734443665, 0.8909741044044495, 1 ]
		},
		{
			"bufferView" : 2,
			"byteOffset" : 0,
			"componentType" : 5126,
			"count" : 441,
			"type" : "VEC3"
		},
		{
			"bufferView" : 3,
			"byteOffset" : 0,
			"componentType" : 5123,
			"count" : 441,
			"type" : "SCALAR",
			"min" : [ 0 ],
			"max" : [ 440 ]
		}
	],
	"bufferViews" : [
		{
			"buffer" : 0,
			"byteOffset" : 0,
			"byteLength" : 5292,
			"target" : 34962
		},
		{
			"buffer" : 0,
			"byteOffset" : 5292,
			"byteLength" : 5292,
			"target" : 34962
		},
		{
			"buffer" : 0,
			"byteOffset" : 10584,
			"byteLength" : 5292,
			"target" : 34962
		},
		{
			"buffer" : 0,
			"byteOffset" : 15876,
			"byteLength" : 882,
			"target" : 34963
		}
	],
	"buffers" : [
		{
			"uri" : "B338901574002063C0.bin",
			"byteLength" : 16758
		}
	]
}
