{
	"asset" : {
		"generator" : "FME 2023.1.0.0",
		"version" : "2.0"
	},
	"materials" : [
		{
			"name" : "default_material",
			"pbrMetallicRoughness" : {
				"baseColorFactor" : [ 1, 1, 1, 1 ],
				"roughnessFactor" : 0.30000000000000004,
				"metallicFactor" : 0.5
			}
		}
	],
	"meshes" : [
		{
			"primitives" : [
				{
					"attributes" : {
						"NORMAL" : 1,
						"POSITION" : 0,
						"COLOR_0" : 2
					},
					"indices" : 3,
					"material" : 0,
					"mode" : 4
				}
			]
		}
	],
	"nodes" : [
		{
			"name" : "B354231541401063C0",
			"matrix" : [ 1, 0, 0, 0, 0, 0, -1, 0, 0, 1, 0, 0, 835421.5, 19.79599952697754, -815412.375, 1 ],
			"children" : [ 1 ]
		},
		{
			"mesh" : 0
		}
	],
	"scenes" : [
		{
			"nodes" : [ 0 ]
		}
	],
	"scene" : 0,
	"accessors" : [
		{
			"bufferView" : 0,
			"byteOffset" : 0,
			"componentType" : 5126,
			"count" : 3627,
			"type" : "VEC3",
			"min" : [ -5.701171875, -7.4921875, 0 ],
			"max" : [ 5.701171875, 7.4921875, 98.67900085449219 ]
		},
		{
			"bufferView" : 1,
			"byteOffset" : 0,
			"componentType" : 5126,
			"count" : 3627,
			"type" : "VEC3",
			"min" : [ -0.9995226860046387, -0.9964929223060608, -1 ],
			"max" : [ 0.999695360660553, 0.9999192953109741, 1 ]
		},
		{
			"bufferView" : 2,
			"byteOffset" : 0,
			"componentType" : 5126,
			"count" : 3627,
			"type" : "VEC3"
		},
		{
			"bufferView" : 3,
			"byteOffset" : 0,
			"componentType" : 5123,
			"count" : 3627,
			"type" : "SCALAR",
			"min" : [ 0 ],
			"max" : [ 3626 ]
		}
	],
	"bufferViews" : [
		{
			"buffer" : 0,
			"byteOffset" : 0,
			"byteLength" : 43524,
			"target" : 34962
		},
		{
			"buffer" : 0,
			"byteOffset" : 43524,
			"byteLength" : 43524,
			"target" : 34962
		},
		{
			"buffer" : 0,
			"byteOffset" : 87048,
			"byteLength" : 43524,
			"target" : 34962
		},
		{
			"buffer" : 0,
			"byteOffset" : 130572,
			"byteLength" : 7254,
			"target" : 34963
		}
	],
	"buffers" : [
		{
			"uri" : "B354231541401063C0.bin",
			"byteLength" : 137826
		}
	]
}
