{
	"asset" : {
		"generator" : "FME 2023.1.0.0",
		"version" : "2.0"
	},
	"materials" : [
		{
			"name" : "default_material",
			"pbrMetallicRoughness" : {
				"baseColorFactor" : [ 1, 1, 1, 1 ],
				"roughnessFactor" : 0.30000000000000004,
				"metallicFactor" : 0.5
			}
		}
	],
	"meshes" : [
		{
			"primitives" : [
				{
					"attributes" : {
						"NORMAL" : 1,
						"POSITION" : 0,
						"COLOR_0" : 2
					},
					"indices" : 3,
					"material" : 0,
					"mode" : 4
				}
			]
		}
	],
	"nodes" : [
		{
			"name" : "B263302377501063C0",
			"matrix" : [ 1, 0, 0, 0, 0, 0, -1, 0, 0, 1, 0, 0, 826331.6875, 5.612998962402344, -823760.625, 1 ],
			"children" : [ 1 ]
		},
		{
			"mesh" : 0
		}
	],
	"scenes" : [
		{
			"nodes" : [ 0 ]
		}
	],
	"scene" : 0,
	"accessors" : [
		{
			"bufferView" : 0,
			"byteOffset" : 0,
			"componentType" : 5126,
			"count" : 1008,
			"type" : "VEC3",
			"min" : [ -10.3046875, -19.96484375, 9.5367431640625e-7 ],
			"max" : [ 10.3046875, 19.96484375, 203.81698608398438 ]
		},
		{
			"bufferView" : 1,
			"byteOffset" : 0,
			"componentType" : 5126,
			"count" : 1008,
			"type" : "VEC3",
			"min" : [ -0.9995677471160889, -0.9791170954704285, -1 ],
			"max" : [ 0.9999034404754639, 0.9993409514427185, 1 ]
		},
		{
			"bufferView" : 2,
			"byteOffset" : 0,
			"componentType" : 5126,
			"count" : 1008,
			"type" : "VEC3"
		},
		{
			"bufferView" : 3,
			"byteOffset" : 0,
			"componentType" : 5123,
			"count" : 1008,
			"type" : "SCALAR",
			"min" : [ 0 ],
			"max" : [ 1007 ]
		}
	],
	"bufferViews" : [
		{
			"buffer" : 0,
			"byteOffset" : 0,
			"byteLength" : 12096,
			"target" : 34962
		},
		{
			"buffer" : 0,
			"byteOffset" : 12096,
			"byteLength" : 12096,
			"target" : 34962
		},
		{
			"buffer" : 0,
			"byteOffset" : 24192,
			"byteLength" : 12096,
			"target" : 34962
		},
		{
			"buffer" : 0,
			"byteOffset" : 36288,
			"byteLength" : 2016,
			"target" : 34963
		}
	],
	"buffers" : [
		{
			"uri" : "B263302377501063C0.bin",
			"byteLength" : 38304
		}
	]
}
