{
	"asset" : {
		"generator" : "FME 2022.2.4.0",
		"version" : "2.0"
	},
	"materials" : [
		{
			"name" : "default_material",
			"pbrMetallicRoughness" : {
				"baseColorFactor" : [ 1, 1, 1, 1 ],
				"roughnessFactor" : 0.30000000000000004,
				"metallicFactor" : 0.5
			}
		}
	],
	"meshes" : [
		{
			"primitives" : [
				{
					"attributes" : {
						"NORMAL" : 1,
						"POSITION" : 0,
						"COLOR_0" : 2
					},
					"indices" : 3,
					"material" : 0,
					"mode" : 4
				}
			]
		}
	],
	"nodes" : [
		{
			"name" : "B343251524401063C0",
			"matrix" : [ 1, 0, 0, 0, 0, 0, -1, 0, 0, 1, 0, 0, 834324.5625, 74.16000366210938, -815244.3125, 1 ],
			"children" : [ 1 ]
		},
		{
			"mesh" : 0
		}
	],
	"scenes" : [
		{
			"nodes" : [ 0 ]
		}
	],
	"scene" : 0,
	"accessors" : [
		{
			"bufferView" : 0,
			"byteOffset" : 0,
			"componentType" : 5126,
			"count" : 6387,
			"type" : "VEC3",
			"min" : [ -16.6123046875, -9.125, 0 ],
			"max" : [ 16.6123046875, 9.1259765625, 68.68199157714844 ]
		},
		{
			"bufferView" : 1,
			"byteOffset" : 0,
			"componentType" : 5126,
			"count" : 6387,
			"type" : "VEC3",
			"min" : [ -0.9999695420265198, -1, -1 ],
			"max" : [ 0.9997794032096863, 1, 1 ]
		},
		{
			"bufferView" : 2,
			"byteOffset" : 0,
			"componentType" : 5126,
			"count" : 6387,
			"type" : "VEC3"
		},
		{
			"bufferView" : 3,
			"byteOffset" : 0,
			"componentType" : 5123,
			"count" : 6387,
			"type" : "SCALAR",
			"min" : [ 0 ],
			"max" : [ 6386 ]
		}
	],
	"bufferViews" : [
		{
			"buffer" : 0,
			"byteOffset" : 0,
			"byteLength" : 76644,
			"target" : 34962
		},
		{
			"buffer" : 0,
			"byteOffset" : 76644,
			"byteLength" : 76644,
			"target" : 34962
		},
		{
			"buffer" : 0,
			"byteOffset" : 153288,
			"byteLength" : 76644,
			"target" : 34962
		},
		{
			"buffer" : 0,
			"byteOffset" : 229932,
			"byteLength" : 12774,
			"target" : 34963
		}
	],
	"buffers" : [
		{
			"uri" : "B343251524401063C0.bin",
			"byteLength" : 242706
		}
	]
}
