{
	"asset" : {
		"generator" : "FME 2023.2.1.0",
		"version" : "2.0"
	},
	"materials" : [
		{
			"name" : "default_material",
			"pbrMetallicRoughness" : {
				"baseColorFactor" : [ 1, 1, 1, 1 ],
				"roughnessFactor" : 0.30000000000000004,
				"metallicFactor" : 0.5
			}
		}
	],
	"meshes" : [
		{
			"primitives" : [
				{
					"attributes" : {
						"NORMAL" : 1,
						"POSITION" : 0,
						"COLOR_0" : 2
					},
					"indices" : 3,
					"material" : 0,
					"mode" : 4
				}
			]
		}
	],
	"nodes" : [
		{
			"name" : "B357071538401063C0",
			"matrix" : [ 1, 0, 0, 0, 0, 0, -1, 0, 0, 1, 0, 0, 835705.3125, 3.5929999351501465, -815388.875, 1 ],
			"children" : [ 1 ]
		},
		{
			"mesh" : 0
		}
	],
	"scenes" : [
		{
			"nodes" : [ 0 ]
		}
	],
	"scene" : 0,
	"accessors" : [
		{
			"bufferView" : 0,
			"byteOffset" : 0,
			"componentType" : 5126,
			"count" : 999,
			"type" : "VEC3",
			"min" : [ -10.169921875, -9.6240234375, 0 ],
			"max" : [ 10.1689453125, 9.623046875, 55.90200424194336 ]
		},
		{
			"bufferView" : 1,
			"byteOffset" : 0,
			"componentType" : 5126,
			"count" : 999,
			"type" : "VEC3",
			"min" : [ -0.9970045685768127, -0.9973337650299072, -1 ],
			"max" : [ 0.996749997138977, 0.996663510799408, 1 ]
		},
		{
			"bufferView" : 2,
			"byteOffset" : 0,
			"componentType" : 5126,
			"count" : 999,
			"type" : "VEC3"
		},
		{
			"bufferView" : 3,
			"byteOffset" : 0,
			"componentType" : 5123,
			"count" : 999,
			"type" : "SCALAR",
			"min" : [ 0 ],
			"max" : [ 998 ]
		}
	],
	"bufferViews" : [
		{
			"buffer" : 0,
			"byteOffset" : 0,
			"byteLength" : 11988,
			"target" : 34962
		},
		{
			"buffer" : 0,
			"byteOffset" : 11988,
			"byteLength" : 11988,
			"target" : 34962
		},
		{
			"buffer" : 0,
			"byteOffset" : 23976,
			"byteLength" : 11988,
			"target" : 34962
		},
		{
			"buffer" : 0,
			"byteOffset" : 35964,
			"byteLength" : 1998,
			"target" : 34963
		}
	],
	"buffers" : [
		{
			"uri" : "B357071538401063C0.bin",
			"byteLength" : 37962
		}
	]
}
