{
	"asset" : {
		"generator" : "FME 2023.2.1.0",
		"version" : "2.0"
	},
	"materials" : [
		{
			"name" : "default_material",
			"pbrMetallicRoughness" : {
				"baseColorFactor" : [ 1, 1, 1, 1 ],
				"roughnessFactor" : 0.30000000000000004,
				"metallicFactor" : 0.5
			}
		}
	],
	"meshes" : [
		{
			"primitives" : [
				{
					"attributes" : {
						"NORMAL" : 1,
						"POSITION" : 0,
						"COLOR_0" : 2
					},
					"indices" : 3,
					"material" : 0,
					"mode" : 4
				}
			]
		}
	],
	"nodes" : [
		{
			"name" : "B347371510101063C0",
			"matrix" : [ 1, 0, 0, 0, 0, 0, -1, 0, 0, 1, 0, 0, 834732.8125, 93.23100280761719, -815104.125, 1 ],
			"children" : [ 1 ]
		},
		{
			"mesh" : 0
		}
	],
	"scenes" : [
		{
			"nodes" : [ 0 ]
		}
	],
	"scene" : 0,
	"accessors" : [
		{
			"bufferView" : 0,
			"byteOffset" : 0,
			"componentType" : 5126,
			"count" : 192,
			"type" : "VEC3",
			"min" : [ -8.0830078125, -8.9775390625, 0 ],
			"max" : [ 8.0830078125, 8.978515625, 5.947998046875 ]
		},
		{
			"bufferView" : 1,
			"byteOffset" : 0,
			"componentType" : 5126,
			"count" : 192,
			"type" : "VEC3",
			"min" : [ -0.9989991188049316, -0.9988067746162415, -0.007921457290649414 ],
			"max" : [ 0.9934940338134766, 0.9987939596176147, 1 ]
		},
		{
			"bufferView" : 2,
			"byteOffset" : 0,
			"componentType" : 5126,
			"count" : 192,
			"type" : "VEC3"
		},
		{
			"bufferView" : 3,
			"byteOffset" : 0,
			"componentType" : 5121,
			"count" : 192,
			"type" : "SCALAR",
			"min" : [ 0 ],
			"max" : [ 191 ]
		}
	],
	"bufferViews" : [
		{
			"buffer" : 0,
			"byteOffset" : 0,
			"byteLength" : 2304,
			"target" : 34962
		},
		{
			"buffer" : 0,
			"byteOffset" : 2304,
			"byteLength" : 2304,
			"target" : 34962
		},
		{
			"buffer" : 0,
			"byteOffset" : 4608,
			"byteLength" : 2304,
			"target" : 34962
		},
		{
			"buffer" : 0,
			"byteOffset" : 6912,
			"byteLength" : 192,
			"target" : 34963
		}
	],
	"buffers" : [
		{
			"uri" : "B347371510101063C0.bin",
			"byteLength" : 7104
		}
	]
}
