{
	"asset" : {
		"generator" : "FME 2023.1.0.0",
		"version" : "2.0"
	},
	"materials" : [
		{
			"name" : "default_material",
			"pbrMetallicRoughness" : {
				"baseColorFactor" : [ 1, 1, 1, 1 ],
				"roughnessFactor" : 0.30000000000000004,
				"metallicFactor" : 0.5
			}
		}
	],
	"meshes" : [
		{
			"primitives" : [
				{
					"attributes" : {
						"NORMAL" : 1,
						"POSITION" : 0,
						"COLOR_0" : 2
					},
					"indices" : 3,
					"material" : 0,
					"mode" : 4
				}
			]
		}
	],
	"nodes" : [
		{
			"name" : "B340331591001063C0",
			"matrix" : [ 1, 0, 0, 0, 0, 0, -1, 0, 0, 1, 0, 0, 834029.8125, 19.871999740600586, -815906.375, 1 ],
			"children" : [ 1 ]
		},
		{
			"mesh" : 0
		}
	],
	"scenes" : [
		{
			"nodes" : [ 0 ]
		}
	],
	"scene" : 0,
	"accessors" : [
		{
			"bufferView" : 0,
			"byteOffset" : 0,
			"componentType" : 5126,
			"count" : 315,
			"type" : "VEC3",
			"min" : [ -7.2333984375, -6.154296875, 0 ],
			"max" : [ 7.2333984375, 6.154296875, 22.968000411987305 ]
		},
		{
			"bufferView" : 1,
			"byteOffset" : 0,
			"componentType" : 5126,
			"count" : 315,
			"type" : "VEC3",
			"min" : [ -0.8149945139884949, -0.8175184726715088, -1 ],
			"max" : [ 0.8171514272689819, 0.8151159882545471, 1 ]
		},
		{
			"bufferView" : 2,
			"byteOffset" : 0,
			"componentType" : 5126,
			"count" : 315,
			"type" : "VEC3"
		},
		{
			"bufferView" : 3,
			"byteOffset" : 0,
			"componentType" : 5123,
			"count" : 315,
			"type" : "SCALAR",
			"min" : [ 0 ],
			"max" : [ 314 ]
		}
	],
	"bufferViews" : [
		{
			"buffer" : 0,
			"byteOffset" : 0,
			"byteLength" : 3780,
			"target" : 34962
		},
		{
			"buffer" : 0,
			"byteOffset" : 3780,
			"byteLength" : 3780,
			"target" : 34962
		},
		{
			"buffer" : 0,
			"byteOffset" : 7560,
			"byteLength" : 3780,
			"target" : 34962
		},
		{
			"buffer" : 0,
			"byteOffset" : 11340,
			"byteLength" : 630,
			"target" : 34963
		}
	],
	"buffers" : [
		{
			"uri" : "B340331591001063C0.bin",
			"byteLength" : 11970
		}
	]
}
