{
	"asset" : {
		"generator" : "FME 2022.2.4.0",
		"version" : "2.0"
	},
	"materials" : [
		{
			"name" : "default_material",
			"pbrMetallicRoughness" : {
				"baseColorFactor" : [ 1, 1, 1, 1 ],
				"roughnessFactor" : 0.30000000000000004,
				"metallicFactor" : 0.5
			}
		}
	],
	"meshes" : [
		{
			"primitives" : [
				{
					"attributes" : {
						"NORMAL" : 1,
						"POSITION" : 0,
						"COLOR_0" : 2
					},
					"indices" : 3,
					"material" : 0,
					"mode" : 4
				}
			]
		}
	],
	"nodes" : [
		{
			"name" : "B336121607501063C0",
			"matrix" : [ 1, 0, 0, 0, 0, 0, -1, 0, 0, 1, 0, 0, 833592.5625, 29.070999145507812, -816077.875, 1 ],
			"children" : [ 1 ]
		},
		{
			"mesh" : 0
		}
	],
	"scenes" : [
		{
			"nodes" : [ 0 ]
		}
	],
	"scene" : 0,
	"accessors" : [
		{
			"bufferView" : 0,
			"byteOffset" : 0,
			"componentType" : 5126,
			"count" : 3492,
			"type" : "VEC3",
			"min" : [ -32.021484375, -11.45703125, 0 ],
			"max" : [ 32.021484375, 11.45703125, 29.952999114990234 ]
		},
		{
			"bufferView" : 1,
			"byteOffset" : 0,
			"componentType" : 5126,
			"count" : 3492,
			"type" : "VEC3",
			"min" : [ -0.9944048523902893, -0.9997196793556213, -1 ],
			"max" : [ 0.9994250535964966, 0.9999963641166687, 1 ]
		},
		{
			"bufferView" : 2,
			"byteOffset" : 0,
			"componentType" : 5126,
			"count" : 3492,
			"type" : "VEC3"
		},
		{
			"bufferView" : 3,
			"byteOffset" : 0,
			"componentType" : 5123,
			"count" : 3492,
			"type" : "SCALAR",
			"min" : [ 0 ],
			"max" : [ 3491 ]
		}
	],
	"bufferViews" : [
		{
			"buffer" : 0,
			"byteOffset" : 0,
			"byteLength" : 41904,
			"target" : 34962
		},
		{
			"buffer" : 0,
			"byteOffset" : 41904,
			"byteLength" : 41904,
			"target" : 34962
		},
		{
			"buffer" : 0,
			"byteOffset" : 83808,
			"byteLength" : 41904,
			"target" : 34962
		},
		{
			"buffer" : 0,
			"byteOffset" : 125712,
			"byteLength" : 6984,
			"target" : 34963
		}
	],
	"buffers" : [
		{
			"uri" : "B336121607501063C0.bin",
			"byteLength" : 132696
		}
	]
}
