{
	"asset" : {
		"generator" : "FME 2022.2.4.0",
		"version" : "2.0"
	},
	"materials" : [
		{
			"name" : "default_material",
			"pbrMetallicRoughness" : {
				"baseColorFactor" : [ 1, 1, 1, 1 ],
				"roughnessFactor" : 0.30000000000000004,
				"metallicFactor" : 0.5
			}
		}
	],
	"meshes" : [
		{
			"primitives" : [
				{
					"attributes" : {
						"NORMAL" : 1,
						"POSITION" : 0,
						"COLOR_0" : 2
					},
					"indices" : 3,
					"material" : 0,
					"mode" : 4
				}
			]
		}
	],
	"nodes" : [
		{
			"name" : "B354961509601063C0",
			"matrix" : [ 1, 0, 0, 0, 0, 0, -1, 0, 0, 1, 0, 0, 835496.5, 44.53099822998047, -815114.875, 1 ],
			"children" : [ 1 ]
		},
		{
			"mesh" : 0
		}
	],
	"scenes" : [
		{
			"nodes" : [ 0 ]
		}
	],
	"scene" : 0,
	"accessors" : [
		{
			"bufferView" : 0,
			"byteOffset" : 0,
			"componentType" : 5126,
			"count" : 4122,
			"type" : "VEC3",
			"min" : [ -22.220703125, -29.0263671875, 0 ],
			"max" : [ 22.220703125, 29.0263671875, 51.03900146484375 ]
		},
		{
			"bufferView" : 1,
			"byteOffset" : 0,
			"componentType" : 5126,
			"count" : 4122,
			"type" : "VEC3",
			"min" : [ -0.9986749291419983, -0.9961813688278198, -1 ],
			"max" : [ 1, 0.9995988011360168, 1 ]
		},
		{
			"bufferView" : 2,
			"byteOffset" : 0,
			"componentType" : 5126,
			"count" : 4122,
			"type" : "VEC3"
		},
		{
			"bufferView" : 3,
			"byteOffset" : 0,
			"componentType" : 5123,
			"count" : 4122,
			"type" : "SCALAR",
			"min" : [ 0 ],
			"max" : [ 4121 ]
		}
	],
	"bufferViews" : [
		{
			"buffer" : 0,
			"byteOffset" : 0,
			"byteLength" : 49464,
			"target" : 34962
		},
		{
			"buffer" : 0,
			"byteOffset" : 49464,
			"byteLength" : 49464,
			"target" : 34962
		},
		{
			"buffer" : 0,
			"byteOffset" : 98928,
			"byteLength" : 49464,
			"target" : 34962
		},
		{
			"buffer" : 0,
			"byteOffset" : 148392,
			"byteLength" : 8244,
			"target" : 34963
		}
	],
	"buffers" : [
		{
			"uri" : "B354961509601063C0.bin",
			"byteLength" : 156636
		}
	]
}
