{
	"asset" : {
		"generator" : "FME 2023.2.1.0",
		"version" : "2.0"
	},
	"materials" : [
		{
			"name" : "default_material",
			"pbrMetallicRoughness" : {
				"baseColorFactor" : [ 1, 1, 1, 1 ],
				"roughnessFactor" : 0.30000000000000004,
				"metallicFactor" : 0.5
			}
		}
	],
	"meshes" : [
		{
			"primitives" : [
				{
					"attributes" : {
						"NORMAL" : 1,
						"POSITION" : 0,
						"COLOR_0" : 2
					},
					"indices" : 3,
					"material" : 0,
					"mode" : 4
				}
			]
		}
	],
	"nodes" : [
		{
			"name" : "B357391533201063C0",
			"matrix" : [ 1, 0, 0, 0, 0, 0, -1, 0, 0, 1, 0, 0, 835738.9375, 3.9149999618530273, -815335.4375, 1 ],
			"children" : [ 1 ]
		},
		{
			"mesh" : 0
		}
	],
	"scenes" : [
		{
			"nodes" : [ 0 ]
		}
	],
	"scene" : 0,
	"accessors" : [
		{
			"bufferView" : 0,
			"byteOffset" : 0,
			"componentType" : 5126,
			"count" : 267,
			"type" : "VEC3",
			"min" : [ -5.15234375, -8.4794921875, 0 ],
			"max" : [ 5.1533203125, 8.4794921875, 8.07800006866455 ]
		},
		{
			"bufferView" : 1,
			"byteOffset" : 0,
			"componentType" : 5126,
			"count" : 267,
			"type" : "VEC3",
			"min" : [ -0.9939833283424377, -0.9942396879196167, -0.9959222674369812 ],
			"max" : [ 0.994086503982544, 0.993974506855011, 0.9984779953956604 ]
		},
		{
			"bufferView" : 2,
			"byteOffset" : 0,
			"componentType" : 5126,
			"count" : 267,
			"type" : "VEC3"
		},
		{
			"bufferView" : 3,
			"byteOffset" : 0,
			"componentType" : 5123,
			"count" : 267,
			"type" : "SCALAR",
			"min" : [ 0 ],
			"max" : [ 266 ]
		}
	],
	"bufferViews" : [
		{
			"buffer" : 0,
			"byteOffset" : 0,
			"byteLength" : 3204,
			"target" : 34962
		},
		{
			"buffer" : 0,
			"byteOffset" : 3204,
			"byteLength" : 3204,
			"target" : 34962
		},
		{
			"buffer" : 0,
			"byteOffset" : 6408,
			"byteLength" : 3204,
			"target" : 34962
		},
		{
			"buffer" : 0,
			"byteOffset" : 9612,
			"byteLength" : 534,
			"target" : 34963
		}
	],
	"buffers" : [
		{
			"uri" : "B357391533201063C0.bin",
			"byteLength" : 10146
		}
	]
}
