{
	"asset" : {
		"generator" : "FME 2023.2.1.0",
		"version" : "2.0"
	},
	"materials" : [
		{
			"name" : "default_material",
			"pbrMetallicRoughness" : {
				"baseColorFactor" : [ 1, 1, 1, 1 ],
				"roughnessFactor" : 0.30000000000000004,
				"metallicFactor" : 0.5
			}
		}
	],
	"meshes" : [
		{
			"primitives" : [
				{
					"attributes" : {
						"NORMAL" : 1,
						"POSITION" : 0,
						"COLOR_0" : 2
					},
					"indices" : 3,
					"material" : 0,
					"mode" : 4
				}
			]
		}
	],
	"nodes" : [
		{
			"name" : "B337091506301063C0",
			"matrix" : [ 1, 0, 0, 0, 0, 0, -1, 0, 0, 1, 0, 0, 833717.3125, 198.27099609375, -815058.375, 1 ],
			"children" : [ 1 ]
		},
		{
			"mesh" : 0
		}
	],
	"scenes" : [
		{
			"nodes" : [ 0 ]
		}
	],
	"scene" : 0,
	"accessors" : [
		{
			"bufferView" : 0,
			"byteOffset" : 0,
			"componentType" : 5126,
			"count" : 6063,
			"type" : "VEC3",
			"min" : [ -15.2724609375, -14.0224609375, 0 ],
			"max" : [ 15.2724609375, 14.0224609375, 111.95001220703125 ]
		},
		{
			"bufferView" : 1,
			"byteOffset" : 0,
			"componentType" : 5126,
			"count" : 6063,
			"type" : "VEC3",
			"min" : [ -0.9999999403953552, -1, -1 ],
			"max" : [ 0.9999954700469971, 0.9999862909317017, 1 ]
		},
		{
			"bufferView" : 2,
			"byteOffset" : 0,
			"componentType" : 5126,
			"count" : 6063,
			"type" : "VEC3"
		},
		{
			"bufferView" : 3,
			"byteOffset" : 0,
			"componentType" : 5123,
			"count" : 6063,
			"type" : "SCALAR",
			"min" : [ 0 ],
			"max" : [ 6062 ]
		}
	],
	"bufferViews" : [
		{
			"buffer" : 0,
			"byteOffset" : 0,
			"byteLength" : 72756,
			"target" : 34962
		},
		{
			"buffer" : 0,
			"byteOffset" : 72756,
			"byteLength" : 72756,
			"target" : 34962
		},
		{
			"buffer" : 0,
			"byteOffset" : 145512,
			"byteLength" : 72756,
			"target" : 34962
		},
		{
			"buffer" : 0,
			"byteOffset" : 218268,
			"byteLength" : 12126,
			"target" : 34963
		}
	],
	"buffers" : [
		{
			"uri" : "B337091506301063C0.bin",
			"byteLength" : 230394
		}
	]
}
