{
	"asset" : {
		"generator" : "FME 2022.2.4.0",
		"version" : "2.0"
	},
	"materials" : [
		{
			"name" : "default_material",
			"pbrMetallicRoughness" : {
				"baseColorFactor" : [ 1, 1, 1, 1 ],
				"roughnessFactor" : 0.30000000000000004,
				"metallicFactor" : 0.5
			}
		}
	],
	"meshes" : [
		{
			"primitives" : [
				{
					"attributes" : {
						"NORMAL" : 1,
						"POSITION" : 0,
						"COLOR_0" : 2
					},
					"indices" : 3,
					"material" : 0,
					"mode" : 4
				}
			]
		}
	],
	"nodes" : [
		{
			"name" : "B342151516402063C0",
			"matrix" : [ 1, 0, 0, 0, 0, 0, -1, 0, 0, 1, 0, 0, 834215.9375, 86.73100280761719, -815164.125, 1 ],
			"children" : [ 1 ]
		},
		{
			"mesh" : 0
		}
	],
	"scenes" : [
		{
			"nodes" : [ 0 ]
		}
	],
	"scene" : 0,
	"accessors" : [
		{
			"bufferView" : 0,
			"byteOffset" : 0,
			"componentType" : 5126,
			"count" : 159,
			"type" : "VEC3",
			"min" : [ -7.9423828125, -6.40625, 0 ],
			"max" : [ 7.9423828125, 6.4072265625, 14.36199951171875 ]
		},
		{
			"bufferView" : 1,
			"byteOffset" : 0,
			"componentType" : 5126,
			"count" : 159,
			"type" : "VEC3",
			"min" : [ -0.9038264751434326, -0.8720408082008362, -4.9490012315800413e-5 ],
			"max" : [ 0.967042863368988, 0.9866964817047119, 1 ]
		},
		{
			"bufferView" : 2,
			"byteOffset" : 0,
			"componentType" : 5126,
			"count" : 159,
			"type" : "VEC3"
		},
		{
			"bufferView" : 3,
			"byteOffset" : 0,
			"componentType" : 5121,
			"count" : 159,
			"type" : "SCALAR",
			"min" : [ 0 ],
			"max" : [ 158 ]
		}
	],
	"bufferViews" : [
		{
			"buffer" : 0,
			"byteOffset" : 0,
			"byteLength" : 1908,
			"target" : 34962
		},
		{
			"buffer" : 0,
			"byteOffset" : 1908,
			"byteLength" : 1908,
			"target" : 34962
		},
		{
			"buffer" : 0,
			"byteOffset" : 3816,
			"byteLength" : 1908,
			"target" : 34962
		},
		{
			"buffer" : 0,
			"byteOffset" : 5724,
			"byteLength" : 159,
			"target" : 34963
		}
	],
	"buffers" : [
		{
			"uri" : "B342151516402063C0.bin",
			"byteLength" : 5883
		}
	]
}
