{
	"asset" : {
		"generator" : "FME 2023.1.0.0",
		"version" : "2.0"
	},
	"materials" : [
		{
			"name" : "default_material",
			"pbrMetallicRoughness" : {
				"baseColorFactor" : [ 1, 1, 1, 1 ],
				"roughnessFactor" : 0.30000000000000004,
				"metallicFactor" : 0.5
			}
		}
	],
	"meshes" : [
		{
			"primitives" : [
				{
					"attributes" : {
						"NORMAL" : 1,
						"POSITION" : 0,
						"COLOR_0" : 2
					},
					"indices" : 3,
					"material" : 0,
					"mode" : 4
				}
			]
		}
	],
	"nodes" : [
		{
			"name" : "B183491489401062G0",
			"matrix" : [ 1, 0, 0, 0, 0, 0, -1, 0, 0, 1, 0, 0, 818345.75, 4.8871002197265625, -814895.375, 1 ],
			"children" : [ 1 ]
		},
		{
			"mesh" : 0
		}
	],
	"scenes" : [
		{
			"nodes" : [ 0 ]
		}
	],
	"scene" : 0,
	"accessors" : [
		{
			"bufferView" : 0,
			"byteOffset" : 0,
			"componentType" : 5126,
			"count" : 1614,
			"type" : "VEC3",
			"min" : [ -29, -9.8125, 0 ],
			"max" : [ 28.9375, 9.75, 9.036099433898926 ]
		},
		{
			"bufferView" : 1,
			"byteOffset" : 0,
			"componentType" : 5126,
			"count" : 1614,
			"type" : "VEC3",
			"min" : [ -0.9937973618507385, -0.9940884709358215, -1 ],
			"max" : [ 0.9976120591163635, 0.992887556552887, 1 ]
		},
		{
			"bufferView" : 2,
			"byteOffset" : 0,
			"componentType" : 5126,
			"count" : 1614,
			"type" : "VEC3"
		},
		{
			"bufferView" : 3,
			"byteOffset" : 0,
			"componentType" : 5123,
			"count" : 1614,
			"type" : "SCALAR",
			"min" : [ 0 ],
			"max" : [ 1613 ]
		}
	],
	"bufferViews" : [
		{
			"buffer" : 0,
			"byteOffset" : 0,
			"byteLength" : 19368,
			"target" : 34962
		},
		{
			"buffer" : 0,
			"byteOffset" : 19368,
			"byteLength" : 19368,
			"target" : 34962
		},
		{
			"buffer" : 0,
			"byteOffset" : 38736,
			"byteLength" : 19368,
			"target" : 34962
		},
		{
			"buffer" : 0,
			"byteOffset" : 58104,
			"byteLength" : 3228,
			"target" : 34963
		}
	],
	"buffers" : [
		{
			"uri" : "B183491489401062G0.bin",
			"byteLength" : 61332
		}
	]
}
