{
	"asset" : {
		"generator" : "FME 2022.2.4.0",
		"version" : "2.0"
	},
	"materials" : [
		{
			"name" : "default_material",
			"pbrMetallicRoughness" : {
				"baseColorFactor" : [ 1, 1, 1, 1 ],
				"roughnessFactor" : 0.30000000000000004,
				"metallicFactor" : 0.5
			}
		}
	],
	"meshes" : [
		{
			"primitives" : [
				{
					"attributes" : {
						"NORMAL" : 1,
						"POSITION" : 0,
						"COLOR_0" : 2
					},
					"indices" : 3,
					"material" : 0,
					"mode" : 4
				}
			]
		}
	],
	"nodes" : [
		{
			"name" : "B358841524601063C0",
			"matrix" : [ 1, 0, 0, 0, 0, 0, -1, 0, 0, 1, 0, 0, 835882.1875, 3.947999954223633, -815244.625, 1 ],
			"children" : [ 1 ]
		},
		{
			"mesh" : 0
		}
	],
	"scenes" : [
		{
			"nodes" : [ 0 ]
		}
	],
	"scene" : 0,
	"accessors" : [
		{
			"bufferView" : 0,
			"byteOffset" : 0,
			"componentType" : 5126,
			"count" : 309,
			"type" : "VEC3",
			"min" : [ -6.046875, -3.2626953125, 0 ],
			"max" : [ 6.0458984375, 3.2626953125, 20.333999633789062 ]
		},
		{
			"bufferView" : 1,
			"byteOffset" : 0,
			"componentType" : 5126,
			"count" : 309,
			"type" : "VEC3",
			"min" : [ -0.994817852973938, -0.9948142766952515, -1 ],
			"max" : [ 0.9948248863220215, 0.9947962760925293, 1 ]
		},
		{
			"bufferView" : 2,
			"byteOffset" : 0,
			"componentType" : 5126,
			"count" : 309,
			"type" : "VEC3"
		},
		{
			"bufferView" : 3,
			"byteOffset" : 0,
			"componentType" : 5123,
			"count" : 309,
			"type" : "SCALAR",
			"min" : [ 0 ],
			"max" : [ 308 ]
		}
	],
	"bufferViews" : [
		{
			"buffer" : 0,
			"byteOffset" : 0,
			"byteLength" : 3708,
			"target" : 34962
		},
		{
			"buffer" : 0,
			"byteOffset" : 3708,
			"byteLength" : 3708,
			"target" : 34962
		},
		{
			"buffer" : 0,
			"byteOffset" : 7416,
			"byteLength" : 3708,
			"target" : 34962
		},
		{
			"buffer" : 0,
			"byteOffset" : 11124,
			"byteLength" : 618,
			"target" : 34963
		}
	],
	"buffers" : [
		{
			"uri" : "B358841524601063C0.bin",
			"byteLength" : 11742
		}
	]
}
