{
	"asset" : {
		"generator" : "FME 2022.2.4.0",
		"version" : "2.0"
	},
	"materials" : [
		{
			"name" : "default_material",
			"pbrMetallicRoughness" : {
				"baseColorFactor" : [ 1, 1, 1, 1 ],
				"roughnessFactor" : 0.30000000000000004,
				"metallicFactor" : 0.5
			}
		}
	],
	"meshes" : [
		{
			"primitives" : [
				{
					"attributes" : {
						"NORMAL" : 1,
						"POSITION" : 0,
						"COLOR_0" : 2
					},
					"indices" : 3,
					"material" : 0,
					"mode" : 4
				}
			]
		}
	],
	"nodes" : [
		{
			"name" : "B330701523701063C0",
			"matrix" : [ 1, 0, 0, 0, 0, 0, -1, 0, 0, 1, 0, 0, 833069.375, 541.2999877929688, -815238.8125, 1 ],
			"children" : [ 1 ]
		},
		{
			"mesh" : 0
		}
	],
	"scenes" : [
		{
			"nodes" : [ 0 ]
		}
	],
	"scene" : 0,
	"accessors" : [
		{
			"bufferView" : 0,
			"byteOffset" : 0,
			"componentType" : 5126,
			"count" : 120,
			"type" : "VEC3",
			"min" : [ -3.35302734375, -3.1787109375, 0 ],
			"max" : [ 3.41796875, 3.1953125, 4.260009765625 ]
		},
		{
			"bufferView" : 1,
			"byteOffset" : 0,
			"componentType" : 5126,
			"count" : 120,
			"type" : "VEC3",
			"min" : [ -0.980700671672821, -0.9806870222091675, -1 ],
			"max" : [ 0.9818025231361389, 0.9808533191680908, 0.9962751269340515 ]
		},
		{
			"bufferView" : 2,
			"byteOffset" : 0,
			"componentType" : 5126,
			"count" : 120,
			"type" : "VEC3"
		},
		{
			"bufferView" : 3,
			"byteOffset" : 0,
			"componentType" : 5121,
			"count" : 120,
			"type" : "SCALAR",
			"min" : [ 0 ],
			"max" : [ 119 ]
		}
	],
	"bufferViews" : [
		{
			"buffer" : 0,
			"byteOffset" : 0,
			"byteLength" : 1440,
			"target" : 34962
		},
		{
			"buffer" : 0,
			"byteOffset" : 1440,
			"byteLength" : 1440,
			"target" : 34962
		},
		{
			"buffer" : 0,
			"byteOffset" : 2880,
			"byteLength" : 1440,
			"target" : 34962
		},
		{
			"buffer" : 0,
			"byteOffset" : 4320,
			"byteLength" : 120,
			"target" : 34963
		}
	],
	"buffers" : [
		{
			"uri" : "B330701523701063C0.bin",
			"byteLength" : 4440
		}
	]
}
