{
	"asset" : {
		"generator" : "FME 2023.1.0.0",
		"version" : "2.0"
	},
	"materials" : [
		{
			"name" : "default_material",
			"pbrMetallicRoughness" : {
				"baseColorFactor" : [ 1, 1, 1, 1 ],
				"roughnessFactor" : 0.30000000000000004,
				"metallicFactor" : 0.5
			}
		}
	],
	"meshes" : [
		{
			"primitives" : [
				{
					"attributes" : {
						"NORMAL" : 1,
						"POSITION" : 0,
						"COLOR_0" : 2
					},
					"indices" : 3,
					"material" : 0,
					"mode" : 4
				}
			]
		}
	],
	"nodes" : [
		{
			"name" : "B331191617601063C0",
			"matrix" : [ 1, 0, 0, 0, 0, 0, -1, 0, 0, 1, 0, 0, 833122.1875, 39.001007080078125, -816176.375, 1 ],
			"children" : [ 1 ]
		},
		{
			"mesh" : 0
		}
	],
	"scenes" : [
		{
			"nodes" : [ 0 ]
		}
	],
	"scene" : 0,
	"accessors" : [
		{
			"bufferView" : 0,
			"byteOffset" : 0,
			"componentType" : 5126,
			"count" : 1479,
			"type" : "VEC3",
			"min" : [ -14.3955078125, -14.796875, 0 ],
			"max" : [ 14.3955078125, 14.7958984375, 17.23400115966797 ]
		},
		{
			"bufferView" : 1,
			"byteOffset" : 0,
			"componentType" : 5126,
			"count" : 1479,
			"type" : "VEC3",
			"min" : [ -0.9558866620063782, -0.9557790756225586, -1 ],
			"max" : [ 0.9567336440086365, 0.9553521275520325, 1 ]
		},
		{
			"bufferView" : 2,
			"byteOffset" : 0,
			"componentType" : 5126,
			"count" : 1479,
			"type" : "VEC3"
		},
		{
			"bufferView" : 3,
			"byteOffset" : 0,
			"componentType" : 5123,
			"count" : 1479,
			"type" : "SCALAR",
			"min" : [ 0 ],
			"max" : [ 1478 ]
		}
	],
	"bufferViews" : [
		{
			"buffer" : 0,
			"byteOffset" : 0,
			"byteLength" : 17748,
			"target" : 34962
		},
		{
			"buffer" : 0,
			"byteOffset" : 17748,
			"byteLength" : 17748,
			"target" : 34962
		},
		{
			"buffer" : 0,
			"byteOffset" : 35496,
			"byteLength" : 17748,
			"target" : 34962
		},
		{
			"buffer" : 0,
			"byteOffset" : 53244,
			"byteLength" : 2958,
			"target" : 34963
		}
	],
	"buffers" : [
		{
			"uri" : "B331191617601063C0.bin",
			"byteLength" : 56202
		}
	]
}
