{
	"asset" : {
		"generator" : "FME 2023.2.1.0",
		"version" : "2.0"
	},
	"materials" : [
		{
			"name" : "default_material",
			"pbrMetallicRoughness" : {
				"baseColorFactor" : [ 1, 1, 1, 1 ],
				"roughnessFactor" : 0.30000000000000004,
				"metallicFactor" : 0.5
			}
		}
	],
	"meshes" : [
		{
			"primitives" : [
				{
					"attributes" : {
						"NORMAL" : 1,
						"POSITION" : 0,
						"COLOR_0" : 2
					},
					"indices" : 3,
					"material" : 0,
					"mode" : 4
				}
			]
		}
	],
	"nodes" : [
		{
			"name" : "B358551527901063C0",
			"matrix" : [ 1, 0, 0, 0, 0, 0, -1, 0, 0, 1, 0, 0, 835855.0625, 3.944999933242798, -815277.625, 1 ],
			"children" : [ 1 ]
		},
		{
			"mesh" : 0
		}
	],
	"scenes" : [
		{
			"nodes" : [ 0 ]
		}
	],
	"scene" : 0,
	"accessors" : [
		{
			"bufferView" : 0,
			"byteOffset" : 0,
			"componentType" : 5126,
			"count" : 648,
			"type" : "VEC3",
			"min" : [ -3.919921875, -11.24609375, 0 ],
			"max" : [ 3.919921875, 11.24609375, 17.857999801635742 ]
		},
		{
			"bufferView" : 1,
			"byteOffset" : 0,
			"componentType" : 5126,
			"count" : 648,
			"type" : "VEC3",
			"min" : [ -0.996504545211792, -0.995787501335144, -1 ],
			"max" : [ 0.9935052394866943, 0.9957295060157776, 1 ]
		},
		{
			"bufferView" : 2,
			"byteOffset" : 0,
			"componentType" : 5126,
			"count" : 648,
			"type" : "VEC3"
		},
		{
			"bufferView" : 3,
			"byteOffset" : 0,
			"componentType" : 5123,
			"count" : 648,
			"type" : "SCALAR",
			"min" : [ 0 ],
			"max" : [ 647 ]
		}
	],
	"bufferViews" : [
		{
			"buffer" : 0,
			"byteOffset" : 0,
			"byteLength" : 7776,
			"target" : 34962
		},
		{
			"buffer" : 0,
			"byteOffset" : 7776,
			"byteLength" : 7776,
			"target" : 34962
		},
		{
			"buffer" : 0,
			"byteOffset" : 15552,
			"byteLength" : 7776,
			"target" : 34962
		},
		{
			"buffer" : 0,
			"byteOffset" : 23328,
			"byteLength" : 1296,
			"target" : 34963
		}
	],
	"buffers" : [
		{
			"uri" : "B358551527901063C0.bin",
			"byteLength" : 24624
		}
	]
}
