{
	"asset" : {
		"generator" : "FME 2023.1.0.0",
		"version" : "2.0"
	},
	"materials" : [
		{
			"name" : "default_material",
			"pbrMetallicRoughness" : {
				"baseColorFactor" : [ 1, 1, 1, 1 ],
				"roughnessFactor" : 0.30000000000000004,
				"metallicFactor" : 0.5
			}
		}
	],
	"meshes" : [
		{
			"primitives" : [
				{
					"attributes" : {
						"NORMAL" : 1,
						"POSITION" : 0,
						"COLOR_0" : 2
					},
					"indices" : 3,
					"material" : 0,
					"mode" : 4
				}
			]
		}
	],
	"nodes" : [
		{
			"name" : "B334251604001063C0",
			"matrix" : [ 1, 0, 0, 0, 0, 0, -1, 0, 0, 1, 0, 0, 833424.1875, 60.584991455078125, -816038.5, 1 ],
			"children" : [ 1 ]
		},
		{
			"mesh" : 0
		}
	],
	"scenes" : [
		{
			"nodes" : [ 0 ]
		}
	],
	"scene" : 0,
	"accessors" : [
		{
			"bufferView" : 0,
			"byteOffset" : 0,
			"componentType" : 5126,
			"count" : 408,
			"type" : "VEC3",
			"min" : [ -6.0712890625, -6.76171875, 0 ],
			"max" : [ 6.0712890625, 6.76171875, 23.557998657226562 ]
		},
		{
			"bufferView" : 1,
			"byteOffset" : 0,
			"componentType" : 5126,
			"count" : 408,
			"type" : "VEC3",
			"min" : [ -0.7685409784317017, -0.7819486260414124, -0.9654847383499146 ],
			"max" : [ 0.7676582932472229, 0.7993726134300232, 1 ]
		},
		{
			"bufferView" : 2,
			"byteOffset" : 0,
			"componentType" : 5126,
			"count" : 408,
			"type" : "VEC3"
		},
		{
			"bufferView" : 3,
			"byteOffset" : 0,
			"componentType" : 5123,
			"count" : 408,
			"type" : "SCALAR",
			"min" : [ 0 ],
			"max" : [ 407 ]
		}
	],
	"bufferViews" : [
		{
			"buffer" : 0,
			"byteOffset" : 0,
			"byteLength" : 4896,
			"target" : 34962
		},
		{
			"buffer" : 0,
			"byteOffset" : 4896,
			"byteLength" : 4896,
			"target" : 34962
		},
		{
			"buffer" : 0,
			"byteOffset" : 9792,
			"byteLength" : 4896,
			"target" : 34962
		},
		{
			"buffer" : 0,
			"byteOffset" : 14688,
			"byteLength" : 816,
			"target" : 34963
		}
	],
	"buffers" : [
		{
			"uri" : "B334251604001063C0.bin",
			"byteLength" : 15504
		}
	]
}
