{
	"asset" : {
		"generator" : "FME 2023.1.0.0",
		"version" : "2.0"
	},
	"materials" : [
		{
			"name" : "default_material",
			"pbrMetallicRoughness" : {
				"baseColorFactor" : [ 1, 1, 1, 1 ],
				"roughnessFactor" : 0.30000000000000004,
				"metallicFactor" : 0.5
			}
		}
	],
	"meshes" : [
		{
			"primitives" : [
				{
					"attributes" : {
						"NORMAL" : 1,
						"POSITION" : 0,
						"COLOR_0" : 2
					},
					"indices" : 3,
					"material" : 0,
					"mode" : 4
				}
			]
		}
	],
	"nodes" : [
		{
			"name" : "B330531624501063C0",
			"matrix" : [ 1, 0, 0, 0, 0, 0, -1, 0, 0, 1, 0, 0, 833054.75, 55.474998474121094, -816249.1875, 1 ],
			"children" : [ 1 ]
		},
		{
			"mesh" : 0
		}
	],
	"scenes" : [
		{
			"nodes" : [ 0 ]
		}
	],
	"scene" : 0,
	"accessors" : [
		{
			"bufferView" : 0,
			"byteOffset" : 0,
			"componentType" : 5126,
			"count" : 597,
			"type" : "VEC3",
			"min" : [ -5.736328125, -8.2939453125, 0 ],
			"max" : [ 5.73583984375, 8.2939453125, 29.597999572753906 ]
		},
		{
			"bufferView" : 1,
			"byteOffset" : 0,
			"componentType" : 5126,
			"count" : 597,
			"type" : "VEC3",
			"min" : [ -0.9990190267562866, -0.999508261680603, -1 ],
			"max" : [ 0.9980525970458984, 0.9980158805847168, 1 ]
		},
		{
			"bufferView" : 2,
			"byteOffset" : 0,
			"componentType" : 5126,
			"count" : 597,
			"type" : "VEC3"
		},
		{
			"bufferView" : 3,
			"byteOffset" : 0,
			"componentType" : 5123,
			"count" : 597,
			"type" : "SCALAR",
			"min" : [ 0 ],
			"max" : [ 596 ]
		}
	],
	"bufferViews" : [
		{
			"buffer" : 0,
			"byteOffset" : 0,
			"byteLength" : 7164,
			"target" : 34962
		},
		{
			"buffer" : 0,
			"byteOffset" : 7164,
			"byteLength" : 7164,
			"target" : 34962
		},
		{
			"buffer" : 0,
			"byteOffset" : 14328,
			"byteLength" : 7164,
			"target" : 34962
		},
		{
			"buffer" : 0,
			"byteOffset" : 21492,
			"byteLength" : 1194,
			"target" : 34963
		}
	],
	"buffers" : [
		{
			"uri" : "B330531624501063C0.bin",
			"byteLength" : 22686
		}
	]
}
