{
	"asset" : {
		"generator" : "FME 2023.1.0.0",
		"version" : "2.0"
	},
	"materials" : [
		{
			"name" : "default_material",
			"pbrMetallicRoughness" : {
				"baseColorFactor" : [ 1, 1, 1, 1 ],
				"roughnessFactor" : 0.30000000000000004,
				"metallicFactor" : 0.5
			}
		}
	],
	"meshes" : [
		{
			"primitives" : [
				{
					"attributes" : {
						"NORMAL" : 1,
						"POSITION" : 0,
						"COLOR_0" : 2
					},
					"indices" : 3,
					"material" : 0,
					"mode" : 4
				}
			]
		}
	],
	"nodes" : [
		{
			"name" : "B339461563502063C0",
			"matrix" : [ 1, 0, 0, 0, 0, 0, -1, 0, 0, 1, 0, 0, 833947, 60.36199951171875, -815635.1875, 1 ],
			"children" : [ 1 ]
		},
		{
			"mesh" : 0
		}
	],
	"scenes" : [
		{
			"nodes" : [ 0 ]
		}
	],
	"scene" : 0,
	"accessors" : [
		{
			"bufferView" : 0,
			"byteOffset" : 0,
			"componentType" : 5126,
			"count" : 294,
			"type" : "VEC3",
			"min" : [ -6.9873046875, -9.73046875, 0 ],
			"max" : [ 6.986328125, 9.73046875, 11.912002563476562 ]
		},
		{
			"bufferView" : 1,
			"byteOffset" : 0,
			"componentType" : 5126,
			"count" : 294,
			"type" : "VEC3",
			"min" : [ -0.9820814728736877, -1, -1 ],
			"max" : [ 0.995434045791626, 0.9856950640678406, 1 ]
		},
		{
			"bufferView" : 2,
			"byteOffset" : 0,
			"componentType" : 5126,
			"count" : 294,
			"type" : "VEC3"
		},
		{
			"bufferView" : 3,
			"byteOffset" : 0,
			"componentType" : 5123,
			"count" : 294,
			"type" : "SCALAR",
			"min" : [ 0 ],
			"max" : [ 293 ]
		}
	],
	"bufferViews" : [
		{
			"buffer" : 0,
			"byteOffset" : 0,
			"byteLength" : 3528,
			"target" : 34962
		},
		{
			"buffer" : 0,
			"byteOffset" : 3528,
			"byteLength" : 3528,
			"target" : 34962
		},
		{
			"buffer" : 0,
			"byteOffset" : 7056,
			"byteLength" : 3528,
			"target" : 34962
		},
		{
			"buffer" : 0,
			"byteOffset" : 10584,
			"byteLength" : 588,
			"target" : 34963
		}
	],
	"buffers" : [
		{
			"uri" : "B339461563502063C0.bin",
			"byteLength" : 11172
		}
	]
}
