{
	"asset" : {
		"generator" : "FME 2022.2.4.0",
		"version" : "2.0"
	},
	"images" : [
		{
			"uri" : "T22500192000106E11_001.jpg"
		}
	],
	"samplers" : [
		{
			"wrapS" : 10497,
			"wrapT" : 10497,
			"magFilter" : 9729,
			"minFilter" : 9986
		}
	],
	"textures" : [
		{
			"source" : 0,
			"sampler" : 0
		}
	],
	"materials" : [
		{
			"name" : "T22500192000106E11",
			"pbrMetallicRoughness" : {
				"baseColorTexture" : {
					"index" : 0,
					"texCoord" : 0
				},
				"roughnessFactor" : 0.984375,
				"metallicFactor" : 0.5
			}
		}
	],
	"meshes" : [
		{
			"primitives" : [
				{
					"attributes" : {
						"NORMAL" : 1,
						"POSITION" : 0,
						"TEXCOORD_0" : 2
					},
					"indices" : 3,
					"material" : 0,
					"mode" : 4
				}
			]
		}
	],
	"nodes" : [
		{
			"name" : "T22500192000106E11",
			"matrix" : [ 1, 0, 0, 0, 0, 0, -1, 0, 0, 1, 0, 0, 822875, -1.1556453704833984, -819500, 1 ],
			"children" : [ 1 ]
		},
		{
			"mesh" : 0
		}
	],
	"scenes" : [
		{
			"nodes" : [ 0 ]
		}
	],
	"scene" : 0,
	"accessors" : [
		{
			"bufferView" : 0,
			"byteOffset" : 0,
			"componentType" : 5126,
			"count" : 99489,
			"type" : "VEC3",
			"min" : [ -375.041015625, -300, 3.241002559661865e-7 ],
			"max" : [ 375.001953125, 300, 18.44394302368164 ]
		},
		{
			"bufferView" : 1,
			"byteOffset" : 0,
			"componentType" : 5126,
			"count" : 99489,
			"type" : "VEC3",
			"min" : [ -0.8182663321495056, -0.7835421562194824, 0.3083840310573578 ],
			"max" : [ 0.9286813735961914, 0.7122412323951721, 1 ]
		},
		{
			"bufferView" : 2,
			"byteOffset" : 0,
			"componentType" : 5126,
			"count" : 99489,
			"type" : "VEC2",
			"min" : [ 0.00010749697685241699, 0.0001665353775024414 ],
			"max" : [ 0.9998924732208252, 0.9998334646224976 ]
		},
		{
			"bufferView" : 3,
			"byteOffset" : 0,
			"componentType" : 5125,
			"count" : 99489,
			"type" : "SCALAR",
			"min" : [ 0 ],
			"max" : [ 99488 ]
		}
	],
	"bufferViews" : [
		{
			"buffer" : 0,
			"byteOffset" : 0,
			"byteLength" : 1193868,
			"target" : 34962
		},
		{
			"buffer" : 0,
			"byteOffset" : 1193868,
			"byteLength" : 1193868,
			"target" : 34962
		},
		{
			"buffer" : 0,
			"byteOffset" : 2387736,
			"byteLength" : 795912,
			"target" : 34962
		},
		{
			"buffer" : 0,
			"byteOffset" : 3183648,
			"byteLength" : 397956,
			"target" : 34963
		}
	],
	"buffers" : [
		{
			"uri" : "T22500192000106E11.bin",
			"byteLength" : 3581604
		}
	]
}
