{
	"asset" : {
		"generator" : "FME 2022.2.4.0",
		"version" : "2.0"
	},
	"materials" : [
		{
			"name" : "default_material",
			"pbrMetallicRoughness" : {
				"baseColorFactor" : [ 1, 1, 1, 1 ],
				"roughnessFactor" : 0.30000000000000004,
				"metallicFactor" : 0.5
			}
		}
	],
	"meshes" : [
		{
			"primitives" : [
				{
					"attributes" : {
						"NORMAL" : 1,
						"POSITION" : 0,
						"COLOR_0" : 2
					},
					"indices" : 3,
					"material" : 0,
					"mode" : 4
				}
			]
		}
	],
	"nodes" : [
		{
			"name" : "B359371537101063C0",
			"matrix" : [ 1, 0, 0, 0, 0, 0, -1, 0, 0, 1, 0, 0, 835939.5, 3.846000909805298, -815374.5625, 1 ],
			"children" : [ 1 ]
		},
		{
			"mesh" : 0
		}
	],
	"scenes" : [
		{
			"nodes" : [ 0 ]
		}
	],
	"scene" : 0,
	"accessors" : [
		{
			"bufferView" : 0,
			"byteOffset" : 0,
			"componentType" : 5126,
			"count" : 963,
			"type" : "VEC3",
			"min" : [ -12.837890625, -8.07421875, 0 ],
			"max" : [ 12.8388671875, 8.07421875, 26.88800048828125 ]
		},
		{
			"bufferView" : 1,
			"byteOffset" : 0,
			"componentType" : 5126,
			"count" : 963,
			"type" : "VEC3",
			"min" : [ -0.9975253939628601, -0.9975528120994568, -1 ],
			"max" : [ 0.9975519180297852, 0.9957569241523743, 1 ]
		},
		{
			"bufferView" : 2,
			"byteOffset" : 0,
			"componentType" : 5126,
			"count" : 963,
			"type" : "VEC3"
		},
		{
			"bufferView" : 3,
			"byteOffset" : 0,
			"componentType" : 5123,
			"count" : 963,
			"type" : "SCALAR",
			"min" : [ 0 ],
			"max" : [ 962 ]
		}
	],
	"bufferViews" : [
		{
			"buffer" : 0,
			"byteOffset" : 0,
			"byteLength" : 11556,
			"target" : 34962
		},
		{
			"buffer" : 0,
			"byteOffset" : 11556,
			"byteLength" : 11556,
			"target" : 34962
		},
		{
			"buffer" : 0,
			"byteOffset" : 23112,
			"byteLength" : 11556,
			"target" : 34962
		},
		{
			"buffer" : 0,
			"byteOffset" : 34668,
			"byteLength" : 1926,
			"target" : 34963
		}
	],
	"buffers" : [
		{
			"uri" : "B359371537101063C0.bin",
			"byteLength" : 36594
		}
	]
}
