{
	"asset" : {
		"generator" : "FME 2023.1.0.0",
		"version" : "2.0"
	},
	"materials" : [
		{
			"name" : "default_material",
			"pbrMetallicRoughness" : {
				"baseColorFactor" : [ 1, 1, 1, 1 ],
				"roughnessFactor" : 0.30000000000000004,
				"metallicFactor" : 0.5
			}
		}
	],
	"meshes" : [
		{
			"primitives" : [
				{
					"attributes" : {
						"NORMAL" : 1,
						"POSITION" : 0,
						"COLOR_0" : 2
					},
					"indices" : 3,
					"material" : 0,
					"mode" : 4
				}
			]
		}
	],
	"nodes" : [
		{
			"name" : "B352071510601063C0",
			"matrix" : [ 1, 0, 0, 0, 0, 0, -1, 0, 0, 1, 0, 0, 835207.375, 97.41600036621094, -815106.375, 1 ],
			"children" : [ 1 ]
		},
		{
			"mesh" : 0
		}
	],
	"scenes" : [
		{
			"nodes" : [ 0 ]
		}
	],
	"scene" : 0,
	"accessors" : [
		{
			"bufferView" : 0,
			"byteOffset" : 0,
			"componentType" : 5126,
			"count" : 174,
			"type" : "VEC3",
			"min" : [ -4.587890625, -4.40234375, 0 ],
			"max" : [ 4.587890625, 4.40234375, 3.1050033569335938 ]
		},
		{
			"bufferView" : 1,
			"byteOffset" : 0,
			"componentType" : 5126,
			"count" : 174,
			"type" : "VEC3",
			"min" : [ -0.7737417817115784, -0.7735158801078796, -0.9907993078231812 ],
			"max" : [ 0.7724229693412781, 0.7728801369667053, 1 ]
		},
		{
			"bufferView" : 2,
			"byteOffset" : 0,
			"componentType" : 5126,
			"count" : 174,
			"type" : "VEC3"
		},
		{
			"bufferView" : 3,
			"byteOffset" : 0,
			"componentType" : 5121,
			"count" : 174,
			"type" : "SCALAR",
			"min" : [ 0 ],
			"max" : [ 173 ]
		}
	],
	"bufferViews" : [
		{
			"buffer" : 0,
			"byteOffset" : 0,
			"byteLength" : 2088,
			"target" : 34962
		},
		{
			"buffer" : 0,
			"byteOffset" : 2088,
			"byteLength" : 2088,
			"target" : 34962
		},
		{
			"buffer" : 0,
			"byteOffset" : 4176,
			"byteLength" : 2088,
			"target" : 34962
		},
		{
			"buffer" : 0,
			"byteOffset" : 6264,
			"byteLength" : 174,
			"target" : 34963
		}
	],
	"buffers" : [
		{
			"uri" : "B352071510601063C0.bin",
			"byteLength" : 6438
		}
	]
}
