{
	"asset" : {
		"generator" : "FME 2023.2.1.0",
		"version" : "2.0"
	},
	"materials" : [
		{
			"name" : "default_material",
			"pbrMetallicRoughness" : {
				"baseColorFactor" : [ 1, 1, 1, 1 ],
				"roughnessFactor" : 0.30000000000000004,
				"metallicFactor" : 0.5
			}
		}
	],
	"meshes" : [
		{
			"primitives" : [
				{
					"attributes" : {
						"NORMAL" : 1,
						"POSITION" : 0,
						"COLOR_0" : 2
					},
					"indices" : 3,
					"material" : 0,
					"mode" : 4
				}
			]
		}
	],
	"nodes" : [
		{
			"name" : "B337741598601063C0",
			"matrix" : [ 1, 0, 0, 0, 0, 0, -1, 0, 0, 1, 0, 0, 833769.5, 35.54999923706055, -815994.25, 1 ],
			"children" : [ 1 ]
		},
		{
			"mesh" : 0
		}
	],
	"scenes" : [
		{
			"nodes" : [ 0 ]
		}
	],
	"scene" : 0,
	"accessors" : [
		{
			"bufferView" : 0,
			"byteOffset" : 0,
			"componentType" : 5126,
			"count" : 831,
			"type" : "VEC3",
			"min" : [ -7.6083984375, -10.19921875, 0 ],
			"max" : [ 7.669921875, 10.1923828125, 26.757999420166016 ]
		},
		{
			"bufferView" : 1,
			"byteOffset" : 0,
			"componentType" : 5126,
			"count" : 831,
			"type" : "VEC3",
			"min" : [ -0.8893564343452454, -0.7808688282966614, -1 ],
			"max" : [ 0.8903928399085999, 0.8040222525596619, 1 ]
		},
		{
			"bufferView" : 2,
			"byteOffset" : 0,
			"componentType" : 5126,
			"count" : 831,
			"type" : "VEC3"
		},
		{
			"bufferView" : 3,
			"byteOffset" : 0,
			"componentType" : 5123,
			"count" : 831,
			"type" : "SCALAR",
			"min" : [ 0 ],
			"max" : [ 830 ]
		}
	],
	"bufferViews" : [
		{
			"buffer" : 0,
			"byteOffset" : 0,
			"byteLength" : 9972,
			"target" : 34962
		},
		{
			"buffer" : 0,
			"byteOffset" : 9972,
			"byteLength" : 9972,
			"target" : 34962
		},
		{
			"buffer" : 0,
			"byteOffset" : 19944,
			"byteLength" : 9972,
			"target" : 34962
		},
		{
			"buffer" : 0,
			"byteOffset" : 29916,
			"byteLength" : 1662,
			"target" : 34963
		}
	],
	"buffers" : [
		{
			"uri" : "B337741598601063C0.bin",
			"byteLength" : 31578
		}
	]
}
