{
	"asset" : {
		"generator" : "FME 2022.2.4.0",
		"version" : "2.0"
	},
	"materials" : [
		{
			"name" : "default_material",
			"pbrMetallicRoughness" : {
				"baseColorFactor" : [ 1, 1, 1, 1 ],
				"roughnessFactor" : 0.30000000000000004,
				"metallicFactor" : 0.5
			}
		}
	],
	"meshes" : [
		{
			"primitives" : [
				{
					"attributes" : {
						"NORMAL" : 1,
						"POSITION" : 0,
						"COLOR_0" : 2
					},
					"indices" : 3,
					"material" : 0,
					"mode" : 4
				}
			]
		}
	],
	"nodes" : [
		{
			"name" : "B358691563901063C0",
			"matrix" : [ 1, 0, 0, 0, 0, 0, -1, 0, 0, 1, 0, 0, 835866.25, 3.869999885559082, -815657.4375, 1 ],
			"children" : [ 1 ]
		},
		{
			"mesh" : 0
		}
	],
	"scenes" : [
		{
			"nodes" : [ 0 ]
		}
	],
	"scene" : 0,
	"accessors" : [
		{
			"bufferView" : 0,
			"byteOffset" : 0,
			"componentType" : 5126,
			"count" : 3927,
			"type" : "VEC3",
			"min" : [ -28.08203125, -24.806640625, 0 ],
			"max" : [ 28.08203125, 24.806640625, 192.6199951171875 ]
		},
		{
			"bufferView" : 1,
			"byteOffset" : 0,
			"componentType" : 5126,
			"count" : 3927,
			"type" : "VEC3",
			"min" : [ -0.9980243444442749, -0.9994640946388245, -1 ],
			"max" : [ 0.9975096583366394, 1, 1 ]
		},
		{
			"bufferView" : 2,
			"byteOffset" : 0,
			"componentType" : 5126,
			"count" : 3927,
			"type" : "VEC3"
		},
		{
			"bufferView" : 3,
			"byteOffset" : 0,
			"componentType" : 5123,
			"count" : 3927,
			"type" : "SCALAR",
			"min" : [ 0 ],
			"max" : [ 3926 ]
		}
	],
	"bufferViews" : [
		{
			"buffer" : 0,
			"byteOffset" : 0,
			"byteLength" : 47124,
			"target" : 34962
		},
		{
			"buffer" : 0,
			"byteOffset" : 47124,
			"byteLength" : 47124,
			"target" : 34962
		},
		{
			"buffer" : 0,
			"byteOffset" : 94248,
			"byteLength" : 47124,
			"target" : 34962
		},
		{
			"buffer" : 0,
			"byteOffset" : 141372,
			"byteLength" : 7854,
			"target" : 34963
		}
	],
	"buffers" : [
		{
			"uri" : "B358691563901063C0.bin",
			"byteLength" : 149226
		}
	]
}
