{
	"asset" : {
		"generator" : "FME 2022.2.4.0",
		"version" : "2.0"
	},
	"materials" : [
		{
			"name" : "default_material",
			"pbrMetallicRoughness" : {
				"baseColorFactor" : [ 1, 1, 1, 1 ],
				"roughnessFactor" : 0.30000000000000004,
				"metallicFactor" : 0.5
			}
		}
	],
	"meshes" : [
		{
			"primitives" : [
				{
					"attributes" : {
						"NORMAL" : 1,
						"POSITION" : 0,
						"COLOR_0" : 2
					},
					"indices" : 3,
					"material" : 0,
					"mode" : 4
				}
			]
		}
	],
	"nodes" : [
		{
			"name" : "B338931618801063C0",
			"matrix" : [ 1, 0, 0, 0, 0, 0, -1, 0, 0, 1, 0, 0, 833897.75, 6.040999889373779, -816190.5625, 1 ],
			"children" : [ 1 ]
		},
		{
			"mesh" : 0
		}
	],
	"scenes" : [
		{
			"nodes" : [ 0 ]
		}
	],
	"scene" : 0,
	"accessors" : [
		{
			"bufferView" : 0,
			"byteOffset" : 0,
			"componentType" : 5126,
			"count" : 957,
			"type" : "VEC3",
			"min" : [ -9.40234375, -10.3603515625, 0 ],
			"max" : [ 9.4033203125, 10.3603515625, 48.354000091552734 ]
		},
		{
			"bufferView" : 1,
			"byteOffset" : 0,
			"componentType" : 5126,
			"count" : 957,
			"type" : "VEC3",
			"min" : [ -0.8113871216773987, -0.8037813901901245, -1 ],
			"max" : [ 0.8114926218986511, 0.8037813901901245, 1 ]
		},
		{
			"bufferView" : 2,
			"byteOffset" : 0,
			"componentType" : 5126,
			"count" : 957,
			"type" : "VEC3"
		},
		{
			"bufferView" : 3,
			"byteOffset" : 0,
			"componentType" : 5123,
			"count" : 957,
			"type" : "SCALAR",
			"min" : [ 0 ],
			"max" : [ 956 ]
		}
	],
	"bufferViews" : [
		{
			"buffer" : 0,
			"byteOffset" : 0,
			"byteLength" : 11484,
			"target" : 34962
		},
		{
			"buffer" : 0,
			"byteOffset" : 11484,
			"byteLength" : 11484,
			"target" : 34962
		},
		{
			"buffer" : 0,
			"byteOffset" : 22968,
			"byteLength" : 11484,
			"target" : 34962
		},
		{
			"buffer" : 0,
			"byteOffset" : 34452,
			"byteLength" : 1914,
			"target" : 34963
		}
	],
	"buffers" : [
		{
			"uri" : "B338931618801063C0.bin",
			"byteLength" : 36366
		}
	]
}
