{
	"asset" : {
		"generator" : "FME 2023.1.0.0",
		"version" : "2.0"
	},
	"materials" : [
		{
			"name" : "default_material",
			"pbrMetallicRoughness" : {
				"baseColorFactor" : [ 1, 1, 1, 1 ],
				"roughnessFactor" : 0.30000000000000004,
				"metallicFactor" : 0.5
			}
		}
	],
	"meshes" : [
		{
			"primitives" : [
				{
					"attributes" : {
						"NORMAL" : 1,
						"POSITION" : 0,
						"COLOR_0" : 2
					},
					"indices" : 3,
					"material" : 0,
					"mode" : 4
				}
			]
		}
	],
	"nodes" : [
		{
			"name" : "B337781625101063C0",
			"matrix" : [ 1, 0, 0, 0, 0, 0, -1, 0, 0, 1, 0, 0, 833767.875, 3.9579999446868896, -816242.8125, 1 ],
			"children" : [ 1 ]
		},
		{
			"mesh" : 0
		}
	],
	"scenes" : [
		{
			"nodes" : [ 0 ]
		}
	],
	"scene" : 0,
	"accessors" : [
		{
			"bufferView" : 0,
			"byteOffset" : 0,
			"componentType" : 5126,
			"count" : 6069,
			"type" : "VEC3",
			"min" : [ -23.0947265625, -15.7783203125, 0 ],
			"max" : [ 23.095703125, 15.77734375, 34.437957763671875 ]
		},
		{
			"bufferView" : 1,
			"byteOffset" : 0,
			"componentType" : 5126,
			"count" : 6069,
			"type" : "VEC3",
			"min" : [ -0.9938507676124573, -0.9636020660400391, -1 ],
			"max" : [ 0.9994304180145264, 1, 1 ]
		},
		{
			"bufferView" : 2,
			"byteOffset" : 0,
			"componentType" : 5126,
			"count" : 6069,
			"type" : "VEC3"
		},
		{
			"bufferView" : 3,
			"byteOffset" : 0,
			"componentType" : 5123,
			"count" : 6069,
			"type" : "SCALAR",
			"min" : [ 0 ],
			"max" : [ 6068 ]
		}
	],
	"bufferViews" : [
		{
			"buffer" : 0,
			"byteOffset" : 0,
			"byteLength" : 72828,
			"target" : 34962
		},
		{
			"buffer" : 0,
			"byteOffset" : 72828,
			"byteLength" : 72828,
			"target" : 34962
		},
		{
			"buffer" : 0,
			"byteOffset" : 145656,
			"byteLength" : 72828,
			"target" : 34962
		},
		{
			"buffer" : 0,
			"byteOffset" : 218484,
			"byteLength" : 12138,
			"target" : 34963
		}
	],
	"buffers" : [
		{
			"uri" : "B337781625101063C0.bin",
			"byteLength" : 230622
		}
	]
}
