{
	"asset" : {
		"generator" : "FME 2022.2.4.0",
		"version" : "2.0"
	},
	"materials" : [
		{
			"name" : "default_material",
			"pbrMetallicRoughness" : {
				"baseColorFactor" : [ 1, 1, 1, 1 ],
				"roughnessFactor" : 0.30000000000000004,
				"metallicFactor" : 0.5
			}
		}
	],
	"meshes" : [
		{
			"primitives" : [
				{
					"attributes" : {
						"NORMAL" : 1,
						"POSITION" : 0,
						"COLOR_0" : 2
					},
					"indices" : 3,
					"material" : 0,
					"mode" : 4
				}
			]
		}
	],
	"nodes" : [
		{
			"name" : "B340481568301063C0",
			"matrix" : [ 1, 0, 0, 0, 0, 0, -1, 0, 0, 1, 0, 0, 834044.625, 33.62900161743164, -815670.3125, 1 ],
			"children" : [ 1 ]
		},
		{
			"mesh" : 0
		}
	],
	"scenes" : [
		{
			"nodes" : [ 0 ]
		}
	],
	"scene" : 0,
	"accessors" : [
		{
			"bufferView" : 0,
			"byteOffset" : 0,
			"componentType" : 5126,
			"count" : 885,
			"type" : "VEC3",
			"min" : [ -12.9345703125, -16.8291015625, 0 ],
			"max" : [ 12.935546875, 16.8291015625, 41.42300033569336 ]
		},
		{
			"bufferView" : 1,
			"byteOffset" : 0,
			"componentType" : 5126,
			"count" : 885,
			"type" : "VEC3",
			"min" : [ -0.8432453870773315, -0.7903150916099548, -1 ],
			"max" : [ 0.9356078505516052, 0.9859626889228821, 1 ]
		},
		{
			"bufferView" : 2,
			"byteOffset" : 0,
			"componentType" : 5126,
			"count" : 885,
			"type" : "VEC3"
		},
		{
			"bufferView" : 3,
			"byteOffset" : 0,
			"componentType" : 5123,
			"count" : 885,
			"type" : "SCALAR",
			"min" : [ 0 ],
			"max" : [ 884 ]
		}
	],
	"bufferViews" : [
		{
			"buffer" : 0,
			"byteOffset" : 0,
			"byteLength" : 10620,
			"target" : 34962
		},
		{
			"buffer" : 0,
			"byteOffset" : 10620,
			"byteLength" : 10620,
			"target" : 34962
		},
		{
			"buffer" : 0,
			"byteOffset" : 21240,
			"byteLength" : 10620,
			"target" : 34962
		},
		{
			"buffer" : 0,
			"byteOffset" : 31860,
			"byteLength" : 1770,
			"target" : 34963
		}
	],
	"buffers" : [
		{
			"uri" : "B340481568301063C0.bin",
			"byteLength" : 33630
		}
	]
}
