{
	"asset" : {
		"generator" : "FME 2022.2.4.0",
		"version" : "2.0"
	},
	"materials" : [
		{
			"name" : "default_material",
			"pbrMetallicRoughness" : {
				"baseColorFactor" : [ 1, 1, 1, 1 ],
				"roughnessFactor" : 0.30000000000000004,
				"metallicFactor" : 0.5
			}
		}
	],
	"meshes" : [
		{
			"primitives" : [
				{
					"attributes" : {
						"NORMAL" : 1,
						"POSITION" : 0,
						"COLOR_0" : 2
					},
					"indices" : 3,
					"material" : 0,
					"mode" : 4
				}
			]
		}
	],
	"nodes" : [
		{
			"name" : "B334311654201063C0",
			"matrix" : [ 1, 0, 0, 0, 0, 0, -1, 0, 0, 1, 0, 0, 833432.25, 2.899994373321533, -816529.125, 1 ],
			"children" : [ 1 ]
		},
		{
			"mesh" : 0
		}
	],
	"scenes" : [
		{
			"nodes" : [ 0 ]
		}
	],
	"scene" : 0,
	"accessors" : [
		{
			"bufferView" : 0,
			"byteOffset" : 0,
			"componentType" : 5126,
			"count" : 4572,
			"type" : "VEC3",
			"min" : [ -8.626953125, -16.759765625, 0 ],
			"max" : [ 8.6259765625, 16.7607421875, 55.75800323486328 ]
		},
		{
			"bufferView" : 1,
			"byteOffset" : 0,
			"componentType" : 5126,
			"count" : 4572,
			"type" : "VEC3",
			"min" : [ -0.96625816822052, -0.9796026945114136, -1 ],
			"max" : [ 0.9670186638832092, 0.9667367935180664, 1 ]
		},
		{
			"bufferView" : 2,
			"byteOffset" : 0,
			"componentType" : 5126,
			"count" : 4572,
			"type" : "VEC3"
		},
		{
			"bufferView" : 3,
			"byteOffset" : 0,
			"componentType" : 5123,
			"count" : 4572,
			"type" : "SCALAR",
			"min" : [ 0 ],
			"max" : [ 4571 ]
		}
	],
	"bufferViews" : [
		{
			"buffer" : 0,
			"byteOffset" : 0,
			"byteLength" : 54864,
			"target" : 34962
		},
		{
			"buffer" : 0,
			"byteOffset" : 54864,
			"byteLength" : 54864,
			"target" : 34962
		},
		{
			"buffer" : 0,
			"byteOffset" : 109728,
			"byteLength" : 54864,
			"target" : 34962
		},
		{
			"buffer" : 0,
			"byteOffset" : 164592,
			"byteLength" : 9144,
			"target" : 34963
		}
	],
	"buffers" : [
		{
			"uri" : "B334311654201063C0.bin",
			"byteLength" : 173736
		}
	]
}
