{
	"asset" : {
		"generator" : "FME 2023.1.0.0",
		"version" : "2.0"
	},
	"materials" : [
		{
			"name" : "default_material",
			"pbrMetallicRoughness" : {
				"baseColorFactor" : [ 1, 1, 1, 1 ],
				"roughnessFactor" : 0.30000000000000004,
				"metallicFactor" : 0.5
			}
		}
	],
	"meshes" : [
		{
			"primitives" : [
				{
					"attributes" : {
						"NORMAL" : 1,
						"POSITION" : 0,
						"COLOR_0" : 2
					},
					"indices" : 3,
					"material" : 0,
					"mode" : 4
				}
			]
		}
	],
	"nodes" : [
		{
			"name" : "B339351519701063C0",
			"matrix" : [ 1, 0, 0, 0, 0, 0, -1, 0, 0, 1, 0, 0, 833928.75, 134.97300720214844, -815199.25, 1 ],
			"children" : [ 1 ]
		},
		{
			"mesh" : 0
		}
	],
	"scenes" : [
		{
			"nodes" : [ 0 ]
		}
	],
	"scene" : 0,
	"accessors" : [
		{
			"bufferView" : 0,
			"byteOffset" : 0,
			"componentType" : 5126,
			"count" : 32010,
			"type" : "VEC3",
			"min" : [ -15.49609375, -18.173828125, 0 ],
			"max" : [ 15.49609375, 18.1748046875, 117.5469970703125 ]
		},
		{
			"bufferView" : 1,
			"byteOffset" : 0,
			"componentType" : 5126,
			"count" : 32010,
			"type" : "VEC3",
			"min" : [ -0.995107889175415, -0.9995107650756836, -1 ],
			"max" : [ 0.9971460103988647, 0.9990838170051575, 1 ]
		},
		{
			"bufferView" : 2,
			"byteOffset" : 0,
			"componentType" : 5126,
			"count" : 32010,
			"type" : "VEC3"
		},
		{
			"bufferView" : 3,
			"byteOffset" : 0,
			"componentType" : 5123,
			"count" : 32010,
			"type" : "SCALAR",
			"min" : [ 0 ],
			"max" : [ 32009 ]
		}
	],
	"bufferViews" : [
		{
			"buffer" : 0,
			"byteOffset" : 0,
			"byteLength" : 384120,
			"target" : 34962
		},
		{
			"buffer" : 0,
			"byteOffset" : 384120,
			"byteLength" : 384120,
			"target" : 34962
		},
		{
			"buffer" : 0,
			"byteOffset" : 768240,
			"byteLength" : 384120,
			"target" : 34962
		},
		{
			"buffer" : 0,
			"byteOffset" : 1152360,
			"byteLength" : 64020,
			"target" : 34963
		}
	],
	"buffers" : [
		{
			"uri" : "B339351519701063C0.bin",
			"byteLength" : 1216380
		}
	]
}
