{
	"asset" : {
		"generator" : "FME 2023.1.0.0",
		"version" : "2.0"
	},
	"materials" : [
		{
			"name" : "default_material",
			"pbrMetallicRoughness" : {
				"baseColorFactor" : [ 1, 1, 1, 1 ],
				"roughnessFactor" : 0.30000000000000004,
				"metallicFactor" : 0.5
			}
		}
	],
	"meshes" : [
		{
			"primitives" : [
				{
					"attributes" : {
						"NORMAL" : 1,
						"POSITION" : 0,
						"COLOR_0" : 2
					},
					"indices" : 3,
					"material" : 0,
					"mode" : 4
				}
			]
		}
	],
	"nodes" : [
		{
			"name" : "B330551650302063C0",
			"matrix" : [ 1, 0, 0, 0, 0, 0, -1, 0, 0, 1, 0, 0, 833052.4375, 3.565000057220459, -816501.625, 1 ],
			"children" : [ 1 ]
		},
		{
			"mesh" : 0
		}
	],
	"scenes" : [
		{
			"nodes" : [ 0 ]
		}
	],
	"scene" : 0,
	"accessors" : [
		{
			"bufferView" : 0,
			"byteOffset" : 0,
			"componentType" : 5126,
			"count" : 621,
			"type" : "VEC3",
			"min" : [ -10.76513671875, -8.05078125, 0 ],
			"max" : [ 10.7646484375, 8.0498046875, 15.58599853515625 ]
		},
		{
			"bufferView" : 1,
			"byteOffset" : 0,
			"componentType" : 5126,
			"count" : 621,
			"type" : "VEC3",
			"min" : [ -0.9955610632896423, -0.9963476061820984, -1 ],
			"max" : [ 0.9993849992752075, 0.9963598251342773, 1 ]
		},
		{
			"bufferView" : 2,
			"byteOffset" : 0,
			"componentType" : 5126,
			"count" : 621,
			"type" : "VEC3"
		},
		{
			"bufferView" : 3,
			"byteOffset" : 0,
			"componentType" : 5123,
			"count" : 621,
			"type" : "SCALAR",
			"min" : [ 0 ],
			"max" : [ 620 ]
		}
	],
	"bufferViews" : [
		{
			"buffer" : 0,
			"byteOffset" : 0,
			"byteLength" : 7452,
			"target" : 34962
		},
		{
			"buffer" : 0,
			"byteOffset" : 7452,
			"byteLength" : 7452,
			"target" : 34962
		},
		{
			"buffer" : 0,
			"byteOffset" : 14904,
			"byteLength" : 7452,
			"target" : 34962
		},
		{
			"buffer" : 0,
			"byteOffset" : 22356,
			"byteLength" : 1242,
			"target" : 34963
		}
	],
	"buffers" : [
		{
			"uri" : "B330551650302063C0.bin",
			"byteLength" : 23598
		}
	]
}
