{
	"asset" : {
		"generator" : "FME 2023.2.1.0",
		"version" : "2.0"
	},
	"materials" : [
		{
			"name" : "default_material",
			"pbrMetallicRoughness" : {
				"baseColorFactor" : [ 1, 1, 1, 1 ],
				"roughnessFactor" : 0.30000000000000004,
				"metallicFactor" : 0.5
			}
		}
	],
	"meshes" : [
		{
			"primitives" : [
				{
					"attributes" : {
						"NORMAL" : 1,
						"POSITION" : 0,
						"COLOR_0" : 2
					},
					"indices" : 3,
					"material" : 0,
					"mode" : 4
				}
			]
		}
	],
	"nodes" : [
		{
			"name" : "B337151574001063C0",
			"matrix" : [ 1, 0, 0, 0, 0, 0, -1, 0, 0, 1, 0, 0, 833714.3125, 79.64099884033203, -815740.375, 1 ],
			"children" : [ 1 ]
		},
		{
			"mesh" : 0
		}
	],
	"scenes" : [
		{
			"nodes" : [ 0 ]
		}
	],
	"scene" : 0,
	"accessors" : [
		{
			"bufferView" : 0,
			"byteOffset" : 0,
			"componentType" : 5126,
			"count" : 5565,
			"type" : "VEC3",
			"min" : [ -14.1728515625, -12.634765625, 0 ],
			"max" : [ 14.173828125, 12.634765625, 115.65399932861328 ]
		},
		{
			"bufferView" : 1,
			"byteOffset" : 0,
			"componentType" : 5126,
			"count" : 5565,
			"type" : "VEC3",
			"min" : [ -1, -0.9137661457061768, -1 ],
			"max" : [ 0.9489683508872986, 0.9917169809341431, 1 ]
		},
		{
			"bufferView" : 2,
			"byteOffset" : 0,
			"componentType" : 5126,
			"count" : 5565,
			"type" : "VEC3"
		},
		{
			"bufferView" : 3,
			"byteOffset" : 0,
			"componentType" : 5123,
			"count" : 5565,
			"type" : "SCALAR",
			"min" : [ 0 ],
			"max" : [ 5564 ]
		}
	],
	"bufferViews" : [
		{
			"buffer" : 0,
			"byteOffset" : 0,
			"byteLength" : 66780,
			"target" : 34962
		},
		{
			"buffer" : 0,
			"byteOffset" : 66780,
			"byteLength" : 66780,
			"target" : 34962
		},
		{
			"buffer" : 0,
			"byteOffset" : 133560,
			"byteLength" : 66780,
			"target" : 34962
		},
		{
			"buffer" : 0,
			"byteOffset" : 200340,
			"byteLength" : 11130,
			"target" : 34963
		}
	],
	"buffers" : [
		{
			"uri" : "B337151574001063C0.bin",
			"byteLength" : 211470
		}
	]
}
