{
	"asset" : {
		"generator" : "FME 2023.1.0.0",
		"version" : "2.0"
	},
	"materials" : [
		{
			"name" : "default_material",
			"pbrMetallicRoughness" : {
				"baseColorFactor" : [ 1, 1, 1, 1 ],
				"roughnessFactor" : 0.30000000000000004,
				"metallicFactor" : 0.5
			}
		}
	],
	"meshes" : [
		{
			"primitives" : [
				{
					"attributes" : {
						"NORMAL" : 1,
						"POSITION" : 0,
						"COLOR_0" : 2
					},
					"indices" : 3,
					"material" : 0,
					"mode" : 4
				}
			]
		}
	],
	"nodes" : [
		{
			"name" : "B333291643801063C0",
			"matrix" : [ 1, 0, 0, 0, 0, 0, -1, 0, 0, 1, 0, 0, 833326.5, 11.538995742797852, -816434.9375, 1 ],
			"children" : [ 1 ]
		},
		{
			"mesh" : 0
		}
	],
	"scenes" : [
		{
			"nodes" : [ 0 ]
		}
	],
	"scene" : 0,
	"accessors" : [
		{
			"bufferView" : 0,
			"byteOffset" : 0,
			"componentType" : 5126,
			"count" : 2088,
			"type" : "VEC3",
			"min" : [ -13.583984375, -13.658203125, 0 ],
			"max" : [ 13.583984375, 13.658203125, 83.68700408935547 ]
		},
		{
			"bufferView" : 1,
			"byteOffset" : 0,
			"componentType" : 5126,
			"count" : 2088,
			"type" : "VEC3",
			"min" : [ -0.9901636242866516, -0.7722790241241455, -1 ],
			"max" : [ 0.774284303188324, 0.7708756923675537, 1 ]
		},
		{
			"bufferView" : 2,
			"byteOffset" : 0,
			"componentType" : 5126,
			"count" : 2088,
			"type" : "VEC3"
		},
		{
			"bufferView" : 3,
			"byteOffset" : 0,
			"componentType" : 5123,
			"count" : 2088,
			"type" : "SCALAR",
			"min" : [ 0 ],
			"max" : [ 2087 ]
		}
	],
	"bufferViews" : [
		{
			"buffer" : 0,
			"byteOffset" : 0,
			"byteLength" : 25056,
			"target" : 34962
		},
		{
			"buffer" : 0,
			"byteOffset" : 25056,
			"byteLength" : 25056,
			"target" : 34962
		},
		{
			"buffer" : 0,
			"byteOffset" : 50112,
			"byteLength" : 25056,
			"target" : 34962
		},
		{
			"buffer" : 0,
			"byteOffset" : 75168,
			"byteLength" : 4176,
			"target" : 34963
		}
	],
	"buffers" : [
		{
			"uri" : "B333291643801063C0.bin",
			"byteLength" : 79344
		}
	]
}
