{
	"asset" : {
		"generator" : "FME 2023.1.0.0",
		"version" : "2.0"
	},
	"materials" : [
		{
			"name" : "default_material",
			"pbrMetallicRoughness" : {
				"baseColorFactor" : [ 1, 1, 1, 1 ],
				"roughnessFactor" : 0.30000000000000004,
				"metallicFactor" : 0.5
			}
		}
	],
	"meshes" : [
		{
			"primitives" : [
				{
					"attributes" : {
						"NORMAL" : 1,
						"POSITION" : 0,
						"COLOR_0" : 2
					},
					"indices" : 3,
					"material" : 0,
					"mode" : 4
				}
			]
		}
	],
	"nodes" : [
		{
			"name" : "B356711526301063C0",
			"matrix" : [ 1, 0, 0, 0, 0, 0, -1, 0, 0, 1, 0, 0, 835672.9375, 26.344999313354492, -815263.4375, 1 ],
			"children" : [ 1 ]
		},
		{
			"mesh" : 0
		}
	],
	"scenes" : [
		{
			"nodes" : [ 0 ]
		}
	],
	"scene" : 0,
	"accessors" : [
		{
			"bufferView" : 0,
			"byteOffset" : 0,
			"componentType" : 5126,
			"count" : 9684,
			"type" : "VEC3",
			"min" : [ -18.025390625, -21.2255859375, 0 ],
			"max" : [ 18.025390625, 21.2255859375, 123.78199768066406 ]
		},
		{
			"bufferView" : 1,
			"byteOffset" : 0,
			"componentType" : 5126,
			"count" : 9684,
			"type" : "VEC3",
			"min" : [ -0.8858315944671631, -0.8664299845695496, -1 ],
			"max" : [ 0.8705600500106812, 0.8751623034477234, 1 ]
		},
		{
			"bufferView" : 2,
			"byteOffset" : 0,
			"componentType" : 5126,
			"count" : 9684,
			"type" : "VEC3"
		},
		{
			"bufferView" : 3,
			"byteOffset" : 0,
			"componentType" : 5123,
			"count" : 9684,
			"type" : "SCALAR",
			"min" : [ 0 ],
			"max" : [ 9683 ]
		}
	],
	"bufferViews" : [
		{
			"buffer" : 0,
			"byteOffset" : 0,
			"byteLength" : 116208,
			"target" : 34962
		},
		{
			"buffer" : 0,
			"byteOffset" : 116208,
			"byteLength" : 116208,
			"target" : 34962
		},
		{
			"buffer" : 0,
			"byteOffset" : 232416,
			"byteLength" : 116208,
			"target" : 34962
		},
		{
			"buffer" : 0,
			"byteOffset" : 348624,
			"byteLength" : 19368,
			"target" : 34963
		}
	],
	"buffers" : [
		{
			"uri" : "B356711526301063C0.bin",
			"byteLength" : 367992
		}
	]
}
