{
	"asset" : {
		"generator" : "FME 2023.2.1.0",
		"version" : "2.0"
	},
	"materials" : [
		{
			"name" : "default_material",
			"pbrMetallicRoughness" : {
				"baseColorFactor" : [ 1, 1, 1, 1 ],
				"roughnessFactor" : 0.30000000000000004,
				"metallicFactor" : 0.5
			}
		}
	],
	"meshes" : [
		{
			"primitives" : [
				{
					"attributes" : {
						"NORMAL" : 1,
						"POSITION" : 0,
						"COLOR_0" : 2
					},
					"indices" : 3,
					"material" : 0,
					"mode" : 4
				}
			]
		}
	],
	"nodes" : [
		{
			"name" : "B331361589301063C0",
			"matrix" : [ 1, 0, 0, 0, 0, 0, -1, 0, 0, 1, 0, 0, 833136.5625, 156.08599853515625, -815893, 1 ],
			"children" : [ 1 ]
		},
		{
			"mesh" : 0
		}
	],
	"scenes" : [
		{
			"nodes" : [ 0 ]
		}
	],
	"scene" : 0,
	"accessors" : [
		{
			"bufferView" : 0,
			"byteOffset" : 0,
			"componentType" : 5126,
			"count" : 1008,
			"type" : "VEC3",
			"min" : [ -5.00537109375, -5.0009765625, 0 ],
			"max" : [ 5.0048828125, 5.001953125, 3.9369964599609375 ]
		},
		{
			"bufferView" : 1,
			"byteOffset" : 0,
			"componentType" : 5126,
			"count" : 1008,
			"type" : "VEC3",
			"min" : [ -0.9989470839500427, -0.9999268651008606, -1 ],
			"max" : [ 0.9997711777687073, 0.999088704586029, 1 ]
		},
		{
			"bufferView" : 2,
			"byteOffset" : 0,
			"componentType" : 5126,
			"count" : 1008,
			"type" : "VEC3"
		},
		{
			"bufferView" : 3,
			"byteOffset" : 0,
			"componentType" : 5123,
			"count" : 1008,
			"type" : "SCALAR",
			"min" : [ 0 ],
			"max" : [ 1007 ]
		}
	],
	"bufferViews" : [
		{
			"buffer" : 0,
			"byteOffset" : 0,
			"byteLength" : 12096,
			"target" : 34962
		},
		{
			"buffer" : 0,
			"byteOffset" : 12096,
			"byteLength" : 12096,
			"target" : 34962
		},
		{
			"buffer" : 0,
			"byteOffset" : 24192,
			"byteLength" : 12096,
			"target" : 34962
		},
		{
			"buffer" : 0,
			"byteOffset" : 36288,
			"byteLength" : 2016,
			"target" : 34963
		}
	],
	"buffers" : [
		{
			"uri" : "B331361589301063C0.bin",
			"byteLength" : 38304
		}
	]
}
