{
	"asset" : {
		"generator" : "FME 2023.1.0.0",
		"version" : "2.0"
	},
	"materials" : [
		{
			"name" : "default_material",
			"pbrMetallicRoughness" : {
				"baseColorFactor" : [ 1, 1, 1, 1 ],
				"roughnessFactor" : 0.30000000000000004,
				"metallicFactor" : 0.5
			}
		}
	],
	"meshes" : [
		{
			"primitives" : [
				{
					"attributes" : {
						"NORMAL" : 1,
						"POSITION" : 0,
						"COLOR_0" : 2
					},
					"indices" : 3,
					"material" : 0,
					"mode" : 4
				}
			]
		}
	],
	"nodes" : [
		{
			"name" : "B337411574301063C0",
			"matrix" : [ 1, 0, 0, 0, 0, 0, -1, 0, 0, 1, 0, 0, 833737.5625, 75.53500366210938, -815735.375, 1 ],
			"children" : [ 1 ]
		},
		{
			"mesh" : 0
		}
	],
	"scenes" : [
		{
			"nodes" : [ 0 ]
		}
	],
	"scene" : 0,
	"accessors" : [
		{
			"bufferView" : 0,
			"byteOffset" : 0,
			"componentType" : 5126,
			"count" : 918,
			"type" : "VEC3",
			"min" : [ -9.38671875, -11.625, 0 ],
			"max" : [ 9.38671875, 11.625, 21.037994384765625 ]
		},
		{
			"bufferView" : 1,
			"byteOffset" : 0,
			"componentType" : 5126,
			"count" : 918,
			"type" : "VEC3",
			"min" : [ -0.8593500852584839, -0.8558205366134644, -1 ],
			"max" : [ 0.8504614233970642, 0.8555677533149719, 1 ]
		},
		{
			"bufferView" : 2,
			"byteOffset" : 0,
			"componentType" : 5126,
			"count" : 918,
			"type" : "VEC3"
		},
		{
			"bufferView" : 3,
			"byteOffset" : 0,
			"componentType" : 5123,
			"count" : 918,
			"type" : "SCALAR",
			"min" : [ 0 ],
			"max" : [ 917 ]
		}
	],
	"bufferViews" : [
		{
			"buffer" : 0,
			"byteOffset" : 0,
			"byteLength" : 11016,
			"target" : 34962
		},
		{
			"buffer" : 0,
			"byteOffset" : 11016,
			"byteLength" : 11016,
			"target" : 34962
		},
		{
			"buffer" : 0,
			"byteOffset" : 22032,
			"byteLength" : 11016,
			"target" : 34962
		},
		{
			"buffer" : 0,
			"byteOffset" : 33048,
			"byteLength" : 1836,
			"target" : 34963
		}
	],
	"buffers" : [
		{
			"uri" : "B337411574301063C0.bin",
			"byteLength" : 34884
		}
	]
}
