{
	"asset" : {
		"generator" : "FME 2023.1.0.0",
		"version" : "2.0"
	},
	"materials" : [
		{
			"name" : "default_material",
			"pbrMetallicRoughness" : {
				"baseColorFactor" : [ 1, 1, 1, 1 ],
				"roughnessFactor" : 0.30000000000000004,
				"metallicFactor" : 0.5
			}
		}
	],
	"meshes" : [
		{
			"primitives" : [
				{
					"attributes" : {
						"NORMAL" : 1,
						"POSITION" : 0,
						"COLOR_0" : 2
					},
					"indices" : 3,
					"material" : 0,
					"mode" : 4
				}
			]
		}
	],
	"nodes" : [
		{
			"name" : "B350771516801063C0",
			"matrix" : [ 1, 0, 0, 0, 0, 0, -1, 0, 0, 1, 0, 0, 835091.5625, 53.2599983215332, -815164.375, 1 ],
			"children" : [ 1 ]
		},
		{
			"mesh" : 0
		}
	],
	"scenes" : [
		{
			"nodes" : [ 0 ]
		}
	],
	"scene" : 0,
	"accessors" : [
		{
			"bufferView" : 0,
			"byteOffset" : 0,
			"componentType" : 5126,
			"count" : 486,
			"type" : "VEC3",
			"min" : [ -21.6318359375, -14.70703125, 0 ],
			"max" : [ 21.6318359375, 14.7080078125, 6.678001403808594 ]
		},
		{
			"bufferView" : 1,
			"byteOffset" : 0,
			"componentType" : 5126,
			"count" : 486,
			"type" : "VEC3",
			"min" : [ -0.9758531451225281, -0.976048469543457, -1 ],
			"max" : [ 0.9758884906768799, 0.9758648872375488, 1 ]
		},
		{
			"bufferView" : 2,
			"byteOffset" : 0,
			"componentType" : 5126,
			"count" : 486,
			"type" : "VEC3"
		},
		{
			"bufferView" : 3,
			"byteOffset" : 0,
			"componentType" : 5123,
			"count" : 486,
			"type" : "SCALAR",
			"min" : [ 0 ],
			"max" : [ 485 ]
		}
	],
	"bufferViews" : [
		{
			"buffer" : 0,
			"byteOffset" : 0,
			"byteLength" : 5832,
			"target" : 34962
		},
		{
			"buffer" : 0,
			"byteOffset" : 5832,
			"byteLength" : 5832,
			"target" : 34962
		},
		{
			"buffer" : 0,
			"byteOffset" : 11664,
			"byteLength" : 5832,
			"target" : 34962
		},
		{
			"buffer" : 0,
			"byteOffset" : 17496,
			"byteLength" : 972,
			"target" : 34963
		}
	],
	"buffers" : [
		{
			"uri" : "B350771516801063C0.bin",
			"byteLength" : 18468
		}
	]
}
