{
	"asset" : {
		"generator" : "FME 2022.2.4.0",
		"version" : "2.0"
	},
	"materials" : [
		{
			"name" : "default_material",
			"pbrMetallicRoughness" : {
				"baseColorFactor" : [ 1, 1, 1, 1 ],
				"roughnessFactor" : 0.30000000000000004,
				"metallicFactor" : 0.5
			}
		}
	],
	"meshes" : [
		{
			"primitives" : [
				{
					"attributes" : {
						"NORMAL" : 1,
						"POSITION" : 0,
						"COLOR_0" : 2
					},
					"indices" : 3,
					"material" : 0,
					"mode" : 4
				}
			]
		}
	],
	"nodes" : [
		{
			"name" : "B336161563301063C0",
			"matrix" : [ 1, 0, 0, 0, 0, 0, -1, 0, 0, 1, 0, 0, 833624.0625, 111.7490005493164, -815636.125, 1 ],
			"children" : [ 1 ]
		},
		{
			"mesh" : 0
		}
	],
	"scenes" : [
		{
			"nodes" : [ 0 ]
		}
	],
	"scene" : 0,
	"accessors" : [
		{
			"bufferView" : 0,
			"byteOffset" : 0,
			"componentType" : 5126,
			"count" : 2028,
			"type" : "VEC3",
			"min" : [ -12.1962890625, -11.0595703125, 0 ],
			"max" : [ 12.1962890625, 11.060546875, 73.10700225830078 ]
		},
		{
			"bufferView" : 1,
			"byteOffset" : 0,
			"componentType" : 5126,
			"count" : 2028,
			"type" : "VEC3",
			"min" : [ -0.9990211129188538, -0.9995164275169373, -1 ],
			"max" : [ 0.9998578429222107, 0.9998476505279541, 1 ]
		},
		{
			"bufferView" : 2,
			"byteOffset" : 0,
			"componentType" : 5126,
			"count" : 2028,
			"type" : "VEC3"
		},
		{
			"bufferView" : 3,
			"byteOffset" : 0,
			"componentType" : 5123,
			"count" : 2028,
			"type" : "SCALAR",
			"min" : [ 0 ],
			"max" : [ 2027 ]
		}
	],
	"bufferViews" : [
		{
			"buffer" : 0,
			"byteOffset" : 0,
			"byteLength" : 24336,
			"target" : 34962
		},
		{
			"buffer" : 0,
			"byteOffset" : 24336,
			"byteLength" : 24336,
			"target" : 34962
		},
		{
			"buffer" : 0,
			"byteOffset" : 48672,
			"byteLength" : 24336,
			"target" : 34962
		},
		{
			"buffer" : 0,
			"byteOffset" : 73008,
			"byteLength" : 4056,
			"target" : 34963
		}
	],
	"buffers" : [
		{
			"uri" : "B336161563301063C0.bin",
			"byteLength" : 77064
		}
	]
}
