{
	"asset" : {
		"generator" : "FME 2023.1.0.0",
		"version" : "2.0"
	},
	"materials" : [
		{
			"name" : "default_material",
			"pbrMetallicRoughness" : {
				"baseColorFactor" : [ 1, 1, 1, 1 ],
				"roughnessFactor" : 0.30000000000000004,
				"metallicFactor" : 0.5
			}
		}
	],
	"meshes" : [
		{
			"primitives" : [
				{
					"attributes" : {
						"NORMAL" : 1,
						"POSITION" : 0,
						"COLOR_0" : 2
					},
					"indices" : 3,
					"material" : 0,
					"mode" : 4
				}
			]
		}
	],
	"nodes" : [
		{
			"name" : "B340621551801063C0",
			"matrix" : [ 1, 0, 0, 0, 0, 0, -1, 0, 0, 1, 0, 0, 834061.9375, 82.99500274658203, -815518, 1 ],
			"children" : [ 1 ]
		},
		{
			"mesh" : 0
		}
	],
	"scenes" : [
		{
			"nodes" : [ 0 ]
		}
	],
	"scene" : 0,
	"accessors" : [
		{
			"bufferView" : 0,
			"byteOffset" : 0,
			"componentType" : 5126,
			"count" : 36,
			"type" : "VEC3",
			"min" : [ -1.513671875, -1.546875, 0 ],
			"max" : [ 1.5146484375, 1.5458984375, 2.9189987182617188 ]
		},
		{
			"bufferView" : 1,
			"byteOffset" : 0,
			"componentType" : 5126,
			"count" : 36,
			"type" : "VEC3",
			"min" : [ -0.7117713093757629, -0.7130154967308044, -1 ],
			"max" : [ 0.7307679057121277, 0.703004777431488, 1 ]
		},
		{
			"bufferView" : 2,
			"byteOffset" : 0,
			"componentType" : 5126,
			"count" : 36,
			"type" : "VEC3"
		},
		{
			"bufferView" : 3,
			"byteOffset" : 0,
			"componentType" : 5121,
			"count" : 36,
			"type" : "SCALAR",
			"min" : [ 0 ],
			"max" : [ 35 ]
		}
	],
	"bufferViews" : [
		{
			"buffer" : 0,
			"byteOffset" : 0,
			"byteLength" : 432,
			"target" : 34962
		},
		{
			"buffer" : 0,
			"byteOffset" : 432,
			"byteLength" : 432,
			"target" : 34962
		},
		{
			"buffer" : 0,
			"byteOffset" : 864,
			"byteLength" : 432,
			"target" : 34962
		},
		{
			"buffer" : 0,
			"byteOffset" : 1296,
			"byteLength" : 36,
			"target" : 34963
		}
	],
	"buffers" : [
		{
			"uri" : "B340621551801063C0.bin",
			"byteLength" : 1332
		}
	]
}
