{
	"asset" : {
		"generator" : "FME 2023.1.0.0",
		"version" : "2.0"
	},
	"materials" : [
		{
			"name" : "default_material",
			"pbrMetallicRoughness" : {
				"baseColorFactor" : [ 1, 1, 1, 1 ],
				"roughnessFactor" : 0.30000000000000004,
				"metallicFactor" : 0.5
			}
		}
	],
	"meshes" : [
		{
			"primitives" : [
				{
					"attributes" : {
						"NORMAL" : 1,
						"POSITION" : 0,
						"COLOR_0" : 2
					},
					"indices" : 3,
					"material" : 0,
					"mode" : 4
				}
			]
		}
	],
	"nodes" : [
		{
			"name" : "B335941577702063C0",
			"matrix" : [ 1, 0, 0, 0, 0, 0, -1, 0, 0, 1, 0, 0, 833593.8125, 103.4329833984375, -815779.125, 1 ],
			"children" : [ 1 ]
		},
		{
			"mesh" : 0
		}
	],
	"scenes" : [
		{
			"nodes" : [ 0 ]
		}
	],
	"scene" : 0,
	"accessors" : [
		{
			"bufferView" : 0,
			"byteOffset" : 0,
			"componentType" : 5126,
			"count" : 2466,
			"type" : "VEC3",
			"min" : [ -21.3671875, -18.3525390625, 0 ],
			"max" : [ 21.3671875, 18.3515625, 10.652999877929688 ]
		},
		{
			"bufferView" : 1,
			"byteOffset" : 0,
			"componentType" : 5126,
			"count" : 2466,
			"type" : "VEC3",
			"min" : [ -0.9976674914360046, -0.9992612600326538, -1 ],
			"max" : [ 0.9986286759376526, 1, 1 ]
		},
		{
			"bufferView" : 2,
			"byteOffset" : 0,
			"componentType" : 5126,
			"count" : 2466,
			"type" : "VEC3"
		},
		{
			"bufferView" : 3,
			"byteOffset" : 0,
			"componentType" : 5123,
			"count" : 2466,
			"type" : "SCALAR",
			"min" : [ 0 ],
			"max" : [ 2465 ]
		}
	],
	"bufferViews" : [
		{
			"buffer" : 0,
			"byteOffset" : 0,
			"byteLength" : 29592,
			"target" : 34962
		},
		{
			"buffer" : 0,
			"byteOffset" : 29592,
			"byteLength" : 29592,
			"target" : 34962
		},
		{
			"buffer" : 0,
			"byteOffset" : 59184,
			"byteLength" : 29592,
			"target" : 34962
		},
		{
			"buffer" : 0,
			"byteOffset" : 88776,
			"byteLength" : 4932,
			"target" : 34963
		}
	],
	"buffers" : [
		{
			"uri" : "B335941577702063C0.bin",
			"byteLength" : 93708
		}
	]
}
