{
	"asset" : {
		"generator" : "FME 2023.1.0.0",
		"version" : "2.0"
	},
	"materials" : [
		{
			"name" : "default_material",
			"pbrMetallicRoughness" : {
				"baseColorFactor" : [ 1, 1, 1, 1 ],
				"roughnessFactor" : 0.30000000000000004,
				"metallicFactor" : 0.5
			}
		}
	],
	"meshes" : [
		{
			"primitives" : [
				{
					"attributes" : {
						"NORMAL" : 1,
						"POSITION" : 0,
						"COLOR_0" : 2
					},
					"indices" : 3,
					"material" : 0,
					"mode" : 4
				}
			]
		}
	],
	"nodes" : [
		{
			"name" : "B357741542701063C0",
			"matrix" : [ 1, 0, 0, 0, 0, 0, -1, 0, 0, 1, 0, 0, 835777.0625, 17.91200065612793, -815429.6875, 1 ],
			"children" : [ 1 ]
		},
		{
			"mesh" : 0
		}
	],
	"scenes" : [
		{
			"nodes" : [ 0 ]
		}
	],
	"scene" : 0,
	"accessors" : [
		{
			"bufferView" : 0,
			"byteOffset" : 0,
			"componentType" : 5126,
			"count" : 1914,
			"type" : "VEC3",
			"min" : [ -6.5126953125, -7.3466796875, 0 ],
			"max" : [ 6.51171875, 7.345703125, 77.1090087890625 ]
		},
		{
			"bufferView" : 1,
			"byteOffset" : 0,
			"componentType" : 5126,
			"count" : 1914,
			"type" : "VEC3",
			"min" : [ -0.9936530590057373, -0.9934946894645691, -1 ],
			"max" : [ 0.9935060143470764, 0.9930352568626404, 1 ]
		},
		{
			"bufferView" : 2,
			"byteOffset" : 0,
			"componentType" : 5126,
			"count" : 1914,
			"type" : "VEC3"
		},
		{
			"bufferView" : 3,
			"byteOffset" : 0,
			"componentType" : 5123,
			"count" : 1914,
			"type" : "SCALAR",
			"min" : [ 0 ],
			"max" : [ 1913 ]
		}
	],
	"bufferViews" : [
		{
			"buffer" : 0,
			"byteOffset" : 0,
			"byteLength" : 22968,
			"target" : 34962
		},
		{
			"buffer" : 0,
			"byteOffset" : 22968,
			"byteLength" : 22968,
			"target" : 34962
		},
		{
			"buffer" : 0,
			"byteOffset" : 45936,
			"byteLength" : 22968,
			"target" : 34962
		},
		{
			"buffer" : 0,
			"byteOffset" : 68904,
			"byteLength" : 3828,
			"target" : 34963
		}
	],
	"buffers" : [
		{
			"uri" : "B357741542701063C0.bin",
			"byteLength" : 72732
		}
	]
}
