{
	"asset" : {
		"generator" : "FME 2023.2.2.0",
		"version" : "2.0"
	},
	"materials" : [
		{
			"name" : "default_material",
			"pbrMetallicRoughness" : {
				"baseColorFactor" : [ 1, 1, 1, 1 ],
				"roughnessFactor" : 0.30000000000000004,
				"metallicFactor" : 0.5
			}
		}
	],
	"meshes" : [
		{
			"primitives" : [
				{
					"attributes" : {
						"NORMAL" : 1,
						"POSITION" : 0,
						"COLOR_0" : 2
					},
					"indices" : 3,
					"material" : 0,
					"mode" : 4
				}
			]
		}
	],
	"nodes" : [
		{
			"name" : "B170121458201062G0",
			"matrix" : [ 1, 0, 0, 0, 0, 0, -1, 0, 0, 1, 0, 0, 817012.625, 16.340200424194336, -814581.4375, 1 ],
			"children" : [ 1 ]
		},
		{
			"mesh" : 0
		}
	],
	"scenes" : [
		{
			"nodes" : [ 0 ]
		}
	],
	"scene" : 0,
	"accessors" : [
		{
			"bufferView" : 0,
			"byteOffset" : 0,
			"componentType" : 5126,
			"count" : 585,
			"type" : "VEC3",
			"min" : [ -5.3125, -4.6875, 0 ],
			"max" : [ 5.375, 4.6875, 9.003198623657227 ]
		},
		{
			"bufferView" : 1,
			"byteOffset" : 0,
			"componentType" : 5126,
			"count" : 585,
			"type" : "VEC3",
			"min" : [ -0.9892101287841797, -0.9943126440048218, -1 ],
			"max" : [ 0.9899517893791199, 0.9943126440048218, 1 ]
		},
		{
			"bufferView" : 2,
			"byteOffset" : 0,
			"componentType" : 5126,
			"count" : 585,
			"type" : "VEC3"
		},
		{
			"bufferView" : 3,
			"byteOffset" : 0,
			"componentType" : 5123,
			"count" : 585,
			"type" : "SCALAR",
			"min" : [ 0 ],
			"max" : [ 584 ]
		}
	],
	"bufferViews" : [
		{
			"buffer" : 0,
			"byteOffset" : 0,
			"byteLength" : 7020,
			"target" : 34962
		},
		{
			"buffer" : 0,
			"byteOffset" : 7020,
			"byteLength" : 7020,
			"target" : 34962
		},
		{
			"buffer" : 0,
			"byteOffset" : 14040,
			"byteLength" : 7020,
			"target" : 34962
		},
		{
			"buffer" : 0,
			"byteOffset" : 21060,
			"byteLength" : 1170,
			"target" : 34963
		}
	],
	"buffers" : [
		{
			"uri" : "B170121458201062G0.bin",
			"byteLength" : 22230
		}
	]
}
