{
	"asset" : {
		"generator" : "FME 2023.2.1.0",
		"version" : "2.0"
	},
	"materials" : [
		{
			"name" : "default_material",
			"pbrMetallicRoughness" : {
				"baseColorFactor" : [ 1, 1, 1, 1 ],
				"roughnessFactor" : 0.30000000000000004,
				"metallicFactor" : 0.5
			}
		}
	],
	"meshes" : [
		{
			"primitives" : [
				{
					"attributes" : {
						"NORMAL" : 1,
						"POSITION" : 0,
						"COLOR_0" : 2
					},
					"indices" : 3,
					"material" : 0,
					"mode" : 4
				}
			]
		}
	],
	"nodes" : [
		{
			"name" : "B335901580701063C0",
			"matrix" : [ 1, 0, 0, 0, 0, 0, -1, 0, 0, 1, 0, 0, 833591.3125, 93.1190185546875, -815806.625, 1 ],
			"children" : [ 1 ]
		},
		{
			"mesh" : 0
		}
	],
	"scenes" : [
		{
			"nodes" : [ 0 ]
		}
	],
	"scene" : 0,
	"accessors" : [
		{
			"bufferView" : 0,
			"byteOffset" : 0,
			"componentType" : 5126,
			"count" : 1002,
			"type" : "VEC3",
			"min" : [ -11.615234375, -12.5546875, 0 ],
			"max" : [ 11.615234375, 12.5546875, 109.67300415039062 ]
		},
		{
			"bufferView" : 1,
			"byteOffset" : 0,
			"componentType" : 5126,
			"count" : 1002,
			"type" : "VEC3",
			"min" : [ -0.8062077760696411, -0.940995991230011, -1 ],
			"max" : [ 0.8051488399505615, 0.9411544799804688, 1 ]
		},
		{
			"bufferView" : 2,
			"byteOffset" : 0,
			"componentType" : 5126,
			"count" : 1002,
			"type" : "VEC3"
		},
		{
			"bufferView" : 3,
			"byteOffset" : 0,
			"componentType" : 5123,
			"count" : 1002,
			"type" : "SCALAR",
			"min" : [ 0 ],
			"max" : [ 1001 ]
		}
	],
	"bufferViews" : [
		{
			"buffer" : 0,
			"byteOffset" : 0,
			"byteLength" : 12024,
			"target" : 34962
		},
		{
			"buffer" : 0,
			"byteOffset" : 12024,
			"byteLength" : 12024,
			"target" : 34962
		},
		{
			"buffer" : 0,
			"byteOffset" : 24048,
			"byteLength" : 12024,
			"target" : 34962
		},
		{
			"buffer" : 0,
			"byteOffset" : 36072,
			"byteLength" : 2004,
			"target" : 34963
		}
	],
	"buffers" : [
		{
			"uri" : "B335901580701063C0.bin",
			"byteLength" : 38076
		}
	]
}
