{
	"asset" : {
		"generator" : "FME 2022.2.4.0",
		"version" : "2.0"
	},
	"materials" : [
		{
			"name" : "default_material",
			"pbrMetallicRoughness" : {
				"baseColorFactor" : [ 1, 1, 1, 1 ],
				"roughnessFactor" : 0.30000000000000004,
				"metallicFactor" : 0.5
			}
		}
	],
	"meshes" : [
		{
			"primitives" : [
				{
					"attributes" : {
						"NORMAL" : 1,
						"POSITION" : 0,
						"COLOR_0" : 2
					},
					"indices" : 3,
					"material" : 0,
					"mode" : 4
				}
			]
		}
	],
	"nodes" : [
		{
			"name" : "B338741590401063C0",
			"matrix" : [ 1, 0, 0, 0, 0, 0, -1, 0, 0, 1, 0, 0, 833873.8125, 35.360008239746094, -815901.75, 1 ],
			"children" : [ 1 ]
		},
		{
			"mesh" : 0
		}
	],
	"scenes" : [
		{
			"nodes" : [ 0 ]
		}
	],
	"scene" : 0,
	"accessors" : [
		{
			"bufferView" : 0,
			"byteOffset" : 0,
			"componentType" : 5126,
			"count" : 471,
			"type" : "VEC3",
			"min" : [ -5.5595703125, -6.47265625, 0 ],
			"max" : [ 5.5595703125, 6.47265625, 22.861000061035156 ]
		},
		{
			"bufferView" : 1,
			"byteOffset" : 0,
			"componentType" : 5126,
			"count" : 471,
			"type" : "VEC3",
			"min" : [ -0.8996986150741577, -0.9499183297157288, -0.9666531682014465 ],
			"max" : [ 0.8974831104278564, 0.952032208442688, 1 ]
		},
		{
			"bufferView" : 2,
			"byteOffset" : 0,
			"componentType" : 5126,
			"count" : 471,
			"type" : "VEC3"
		},
		{
			"bufferView" : 3,
			"byteOffset" : 0,
			"componentType" : 5123,
			"count" : 471,
			"type" : "SCALAR",
			"min" : [ 0 ],
			"max" : [ 470 ]
		}
	],
	"bufferViews" : [
		{
			"buffer" : 0,
			"byteOffset" : 0,
			"byteLength" : 5652,
			"target" : 34962
		},
		{
			"buffer" : 0,
			"byteOffset" : 5652,
			"byteLength" : 5652,
			"target" : 34962
		},
		{
			"buffer" : 0,
			"byteOffset" : 11304,
			"byteLength" : 5652,
			"target" : 34962
		},
		{
			"buffer" : 0,
			"byteOffset" : 16956,
			"byteLength" : 942,
			"target" : 34963
		}
	],
	"buffers" : [
		{
			"uri" : "B338741590401063C0.bin",
			"byteLength" : 17898
		}
	]
}
