{
	"asset" : {
		"generator" : "FME 2022.2.4.0",
		"version" : "2.0"
	},
	"materials" : [
		{
			"name" : "default_material",
			"pbrMetallicRoughness" : {
				"baseColorFactor" : [ 1, 1, 1, 1 ],
				"roughnessFactor" : 0.30000000000000004,
				"metallicFactor" : 0.5
			}
		}
	],
	"meshes" : [
		{
			"primitives" : [
				{
					"attributes" : {
						"NORMAL" : 1,
						"POSITION" : 0,
						"COLOR_0" : 2
					},
					"indices" : 3,
					"material" : 0,
					"mode" : 4
				}
			]
		}
	],
	"nodes" : [
		{
			"name" : "B184411483001062G0",
			"matrix" : [ 1, 0, 0, 0, 0, 0, -1, 0, 0, 1, 0, 0, 818441.125, 3.315999984741211, -814828.625, 1 ],
			"children" : [ 1 ]
		},
		{
			"mesh" : 0
		}
	],
	"scenes" : [
		{
			"nodes" : [ 0 ]
		}
	],
	"scene" : 0,
	"accessors" : [
		{
			"bufferView" : 0,
			"byteOffset" : 0,
			"componentType" : 5126,
			"count" : 462,
			"type" : "VEC3",
			"min" : [ -5.9375, -6.6875, 0 ],
			"max" : [ 6, 6.625, 10.826499938964844 ]
		},
		{
			"bufferView" : 1,
			"byteOffset" : 0,
			"componentType" : 5126,
			"count" : 462,
			"type" : "VEC3",
			"min" : [ -0.8817704916000366, -0.8782588839530945, -1 ],
			"max" : [ 0.8783135414123535, 0.8787562847137451, 1 ]
		},
		{
			"bufferView" : 2,
			"byteOffset" : 0,
			"componentType" : 5126,
			"count" : 462,
			"type" : "VEC3"
		},
		{
			"bufferView" : 3,
			"byteOffset" : 0,
			"componentType" : 5123,
			"count" : 462,
			"type" : "SCALAR",
			"min" : [ 0 ],
			"max" : [ 461 ]
		}
	],
	"bufferViews" : [
		{
			"buffer" : 0,
			"byteOffset" : 0,
			"byteLength" : 5544,
			"target" : 34962
		},
		{
			"buffer" : 0,
			"byteOffset" : 5544,
			"byteLength" : 5544,
			"target" : 34962
		},
		{
			"buffer" : 0,
			"byteOffset" : 11088,
			"byteLength" : 5544,
			"target" : 34962
		},
		{
			"buffer" : 0,
			"byteOffset" : 16632,
			"byteLength" : 924,
			"target" : 34963
		}
	],
	"buffers" : [
		{
			"uri" : "B184411483001062G0.bin",
			"byteLength" : 17556
		}
	]
}
