{
	"asset" : {
		"generator" : "FME 2022.2.4.0",
		"version" : "2.0"
	},
	"materials" : [
		{
			"name" : "default_material",
			"pbrMetallicRoughness" : {
				"baseColorFactor" : [ 1, 1, 1, 1 ],
				"roughnessFactor" : 0.30000000000000004,
				"metallicFactor" : 0.5
			}
		}
	],
	"meshes" : [
		{
			"primitives" : [
				{
					"attributes" : {
						"NORMAL" : 1,
						"POSITION" : 0,
						"COLOR_0" : 2
					},
					"indices" : 3,
					"material" : 0,
					"mode" : 4
				}
			]
		}
	],
	"nodes" : [
		{
			"name" : "B169871471301062G0",
			"matrix" : [ 1, 0, 0, 0, 0, 0, -1, 0, 0, 1, 0, 0, 816987.9375, 21.606000900268555, -814713.5, 1 ],
			"children" : [ 1 ]
		},
		{
			"mesh" : 0
		}
	],
	"scenes" : [
		{
			"nodes" : [ 0 ]
		}
	],
	"scene" : 0,
	"accessors" : [
		{
			"bufferView" : 0,
			"byteOffset" : 0,
			"componentType" : 5126,
			"count" : 333,
			"type" : "VEC3",
			"min" : [ -6.5625, -5.875, 0 ],
			"max" : [ 6.5625, 5.875, 9.731698989868164 ]
		},
		{
			"bufferView" : 1,
			"byteOffset" : 0,
			"componentType" : 5126,
			"count" : 333,
			"type" : "VEC3",
			"min" : [ -0.7696123123168945, -0.7645145058631897, -1 ],
			"max" : [ 0.7582998871803284, 0.765784740447998, 1 ]
		},
		{
			"bufferView" : 2,
			"byteOffset" : 0,
			"componentType" : 5126,
			"count" : 333,
			"type" : "VEC3"
		},
		{
			"bufferView" : 3,
			"byteOffset" : 0,
			"componentType" : 5123,
			"count" : 333,
			"type" : "SCALAR",
			"min" : [ 0 ],
			"max" : [ 332 ]
		}
	],
	"bufferViews" : [
		{
			"buffer" : 0,
			"byteOffset" : 0,
			"byteLength" : 3996,
			"target" : 34962
		},
		{
			"buffer" : 0,
			"byteOffset" : 3996,
			"byteLength" : 3996,
			"target" : 34962
		},
		{
			"buffer" : 0,
			"byteOffset" : 7992,
			"byteLength" : 3996,
			"target" : 34962
		},
		{
			"buffer" : 0,
			"byteOffset" : 11988,
			"byteLength" : 666,
			"target" : 34963
		}
	],
	"buffers" : [
		{
			"uri" : "B169871471301062G0.bin",
			"byteLength" : 12654
		}
	]
}
