{
	"asset" : {
		"generator" : "FME 2023.2.1.0",
		"version" : "2.0"
	},
	"materials" : [
		{
			"name" : "default_material",
			"pbrMetallicRoughness" : {
				"baseColorFactor" : [ 1, 1, 1, 1 ],
				"roughnessFactor" : 0.30000000000000004,
				"metallicFactor" : 0.5
			}
		}
	],
	"meshes" : [
		{
			"primitives" : [
				{
					"attributes" : {
						"NORMAL" : 1,
						"POSITION" : 0,
						"COLOR_0" : 2
					},
					"indices" : 3,
					"material" : 0,
					"mode" : 4
				}
			]
		}
	],
	"nodes" : [
		{
			"name" : "B335751621601063C0",
			"matrix" : [ 1, 0, 0, 0, 0, 0, -1, 0, 0, 1, 0, 0, 833576.375, 22.499000549316406, -816218, 1 ],
			"children" : [ 1 ]
		},
		{
			"mesh" : 0
		}
	],
	"scenes" : [
		{
			"nodes" : [ 0 ]
		}
	],
	"scene" : 0,
	"accessors" : [
		{
			"bufferView" : 0,
			"byteOffset" : 0,
			"componentType" : 5126,
			"count" : 1491,
			"type" : "VEC3",
			"min" : [ -9.2041015625, -8.5029296875, 0 ],
			"max" : [ 9.205078125, 8.50390625, 66.4280014038086 ]
		},
		{
			"bufferView" : 1,
			"byteOffset" : 0,
			"componentType" : 5126,
			"count" : 1491,
			"type" : "VEC3",
			"min" : [ -0.9767623543739319, -0.9995604753494263, -1 ],
			"max" : [ 0.8561080694198608, 0.8331544995307922, 1 ]
		},
		{
			"bufferView" : 2,
			"byteOffset" : 0,
			"componentType" : 5126,
			"count" : 1491,
			"type" : "VEC3"
		},
		{
			"bufferView" : 3,
			"byteOffset" : 0,
			"componentType" : 5123,
			"count" : 1491,
			"type" : "SCALAR",
			"min" : [ 0 ],
			"max" : [ 1490 ]
		}
	],
	"bufferViews" : [
		{
			"buffer" : 0,
			"byteOffset" : 0,
			"byteLength" : 17892,
			"target" : 34962
		},
		{
			"buffer" : 0,
			"byteOffset" : 17892,
			"byteLength" : 17892,
			"target" : 34962
		},
		{
			"buffer" : 0,
			"byteOffset" : 35784,
			"byteLength" : 17892,
			"target" : 34962
		},
		{
			"buffer" : 0,
			"byteOffset" : 53676,
			"byteLength" : 2982,
			"target" : 34963
		}
	],
	"buffers" : [
		{
			"uri" : "B335751621601063C0.bin",
			"byteLength" : 56658
		}
	]
}
