{
	"asset" : {
		"generator" : "FME 2023.1.0.0",
		"version" : "2.0"
	},
	"materials" : [
		{
			"name" : "default_material",
			"pbrMetallicRoughness" : {
				"baseColorFactor" : [ 1, 1, 1, 1 ],
				"roughnessFactor" : 0.30000000000000004,
				"metallicFactor" : 0.5
			}
		}
	],
	"meshes" : [
		{
			"primitives" : [
				{
					"attributes" : {
						"NORMAL" : 1,
						"POSITION" : 0,
						"COLOR_0" : 2
					},
					"indices" : 3,
					"material" : 0,
					"mode" : 4
				}
			]
		}
	],
	"nodes" : [
		{
			"name" : "B337121596501063C0",
			"matrix" : [ 1, 0, 0, 0, 0, 0, -1, 0, 0, 1, 0, 0, 833712.0625, 49.71299743652344, -815962.375, 1 ],
			"children" : [ 1 ]
		},
		{
			"mesh" : 0
		}
	],
	"scenes" : [
		{
			"nodes" : [ 0 ]
		}
	],
	"scene" : 0,
	"accessors" : [
		{
			"bufferView" : 0,
			"byteOffset" : 0,
			"componentType" : 5126,
			"count" : 357,
			"type" : "VEC3",
			"min" : [ -4.8818359375, -5.0078125, 0 ],
			"max" : [ 4.8828125, 5.0087890625, 18.000991821289062 ]
		},
		{
			"bufferView" : 1,
			"byteOffset" : 0,
			"componentType" : 5126,
			"count" : 357,
			"type" : "VEC3",
			"min" : [ -0.7317978739738464, -0.712696373462677, -1 ],
			"max" : [ 0.7280293703079224, 0.7147915959358215, 1 ]
		},
		{
			"bufferView" : 2,
			"byteOffset" : 0,
			"componentType" : 5126,
			"count" : 357,
			"type" : "VEC3"
		},
		{
			"bufferView" : 3,
			"byteOffset" : 0,
			"componentType" : 5123,
			"count" : 357,
			"type" : "SCALAR",
			"min" : [ 0 ],
			"max" : [ 356 ]
		}
	],
	"bufferViews" : [
		{
			"buffer" : 0,
			"byteOffset" : 0,
			"byteLength" : 4284,
			"target" : 34962
		},
		{
			"buffer" : 0,
			"byteOffset" : 4284,
			"byteLength" : 4284,
			"target" : 34962
		},
		{
			"buffer" : 0,
			"byteOffset" : 8568,
			"byteLength" : 4284,
			"target" : 34962
		},
		{
			"buffer" : 0,
			"byteOffset" : 12852,
			"byteLength" : 714,
			"target" : 34963
		}
	],
	"buffers" : [
		{
			"uri" : "B337121596501063C0.bin",
			"byteLength" : 13566
		}
	]
}
