{
	"asset" : {
		"generator" : "FME 2023.1.0.0",
		"version" : "2.0"
	},
	"materials" : [
		{
			"name" : "default_material",
			"pbrMetallicRoughness" : {
				"baseColorFactor" : [ 1, 1, 1, 1 ],
				"roughnessFactor" : 0.30000000000000004,
				"metallicFactor" : 0.5
			}
		}
	],
	"meshes" : [
		{
			"primitives" : [
				{
					"attributes" : {
						"NORMAL" : 1,
						"POSITION" : 0,
						"COLOR_0" : 2
					},
					"indices" : 3,
					"material" : 0,
					"mode" : 4
				}
			]
		}
	],
	"nodes" : [
		{
			"name" : "B356541536602063C0",
			"matrix" : [ 1, 0, 0, 0, 0, 0, -1, 0, 0, 1, 0, 0, 835655.3125, 3.859999895095825, -815370.375, 1 ],
			"children" : [ 1 ]
		},
		{
			"mesh" : 0
		}
	],
	"scenes" : [
		{
			"nodes" : [ 0 ]
		}
	],
	"scene" : 0,
	"accessors" : [
		{
			"bufferView" : 0,
			"byteOffset" : 0,
			"componentType" : 5126,
			"count" : 408,
			"type" : "VEC3",
			"min" : [ -5.7900390625, -8.259765625, 0 ],
			"max" : [ 5.791015625, 8.2607421875, 15.67400074005127 ]
		},
		{
			"bufferView" : 1,
			"byteOffset" : 0,
			"componentType" : 5126,
			"count" : 408,
			"type" : "VEC3",
			"min" : [ -0.9977233409881592, -0.997746467590332, -1 ],
			"max" : [ 0.9977680444717407, 0.9977587461471558, 1 ]
		},
		{
			"bufferView" : 2,
			"byteOffset" : 0,
			"componentType" : 5126,
			"count" : 408,
			"type" : "VEC3"
		},
		{
			"bufferView" : 3,
			"byteOffset" : 0,
			"componentType" : 5123,
			"count" : 408,
			"type" : "SCALAR",
			"min" : [ 0 ],
			"max" : [ 407 ]
		}
	],
	"bufferViews" : [
		{
			"buffer" : 0,
			"byteOffset" : 0,
			"byteLength" : 4896,
			"target" : 34962
		},
		{
			"buffer" : 0,
			"byteOffset" : 4896,
			"byteLength" : 4896,
			"target" : 34962
		},
		{
			"buffer" : 0,
			"byteOffset" : 9792,
			"byteLength" : 4896,
			"target" : 34962
		},
		{
			"buffer" : 0,
			"byteOffset" : 14688,
			"byteLength" : 816,
			"target" : 34963
		}
	],
	"buffers" : [
		{
			"uri" : "B356541536602063C0.bin",
			"byteLength" : 15504
		}
	]
}
