{
	"asset" : {
		"generator" : "FME 2023.1.0.0",
		"version" : "2.0"
	},
	"materials" : [
		{
			"name" : "default_material",
			"pbrMetallicRoughness" : {
				"baseColorFactor" : [ 1, 1, 1, 1 ],
				"roughnessFactor" : 0.30000000000000004,
				"metallicFactor" : 0.5
			}
		}
	],
	"meshes" : [
		{
			"primitives" : [
				{
					"attributes" : {
						"NORMAL" : 1,
						"POSITION" : 0,
						"COLOR_0" : 2
					},
					"indices" : 3,
					"material" : 0,
					"mode" : 4
				}
			]
		}
	],
	"nodes" : [
		{
			"name" : "B336381562201063C0",
			"matrix" : [ 1, 0, 0, 0, 0, 0, -1, 0, 0, 1, 0, 0, 833643.8125, 115.28399658203125, -815624.75, 1 ],
			"children" : [ 1 ]
		},
		{
			"mesh" : 0
		}
	],
	"scenes" : [
		{
			"nodes" : [ 0 ]
		}
	],
	"scene" : 0,
	"accessors" : [
		{
			"bufferView" : 0,
			"byteOffset" : 0,
			"componentType" : 5126,
			"count" : 465,
			"type" : "VEC3",
			"min" : [ -8.1513671875, -8.1015625, 0 ],
			"max" : [ 8.1513671875, 8.1005859375, 26.830001831054688 ]
		},
		{
			"bufferView" : 1,
			"byteOffset" : 0,
			"componentType" : 5126,
			"count" : 465,
			"type" : "VEC3",
			"min" : [ -0.8810303211212158, -0.871783971786499, -1 ],
			"max" : [ 0.8718370199203491, 0.7364462018013, 1 ]
		},
		{
			"bufferView" : 2,
			"byteOffset" : 0,
			"componentType" : 5126,
			"count" : 465,
			"type" : "VEC3"
		},
		{
			"bufferView" : 3,
			"byteOffset" : 0,
			"componentType" : 5123,
			"count" : 465,
			"type" : "SCALAR",
			"min" : [ 0 ],
			"max" : [ 464 ]
		}
	],
	"bufferViews" : [
		{
			"buffer" : 0,
			"byteOffset" : 0,
			"byteLength" : 5580,
			"target" : 34962
		},
		{
			"buffer" : 0,
			"byteOffset" : 5580,
			"byteLength" : 5580,
			"target" : 34962
		},
		{
			"buffer" : 0,
			"byteOffset" : 11160,
			"byteLength" : 5580,
			"target" : 34962
		},
		{
			"buffer" : 0,
			"byteOffset" : 16740,
			"byteLength" : 930,
			"target" : 34963
		}
	],
	"buffers" : [
		{
			"uri" : "B336381562201063C0.bin",
			"byteLength" : 17670
		}
	]
}
