{
	"asset" : {
		"generator" : "FME 2023.2.1.0",
		"version" : "2.0"
	},
	"materials" : [
		{
			"name" : "default_material",
			"pbrMetallicRoughness" : {
				"baseColorFactor" : [ 1, 1, 1, 1 ],
				"roughnessFactor" : 0.30000000000000004,
				"metallicFactor" : 0.5
			}
		}
	],
	"meshes" : [
		{
			"primitives" : [
				{
					"attributes" : {
						"NORMAL" : 1,
						"POSITION" : 0,
						"COLOR_0" : 2
					},
					"indices" : 3,
					"material" : 0,
					"mode" : 4
				}
			]
		}
	],
	"nodes" : [
		{
			"name" : "B336401632001063C0",
			"matrix" : [ 1, 0, 0, 0, 0, 0, -1, 0, 0, 1, 0, 0, 833635.6875, 2.703000068664551, -816311.9375, 1 ],
			"children" : [ 1 ]
		},
		{
			"mesh" : 0
		}
	],
	"scenes" : [
		{
			"nodes" : [ 0 ]
		}
	],
	"scene" : 0,
	"accessors" : [
		{
			"bufferView" : 0,
			"byteOffset" : 0,
			"componentType" : 5126,
			"count" : 483,
			"type" : "VEC3",
			"min" : [ -12.3896484375, -15.701171875, 0 ],
			"max" : [ 12.390625, 15.7021484375, 23.542999267578125 ]
		},
		{
			"bufferView" : 1,
			"byteOffset" : 0,
			"componentType" : 5126,
			"count" : 483,
			"type" : "VEC3",
			"min" : [ -0.9592291116714478, -0.9596714377403259, -1 ],
			"max" : [ 0.9599047899246216, 0.9596897959709167, 1 ]
		},
		{
			"bufferView" : 2,
			"byteOffset" : 0,
			"componentType" : 5126,
			"count" : 483,
			"type" : "VEC3"
		},
		{
			"bufferView" : 3,
			"byteOffset" : 0,
			"componentType" : 5123,
			"count" : 483,
			"type" : "SCALAR",
			"min" : [ 0 ],
			"max" : [ 482 ]
		}
	],
	"bufferViews" : [
		{
			"buffer" : 0,
			"byteOffset" : 0,
			"byteLength" : 5796,
			"target" : 34962
		},
		{
			"buffer" : 0,
			"byteOffset" : 5796,
			"byteLength" : 5796,
			"target" : 34962
		},
		{
			"buffer" : 0,
			"byteOffset" : 11592,
			"byteLength" : 5796,
			"target" : 34962
		},
		{
			"buffer" : 0,
			"byteOffset" : 17388,
			"byteLength" : 966,
			"target" : 34963
		}
	],
	"buffers" : [
		{
			"uri" : "B336401632001063C0.bin",
			"byteLength" : 18354
		}
	]
}
