{
	"asset" : {
		"generator" : "FME 2023.1.0.0",
		"version" : "2.0"
	},
	"materials" : [
		{
			"name" : "default_material",
			"pbrMetallicRoughness" : {
				"baseColorFactor" : [ 1, 1, 1, 1 ],
				"roughnessFactor" : 0.30000000000000004,
				"metallicFactor" : 0.5
			}
		}
	],
	"meshes" : [
		{
			"primitives" : [
				{
					"attributes" : {
						"NORMAL" : 1,
						"POSITION" : 0,
						"COLOR_0" : 2
					},
					"indices" : 3,
					"material" : 0,
					"mode" : 4
				}
			]
		}
	],
	"nodes" : [
		{
			"name" : "B333991620201063C0",
			"matrix" : [ 1, 0, 0, 0, 0, 0, -1, 0, 0, 1, 0, 0, 833401.1875, 23.42999267578125, -816199.5, 1 ],
			"children" : [ 1 ]
		},
		{
			"mesh" : 0
		}
	],
	"scenes" : [
		{
			"nodes" : [ 0 ]
		}
	],
	"scene" : 0,
	"accessors" : [
		{
			"bufferView" : 0,
			"byteOffset" : 0,
			"componentType" : 5126,
			"count" : 1128,
			"type" : "VEC3",
			"min" : [ -8.07421875, -7.228515625, 0 ],
			"max" : [ 8.0732421875, 7.228515625, 26.70800018310547 ]
		},
		{
			"bufferView" : 1,
			"byteOffset" : 0,
			"componentType" : 5126,
			"count" : 1128,
			"type" : "VEC3",
			"min" : [ -0.7637763023376465, -0.7555747628211975, -1 ],
			"max" : [ 0.7555555105209351, 0.7539340853691101, 1 ]
		},
		{
			"bufferView" : 2,
			"byteOffset" : 0,
			"componentType" : 5126,
			"count" : 1128,
			"type" : "VEC3"
		},
		{
			"bufferView" : 3,
			"byteOffset" : 0,
			"componentType" : 5123,
			"count" : 1128,
			"type" : "SCALAR",
			"min" : [ 0 ],
			"max" : [ 1127 ]
		}
	],
	"bufferViews" : [
		{
			"buffer" : 0,
			"byteOffset" : 0,
			"byteLength" : 13536,
			"target" : 34962
		},
		{
			"buffer" : 0,
			"byteOffset" : 13536,
			"byteLength" : 13536,
			"target" : 34962
		},
		{
			"buffer" : 0,
			"byteOffset" : 27072,
			"byteLength" : 13536,
			"target" : 34962
		},
		{
			"buffer" : 0,
			"byteOffset" : 40608,
			"byteLength" : 2256,
			"target" : 34963
		}
	],
	"buffers" : [
		{
			"uri" : "B333991620201063C0.bin",
			"byteLength" : 42864
		}
	]
}
