{
	"asset" : {
		"generator" : "FME 2023.1.0.0",
		"version" : "2.0"
	},
	"materials" : [
		{
			"name" : "default_material",
			"pbrMetallicRoughness" : {
				"baseColorFactor" : [ 1, 1, 1, 1 ],
				"roughnessFactor" : 0.30000000000000004,
				"metallicFactor" : 0.5
			}
		}
	],
	"meshes" : [
		{
			"primitives" : [
				{
					"attributes" : {
						"NORMAL" : 1,
						"POSITION" : 0,
						"COLOR_0" : 2
					},
					"indices" : 3,
					"material" : 0,
					"mode" : 4
				}
			]
		}
	],
	"nodes" : [
		{
			"name" : "B331371659001063C0",
			"matrix" : [ 1, 0, 0, 0, 0, 0, -1, 0, 0, 1, 0, 0, 833136.625, 3.4769999980926514, -816583.5, 1 ],
			"children" : [ 1 ]
		},
		{
			"mesh" : 0
		}
	],
	"scenes" : [
		{
			"nodes" : [ 0 ]
		}
	],
	"scene" : 0,
	"accessors" : [
		{
			"bufferView" : 0,
			"byteOffset" : 0,
			"componentType" : 5126,
			"count" : 477,
			"type" : "VEC3",
			"min" : [ -3.66259765625, -13.7470703125, 0 ],
			"max" : [ 3.662109375, 13.748046875, 22.603002548217773 ]
		},
		{
			"bufferView" : 1,
			"byteOffset" : 0,
			"componentType" : 5126,
			"count" : 477,
			"type" : "VEC3",
			"min" : [ -0.9955371618270874, -0.997458815574646, -1 ],
			"max" : [ 0.995701253414154, 0.9973658323287964, 1 ]
		},
		{
			"bufferView" : 2,
			"byteOffset" : 0,
			"componentType" : 5126,
			"count" : 477,
			"type" : "VEC3"
		},
		{
			"bufferView" : 3,
			"byteOffset" : 0,
			"componentType" : 5123,
			"count" : 477,
			"type" : "SCALAR",
			"min" : [ 0 ],
			"max" : [ 476 ]
		}
	],
	"bufferViews" : [
		{
			"buffer" : 0,
			"byteOffset" : 0,
			"byteLength" : 5724,
			"target" : 34962
		},
		{
			"buffer" : 0,
			"byteOffset" : 5724,
			"byteLength" : 5724,
			"target" : 34962
		},
		{
			"buffer" : 0,
			"byteOffset" : 11448,
			"byteLength" : 5724,
			"target" : 34962
		},
		{
			"buffer" : 0,
			"byteOffset" : 17172,
			"byteLength" : 954,
			"target" : 34963
		}
	],
	"buffers" : [
		{
			"uri" : "B331371659001063C0.bin",
			"byteLength" : 18126
		}
	]
}
