{
	"asset" : {
		"generator" : "FME 2023.1.0.0",
		"version" : "2.0"
	},
	"materials" : [
		{
			"name" : "default_material",
			"pbrMetallicRoughness" : {
				"baseColorFactor" : [ 1, 1, 1, 1 ],
				"roughnessFactor" : 0.30000000000000004,
				"metallicFactor" : 0.5
			}
		}
	],
	"meshes" : [
		{
			"primitives" : [
				{
					"attributes" : {
						"NORMAL" : 1,
						"POSITION" : 0,
						"COLOR_0" : 2
					},
					"indices" : 3,
					"material" : 0,
					"mode" : 4
				}
			]
		}
	],
	"nodes" : [
		{
			"name" : "B339571591501063C0",
			"matrix" : [ 1, 0, 0, 0, 0, 0, -1, 0, 0, 1, 0, 0, 833960.375, 33.23699951171875, -815915.25, 1 ],
			"children" : [ 1 ]
		},
		{
			"mesh" : 0
		}
	],
	"scenes" : [
		{
			"nodes" : [ 0 ]
		}
	],
	"scene" : 0,
	"accessors" : [
		{
			"bufferView" : 0,
			"byteOffset" : 0,
			"componentType" : 5126,
			"count" : 1833,
			"type" : "VEC3",
			"min" : [ -16.07421875, -8.6865234375, 0 ],
			"max" : [ 16.07421875, 8.6865234375, 54.665000915527344 ]
		},
		{
			"bufferView" : 1,
			"byteOffset" : 0,
			"componentType" : 5126,
			"count" : 1833,
			"type" : "VEC3",
			"min" : [ -0.9478411674499512, -1, -1 ],
			"max" : [ 0.9640756845474243, 0.9987305998802185, 1 ]
		},
		{
			"bufferView" : 2,
			"byteOffset" : 0,
			"componentType" : 5126,
			"count" : 1833,
			"type" : "VEC3"
		},
		{
			"bufferView" : 3,
			"byteOffset" : 0,
			"componentType" : 5123,
			"count" : 1833,
			"type" : "SCALAR",
			"min" : [ 0 ],
			"max" : [ 1832 ]
		}
	],
	"bufferViews" : [
		{
			"buffer" : 0,
			"byteOffset" : 0,
			"byteLength" : 21996,
			"target" : 34962
		},
		{
			"buffer" : 0,
			"byteOffset" : 21996,
			"byteLength" : 21996,
			"target" : 34962
		},
		{
			"buffer" : 0,
			"byteOffset" : 43992,
			"byteLength" : 21996,
			"target" : 34962
		},
		{
			"buffer" : 0,
			"byteOffset" : 65988,
			"byteLength" : 3666,
			"target" : 34963
		}
	],
	"buffers" : [
		{
			"uri" : "B339571591501063C0.bin",
			"byteLength" : 69654
		}
	]
}
