{
	"asset" : {
		"generator" : "FME 2023.2.1.0",
		"version" : "2.0"
	},
	"materials" : [
		{
			"name" : "default_material",
			"pbrMetallicRoughness" : {
				"baseColorFactor" : [ 1, 1, 1, 1 ],
				"roughnessFactor" : 0.30000000000000004,
				"metallicFactor" : 0.5
			}
		}
	],
	"meshes" : [
		{
			"primitives" : [
				{
					"attributes" : {
						"NORMAL" : 1,
						"POSITION" : 0,
						"COLOR_0" : 2
					},
					"indices" : 3,
					"material" : 0,
					"mode" : 4
				}
			]
		}
	],
	"nodes" : [
		{
			"name" : "B343531516002063C0",
			"matrix" : [ 1, 0, 0, 0, 0, 0, -1, 0, 0, 1, 0, 0, 834346.75, 81.33100128173828, -815157.125, 1 ],
			"children" : [ 1 ]
		},
		{
			"mesh" : 0
		}
	],
	"scenes" : [
		{
			"nodes" : [ 0 ]
		}
	],
	"scene" : 0,
	"accessors" : [
		{
			"bufferView" : 0,
			"byteOffset" : 0,
			"componentType" : 5126,
			"count" : 2454,
			"type" : "VEC3",
			"min" : [ -24.810546875, -24.9912109375, 0 ],
			"max" : [ 24.810546875, 24.990234375, 17.988998413085938 ]
		},
		{
			"bufferView" : 1,
			"byteOffset" : 0,
			"componentType" : 5126,
			"count" : 2454,
			"type" : "VEC3",
			"min" : [ -0.9981814622879028, -0.9987668991088867, -1 ],
			"max" : [ 0.9999074935913086, 0.9989581108093262, 1 ]
		},
		{
			"bufferView" : 2,
			"byteOffset" : 0,
			"componentType" : 5126,
			"count" : 2454,
			"type" : "VEC3"
		},
		{
			"bufferView" : 3,
			"byteOffset" : 0,
			"componentType" : 5123,
			"count" : 2454,
			"type" : "SCALAR",
			"min" : [ 0 ],
			"max" : [ 2453 ]
		}
	],
	"bufferViews" : [
		{
			"buffer" : 0,
			"byteOffset" : 0,
			"byteLength" : 29448,
			"target" : 34962
		},
		{
			"buffer" : 0,
			"byteOffset" : 29448,
			"byteLength" : 29448,
			"target" : 34962
		},
		{
			"buffer" : 0,
			"byteOffset" : 58896,
			"byteLength" : 29448,
			"target" : 34962
		},
		{
			"buffer" : 0,
			"byteOffset" : 88344,
			"byteLength" : 4908,
			"target" : 34963
		}
	],
	"buffers" : [
		{
			"uri" : "B343531516002063C0.bin",
			"byteLength" : 93252
		}
	]
}
