{
	"asset" : {
		"generator" : "FME 2022.2.4.0",
		"version" : "2.0"
	},
	"materials" : [
		{
			"name" : "default_material",
			"pbrMetallicRoughness" : {
				"baseColorFactor" : [ 1, 1, 1, 1 ],
				"roughnessFactor" : 0.30000000000000004,
				"metallicFactor" : 0.5
			}
		}
	],
	"meshes" : [
		{
			"primitives" : [
				{
					"attributes" : {
						"NORMAL" : 1,
						"POSITION" : 0,
						"COLOR_0" : 2
					},
					"indices" : 3,
					"material" : 0,
					"mode" : 4
				}
			]
		}
	],
	"nodes" : [
		{
			"name" : "B336041594301063C0",
			"matrix" : [ 1, 0, 0, 0, 0, 0, -1, 0, 0, 1, 0, 0, 833611.5625, 80.3349838256836, -815954.125, 1 ],
			"children" : [ 1 ]
		},
		{
			"mesh" : 0
		}
	],
	"scenes" : [
		{
			"nodes" : [ 0 ]
		}
	],
	"scene" : 0,
	"accessors" : [
		{
			"bufferView" : 0,
			"byteOffset" : 0,
			"componentType" : 5126,
			"count" : 7698,
			"type" : "VEC3",
			"min" : [ -15.951171875, -16.3154296875, 0 ],
			"max" : [ 15.951171875, 16.3154296875, 89.7249984741211 ]
		},
		{
			"bufferView" : 1,
			"byteOffset" : 0,
			"componentType" : 5126,
			"count" : 7698,
			"type" : "VEC3",
			"min" : [ -0.9999917149543762, -0.9999634623527527, -1 ],
			"max" : [ 0.9998173117637634, 0.9999643564224243, 1 ]
		},
		{
			"bufferView" : 2,
			"byteOffset" : 0,
			"componentType" : 5126,
			"count" : 7698,
			"type" : "VEC3"
		},
		{
			"bufferView" : 3,
			"byteOffset" : 0,
			"componentType" : 5123,
			"count" : 7698,
			"type" : "SCALAR",
			"min" : [ 0 ],
			"max" : [ 7697 ]
		}
	],
	"bufferViews" : [
		{
			"buffer" : 0,
			"byteOffset" : 0,
			"byteLength" : 92376,
			"target" : 34962
		},
		{
			"buffer" : 0,
			"byteOffset" : 92376,
			"byteLength" : 92376,
			"target" : 34962
		},
		{
			"buffer" : 0,
			"byteOffset" : 184752,
			"byteLength" : 92376,
			"target" : 34962
		},
		{
			"buffer" : 0,
			"byteOffset" : 277128,
			"byteLength" : 15396,
			"target" : 34963
		}
	],
	"buffers" : [
		{
			"uri" : "B336041594301063C0.bin",
			"byteLength" : 292524
		}
	]
}
