{
	"asset" : {
		"generator" : "FME 2023.2.1.0",
		"version" : "2.0"
	},
	"images" : [
		{
			"uri" : "T35250180000106E11_001.jpg"
		}
	],
	"samplers" : [
		{
			"wrapS" : 10497,
			"wrapT" : 10497,
			"magFilter" : 9729,
			"minFilter" : 9986
		}
	],
	"textures" : [
		{
			"source" : 0,
			"sampler" : 0
		}
	],
	"materials" : [
		{
			"name" : "T35250180000106E10_001",
			"pbrMetallicRoughness" : {
				"baseColorTexture" : {
					"index" : 0,
					"texCoord" : 0
				},
				"roughnessFactor" : 0.984375,
				"metallicFactor" : 0.5
			}
		}
	],
	"meshes" : [
		{
			"primitives" : [
				{
					"attributes" : {
						"NORMAL" : 1,
						"POSITION" : 0,
						"TEXCOORD_0" : 2
					},
					"indices" : 3,
					"material" : 0,
					"mode" : 4
				}
			]
		}
	],
	"nodes" : [
		{
			"name" : "T35250180000106E11",
			"matrix" : [ 1, 0, 0, 0, 0, 0, -1, 0, 0, 1, 0, 0, 835625, -1.7315330505371094, -818300, 1 ],
			"children" : [ 1 ]
		},
		{
			"mesh" : 0
		}
	],
	"scenes" : [
		{
			"nodes" : [ 0 ]
		}
	],
	"scene" : 0,
	"accessors" : [
		{
			"bufferView" : 0,
			"byteOffset" : 0,
			"componentType" : 5126,
			"count" : 476892,
			"type" : "VEC3",
			"min" : [ -375, -300, 0 ],
			"max" : [ 375, 300, 36.19434356689453 ]
		},
		{
			"bufferView" : 1,
			"byteOffset" : 0,
			"componentType" : 5126,
			"count" : 476892,
			"type" : "VEC3",
			"min" : [ -0.9999962449073792, -0.9997336268424988, -0.9985937476158142 ],
			"max" : [ 0.99959796667099, 1, 1 ]
		},
		{
			"bufferView" : 2,
			"byteOffset" : 0,
			"componentType" : 5126,
			"count" : 476892,
			"type" : "VEC2",
			"min" : [ 0.0005324105150066316, 0.001496732234954834 ],
			"max" : [ 0.9988020658493042, 0.9993347525596619 ]
		},
		{
			"bufferView" : 3,
			"byteOffset" : 0,
			"componentType" : 5125,
			"count" : 476892,
			"type" : "SCALAR",
			"min" : [ 0 ],
			"max" : [ 476891 ]
		}
	],
	"bufferViews" : [
		{
			"buffer" : 0,
			"byteOffset" : 0,
			"byteLength" : 5722704,
			"target" : 34962
		},
		{
			"buffer" : 0,
			"byteOffset" : 5722704,
			"byteLength" : 5722704,
			"target" : 34962
		},
		{
			"buffer" : 0,
			"byteOffset" : 11445408,
			"byteLength" : 3815136,
			"target" : 34962
		},
		{
			"buffer" : 0,
			"byteOffset" : 15260544,
			"byteLength" : 1907568,
			"target" : 34963
		}
	],
	"buffers" : [
		{
			"uri" : "T35250180000106E11.bin",
			"byteLength" : 17168112
		}
	]
}
