{
	"asset" : {
		"generator" : "FME 2023.2.2.0",
		"version" : "2.0"
	},
	"materials" : [
		{
			"name" : "default_material",
			"pbrMetallicRoughness" : {
				"baseColorFactor" : [ 1, 1, 1, 1 ],
				"roughnessFactor" : 0.30000000000000004,
				"metallicFactor" : 0.5
			}
		}
	],
	"meshes" : [
		{
			"primitives" : [
				{
					"attributes" : {
						"NORMAL" : 1,
						"POSITION" : 0,
						"COLOR_0" : 2
					},
					"indices" : 3,
					"material" : 0,
					"mode" : 4
				}
			]
		}
	],
	"nodes" : [
		{
			"name" : "B171631443901062G0",
			"matrix" : [ 1, 0, 0, 0, 0, 0, -1, 0, 0, 1, 0, 0, 817163.125, 10.160499572753906, -814438.875, 1 ],
			"children" : [ 1 ]
		},
		{
			"mesh" : 0
		}
	],
	"scenes" : [
		{
			"nodes" : [ 0 ]
		}
	],
	"scene" : 0,
	"accessors" : [
		{
			"bufferView" : 0,
			"byteOffset" : 0,
			"componentType" : 5126,
			"count" : 636,
			"type" : "VEC3",
			"min" : [ -6.0625, -6.0625, 0 ],
			"max" : [ 6, 6.0625, 10.389101028442383 ]
		},
		{
			"bufferView" : 1,
			"byteOffset" : 0,
			"componentType" : 5126,
			"count" : 636,
			"type" : "VEC3",
			"min" : [ -0.9723791480064392, -0.9805800318717957, -1 ],
			"max" : [ 0.9723791480064392, 0.9805800318717957, 1 ]
		},
		{
			"bufferView" : 2,
			"byteOffset" : 0,
			"componentType" : 5126,
			"count" : 636,
			"type" : "VEC3"
		},
		{
			"bufferView" : 3,
			"byteOffset" : 0,
			"componentType" : 5123,
			"count" : 636,
			"type" : "SCALAR",
			"min" : [ 0 ],
			"max" : [ 635 ]
		}
	],
	"bufferViews" : [
		{
			"buffer" : 0,
			"byteOffset" : 0,
			"byteLength" : 7632,
			"target" : 34962
		},
		{
			"buffer" : 0,
			"byteOffset" : 7632,
			"byteLength" : 7632,
			"target" : 34962
		},
		{
			"buffer" : 0,
			"byteOffset" : 15264,
			"byteLength" : 7632,
			"target" : 34962
		},
		{
			"buffer" : 0,
			"byteOffset" : 22896,
			"byteLength" : 1272,
			"target" : 34963
		}
	],
	"buffers" : [
		{
			"uri" : "B171631443901062G0.bin",
			"byteLength" : 24168
		}
	]
}
