{
	"asset" : {
		"generator" : "FME 2023.1.0.0",
		"version" : "2.0"
	},
	"materials" : [
		{
			"name" : "default_material",
			"pbrMetallicRoughness" : {
				"baseColorFactor" : [ 1, 1, 1, 1 ],
				"roughnessFactor" : 0.30000000000000004,
				"metallicFactor" : 0.5
			}
		}
	],
	"meshes" : [
		{
			"primitives" : [
				{
					"attributes" : {
						"NORMAL" : 1,
						"POSITION" : 0,
						"COLOR_0" : 2
					},
					"indices" : 3,
					"material" : 0,
					"mode" : 4
				}
			]
		}
	],
	"nodes" : [
		{
			"name" : "B356401544602063C0",
			"matrix" : [ 1, 0, 0, 0, 0, 0, -1, 0, 0, 1, 0, 0, 835640.0625, 3.5799999237060547, -815446.625, 1 ],
			"children" : [ 1 ]
		},
		{
			"mesh" : 0
		}
	],
	"scenes" : [
		{
			"nodes" : [ 0 ]
		}
	],
	"scene" : 0,
	"accessors" : [
		{
			"bufferView" : 0,
			"byteOffset" : 0,
			"componentType" : 5126,
			"count" : 54,
			"type" : "VEC3",
			"min" : [ -9.212890625, -3.4775390625, 0 ],
			"max" : [ 9.212890625, 3.4765625, 15.145000457763672 ]
		},
		{
			"bufferView" : 1,
			"byteOffset" : 0,
			"componentType" : 5126,
			"count" : 54,
			"type" : "VEC3",
			"min" : [ -0.9956684708595276, -0.9964659810066223, -0.0023610813077539206 ],
			"max" : [ 0.9954493641853333, 0.9942041635513306, 1 ]
		},
		{
			"bufferView" : 2,
			"byteOffset" : 0,
			"componentType" : 5126,
			"count" : 54,
			"type" : "VEC3"
		},
		{
			"bufferView" : 3,
			"byteOffset" : 0,
			"componentType" : 5121,
			"count" : 54,
			"type" : "SCALAR",
			"min" : [ 0 ],
			"max" : [ 53 ]
		}
	],
	"bufferViews" : [
		{
			"buffer" : 0,
			"byteOffset" : 0,
			"byteLength" : 648,
			"target" : 34962
		},
		{
			"buffer" : 0,
			"byteOffset" : 648,
			"byteLength" : 648,
			"target" : 34962
		},
		{
			"buffer" : 0,
			"byteOffset" : 1296,
			"byteLength" : 648,
			"target" : 34962
		},
		{
			"buffer" : 0,
			"byteOffset" : 1944,
			"byteLength" : 54,
			"target" : 34963
		}
	],
	"buffers" : [
		{
			"uri" : "B356401544602063C0.bin",
			"byteLength" : 1998
		}
	]
}
