{
	"asset" : {
		"generator" : "FME 2023.2.1.0",
		"version" : "2.0"
	},
	"materials" : [
		{
			"name" : "default_material",
			"pbrMetallicRoughness" : {
				"baseColorFactor" : [ 1, 1, 1, 1 ],
				"roughnessFactor" : 0.30000000000000004,
				"metallicFactor" : 0.5
			}
		}
	],
	"meshes" : [
		{
			"primitives" : [
				{
					"attributes" : {
						"NORMAL" : 1,
						"POSITION" : 0,
						"COLOR_0" : 2
					},
					"indices" : 3,
					"material" : 0,
					"mode" : 4
				}
			]
		}
	],
	"nodes" : [
		{
			"name" : "B346911594001063C0",
			"matrix" : [ 1, 0, 0, 0, 0, 0, -1, 0, 0, 1, 0, 0, 834719, 2.451748847961426, -815939.75, 1 ],
			"children" : [ 1 ]
		},
		{
			"mesh" : 0
		}
	],
	"scenes" : [
		{
			"nodes" : [ 0 ]
		}
	],
	"scene" : 0,
	"accessors" : [
		{
			"bufferView" : 0,
			"byteOffset" : 0,
			"componentType" : 5126,
			"count" : 11139,
			"type" : "VEC3",
			"min" : [ -54.3203125, -37.369140625, 0 ],
			"max" : [ 54.359375, 37.2890625, 23.10000228881836 ]
		},
		{
			"bufferView" : 1,
			"byteOffset" : 0,
			"componentType" : 5126,
			"count" : 11139,
			"type" : "VEC3",
			"min" : [ -1, -1, -1 ],
			"max" : [ 0.9987523555755615, 1, 1 ]
		},
		{
			"bufferView" : 2,
			"byteOffset" : 0,
			"componentType" : 5126,
			"count" : 11139,
			"type" : "VEC3"
		},
		{
			"bufferView" : 3,
			"byteOffset" : 0,
			"componentType" : 5123,
			"count" : 11139,
			"type" : "SCALAR",
			"min" : [ 0 ],
			"max" : [ 11138 ]
		}
	],
	"bufferViews" : [
		{
			"buffer" : 0,
			"byteOffset" : 0,
			"byteLength" : 133668,
			"target" : 34962
		},
		{
			"buffer" : 0,
			"byteOffset" : 133668,
			"byteLength" : 133668,
			"target" : 34962
		},
		{
			"buffer" : 0,
			"byteOffset" : 267336,
			"byteLength" : 133668,
			"target" : 34962
		},
		{
			"buffer" : 0,
			"byteOffset" : 401004,
			"byteLength" : 22278,
			"target" : 34963
		}
	],
	"buffers" : [
		{
			"uri" : "B346911594001063C0.bin",
			"byteLength" : 423282
		}
	]
}
