{
	"asset" : {
		"generator" : "FME 2023.1.0.0",
		"version" : "2.0"
	},
	"materials" : [
		{
			"name" : "default_material",
			"pbrMetallicRoughness" : {
				"baseColorFactor" : [ 1, 1, 1, 1 ],
				"roughnessFactor" : 0.30000000000000004,
				"metallicFactor" : 0.5
			}
		}
	],
	"meshes" : [
		{
			"primitives" : [
				{
					"attributes" : {
						"NORMAL" : 1,
						"POSITION" : 0,
						"COLOR_0" : 2
					},
					"indices" : 3,
					"material" : 0,
					"mode" : 4
				}
			]
		}
	],
	"nodes" : [
		{
			"name" : "B332141638901063C0",
			"matrix" : [ 1, 0, 0, 0, 0, 0, -1, 0, 0, 1, 0, 0, 833220.25, 6.034999847412109, -816384.4375, 1 ],
			"children" : [ 1 ]
		},
		{
			"mesh" : 0
		}
	],
	"scenes" : [
		{
			"nodes" : [ 0 ]
		}
	],
	"scene" : 0,
	"accessors" : [
		{
			"bufferView" : 0,
			"byteOffset" : 0,
			"componentType" : 5126,
			"count" : 1668,
			"type" : "VEC3",
			"min" : [ -9.6650390625, -10.548828125, 0 ],
			"max" : [ 9.6650390625, 10.548828125, 22.60300064086914 ]
		},
		{
			"bufferView" : 1,
			"byteOffset" : 0,
			"componentType" : 5126,
			"count" : 1668,
			"type" : "VEC3",
			"min" : [ -0.8559685349464417, -0.9059229493141174, -1 ],
			"max" : [ 0.9284767508506775, 0.9065167307853699, 1 ]
		},
		{
			"bufferView" : 2,
			"byteOffset" : 0,
			"componentType" : 5126,
			"count" : 1668,
			"type" : "VEC3"
		},
		{
			"bufferView" : 3,
			"byteOffset" : 0,
			"componentType" : 5123,
			"count" : 1668,
			"type" : "SCALAR",
			"min" : [ 0 ],
			"max" : [ 1667 ]
		}
	],
	"bufferViews" : [
		{
			"buffer" : 0,
			"byteOffset" : 0,
			"byteLength" : 20016,
			"target" : 34962
		},
		{
			"buffer" : 0,
			"byteOffset" : 20016,
			"byteLength" : 20016,
			"target" : 34962
		},
		{
			"buffer" : 0,
			"byteOffset" : 40032,
			"byteLength" : 20016,
			"target" : 34962
		},
		{
			"buffer" : 0,
			"byteOffset" : 60048,
			"byteLength" : 3336,
			"target" : 34963
		}
	],
	"buffers" : [
		{
			"uri" : "B332141638901063C0.bin",
			"byteLength" : 63384
		}
	]
}
