{
	"asset" : {
		"generator" : "FME 2023.1.0.0",
		"version" : "2.0"
	},
	"materials" : [
		{
			"name" : "default_material",
			"pbrMetallicRoughness" : {
				"baseColorFactor" : [ 1, 1, 1, 1 ],
				"roughnessFactor" : 0.30000000000000004,
				"metallicFactor" : 0.5
			}
		}
	],
	"meshes" : [
		{
			"primitives" : [
				{
					"attributes" : {
						"NORMAL" : 1,
						"POSITION" : 0,
						"COLOR_0" : 2
					},
					"indices" : 3,
					"material" : 0,
					"mode" : 4
				}
			]
		}
	],
	"nodes" : [
		{
			"name" : "B337031552201063C0",
			"matrix" : [ 1, 0, 0, 0, 0, 0, -1, 0, 0, 1, 0, 0, 833703.5625, 153.06399536132812, -815523.875, 1 ],
			"children" : [ 1 ]
		},
		{
			"mesh" : 0
		}
	],
	"scenes" : [
		{
			"nodes" : [ 0 ]
		}
	],
	"scene" : 0,
	"accessors" : [
		{
			"bufferView" : 0,
			"byteOffset" : 0,
			"componentType" : 5126,
			"count" : 1926,
			"type" : "VEC3",
			"min" : [ -12.3935546875, -11.4638671875, 0 ],
			"max" : [ 12.39453125, 11.462890625, 96.72200012207031 ]
		},
		{
			"bufferView" : 1,
			"byteOffset" : 0,
			"componentType" : 5126,
			"count" : 1926,
			"type" : "VEC3",
			"min" : [ -0.7755176424980164, -0.7763000130653381, -1 ],
			"max" : [ 0.7776802182197571, 0.7763000130653381, 1 ]
		},
		{
			"bufferView" : 2,
			"byteOffset" : 0,
			"componentType" : 5126,
			"count" : 1926,
			"type" : "VEC3"
		},
		{
			"bufferView" : 3,
			"byteOffset" : 0,
			"componentType" : 5123,
			"count" : 1926,
			"type" : "SCALAR",
			"min" : [ 0 ],
			"max" : [ 1925 ]
		}
	],
	"bufferViews" : [
		{
			"buffer" : 0,
			"byteOffset" : 0,
			"byteLength" : 23112,
			"target" : 34962
		},
		{
			"buffer" : 0,
			"byteOffset" : 23112,
			"byteLength" : 23112,
			"target" : 34962
		},
		{
			"buffer" : 0,
			"byteOffset" : 46224,
			"byteLength" : 23112,
			"target" : 34962
		},
		{
			"buffer" : 0,
			"byteOffset" : 69336,
			"byteLength" : 3852,
			"target" : 34963
		}
	],
	"buffers" : [
		{
			"uri" : "B337031552201063C0.bin",
			"byteLength" : 73188
		}
	]
}
