{
	"asset" : {
		"generator" : "FME 2023.1.0.0",
		"version" : "2.0"
	},
	"materials" : [
		{
			"name" : "default_material",
			"pbrMetallicRoughness" : {
				"baseColorFactor" : [ 1, 1, 1, 1 ],
				"roughnessFactor" : 0.30000000000000004,
				"metallicFactor" : 0.5
			}
		}
	],
	"meshes" : [
		{
			"primitives" : [
				{
					"attributes" : {
						"NORMAL" : 1,
						"POSITION" : 0,
						"COLOR_0" : 2
					},
					"indices" : 3,
					"material" : 0,
					"mode" : 4
				}
			]
		}
	],
	"nodes" : [
		{
			"name" : "B335091555701063C0",
			"matrix" : [ 1, 0, 0, 0, 0, 0, -1, 0, 0, 1, 0, 0, 833500.3125, 162.4210205078125, -815557.375, 1 ],
			"children" : [ 1 ]
		},
		{
			"mesh" : 0
		}
	],
	"scenes" : [
		{
			"nodes" : [ 0 ]
		}
	],
	"scene" : 0,
	"accessors" : [
		{
			"bufferView" : 0,
			"byteOffset" : 0,
			"componentType" : 5126,
			"count" : 1875,
			"type" : "VEC3",
			"min" : [ -13.23046875, -12.8046875, 0 ],
			"max" : [ 13.23046875, 12.8046875, 35.7919921875 ]
		},
		{
			"bufferView" : 1,
			"byteOffset" : 0,
			"componentType" : 5126,
			"count" : 1875,
			"type" : "VEC3",
			"min" : [ -0.9178332090377808, -0.9178571105003357, -1 ],
			"max" : [ 0.9180780053138733, 0.9179948568344116, 1 ]
		},
		{
			"bufferView" : 2,
			"byteOffset" : 0,
			"componentType" : 5126,
			"count" : 1875,
			"type" : "VEC3"
		},
		{
			"bufferView" : 3,
			"byteOffset" : 0,
			"componentType" : 5123,
			"count" : 1875,
			"type" : "SCALAR",
			"min" : [ 0 ],
			"max" : [ 1874 ]
		}
	],
	"bufferViews" : [
		{
			"buffer" : 0,
			"byteOffset" : 0,
			"byteLength" : 22500,
			"target" : 34962
		},
		{
			"buffer" : 0,
			"byteOffset" : 22500,
			"byteLength" : 22500,
			"target" : 34962
		},
		{
			"buffer" : 0,
			"byteOffset" : 45000,
			"byteLength" : 22500,
			"target" : 34962
		},
		{
			"buffer" : 0,
			"byteOffset" : 67500,
			"byteLength" : 3750,
			"target" : 34963
		}
	],
	"buffers" : [
		{
			"uri" : "B335091555701063C0.bin",
			"byteLength" : 71250
		}
	]
}
