{
	"asset" : {
		"generator" : "FME 2023.1.0.0",
		"version" : "2.0"
	},
	"materials" : [
		{
			"name" : "default_material",
			"pbrMetallicRoughness" : {
				"baseColorFactor" : [ 1, 1, 1, 1 ],
				"roughnessFactor" : 0.30000000000000004,
				"metallicFactor" : 0.5
			}
		}
	],
	"meshes" : [
		{
			"primitives" : [
				{
					"attributes" : {
						"NORMAL" : 1,
						"POSITION" : 0,
						"COLOR_0" : 2
					},
					"indices" : 3,
					"material" : 0,
					"mode" : 4
				}
			]
		}
	],
	"nodes" : [
		{
			"name" : "B337851600001063C0",
			"matrix" : [ 1, 0, 0, 0, 0, 0, -1, 0, 0, 1, 0, 0, 833783.375, 33.15700149536133, -815996.5625, 1 ],
			"children" : [ 1 ]
		},
		{
			"mesh" : 0
		}
	],
	"scenes" : [
		{
			"nodes" : [ 0 ]
		}
	],
	"scene" : 0,
	"accessors" : [
		{
			"bufferView" : 0,
			"byteOffset" : 0,
			"componentType" : 5126,
			"count" : 531,
			"type" : "VEC3",
			"min" : [ -5.818359375, -6.4873046875, 0 ],
			"max" : [ 5.720703125, 6.513671875, 17.882999420166016 ]
		},
		{
			"bufferView" : 1,
			"byteOffset" : 0,
			"componentType" : 5126,
			"count" : 531,
			"type" : "VEC3",
			"min" : [ -0.7609835863113403, -0.7978287935256958, -1 ],
			"max" : [ 0.7395639419555664, 0.7180865406990051, 1 ]
		},
		{
			"bufferView" : 2,
			"byteOffset" : 0,
			"componentType" : 5126,
			"count" : 531,
			"type" : "VEC3"
		},
		{
			"bufferView" : 3,
			"byteOffset" : 0,
			"componentType" : 5123,
			"count" : 531,
			"type" : "SCALAR",
			"min" : [ 0 ],
			"max" : [ 530 ]
		}
	],
	"bufferViews" : [
		{
			"buffer" : 0,
			"byteOffset" : 0,
			"byteLength" : 6372,
			"target" : 34962
		},
		{
			"buffer" : 0,
			"byteOffset" : 6372,
			"byteLength" : 6372,
			"target" : 34962
		},
		{
			"buffer" : 0,
			"byteOffset" : 12744,
			"byteLength" : 6372,
			"target" : 34962
		},
		{
			"buffer" : 0,
			"byteOffset" : 19116,
			"byteLength" : 1062,
			"target" : 34963
		}
	],
	"buffers" : [
		{
			"uri" : "B337851600001063C0.bin",
			"byteLength" : 20178
		}
	]
}
