{
	"asset" : {
		"generator" : "FME 2023.1.0.0",
		"version" : "2.0"
	},
	"materials" : [
		{
			"name" : "default_material",
			"pbrMetallicRoughness" : {
				"baseColorFactor" : [ 1, 1, 1, 1 ],
				"roughnessFactor" : 0.30000000000000004,
				"metallicFactor" : 0.5
			}
		}
	],
	"meshes" : [
		{
			"primitives" : [
				{
					"attributes" : {
						"NORMAL" : 1,
						"POSITION" : 0,
						"COLOR_0" : 2
					},
					"indices" : 3,
					"material" : 0,
					"mode" : 4
				}
			]
		}
	],
	"nodes" : [
		{
			"name" : "B336611643301063C0",
			"matrix" : [ 1, 0, 0, 0, 0, 0, -1, 0, 0, 1, 0, 0, 833664.6875, 3.3600008487701416, -816440.125, 1 ],
			"children" : [ 1 ]
		},
		{
			"mesh" : 0
		}
	],
	"scenes" : [
		{
			"nodes" : [ 0 ]
		}
	],
	"scene" : 0,
	"accessors" : [
		{
			"bufferView" : 0,
			"byteOffset" : 0,
			"componentType" : 5126,
			"count" : 645,
			"type" : "VEC3",
			"min" : [ -5.119140625, -12.0361328125, 0 ],
			"max" : [ 5.119140625, 12.03515625, 23.105998992919922 ]
		},
		{
			"bufferView" : 1,
			"byteOffset" : 0,
			"componentType" : 5126,
			"count" : 645,
			"type" : "VEC3",
			"min" : [ -0.9692723751068115, -0.9711364507675171, -1 ],
			"max" : [ 0.9683567881584167, 0.9679604768753052, 1 ]
		},
		{
			"bufferView" : 2,
			"byteOffset" : 0,
			"componentType" : 5126,
			"count" : 645,
			"type" : "VEC3"
		},
		{
			"bufferView" : 3,
			"byteOffset" : 0,
			"componentType" : 5123,
			"count" : 645,
			"type" : "SCALAR",
			"min" : [ 0 ],
			"max" : [ 644 ]
		}
	],
	"bufferViews" : [
		{
			"buffer" : 0,
			"byteOffset" : 0,
			"byteLength" : 7740,
			"target" : 34962
		},
		{
			"buffer" : 0,
			"byteOffset" : 7740,
			"byteLength" : 7740,
			"target" : 34962
		},
		{
			"buffer" : 0,
			"byteOffset" : 15480,
			"byteLength" : 7740,
			"target" : 34962
		},
		{
			"buffer" : 0,
			"byteOffset" : 23220,
			"byteLength" : 1290,
			"target" : 34963
		}
	],
	"buffers" : [
		{
			"uri" : "B336611643301063C0.bin",
			"byteLength" : 24510
		}
	]
}
