{
	"asset" : {
		"generator" : "FME 2022.2.4.0",
		"version" : "2.0"
	},
	"materials" : [
		{
			"name" : "default_material",
			"pbrMetallicRoughness" : {
				"baseColorFactor" : [ 1, 1, 1, 1 ],
				"roughnessFactor" : 0.30000000000000004,
				"metallicFactor" : 0.5
			}
		}
	],
	"meshes" : [
		{
			"primitives" : [
				{
					"attributes" : {
						"NORMAL" : 1,
						"POSITION" : 0,
						"COLOR_0" : 2
					},
					"indices" : 3,
					"material" : 0,
					"mode" : 4
				}
			]
		}
	],
	"nodes" : [
		{
			"name" : "B176971508901062G0",
			"matrix" : [ 1, 0, 0, 0, 0, 0, -1, 0, 0, 1, 0, 0, 817696.625, 34.23080062866211, -815087.75, 1 ],
			"children" : [ 1 ]
		},
		{
			"mesh" : 0
		}
	],
	"scenes" : [
		{
			"nodes" : [ 0 ]
		}
	],
	"scene" : 0,
	"accessors" : [
		{
			"bufferView" : 0,
			"byteOffset" : 0,
			"componentType" : 5126,
			"count" : 135,
			"type" : "VEC3",
			"min" : [ -3.8125, -3.9375, 0 ],
			"max" : [ 3.8125, 4, 2.903900146484375 ]
		},
		{
			"bufferView" : 1,
			"byteOffset" : 0,
			"componentType" : 5126,
			"count" : 135,
			"type" : "VEC3",
			"min" : [ -0.9791154861450195, -0.9786353707313538, -0.9971985220909119 ],
			"max" : [ 0.9786353707313538, 0.9788696765899658, 1 ]
		},
		{
			"bufferView" : 2,
			"byteOffset" : 0,
			"componentType" : 5126,
			"count" : 135,
			"type" : "VEC3"
		},
		{
			"bufferView" : 3,
			"byteOffset" : 0,
			"componentType" : 5121,
			"count" : 135,
			"type" : "SCALAR",
			"min" : [ 0 ],
			"max" : [ 134 ]
		}
	],
	"bufferViews" : [
		{
			"buffer" : 0,
			"byteOffset" : 0,
			"byteLength" : 1620,
			"target" : 34962
		},
		{
			"buffer" : 0,
			"byteOffset" : 1620,
			"byteLength" : 1620,
			"target" : 34962
		},
		{
			"buffer" : 0,
			"byteOffset" : 3240,
			"byteLength" : 1620,
			"target" : 34962
		},
		{
			"buffer" : 0,
			"byteOffset" : 4860,
			"byteLength" : 135,
			"target" : 34963
		}
	],
	"buffers" : [
		{
			"uri" : "B176971508901062G0.bin",
			"byteLength" : 4995
		}
	]
}
