{
	"asset" : {
		"generator" : "FME 2023.2.2.0",
		"version" : "2.0"
	},
	"materials" : [
		{
			"name" : "default_material",
			"pbrMetallicRoughness" : {
				"baseColorFactor" : [ 1, 1, 1, 1 ],
				"roughnessFactor" : 0.30000000000000004,
				"metallicFactor" : 0.5
			}
		}
	],
	"meshes" : [
		{
			"primitives" : [
				{
					"attributes" : {
						"NORMAL" : 1,
						"POSITION" : 0,
						"COLOR_0" : 2
					},
					"indices" : 3,
					"material" : 0,
					"mode" : 4
				}
			]
		}
	],
	"nodes" : [
		{
			"name" : "B169281446201062G0",
			"matrix" : [ 1, 0, 0, 0, 0, 0, -1, 0, 0, 1, 0, 0, 816929.25, 16.58139991760254, -814462.0625, 1 ],
			"children" : [ 1 ]
		},
		{
			"mesh" : 0
		}
	],
	"scenes" : [
		{
			"nodes" : [ 0 ]
		}
	],
	"scene" : 0,
	"accessors" : [
		{
			"bufferView" : 0,
			"byteOffset" : 0,
			"componentType" : 5126,
			"count" : 57,
			"type" : "VEC3",
			"min" : [ -3.3125, -3.125, 0 ],
			"max" : [ 3.3125, 3.125, 5.2014007568359375 ]
		},
		{
			"bufferView" : 1,
			"byteOffset" : 0,
			"componentType" : 5126,
			"count" : 57,
			"type" : "VEC3",
			"min" : [ -0.7456912398338318, -0.7455943822860718, 0 ],
			"max" : [ 0.7455081343650818, 0.7455064058303833, 1 ]
		},
		{
			"bufferView" : 2,
			"byteOffset" : 0,
			"componentType" : 5126,
			"count" : 57,
			"type" : "VEC3"
		},
		{
			"bufferView" : 3,
			"byteOffset" : 0,
			"componentType" : 5121,
			"count" : 57,
			"type" : "SCALAR",
			"min" : [ 0 ],
			"max" : [ 56 ]
		}
	],
	"bufferViews" : [
		{
			"buffer" : 0,
			"byteOffset" : 0,
			"byteLength" : 684,
			"target" : 34962
		},
		{
			"buffer" : 0,
			"byteOffset" : 684,
			"byteLength" : 684,
			"target" : 34962
		},
		{
			"buffer" : 0,
			"byteOffset" : 1368,
			"byteLength" : 684,
			"target" : 34962
		},
		{
			"buffer" : 0,
			"byteOffset" : 2052,
			"byteLength" : 57,
			"target" : 34963
		}
	],
	"buffers" : [
		{
			"uri" : "B169281446201062G0.bin",
			"byteLength" : 2109
		}
	]
}
