{
	"asset" : {
		"generator" : "FME 2022.2.4.0",
		"version" : "2.0"
	},
	"materials" : [
		{
			"name" : "default_material",
			"pbrMetallicRoughness" : {
				"baseColorFactor" : [ 1, 1, 1, 1 ],
				"roughnessFactor" : 0.30000000000000004,
				"metallicFactor" : 0.5
			}
		}
	],
	"meshes" : [
		{
			"primitives" : [
				{
					"attributes" : {
						"NORMAL" : 1,
						"POSITION" : 0,
						"COLOR_0" : 2
					},
					"indices" : 3,
					"material" : 0,
					"mode" : 4
				}
			]
		}
	],
	"nodes" : [
		{
			"name" : "B331281647501063C0",
			"matrix" : [ 1, 0, 0, 0, 0, 0, -1, 0, 0, 1, 0, 0, 833129.9375, 3.265000104904175, -816485, 1 ],
			"children" : [ 1 ]
		},
		{
			"mesh" : 0
		}
	],
	"scenes" : [
		{
			"nodes" : [ 0 ]
		}
	],
	"scene" : 0,
	"accessors" : [
		{
			"bufferView" : 0,
			"byteOffset" : 0,
			"componentType" : 5126,
			"count" : 1143,
			"type" : "VEC3",
			"min" : [ -3.6943359375, -13.919921875, 0 ],
			"max" : [ 3.69482421875, 13.919921875, 22.756999969482422 ]
		},
		{
			"bufferView" : 1,
			"byteOffset" : 0,
			"componentType" : 5126,
			"count" : 1143,
			"type" : "VEC3",
			"min" : [ -0.9974033832550049, -0.9985875487327576, -1 ],
			"max" : [ 0.9985260963439941, 0.9985011219978333, 1 ]
		},
		{
			"bufferView" : 2,
			"byteOffset" : 0,
			"componentType" : 5126,
			"count" : 1143,
			"type" : "VEC3"
		},
		{
			"bufferView" : 3,
			"byteOffset" : 0,
			"componentType" : 5123,
			"count" : 1143,
			"type" : "SCALAR",
			"min" : [ 0 ],
			"max" : [ 1142 ]
		}
	],
	"bufferViews" : [
		{
			"buffer" : 0,
			"byteOffset" : 0,
			"byteLength" : 13716,
			"target" : 34962
		},
		{
			"buffer" : 0,
			"byteOffset" : 13716,
			"byteLength" : 13716,
			"target" : 34962
		},
		{
			"buffer" : 0,
			"byteOffset" : 27432,
			"byteLength" : 13716,
			"target" : 34962
		},
		{
			"buffer" : 0,
			"byteOffset" : 41148,
			"byteLength" : 2286,
			"target" : 34963
		}
	],
	"buffers" : [
		{
			"uri" : "B331281647501063C0.bin",
			"byteLength" : 43434
		}
	]
}
