{
	"asset" : {
		"generator" : "FME 2023.1.0.0",
		"version" : "2.0"
	},
	"materials" : [
		{
			"name" : "default_material",
			"pbrMetallicRoughness" : {
				"baseColorFactor" : [ 1, 1, 1, 1 ],
				"roughnessFactor" : 0.30000000000000004,
				"metallicFactor" : 0.5
			}
		}
	],
	"meshes" : [
		{
			"primitives" : [
				{
					"attributes" : {
						"NORMAL" : 1,
						"POSITION" : 0,
						"COLOR_0" : 2
					},
					"indices" : 3,
					"material" : 0,
					"mode" : 4
				}
			]
		}
	],
	"nodes" : [
		{
			"name" : "B339651563902063C0",
			"matrix" : [ 1, 0, 0, 0, 0, 0, -1, 0, 0, 1, 0, 0, 833965.125, 52.941001892089844, -815638.75, 1 ],
			"children" : [ 1 ]
		},
		{
			"mesh" : 0
		}
	],
	"scenes" : [
		{
			"nodes" : [ 0 ]
		}
	],
	"scene" : 0,
	"accessors" : [
		{
			"bufferView" : 0,
			"byteOffset" : 0,
			"componentType" : 5126,
			"count" : 423,
			"type" : "VEC3",
			"min" : [ -8.5771484375, -10.09765625, 0 ],
			"max" : [ 8.578125, 10.0986328125, 17.057998657226562 ]
		},
		{
			"bufferView" : 1,
			"byteOffset" : 0,
			"componentType" : 5126,
			"count" : 423,
			"type" : "VEC3",
			"min" : [ -0.985313355922699, -0.9926938414573669, -1 ],
			"max" : [ 1, 0.9821736812591553, 1 ]
		},
		{
			"bufferView" : 2,
			"byteOffset" : 0,
			"componentType" : 5126,
			"count" : 423,
			"type" : "VEC3"
		},
		{
			"bufferView" : 3,
			"byteOffset" : 0,
			"componentType" : 5123,
			"count" : 423,
			"type" : "SCALAR",
			"min" : [ 0 ],
			"max" : [ 422 ]
		}
	],
	"bufferViews" : [
		{
			"buffer" : 0,
			"byteOffset" : 0,
			"byteLength" : 5076,
			"target" : 34962
		},
		{
			"buffer" : 0,
			"byteOffset" : 5076,
			"byteLength" : 5076,
			"target" : 34962
		},
		{
			"buffer" : 0,
			"byteOffset" : 10152,
			"byteLength" : 5076,
			"target" : 34962
		},
		{
			"buffer" : 0,
			"byteOffset" : 15228,
			"byteLength" : 846,
			"target" : 34963
		}
	],
	"buffers" : [
		{
			"uri" : "B339651563902063C0.bin",
			"byteLength" : 16074
		}
	]
}
