{
	"asset" : {
		"generator" : "FME 2022.2.4.0",
		"version" : "2.0"
	},
	"materials" : [
		{
			"name" : "default_material",
			"pbrMetallicRoughness" : {
				"baseColorFactor" : [ 1, 1, 1, 1 ],
				"roughnessFactor" : 0.30000000000000004,
				"metallicFactor" : 0.5
			}
		}
	],
	"meshes" : [
		{
			"primitives" : [
				{
					"attributes" : {
						"NORMAL" : 1,
						"POSITION" : 0,
						"COLOR_0" : 2
					},
					"indices" : 3,
					"material" : 0,
					"mode" : 4
				}
			]
		}
	],
	"nodes" : [
		{
			"name" : "B334301631702063C0",
			"matrix" : [ 1, 0, 0, 0, 0, 0, -1, 0, 0, 1, 0, 0, 833431.25, 7.215999126434326, -816317.8125, 1 ],
			"children" : [ 1 ]
		},
		{
			"mesh" : 0
		}
	],
	"scenes" : [
		{
			"nodes" : [ 0 ]
		}
	],
	"scene" : 0,
	"accessors" : [
		{
			"bufferView" : 0,
			"byteOffset" : 0,
			"componentType" : 5126,
			"count" : 1323,
			"type" : "VEC3",
			"min" : [ -16.0439453125, -16.2470703125, 0 ],
			"max" : [ 16.044921875, 16.248046875, 17.08599853515625 ]
		},
		{
			"bufferView" : 1,
			"byteOffset" : 0,
			"componentType" : 5126,
			"count" : 1323,
			"type" : "VEC3",
			"min" : [ -0.9824839234352112, -0.9740972518920898, -1 ],
			"max" : [ 0.975054919719696, 0.9750473499298096, 1 ]
		},
		{
			"bufferView" : 2,
			"byteOffset" : 0,
			"componentType" : 5126,
			"count" : 1323,
			"type" : "VEC3"
		},
		{
			"bufferView" : 3,
			"byteOffset" : 0,
			"componentType" : 5123,
			"count" : 1323,
			"type" : "SCALAR",
			"min" : [ 0 ],
			"max" : [ 1322 ]
		}
	],
	"bufferViews" : [
		{
			"buffer" : 0,
			"byteOffset" : 0,
			"byteLength" : 15876,
			"target" : 34962
		},
		{
			"buffer" : 0,
			"byteOffset" : 15876,
			"byteLength" : 15876,
			"target" : 34962
		},
		{
			"buffer" : 0,
			"byteOffset" : 31752,
			"byteLength" : 15876,
			"target" : 34962
		},
		{
			"buffer" : 0,
			"byteOffset" : 47628,
			"byteLength" : 2646,
			"target" : 34963
		}
	],
	"buffers" : [
		{
			"uri" : "B334301631702063C0.bin",
			"byteLength" : 50274
		}
	]
}
