{
	"asset" : {
		"generator" : "FME 2023.2.1.0",
		"version" : "2.0"
	},
	"materials" : [
		{
			"name" : "default_material",
			"pbrMetallicRoughness" : {
				"baseColorFactor" : [ 1, 1, 1, 1 ],
				"roughnessFactor" : 0.30000000000000004,
				"metallicFactor" : 0.5
			}
		}
	],
	"meshes" : [
		{
			"primitives" : [
				{
					"attributes" : {
						"NORMAL" : 1,
						"POSITION" : 0,
						"COLOR_0" : 2
					},
					"indices" : 3,
					"material" : 0,
					"mode" : 4
				}
			]
		}
	],
	"nodes" : [
		{
			"name" : "B170051476501062G0",
			"matrix" : [ 1, 0, 0, 0, 0, 0, -1, 0, 0, 1, 0, 0, 817006.5, 21.513200759887695, -814763.125, 1 ],
			"children" : [ 1 ]
		},
		{
			"mesh" : 0
		}
	],
	"scenes" : [
		{
			"nodes" : [ 0 ]
		}
	],
	"scene" : 0,
	"accessors" : [
		{
			"bufferView" : 0,
			"byteOffset" : 0,
			"componentType" : 5126,
			"count" : 246,
			"type" : "VEC3",
			"min" : [ -5.625, -5.375, 0 ],
			"max" : [ 5.6875, 5.3125, 8.735799789428711 ]
		},
		{
			"bufferView" : 1,
			"byteOffset" : 0,
			"componentType" : 5126,
			"count" : 246,
			"type" : "VEC3",
			"min" : [ -0.7686208486557007, -0.7687945365905762, -1 ],
			"max" : [ 0.7746612429618835, 0.7684736847877502, 1 ]
		},
		{
			"bufferView" : 2,
			"byteOffset" : 0,
			"componentType" : 5126,
			"count" : 246,
			"type" : "VEC3"
		},
		{
			"bufferView" : 3,
			"byteOffset" : 0,
			"componentType" : 5121,
			"count" : 246,
			"type" : "SCALAR",
			"min" : [ 0 ],
			"max" : [ 245 ]
		}
	],
	"bufferViews" : [
		{
			"buffer" : 0,
			"byteOffset" : 0,
			"byteLength" : 2952,
			"target" : 34962
		},
		{
			"buffer" : 0,
			"byteOffset" : 2952,
			"byteLength" : 2952,
			"target" : 34962
		},
		{
			"buffer" : 0,
			"byteOffset" : 5904,
			"byteLength" : 2952,
			"target" : 34962
		},
		{
			"buffer" : 0,
			"byteOffset" : 8856,
			"byteLength" : 246,
			"target" : 34963
		}
	],
	"buffers" : [
		{
			"uri" : "B170051476501062G0.bin",
			"byteLength" : 9102
		}
	]
}
