{
	"asset" : {
		"generator" : "FME 2023.2.1.0",
		"version" : "2.0"
	},
	"materials" : [
		{
			"name" : "default_material",
			"pbrMetallicRoughness" : {
				"baseColorFactor" : [ 1, 1, 1, 1 ],
				"roughnessFactor" : 0.30000000000000004,
				"metallicFactor" : 0.5
			}
		}
	],
	"meshes" : [
		{
			"primitives" : [
				{
					"attributes" : {
						"NORMAL" : 1,
						"POSITION" : 0,
						"COLOR_0" : 2
					},
					"indices" : 3,
					"material" : 0,
					"mode" : 4
				}
			]
		}
	],
	"nodes" : [
		{
			"name" : "B359271543801063C0",
			"matrix" : [ 1, 0, 0, 0, 0, 0, -1, 0, 0, 1, 0, 0, 835927.8125, 2.8519999980926514, -815441.125, 1 ],
			"children" : [ 1 ]
		},
		{
			"mesh" : 0
		}
	],
	"scenes" : [
		{
			"nodes" : [ 0 ]
		}
	],
	"scene" : 0,
	"accessors" : [
		{
			"bufferView" : 0,
			"byteOffset" : 0,
			"componentType" : 5126,
			"count" : 333,
			"type" : "VEC3",
			"min" : [ -3.126953125, -6.9658203125, 0 ],
			"max" : [ 3.1279296875, 6.9658203125, 23.457002639770508 ]
		},
		{
			"bufferView" : 1,
			"byteOffset" : 0,
			"componentType" : 5126,
			"count" : 333,
			"type" : "VEC3",
			"min" : [ -0.9932085871696472, -0.9934236407279968, -1 ],
			"max" : [ 0.9933258891105652, 0.9930352568626404, 1 ]
		},
		{
			"bufferView" : 2,
			"byteOffset" : 0,
			"componentType" : 5126,
			"count" : 333,
			"type" : "VEC3"
		},
		{
			"bufferView" : 3,
			"byteOffset" : 0,
			"componentType" : 5123,
			"count" : 333,
			"type" : "SCALAR",
			"min" : [ 0 ],
			"max" : [ 332 ]
		}
	],
	"bufferViews" : [
		{
			"buffer" : 0,
			"byteOffset" : 0,
			"byteLength" : 3996,
			"target" : 34962
		},
		{
			"buffer" : 0,
			"byteOffset" : 3996,
			"byteLength" : 3996,
			"target" : 34962
		},
		{
			"buffer" : 0,
			"byteOffset" : 7992,
			"byteLength" : 3996,
			"target" : 34962
		},
		{
			"buffer" : 0,
			"byteOffset" : 11988,
			"byteLength" : 666,
			"target" : 34963
		}
	],
	"buffers" : [
		{
			"uri" : "B359271543801063C0.bin",
			"byteLength" : 12654
		}
	]
}
