{
	"asset" : {
		"generator" : "FME 2022.2.4.0",
		"version" : "2.0"
	},
	"materials" : [
		{
			"name" : "default_material",
			"pbrMetallicRoughness" : {
				"baseColorFactor" : [ 1, 1, 1, 1 ],
				"roughnessFactor" : 0.30000000000000004,
				"metallicFactor" : 0.5
			}
		}
	],
	"meshes" : [
		{
			"primitives" : [
				{
					"attributes" : {
						"NORMAL" : 1,
						"POSITION" : 0,
						"COLOR_0" : 2
					},
					"indices" : 3,
					"material" : 0,
					"mode" : 4
				}
			]
		}
	],
	"nodes" : [
		{
			"name" : "B335701624801063C0",
			"matrix" : [ 1, 0, 0, 0, 0, 0, -1, 0, 0, 1, 0, 0, 833571.25, 20.503000259399414, -816247.875, 1 ],
			"children" : [ 1 ]
		},
		{
			"mesh" : 0
		}
	],
	"scenes" : [
		{
			"nodes" : [ 0 ]
		}
	],
	"scene" : 0,
	"accessors" : [
		{
			"bufferView" : 0,
			"byteOffset" : 0,
			"componentType" : 5126,
			"count" : 381,
			"type" : "VEC3",
			"min" : [ -7.5771484375, -7.662109375, 0 ],
			"max" : [ 7.5771484375, 7.6630859375, 35.96299743652344 ]
		},
		{
			"bufferView" : 1,
			"byteOffset" : 0,
			"componentType" : 5126,
			"count" : 381,
			"type" : "VEC3",
			"min" : [ -0.831418514251709, -0.8281095027923584, -0.007074516732245684 ],
			"max" : [ 0.8343076705932617, 0.8296343088150024, 1 ]
		},
		{
			"bufferView" : 2,
			"byteOffset" : 0,
			"componentType" : 5126,
			"count" : 381,
			"type" : "VEC3"
		},
		{
			"bufferView" : 3,
			"byteOffset" : 0,
			"componentType" : 5123,
			"count" : 381,
			"type" : "SCALAR",
			"min" : [ 0 ],
			"max" : [ 380 ]
		}
	],
	"bufferViews" : [
		{
			"buffer" : 0,
			"byteOffset" : 0,
			"byteLength" : 4572,
			"target" : 34962
		},
		{
			"buffer" : 0,
			"byteOffset" : 4572,
			"byteLength" : 4572,
			"target" : 34962
		},
		{
			"buffer" : 0,
			"byteOffset" : 9144,
			"byteLength" : 4572,
			"target" : 34962
		},
		{
			"buffer" : 0,
			"byteOffset" : 13716,
			"byteLength" : 762,
			"target" : 34963
		}
	],
	"buffers" : [
		{
			"uri" : "B335701624801063C0.bin",
			"byteLength" : 14478
		}
	]
}
