{
	"asset" : {
		"generator" : "FME 2023.1.0.0",
		"version" : "2.0"
	},
	"materials" : [
		{
			"name" : "default_material",
			"pbrMetallicRoughness" : {
				"baseColorFactor" : [ 1, 1, 1, 1 ],
				"roughnessFactor" : 0.30000000000000004,
				"metallicFactor" : 0.5
			}
		}
	],
	"meshes" : [
		{
			"primitives" : [
				{
					"attributes" : {
						"NORMAL" : 1,
						"POSITION" : 0,
						"COLOR_0" : 2
					},
					"indices" : 3,
					"material" : 0,
					"mode" : 4
				}
			]
		}
	],
	"nodes" : [
		{
			"name" : "B336301553701063C0",
			"matrix" : [ 1, 0, 0, 0, 0, 0, -1, 0, 0, 1, 0, 0, 833636.0625, 130.26199340820312, -815543.75, 1 ],
			"children" : [ 1 ]
		},
		{
			"mesh" : 0
		}
	],
	"scenes" : [
		{
			"nodes" : [ 0 ]
		}
	],
	"scene" : 0,
	"accessors" : [
		{
			"bufferView" : 0,
			"byteOffset" : 0,
			"componentType" : 5126,
			"count" : 1221,
			"type" : "VEC3",
			"min" : [ -13.447265625, -14.169921875, 0 ],
			"max" : [ 13.447265625, 14.169921875, 34.212005615234375 ]
		},
		{
			"bufferView" : 1,
			"byteOffset" : 0,
			"componentType" : 5126,
			"count" : 1221,
			"type" : "VEC3",
			"min" : [ -0.9716677069664001, -0.9716675877571106, -1 ],
			"max" : [ 0.9716676473617554, 0.9653634428977966, 1 ]
		},
		{
			"bufferView" : 2,
			"byteOffset" : 0,
			"componentType" : 5126,
			"count" : 1221,
			"type" : "VEC3"
		},
		{
			"bufferView" : 3,
			"byteOffset" : 0,
			"componentType" : 5123,
			"count" : 1221,
			"type" : "SCALAR",
			"min" : [ 0 ],
			"max" : [ 1220 ]
		}
	],
	"bufferViews" : [
		{
			"buffer" : 0,
			"byteOffset" : 0,
			"byteLength" : 14652,
			"target" : 34962
		},
		{
			"buffer" : 0,
			"byteOffset" : 14652,
			"byteLength" : 14652,
			"target" : 34962
		},
		{
			"buffer" : 0,
			"byteOffset" : 29304,
			"byteLength" : 14652,
			"target" : 34962
		},
		{
			"buffer" : 0,
			"byteOffset" : 43956,
			"byteLength" : 2442,
			"target" : 34963
		}
	],
	"buffers" : [
		{
			"uri" : "B336301553701063C0.bin",
			"byteLength" : 46398
		}
	]
}
