{
	"asset" : {
		"generator" : "FME 2023.2.1.0",
		"version" : "2.0"
	},
	"materials" : [
		{
			"name" : "default_material",
			"pbrMetallicRoughness" : {
				"baseColorFactor" : [ 1, 1, 1, 1 ],
				"roughnessFactor" : 0.30000000000000004,
				"metallicFactor" : 0.5
			}
		}
	],
	"meshes" : [
		{
			"primitives" : [
				{
					"attributes" : {
						"NORMAL" : 1,
						"POSITION" : 0,
						"COLOR_0" : 2
					},
					"indices" : 3,
					"material" : 0,
					"mode" : 4
				}
			]
		}
	],
	"nodes" : [
		{
			"name" : "B337951584301063C0",
			"matrix" : [ 1, 0, 0, 0, 0, 0, -1, 0, 0, 1, 0, 0, 833802.75, 50.660987854003906, -815837.3125, 1 ],
			"children" : [ 1 ]
		},
		{
			"mesh" : 0
		}
	],
	"scenes" : [
		{
			"nodes" : [ 0 ]
		}
	],
	"scene" : 0,
	"accessors" : [
		{
			"bufferView" : 0,
			"byteOffset" : 0,
			"componentType" : 5126,
			"count" : 453,
			"type" : "VEC3",
			"min" : [ -11.56640625, -11.1416015625, 0 ],
			"max" : [ 11.5673828125, 11.140625, 25.077003479003906 ]
		},
		{
			"bufferView" : 1,
			"byteOffset" : 0,
			"componentType" : 5126,
			"count" : 453,
			"type" : "VEC3",
			"min" : [ -0.7565932273864746, -0.7381088137626648, -0.005723757203668356 ],
			"max" : [ 0.7571758031845093, 1, 1 ]
		},
		{
			"bufferView" : 2,
			"byteOffset" : 0,
			"componentType" : 5126,
			"count" : 453,
			"type" : "VEC3"
		},
		{
			"bufferView" : 3,
			"byteOffset" : 0,
			"componentType" : 5123,
			"count" : 453,
			"type" : "SCALAR",
			"min" : [ 0 ],
			"max" : [ 452 ]
		}
	],
	"bufferViews" : [
		{
			"buffer" : 0,
			"byteOffset" : 0,
			"byteLength" : 5436,
			"target" : 34962
		},
		{
			"buffer" : 0,
			"byteOffset" : 5436,
			"byteLength" : 5436,
			"target" : 34962
		},
		{
			"buffer" : 0,
			"byteOffset" : 10872,
			"byteLength" : 5436,
			"target" : 34962
		},
		{
			"buffer" : 0,
			"byteOffset" : 16308,
			"byteLength" : 906,
			"target" : 34963
		}
	],
	"buffers" : [
		{
			"uri" : "B337951584301063C0.bin",
			"byteLength" : 17214
		}
	]
}
