{
	"asset" : {
		"generator" : "FME 2023.2.1.0",
		"version" : "2.0"
	},
	"materials" : [
		{
			"name" : "default_material",
			"pbrMetallicRoughness" : {
				"baseColorFactor" : [ 1, 1, 1, 1 ],
				"roughnessFactor" : 0.30000000000000004,
				"metallicFactor" : 0.5
			}
		}
	],
	"meshes" : [
		{
			"primitives" : [
				{
					"attributes" : {
						"NORMAL" : 1,
						"POSITION" : 0,
						"COLOR_0" : 2
					},
					"indices" : 3,
					"material" : 0,
					"mode" : 4
				}
			]
		}
	],
	"nodes" : [
		{
			"name" : "B334981584902063C0",
			"matrix" : [ 1, 0, 0, 0, 0, 0, -1, 0, 0, 1, 0, 0, 833496.4375, 94.1259994506836, -815852.125, 1 ],
			"children" : [ 1 ]
		},
		{
			"mesh" : 0
		}
	],
	"scenes" : [
		{
			"nodes" : [ 0 ]
		}
	],
	"scene" : 0,
	"accessors" : [
		{
			"bufferView" : 0,
			"byteOffset" : 0,
			"componentType" : 5126,
			"count" : 6144,
			"type" : "VEC3",
			"min" : [ -29.34375, -43.8046875, 0 ],
			"max" : [ 29.3427734375, 43.8056640625, 26.375999450683594 ]
		},
		{
			"bufferView" : 1,
			"byteOffset" : 0,
			"componentType" : 5126,
			"count" : 6144,
			"type" : "VEC3",
			"min" : [ -1, -1, -1 ],
			"max" : [ 1, 1, 1 ]
		},
		{
			"bufferView" : 2,
			"byteOffset" : 0,
			"componentType" : 5126,
			"count" : 6144,
			"type" : "VEC3"
		},
		{
			"bufferView" : 3,
			"byteOffset" : 0,
			"componentType" : 5123,
			"count" : 6144,
			"type" : "SCALAR",
			"min" : [ 0 ],
			"max" : [ 6143 ]
		}
	],
	"bufferViews" : [
		{
			"buffer" : 0,
			"byteOffset" : 0,
			"byteLength" : 73728,
			"target" : 34962
		},
		{
			"buffer" : 0,
			"byteOffset" : 73728,
			"byteLength" : 73728,
			"target" : 34962
		},
		{
			"buffer" : 0,
			"byteOffset" : 147456,
			"byteLength" : 73728,
			"target" : 34962
		},
		{
			"buffer" : 0,
			"byteOffset" : 221184,
			"byteLength" : 12288,
			"target" : 34963
		}
	],
	"buffers" : [
		{
			"uri" : "B334981584902063C0.bin",
			"byteLength" : 233472
		}
	]
}
