{
	"asset" : {
		"generator" : "FME 2022.2.4.0",
		"version" : "2.0"
	},
	"materials" : [
		{
			"name" : "default_material",
			"pbrMetallicRoughness" : {
				"baseColorFactor" : [ 1, 1, 1, 1 ],
				"roughnessFactor" : 0.30000000000000004,
				"metallicFactor" : 0.5
			}
		}
	],
	"meshes" : [
		{
			"primitives" : [
				{
					"attributes" : {
						"NORMAL" : 1,
						"POSITION" : 0,
						"COLOR_0" : 2
					},
					"indices" : 3,
					"material" : 0,
					"mode" : 4
				}
			]
		}
	],
	"nodes" : [
		{
			"name" : "B332181589702063C0",
			"matrix" : [ 1, 0, 0, 0, 0, 0, -1, 0, 0, 1, 0, 0, 833219.5625, 120.8280029296875, -815897.125, 1 ],
			"children" : [ 1 ]
		},
		{
			"mesh" : 0
		}
	],
	"scenes" : [
		{
			"nodes" : [ 0 ]
		}
	],
	"scene" : 0,
	"accessors" : [
		{
			"bufferView" : 0,
			"byteOffset" : 0,
			"componentType" : 5126,
			"count" : 3075,
			"type" : "VEC3",
			"min" : [ -29.50146484375, -25.6103515625, 0 ],
			"max" : [ 29.5009765625, 25.611328125, 31.938003540039062 ]
		},
		{
			"bufferView" : 1,
			"byteOffset" : 0,
			"componentType" : 5126,
			"count" : 3075,
			"type" : "VEC3",
			"min" : [ -0.9753255248069763, -0.9464393854141235, -1 ],
			"max" : [ 0.9750098586082458, 0.9992261528968811, 1 ]
		},
		{
			"bufferView" : 2,
			"byteOffset" : 0,
			"componentType" : 5126,
			"count" : 3075,
			"type" : "VEC3"
		},
		{
			"bufferView" : 3,
			"byteOffset" : 0,
			"componentType" : 5123,
			"count" : 3075,
			"type" : "SCALAR",
			"min" : [ 0 ],
			"max" : [ 3074 ]
		}
	],
	"bufferViews" : [
		{
			"buffer" : 0,
			"byteOffset" : 0,
			"byteLength" : 36900,
			"target" : 34962
		},
		{
			"buffer" : 0,
			"byteOffset" : 36900,
			"byteLength" : 36900,
			"target" : 34962
		},
		{
			"buffer" : 0,
			"byteOffset" : 73800,
			"byteLength" : 36900,
			"target" : 34962
		},
		{
			"buffer" : 0,
			"byteOffset" : 110700,
			"byteLength" : 6150,
			"target" : 34963
		}
	],
	"buffers" : [
		{
			"uri" : "B332181589702063C0.bin",
			"byteLength" : 116850
		}
	]
}
