{
	"asset" : {
		"generator" : "FME 2023.1.0.0",
		"version" : "2.0"
	},
	"materials" : [
		{
			"name" : "default_material",
			"pbrMetallicRoughness" : {
				"baseColorFactor" : [ 1, 1, 1, 1 ],
				"roughnessFactor" : 0.30000000000000004,
				"metallicFactor" : 0.5
			}
		}
	],
	"meshes" : [
		{
			"primitives" : [
				{
					"attributes" : {
						"NORMAL" : 1,
						"POSITION" : 0,
						"COLOR_0" : 2
					},
					"indices" : 3,
					"material" : 0,
					"mode" : 4
				}
			]
		}
	],
	"nodes" : [
		{
			"name" : "B340241565002063C0",
			"matrix" : [ 1, 0, 0, 0, 0, 0, -1, 0, 0, 1, 0, 0, 834020.5, 40.78200149536133, -815653.1875, 1 ],
			"children" : [ 1 ]
		},
		{
			"mesh" : 0
		}
	],
	"scenes" : [
		{
			"nodes" : [ 0 ]
		}
	],
	"scene" : 0,
	"accessors" : [
		{
			"bufferView" : 0,
			"byteOffset" : 0,
			"componentType" : 5126,
			"count" : 1422,
			"type" : "VEC3",
			"min" : [ -14.8798828125, -13.443359375, 0 ],
			"max" : [ 14.951171875, 13.40625, 8.766998291015625 ]
		},
		{
			"bufferView" : 1,
			"byteOffset" : 0,
			"componentType" : 5126,
			"count" : 1422,
			"type" : "VEC3",
			"min" : [ -0.9941518306732178, -0.9993063807487488, -0.008439963683485985 ],
			"max" : [ 0.9953225255012512, 0.9996464848518372, 1 ]
		},
		{
			"bufferView" : 2,
			"byteOffset" : 0,
			"componentType" : 5126,
			"count" : 1422,
			"type" : "VEC3"
		},
		{
			"bufferView" : 3,
			"byteOffset" : 0,
			"componentType" : 5123,
			"count" : 1422,
			"type" : "SCALAR",
			"min" : [ 0 ],
			"max" : [ 1421 ]
		}
	],
	"bufferViews" : [
		{
			"buffer" : 0,
			"byteOffset" : 0,
			"byteLength" : 17064,
			"target" : 34962
		},
		{
			"buffer" : 0,
			"byteOffset" : 17064,
			"byteLength" : 17064,
			"target" : 34962
		},
		{
			"buffer" : 0,
			"byteOffset" : 34128,
			"byteLength" : 17064,
			"target" : 34962
		},
		{
			"buffer" : 0,
			"byteOffset" : 51192,
			"byteLength" : 2844,
			"target" : 34963
		}
	],
	"buffers" : [
		{
			"uri" : "B340241565002063C0.bin",
			"byteLength" : 54036
		}
	]
}
