{"accessors":[{"bufferView":0,"componentType":5126,"count":942,"type":"VEC3"},{"bufferView":1,"componentType":5126,"count":942,"type":"VEC3"},{"bufferView":2,"componentType":5126,"count":942,"max":[35.6435546875,51.97900390625,13.446998596191406],"min":[-35.64453125,-51.97900390625,0.0],"type":"VEC3"},{"bufferView":3,"componentType":5123,"count":1296,"max":[941],"min":[0],"type":"SCALAR"}],"asset":{"generator":"FME 2023.2.1.0","version":"2.0"},"bufferViews":[{"buffer":0,"byteLength":11304,"byteOffset":0,"target":34962},{"buffer":0,"byteLength":11304,"byteOffset":11304,"target":34962},{"buffer":0,"byteLength":11304,"byteOffset":22608,"target":34962},{"buffer":0,"byteLength":2592,"byteOffset":33912,"target":34963}],"buffers":[{"byteLength":36504,"uri":"buffer.bin"}],"materials":[{"name":"default_material","pbrMetallicRoughness":{"baseColorFactor":[1,1,1,1],"metallicFactor":0.5,"roughnessFactor":0.30000000000000004}}],"meshes":[{"primitives":[{"attributes":{"COLOR_0":0,"NORMAL":1,"POSITION":2},"indices":3,"material":0,"mode":4}]}],"nodes":[{"children":[1],"matrix":[1,0,0,0,0,0,-1,0,0,1,0,0,834173.375,48.88100051879883,-811360.4375,1],"name":"B341711135802063C0"},{"mesh":0}],"scene":0,"scenes":[{"nodes":[0]}]}
