{
	"asset" : {
		"generator" : "FME 2023.2.1.0",
		"version" : "2.0"
	},
	"materials" : [
		{
			"name" : "default_material",
			"pbrMetallicRoughness" : {
				"baseColorFactor" : [ 1, 1, 1, 1 ],
				"roughnessFactor" : 0.30000000000000004,
				"metallicFactor" : 0.5
			}
		}
	],
	"meshes" : [
		{
			"primitives" : [
				{
					"attributes" : {
						"NORMAL" : 1,
						"POSITION" : 0,
						"COLOR_0" : 2
					},
					"indices" : 3,
					"material" : 0,
					"mode" : 4
				}
			]
		}
	],
	"nodes" : [
		{
			"name" : "B333851624001063C0",
			"matrix" : [ 1, 0, 0, 0, 0, 0, -1, 0, 0, 1, 0, 0, 833388.0625, 19.542999267578125, -816237.4375, 1 ],
			"children" : [ 1 ]
		},
		{
			"mesh" : 0
		}
	],
	"scenes" : [
		{
			"nodes" : [ 0 ]
		}
	],
	"scene" : 0,
	"accessors" : [
		{
			"bufferView" : 0,
			"byteOffset" : 0,
			"componentType" : 5126,
			"count" : 1017,
			"type" : "VEC3",
			"min" : [ -7.1025390625, -6.8232421875, 0 ],
			"max" : [ 7.1044921875, 6.8017578125, 24.400001525878906 ]
		},
		{
			"bufferView" : 1,
			"byteOffset" : 0,
			"componentType" : 5126,
			"count" : 1017,
			"type" : "VEC3",
			"min" : [ -0.7649111747741699, -0.7719302773475647, -1 ],
			"max" : [ 0.793563961982727, 0.7619220018386841, 1 ]
		},
		{
			"bufferView" : 2,
			"byteOffset" : 0,
			"componentType" : 5126,
			"count" : 1017,
			"type" : "VEC3"
		},
		{
			"bufferView" : 3,
			"byteOffset" : 0,
			"componentType" : 5123,
			"count" : 1017,
			"type" : "SCALAR",
			"min" : [ 0 ],
			"max" : [ 1016 ]
		}
	],
	"bufferViews" : [
		{
			"buffer" : 0,
			"byteOffset" : 0,
			"byteLength" : 12204,
			"target" : 34962
		},
		{
			"buffer" : 0,
			"byteOffset" : 12204,
			"byteLength" : 12204,
			"target" : 34962
		},
		{
			"buffer" : 0,
			"byteOffset" : 24408,
			"byteLength" : 12204,
			"target" : 34962
		},
		{
			"buffer" : 0,
			"byteOffset" : 36612,
			"byteLength" : 2034,
			"target" : 34963
		}
	],
	"buffers" : [
		{
			"uri" : "B333851624001063C0.bin",
			"byteLength" : 38646
		}
	]
}
