{
	"asset" : {
		"generator" : "FME 2022.2.4.0",
		"version" : "2.0"
	},
	"materials" : [
		{
			"name" : "default_material",
			"pbrMetallicRoughness" : {
				"baseColorFactor" : [ 1, 1, 1, 1 ],
				"roughnessFactor" : 0.30000000000000004,
				"metallicFactor" : 0.5
			}
		}
	],
	"meshes" : [
		{
			"primitives" : [
				{
					"attributes" : {
						"NORMAL" : 1,
						"POSITION" : 0,
						"COLOR_0" : 2
					},
					"indices" : 3,
					"material" : 0,
					"mode" : 4
				}
			]
		}
	],
	"nodes" : [
		{
			"name" : "B337011629201063C0",
			"matrix" : [ 1, 0, 0, 0, 0, 0, -1, 0, 0, 1, 0, 0, 833705.8125, 3.0079989433288574, -816291.75, 1 ],
			"children" : [ 1 ]
		},
		{
			"mesh" : 0
		}
	],
	"scenes" : [
		{
			"nodes" : [ 0 ]
		}
	],
	"scene" : 0,
	"accessors" : [
		{
			"bufferView" : 0,
			"byteOffset" : 0,
			"componentType" : 5126,
			"count" : 351,
			"type" : "VEC3",
			"min" : [ -6.419921875, -3.4267578125, 0 ],
			"max" : [ 6.419921875, 3.427734375, 17.536998748779297 ]
		},
		{
			"bufferView" : 1,
			"byteOffset" : 0,
			"componentType" : 5126,
			"count" : 351,
			"type" : "VEC3",
			"min" : [ -0.9867702126502991, -0.9879195690155029, -1 ],
			"max" : [ 0.9907183051109314, 0.987330436706543, 1 ]
		},
		{
			"bufferView" : 2,
			"byteOffset" : 0,
			"componentType" : 5126,
			"count" : 351,
			"type" : "VEC3"
		},
		{
			"bufferView" : 3,
			"byteOffset" : 0,
			"componentType" : 5123,
			"count" : 351,
			"type" : "SCALAR",
			"min" : [ 0 ],
			"max" : [ 350 ]
		}
	],
	"bufferViews" : [
		{
			"buffer" : 0,
			"byteOffset" : 0,
			"byteLength" : 4212,
			"target" : 34962
		},
		{
			"buffer" : 0,
			"byteOffset" : 4212,
			"byteLength" : 4212,
			"target" : 34962
		},
		{
			"buffer" : 0,
			"byteOffset" : 8424,
			"byteLength" : 4212,
			"target" : 34962
		},
		{
			"buffer" : 0,
			"byteOffset" : 12636,
			"byteLength" : 702,
			"target" : 34963
		}
	],
	"buffers" : [
		{
			"uri" : "B337011629201063C0.bin",
			"byteLength" : 13338
		}
	]
}
