{
	"asset" : {
		"generator" : "FME 2022.2.4.0",
		"version" : "2.0"
	},
	"materials" : [
		{
			"name" : "default_material",
			"pbrMetallicRoughness" : {
				"baseColorFactor" : [ 1, 1, 1, 1 ],
				"roughnessFactor" : 0.30000000000000004,
				"metallicFactor" : 0.5
			}
		}
	],
	"meshes" : [
		{
			"primitives" : [
				{
					"attributes" : {
						"NORMAL" : 1,
						"POSITION" : 0,
						"COLOR_0" : 2
					},
					"indices" : 3,
					"material" : 0,
					"mode" : 4
				}
			]
		}
	],
	"nodes" : [
		{
			"name" : "B357691717702063C0",
			"matrix" : [ 1, 0, 0, 0, 0, 0, -1, 0, 0, 1, 0, 0, 835765.875, 3.8638999462127686, -817181.25, 1 ],
			"children" : [ 1 ]
		},
		{
			"mesh" : 0
		}
	],
	"scenes" : [
		{
			"nodes" : [ 0 ]
		}
	],
	"scene" : 0,
	"accessors" : [
		{
			"bufferView" : 0,
			"byteOffset" : 0,
			"componentType" : 5126,
			"count" : 15495,
			"type" : "VEC3",
			"min" : [ -70.908203125, -36.341796875, 0 ],
			"max" : [ 70.94140625, 36.232421875, 15.963398933410645 ]
		},
		{
			"bufferView" : 1,
			"byteOffset" : 0,
			"componentType" : 5126,
			"count" : 15495,
			"type" : "VEC3",
			"min" : [ -1, -1, -1 ],
			"max" : [ 1, 1, 1 ]
		},
		{
			"bufferView" : 2,
			"byteOffset" : 0,
			"componentType" : 5126,
			"count" : 15495,
			"type" : "VEC3"
		},
		{
			"bufferView" : 3,
			"byteOffset" : 0,
			"componentType" : 5123,
			"count" : 15495,
			"type" : "SCALAR",
			"min" : [ 0 ],
			"max" : [ 15494 ]
		}
	],
	"bufferViews" : [
		{
			"buffer" : 0,
			"byteOffset" : 0,
			"byteLength" : 185940,
			"target" : 34962
		},
		{
			"buffer" : 0,
			"byteOffset" : 185940,
			"byteLength" : 185940,
			"target" : 34962
		},
		{
			"buffer" : 0,
			"byteOffset" : 371880,
			"byteLength" : 185940,
			"target" : 34962
		},
		{
			"buffer" : 0,
			"byteOffset" : 557820,
			"byteLength" : 30990,
			"target" : 34963
		}
	],
	"buffers" : [
		{
			"uri" : "B357691717702063C0.bin",
			"byteLength" : 588810
		}
	]
}
