{
	"asset" : {
		"generator" : "FME 2022.2.4.0",
		"version" : "2.0"
	},
	"materials" : [
		{
			"name" : "default_material",
			"pbrMetallicRoughness" : {
				"baseColorFactor" : [ 1, 1, 1, 1 ],
				"roughnessFactor" : 0.30000000000000004,
				"metallicFactor" : 0.5
			}
		}
	],
	"meshes" : [
		{
			"primitives" : [
				{
					"attributes" : {
						"NORMAL" : 1,
						"POSITION" : 0,
						"COLOR_0" : 2
					},
					"indices" : 3,
					"material" : 0,
					"mode" : 4
				}
			]
		}
	],
	"nodes" : [
		{
			"name" : "B354511570301063C0",
			"matrix" : [ 1, 0, 0, 0, 0, 0, -1, 0, 0, 1, 0, 0, 835448.625, 3.7063255310058594, -815707.625, 1 ],
			"children" : [ 1 ]
		},
		{
			"mesh" : 0
		}
	],
	"scenes" : [
		{
			"nodes" : [ 0 ]
		}
	],
	"scene" : 0,
	"accessors" : [
		{
			"bufferView" : 0,
			"byteOffset" : 0,
			"componentType" : 5126,
			"count" : 43386,
			"type" : "VEC3",
			"min" : [ -40.263671875, -45.041015625, 0 ],
			"max" : [ 40.263671875, 45.0712890625, 8.562636375427246 ]
		},
		{
			"bufferView" : 1,
			"byteOffset" : 0,
			"componentType" : 5126,
			"count" : 43386,
			"type" : "VEC3",
			"min" : [ -0.9999997615814209, -1, -1 ],
			"max" : [ 1, 1, 1 ]
		},
		{
			"bufferView" : 2,
			"byteOffset" : 0,
			"componentType" : 5126,
			"count" : 43386,
			"type" : "VEC3"
		},
		{
			"bufferView" : 3,
			"byteOffset" : 0,
			"componentType" : 5123,
			"count" : 43386,
			"type" : "SCALAR",
			"min" : [ 0 ],
			"max" : [ 43385 ]
		}
	],
	"bufferViews" : [
		{
			"buffer" : 0,
			"byteOffset" : 0,
			"byteLength" : 520632,
			"target" : 34962
		},
		{
			"buffer" : 0,
			"byteOffset" : 520632,
			"byteLength" : 520632,
			"target" : 34962
		},
		{
			"buffer" : 0,
			"byteOffset" : 1041264,
			"byteLength" : 520632,
			"target" : 34962
		},
		{
			"buffer" : 0,
			"byteOffset" : 1561896,
			"byteLength" : 86772,
			"target" : 34963
		}
	],
	"buffers" : [
		{
			"uri" : "B354511570301063C0.bin",
			"byteLength" : 1648668
		}
	]
}
