{
	"asset" : {
		"generator" : "FME 2023.2.1.0",
		"version" : "2.0"
	},
	"materials" : [
		{
			"name" : "default_material",
			"pbrMetallicRoughness" : {
				"baseColorFactor" : [ 1, 1, 1, 1 ],
				"roughnessFactor" : 0.30000000000000004,
				"metallicFactor" : 0.5
			}
		}
	],
	"meshes" : [
		{
			"primitives" : [
				{
					"attributes" : {
						"NORMAL" : 1,
						"POSITION" : 0,
						"COLOR_0" : 2
					},
					"indices" : 3,
					"material" : 0,
					"mode" : 4
				}
			]
		}
	],
	"nodes" : [
		{
			"name" : "B359491558101063C0",
			"matrix" : [ 1, 0, 0, 0, 0, 0, -1, 0, 0, 1, 0, 0, 835952.3125, 18.881999969482422, -815567.5, 1 ],
			"children" : [ 1 ]
		},
		{
			"mesh" : 0
		}
	],
	"scenes" : [
		{
			"nodes" : [ 0 ]
		}
	],
	"scene" : 0,
	"accessors" : [
		{
			"bufferView" : 0,
			"byteOffset" : 0,
			"componentType" : 5126,
			"count" : 3099,
			"type" : "VEC3",
			"min" : [ -28.68359375, -18.71875, 0 ],
			"max" : [ 28.68359375, 18.71875, 136.27200317382812 ]
		},
		{
			"bufferView" : 1,
			"byteOffset" : 0,
			"componentType" : 5126,
			"count" : 3099,
			"type" : "VEC3",
			"min" : [ -0.9959575533866882, -1, -1 ],
			"max" : [ 0.9959744811058044, 1, 1 ]
		},
		{
			"bufferView" : 2,
			"byteOffset" : 0,
			"componentType" : 5126,
			"count" : 3099,
			"type" : "VEC3"
		},
		{
			"bufferView" : 3,
			"byteOffset" : 0,
			"componentType" : 5123,
			"count" : 3099,
			"type" : "SCALAR",
			"min" : [ 0 ],
			"max" : [ 3098 ]
		}
	],
	"bufferViews" : [
		{
			"buffer" : 0,
			"byteOffset" : 0,
			"byteLength" : 37188,
			"target" : 34962
		},
		{
			"buffer" : 0,
			"byteOffset" : 37188,
			"byteLength" : 37188,
			"target" : 34962
		},
		{
			"buffer" : 0,
			"byteOffset" : 74376,
			"byteLength" : 37188,
			"target" : 34962
		},
		{
			"buffer" : 0,
			"byteOffset" : 111564,
			"byteLength" : 6198,
			"target" : 34963
		}
	],
	"buffers" : [
		{
			"uri" : "B359491558101063C0.bin",
			"byteLength" : 117762
		}
	]
}
