{
	"asset" : {
		"generator" : "FME 2022.2.4.0",
		"version" : "2.0"
	},
	"materials" : [
		{
			"name" : "default_material",
			"pbrMetallicRoughness" : {
				"baseColorFactor" : [ 1, 1, 1, 1 ],
				"roughnessFactor" : 0.30000000000000004,
				"metallicFactor" : 0.5
			}
		}
	],
	"meshes" : [
		{
			"primitives" : [
				{
					"attributes" : {
						"NORMAL" : 1,
						"POSITION" : 0,
						"COLOR_0" : 2
					},
					"indices" : 3,
					"material" : 0,
					"mode" : 4
				}
			]
		}
	],
	"nodes" : [
		{
			"name" : "B354501523701063C0",
			"matrix" : [ 1, 0, 0, 0, 0, 0, -1, 0, 0, 1, 0, 0, 835449.6875, 15.131999969482422, -815236.875, 1 ],
			"children" : [ 1 ]
		},
		{
			"mesh" : 0
		}
	],
	"scenes" : [
		{
			"nodes" : [ 0 ]
		}
	],
	"scene" : 0,
	"accessors" : [
		{
			"bufferView" : 0,
			"byteOffset" : 0,
			"componentType" : 5126,
			"count" : 78,
			"type" : "VEC3",
			"min" : [ -2.57421875, -2.3876953125, 0 ],
			"max" : [ 2.5732421875, 2.3876953125, 5.417999267578125 ]
		},
		{
			"bufferView" : 1,
			"byteOffset" : 0,
			"componentType" : 5126,
			"count" : 78,
			"type" : "VEC3",
			"min" : [ -0.7824077606201172, -0.7823217511177063, -7.552604529337259e-6 ],
			"max" : [ 0.7825767993927002, 0.7978144884109497, 1 ]
		},
		{
			"bufferView" : 2,
			"byteOffset" : 0,
			"componentType" : 5126,
			"count" : 78,
			"type" : "VEC3"
		},
		{
			"bufferView" : 3,
			"byteOffset" : 0,
			"componentType" : 5121,
			"count" : 78,
			"type" : "SCALAR",
			"min" : [ 0 ],
			"max" : [ 77 ]
		}
	],
	"bufferViews" : [
		{
			"buffer" : 0,
			"byteOffset" : 0,
			"byteLength" : 936,
			"target" : 34962
		},
		{
			"buffer" : 0,
			"byteOffset" : 936,
			"byteLength" : 936,
			"target" : 34962
		},
		{
			"buffer" : 0,
			"byteOffset" : 1872,
			"byteLength" : 936,
			"target" : 34962
		},
		{
			"buffer" : 0,
			"byteOffset" : 2808,
			"byteLength" : 78,
			"target" : 34963
		}
	],
	"buffers" : [
		{
			"uri" : "B354501523701063C0.bin",
			"byteLength" : 2886
		}
	]
}
