{
	"asset" : {
		"generator" : "FME 2022.2.4.0",
		"version" : "2.0"
	},
	"materials" : [
		{
			"name" : "default_material",
			"pbrMetallicRoughness" : {
				"baseColorFactor" : [ 1, 1, 1, 1 ],
				"roughnessFactor" : 0.30000000000000004,
				"metallicFactor" : 0.5
			}
		}
	],
	"meshes" : [
		{
			"primitives" : [
				{
					"attributes" : {
						"NORMAL" : 1,
						"POSITION" : 0,
						"COLOR_0" : 2
					},
					"indices" : 3,
					"material" : 0,
					"mode" : 4
				}
			]
		}
	],
	"nodes" : [
		{
			"name" : "B338371597801063C0",
			"matrix" : [ 1, 0, 0, 0, 0, 0, -1, 0, 0, 1, 0, 0, 833838.0625, 43.472999572753906, -815978.125, 1 ],
			"children" : [ 1 ]
		},
		{
			"mesh" : 0
		}
	],
	"scenes" : [
		{
			"nodes" : [ 0 ]
		}
	],
	"scene" : 0,
	"accessors" : [
		{
			"bufferView" : 0,
			"byteOffset" : 0,
			"componentType" : 5126,
			"count" : 5439,
			"type" : "VEC3",
			"min" : [ -8.697265625, -7.9697265625, 0 ],
			"max" : [ 8.6630859375, 7.982421875, 89.9469985961914 ]
		},
		{
			"bufferView" : 1,
			"byteOffset" : 0,
			"componentType" : 5126,
			"count" : 5439,
			"type" : "VEC3",
			"min" : [ -0.9999775290489197, -1, -1 ],
			"max" : [ 1, 0.9999157190322876, 1 ]
		},
		{
			"bufferView" : 2,
			"byteOffset" : 0,
			"componentType" : 5126,
			"count" : 5439,
			"type" : "VEC3"
		},
		{
			"bufferView" : 3,
			"byteOffset" : 0,
			"componentType" : 5123,
			"count" : 5439,
			"type" : "SCALAR",
			"min" : [ 0 ],
			"max" : [ 5438 ]
		}
	],
	"bufferViews" : [
		{
			"buffer" : 0,
			"byteOffset" : 0,
			"byteLength" : 65268,
			"target" : 34962
		},
		{
			"buffer" : 0,
			"byteOffset" : 65268,
			"byteLength" : 65268,
			"target" : 34962
		},
		{
			"buffer" : 0,
			"byteOffset" : 130536,
			"byteLength" : 65268,
			"target" : 34962
		},
		{
			"buffer" : 0,
			"byteOffset" : 195804,
			"byteLength" : 10878,
			"target" : 34963
		}
	],
	"buffers" : [
		{
			"uri" : "B338371597801063C0.bin",
			"byteLength" : 206682
		}
	]
}
