{
	"asset" : {
		"generator" : "FME 2023.1.0.0",
		"version" : "2.0"
	},
	"materials" : [
		{
			"name" : "default_material",
			"pbrMetallicRoughness" : {
				"baseColorFactor" : [ 1, 1, 1, 1 ],
				"roughnessFactor" : 0.30000000000000004,
				"metallicFactor" : 0.5
			}
		}
	],
	"meshes" : [
		{
			"primitives" : [
				{
					"attributes" : {
						"NORMAL" : 1,
						"POSITION" : 0,
						"COLOR_0" : 2
					},
					"indices" : 3,
					"material" : 0,
					"mode" : 4
				}
			]
		}
	],
	"nodes" : [
		{
			"name" : "B168491440201062G0",
			"matrix" : [ 1, 0, 0, 0, 0, 0, -1, 0, 0, 1, 0, 0, 816850.625, 15.540800094604492, -814401.5, 1 ],
			"children" : [ 1 ]
		},
		{
			"mesh" : 0
		}
	],
	"scenes" : [
		{
			"nodes" : [ 0 ]
		}
	],
	"scene" : 0,
	"accessors" : [
		{
			"bufferView" : 0,
			"byteOffset" : 0,
			"componentType" : 5126,
			"count" : 255,
			"type" : "VEC3",
			"min" : [ -7.1875, -5.0625, 0 ],
			"max" : [ 7.125, 5.125, 4.566900253295898 ]
		},
		{
			"bufferView" : 1,
			"byteOffset" : 0,
			"componentType" : 5126,
			"count" : 255,
			"type" : "VEC3",
			"min" : [ -0.8798176050186157, -0.8793895244598389, -0.9953054189682007 ],
			"max" : [ 0.8827549815177917, 0.8793302774429321, 1 ]
		},
		{
			"bufferView" : 2,
			"byteOffset" : 0,
			"componentType" : 5126,
			"count" : 255,
			"type" : "VEC3"
		},
		{
			"bufferView" : 3,
			"byteOffset" : 0,
			"componentType" : 5121,
			"count" : 255,
			"type" : "SCALAR",
			"min" : [ 0 ],
			"max" : [ 254 ]
		}
	],
	"bufferViews" : [
		{
			"buffer" : 0,
			"byteOffset" : 0,
			"byteLength" : 3060,
			"target" : 34962
		},
		{
			"buffer" : 0,
			"byteOffset" : 3060,
			"byteLength" : 3060,
			"target" : 34962
		},
		{
			"buffer" : 0,
			"byteOffset" : 6120,
			"byteLength" : 3060,
			"target" : 34962
		},
		{
			"buffer" : 0,
			"byteOffset" : 9180,
			"byteLength" : 255,
			"target" : 34963
		}
	],
	"buffers" : [
		{
			"uri" : "B168491440201062G0.bin",
			"byteLength" : 9435
		}
	]
}
