{
	"asset" : {
		"generator" : "FME 2022.2.4.0",
		"version" : "2.0"
	},
	"materials" : [
		{
			"name" : "default_material",
			"pbrMetallicRoughness" : {
				"baseColorFactor" : [ 1, 1, 1, 1 ],
				"roughnessFactor" : 0.30000000000000004,
				"metallicFactor" : 0.5
			}
		}
	],
	"meshes" : [
		{
			"primitives" : [
				{
					"attributes" : {
						"NORMAL" : 1,
						"POSITION" : 0,
						"COLOR_0" : 2
					},
					"indices" : 3,
					"material" : 0,
					"mode" : 4
				}
			]
		}
	],
	"nodes" : [
		{
			"name" : "B338131613901063C0",
			"matrix" : [ 1, 0, 0, 0, 0, 0, -1, 0, 0, 1, 0, 0, 833815.875, 19.999000549316406, -816142.75, 1 ],
			"children" : [ 1 ]
		},
		{
			"mesh" : 0
		}
	],
	"scenes" : [
		{
			"nodes" : [ 0 ]
		}
	],
	"scene" : 0,
	"accessors" : [
		{
			"bufferView" : 0,
			"byteOffset" : 0,
			"componentType" : 5126,
			"count" : 372,
			"type" : "VEC3",
			"min" : [ -4.2626953125, -5.376953125, 0 ],
			"max" : [ 4.2626953125, 5.376953125, 22.054000854492188 ]
		},
		{
			"bufferView" : 1,
			"byteOffset" : 0,
			"componentType" : 5126,
			"count" : 372,
			"type" : "VEC3",
			"min" : [ -0.9614017009735107, -0.9671226143836975, -1 ],
			"max" : [ 0.9609726071357727, 0.9617052674293518, 1 ]
		},
		{
			"bufferView" : 2,
			"byteOffset" : 0,
			"componentType" : 5126,
			"count" : 372,
			"type" : "VEC3"
		},
		{
			"bufferView" : 3,
			"byteOffset" : 0,
			"componentType" : 5123,
			"count" : 372,
			"type" : "SCALAR",
			"min" : [ 0 ],
			"max" : [ 371 ]
		}
	],
	"bufferViews" : [
		{
			"buffer" : 0,
			"byteOffset" : 0,
			"byteLength" : 4464,
			"target" : 34962
		},
		{
			"buffer" : 0,
			"byteOffset" : 4464,
			"byteLength" : 4464,
			"target" : 34962
		},
		{
			"buffer" : 0,
			"byteOffset" : 8928,
			"byteLength" : 4464,
			"target" : 34962
		},
		{
			"buffer" : 0,
			"byteOffset" : 13392,
			"byteLength" : 744,
			"target" : 34963
		}
	],
	"buffers" : [
		{
			"uri" : "B338131613901063C0.bin",
			"byteLength" : 14136
		}
	]
}
