{
	"asset" : {
		"generator" : "FME 2023.1.0.0",
		"version" : "2.0"
	},
	"materials" : [
		{
			"name" : "default_material",
			"pbrMetallicRoughness" : {
				"baseColorFactor" : [ 1, 1, 1, 1 ],
				"roughnessFactor" : 0.30000000000000004,
				"metallicFactor" : 0.5
			}
		}
	],
	"meshes" : [
		{
			"primitives" : [
				{
					"attributes" : {
						"NORMAL" : 1,
						"POSITION" : 0,
						"COLOR_0" : 2
					},
					"indices" : 3,
					"material" : 0,
					"mode" : 4
				}
			]
		}
	],
	"nodes" : [
		{
			"name" : "B330941655301063C0",
			"matrix" : [ 1, 0, 0, 0, 0, 0, -1, 0, 0, 1, 0, 0, 833097.125, 3.369999885559082, -816560.625, 1 ],
			"children" : [ 1 ]
		},
		{
			"mesh" : 0
		}
	],
	"scenes" : [
		{
			"nodes" : [ 0 ]
		}
	],
	"scene" : 0,
	"accessors" : [
		{
			"bufferView" : 0,
			"byteOffset" : 0,
			"componentType" : 5126,
			"count" : 1749,
			"type" : "VEC3",
			"min" : [ -5.58056640625, -13.138671875, 0 ],
			"max" : [ 5.5810546875, 13.138671875, 41.95600128173828 ]
		},
		{
			"bufferView" : 1,
			"byteOffset" : 0,
			"componentType" : 5126,
			"count" : 1749,
			"type" : "VEC3",
			"min" : [ -0.9968101978302002, -0.9969895482063293, -1 ],
			"max" : [ 1, 0.9969384074211121, 1 ]
		},
		{
			"bufferView" : 2,
			"byteOffset" : 0,
			"componentType" : 5126,
			"count" : 1749,
			"type" : "VEC3"
		},
		{
			"bufferView" : 3,
			"byteOffset" : 0,
			"componentType" : 5123,
			"count" : 1749,
			"type" : "SCALAR",
			"min" : [ 0 ],
			"max" : [ 1748 ]
		}
	],
	"bufferViews" : [
		{
			"buffer" : 0,
			"byteOffset" : 0,
			"byteLength" : 20988,
			"target" : 34962
		},
		{
			"buffer" : 0,
			"byteOffset" : 20988,
			"byteLength" : 20988,
			"target" : 34962
		},
		{
			"buffer" : 0,
			"byteOffset" : 41976,
			"byteLength" : 20988,
			"target" : 34962
		},
		{
			"buffer" : 0,
			"byteOffset" : 62964,
			"byteLength" : 3498,
			"target" : 34963
		}
	],
	"buffers" : [
		{
			"uri" : "B330941655301063C0.bin",
			"byteLength" : 66462
		}
	]
}
