{
	"asset" : {
		"generator" : "FME 2023.2.1.0",
		"version" : "2.0"
	},
	"materials" : [
		{
			"name" : "default_material",
			"pbrMetallicRoughness" : {
				"baseColorFactor" : [ 1, 1, 1, 1 ],
				"roughnessFactor" : 0.30000000000000004,
				"metallicFactor" : 0.5
			}
		}
	],
	"meshes" : [
		{
			"primitives" : [
				{
					"attributes" : {
						"NORMAL" : 1,
						"POSITION" : 0,
						"COLOR_0" : 2
					},
					"indices" : 3,
					"material" : 0,
					"mode" : 4
				}
			]
		}
	],
	"nodes" : [
		{
			"name" : "B187811484701062G0",
			"matrix" : [ 1, 0, 0, 0, 0, 0, -1, 0, 0, 1, 0, 0, 818784, 88.28700256347656, -814847.375, 1 ],
			"children" : [ 1 ]
		},
		{
			"mesh" : 0
		}
	],
	"scenes" : [
		{
			"nodes" : [ 0 ]
		}
	],
	"scene" : 0,
	"accessors" : [
		{
			"bufferView" : 0,
			"byteOffset" : 0,
			"componentType" : 5126,
			"count" : 162,
			"type" : "VEC3",
			"min" : [ -4.625, -3.5, 0 ],
			"max" : [ 4.625, 3.4375, 3.6287994384765625 ]
		},
		{
			"bufferView" : 1,
			"byteOffset" : 0,
			"componentType" : 5126,
			"count" : 162,
			"type" : "VEC3",
			"min" : [ -0.9207192063331604, -0.9185439944267273, -0.990186333656311 ],
			"max" : [ 0.9185605645179749, 0.9185961484909058, 0.9937178492546082 ]
		},
		{
			"bufferView" : 2,
			"byteOffset" : 0,
			"componentType" : 5126,
			"count" : 162,
			"type" : "VEC3"
		},
		{
			"bufferView" : 3,
			"byteOffset" : 0,
			"componentType" : 5121,
			"count" : 162,
			"type" : "SCALAR",
			"min" : [ 0 ],
			"max" : [ 161 ]
		}
	],
	"bufferViews" : [
		{
			"buffer" : 0,
			"byteOffset" : 0,
			"byteLength" : 1944,
			"target" : 34962
		},
		{
			"buffer" : 0,
			"byteOffset" : 1944,
			"byteLength" : 1944,
			"target" : 34962
		},
		{
			"buffer" : 0,
			"byteOffset" : 3888,
			"byteLength" : 1944,
			"target" : 34962
		},
		{
			"buffer" : 0,
			"byteOffset" : 5832,
			"byteLength" : 162,
			"target" : 34963
		}
	],
	"buffers" : [
		{
			"uri" : "B187811484701062G0.bin",
			"byteLength" : 5994
		}
	]
}
