{
	"asset" : {
		"generator" : "FME 2023.2.1.0",
		"version" : "2.0"
	},
	"materials" : [
		{
			"name" : "default_material",
			"pbrMetallicRoughness" : {
				"baseColorFactor" : [ 1, 1, 1, 1 ],
				"roughnessFactor" : 0.30000000000000004,
				"metallicFactor" : 0.5
			}
		}
	],
	"meshes" : [
		{
			"primitives" : [
				{
					"attributes" : {
						"NORMAL" : 1,
						"POSITION" : 0,
						"COLOR_0" : 2
					},
					"indices" : 3,
					"material" : 0,
					"mode" : 4
				}
			]
		}
	],
	"nodes" : [
		{
			"name" : "B336231571301063C0",
			"matrix" : [ 1, 0, 0, 0, 0, 0, -1, 0, 0, 1, 0, 0, 833623.0625, 98.81900024414062, -815708.375, 1 ],
			"children" : [ 1 ]
		},
		{
			"mesh" : 0
		}
	],
	"scenes" : [
		{
			"nodes" : [ 0 ]
		}
	],
	"scene" : 0,
	"accessors" : [
		{
			"bufferView" : 0,
			"byteOffset" : 0,
			"componentType" : 5126,
			"count" : 1533,
			"type" : "VEC3",
			"min" : [ -8.048828125, -7.990234375, 0 ],
			"max" : [ 8.0478515625, 7.990234375, 65.33099365234375 ]
		},
		{
			"bufferView" : 1,
			"byteOffset" : 0,
			"componentType" : 5126,
			"count" : 1533,
			"type" : "VEC3",
			"min" : [ -0.7379391193389893, -0.7299885153770447, -1 ],
			"max" : [ 0.8320503234863281, 0.7440487742424011, 1 ]
		},
		{
			"bufferView" : 2,
			"byteOffset" : 0,
			"componentType" : 5126,
			"count" : 1533,
			"type" : "VEC3"
		},
		{
			"bufferView" : 3,
			"byteOffset" : 0,
			"componentType" : 5123,
			"count" : 1533,
			"type" : "SCALAR",
			"min" : [ 0 ],
			"max" : [ 1532 ]
		}
	],
	"bufferViews" : [
		{
			"buffer" : 0,
			"byteOffset" : 0,
			"byteLength" : 18396,
			"target" : 34962
		},
		{
			"buffer" : 0,
			"byteOffset" : 18396,
			"byteLength" : 18396,
			"target" : 34962
		},
		{
			"buffer" : 0,
			"byteOffset" : 36792,
			"byteLength" : 18396,
			"target" : 34962
		},
		{
			"buffer" : 0,
			"byteOffset" : 55188,
			"byteLength" : 3066,
			"target" : 34963
		}
	],
	"buffers" : [
		{
			"uri" : "B336231571301063C0.bin",
			"byteLength" : 58254
		}
	]
}
