{
	"asset" : {
		"generator" : "FME 2023.1.0.0",
		"version" : "2.0"
	},
	"materials" : [
		{
			"name" : "default_material",
			"pbrMetallicRoughness" : {
				"baseColorFactor" : [ 1, 1, 1, 1 ],
				"roughnessFactor" : 0.30000000000000004,
				"metallicFactor" : 0.5
			}
		}
	],
	"meshes" : [
		{
			"primitives" : [
				{
					"attributes" : {
						"NORMAL" : 1,
						"POSITION" : 0,
						"COLOR_0" : 2
					},
					"indices" : 3,
					"material" : 0,
					"mode" : 4
				}
			]
		}
	],
	"nodes" : [
		{
			"name" : "B357611543101063C0",
			"matrix" : [ 1, 0, 0, 0, 0, 0, -1, 0, 0, 1, 0, 0, 835761.9375, 17.645999908447266, -815430.875, 1 ],
			"children" : [ 1 ]
		},
		{
			"mesh" : 0
		}
	],
	"scenes" : [
		{
			"nodes" : [ 0 ]
		}
	],
	"scene" : 0,
	"accessors" : [
		{
			"bufferView" : 0,
			"byteOffset" : 0,
			"componentType" : 5126,
			"count" : 3141,
			"type" : "VEC3",
			"min" : [ -6.9208984375, -7.439453125, 0 ],
			"max" : [ 6.9208984375, 7.4404296875, 85.79899597167969 ]
		},
		{
			"bufferView" : 1,
			"byteOffset" : 0,
			"componentType" : 5126,
			"count" : 3141,
			"type" : "VEC3",
			"min" : [ -1, -1, -1 ],
			"max" : [ 0.9999994039535522, 1, 1 ]
		},
		{
			"bufferView" : 2,
			"byteOffset" : 0,
			"componentType" : 5126,
			"count" : 3141,
			"type" : "VEC3"
		},
		{
			"bufferView" : 3,
			"byteOffset" : 0,
			"componentType" : 5123,
			"count" : 3141,
			"type" : "SCALAR",
			"min" : [ 0 ],
			"max" : [ 3140 ]
		}
	],
	"bufferViews" : [
		{
			"buffer" : 0,
			"byteOffset" : 0,
			"byteLength" : 37692,
			"target" : 34962
		},
		{
			"buffer" : 0,
			"byteOffset" : 37692,
			"byteLength" : 37692,
			"target" : 34962
		},
		{
			"buffer" : 0,
			"byteOffset" : 75384,
			"byteLength" : 37692,
			"target" : 34962
		},
		{
			"buffer" : 0,
			"byteOffset" : 113076,
			"byteLength" : 6282,
			"target" : 34963
		}
	],
	"buffers" : [
		{
			"uri" : "B357611543101063C0.bin",
			"byteLength" : 119358
		}
	]
}
