{
	"asset" : {
		"generator" : "FME 2023.2.1.0",
		"version" : "2.0"
	},
	"materials" : [
		{
			"name" : "default_material",
			"pbrMetallicRoughness" : {
				"baseColorFactor" : [ 1, 1, 1, 1 ],
				"roughnessFactor" : 0.30000000000000004,
				"metallicFactor" : 0.5
			}
		}
	],
	"meshes" : [
		{
			"primitives" : [
				{
					"attributes" : {
						"NORMAL" : 1,
						"POSITION" : 0,
						"COLOR_0" : 2
					},
					"indices" : 3,
					"material" : 0,
					"mode" : 4
				}
			]
		}
	],
	"nodes" : [
		{
			"name" : "B337361572201063C0",
			"matrix" : [ 1, 0, 0, 0, 0, 0, -1, 0, 0, 1, 0, 0, 833737.0625, 78.0999984741211, -815722.375, 1 ],
			"children" : [ 1 ]
		},
		{
			"mesh" : 0
		}
	],
	"scenes" : [
		{
			"nodes" : [ 0 ]
		}
	],
	"scene" : 0,
	"accessors" : [
		{
			"bufferView" : 0,
			"byteOffset" : 0,
			"componentType" : 5126,
			"count" : 42,
			"type" : "VEC3",
			"min" : [ -3.0078125, -3.318359375, 0 ],
			"max" : [ 3.0078125, 3.3173828125, 2.7190017700195312 ]
		},
		{
			"bufferView" : 1,
			"byteOffset" : 0,
			"componentType" : 5126,
			"count" : 42,
			"type" : "VEC3",
			"min" : [ -0.8505129814147949, -0.8483909964561462, 0 ],
			"max" : [ 0.8458682298660278, 0.8427531719207764, 1 ]
		},
		{
			"bufferView" : 2,
			"byteOffset" : 0,
			"componentType" : 5126,
			"count" : 42,
			"type" : "VEC3"
		},
		{
			"bufferView" : 3,
			"byteOffset" : 0,
			"componentType" : 5121,
			"count" : 42,
			"type" : "SCALAR",
			"min" : [ 0 ],
			"max" : [ 41 ]
		}
	],
	"bufferViews" : [
		{
			"buffer" : 0,
			"byteOffset" : 0,
			"byteLength" : 504,
			"target" : 34962
		},
		{
			"buffer" : 0,
			"byteOffset" : 504,
			"byteLength" : 504,
			"target" : 34962
		},
		{
			"buffer" : 0,
			"byteOffset" : 1008,
			"byteLength" : 504,
			"target" : 34962
		},
		{
			"buffer" : 0,
			"byteOffset" : 1512,
			"byteLength" : 42,
			"target" : 34963
		}
	],
	"buffers" : [
		{
			"uri" : "B337361572201063C0.bin",
			"byteLength" : 1554
		}
	]
}
