{
	"asset" : {
		"generator" : "FME 2023.2.1.0",
		"version" : "2.0"
	},
	"materials" : [
		{
			"name" : "default_material",
			"pbrMetallicRoughness" : {
				"baseColorFactor" : [ 1, 1, 1, 1 ],
				"roughnessFactor" : 0.30000000000000004,
				"metallicFactor" : 0.5
			}
		}
	],
	"meshes" : [
		{
			"primitives" : [
				{
					"attributes" : {
						"NORMAL" : 1,
						"POSITION" : 0,
						"COLOR_0" : 2
					},
					"indices" : 3,
					"material" : 0,
					"mode" : 4
				}
			]
		}
	],
	"nodes" : [
		{
			"name" : "B333541655401063C0",
			"matrix" : [ 1, 0, 0, 0, 0, 0, -1, 0, 0, 1, 0, 0, 833354.875, 17.906999588012695, -816553.125, 1 ],
			"children" : [ 1 ]
		},
		{
			"mesh" : 0
		}
	],
	"scenes" : [
		{
			"nodes" : [ 0 ]
		}
	],
	"scene" : 0,
	"accessors" : [
		{
			"bufferView" : 0,
			"byteOffset" : 0,
			"componentType" : 5126,
			"count" : 1581,
			"type" : "VEC3",
			"min" : [ -7.91796875, -11.857421875, 0 ],
			"max" : [ 7.9189453125, 11.8564453125, 79.7449951171875 ]
		},
		{
			"bufferView" : 1,
			"byteOffset" : 0,
			"componentType" : 5126,
			"count" : 1581,
			"type" : "VEC3",
			"min" : [ -0.9729183912277222, -0.9692007303237915, -1 ],
			"max" : [ 0.9788998365402222, 0.9701426029205322, 1 ]
		},
		{
			"bufferView" : 2,
			"byteOffset" : 0,
			"componentType" : 5126,
			"count" : 1581,
			"type" : "VEC3"
		},
		{
			"bufferView" : 3,
			"byteOffset" : 0,
			"componentType" : 5123,
			"count" : 1581,
			"type" : "SCALAR",
			"min" : [ 0 ],
			"max" : [ 1580 ]
		}
	],
	"bufferViews" : [
		{
			"buffer" : 0,
			"byteOffset" : 0,
			"byteLength" : 18972,
			"target" : 34962
		},
		{
			"buffer" : 0,
			"byteOffset" : 18972,
			"byteLength" : 18972,
			"target" : 34962
		},
		{
			"buffer" : 0,
			"byteOffset" : 37944,
			"byteLength" : 18972,
			"target" : 34962
		},
		{
			"buffer" : 0,
			"byteOffset" : 56916,
			"byteLength" : 3162,
			"target" : 34963
		}
	],
	"buffers" : [
		{
			"uri" : "B333541655401063C0.bin",
			"byteLength" : 60078
		}
	]
}
