{
	"asset" : {
		"generator" : "FME 2023.1.0.0",
		"version" : "2.0"
	},
	"materials" : [
		{
			"name" : "default_material",
			"pbrMetallicRoughness" : {
				"baseColorFactor" : [ 1, 1, 1, 1 ],
				"roughnessFactor" : 0.30000000000000004,
				"metallicFactor" : 0.5
			}
		}
	],
	"meshes" : [
		{
			"primitives" : [
				{
					"attributes" : {
						"NORMAL" : 1,
						"POSITION" : 0,
						"COLOR_0" : 2
					},
					"indices" : 3,
					"material" : 0,
					"mode" : 4
				}
			]
		}
	],
	"nodes" : [
		{
			"name" : "B354591520301063C0",
			"matrix" : [ 1, 0, 0, 0, 0, 0, -1, 0, 0, 1, 0, 0, 835445.0625, 23.150999069213867, -815208.0625, 1 ],
			"children" : [ 1 ]
		},
		{
			"mesh" : 0
		}
	],
	"scenes" : [
		{
			"nodes" : [ 0 ]
		}
	],
	"scene" : 0,
	"accessors" : [
		{
			"bufferView" : 0,
			"byteOffset" : 0,
			"componentType" : 5126,
			"count" : 1686,
			"type" : "VEC3",
			"min" : [ -15.0751953125, -10.076171875, 0 ],
			"max" : [ 15.0751953125, 10.076171875, 96.47100067138672 ]
		},
		{
			"bufferView" : 1,
			"byteOffset" : 0,
			"componentType" : 5126,
			"count" : 1686,
			"type" : "VEC3",
			"min" : [ -0.9683308601379395, -0.9746848344802856, -1 ],
			"max" : [ 0.964763879776001, 0.9640934467315674, 1 ]
		},
		{
			"bufferView" : 2,
			"byteOffset" : 0,
			"componentType" : 5126,
			"count" : 1686,
			"type" : "VEC3"
		},
		{
			"bufferView" : 3,
			"byteOffset" : 0,
			"componentType" : 5123,
			"count" : 1686,
			"type" : "SCALAR",
			"min" : [ 0 ],
			"max" : [ 1685 ]
		}
	],
	"bufferViews" : [
		{
			"buffer" : 0,
			"byteOffset" : 0,
			"byteLength" : 20232,
			"target" : 34962
		},
		{
			"buffer" : 0,
			"byteOffset" : 20232,
			"byteLength" : 20232,
			"target" : 34962
		},
		{
			"buffer" : 0,
			"byteOffset" : 40464,
			"byteLength" : 20232,
			"target" : 34962
		},
		{
			"buffer" : 0,
			"byteOffset" : 60696,
			"byteLength" : 3372,
			"target" : 34963
		}
	],
	"buffers" : [
		{
			"uri" : "B354591520301063C0.bin",
			"byteLength" : 64068
		}
	]
}
