{
	"asset" : {
		"generator" : "FME 2023.2.1.0",
		"version" : "2.0"
	},
	"materials" : [
		{
			"name" : "default_material",
			"pbrMetallicRoughness" : {
				"baseColorFactor" : [ 1, 1, 1, 1 ],
				"roughnessFactor" : 0.30000000000000004,
				"metallicFactor" : 0.5
			}
		}
	],
	"meshes" : [
		{
			"primitives" : [
				{
					"attributes" : {
						"NORMAL" : 1,
						"POSITION" : 0,
						"COLOR_0" : 2
					},
					"indices" : 3,
					"material" : 0,
					"mode" : 4
				}
			]
		}
	],
	"nodes" : [
		{
			"name" : "B336481576602063C0",
			"matrix" : [ 1, 0, 0, 0, 0, 0, -1, 0, 0, 1, 0, 0, 833647.6875, 82.77899932861328, -815766.25, 1 ],
			"children" : [ 1 ]
		},
		{
			"mesh" : 0
		}
	],
	"scenes" : [
		{
			"nodes" : [ 0 ]
		}
	],
	"scene" : 0,
	"accessors" : [
		{
			"bufferView" : 0,
			"byteOffset" : 0,
			"componentType" : 5126,
			"count" : 258,
			"type" : "VEC3",
			"min" : [ -13.63671875, -13.2548828125, 0 ],
			"max" : [ 13.63671875, 13.2548828125, 11.521003723144531 ]
		},
		{
			"bufferView" : 1,
			"byteOffset" : 0,
			"componentType" : 5126,
			"count" : 258,
			"type" : "VEC3",
			"min" : [ -0.7231117486953735, -0.9431880712509155, -1 ],
			"max" : [ 0.7243304252624512, 0.760597825050354, 1 ]
		},
		{
			"bufferView" : 2,
			"byteOffset" : 0,
			"componentType" : 5126,
			"count" : 258,
			"type" : "VEC3"
		},
		{
			"bufferView" : 3,
			"byteOffset" : 0,
			"componentType" : 5123,
			"count" : 258,
			"type" : "SCALAR",
			"min" : [ 0 ],
			"max" : [ 257 ]
		}
	],
	"bufferViews" : [
		{
			"buffer" : 0,
			"byteOffset" : 0,
			"byteLength" : 3096,
			"target" : 34962
		},
		{
			"buffer" : 0,
			"byteOffset" : 3096,
			"byteLength" : 3096,
			"target" : 34962
		},
		{
			"buffer" : 0,
			"byteOffset" : 6192,
			"byteLength" : 3096,
			"target" : 34962
		},
		{
			"buffer" : 0,
			"byteOffset" : 9288,
			"byteLength" : 516,
			"target" : 34963
		}
	],
	"buffers" : [
		{
			"uri" : "B336481576602063C0.bin",
			"byteLength" : 9804
		}
	]
}
