{
	"asset" : {
		"generator" : "FME 2022.2.4.0",
		"version" : "2.0"
	},
	"materials" : [
		{
			"name" : "default_material",
			"pbrMetallicRoughness" : {
				"baseColorFactor" : [ 1, 1, 1, 1 ],
				"roughnessFactor" : 0.30000000000000004,
				"metallicFactor" : 0.5
			}
		}
	],
	"meshes" : [
		{
			"primitives" : [
				{
					"attributes" : {
						"NORMAL" : 1,
						"POSITION" : 0,
						"COLOR_0" : 2
					},
					"indices" : 3,
					"material" : 0,
					"mode" : 4
				}
			]
		}
	],
	"nodes" : [
		{
			"name" : "B340441622001063C0",
			"matrix" : [ 1, 0, 0, 0, 0, 0, -1, 0, 0, 1, 0, 0, 834045.5, 2.0809943675994873, -816218.875, 1 ],
			"children" : [ 1 ]
		},
		{
			"mesh" : 0
		}
	],
	"scenes" : [
		{
			"nodes" : [ 0 ]
		}
	],
	"scene" : 0,
	"accessors" : [
		{
			"bufferView" : 0,
			"byteOffset" : 0,
			"componentType" : 5126,
			"count" : 597,
			"type" : "VEC3",
			"min" : [ -8.6962890625, -9.0947265625, 0 ],
			"max" : [ 8.6953125, 9.0947265625, 41.327003479003906 ]
		},
		{
			"bufferView" : 1,
			"byteOffset" : 0,
			"componentType" : 5126,
			"count" : 597,
			"type" : "VEC3",
			"min" : [ -1, -0.8929285407066345, -1 ],
			"max" : [ 0.8052822947502136, 0.8439992070198059, 1 ]
		},
		{
			"bufferView" : 2,
			"byteOffset" : 0,
			"componentType" : 5126,
			"count" : 597,
			"type" : "VEC3"
		},
		{
			"bufferView" : 3,
			"byteOffset" : 0,
			"componentType" : 5123,
			"count" : 597,
			"type" : "SCALAR",
			"min" : [ 0 ],
			"max" : [ 596 ]
		}
	],
	"bufferViews" : [
		{
			"buffer" : 0,
			"byteOffset" : 0,
			"byteLength" : 7164,
			"target" : 34962
		},
		{
			"buffer" : 0,
			"byteOffset" : 7164,
			"byteLength" : 7164,
			"target" : 34962
		},
		{
			"buffer" : 0,
			"byteOffset" : 14328,
			"byteLength" : 7164,
			"target" : 34962
		},
		{
			"buffer" : 0,
			"byteOffset" : 21492,
			"byteLength" : 1194,
			"target" : 34963
		}
	],
	"buffers" : [
		{
			"uri" : "B340441622001063C0.bin",
			"byteLength" : 22686
		}
	]
}
