{
	"asset" : {
		"generator" : "FME 2023.1.0.0",
		"version" : "2.0"
	},
	"materials" : [
		{
			"name" : "default_material",
			"pbrMetallicRoughness" : {
				"baseColorFactor" : [ 1, 1, 1, 1 ],
				"roughnessFactor" : 0.30000000000000004,
				"metallicFactor" : 0.5
			}
		}
	],
	"meshes" : [
		{
			"primitives" : [
				{
					"attributes" : {
						"NORMAL" : 1,
						"POSITION" : 0,
						"COLOR_0" : 2
					},
					"indices" : 3,
					"material" : 0,
					"mode" : 4
				}
			]
		}
	],
	"nodes" : [
		{
			"name" : "B337211593301063C0",
			"matrix" : [ 1, 0, 0, 0, 0, 0, -1, 0, 0, 1, 0, 0, 833717.6875, 50.084014892578125, -815937.25, 1 ],
			"children" : [ 1 ]
		},
		{
			"mesh" : 0
		}
	],
	"scenes" : [
		{
			"nodes" : [ 0 ]
		}
	],
	"scene" : 0,
	"accessors" : [
		{
			"bufferView" : 0,
			"byteOffset" : 0,
			"componentType" : 5126,
			"count" : 528,
			"type" : "VEC3",
			"min" : [ -7.0576171875, -6.392578125, 0 ],
			"max" : [ 7.0576171875, 6.392578125, 22.68000030517578 ]
		},
		{
			"bufferView" : 1,
			"byteOffset" : 0,
			"componentType" : 5126,
			"count" : 528,
			"type" : "VEC3",
			"min" : [ -0.7501058578491211, -0.7266255617141724, -1 ],
			"max" : [ 0.9635007977485657, 1, 1 ]
		},
		{
			"bufferView" : 2,
			"byteOffset" : 0,
			"componentType" : 5126,
			"count" : 528,
			"type" : "VEC3"
		},
		{
			"bufferView" : 3,
			"byteOffset" : 0,
			"componentType" : 5123,
			"count" : 528,
			"type" : "SCALAR",
			"min" : [ 0 ],
			"max" : [ 527 ]
		}
	],
	"bufferViews" : [
		{
			"buffer" : 0,
			"byteOffset" : 0,
			"byteLength" : 6336,
			"target" : 34962
		},
		{
			"buffer" : 0,
			"byteOffset" : 6336,
			"byteLength" : 6336,
			"target" : 34962
		},
		{
			"buffer" : 0,
			"byteOffset" : 12672,
			"byteLength" : 6336,
			"target" : 34962
		},
		{
			"buffer" : 0,
			"byteOffset" : 19008,
			"byteLength" : 1056,
			"target" : 34963
		}
	],
	"buffers" : [
		{
			"uri" : "B337211593301063C0.bin",
			"byteLength" : 20064
		}
	]
}
