{
	"asset" : {
		"generator" : "FME 2022.2.4.0",
		"version" : "2.0"
	},
	"materials" : [
		{
			"name" : "default_material",
			"pbrMetallicRoughness" : {
				"baseColorFactor" : [ 1, 1, 1, 1 ],
				"roughnessFactor" : 0.30000000000000004,
				"metallicFactor" : 0.5
			}
		}
	],
	"meshes" : [
		{
			"primitives" : [
				{
					"attributes" : {
						"NORMAL" : 1,
						"POSITION" : 0,
						"COLOR_0" : 2
					},
					"indices" : 3,
					"material" : 0,
					"mode" : 4
				}
			]
		}
	],
	"nodes" : [
		{
			"name" : "B170411475401062G0",
			"matrix" : [ 1, 0, 0, 0, 0, 0, -1, 0, 0, 1, 0, 0, 817041.125, 19.22570037841797, -814753.6875, 1 ],
			"children" : [ 1 ]
		},
		{
			"mesh" : 0
		}
	],
	"scenes" : [
		{
			"nodes" : [ 0 ]
		}
	],
	"scene" : 0,
	"accessors" : [
		{
			"bufferView" : 0,
			"byteOffset" : 0,
			"componentType" : 5126,
			"count" : 246,
			"type" : "VEC3",
			"min" : [ -4.8125, -4.4375, 0 ],
			"max" : [ 4.75, 4.4375, 8.051698684692383 ]
		},
		{
			"bufferView" : 1,
			"byteOffset" : 0,
			"componentType" : 5126,
			"count" : 246,
			"type" : "VEC3",
			"min" : [ -0.7731812596321106, -0.7698837518692017, -1 ],
			"max" : [ 0.7700162529945374, 0.770604133605957, 1 ]
		},
		{
			"bufferView" : 2,
			"byteOffset" : 0,
			"componentType" : 5126,
			"count" : 246,
			"type" : "VEC3"
		},
		{
			"bufferView" : 3,
			"byteOffset" : 0,
			"componentType" : 5121,
			"count" : 246,
			"type" : "SCALAR",
			"min" : [ 0 ],
			"max" : [ 245 ]
		}
	],
	"bufferViews" : [
		{
			"buffer" : 0,
			"byteOffset" : 0,
			"byteLength" : 2952,
			"target" : 34962
		},
		{
			"buffer" : 0,
			"byteOffset" : 2952,
			"byteLength" : 2952,
			"target" : 34962
		},
		{
			"buffer" : 0,
			"byteOffset" : 5904,
			"byteLength" : 2952,
			"target" : 34962
		},
		{
			"buffer" : 0,
			"byteOffset" : 8856,
			"byteLength" : 246,
			"target" : 34963
		}
	],
	"buffers" : [
		{
			"uri" : "B170411475401062G0.bin",
			"byteLength" : 9102
		}
	]
}
