{
	"asset" : {
		"generator" : "FME 2023.2.1.0",
		"version" : "2.0"
	},
	"materials" : [
		{
			"name" : "default_material",
			"pbrMetallicRoughness" : {
				"baseColorFactor" : [ 1, 1, 1, 1 ],
				"roughnessFactor" : 0.30000000000000004,
				"metallicFactor" : 0.5
			}
		}
	],
	"meshes" : [
		{
			"primitives" : [
				{
					"attributes" : {
						"NORMAL" : 1,
						"POSITION" : 0,
						"COLOR_0" : 2
					},
					"indices" : 3,
					"material" : 0,
					"mode" : 4
				}
			]
		}
	],
	"nodes" : [
		{
			"name" : "B333381614401063C0",
			"matrix" : [ 1, 0, 0, 0, 0, 0, -1, 0, 0, 1, 0, 0, 833335, 36.51100158691406, -816140.875, 1 ],
			"children" : [ 1 ]
		},
		{
			"mesh" : 0
		}
	],
	"scenes" : [
		{
			"nodes" : [ 0 ]
		}
	],
	"scene" : 0,
	"accessors" : [
		{
			"bufferView" : 0,
			"byteOffset" : 0,
			"componentType" : 5126,
			"count" : 2412,
			"type" : "VEC3",
			"min" : [ -9.958984375, -11.2568359375, 0 ],
			"max" : [ 9.958984375, 11.2568359375, 6.081996917724609 ]
		},
		{
			"bufferView" : 1,
			"byteOffset" : 0,
			"componentType" : 5126,
			"count" : 2412,
			"type" : "VEC3",
			"min" : [ -0.9956690669059753, -0.9999660849571228, -0.013322579674422741 ],
			"max" : [ 0.9954954981803894, 0.9999526739120483, 1 ]
		},
		{
			"bufferView" : 2,
			"byteOffset" : 0,
			"componentType" : 5126,
			"count" : 2412,
			"type" : "VEC3"
		},
		{
			"bufferView" : 3,
			"byteOffset" : 0,
			"componentType" : 5123,
			"count" : 2412,
			"type" : "SCALAR",
			"min" : [ 0 ],
			"max" : [ 2411 ]
		}
	],
	"bufferViews" : [
		{
			"buffer" : 0,
			"byteOffset" : 0,
			"byteLength" : 28944,
			"target" : 34962
		},
		{
			"buffer" : 0,
			"byteOffset" : 28944,
			"byteLength" : 28944,
			"target" : 34962
		},
		{
			"buffer" : 0,
			"byteOffset" : 57888,
			"byteLength" : 28944,
			"target" : 34962
		},
		{
			"buffer" : 0,
			"byteOffset" : 86832,
			"byteLength" : 4824,
			"target" : 34963
		}
	],
	"buffers" : [
		{
			"uri" : "B333381614401063C0.bin",
			"byteLength" : 91656
		}
	]
}
