{
	"asset" : {
		"generator" : "FME 2023.1.0.0",
		"version" : "2.0"
	},
	"materials" : [
		{
			"name" : "default_material",
			"pbrMetallicRoughness" : {
				"baseColorFactor" : [ 1, 1, 1, 1 ],
				"roughnessFactor" : 0.30000000000000004,
				"metallicFactor" : 0.5
			}
		}
	],
	"meshes" : [
		{
			"primitives" : [
				{
					"attributes" : {
						"NORMAL" : 1,
						"POSITION" : 0,
						"COLOR_0" : 2
					},
					"indices" : 3,
					"material" : 0,
					"mode" : 4
				}
			]
		}
	],
	"nodes" : [
		{
			"name" : "B342421565401063C0",
			"matrix" : [ 1, 0, 0, 0, 0, 0, -1, 0, 0, 1, 0, 0, 834238.875, 26.797000885009766, -815658.875, 1 ],
			"children" : [ 1 ]
		},
		{
			"mesh" : 0
		}
	],
	"scenes" : [
		{
			"nodes" : [ 0 ]
		}
	],
	"scene" : 0,
	"accessors" : [
		{
			"bufferView" : 0,
			"byteOffset" : 0,
			"componentType" : 5126,
			"count" : 1824,
			"type" : "VEC3",
			"min" : [ -13.9189453125, -11.994140625, 0 ],
			"max" : [ 13.873046875, 12.08984375, 57.843997955322266 ]
		},
		{
			"bufferView" : 1,
			"byteOffset" : 0,
			"componentType" : 5126,
			"count" : 1824,
			"type" : "VEC3",
			"min" : [ -0.9788821935653687, -0.9919425845146179, -1 ],
			"max" : [ 0.9804732799530029, 0.9919856786727905, 1 ]
		},
		{
			"bufferView" : 2,
			"byteOffset" : 0,
			"componentType" : 5126,
			"count" : 1824,
			"type" : "VEC3"
		},
		{
			"bufferView" : 3,
			"byteOffset" : 0,
			"componentType" : 5123,
			"count" : 1824,
			"type" : "SCALAR",
			"min" : [ 0 ],
			"max" : [ 1823 ]
		}
	],
	"bufferViews" : [
		{
			"buffer" : 0,
			"byteOffset" : 0,
			"byteLength" : 21888,
			"target" : 34962
		},
		{
			"buffer" : 0,
			"byteOffset" : 21888,
			"byteLength" : 21888,
			"target" : 34962
		},
		{
			"buffer" : 0,
			"byteOffset" : 43776,
			"byteLength" : 21888,
			"target" : 34962
		},
		{
			"buffer" : 0,
			"byteOffset" : 65664,
			"byteLength" : 3648,
			"target" : 34963
		}
	],
	"buffers" : [
		{
			"uri" : "B342421565401063C0.bin",
			"byteLength" : 69312
		}
	]
}
