{
	"asset" : {
		"generator" : "FME 2022.2.4.0",
		"version" : "2.0"
	},
	"materials" : [
		{
			"name" : "default_material",
			"pbrMetallicRoughness" : {
				"baseColorFactor" : [ 1, 1, 1, 1 ],
				"roughnessFactor" : 0.30000000000000004,
				"metallicFactor" : 0.5
			}
		}
	],
	"meshes" : [
		{
			"primitives" : [
				{
					"attributes" : {
						"NORMAL" : 1,
						"POSITION" : 0,
						"COLOR_0" : 2
					},
					"indices" : 3,
					"material" : 0,
					"mode" : 4
				}
			]
		}
	],
	"nodes" : [
		{
			"name" : "B029631275201063C0",
			"matrix" : [ 1, 0, 0, 0, 0, 0, -1, 0, 0, 1, 0, 0, 802961.25, 17.15959930419922, -812754.25, 1 ],
			"children" : [ 1 ]
		},
		{
			"mesh" : 0
		}
	],
	"scenes" : [
		{
			"nodes" : [ 0 ]
		}
	],
	"scene" : 0,
	"accessors" : [
		{
			"bufferView" : 0,
			"byteOffset" : 0,
			"componentType" : 5126,
			"count" : 2583,
			"type" : "VEC3",
			"min" : [ -15.875, -7.1875, 0 ],
			"max" : [ 15.875, 7.25, 8.885200500488281 ]
		},
		{
			"bufferView" : 1,
			"byteOffset" : 0,
			"componentType" : 5126,
			"count" : 2583,
			"type" : "VEC3",
			"min" : [ -1, -0.9986158609390259, -1 ],
			"max" : [ 0.999779462814331, 1, 1 ]
		},
		{
			"bufferView" : 2,
			"byteOffset" : 0,
			"componentType" : 5126,
			"count" : 2583,
			"type" : "VEC3"
		},
		{
			"bufferView" : 3,
			"byteOffset" : 0,
			"componentType" : 5123,
			"count" : 2583,
			"type" : "SCALAR",
			"min" : [ 0 ],
			"max" : [ 2582 ]
		}
	],
	"bufferViews" : [
		{
			"buffer" : 0,
			"byteOffset" : 0,
			"byteLength" : 30996,
			"target" : 34962
		},
		{
			"buffer" : 0,
			"byteOffset" : 30996,
			"byteLength" : 30996,
			"target" : 34962
		},
		{
			"buffer" : 0,
			"byteOffset" : 61992,
			"byteLength" : 30996,
			"target" : 34962
		},
		{
			"buffer" : 0,
			"byteOffset" : 92988,
			"byteLength" : 5166,
			"target" : 34963
		}
	],
	"buffers" : [
		{
			"uri" : "B029631275201063C0.bin",
			"byteLength" : 98154
		}
	]
}
