{
	"asset" : {
		"generator" : "FME 2023.1.0.0",
		"version" : "2.0"
	},
	"materials" : [
		{
			"name" : "default_material",
			"pbrMetallicRoughness" : {
				"baseColorFactor" : [ 1, 1, 1, 1 ],
				"roughnessFactor" : 0.30000000000000004,
				"metallicFactor" : 0.5
			}
		}
	],
	"meshes" : [
		{
			"primitives" : [
				{
					"attributes" : {
						"NORMAL" : 1,
						"POSITION" : 0,
						"COLOR_0" : 2
					},
					"indices" : 3,
					"material" : 0,
					"mode" : 4
				}
			]
		}
	],
	"nodes" : [
		{
			"name" : "B335951573902063C0",
			"matrix" : [ 1, 0, 0, 0, 0, 0, -1, 0, 0, 1, 0, 0, 833594.8125, 89.48699951171875, -815739.625, 1 ],
			"children" : [ 1 ]
		},
		{
			"mesh" : 0
		}
	],
	"scenes" : [
		{
			"nodes" : [ 0 ]
		}
	],
	"scene" : 0,
	"accessors" : [
		{
			"bufferView" : 0,
			"byteOffset" : 0,
			"componentType" : 5126,
			"count" : 2958,
			"type" : "VEC3",
			"min" : [ -15.705078125, -27.6982421875, 0 ],
			"max" : [ 15.7041015625, 27.69921875, 51.97599792480469 ]
		},
		{
			"bufferView" : 1,
			"byteOffset" : 0,
			"componentType" : 5126,
			"count" : 2958,
			"type" : "VEC3",
			"min" : [ -0.9995275139808655, -1, -1 ],
			"max" : [ 0.9999856352806091, 1, 1 ]
		},
		{
			"bufferView" : 2,
			"byteOffset" : 0,
			"componentType" : 5126,
			"count" : 2958,
			"type" : "VEC3"
		},
		{
			"bufferView" : 3,
			"byteOffset" : 0,
			"componentType" : 5123,
			"count" : 2958,
			"type" : "SCALAR",
			"min" : [ 0 ],
			"max" : [ 2957 ]
		}
	],
	"bufferViews" : [
		{
			"buffer" : 0,
			"byteOffset" : 0,
			"byteLength" : 35496,
			"target" : 34962
		},
		{
			"buffer" : 0,
			"byteOffset" : 35496,
			"byteLength" : 35496,
			"target" : 34962
		},
		{
			"buffer" : 0,
			"byteOffset" : 70992,
			"byteLength" : 35496,
			"target" : 34962
		},
		{
			"buffer" : 0,
			"byteOffset" : 106488,
			"byteLength" : 5916,
			"target" : 34963
		}
	],
	"buffers" : [
		{
			"uri" : "B335951573902063C0.bin",
			"byteLength" : 112404
		}
	]
}
