{
	"asset" : {
		"generator" : "FME 2023.1.0.0",
		"version" : "2.0"
	},
	"materials" : [
		{
			"name" : "default_material",
			"pbrMetallicRoughness" : {
				"baseColorFactor" : [ 1, 1, 1, 1 ],
				"roughnessFactor" : 0.30000000000000004,
				"metallicFactor" : 0.5
			}
		}
	],
	"meshes" : [
		{
			"primitives" : [
				{
					"attributes" : {
						"NORMAL" : 1,
						"POSITION" : 0,
						"COLOR_0" : 2
					},
					"indices" : 3,
					"material" : 0,
					"mode" : 4
				}
			]
		}
	],
	"nodes" : [
		{
			"name" : "B334881644901063C0",
			"matrix" : [ 1, 0, 0, 0, 0, 0, -1, 0, 0, 1, 0, 0, 833487.0625, 2.90000581741333, -816434.8125, 1 ],
			"children" : [ 1 ]
		},
		{
			"mesh" : 0
		}
	],
	"scenes" : [
		{
			"nodes" : [ 0 ]
		}
	],
	"scene" : 0,
	"accessors" : [
		{
			"bufferView" : 0,
			"byteOffset" : 0,
			"componentType" : 5126,
			"count" : 1368,
			"type" : "VEC3",
			"min" : [ -7.580078125, -16.568359375, 0 ],
			"max" : [ 7.5791015625, 16.568359375, 42.30999755859375 ]
		},
		{
			"bufferView" : 1,
			"byteOffset" : 0,
			"componentType" : 5126,
			"count" : 1368,
			"type" : "VEC3",
			"min" : [ -0.9809948801994324, -0.9809650778770447, -1 ],
			"max" : [ 0.9829760789871216, 0.9810394048690796, 1 ]
		},
		{
			"bufferView" : 2,
			"byteOffset" : 0,
			"componentType" : 5126,
			"count" : 1368,
			"type" : "VEC3"
		},
		{
			"bufferView" : 3,
			"byteOffset" : 0,
			"componentType" : 5123,
			"count" : 1368,
			"type" : "SCALAR",
			"min" : [ 0 ],
			"max" : [ 1367 ]
		}
	],
	"bufferViews" : [
		{
			"buffer" : 0,
			"byteOffset" : 0,
			"byteLength" : 16416,
			"target" : 34962
		},
		{
			"buffer" : 0,
			"byteOffset" : 16416,
			"byteLength" : 16416,
			"target" : 34962
		},
		{
			"buffer" : 0,
			"byteOffset" : 32832,
			"byteLength" : 16416,
			"target" : 34962
		},
		{
			"buffer" : 0,
			"byteOffset" : 49248,
			"byteLength" : 2736,
			"target" : 34963
		}
	],
	"buffers" : [
		{
			"uri" : "B334881644901063C0.bin",
			"byteLength" : 51984
		}
	]
}
