{
	"asset" : {
		"generator" : "FME 2023.2.1.0",
		"version" : "2.0"
	},
	"materials" : [
		{
			"name" : "default_material",
			"pbrMetallicRoughness" : {
				"baseColorFactor" : [ 1, 1, 1, 1 ],
				"roughnessFactor" : 0.30000000000000004,
				"metallicFactor" : 0.5
			}
		}
	],
	"meshes" : [
		{
			"primitives" : [
				{
					"attributes" : {
						"NORMAL" : 1,
						"POSITION" : 0,
						"COLOR_0" : 2
					},
					"indices" : 3,
					"material" : 0,
					"mode" : 4
				}
			]
		}
	],
	"nodes" : [
		{
			"name" : "B167181440601062G0",
			"matrix" : [ 1, 0, 0, 0, 0, 0, -1, 0, 0, 1, 0, 0, 816717.375, 22.413999557495117, -814406, 1 ],
			"children" : [ 1 ]
		},
		{
			"mesh" : 0
		}
	],
	"scenes" : [
		{
			"nodes" : [ 0 ]
		}
	],
	"scene" : 0,
	"accessors" : [
		{
			"bufferView" : 0,
			"byteOffset" : 0,
			"componentType" : 5126,
			"count" : 57,
			"type" : "VEC3",
			"min" : [ -5.5625, -2.9375, 0 ],
			"max" : [ 5.5, 2.875, 3.2014007568359375 ]
		},
		{
			"bufferView" : 1,
			"byteOffset" : 0,
			"componentType" : 5126,
			"count" : 57,
			"type" : "VEC3",
			"min" : [ -0.9594127535820007, -0.9594385027885437, 0 ],
			"max" : [ 0.812987744808197, 0.9958787560462952, 0.9978904724121094 ]
		},
		{
			"bufferView" : 2,
			"byteOffset" : 0,
			"componentType" : 5126,
			"count" : 57,
			"type" : "VEC3"
		},
		{
			"bufferView" : 3,
			"byteOffset" : 0,
			"componentType" : 5121,
			"count" : 57,
			"type" : "SCALAR",
			"min" : [ 0 ],
			"max" : [ 56 ]
		}
	],
	"bufferViews" : [
		{
			"buffer" : 0,
			"byteOffset" : 0,
			"byteLength" : 684,
			"target" : 34962
		},
		{
			"buffer" : 0,
			"byteOffset" : 684,
			"byteLength" : 684,
			"target" : 34962
		},
		{
			"buffer" : 0,
			"byteOffset" : 1368,
			"byteLength" : 684,
			"target" : 34962
		},
		{
			"buffer" : 0,
			"byteOffset" : 2052,
			"byteLength" : 57,
			"target" : 34963
		}
	],
	"buffers" : [
		{
			"uri" : "B167181440601062G0.bin",
			"byteLength" : 2109
		}
	]
}
