{
	"asset" : {
		"generator" : "FME 2023.2.1.0",
		"version" : "2.0"
	},
	"materials" : [
		{
			"name" : "default_material",
			"pbrMetallicRoughness" : {
				"baseColorFactor" : [ 1, 1, 1, 1 ],
				"roughnessFactor" : 0.30000000000000004,
				"metallicFactor" : 0.5
			}
		}
	],
	"meshes" : [
		{
			"primitives" : [
				{
					"attributes" : {
						"NORMAL" : 1,
						"POSITION" : 0,
						"COLOR_0" : 2
					},
					"indices" : 3,
					"material" : 0,
					"mode" : 4
				}
			]
		}
	],
	"nodes" : [
		{
			"name" : "B359451738701063C0",
			"matrix" : [ 1, 0, 0, 0, 0, 0, -1, 0, 0, 1, 0, 0, 835943.375, 3.6039559841156006, -817387.4375, 1 ],
			"children" : [ 1 ]
		},
		{
			"mesh" : 0
		}
	],
	"scenes" : [
		{
			"nodes" : [ 0 ]
		}
	],
	"scene" : 0,
	"accessors" : [
		{
			"bufferView" : 0,
			"byteOffset" : 0,
			"componentType" : 5126,
			"count" : 1557,
			"type" : "VEC3",
			"min" : [ -6.6650390625, -3.0439453125, 0 ],
			"max" : [ 6.775390625, 3.08984375, 17.639999389648438 ]
		},
		{
			"bufferView" : 1,
			"byteOffset" : 0,
			"componentType" : 5126,
			"count" : 1557,
			"type" : "VEC3",
			"min" : [ -0.9998205900192261, -0.9999993443489075, -0.015343445353209972 ],
			"max" : [ 0.9998173117637634, 0.9999607801437378, 1 ]
		},
		{
			"bufferView" : 2,
			"byteOffset" : 0,
			"componentType" : 5126,
			"count" : 1557,
			"type" : "VEC3"
		},
		{
			"bufferView" : 3,
			"byteOffset" : 0,
			"componentType" : 5123,
			"count" : 1557,
			"type" : "SCALAR",
			"min" : [ 0 ],
			"max" : [ 1556 ]
		}
	],
	"bufferViews" : [
		{
			"buffer" : 0,
			"byteOffset" : 0,
			"byteLength" : 18684,
			"target" : 34962
		},
		{
			"buffer" : 0,
			"byteOffset" : 18684,
			"byteLength" : 18684,
			"target" : 34962
		},
		{
			"buffer" : 0,
			"byteOffset" : 37368,
			"byteLength" : 18684,
			"target" : 34962
		},
		{
			"buffer" : 0,
			"byteOffset" : 56052,
			"byteLength" : 3114,
			"target" : 34963
		}
	],
	"buffers" : [
		{
			"uri" : "B359451738701063C0.bin",
			"byteLength" : 59166
		}
	]
}
