{
	"asset" : {
		"generator" : "FME 2023.1.0.0",
		"version" : "2.0"
	},
	"materials" : [
		{
			"name" : "default_material",
			"pbrMetallicRoughness" : {
				"baseColorFactor" : [ 1, 1, 1, 1 ],
				"roughnessFactor" : 0.30000000000000004,
				"metallicFactor" : 0.5
			}
		}
	],
	"meshes" : [
		{
			"primitives" : [
				{
					"attributes" : {
						"NORMAL" : 1,
						"POSITION" : 0,
						"COLOR_0" : 2
					},
					"indices" : 3,
					"material" : 0,
					"mode" : 4
				}
			]
		}
	],
	"nodes" : [
		{
			"name" : "B332251521001063C0",
			"matrix" : [ 1, 0, 0, 0, 0, 0, -1, 0, 0, 1, 0, 0, 833228.125, 484.4079895019531, -815213.25, 1 ],
			"children" : [ 1 ]
		},
		{
			"mesh" : 0
		}
	],
	"scenes" : [
		{
			"nodes" : [ 0 ]
		}
	],
	"scene" : 0,
	"accessors" : [
		{
			"bufferView" : 0,
			"byteOffset" : 0,
			"componentType" : 5126,
			"count" : 438,
			"type" : "VEC3",
			"min" : [ -6.861328125, -9.521484375, 0 ],
			"max" : [ 6.8720703125, 9.490234375, 13.839019775390625 ]
		},
		{
			"bufferView" : 1,
			"byteOffset" : 0,
			"componentType" : 5126,
			"count" : 438,
			"type" : "VEC3",
			"min" : [ -1, -0.8463069200515747, -1 ],
			"max" : [ 0.9976523518562317, 0.866884708404541, 1 ]
		},
		{
			"bufferView" : 2,
			"byteOffset" : 0,
			"componentType" : 5126,
			"count" : 438,
			"type" : "VEC3"
		},
		{
			"bufferView" : 3,
			"byteOffset" : 0,
			"componentType" : 5123,
			"count" : 438,
			"type" : "SCALAR",
			"min" : [ 0 ],
			"max" : [ 437 ]
		}
	],
	"bufferViews" : [
		{
			"buffer" : 0,
			"byteOffset" : 0,
			"byteLength" : 5256,
			"target" : 34962
		},
		{
			"buffer" : 0,
			"byteOffset" : 5256,
			"byteLength" : 5256,
			"target" : 34962
		},
		{
			"buffer" : 0,
			"byteOffset" : 10512,
			"byteLength" : 5256,
			"target" : 34962
		},
		{
			"buffer" : 0,
			"byteOffset" : 15768,
			"byteLength" : 876,
			"target" : 34963
		}
	],
	"buffers" : [
		{
			"uri" : "B332251521001063C0.bin",
			"byteLength" : 16644
		}
	]
}
