{
	"asset" : {
		"generator" : "FME 2023.1.0.0",
		"version" : "2.0"
	},
	"images" : [
		{
			"uri" : "T32250210000106E11_001.jpg"
		}
	],
	"samplers" : [
		{
			"wrapS" : 10497,
			"wrapT" : 10497,
			"magFilter" : 9729,
			"minFilter" : 9986
		}
	],
	"textures" : [
		{
			"source" : 0,
			"sampler" : 0
		}
	],
	"materials" : [
		{
			"name" : "T32250210000106E11",
			"pbrMetallicRoughness" : {
				"baseColorTexture" : {
					"index" : 0,
					"texCoord" : 0
				},
				"roughnessFactor" : 0.984375,
				"metallicFactor" : 0.5
			}
		}
	],
	"meshes" : [
		{
			"primitives" : [
				{
					"attributes" : {
						"NORMAL" : 1,
						"POSITION" : 0,
						"TEXCOORD_0" : 2
					},
					"indices" : 3,
					"material" : 0,
					"mode" : 4
				}
			]
		}
	],
	"nodes" : [
		{
			"name" : "T32250210000106E11",
			"matrix" : [ 1, 0, 0, 0, 0, 0, -1, 0, 0, 1, 0, 0, 832625, 0.21228790283203125, -821300, 1 ],
			"children" : [ 1 ]
		},
		{
			"mesh" : 0
		}
	],
	"scenes" : [
		{
			"nodes" : [ 0 ]
		}
	],
	"scene" : 0,
	"accessors" : [
		{
			"bufferView" : 0,
			"byteOffset" : 0,
			"componentType" : 5126,
			"count" : 16849,
			"type" : "VEC3",
			"min" : [ -375, -300, 0 ],
			"max" : [ 375, 300, 14.794910430908203 ]
		},
		{
			"bufferView" : 1,
			"byteOffset" : 0,
			"componentType" : 5126,
			"count" : 16849,
			"type" : "VEC3",
			"min" : [ -1, -1, -0.11091463267803192 ],
			"max" : [ 1, 1, 1 ]
		},
		{
			"bufferView" : 2,
			"byteOffset" : 0,
			"componentType" : 5126,
			"count" : 16849,
			"type" : "VEC2",
			"min" : [ 6.866455078125e-5, 8.296966552734375e-5 ],
			"max" : [ 0.9999352097511292, 0.9999170303344727 ]
		},
		{
			"bufferView" : 3,
			"byteOffset" : 0,
			"componentType" : 5123,
			"count" : 18684,
			"type" : "SCALAR",
			"min" : [ 0 ],
			"max" : [ 16848 ]
		}
	],
	"bufferViews" : [
		{
			"buffer" : 0,
			"byteOffset" : 0,
			"byteLength" : 202188,
			"target" : 34962
		},
		{
			"buffer" : 0,
			"byteOffset" : 202188,
			"byteLength" : 202188,
			"target" : 34962
		},
		{
			"buffer" : 0,
			"byteOffset" : 404376,
			"byteLength" : 134792,
			"target" : 34962
		},
		{
			"buffer" : 0,
			"byteOffset" : 539168,
			"byteLength" : 37368,
			"target" : 34963
		}
	],
	"buffers" : [
		{
			"uri" : "T32250210000106E11.bin",
			"byteLength" : 576536
		}
	]
}
