{
	"asset" : {
		"generator" : "FME 2023.2.2.0",
		"version" : "2.0"
	},
	"materials" : [
		{
			"name" : "default_material",
			"pbrMetallicRoughness" : {
				"baseColorFactor" : [ 1, 1, 1, 1 ],
				"roughnessFactor" : 0.30000000000000004,
				"metallicFactor" : 0.5
			}
		}
	],
	"meshes" : [
		{
			"primitives" : [
				{
					"attributes" : {
						"NORMAL" : 1,
						"POSITION" : 0,
						"COLOR_0" : 2
					},
					"indices" : 3,
					"material" : 0,
					"mode" : 4
				}
			]
		}
	],
	"nodes" : [
		{
			"name" : "B170161470801062G0",
			"matrix" : [ 1, 0, 0, 0, 0, 0, -1, 0, 0, 1, 0, 0, 817016.8125, 18.384599685668945, -814707.25, 1 ],
			"children" : [ 1 ]
		},
		{
			"mesh" : 0
		}
	],
	"scenes" : [
		{
			"nodes" : [ 0 ]
		}
	],
	"scene" : 0,
	"accessors" : [
		{
			"bufferView" : 0,
			"byteOffset" : 0,
			"componentType" : 5126,
			"count" : 264,
			"type" : "VEC3",
			"min" : [ -5.5, -5.1875, 0 ],
			"max" : [ 5.5, 5.25, 11.305500030517578 ]
		},
		{
			"bufferView" : 1,
			"byteOffset" : 0,
			"componentType" : 5126,
			"count" : 264,
			"type" : "VEC3",
			"min" : [ -0.7486130595207214, -0.7492659687995911, -1 ],
			"max" : [ 0.7484652996063232, 0.748332142829895, 1 ]
		},
		{
			"bufferView" : 2,
			"byteOffset" : 0,
			"componentType" : 5126,
			"count" : 264,
			"type" : "VEC3"
		},
		{
			"bufferView" : 3,
			"byteOffset" : 0,
			"componentType" : 5123,
			"count" : 264,
			"type" : "SCALAR",
			"min" : [ 0 ],
			"max" : [ 263 ]
		}
	],
	"bufferViews" : [
		{
			"buffer" : 0,
			"byteOffset" : 0,
			"byteLength" : 3168,
			"target" : 34962
		},
		{
			"buffer" : 0,
			"byteOffset" : 3168,
			"byteLength" : 3168,
			"target" : 34962
		},
		{
			"buffer" : 0,
			"byteOffset" : 6336,
			"byteLength" : 3168,
			"target" : 34962
		},
		{
			"buffer" : 0,
			"byteOffset" : 9504,
			"byteLength" : 528,
			"target" : 34963
		}
	],
	"buffers" : [
		{
			"uri" : "B170161470801062G0.bin",
			"byteLength" : 10032
		}
	]
}
