{
	"asset" : {
		"generator" : "FME 2022.2.4.0",
		"version" : "2.0"
	},
	"materials" : [
		{
			"name" : "default_material",
			"pbrMetallicRoughness" : {
				"baseColorFactor" : [ 1, 1, 1, 1 ],
				"roughnessFactor" : 0.30000000000000004,
				"metallicFactor" : 0.5
			}
		}
	],
	"meshes" : [
		{
			"primitives" : [
				{
					"attributes" : {
						"NORMAL" : 1,
						"POSITION" : 0,
						"COLOR_0" : 2
					},
					"indices" : 3,
					"material" : 0,
					"mode" : 4
				}
			]
		}
	],
	"nodes" : [
		{
			"name" : "B340931589301063C0",
			"matrix" : [ 1, 0, 0, 0, 0, 0, -1, 0, 0, 1, 0, 0, 834092.5, 25.97100067138672, -815891.5, 1 ],
			"children" : [ 1 ]
		},
		{
			"mesh" : 0
		}
	],
	"scenes" : [
		{
			"nodes" : [ 0 ]
		}
	],
	"scene" : 0,
	"accessors" : [
		{
			"bufferView" : 0,
			"byteOffset" : 0,
			"componentType" : 5126,
			"count" : 657,
			"type" : "VEC3",
			"min" : [ -11.2001953125, -11.0537109375, 0 ],
			"max" : [ 11.201171875, 11.052734375, 85.21499633789062 ]
		},
		{
			"bufferView" : 1,
			"byteOffset" : 0,
			"componentType" : 5126,
			"count" : 657,
			"type" : "VEC3",
			"min" : [ -0.8009202480316162, -0.8005549907684326, -0.9909471273422241 ],
			"max" : [ 0.8003067970275879, 0.8010380268096924, 1 ]
		},
		{
			"bufferView" : 2,
			"byteOffset" : 0,
			"componentType" : 5126,
			"count" : 657,
			"type" : "VEC3"
		},
		{
			"bufferView" : 3,
			"byteOffset" : 0,
			"componentType" : 5123,
			"count" : 657,
			"type" : "SCALAR",
			"min" : [ 0 ],
			"max" : [ 656 ]
		}
	],
	"bufferViews" : [
		{
			"buffer" : 0,
			"byteOffset" : 0,
			"byteLength" : 7884,
			"target" : 34962
		},
		{
			"buffer" : 0,
			"byteOffset" : 7884,
			"byteLength" : 7884,
			"target" : 34962
		},
		{
			"buffer" : 0,
			"byteOffset" : 15768,
			"byteLength" : 7884,
			"target" : 34962
		},
		{
			"buffer" : 0,
			"byteOffset" : 23652,
			"byteLength" : 1314,
			"target" : 34963
		}
	],
	"buffers" : [
		{
			"uri" : "B340931589301063C0.bin",
			"byteLength" : 24966
		}
	]
}
