{
	"asset" : {
		"generator" : "FME 2023.1.0.0",
		"version" : "2.0"
	},
	"materials" : [
		{
			"name" : "default_material",
			"pbrMetallicRoughness" : {
				"baseColorFactor" : [ 1, 1, 1, 1 ],
				"roughnessFactor" : 0.30000000000000004,
				"metallicFactor" : 0.5
			}
		}
	],
	"meshes" : [
		{
			"primitives" : [
				{
					"attributes" : {
						"NORMAL" : 1,
						"POSITION" : 0,
						"COLOR_0" : 2
					},
					"indices" : 3,
					"material" : 0,
					"mode" : 4
				}
			]
		}
	],
	"nodes" : [
		{
			"name" : "B334331625901063C0",
			"matrix" : [ 1, 0, 0, 0, 0, 0, -1, 0, 0, 1, 0, 0, 833431.4375, 15.701000213623047, -816262.75, 1 ],
			"children" : [ 1 ]
		},
		{
			"mesh" : 0
		}
	],
	"scenes" : [
		{
			"nodes" : [ 0 ]
		}
	],
	"scene" : 0,
	"accessors" : [
		{
			"bufferView" : 0,
			"byteOffset" : 0,
			"componentType" : 5126,
			"count" : 540,
			"type" : "VEC3",
			"min" : [ -8.369140625, -7.564453125, 0 ],
			"max" : [ 8.396484375, 7.552734375, 23.623001098632812 ]
		},
		{
			"bufferView" : 1,
			"byteOffset" : 0,
			"componentType" : 5126,
			"count" : 540,
			"type" : "VEC3",
			"min" : [ -0.7575594782829285, -0.8061695694923401, -1 ],
			"max" : [ 0.7808688879013062, 0.7680602669715881, 1 ]
		},
		{
			"bufferView" : 2,
			"byteOffset" : 0,
			"componentType" : 5126,
			"count" : 540,
			"type" : "VEC3"
		},
		{
			"bufferView" : 3,
			"byteOffset" : 0,
			"componentType" : 5123,
			"count" : 540,
			"type" : "SCALAR",
			"min" : [ 0 ],
			"max" : [ 539 ]
		}
	],
	"bufferViews" : [
		{
			"buffer" : 0,
			"byteOffset" : 0,
			"byteLength" : 6480,
			"target" : 34962
		},
		{
			"buffer" : 0,
			"byteOffset" : 6480,
			"byteLength" : 6480,
			"target" : 34962
		},
		{
			"buffer" : 0,
			"byteOffset" : 12960,
			"byteLength" : 6480,
			"target" : 34962
		},
		{
			"buffer" : 0,
			"byteOffset" : 19440,
			"byteLength" : 1080,
			"target" : 34963
		}
	],
	"buffers" : [
		{
			"uri" : "B334331625901063C0.bin",
			"byteLength" : 20520
		}
	]
}
