{
	"asset" : {
		"generator" : "FME 2023.1.0.0",
		"version" : "2.0"
	},
	"materials" : [
		{
			"name" : "default_material",
			"pbrMetallicRoughness" : {
				"baseColorFactor" : [ 1, 1, 1, 1 ],
				"roughnessFactor" : 0.30000000000000004,
				"metallicFactor" : 0.5
			}
		}
	],
	"meshes" : [
		{
			"primitives" : [
				{
					"attributes" : {
						"NORMAL" : 1,
						"POSITION" : 0,
						"COLOR_0" : 2
					},
					"indices" : 3,
					"material" : 0,
					"mode" : 4
				}
			]
		}
	],
	"nodes" : [
		{
			"name" : "B335791603301063C0",
			"matrix" : [ 1, 0, 0, 0, 0, 0, -1, 0, 0, 1, 0, 0, 833579.0625, 52.910003662109375, -816030.875, 1 ],
			"children" : [ 1 ]
		},
		{
			"mesh" : 0
		}
	],
	"scenes" : [
		{
			"nodes" : [ 0 ]
		}
	],
	"scene" : 0,
	"accessors" : [
		{
			"bufferView" : 0,
			"byteOffset" : 0,
			"componentType" : 5126,
			"count" : 318,
			"type" : "VEC3",
			"min" : [ -2.9931640625, -5.26953125, 0 ],
			"max" : [ 2.9931640625, 5.26953125, 15.975997924804688 ]
		},
		{
			"bufferView" : 1,
			"byteOffset" : 0,
			"componentType" : 5126,
			"count" : 318,
			"type" : "VEC3",
			"min" : [ -0.9903336763381958, -0.9914587140083313, -0.001991911791265011 ],
			"max" : [ 0.9914249777793884, 0.9903229475021362, 1 ]
		},
		{
			"bufferView" : 2,
			"byteOffset" : 0,
			"componentType" : 5126,
			"count" : 318,
			"type" : "VEC3"
		},
		{
			"bufferView" : 3,
			"byteOffset" : 0,
			"componentType" : 5123,
			"count" : 318,
			"type" : "SCALAR",
			"min" : [ 0 ],
			"max" : [ 317 ]
		}
	],
	"bufferViews" : [
		{
			"buffer" : 0,
			"byteOffset" : 0,
			"byteLength" : 3816,
			"target" : 34962
		},
		{
			"buffer" : 0,
			"byteOffset" : 3816,
			"byteLength" : 3816,
			"target" : 34962
		},
		{
			"buffer" : 0,
			"byteOffset" : 7632,
			"byteLength" : 3816,
			"target" : 34962
		},
		{
			"buffer" : 0,
			"byteOffset" : 11448,
			"byteLength" : 636,
			"target" : 34963
		}
	],
	"buffers" : [
		{
			"uri" : "B335791603301063C0.bin",
			"byteLength" : 12084
		}
	]
}
