{"asset":{"generator":"FME 2022.2.4.0","version":"2.0"},"materials":[{"name":"T11250192000106E11","pbrMetallicRoughness":{"roughnessFactor":0.984375,"metallicFactor":0.5}}],"meshes":[{"primitives":[{"attributes":{"NORMAL":1,"POSITION":0,"TEXCOORD_0":2},"indices":3,"material":0,"mode":4}]}],"nodes":[{"name":"T11250192000106E11","matrix":[1,0,0,0,0,0,-1,0,0,1,0,0,811625,-1.2863092422485352,-819500,1],"children":[1]},{"mesh":0}],"scenes":[{"nodes":[0]}],"scene":0,"accessors":[{"bufferView":0,"byteOffset":0,"componentType":5126,"count":9470,"type":"VEC3","min":[-375,-300,0],"max":[375.0000305175781,300.0703125,9.562310218811035]},{"bufferView":1,"byteOffset":0,"componentType":5126,"count":9470,"type":"VEC3","min":[-0.9984723925590515,-1,-0.998155951499939],"max":[0.9989777207374573,0.9855843782424927,1]},{"bufferView":2,"byteOffset":0,"componentType":5126,"count":9470,"type":"VEC2","min":[0.00013324618339538574,0.0001138448715209961],"max":[0.999866783618927,0.999886155128479]},{"bufferView":3,"byteOffset":0,"componentType":5123,"count":54669,"type":"SCALAR","min":[0],"max":[9469]}],"bufferViews":[{"buffer":0,"byteOffset":0,"byteLength":113640,"target":34962},{"buffer":0,"byteOffset":113640,"byteLength":113640,"target":34962},{"buffer":0,"byteOffset":227280,"byteLength":75760,"target":34962},{"buffer":0,"byteOffset":303040,"byteLength":109338,"target":34963}],"buffers":[{"uri":"T11250192000106E11.bin","byteLength":412378}]}