{
	"asset" : {
		"generator" : "FME 2022.2.4.0",
		"version" : "2.0"
	},
	"materials" : [
		{
			"name" : "default_material",
			"pbrMetallicRoughness" : {
				"baseColorFactor" : [ 1, 1, 1, 1 ],
				"roughnessFactor" : 0.30000000000000004,
				"metallicFactor" : 0.5
			}
		}
	],
	"meshes" : [
		{
			"primitives" : [
				{
					"attributes" : {
						"NORMAL" : 1,
						"POSITION" : 0,
						"COLOR_0" : 2
					},
					"indices" : 3,
					"material" : 0,
					"mode" : 4
				}
			]
		}
	],
	"nodes" : [
		{
			"name" : "B171381449501062G0",
			"matrix" : [ 1, 0, 0, 0, 0, 0, -1, 0, 0, 1, 0, 0, 817138, 11.951000213623047, -814495.75, 1 ],
			"children" : [ 1 ]
		},
		{
			"mesh" : 0
		}
	],
	"scenes" : [
		{
			"nodes" : [ 0 ]
		}
	],
	"scene" : 0,
	"accessors" : [
		{
			"bufferView" : 0,
			"byteOffset" : 0,
			"componentType" : 5126,
			"count" : 1179,
			"type" : "VEC3",
			"min" : [ -7.9375, -6.5625, 0 ],
			"max" : [ 8, 6.625, 11.292200088500977 ]
		},
		{
			"bufferView" : 1,
			"byteOffset" : 0,
			"componentType" : 5126,
			"count" : 1179,
			"type" : "VEC3",
			"min" : [ -0.993886411190033, -0.9984586238861084, -1 ],
			"max" : [ 0.9938863515853882, 0.9984586238861084, 1 ]
		},
		{
			"bufferView" : 2,
			"byteOffset" : 0,
			"componentType" : 5126,
			"count" : 1179,
			"type" : "VEC3"
		},
		{
			"bufferView" : 3,
			"byteOffset" : 0,
			"componentType" : 5123,
			"count" : 1179,
			"type" : "SCALAR",
			"min" : [ 0 ],
			"max" : [ 1178 ]
		}
	],
	"bufferViews" : [
		{
			"buffer" : 0,
			"byteOffset" : 0,
			"byteLength" : 14148,
			"target" : 34962
		},
		{
			"buffer" : 0,
			"byteOffset" : 14148,
			"byteLength" : 14148,
			"target" : 34962
		},
		{
			"buffer" : 0,
			"byteOffset" : 28296,
			"byteLength" : 14148,
			"target" : 34962
		},
		{
			"buffer" : 0,
			"byteOffset" : 42444,
			"byteLength" : 2358,
			"target" : 34963
		}
	],
	"buffers" : [
		{
			"uri" : "B171381449501062G0.bin",
			"byteLength" : 44802
		}
	]
}
