{
	"asset" : {
		"generator" : "FME 2022.2.4.0",
		"version" : "2.0"
	},
	"materials" : [
		{
			"name" : "default_material",
			"pbrMetallicRoughness" : {
				"baseColorFactor" : [ 1, 1, 1, 1 ],
				"roughnessFactor" : 0.30000000000000004,
				"metallicFactor" : 0.5
			}
		}
	],
	"meshes" : [
		{
			"primitives" : [
				{
					"attributes" : {
						"NORMAL" : 1,
						"POSITION" : 0,
						"COLOR_0" : 2
					},
					"indices" : 3,
					"material" : 0,
					"mode" : 4
				}
			]
		}
	],
	"nodes" : [
		{
			"name" : "B336361636901063C0",
			"matrix" : [ 1, 0, 0, 0, 0, 0, -1, 0, 0, 1, 0, 0, 833637.9375, 3.181995153427124, -816364.9375, 1 ],
			"children" : [ 1 ]
		},
		{
			"mesh" : 0
		}
	],
	"scenes" : [
		{
			"nodes" : [ 0 ]
		}
	],
	"scene" : 0,
	"accessors" : [
		{
			"bufferView" : 0,
			"byteOffset" : 0,
			"componentType" : 5126,
			"count" : 504,
			"type" : "VEC3",
			"min" : [ -6.056640625, -8.7509765625, 0 ],
			"max" : [ 6.0556640625, 8.75, 24.339000701904297 ]
		},
		{
			"bufferView" : 1,
			"byteOffset" : 0,
			"componentType" : 5126,
			"count" : 504,
			"type" : "VEC3",
			"min" : [ -0.9723382592201233, -0.9701055884361267, -1 ],
			"max" : [ 0.9700620174407959, 0.9699574112892151, 1 ]
		},
		{
			"bufferView" : 2,
			"byteOffset" : 0,
			"componentType" : 5126,
			"count" : 504,
			"type" : "VEC3"
		},
		{
			"bufferView" : 3,
			"byteOffset" : 0,
			"componentType" : 5123,
			"count" : 504,
			"type" : "SCALAR",
			"min" : [ 0 ],
			"max" : [ 503 ]
		}
	],
	"bufferViews" : [
		{
			"buffer" : 0,
			"byteOffset" : 0,
			"byteLength" : 6048,
			"target" : 34962
		},
		{
			"buffer" : 0,
			"byteOffset" : 6048,
			"byteLength" : 6048,
			"target" : 34962
		},
		{
			"buffer" : 0,
			"byteOffset" : 12096,
			"byteLength" : 6048,
			"target" : 34962
		},
		{
			"buffer" : 0,
			"byteOffset" : 18144,
			"byteLength" : 1008,
			"target" : 34963
		}
	],
	"buffers" : [
		{
			"uri" : "B336361636901063C0.bin",
			"byteLength" : 19152
		}
	]
}
