{
	"asset" : {
		"generator" : "FME 2022.2.4.0",
		"version" : "2.0"
	},
	"materials" : [
		{
			"name" : "default_material",
			"pbrMetallicRoughness" : {
				"baseColorFactor" : [ 1, 1, 1, 1 ],
				"roughnessFactor" : 0.30000000000000004,
				"metallicFactor" : 0.5
			}
		}
	],
	"meshes" : [
		{
			"primitives" : [
				{
					"attributes" : {
						"NORMAL" : 1,
						"POSITION" : 0,
						"COLOR_0" : 2
					},
					"indices" : 3,
					"material" : 0,
					"mode" : 4
				}
			]
		}
	],
	"nodes" : [
		{
			"name" : "B338311586801063C0",
			"matrix" : [ 1, 0, 0, 0, 0, 0, -1, 0, 0, 1, 0, 0, 833830.4375, 56.8809928894043, -815868.375, 1 ],
			"children" : [ 1 ]
		},
		{
			"mesh" : 0
		}
	],
	"scenes" : [
		{
			"nodes" : [ 0 ]
		}
	],
	"scene" : 0,
	"accessors" : [
		{
			"bufferView" : 0,
			"byteOffset" : 0,
			"componentType" : 5126,
			"count" : 288,
			"type" : "VEC3",
			"min" : [ -5.1748046875, -4.4453125, 0 ],
			"max" : [ 5.1748046875, 4.4453125, 26.611995697021484 ]
		},
		{
			"bufferView" : 1,
			"byteOffset" : 0,
			"componentType" : 5126,
			"count" : 288,
			"type" : "VEC3",
			"min" : [ -0.9866121411323547, -0.9856160283088684, -1 ],
			"max" : [ 0.9869101643562317, 0.9857065677642822, 1 ]
		},
		{
			"bufferView" : 2,
			"byteOffset" : 0,
			"componentType" : 5126,
			"count" : 288,
			"type" : "VEC3"
		},
		{
			"bufferView" : 3,
			"byteOffset" : 0,
			"componentType" : 5123,
			"count" : 288,
			"type" : "SCALAR",
			"min" : [ 0 ],
			"max" : [ 287 ]
		}
	],
	"bufferViews" : [
		{
			"buffer" : 0,
			"byteOffset" : 0,
			"byteLength" : 3456,
			"target" : 34962
		},
		{
			"buffer" : 0,
			"byteOffset" : 3456,
			"byteLength" : 3456,
			"target" : 34962
		},
		{
			"buffer" : 0,
			"byteOffset" : 6912,
			"byteLength" : 3456,
			"target" : 34962
		},
		{
			"buffer" : 0,
			"byteOffset" : 10368,
			"byteLength" : 576,
			"target" : 34963
		}
	],
	"buffers" : [
		{
			"uri" : "B338311586801063C0.bin",
			"byteLength" : 10944
		}
	]
}
