{
	"asset" : {
		"generator" : "FME 2023.2.1.0",
		"version" : "2.0"
	},
	"materials" : [
		{
			"name" : "default_material",
			"pbrMetallicRoughness" : {
				"baseColorFactor" : [ 1, 1, 1, 1 ],
				"roughnessFactor" : 0.30000000000000004,
				"metallicFactor" : 0.5
			}
		}
	],
	"meshes" : [
		{
			"primitives" : [
				{
					"attributes" : {
						"NORMAL" : 1,
						"POSITION" : 0,
						"COLOR_0" : 2
					},
					"indices" : 3,
					"material" : 0,
					"mode" : 4
				}
			]
		}
	],
	"nodes" : [
		{
			"name" : "B339031541901063C0",
			"matrix" : [ 1, 0, 0, 0, 0, 0, -1, 0, 0, 1, 0, 0, 833903.3125, 118.18800354003906, -815405.5625, 1 ],
			"children" : [ 1 ]
		},
		{
			"mesh" : 0
		}
	],
	"scenes" : [
		{
			"nodes" : [ 0 ]
		}
	],
	"scene" : 0,
	"accessors" : [
		{
			"bufferView" : 0,
			"byteOffset" : 0,
			"componentType" : 5126,
			"count" : 20373,
			"type" : "VEC3",
			"min" : [ -38.8125, -22.1875, 0 ],
			"max" : [ 38.8125, 22.1875, 27.813003540039062 ]
		},
		{
			"bufferView" : 1,
			"byteOffset" : 0,
			"componentType" : 5126,
			"count" : 20373,
			"type" : "VEC3",
			"min" : [ -1, -1, -1 ],
			"max" : [ 1, 1, 1 ]
		},
		{
			"bufferView" : 2,
			"byteOffset" : 0,
			"componentType" : 5126,
			"count" : 20373,
			"type" : "VEC3"
		},
		{
			"bufferView" : 3,
			"byteOffset" : 0,
			"componentType" : 5123,
			"count" : 20373,
			"type" : "SCALAR",
			"min" : [ 0 ],
			"max" : [ 20372 ]
		}
	],
	"bufferViews" : [
		{
			"buffer" : 0,
			"byteOffset" : 0,
			"byteLength" : 244476,
			"target" : 34962
		},
		{
			"buffer" : 0,
			"byteOffset" : 244476,
			"byteLength" : 244476,
			"target" : 34962
		},
		{
			"buffer" : 0,
			"byteOffset" : 488952,
			"byteLength" : 244476,
			"target" : 34962
		},
		{
			"buffer" : 0,
			"byteOffset" : 733428,
			"byteLength" : 40746,
			"target" : 34963
		}
	],
	"buffers" : [
		{
			"uri" : "B339031541901063C0.bin",
			"byteLength" : 774174
		}
	]
}
