{
	"asset" : {
		"generator" : "FME 2023.1.0.0",
		"version" : "2.0"
	},
	"materials" : [
		{
			"name" : "default_material",
			"pbrMetallicRoughness" : {
				"baseColorFactor" : [ 1, 1, 1, 1 ],
				"roughnessFactor" : 0.30000000000000004,
				"metallicFactor" : 0.5
			}
		}
	],
	"meshes" : [
		{
			"primitives" : [
				{
					"attributes" : {
						"NORMAL" : 1,
						"POSITION" : 0,
						"COLOR_0" : 2
					},
					"indices" : 3,
					"material" : 0,
					"mode" : 4
				}
			]
		}
	],
	"nodes" : [
		{
			"name" : "B335831603601063C0",
			"matrix" : [ 1, 0, 0, 0, 0, 0, -1, 0, 0, 1, 0, 0, 833586.5625, 53.22900390625, -816034.625, 1 ],
			"children" : [ 1 ]
		},
		{
			"mesh" : 0
		}
	],
	"scenes" : [
		{
			"nodes" : [ 0 ]
		}
	],
	"scene" : 0,
	"accessors" : [
		{
			"bufferView" : 0,
			"byteOffset" : 0,
			"componentType" : 5126,
			"count" : 123,
			"type" : "VEC3",
			"min" : [ -3.1220703125, -1.7099609375, 0 ],
			"max" : [ 3.123046875, 1.7099609375, 3.48699951171875 ]
		},
		{
			"bufferView" : 1,
			"byteOffset" : 0,
			"componentType" : 5126,
			"count" : 123,
			"type" : "VEC3",
			"min" : [ -0.7126986384391785, -0.9872395992279053, -0.0018090881640091538 ],
			"max" : [ 0.730705976486206, 0.9834766387939453, 1 ]
		},
		{
			"bufferView" : 2,
			"byteOffset" : 0,
			"componentType" : 5126,
			"count" : 123,
			"type" : "VEC3"
		},
		{
			"bufferView" : 3,
			"byteOffset" : 0,
			"componentType" : 5121,
			"count" : 123,
			"type" : "SCALAR",
			"min" : [ 0 ],
			"max" : [ 122 ]
		}
	],
	"bufferViews" : [
		{
			"buffer" : 0,
			"byteOffset" : 0,
			"byteLength" : 1476,
			"target" : 34962
		},
		{
			"buffer" : 0,
			"byteOffset" : 1476,
			"byteLength" : 1476,
			"target" : 34962
		},
		{
			"buffer" : 0,
			"byteOffset" : 2952,
			"byteLength" : 1476,
			"target" : 34962
		},
		{
			"buffer" : 0,
			"byteOffset" : 4428,
			"byteLength" : 123,
			"target" : 34963
		}
	],
	"buffers" : [
		{
			"uri" : "B335831603601063C0.bin",
			"byteLength" : 4551
		}
	]
}
