{
	"asset" : {
		"generator" : "FME 2022.2.4.0",
		"version" : "2.0"
	},
	"materials" : [
		{
			"name" : "default_material",
			"pbrMetallicRoughness" : {
				"baseColorFactor" : [ 1, 1, 1, 1 ],
				"roughnessFactor" : 0.30000000000000004,
				"metallicFactor" : 0.5
			}
		}
	],
	"meshes" : [
		{
			"primitives" : [
				{
					"attributes" : {
						"NORMAL" : 1,
						"POSITION" : 0,
						"COLOR_0" : 2
					},
					"indices" : 3,
					"material" : 0,
					"mode" : 4
				}
			]
		}
	],
	"nodes" : [
		{
			"name" : "B333231624001063C0",
			"matrix" : [ 1, 0, 0, 0, 0, 0, -1, 0, 0, 1, 0, 0, 833320.875, 21.958999633789062, -816242.5, 1 ],
			"children" : [ 1 ]
		},
		{
			"mesh" : 0
		}
	],
	"scenes" : [
		{
			"nodes" : [ 0 ]
		}
	],
	"scene" : 0,
	"accessors" : [
		{
			"bufferView" : 0,
			"byteOffset" : 0,
			"componentType" : 5126,
			"count" : 459,
			"type" : "VEC3",
			"min" : [ -6.228515625, -5.45703125, 0 ],
			"max" : [ 6.3095703125, 5.484375, 23.177001953125 ]
		},
		{
			"bufferView" : 1,
			"byteOffset" : 0,
			"componentType" : 5126,
			"count" : 459,
			"type" : "VEC3",
			"min" : [ -0.7832430005073547, -0.778753936290741, -1 ],
			"max" : [ 0.7747361660003662, 0.7746032476425171, 1 ]
		},
		{
			"bufferView" : 2,
			"byteOffset" : 0,
			"componentType" : 5126,
			"count" : 459,
			"type" : "VEC3"
		},
		{
			"bufferView" : 3,
			"byteOffset" : 0,
			"componentType" : 5123,
			"count" : 459,
			"type" : "SCALAR",
			"min" : [ 0 ],
			"max" : [ 458 ]
		}
	],
	"bufferViews" : [
		{
			"buffer" : 0,
			"byteOffset" : 0,
			"byteLength" : 5508,
			"target" : 34962
		},
		{
			"buffer" : 0,
			"byteOffset" : 5508,
			"byteLength" : 5508,
			"target" : 34962
		},
		{
			"buffer" : 0,
			"byteOffset" : 11016,
			"byteLength" : 5508,
			"target" : 34962
		},
		{
			"buffer" : 0,
			"byteOffset" : 16524,
			"byteLength" : 918,
			"target" : 34963
		}
	],
	"buffers" : [
		{
			"uri" : "B333231624001063C0.bin",
			"byteLength" : 17442
		}
	]
}
