{
	"asset" : {
		"generator" : "FME 2022.2.4.0",
		"version" : "2.0"
	},
	"materials" : [
		{
			"name" : "default_material",
			"pbrMetallicRoughness" : {
				"baseColorFactor" : [ 1, 1, 1, 1 ],
				"roughnessFactor" : 0.30000000000000004,
				"metallicFactor" : 0.5
			}
		}
	],
	"meshes" : [
		{
			"primitives" : [
				{
					"attributes" : {
						"NORMAL" : 1,
						"POSITION" : 0,
						"COLOR_0" : 2
					},
					"indices" : 3,
					"material" : 0,
					"mode" : 4
				}
			]
		}
	],
	"nodes" : [
		{
			"name" : "B332021585901063C0",
			"matrix" : [ 1, 0, 0, 0, 0, 0, -1, 0, 0, 1, 0, 0, 833205, 138.95501708984375, -815857.375, 1 ],
			"children" : [ 1 ]
		},
		{
			"mesh" : 0
		}
	],
	"scenes" : [
		{
			"nodes" : [ 0 ]
		}
	],
	"scene" : 0,
	"accessors" : [
		{
			"bufferView" : 0,
			"byteOffset" : 0,
			"componentType" : 5126,
			"count" : 2172,
			"type" : "VEC3",
			"min" : [ -5.470703125, -6.20703125, 0 ],
			"max" : [ 5.470703125, 6.20703125, 23.73699951171875 ]
		},
		{
			"bufferView" : 1,
			"byteOffset" : 0,
			"componentType" : 5126,
			"count" : 2172,
			"type" : "VEC3",
			"min" : [ -0.9971853494644165, -0.9999927878379822, -1 ],
			"max" : [ 1, 0.9998787641525269, 1 ]
		},
		{
			"bufferView" : 2,
			"byteOffset" : 0,
			"componentType" : 5126,
			"count" : 2172,
			"type" : "VEC3"
		},
		{
			"bufferView" : 3,
			"byteOffset" : 0,
			"componentType" : 5123,
			"count" : 2172,
			"type" : "SCALAR",
			"min" : [ 0 ],
			"max" : [ 2171 ]
		}
	],
	"bufferViews" : [
		{
			"buffer" : 0,
			"byteOffset" : 0,
			"byteLength" : 26064,
			"target" : 34962
		},
		{
			"buffer" : 0,
			"byteOffset" : 26064,
			"byteLength" : 26064,
			"target" : 34962
		},
		{
			"buffer" : 0,
			"byteOffset" : 52128,
			"byteLength" : 26064,
			"target" : 34962
		},
		{
			"buffer" : 0,
			"byteOffset" : 78192,
			"byteLength" : 4344,
			"target" : 34963
		}
	],
	"buffers" : [
		{
			"uri" : "B332021585901063C0.bin",
			"byteLength" : 82536
		}
	]
}
