{
	"asset" : {
		"generator" : "FME 2023.1.0.0",
		"version" : "2.0"
	},
	"materials" : [
		{
			"name" : "default_material",
			"pbrMetallicRoughness" : {
				"baseColorFactor" : [ 1, 1, 1, 1 ],
				"roughnessFactor" : 0.30000000000000004,
				"metallicFactor" : 0.5
			}
		}
	],
	"meshes" : [
		{
			"primitives" : [
				{
					"attributes" : {
						"NORMAL" : 1,
						"POSITION" : 0,
						"COLOR_0" : 2
					},
					"indices" : 3,
					"material" : 0,
					"mode" : 4
				}
			]
		}
	],
	"nodes" : [
		{
			"name" : "B339331574301063C0",
			"matrix" : [ 1, 0, 0, 0, 0, 0, -1, 0, 0, 1, 0, 0, 833932.3125, 50.18899917602539, -815744.5625, 1 ],
			"children" : [ 1 ]
		},
		{
			"mesh" : 0
		}
	],
	"scenes" : [
		{
			"nodes" : [ 0 ]
		}
	],
	"scene" : 0,
	"accessors" : [
		{
			"bufferView" : 0,
			"byteOffset" : 0,
			"componentType" : 5126,
			"count" : 546,
			"type" : "VEC3",
			"min" : [ -13.501953125, -10.818359375, 0 ],
			"max" : [ 13.501953125, 10.818359375, 19.33200454711914 ]
		},
		{
			"bufferView" : 1,
			"byteOffset" : 0,
			"componentType" : 5126,
			"count" : 546,
			"type" : "VEC3",
			"min" : [ -0.9997786283493042, -0.8562548160552979, -1 ],
			"max" : [ 0.9983202219009399, 0.8565680980682373, 1 ]
		},
		{
			"bufferView" : 2,
			"byteOffset" : 0,
			"componentType" : 5126,
			"count" : 546,
			"type" : "VEC3"
		},
		{
			"bufferView" : 3,
			"byteOffset" : 0,
			"componentType" : 5123,
			"count" : 546,
			"type" : "SCALAR",
			"min" : [ 0 ],
			"max" : [ 545 ]
		}
	],
	"bufferViews" : [
		{
			"buffer" : 0,
			"byteOffset" : 0,
			"byteLength" : 6552,
			"target" : 34962
		},
		{
			"buffer" : 0,
			"byteOffset" : 6552,
			"byteLength" : 6552,
			"target" : 34962
		},
		{
			"buffer" : 0,
			"byteOffset" : 13104,
			"byteLength" : 6552,
			"target" : 34962
		},
		{
			"buffer" : 0,
			"byteOffset" : 19656,
			"byteLength" : 1092,
			"target" : 34963
		}
	],
	"buffers" : [
		{
			"uri" : "B339331574301063C0.bin",
			"byteLength" : 20748
		}
	]
}
