{
	"asset" : {
		"generator" : "FME 2023.2.1.0",
		"version" : "2.0"
	},
	"materials" : [
		{
			"name" : "default_material",
			"pbrMetallicRoughness" : {
				"baseColorFactor" : [ 1, 1, 1, 1 ],
				"roughnessFactor" : 0.30000000000000004,
				"metallicFactor" : 0.5
			}
		}
	],
	"meshes" : [
		{
			"primitives" : [
				{
					"attributes" : {
						"NORMAL" : 1,
						"POSITION" : 0,
						"COLOR_0" : 2
					},
					"indices" : 3,
					"material" : 0,
					"mode" : 4
				}
			]
		}
	],
	"nodes" : [
		{
			"name" : "B359501739501063C0",
			"matrix" : [ 1, 0, 0, 0, 0, 0, -1, 0, 0, 1, 0, 0, 835948.625, 4.9311017990112305, -817395, 1 ],
			"children" : [ 1 ]
		},
		{
			"mesh" : 0
		}
	],
	"scenes" : [
		{
			"nodes" : [ 0 ]
		}
	],
	"scene" : 0,
	"accessors" : [
		{
			"bufferView" : 0,
			"byteOffset" : 0,
			"componentType" : 5126,
			"count" : 1254,
			"type" : "VEC3",
			"min" : [ -13.3720703125, -5.2138671875, 0 ],
			"max" : [ 13.4091796875, 5.203125, 14.130354881286621 ]
		},
		{
			"bufferView" : 1,
			"byteOffset" : 0,
			"componentType" : 5126,
			"count" : 1254,
			"type" : "VEC3",
			"min" : [ -0.9996058940887451, -0.9999995231628418, -1 ],
			"max" : [ 0.9995790123939514, 1, 1 ]
		},
		{
			"bufferView" : 2,
			"byteOffset" : 0,
			"componentType" : 5126,
			"count" : 1254,
			"type" : "VEC3"
		},
		{
			"bufferView" : 3,
			"byteOffset" : 0,
			"componentType" : 5123,
			"count" : 1254,
			"type" : "SCALAR",
			"min" : [ 0 ],
			"max" : [ 1253 ]
		}
	],
	"bufferViews" : [
		{
			"buffer" : 0,
			"byteOffset" : 0,
			"byteLength" : 15048,
			"target" : 34962
		},
		{
			"buffer" : 0,
			"byteOffset" : 15048,
			"byteLength" : 15048,
			"target" : 34962
		},
		{
			"buffer" : 0,
			"byteOffset" : 30096,
			"byteLength" : 15048,
			"target" : 34962
		},
		{
			"buffer" : 0,
			"byteOffset" : 45144,
			"byteLength" : 2508,
			"target" : 34963
		}
	],
	"buffers" : [
		{
			"uri" : "B359501739501063C0.bin",
			"byteLength" : 47652
		}
	]
}
