{
	"asset" : {
		"generator" : "FME 2022.2.4.0",
		"version" : "2.0"
	},
	"materials" : [
		{
			"name" : "default_material",
			"pbrMetallicRoughness" : {
				"baseColorFactor" : [ 1, 1, 1, 1 ],
				"roughnessFactor" : 0.30000000000000004,
				"metallicFactor" : 0.5
			}
		}
	],
	"meshes" : [
		{
			"primitives" : [
				{
					"attributes" : {
						"NORMAL" : 1,
						"POSITION" : 0,
						"COLOR_0" : 2
					},
					"indices" : 3,
					"material" : 0,
					"mode" : 4
				}
			]
		}
	],
	"nodes" : [
		{
			"name" : "B337291624301063C0",
			"matrix" : [ 1, 0, 0, 0, 0, 0, -1, 0, 0, 1, 0, 0, 833729.8125, 3.6429998874664307, -816252.4375, 1 ],
			"children" : [ 1 ]
		},
		{
			"mesh" : 0
		}
	],
	"scenes" : [
		{
			"nodes" : [ 0 ]
		}
	],
	"scene" : 0,
	"accessors" : [
		{
			"bufferView" : 0,
			"byteOffset" : 0,
			"componentType" : 5126,
			"count" : 1719,
			"type" : "VEC3",
			"min" : [ -10.9052734375, -13.6611328125, 0 ],
			"max" : [ 10.9052734375, 13.6611328125, 80.74683380126953 ]
		},
		{
			"bufferView" : 1,
			"byteOffset" : 0,
			"componentType" : 5126,
			"count" : 1719,
			"type" : "VEC3",
			"min" : [ -1, -0.9893592000007629, -1 ],
			"max" : [ 0.9999995827674866, 0.9890443682670593, 1 ]
		},
		{
			"bufferView" : 2,
			"byteOffset" : 0,
			"componentType" : 5126,
			"count" : 1719,
			"type" : "VEC3"
		},
		{
			"bufferView" : 3,
			"byteOffset" : 0,
			"componentType" : 5123,
			"count" : 1719,
			"type" : "SCALAR",
			"min" : [ 0 ],
			"max" : [ 1718 ]
		}
	],
	"bufferViews" : [
		{
			"buffer" : 0,
			"byteOffset" : 0,
			"byteLength" : 20628,
			"target" : 34962
		},
		{
			"buffer" : 0,
			"byteOffset" : 20628,
			"byteLength" : 20628,
			"target" : 34962
		},
		{
			"buffer" : 0,
			"byteOffset" : 41256,
			"byteLength" : 20628,
			"target" : 34962
		},
		{
			"buffer" : 0,
			"byteOffset" : 61884,
			"byteLength" : 3438,
			"target" : 34963
		}
	],
	"buffers" : [
		{
			"uri" : "B337291624301063C0.bin",
			"byteLength" : 65322
		}
	]
}
