{
	"asset" : {
		"generator" : "FME 2023.1.0.0",
		"version" : "2.0"
	},
	"materials" : [
		{
			"name" : "default_material",
			"pbrMetallicRoughness" : {
				"baseColorFactor" : [ 1, 1, 1, 1 ],
				"roughnessFactor" : 0.30000000000000004,
				"metallicFactor" : 0.5
			}
		}
	],
	"meshes" : [
		{
			"primitives" : [
				{
					"attributes" : {
						"NORMAL" : 1,
						"POSITION" : 0,
						"COLOR_0" : 2
					},
					"indices" : 3,
					"material" : 0,
					"mode" : 4
				}
			]
		}
	],
	"nodes" : [
		{
			"name" : "B356401531101063C0",
			"matrix" : [ 1, 0, 0, 0, 0, 0, -1, 0, 0, 1, 0, 0, 835637.3125, 13.635000228881836, -815303.3125, 1 ],
			"children" : [ 1 ]
		},
		{
			"mesh" : 0
		}
	],
	"scenes" : [
		{
			"nodes" : [ 0 ]
		}
	],
	"scene" : 0,
	"accessors" : [
		{
			"bufferView" : 0,
			"byteOffset" : 0,
			"componentType" : 5126,
			"count" : 1311,
			"type" : "VEC3",
			"min" : [ -8.71484375, -7.951171875, 0 ],
			"max" : [ 8.7138671875, 7.951171875, 65.79000091552734 ]
		},
		{
			"bufferView" : 1,
			"byteOffset" : 0,
			"componentType" : 5126,
			"count" : 1311,
			"type" : "VEC3",
			"min" : [ -0.9496808648109436, -0.8349582552909851, -1 ],
			"max" : [ 0.9498788714408875, 0.9891809821128845, 1 ]
		},
		{
			"bufferView" : 2,
			"byteOffset" : 0,
			"componentType" : 5126,
			"count" : 1311,
			"type" : "VEC3"
		},
		{
			"bufferView" : 3,
			"byteOffset" : 0,
			"componentType" : 5123,
			"count" : 1311,
			"type" : "SCALAR",
			"min" : [ 0 ],
			"max" : [ 1310 ]
		}
	],
	"bufferViews" : [
		{
			"buffer" : 0,
			"byteOffset" : 0,
			"byteLength" : 15732,
			"target" : 34962
		},
		{
			"buffer" : 0,
			"byteOffset" : 15732,
			"byteLength" : 15732,
			"target" : 34962
		},
		{
			"buffer" : 0,
			"byteOffset" : 31464,
			"byteLength" : 15732,
			"target" : 34962
		},
		{
			"buffer" : 0,
			"byteOffset" : 47196,
			"byteLength" : 2622,
			"target" : 34963
		}
	],
	"buffers" : [
		{
			"uri" : "B356401531101063C0.bin",
			"byteLength" : 49818
		}
	]
}
