{
	"asset" : {
		"generator" : "FME 2022.2.4.0",
		"version" : "2.0"
	},
	"materials" : [
		{
			"name" : "default_material",
			"pbrMetallicRoughness" : {
				"baseColorFactor" : [ 1, 1, 1, 1 ],
				"roughnessFactor" : 0.30000000000000004,
				"metallicFactor" : 0.5
			}
		}
	],
	"meshes" : [
		{
			"primitives" : [
				{
					"attributes" : {
						"NORMAL" : 1,
						"POSITION" : 0,
						"COLOR_0" : 2
					},
					"indices" : 3,
					"material" : 0,
					"mode" : 4
				}
			]
		}
	],
	"nodes" : [
		{
			"name" : "B171321442301062G0",
			"matrix" : [ 1, 0, 0, 0, 0, 0, -1, 0, 0, 1, 0, 0, 817132.125, 10.903499603271484, -814421.5625, 1 ],
			"children" : [ 1 ]
		},
		{
			"mesh" : 0
		}
	],
	"scenes" : [
		{
			"nodes" : [ 0 ]
		}
	],
	"scene" : 0,
	"accessors" : [
		{
			"bufferView" : 0,
			"byteOffset" : 0,
			"componentType" : 5126,
			"count" : 915,
			"type" : "VEC3",
			"min" : [ -4.875, -5.625, 0 ],
			"max" : [ 4.875, 5.625, 6.991899490356445 ]
		},
		{
			"bufferView" : 1,
			"byteOffset" : 0,
			"componentType" : 5126,
			"count" : 915,
			"type" : "VEC3",
			"min" : [ -1, -0.9880082607269287, -1 ],
			"max" : [ 1, 0.9880083203315735, 1 ]
		},
		{
			"bufferView" : 2,
			"byteOffset" : 0,
			"componentType" : 5126,
			"count" : 915,
			"type" : "VEC3"
		},
		{
			"bufferView" : 3,
			"byteOffset" : 0,
			"componentType" : 5123,
			"count" : 915,
			"type" : "SCALAR",
			"min" : [ 0 ],
			"max" : [ 914 ]
		}
	],
	"bufferViews" : [
		{
			"buffer" : 0,
			"byteOffset" : 0,
			"byteLength" : 10980,
			"target" : 34962
		},
		{
			"buffer" : 0,
			"byteOffset" : 10980,
			"byteLength" : 10980,
			"target" : 34962
		},
		{
			"buffer" : 0,
			"byteOffset" : 21960,
			"byteLength" : 10980,
			"target" : 34962
		},
		{
			"buffer" : 0,
			"byteOffset" : 32940,
			"byteLength" : 1830,
			"target" : 34963
		}
	],
	"buffers" : [
		{
			"uri" : "B171321442301062G0.bin",
			"byteLength" : 34770
		}
	]
}
