{
	"asset" : {
		"generator" : "FME 2022.2.4.0",
		"version" : "2.0"
	},
	"materials" : [
		{
			"name" : "default_material",
			"pbrMetallicRoughness" : {
				"baseColorFactor" : [ 1, 1, 1, 1 ],
				"roughnessFactor" : 0.30000000000000004,
				"metallicFactor" : 0.5
			}
		}
	],
	"meshes" : [
		{
			"primitives" : [
				{
					"attributes" : {
						"NORMAL" : 1,
						"POSITION" : 0,
						"COLOR_0" : 2
					},
					"indices" : 3,
					"material" : 0,
					"mode" : 4
				}
			]
		}
	],
	"nodes" : [
		{
			"name" : "B334411584801063C0",
			"matrix" : [ 1, 0, 0, 0, 0, 0, -1, 0, 0, 1, 0, 0, 833443.8125, 124.4630126953125, -815845.5, 1 ],
			"children" : [ 1 ]
		},
		{
			"mesh" : 0
		}
	],
	"scenes" : [
		{
			"nodes" : [ 0 ]
		}
	],
	"scene" : 0,
	"accessors" : [
		{
			"bufferView" : 0,
			"byteOffset" : 0,
			"componentType" : 5126,
			"count" : 15183,
			"type" : "VEC3",
			"min" : [ -22.2890625, -21.1953125, 0 ],
			"max" : [ 22.2880859375, 21.1943359375, 152.8389892578125 ]
		},
		{
			"bufferView" : 1,
			"byteOffset" : 0,
			"componentType" : 5126,
			"count" : 15183,
			"type" : "VEC3",
			"min" : [ -1, -0.9994630217552185, -1 ],
			"max" : [ 1, 0.9999986290931702, 1 ]
		},
		{
			"bufferView" : 2,
			"byteOffset" : 0,
			"componentType" : 5126,
			"count" : 15183,
			"type" : "VEC3"
		},
		{
			"bufferView" : 3,
			"byteOffset" : 0,
			"componentType" : 5123,
			"count" : 15183,
			"type" : "SCALAR",
			"min" : [ 0 ],
			"max" : [ 15182 ]
		}
	],
	"bufferViews" : [
		{
			"buffer" : 0,
			"byteOffset" : 0,
			"byteLength" : 182196,
			"target" : 34962
		},
		{
			"buffer" : 0,
			"byteOffset" : 182196,
			"byteLength" : 182196,
			"target" : 34962
		},
		{
			"buffer" : 0,
			"byteOffset" : 364392,
			"byteLength" : 182196,
			"target" : 34962
		},
		{
			"buffer" : 0,
			"byteOffset" : 546588,
			"byteLength" : 30366,
			"target" : 34963
		}
	],
	"buffers" : [
		{
			"uri" : "B334411584801063C0.bin",
			"byteLength" : 576954
		}
	]
}
