{
	"asset" : {
		"generator" : "FME 2023.2.1.0",
		"version" : "2.0"
	},
	"materials" : [
		{
			"name" : "default_material",
			"pbrMetallicRoughness" : {
				"baseColorFactor" : [ 1, 1, 1, 1 ],
				"roughnessFactor" : 0.30000000000000004,
				"metallicFactor" : 0.5
			}
		}
	],
	"meshes" : [
		{
			"primitives" : [
				{
					"attributes" : {
						"NORMAL" : 1,
						"POSITION" : 0,
						"COLOR_0" : 2
					},
					"indices" : 3,
					"material" : 0,
					"mode" : 4
				}
			]
		}
	],
	"nodes" : [
		{
			"name" : "B342301609701063C0",
			"matrix" : [ 1, 0, 0, 0, 0, 0, -1, 0, 0, 1, 0, 0, 834227.5, 3.688999891281128, -816092.75, 1 ],
			"children" : [ 1 ]
		},
		{
			"mesh" : 0
		}
	],
	"scenes" : [
		{
			"nodes" : [ 0 ]
		}
	],
	"scene" : 0,
	"accessors" : [
		{
			"bufferView" : 0,
			"byteOffset" : 0,
			"componentType" : 5126,
			"count" : 297,
			"type" : "VEC3",
			"min" : [ -9.095703125, -7.7001953125, 0 ],
			"max" : [ 9.1796875, 7.7060546875, 51.220001220703125 ]
		},
		{
			"bufferView" : 1,
			"byteOffset" : 0,
			"componentType" : 5126,
			"count" : 297,
			"type" : "VEC3",
			"min" : [ -0.804200291633606, -0.8044014573097229, -1 ],
			"max" : [ 0.8040155172348022, 0.8039371371269226, 1 ]
		},
		{
			"bufferView" : 2,
			"byteOffset" : 0,
			"componentType" : 5126,
			"count" : 297,
			"type" : "VEC3"
		},
		{
			"bufferView" : 3,
			"byteOffset" : 0,
			"componentType" : 5123,
			"count" : 297,
			"type" : "SCALAR",
			"min" : [ 0 ],
			"max" : [ 296 ]
		}
	],
	"bufferViews" : [
		{
			"buffer" : 0,
			"byteOffset" : 0,
			"byteLength" : 3564,
			"target" : 34962
		},
		{
			"buffer" : 0,
			"byteOffset" : 3564,
			"byteLength" : 3564,
			"target" : 34962
		},
		{
			"buffer" : 0,
			"byteOffset" : 7128,
			"byteLength" : 3564,
			"target" : 34962
		},
		{
			"buffer" : 0,
			"byteOffset" : 10692,
			"byteLength" : 594,
			"target" : 34963
		}
	],
	"buffers" : [
		{
			"uri" : "B342301609701063C0.bin",
			"byteLength" : 11286
		}
	]
}
