{
	"asset" : {
		"generator" : "FME 2022.2.4.0",
		"version" : "2.0"
	},
	"materials" : [
		{
			"name" : "default_material",
			"pbrMetallicRoughness" : {
				"baseColorFactor" : [ 1, 1, 1, 1 ],
				"roughnessFactor" : 0.30000000000000004,
				"metallicFactor" : 0.5
			}
		}
	],
	"meshes" : [
		{
			"primitives" : [
				{
					"attributes" : {
						"NORMAL" : 1,
						"POSITION" : 0,
						"COLOR_0" : 2
					},
					"indices" : 3,
					"material" : 0,
					"mode" : 4
				}
			]
		}
	],
	"nodes" : [
		{
			"name" : "B337701613701063C0",
			"matrix" : [ 1, 0, 0, 0, 0, 0, -1, 0, 0, 1, 0, 0, 833769.8125, 21.76799774169922, -816132.0625, 1 ],
			"children" : [ 1 ]
		},
		{
			"mesh" : 0
		}
	],
	"scenes" : [
		{
			"nodes" : [ 0 ]
		}
	],
	"scene" : 0,
	"accessors" : [
		{
			"bufferView" : 0,
			"byteOffset" : 0,
			"componentType" : 5126,
			"count" : 597,
			"type" : "VEC3",
			"min" : [ -4.0126953125, -6.9423828125, 0 ],
			"max" : [ 4.0126953125, 6.9423828125, 22.830001831054688 ]
		},
		{
			"bufferView" : 1,
			"byteOffset" : 0,
			"componentType" : 5126,
			"count" : 597,
			"type" : "VEC3",
			"min" : [ -0.9587981700897217, -0.9570244550704956, -0.04788726195693016 ],
			"max" : [ 0.9568791389465332, 0.9572344422340393, 1 ]
		},
		{
			"bufferView" : 2,
			"byteOffset" : 0,
			"componentType" : 5126,
			"count" : 597,
			"type" : "VEC3"
		},
		{
			"bufferView" : 3,
			"byteOffset" : 0,
			"componentType" : 5123,
			"count" : 597,
			"type" : "SCALAR",
			"min" : [ 0 ],
			"max" : [ 596 ]
		}
	],
	"bufferViews" : [
		{
			"buffer" : 0,
			"byteOffset" : 0,
			"byteLength" : 7164,
			"target" : 34962
		},
		{
			"buffer" : 0,
			"byteOffset" : 7164,
			"byteLength" : 7164,
			"target" : 34962
		},
		{
			"buffer" : 0,
			"byteOffset" : 14328,
			"byteLength" : 7164,
			"target" : 34962
		},
		{
			"buffer" : 0,
			"byteOffset" : 21492,
			"byteLength" : 1194,
			"target" : 34963
		}
	],
	"buffers" : [
		{
			"uri" : "B337701613701063C0.bin",
			"byteLength" : 22686
		}
	]
}
