{
	"asset" : {
		"generator" : "FME 2023.1.0.0",
		"version" : "2.0"
	},
	"materials" : [
		{
			"name" : "default_material",
			"pbrMetallicRoughness" : {
				"baseColorFactor" : [ 1, 1, 1, 1 ],
				"roughnessFactor" : 0.30000000000000004,
				"metallicFactor" : 0.5
			}
		}
	],
	"meshes" : [
		{
			"primitives" : [
				{
					"attributes" : {
						"NORMAL" : 1,
						"POSITION" : 0,
						"COLOR_0" : 2
					},
					"indices" : 3,
					"material" : 0,
					"mode" : 4
				}
			]
		}
	],
	"nodes" : [
		{
			"name" : "B335451571302063C0",
			"matrix" : [ 1, 0, 0, 0, 0, 0, -1, 0, 0, 1, 0, 0, 833545.5625, 114.34600067138672, -815713.5, 1 ],
			"children" : [ 1 ]
		},
		{
			"mesh" : 0
		}
	],
	"scenes" : [
		{
			"nodes" : [ 0 ]
		}
	],
	"scene" : 0,
	"accessors" : [
		{
			"bufferView" : 0,
			"byteOffset" : 0,
			"componentType" : 5126,
			"count" : 174,
			"type" : "VEC3",
			"min" : [ -4.322265625, -20.0673828125, 0 ],
			"max" : [ 4.322265625, 20.06640625, 14.209999084472656 ]
		},
		{
			"bufferView" : 1,
			"byteOffset" : 0,
			"componentType" : 5126,
			"count" : 174,
			"type" : "VEC3",
			"min" : [ -0.9982870221138, -0.9982564449310303, -1 ],
			"max" : [ 0.9982293844223022, 0.9982658624649048, 0.9998299479484558 ]
		},
		{
			"bufferView" : 2,
			"byteOffset" : 0,
			"componentType" : 5126,
			"count" : 174,
			"type" : "VEC3"
		},
		{
			"bufferView" : 3,
			"byteOffset" : 0,
			"componentType" : 5121,
			"count" : 174,
			"type" : "SCALAR",
			"min" : [ 0 ],
			"max" : [ 173 ]
		}
	],
	"bufferViews" : [
		{
			"buffer" : 0,
			"byteOffset" : 0,
			"byteLength" : 2088,
			"target" : 34962
		},
		{
			"buffer" : 0,
			"byteOffset" : 2088,
			"byteLength" : 2088,
			"target" : 34962
		},
		{
			"buffer" : 0,
			"byteOffset" : 4176,
			"byteLength" : 2088,
			"target" : 34962
		},
		{
			"buffer" : 0,
			"byteOffset" : 6264,
			"byteLength" : 174,
			"target" : 34963
		}
	],
	"buffers" : [
		{
			"uri" : "B335451571302063C0.bin",
			"byteLength" : 6438
		}
	]
}
