{
	"asset" : {
		"generator" : "FME 2022.2.4.0",
		"version" : "2.0"
	},
	"materials" : [
		{
			"name" : "default_material",
			"pbrMetallicRoughness" : {
				"baseColorFactor" : [ 1, 1, 1, 1 ],
				"roughnessFactor" : 0.30000000000000004,
				"metallicFactor" : 0.5
			}
		}
	],
	"meshes" : [
		{
			"primitives" : [
				{
					"attributes" : {
						"NORMAL" : 1,
						"POSITION" : 0,
						"COLOR_0" : 2
					},
					"indices" : 3,
					"material" : 0,
					"mode" : 4
				}
			]
		}
	],
	"nodes" : [
		{
			"name" : "B341181526302063C0",
			"matrix" : [ 1, 0, 0, 0, 0, 0, -1, 0, 0, 1, 0, 0, 834114.9375, 76.4260025024414, -815263.3125, 1 ],
			"children" : [ 1 ]
		},
		{
			"mesh" : 0
		}
	],
	"scenes" : [
		{
			"nodes" : [ 0 ]
		}
	],
	"scene" : 0,
	"accessors" : [
		{
			"bufferView" : 0,
			"byteOffset" : 0,
			"componentType" : 5126,
			"count" : 960,
			"type" : "VEC3",
			"min" : [ -16.001953125, -11.3623046875, 0 ],
			"max" : [ 16.001953125, 11.36328125, 32.347999572753906 ]
		},
		{
			"bufferView" : 1,
			"byteOffset" : 0,
			"componentType" : 5126,
			"count" : 960,
			"type" : "VEC3",
			"min" : [ -0.9898474812507629, -0.999972403049469, -1 ],
			"max" : [ 0.9666323065757751, 0.9999657869338989, 1 ]
		},
		{
			"bufferView" : 2,
			"byteOffset" : 0,
			"componentType" : 5126,
			"count" : 960,
			"type" : "VEC3"
		},
		{
			"bufferView" : 3,
			"byteOffset" : 0,
			"componentType" : 5123,
			"count" : 960,
			"type" : "SCALAR",
			"min" : [ 0 ],
			"max" : [ 959 ]
		}
	],
	"bufferViews" : [
		{
			"buffer" : 0,
			"byteOffset" : 0,
			"byteLength" : 11520,
			"target" : 34962
		},
		{
			"buffer" : 0,
			"byteOffset" : 11520,
			"byteLength" : 11520,
			"target" : 34962
		},
		{
			"buffer" : 0,
			"byteOffset" : 23040,
			"byteLength" : 11520,
			"target" : 34962
		},
		{
			"buffer" : 0,
			"byteOffset" : 34560,
			"byteLength" : 1920,
			"target" : 34963
		}
	],
	"buffers" : [
		{
			"uri" : "B341181526302063C0.bin",
			"byteLength" : 36480
		}
	]
}
