{
	"asset" : {
		"generator" : "FME 2023.1.0.0",
		"version" : "2.0"
	},
	"materials" : [
		{
			"name" : "default_material",
			"pbrMetallicRoughness" : {
				"baseColorFactor" : [ 1, 1, 1, 1 ],
				"roughnessFactor" : 0.30000000000000004,
				"metallicFactor" : 0.5
			}
		}
	],
	"meshes" : [
		{
			"primitives" : [
				{
					"attributes" : {
						"NORMAL" : 1,
						"POSITION" : 0,
						"COLOR_0" : 2
					},
					"indices" : 3,
					"material" : 0,
					"mode" : 4
				}
			]
		}
	],
	"nodes" : [
		{
			"name" : "B341981580501063C0",
			"matrix" : [ 1, 0, 0, 0, 0, 0, -1, 0, 0, 1, 0, 0, 834200.25, 6.159999847412109, -815803, 1 ],
			"children" : [ 1 ]
		},
		{
			"mesh" : 0
		}
	],
	"scenes" : [
		{
			"nodes" : [ 0 ]
		}
	],
	"scene" : 0,
	"accessors" : [
		{
			"bufferView" : 0,
			"byteOffset" : 0,
			"componentType" : 5126,
			"count" : 7683,
			"type" : "VEC3",
			"min" : [ -23.486328125, -25.62109375, 0 ],
			"max" : [ 23.462890625, 25.615234375, 127.50900268554688 ]
		},
		{
			"bufferView" : 1,
			"byteOffset" : 0,
			"componentType" : 5126,
			"count" : 7683,
			"type" : "VEC3",
			"min" : [ -1, -1, -1 ],
			"max" : [ 0.9999488592147827, 1, 1 ]
		},
		{
			"bufferView" : 2,
			"byteOffset" : 0,
			"componentType" : 5126,
			"count" : 7683,
			"type" : "VEC3"
		},
		{
			"bufferView" : 3,
			"byteOffset" : 0,
			"componentType" : 5123,
			"count" : 7683,
			"type" : "SCALAR",
			"min" : [ 0 ],
			"max" : [ 7682 ]
		}
	],
	"bufferViews" : [
		{
			"buffer" : 0,
			"byteOffset" : 0,
			"byteLength" : 92196,
			"target" : 34962
		},
		{
			"buffer" : 0,
			"byteOffset" : 92196,
			"byteLength" : 92196,
			"target" : 34962
		},
		{
			"buffer" : 0,
			"byteOffset" : 184392,
			"byteLength" : 92196,
			"target" : 34962
		},
		{
			"buffer" : 0,
			"byteOffset" : 276588,
			"byteLength" : 15366,
			"target" : 34963
		}
	],
	"buffers" : [
		{
			"uri" : "B341981580501063C0.bin",
			"byteLength" : 291954
		}
	]
}
