{
	"asset" : {
		"generator" : "FME 2023.1.0.0",
		"version" : "2.0"
	},
	"materials" : [
		{
			"name" : "default_material",
			"pbrMetallicRoughness" : {
				"baseColorFactor" : [ 1, 1, 1, 1 ],
				"roughnessFactor" : 0.30000000000000004,
				"metallicFactor" : 0.5
			}
		}
	],
	"meshes" : [
		{
			"primitives" : [
				{
					"attributes" : {
						"NORMAL" : 1,
						"POSITION" : 0,
						"COLOR_0" : 2
					},
					"indices" : 3,
					"material" : 0,
					"mode" : 4
				}
			]
		}
	],
	"nodes" : [
		{
			"name" : "B341481599101063C0",
			"matrix" : [ 1, 0, 0, 0, 0, 0, -1, 0, 0, 1, 0, 0, 834144.5, 5.519999980926514, -815995.625, 1 ],
			"children" : [ 1 ]
		},
		{
			"mesh" : 0
		}
	],
	"scenes" : [
		{
			"nodes" : [ 0 ]
		}
	],
	"scene" : 0,
	"accessors" : [
		{
			"bufferView" : 0,
			"byteOffset" : 0,
			"componentType" : 5126,
			"count" : 249,
			"type" : "VEC3",
			"min" : [ -5.3564453125, -6.1865234375, 0 ],
			"max" : [ 5.4365234375, 6.1982421875, 23.381999969482422 ]
		},
		{
			"bufferView" : 1,
			"byteOffset" : 0,
			"componentType" : 5126,
			"count" : 249,
			"type" : "VEC3",
			"min" : [ -0.8219326138496399, -0.8254718780517578, -0.002645735861733556 ],
			"max" : [ 0.8944272398948669, 0.8639803528785706, 1 ]
		},
		{
			"bufferView" : 2,
			"byteOffset" : 0,
			"componentType" : 5126,
			"count" : 249,
			"type" : "VEC3"
		},
		{
			"bufferView" : 3,
			"byteOffset" : 0,
			"componentType" : 5121,
			"count" : 249,
			"type" : "SCALAR",
			"min" : [ 0 ],
			"max" : [ 248 ]
		}
	],
	"bufferViews" : [
		{
			"buffer" : 0,
			"byteOffset" : 0,
			"byteLength" : 2988,
			"target" : 34962
		},
		{
			"buffer" : 0,
			"byteOffset" : 2988,
			"byteLength" : 2988,
			"target" : 34962
		},
		{
			"buffer" : 0,
			"byteOffset" : 5976,
			"byteLength" : 2988,
			"target" : 34962
		},
		{
			"buffer" : 0,
			"byteOffset" : 8964,
			"byteLength" : 249,
			"target" : 34963
		}
	],
	"buffers" : [
		{
			"uri" : "B341481599101063C0.bin",
			"byteLength" : 9213
		}
	]
}
