{
	"asset" : {
		"generator" : "FME 2022.2.4.0",
		"version" : "2.0"
	},
	"materials" : [
		{
			"name" : "default_material",
			"pbrMetallicRoughness" : {
				"baseColorFactor" : [ 1, 1, 1, 1 ],
				"roughnessFactor" : 0.30000000000000004,
				"metallicFactor" : 0.5
			}
		}
	],
	"meshes" : [
		{
			"primitives" : [
				{
					"attributes" : {
						"NORMAL" : 1,
						"POSITION" : 0,
						"COLOR_0" : 2
					},
					"indices" : 3,
					"material" : 0,
					"mode" : 4
				}
			]
		}
	],
	"nodes" : [
		{
			"name" : "B356621545701063C0",
			"matrix" : [ 1, 0, 0, 0, 0, 0, -1, 0, 0, 1, 0, 0, 835664.25, 3.5829999446868896, -815460.375, 1 ],
			"children" : [ 1 ]
		},
		{
			"mesh" : 0
		}
	],
	"scenes" : [
		{
			"nodes" : [ 0 ]
		}
	],
	"scene" : 0,
	"accessors" : [
		{
			"bufferView" : 0,
			"byteOffset" : 0,
			"componentType" : 5126,
			"count" : 525,
			"type" : "VEC3",
			"min" : [ -4.84765625, -10.4560546875, 0 ],
			"max" : [ 4.8486328125, 10.4560546875, 39.7130012512207 ]
		},
		{
			"bufferView" : 1,
			"byteOffset" : 0,
			"componentType" : 5126,
			"count" : 525,
			"type" : "VEC3",
			"min" : [ -0.9971084594726562, -0.9984481334686279, -1 ],
			"max" : [ 0.9973955750465393, 0.9970383644104004, 1 ]
		},
		{
			"bufferView" : 2,
			"byteOffset" : 0,
			"componentType" : 5126,
			"count" : 525,
			"type" : "VEC3"
		},
		{
			"bufferView" : 3,
			"byteOffset" : 0,
			"componentType" : 5123,
			"count" : 525,
			"type" : "SCALAR",
			"min" : [ 0 ],
			"max" : [ 524 ]
		}
	],
	"bufferViews" : [
		{
			"buffer" : 0,
			"byteOffset" : 0,
			"byteLength" : 6300,
			"target" : 34962
		},
		{
			"buffer" : 0,
			"byteOffset" : 6300,
			"byteLength" : 6300,
			"target" : 34962
		},
		{
			"buffer" : 0,
			"byteOffset" : 12600,
			"byteLength" : 6300,
			"target" : 34962
		},
		{
			"buffer" : 0,
			"byteOffset" : 18900,
			"byteLength" : 1050,
			"target" : 34963
		}
	],
	"buffers" : [
		{
			"uri" : "B356621545701063C0.bin",
			"byteLength" : 19950
		}
	]
}
