{
	"asset" : {
		"generator" : "FME 2022.2.4.0",
		"version" : "2.0"
	},
	"materials" : [
		{
			"name" : "default_material",
			"pbrMetallicRoughness" : {
				"baseColorFactor" : [ 1, 1, 1, 1 ],
				"roughnessFactor" : 0.30000000000000004,
				"metallicFactor" : 0.5
			}
		}
	],
	"meshes" : [
		{
			"primitives" : [
				{
					"attributes" : {
						"NORMAL" : 1,
						"POSITION" : 0,
						"COLOR_0" : 2
					},
					"indices" : 3,
					"material" : 0,
					"mode" : 4
				}
			]
		}
	],
	"nodes" : [
		{
			"name" : "B344781524602063C0",
			"matrix" : [ 1, 0, 0, 0, 0, 0, -1, 0, 0, 1, 0, 0, 834478.5625, 55.59400177001953, -815248.4375, 1 ],
			"children" : [ 1 ]
		},
		{
			"mesh" : 0
		}
	],
	"scenes" : [
		{
			"nodes" : [ 0 ]
		}
	],
	"scene" : 0,
	"accessors" : [
		{
			"bufferView" : 0,
			"byteOffset" : 0,
			"componentType" : 5126,
			"count" : 384,
			"type" : "VEC3",
			"min" : [ -10.130859375, -21.6728515625, 0 ],
			"max" : [ 10.1298828125, 21.671875, 10.2449951171875 ]
		},
		{
			"bufferView" : 1,
			"byteOffset" : 0,
			"componentType" : 5126,
			"count" : 384,
			"type" : "VEC3",
			"min" : [ -0.9989466071128845, -0.9991415739059448, -1 ],
			"max" : [ 0.9984394311904907, 0.9988858699798584, 1 ]
		},
		{
			"bufferView" : 2,
			"byteOffset" : 0,
			"componentType" : 5126,
			"count" : 384,
			"type" : "VEC3"
		},
		{
			"bufferView" : 3,
			"byteOffset" : 0,
			"componentType" : 5123,
			"count" : 384,
			"type" : "SCALAR",
			"min" : [ 0 ],
			"max" : [ 383 ]
		}
	],
	"bufferViews" : [
		{
			"buffer" : 0,
			"byteOffset" : 0,
			"byteLength" : 4608,
			"target" : 34962
		},
		{
			"buffer" : 0,
			"byteOffset" : 4608,
			"byteLength" : 4608,
			"target" : 34962
		},
		{
			"buffer" : 0,
			"byteOffset" : 9216,
			"byteLength" : 4608,
			"target" : 34962
		},
		{
			"buffer" : 0,
			"byteOffset" : 13824,
			"byteLength" : 768,
			"target" : 34963
		}
	],
	"buffers" : [
		{
			"uri" : "B344781524602063C0.bin",
			"byteLength" : 14592
		}
	]
}
