<svg xmlns="http://www.w3.org/2000/svg" viewBox="434.8388671875 1082.455 77.2431328125 100.66804687500007" width="700" height="700"><rect x="434.8388671875" y="1082.455" width="77.2431328125" height="100.66804687500007" fill="white"/><path d="M 442.258,1135.668 L 440.547,1136.362 L 439.839,1136.655 L 440.786,1138.743 L 441.796,1140.798 L 442.878,1142.813 L 444.021,1144.795 L 445.240,1146.734 L 446.756,1148.569 L 447.055,1148.956 L 447.578,1149.717 L 448.049,1150.243 L 448.228,1150.474 L 448.356,1150.585 L 448.716,1150.988 L 449.947,1152.465 L 449.951,1152.472 L 450.803,1153.400 L 452.466,1155.060 L 452.717,1155.330 L 456.082,1158.326 L 459.678,1161.006 L 463.363,1163.631 L 463.964,1164.043 L 466.912,1166.179 L 475.260,1172.189 L 483.413,1178.066 L 483.539,1178.123 L 483.650,1178.107 L 483.758,1178.020 L 484.237,1177.419 L 484.302,1177.302 L 484.286,1177.193 L 484.193,1177.100 L 484.193,1177.099 L 484.782,1176.036 L 486.113,1176.627 L 491.015,1165.146 L 491.014,1165.145 L 491.015,1165.145 L 490.857,1165.077 L 491.661,1163.625 L 490.778,1163.237 L 490.502,1163.096 L 490.503,1163.094 L 489.020,1162.330 L 485.859,1160.588 L 482.867,1158.637 L 482.777,1158.565 L 482.605,1158.428 L 477.861,1154.301 L 475.461,1151.756 L 475.863,1151.398 L 476.475,1150.855 L 476.477,1150.854 L 474.547,1148.686 L 474.546,1148.686 L 473.674,1149.391 L 471.715,1146.781 L 466.314,1135.363 L 464.676,1127.146 L 465.117,1114.455 L 465.243,1113.878 L 465.245,1113.870 L 466.027,1110.287 L 466.922,1107.628 L 467.385,1106.254 L 468.046,1104.721 L 462.516,1100.627 L 459.273,1104.692 L 455.399,1109.641 L 454.622,1110.629 L 453.587,1109.876 L 444.585,1121.514 L 443.498,1123.328 L 442.643,1125.268 L 442.038,1127.294 L 441.694,1129.377 L 441.617,1131.496 L 441.805,1133.604 L 442.258,1135.668 Z" fill="#246fcb" fill-opacity="0.4" stroke="#246fcb" stroke-width=".25" fill-rule="evenodd"/><path d="M 477.791,1088.253 L 476.642,1087.455 L 476.406,1087.817 L 476.202,1088.037 L 475.999,1088.258 L 475.798,1088.481 L 475.598,1088.705 L 475.400,1088.930 L 475.203,1089.156 L 475.008,1089.384 L 474.813,1089.612 L 474.621,1089.842 L 474.429,1090.073 L 474.239,1090.306 L 474.051,1090.539 L 473.864,1090.773 L 473.678,1091.009 L 473.494,1091.246 L 473.311,1091.484 L 473.130,1091.723 L 472.950,1091.963 L 472.772,1092.204 L 472.595,1092.447 L 472.420,1092.690 L 472.246,1092.935 L 472.073,1093.180 L 471.902,1093.427 L 471.733,1093.674 L 471.565,1093.923 L 471.399,1094.173 L 471.234,1094.423 L 471.071,1094.675 L 470.909,1094.928 L 470.749,1095.182 L 470.591,1095.436 L 470.434,1095.692 L 470.278,1095.948 L 470.125,1096.206 L 469.972,1096.465 L 469.822,1096.724 L 469.673,1096.984 L 469.525,1097.246 L 469.379,1097.508 L 469.235,1097.771 L 469.092,1098.035 L 468.951,1098.299 L 468.812,1098.565 L 468.674,1098.832 L 468.538,1099.099 L 468.404,1099.367 L 468.271,1099.636 L 468.140,1099.906 L 468.010,1100.177 L 467.882,1100.448 L 467.756,1100.720 L 467.632,1100.993 L 467.509,1101.267 L 467.388,1101.541 L 467.268,1101.816 L 467.150,1102.092 L 467.034,1102.369 L 466.920,1102.646 L 466.807,1102.924 L 466.696,1103.203 L 466.587,1103.482 L 466.479,1103.762 L 466.373,1104.043 L 466.269,1104.324 L 466.167,1104.606 L 466.066,1104.889 L 465.967,1105.172 L 465.870,1105.456 L 465.775,1105.741 L 465.681,1106.026 L 465.589,1106.311 L 465.499,1106.597 L 465.410,1106.884 L 465.324,1107.171 L 465.239,1107.459 L 465.156,1107.747 L 465.074,1108.036 L 464.995,1108.325 L 464.917,1108.615 L 464.841,1108.905 L 464.767,1109.196 L 459.363,1107.593 L 457.805,1109.443 L 455.306,1112.491 L 452.772,1115.669 L 446.918,1123.772 L 446.504,1124.425 L 446.117,1125.082 L 445.752,1125.751 L 445.408,1126.431 L 445.086,1127.123 L 444.644,1128.178 L 444.254,1129.253 L 444.023,1129.980 L 443.815,1130.714 L 443.631,1131.454 L 443.470,1132.199 L 443.274,1133.326 L 443.186,1134.573 L 443.159,1135.540 L 443.156,1136.098 L 443.180,1137.027 L 443.209,1137.622 L 443.291,1138.603 L 443.347,1139.141 L 443.470,1140.040 L 443.710,1141.400 L 443.872,1142.145 L 444.055,1142.886 L 444.458,1143.841 L 444.778,1144.534 L 445.117,1145.217 L 445.661,1146.224 L 446.046,1146.882 L 446.450,1147.529 L 447.089,1148.478 L 447.537,1149.096 L 448.001,1149.701 L 448.730,1150.584 L 450.149,1152.198 L 450.919,1153.044 L 452.506,1154.693 L 453.597,1155.760 L 454.712,1156.800 L 457.110,1158.920 L 457.910,1159.538 L 460.352,1161.558 L 461.656,1162.546 L 463.887,1164.318 L 464.897,1165.059 L 466.116,1165.881 L 467.091,1166.478 L 468.367,1167.313 L 468.465,1167.374 L 469.612,1168.089 L 470.642,1168.710 L 471.633,1169.283 L 473.636,1170.390 L 476.666,1172.003 L 478.364,1172.871 L 480.072,1173.719 L 481.791,1174.546 L 484.096,1175.612 L 485.867,1176.406 L 485.954,1176.446 L 489.163,1169.422 L 490.619,1166.236 L 491.074,1165.241 L 496.351,1167.609 L 501.545,1170.008 L 502.450,1167.895 L 503.281,1165.763 L 504.042,1163.606 L 504.395,1162.518 L 504.839,1161.058 L 505.444,1158.852 L 505.717,1157.748 L 505.963,1156.630 L 506.181,1155.507 L 506.369,1154.379 L 506.619,1152.489 L 506.788,1150.590 L 506.850,1149.447 L 506.978,1147.832 L 507.053,1146.308 L 507.080,1145.164 L 507.082,1144.020 L 507.058,1142.877 L 507.009,1141.734 L 506.935,1140.592 L 506.836,1139.452 L 506.608,1137.287 L 506.417,1135.774 L 506.254,1134.641 L 506.009,1133.136 L 505.733,1131.635 L 505.506,1130.514 L 505.262,1129.396 L 504.909,1127.912 L 504.465,1126.295 L 503.935,1124.463 L 503.375,1122.640 L 502.788,1120.826 L 502.172,1119.021 L 501.506,1117.166 L 501.092,1116.099 L 500.653,1115.042 L 500.190,1113.996 L 499.702,1112.961 L 499.191,1111.937 L 498.655,1110.926 L 498.096,1109.928 L 497.514,1108.942 L 496.702,1107.651 L 495.851,1106.385 L 494.960,1105.146 L 493.591,1103.329 L 492.402,1101.838 L 491.172,1100.381 L 490.160,1099.239 L 488.859,1097.844 L 487.522,1096.485 L 485.841,1094.865 L 484.722,1093.827 L 483.295,1092.562 L 482.129,1091.578 L 480.644,1090.381 L 479.128,1089.224 L 477.791,1088.253 Z" fill="#de3737" fill-opacity="0.3" stroke="#de3737" stroke-width=".25" fill-rule="evenodd"/></svg>