{
	"asset" : {
		"generator" : "FME 2023.1.0.0",
		"version" : "2.0"
	},
	"materials" : [
		{
			"name" : "default_material",
			"pbrMetallicRoughness" : {
				"baseColorFactor" : [ 1, 1, 1, 1 ],
				"roughnessFactor" : 0.30000000000000004,
				"metallicFactor" : 0.5
			}
		}
	],
	"meshes" : [
		{
			"primitives" : [
				{
					"attributes" : {
						"NORMAL" : 1,
						"POSITION" : 0,
						"COLOR_0" : 2
					},
					"indices" : 3,
					"material" : 0,
					"mode" : 4
				}
			]
		}
	],
	"nodes" : [
		{
			"name" : "B340781604902063C0",
			"matrix" : [ 1, 0, 0, 0, 0, 0, -1, 0, 0, 1, 0, 0, 834078, 5.2270002365112305, -816049.6875, 1 ],
			"children" : [ 1 ]
		},
		{
			"mesh" : 0
		}
	],
	"scenes" : [
		{
			"nodes" : [ 0 ]
		}
	],
	"scene" : 0,
	"accessors" : [
		{
			"bufferView" : 0,
			"byteOffset" : 0,
			"componentType" : 5126,
			"count" : 1593,
			"type" : "VEC3",
			"min" : [ -22.9365234375, -19.283203125, 0 ],
			"max" : [ 22.9111328125, 19.341796875, 17.94900131225586 ]
		},
		{
			"bufferView" : 1,
			"byteOffset" : 0,
			"componentType" : 5126,
			"count" : 1593,
			"type" : "VEC3",
			"min" : [ -0.8565263152122498, -1, -1 ],
			"max" : [ 0.8659093976020813, 1, 1 ]
		},
		{
			"bufferView" : 2,
			"byteOffset" : 0,
			"componentType" : 5126,
			"count" : 1593,
			"type" : "VEC3"
		},
		{
			"bufferView" : 3,
			"byteOffset" : 0,
			"componentType" : 5123,
			"count" : 1593,
			"type" : "SCALAR",
			"min" : [ 0 ],
			"max" : [ 1592 ]
		}
	],
	"bufferViews" : [
		{
			"buffer" : 0,
			"byteOffset" : 0,
			"byteLength" : 19116,
			"target" : 34962
		},
		{
			"buffer" : 0,
			"byteOffset" : 19116,
			"byteLength" : 19116,
			"target" : 34962
		},
		{
			"buffer" : 0,
			"byteOffset" : 38232,
			"byteLength" : 19116,
			"target" : 34962
		},
		{
			"buffer" : 0,
			"byteOffset" : 57348,
			"byteLength" : 3186,
			"target" : 34963
		}
	],
	"buffers" : [
		{
			"uri" : "B340781604902063C0.bin",
			"byteLength" : 60534
		}
	]
}
