{
	"asset" : {
		"generator" : "FME 2022.2.4.0",
		"version" : "2.0"
	},
	"materials" : [
		{
			"name" : "default_material",
			"pbrMetallicRoughness" : {
				"baseColorFactor" : [ 1, 1, 1, 1 ],
				"roughnessFactor" : 0.30000000000000004,
				"metallicFactor" : 0.5
			}
		}
	],
	"meshes" : [
		{
			"primitives" : [
				{
					"attributes" : {
						"NORMAL" : 1,
						"POSITION" : 0,
						"COLOR_0" : 2
					},
					"indices" : 3,
					"material" : 0,
					"mode" : 4
				}
			]
		}
	],
	"nodes" : [
		{
			"name" : "B331851654401063C0",
			"matrix" : [ 1, 0, 0, 0, 0, 0, -1, 0, 0, 1, 0, 0, 833186.8125, 3.5280001163482666, -816553.125, 1 ],
			"children" : [ 1 ]
		},
		{
			"mesh" : 0
		}
	],
	"scenes" : [
		{
			"nodes" : [ 0 ]
		}
	],
	"scene" : 0,
	"accessors" : [
		{
			"bufferView" : 0,
			"byteOffset" : 0,
			"componentType" : 5126,
			"count" : 897,
			"type" : "VEC3",
			"min" : [ -5.5400390625, -13.955078125, 0 ],
			"max" : [ 5.5400390625, 13.9541015625, 53.46478271484375 ]
		},
		{
			"bufferView" : 1,
			"byteOffset" : 0,
			"componentType" : 5126,
			"count" : 897,
			"type" : "VEC3",
			"min" : [ -0.9967942237854004, -0.9958904981613159, -1 ],
			"max" : [ 1, 0.9956173300743103, 1 ]
		},
		{
			"bufferView" : 2,
			"byteOffset" : 0,
			"componentType" : 5126,
			"count" : 897,
			"type" : "VEC3"
		},
		{
			"bufferView" : 3,
			"byteOffset" : 0,
			"componentType" : 5123,
			"count" : 897,
			"type" : "SCALAR",
			"min" : [ 0 ],
			"max" : [ 896 ]
		}
	],
	"bufferViews" : [
		{
			"buffer" : 0,
			"byteOffset" : 0,
			"byteLength" : 10764,
			"target" : 34962
		},
		{
			"buffer" : 0,
			"byteOffset" : 10764,
			"byteLength" : 10764,
			"target" : 34962
		},
		{
			"buffer" : 0,
			"byteOffset" : 21528,
			"byteLength" : 10764,
			"target" : 34962
		},
		{
			"buffer" : 0,
			"byteOffset" : 32292,
			"byteLength" : 1794,
			"target" : 34963
		}
	],
	"buffers" : [
		{
			"uri" : "B331851654401063C0.bin",
			"byteLength" : 34086
		}
	]
}
