{
	"asset" : {
		"generator" : "FME 2023.2.1.0",
		"version" : "2.0"
	},
	"materials" : [
		{
			"name" : "default_material",
			"pbrMetallicRoughness" : {
				"baseColorFactor" : [ 1, 1, 1, 1 ],
				"roughnessFactor" : 0.30000000000000004,
				"metallicFactor" : 0.5
			}
		}
	],
	"meshes" : [
		{
			"primitives" : [
				{
					"attributes" : {
						"NORMAL" : 1,
						"POSITION" : 0,
						"COLOR_0" : 2
					},
					"indices" : 3,
					"material" : 0,
					"mode" : 4
				}
			]
		}
	],
	"nodes" : [
		{
			"name" : "B167541448401062G0",
			"matrix" : [ 1, 0, 0, 0, 0, 0, -1, 0, 0, 1, 0, 0, 816754.125, 20.89620018005371, -814483.25, 1 ],
			"children" : [ 1 ]
		},
		{
			"mesh" : 0
		}
	],
	"scenes" : [
		{
			"nodes" : [ 0 ]
		}
	],
	"scene" : 0,
	"accessors" : [
		{
			"bufferView" : 0,
			"byteOffset" : 0,
			"componentType" : 5126,
			"count" : 42,
			"type" : "VEC3",
			"min" : [ -2.9375, -3.25, 0 ],
			"max" : [ 2.9375, 3.25, 3.458099365234375 ]
		},
		{
			"bufferView" : 1,
			"byteOffset" : 0,
			"componentType" : 5126,
			"count" : 42,
			"type" : "VEC3",
			"min" : [ -0.9519988894462585, -0.9519705772399902, -9.536678408039734e-5 ],
			"max" : [ 0.9518446922302246, 0.9518723487854004, 0.9793825149536133 ]
		},
		{
			"bufferView" : 2,
			"byteOffset" : 0,
			"componentType" : 5126,
			"count" : 42,
			"type" : "VEC3"
		},
		{
			"bufferView" : 3,
			"byteOffset" : 0,
			"componentType" : 5121,
			"count" : 42,
			"type" : "SCALAR",
			"min" : [ 0 ],
			"max" : [ 41 ]
		}
	],
	"bufferViews" : [
		{
			"buffer" : 0,
			"byteOffset" : 0,
			"byteLength" : 504,
			"target" : 34962
		},
		{
			"buffer" : 0,
			"byteOffset" : 504,
			"byteLength" : 504,
			"target" : 34962
		},
		{
			"buffer" : 0,
			"byteOffset" : 1008,
			"byteLength" : 504,
			"target" : 34962
		},
		{
			"buffer" : 0,
			"byteOffset" : 1512,
			"byteLength" : 42,
			"target" : 34963
		}
	],
	"buffers" : [
		{
			"uri" : "B167541448401062G0.bin",
			"byteLength" : 1554
		}
	]
}
