{
	"asset" : {
		"generator" : "FME 2023.1.0.0",
		"version" : "2.0"
	},
	"materials" : [
		{
			"name" : "default_material",
			"pbrMetallicRoughness" : {
				"baseColorFactor" : [ 1, 1, 1, 1 ],
				"roughnessFactor" : 0.30000000000000004,
				"metallicFactor" : 0.5
			}
		}
	],
	"meshes" : [
		{
			"primitives" : [
				{
					"attributes" : {
						"NORMAL" : 1,
						"POSITION" : 0,
						"COLOR_0" : 2
					},
					"indices" : 3,
					"material" : 0,
					"mode" : 4
				}
			]
		}
	],
	"nodes" : [
		{
			"name" : "B338461600601063C0",
			"matrix" : [ 1, 0, 0, 0, 0, 0, -1, 0, 0, 1, 0, 0, 833843.875, 24.18899917602539, -816010.9375, 1 ],
			"children" : [ 1 ]
		},
		{
			"mesh" : 0
		}
	],
	"scenes" : [
		{
			"nodes" : [ 0 ]
		}
	],
	"scene" : 0,
	"accessors" : [
		{
			"bufferView" : 0,
			"byteOffset" : 0,
			"componentType" : 5126,
			"count" : 537,
			"type" : "VEC3",
			"min" : [ -6.1767578125, -8.1533203125, 0 ],
			"max" : [ 6.1357421875, 8.1376953125, 19.33300018310547 ]
		},
		{
			"bufferView" : 1,
			"byteOffset" : 0,
			"componentType" : 5126,
			"count" : 537,
			"type" : "VEC3",
			"min" : [ -0.8233557343482971, -0.8281353712081909, -1 ],
			"max" : [ 0.8235951066017151, 0.8574929237365723, 1 ]
		},
		{
			"bufferView" : 2,
			"byteOffset" : 0,
			"componentType" : 5126,
			"count" : 537,
			"type" : "VEC3"
		},
		{
			"bufferView" : 3,
			"byteOffset" : 0,
			"componentType" : 5123,
			"count" : 537,
			"type" : "SCALAR",
			"min" : [ 0 ],
			"max" : [ 536 ]
		}
	],
	"bufferViews" : [
		{
			"buffer" : 0,
			"byteOffset" : 0,
			"byteLength" : 6444,
			"target" : 34962
		},
		{
			"buffer" : 0,
			"byteOffset" : 6444,
			"byteLength" : 6444,
			"target" : 34962
		},
		{
			"buffer" : 0,
			"byteOffset" : 12888,
			"byteLength" : 6444,
			"target" : 34962
		},
		{
			"buffer" : 0,
			"byteOffset" : 19332,
			"byteLength" : 1074,
			"target" : 34963
		}
	],
	"buffers" : [
		{
			"uri" : "B338461600601063C0.bin",
			"byteLength" : 20406
		}
	]
}
