{
	"asset" : {
		"generator" : "FME 2023.2.1.0",
		"version" : "2.0"
	},
	"materials" : [
		{
			"name" : "default_material",
			"pbrMetallicRoughness" : {
				"baseColorFactor" : [ 1, 1, 1, 1 ],
				"roughnessFactor" : 0.30000000000000004,
				"metallicFactor" : 0.5
			}
		}
	],
	"meshes" : [
		{
			"primitives" : [
				{
					"attributes" : {
						"NORMAL" : 1,
						"POSITION" : 0,
						"COLOR_0" : 2
					},
					"indices" : 3,
					"material" : 0,
					"mode" : 4
				}
			]
		}
	],
	"nodes" : [
		{
			"name" : "B336401566501063C0",
			"matrix" : [ 1, 0, 0, 0, 0, 0, -1, 0, 0, 1, 0, 0, 833645.6875, 99.15899658203125, -815667.625, 1 ],
			"children" : [ 1 ]
		},
		{
			"mesh" : 0
		}
	],
	"scenes" : [
		{
			"nodes" : [ 0 ]
		}
	],
	"scene" : 0,
	"accessors" : [
		{
			"bufferView" : 0,
			"byteOffset" : 0,
			"componentType" : 5126,
			"count" : 471,
			"type" : "VEC3",
			"min" : [ -7.2001953125, -6.9619140625, 0 ],
			"max" : [ 7.2001953125, 6.9658203125, 28.020004272460938 ]
		},
		{
			"bufferView" : 1,
			"byteOffset" : 0,
			"componentType" : 5126,
			"count" : 471,
			"type" : "VEC3",
			"min" : [ -0.7071353197097778, -0.7440096139907837, -1 ],
			"max" : [ 0.7075074911117554, 0.7531330585479736, 1 ]
		},
		{
			"bufferView" : 2,
			"byteOffset" : 0,
			"componentType" : 5126,
			"count" : 471,
			"type" : "VEC3"
		},
		{
			"bufferView" : 3,
			"byteOffset" : 0,
			"componentType" : 5123,
			"count" : 471,
			"type" : "SCALAR",
			"min" : [ 0 ],
			"max" : [ 470 ]
		}
	],
	"bufferViews" : [
		{
			"buffer" : 0,
			"byteOffset" : 0,
			"byteLength" : 5652,
			"target" : 34962
		},
		{
			"buffer" : 0,
			"byteOffset" : 5652,
			"byteLength" : 5652,
			"target" : 34962
		},
		{
			"buffer" : 0,
			"byteOffset" : 11304,
			"byteLength" : 5652,
			"target" : 34962
		},
		{
			"buffer" : 0,
			"byteOffset" : 16956,
			"byteLength" : 942,
			"target" : 34963
		}
	],
	"buffers" : [
		{
			"uri" : "B336401566501063C0.bin",
			"byteLength" : 17898
		}
	]
}
