{
	"asset" : {
		"generator" : "FME 2023.1.0.0",
		"version" : "2.0"
	},
	"materials" : [
		{
			"name" : "default_material",
			"pbrMetallicRoughness" : {
				"baseColorFactor" : [ 1, 1, 1, 1 ],
				"roughnessFactor" : 0.30000000000000004,
				"metallicFactor" : 0.5
			}
		}
	],
	"meshes" : [
		{
			"primitives" : [
				{
					"attributes" : {
						"NORMAL" : 1,
						"POSITION" : 0,
						"COLOR_0" : 2
					},
					"indices" : 3,
					"material" : 0,
					"mode" : 4
				}
			]
		}
	],
	"nodes" : [
		{
			"name" : "B359631538101063C0",
			"matrix" : [ 1, 0, 0, 0, 0, 0, -1, 0, 0, 1, 0, 0, 835963, 19.347000122070312, -815380.5, 1 ],
			"children" : [ 1 ]
		},
		{
			"mesh" : 0
		}
	],
	"scenes" : [
		{
			"nodes" : [ 0 ]
		}
	],
	"scene" : 0,
	"accessors" : [
		{
			"bufferView" : 0,
			"byteOffset" : 0,
			"componentType" : 5126,
			"count" : 3909,
			"type" : "VEC3",
			"min" : [ -10.673828125, -8.43359375, 0 ],
			"max" : [ 10.673828125, 8.4326171875, 59.01499938964844 ]
		},
		{
			"bufferView" : 1,
			"byteOffset" : 0,
			"componentType" : 5126,
			"count" : 3909,
			"type" : "VEC3",
			"min" : [ -0.9941487908363342, -0.994909405708313, -1 ],
			"max" : [ 0.9987292885780334, 0.9941021800041199, 1 ]
		},
		{
			"bufferView" : 2,
			"byteOffset" : 0,
			"componentType" : 5126,
			"count" : 3909,
			"type" : "VEC3"
		},
		{
			"bufferView" : 3,
			"byteOffset" : 0,
			"componentType" : 5123,
			"count" : 3909,
			"type" : "SCALAR",
			"min" : [ 0 ],
			"max" : [ 3908 ]
		}
	],
	"bufferViews" : [
		{
			"buffer" : 0,
			"byteOffset" : 0,
			"byteLength" : 46908,
			"target" : 34962
		},
		{
			"buffer" : 0,
			"byteOffset" : 46908,
			"byteLength" : 46908,
			"target" : 34962
		},
		{
			"buffer" : 0,
			"byteOffset" : 93816,
			"byteLength" : 46908,
			"target" : 34962
		},
		{
			"buffer" : 0,
			"byteOffset" : 140724,
			"byteLength" : 7818,
			"target" : 34963
		}
	],
	"buffers" : [
		{
			"uri" : "B359631538101063C0.bin",
			"byteLength" : 148542
		}
	]
}
