{
	"asset" : {
		"generator" : "FME 2023.2.1.0",
		"version" : "2.0"
	},
	"materials" : [
		{
			"name" : "default_material",
			"pbrMetallicRoughness" : {
				"baseColorFactor" : [ 1, 1, 1, 1 ],
				"roughnessFactor" : 0.30000000000000004,
				"metallicFactor" : 0.5
			}
		}
	],
	"meshes" : [
		{
			"primitives" : [
				{
					"attributes" : {
						"NORMAL" : 1,
						"POSITION" : 0,
						"COLOR_0" : 2
					},
					"indices" : 3,
					"material" : 0,
					"mode" : 4
				}
			]
		}
	],
	"nodes" : [
		{
			"name" : "B365141962501063C0",
			"matrix" : [ 1, 0, 0, 0, 0, 0, -1, 0, 0, 1, 0, 0, 836515.375, 43.07699966430664, -819625.125, 1 ],
			"children" : [ 1 ]
		},
		{
			"mesh" : 0
		}
	],
	"scenes" : [
		{
			"nodes" : [ 0 ]
		}
	],
	"scene" : 0,
	"accessors" : [
		{
			"bufferView" : 0,
			"byteOffset" : 0,
			"componentType" : 5126,
			"count" : 6006,
			"type" : "VEC3",
			"min" : [ -17.46875, -18.587890625, 0 ],
			"max" : [ 17.46875, 18.587890625, 48.99799728393555 ]
		},
		{
			"bufferView" : 1,
			"byteOffset" : 0,
			"componentType" : 5126,
			"count" : 6006,
			"type" : "VEC3",
			"min" : [ -1, -1, -1 ],
			"max" : [ 1, 1, 1 ]
		},
		{
			"bufferView" : 2,
			"byteOffset" : 0,
			"componentType" : 5126,
			"count" : 6006,
			"type" : "VEC3"
		},
		{
			"bufferView" : 3,
			"byteOffset" : 0,
			"componentType" : 5123,
			"count" : 6006,
			"type" : "SCALAR",
			"min" : [ 0 ],
			"max" : [ 6005 ]
		}
	],
	"bufferViews" : [
		{
			"buffer" : 0,
			"byteOffset" : 0,
			"byteLength" : 72072,
			"target" : 34962
		},
		{
			"buffer" : 0,
			"byteOffset" : 72072,
			"byteLength" : 72072,
			"target" : 34962
		},
		{
			"buffer" : 0,
			"byteOffset" : 144144,
			"byteLength" : 72072,
			"target" : 34962
		},
		{
			"buffer" : 0,
			"byteOffset" : 216216,
			"byteLength" : 12012,
			"target" : 34963
		}
	],
	"buffers" : [
		{
			"uri" : "B365141962501063C0.bin",
			"byteLength" : 228228
		}
	]
}
