{
	"asset" : {
		"generator" : "FME 2023.1.0.0",
		"version" : "2.0"
	},
	"materials" : [
		{
			"name" : "default_material",
			"pbrMetallicRoughness" : {
				"baseColorFactor" : [ 1, 1, 1, 1 ],
				"roughnessFactor" : 0.30000000000000004,
				"metallicFactor" : 0.5
			}
		}
	],
	"meshes" : [
		{
			"primitives" : [
				{
					"attributes" : {
						"NORMAL" : 1,
						"POSITION" : 0,
						"COLOR_0" : 2
					},
					"indices" : 3,
					"material" : 0,
					"mode" : 4
				}
			]
		}
	],
	"nodes" : [
		{
			"name" : "B340621577701063C0",
			"matrix" : [ 1, 0, 0, 0, 0, 0, -1, 0, 0, 1, 0, 0, 834061.8125, 61.18899917602539, -815775.25, 1 ],
			"children" : [ 1 ]
		},
		{
			"mesh" : 0
		}
	],
	"scenes" : [
		{
			"nodes" : [ 0 ]
		}
	],
	"scene" : 0,
	"accessors" : [
		{
			"bufferView" : 0,
			"byteOffset" : 0,
			"componentType" : 5126,
			"count" : 1953,
			"type" : "VEC3",
			"min" : [ -15.1591796875, -13.142578125, 0 ],
			"max" : [ 15.189453125, 13.0693359375, 99.02400207519531 ]
		},
		{
			"bufferView" : 1,
			"byteOffset" : 0,
			"componentType" : 5126,
			"count" : 1953,
			"type" : "VEC3",
			"min" : [ -1, -0.8567875027656555, -1 ],
			"max" : [ 0.8995243310928345, 0.8432317972183228, 1 ]
		},
		{
			"bufferView" : 2,
			"byteOffset" : 0,
			"componentType" : 5126,
			"count" : 1953,
			"type" : "VEC3"
		},
		{
			"bufferView" : 3,
			"byteOffset" : 0,
			"componentType" : 5123,
			"count" : 1953,
			"type" : "SCALAR",
			"min" : [ 0 ],
			"max" : [ 1952 ]
		}
	],
	"bufferViews" : [
		{
			"buffer" : 0,
			"byteOffset" : 0,
			"byteLength" : 23436,
			"target" : 34962
		},
		{
			"buffer" : 0,
			"byteOffset" : 23436,
			"byteLength" : 23436,
			"target" : 34962
		},
		{
			"buffer" : 0,
			"byteOffset" : 46872,
			"byteLength" : 23436,
			"target" : 34962
		},
		{
			"buffer" : 0,
			"byteOffset" : 70308,
			"byteLength" : 3906,
			"target" : 34963
		}
	],
	"buffers" : [
		{
			"uri" : "B340621577701063C0.bin",
			"byteLength" : 74214
		}
	]
}
