{
	"asset" : {
		"generator" : "FME 2022.2.4.0",
		"version" : "2.0"
	},
	"materials" : [
		{
			"name" : "default_material",
			"pbrMetallicRoughness" : {
				"baseColorFactor" : [ 1, 1, 1, 1 ],
				"roughnessFactor" : 0.30000000000000004,
				"metallicFactor" : 0.5
			}
		}
	],
	"meshes" : [
		{
			"primitives" : [
				{
					"attributes" : {
						"NORMAL" : 1,
						"POSITION" : 0,
						"COLOR_0" : 2
					},
					"indices" : 3,
					"material" : 0,
					"mode" : 4
				}
			]
		}
	],
	"nodes" : [
		{
			"name" : "B338271599402063C0",
			"matrix" : [ 1, 0, 0, 0, 0, 0, -1, 0, 0, 1, 0, 0, 833827.625, 24.158000946044922, -815994.875, 1 ],
			"children" : [ 1 ]
		},
		{
			"mesh" : 0
		}
	],
	"scenes" : [
		{
			"nodes" : [ 0 ]
		}
	],
	"scene" : 0,
	"accessors" : [
		{
			"bufferView" : 0,
			"byteOffset" : 0,
			"componentType" : 5126,
			"count" : 216,
			"type" : "VEC3",
			"min" : [ -7.8564453125, -9.9072265625, 0 ],
			"max" : [ 7.8642578125, 9.865234375, 19.634998321533203 ]
		},
		{
			"bufferView" : 1,
			"byteOffset" : 0,
			"componentType" : 5126,
			"count" : 216,
			"type" : "VEC3",
			"min" : [ -0.8302072882652283, -0.809546172618866, -0.0006972424453124404 ],
			"max" : [ 0.8303380012512207, 0.8371794819831848, 1 ]
		},
		{
			"bufferView" : 2,
			"byteOffset" : 0,
			"componentType" : 5126,
			"count" : 216,
			"type" : "VEC3"
		},
		{
			"bufferView" : 3,
			"byteOffset" : 0,
			"componentType" : 5121,
			"count" : 216,
			"type" : "SCALAR",
			"min" : [ 0 ],
			"max" : [ 215 ]
		}
	],
	"bufferViews" : [
		{
			"buffer" : 0,
			"byteOffset" : 0,
			"byteLength" : 2592,
			"target" : 34962
		},
		{
			"buffer" : 0,
			"byteOffset" : 2592,
			"byteLength" : 2592,
			"target" : 34962
		},
		{
			"buffer" : 0,
			"byteOffset" : 5184,
			"byteLength" : 2592,
			"target" : 34962
		},
		{
			"buffer" : 0,
			"byteOffset" : 7776,
			"byteLength" : 216,
			"target" : 34963
		}
	],
	"buffers" : [
		{
			"uri" : "B338271599402063C0.bin",
			"byteLength" : 7992
		}
	]
}
