{
	"asset" : {
		"generator" : "FME 2023.1.0.0",
		"version" : "2.0"
	},
	"materials" : [
		{
			"name" : "default_material",
			"pbrMetallicRoughness" : {
				"baseColorFactor" : [ 1, 1, 1, 1 ],
				"roughnessFactor" : 0.30000000000000004,
				"metallicFactor" : 0.5
			}
		}
	],
	"meshes" : [
		{
			"primitives" : [
				{
					"attributes" : {
						"NORMAL" : 1,
						"POSITION" : 0,
						"COLOR_0" : 2
					},
					"indices" : 3,
					"material" : 0,
					"mode" : 4
				}
			]
		}
	],
	"nodes" : [
		{
			"name" : "B333001654801063C0",
			"matrix" : [ 1, 0, 0, 0, 0, 0, -1, 0, 0, 1, 0, 0, 833293.625, 3.3619961738586426, -816533.5625, 1 ],
			"children" : [ 1 ]
		},
		{
			"mesh" : 0
		}
	],
	"scenes" : [
		{
			"nodes" : [ 0 ]
		}
	],
	"scene" : 0,
	"accessors" : [
		{
			"bufferView" : 0,
			"byteOffset" : 0,
			"componentType" : 5126,
			"count" : 1827,
			"type" : "VEC3",
			"min" : [ -15.21875, -16.765625, 0 ],
			"max" : [ 15.2197265625, 16.765625, 74.19898986816406 ]
		},
		{
			"bufferView" : 1,
			"byteOffset" : 0,
			"componentType" : 5126,
			"count" : 1827,
			"type" : "VEC3",
			"min" : [ -0.9931020140647888, -0.7668070197105408, -1 ],
			"max" : [ 0.7683910131454468, 1, 1 ]
		},
		{
			"bufferView" : 2,
			"byteOffset" : 0,
			"componentType" : 5126,
			"count" : 1827,
			"type" : "VEC3"
		},
		{
			"bufferView" : 3,
			"byteOffset" : 0,
			"componentType" : 5123,
			"count" : 1827,
			"type" : "SCALAR",
			"min" : [ 0 ],
			"max" : [ 1826 ]
		}
	],
	"bufferViews" : [
		{
			"buffer" : 0,
			"byteOffset" : 0,
			"byteLength" : 21924,
			"target" : 34962
		},
		{
			"buffer" : 0,
			"byteOffset" : 21924,
			"byteLength" : 21924,
			"target" : 34962
		},
		{
			"buffer" : 0,
			"byteOffset" : 43848,
			"byteLength" : 21924,
			"target" : 34962
		},
		{
			"buffer" : 0,
			"byteOffset" : 65772,
			"byteLength" : 3654,
			"target" : 34963
		}
	],
	"buffers" : [
		{
			"uri" : "B333001654801063C0.bin",
			"byteLength" : 69426
		}
	]
}
