{
	"asset" : {
		"generator" : "FME 2023.1.0.0",
		"version" : "2.0"
	},
	"materials" : [
		{
			"name" : "default_material",
			"pbrMetallicRoughness" : {
				"baseColorFactor" : [ 1, 1, 1, 1 ],
				"roughnessFactor" : 0.30000000000000004,
				"metallicFactor" : 0.5
			}
		}
	],
	"meshes" : [
		{
			"primitives" : [
				{
					"attributes" : {
						"NORMAL" : 1,
						"POSITION" : 0,
						"COLOR_0" : 2
					},
					"indices" : 3,
					"material" : 0,
					"mode" : 4
				}
			]
		}
	],
	"nodes" : [
		{
			"name" : "B336241621201063C0",
			"matrix" : [ 1, 0, 0, 0, 0, 0, -1, 0, 0, 1, 0, 0, 833625.125, 3.338001251220703, -816212.5, 1 ],
			"children" : [ 1 ]
		},
		{
			"mesh" : 0
		}
	],
	"scenes" : [
		{
			"nodes" : [ 0 ]
		}
	],
	"scene" : 0,
	"accessors" : [
		{
			"bufferView" : 0,
			"byteOffset" : 0,
			"componentType" : 5126,
			"count" : 216,
			"type" : "VEC3",
			"min" : [ -5.158203125, -4.955078125, 0 ],
			"max" : [ 5.1591796875, 4.9560546875, 7.085000038146973 ]
		},
		{
			"bufferView" : 1,
			"byteOffset" : 0,
			"componentType" : 5126,
			"count" : 216,
			"type" : "VEC3",
			"min" : [ -0.8944272398948669, -0.9024067521095276, -0.032161254435777664 ],
			"max" : [ 0.8431169986724854, 0.9023351669311523, 1 ]
		},
		{
			"bufferView" : 2,
			"byteOffset" : 0,
			"componentType" : 5126,
			"count" : 216,
			"type" : "VEC3"
		},
		{
			"bufferView" : 3,
			"byteOffset" : 0,
			"componentType" : 5121,
			"count" : 216,
			"type" : "SCALAR",
			"min" : [ 0 ],
			"max" : [ 215 ]
		}
	],
	"bufferViews" : [
		{
			"buffer" : 0,
			"byteOffset" : 0,
			"byteLength" : 2592,
			"target" : 34962
		},
		{
			"buffer" : 0,
			"byteOffset" : 2592,
			"byteLength" : 2592,
			"target" : 34962
		},
		{
			"buffer" : 0,
			"byteOffset" : 5184,
			"byteLength" : 2592,
			"target" : 34962
		},
		{
			"buffer" : 0,
			"byteOffset" : 7776,
			"byteLength" : 216,
			"target" : 34963
		}
	],
	"buffers" : [
		{
			"uri" : "B336241621201063C0.bin",
			"byteLength" : 7992
		}
	]
}
