{
	"asset" : {
		"generator" : "FME 2023.1.0.0",
		"version" : "2.0"
	},
	"materials" : [
		{
			"name" : "default_material",
			"pbrMetallicRoughness" : {
				"baseColorFactor" : [ 1, 1, 1, 1 ],
				"roughnessFactor" : 0.30000000000000004,
				"metallicFactor" : 0.5
			}
		}
	],
	"meshes" : [
		{
			"primitives" : [
				{
					"attributes" : {
						"NORMAL" : 1,
						"POSITION" : 0,
						"COLOR_0" : 2
					},
					"indices" : 3,
					"material" : 0,
					"mode" : 4
				}
			]
		}
	],
	"nodes" : [
		{
			"name" : "B344341649101063C0",
			"matrix" : [ 1, 0, 0, 0, 0, 0, -1, 0, 0, 1, 0, 0, 834434.125, 4.228004455566406, -816491, 1 ],
			"children" : [ 1 ]
		},
		{
			"mesh" : 0
		}
	],
	"scenes" : [
		{
			"nodes" : [ 0 ]
		}
	],
	"scene" : 0,
	"accessors" : [
		{
			"bufferView" : 0,
			"byteOffset" : 0,
			"componentType" : 5126,
			"count" : 459,
			"type" : "VEC3",
			"min" : [ -1.50390625, -1.9423828125, 0 ],
			"max" : [ 1.50390625, 1.94140625, 3.934999465942383 ]
		},
		{
			"bufferView" : 1,
			"byteOffset" : 0,
			"componentType" : 5126,
			"count" : 459,
			"type" : "VEC3",
			"min" : [ -0.9991945624351501, -0.996239960193634, -0.0004357201396487653 ],
			"max" : [ 0.999949038028717, 0.9945055246353149, 0.9959664344787598 ]
		},
		{
			"bufferView" : 2,
			"byteOffset" : 0,
			"componentType" : 5126,
			"count" : 459,
			"type" : "VEC3"
		},
		{
			"bufferView" : 3,
			"byteOffset" : 0,
			"componentType" : 5123,
			"count" : 459,
			"type" : "SCALAR",
			"min" : [ 0 ],
			"max" : [ 458 ]
		}
	],
	"bufferViews" : [
		{
			"buffer" : 0,
			"byteOffset" : 0,
			"byteLength" : 5508,
			"target" : 34962
		},
		{
			"buffer" : 0,
			"byteOffset" : 5508,
			"byteLength" : 5508,
			"target" : 34962
		},
		{
			"buffer" : 0,
			"byteOffset" : 11016,
			"byteLength" : 5508,
			"target" : 34962
		},
		{
			"buffer" : 0,
			"byteOffset" : 16524,
			"byteLength" : 918,
			"target" : 34963
		}
	],
	"buffers" : [
		{
			"uri" : "B344341649101063C0.bin",
			"byteLength" : 17442
		}
	]
}
