{"accessors":[{"bufferView":0,"componentType":5126,"count":1400,"type":"VEC3"},{"bufferView":1,"componentType":5126,"count":1400,"type":"VEC3"},{"bufferView":2,"componentType":5126,"count":1400,"max":[8.2568359375,4.158203125,23.5792236328125],"min":[-8.2451171875,-4.18359375,0.0],"type":"VEC3"},{"bufferView":3,"componentType":5123,"count":1752,"max":[1399],"min":[0],"type":"SCALAR"}],"asset":{"generator":"FME 2023.2.1.0","version":"2.0"},"bufferViews":[{"buffer":0,"byteLength":16800,"byteOffset":0,"target":34962},{"buffer":0,"byteLength":16800,"byteOffset":16800,"target":34962},{"buffer":0,"byteLength":16800,"byteOffset":33600,"target":34962},{"buffer":0,"byteLength":3504,"byteOffset":50400,"target":34963}],"buffers":[{"byteLength":53904,"uri":"buffer.bin"}],"materials":[{"name":"default_material","pbrMetallicRoughness":{"baseColorFactor":[1,1,1,1],"metallicFactor":0.5,"roughnessFactor":0.30000000000000004}}],"meshes":[{"primitives":[{"attributes":{"COLOR_0":0,"NORMAL":1,"POSITION":2},"indices":3,"material":0,"mode":4}]}],"nodes":[{"children":[1],"matrix":[1,0,0,0,0,0,-1,0,0,1,0,0,835573.25,5.395081520080566,-818537.875,1],"name":"B355721853801063C0"},{"mesh":0}],"scene":0,"scenes":[{"nodes":[0]}]}
