{
	"asset" : {
		"generator" : "FME 2022.2.4.0",
		"version" : "2.0"
	},
	"materials" : [
		{
			"name" : "default_material",
			"pbrMetallicRoughness" : {
				"baseColorFactor" : [ 1, 1, 1, 1 ],
				"roughnessFactor" : 0.30000000000000004,
				"metallicFactor" : 0.5
			}
		}
	],
	"meshes" : [
		{
			"primitives" : [
				{
					"attributes" : {
						"NORMAL" : 1,
						"POSITION" : 0,
						"COLOR_0" : 2
					},
					"indices" : 3,
					"material" : 0,
					"mode" : 4
				}
			]
		}
	],
	"nodes" : [
		{
			"name" : "B333181621801063C0",
			"matrix" : [ 1, 0, 0, 0, 0, 0, -1, 0, 0, 1, 0, 0, 833322.125, 26.06399917602539, -816215.5, 1 ],
			"children" : [ 1 ]
		},
		{
			"mesh" : 0
		}
	],
	"scenes" : [
		{
			"nodes" : [ 0 ]
		}
	],
	"scene" : 0,
	"accessors" : [
		{
			"bufferView" : 0,
			"byteOffset" : 0,
			"componentType" : 5126,
			"count" : 594,
			"type" : "VEC3",
			"min" : [ -6.3505859375, -6.009765625, 0 ],
			"max" : [ 6.4189453125, 6.013671875, 20.476001739501953 ]
		},
		{
			"bufferView" : 1,
			"byteOffset" : 0,
			"componentType" : 5126,
			"count" : 594,
			"type" : "VEC3",
			"min" : [ -0.7602108120918274, -0.7601425051689148, -1 ],
			"max" : [ 0.7592566609382629, 0.9932896494865417, 1 ]
		},
		{
			"bufferView" : 2,
			"byteOffset" : 0,
			"componentType" : 5126,
			"count" : 594,
			"type" : "VEC3"
		},
		{
			"bufferView" : 3,
			"byteOffset" : 0,
			"componentType" : 5123,
			"count" : 594,
			"type" : "SCALAR",
			"min" : [ 0 ],
			"max" : [ 593 ]
		}
	],
	"bufferViews" : [
		{
			"buffer" : 0,
			"byteOffset" : 0,
			"byteLength" : 7128,
			"target" : 34962
		},
		{
			"buffer" : 0,
			"byteOffset" : 7128,
			"byteLength" : 7128,
			"target" : 34962
		},
		{
			"buffer" : 0,
			"byteOffset" : 14256,
			"byteLength" : 7128,
			"target" : 34962
		},
		{
			"buffer" : 0,
			"byteOffset" : 21384,
			"byteLength" : 1188,
			"target" : 34963
		}
	],
	"buffers" : [
		{
			"uri" : "B333181621801063C0.bin",
			"byteLength" : 22572
		}
	]
}
