{
	"asset" : {
		"generator" : "FME 2023.2.1.0",
		"version" : "2.0"
	},
	"materials" : [
		{
			"name" : "default_material",
			"pbrMetallicRoughness" : {
				"baseColorFactor" : [ 1, 1, 1, 1 ],
				"roughnessFactor" : 0.30000000000000004,
				"metallicFactor" : 0.5
			}
		}
	],
	"meshes" : [
		{
			"primitives" : [
				{
					"attributes" : {
						"NORMAL" : 1,
						"POSITION" : 0,
						"COLOR_0" : 2
					},
					"indices" : 3,
					"material" : 0,
					"mode" : 4
				}
			]
		}
	],
	"nodes" : [
		{
			"name" : "B355551528001063C0",
			"matrix" : [ 1, 0, 0, 0, 0, 0, -1, 0, 0, 1, 0, 0, 835555.125, 5.3379998207092285, -815279.375, 1 ],
			"children" : [ 1 ]
		},
		{
			"mesh" : 0
		}
	],
	"scenes" : [
		{
			"nodes" : [ 0 ]
		}
	],
	"scene" : 0,
	"accessors" : [
		{
			"bufferView" : 0,
			"byteOffset" : 0,
			"componentType" : 5126,
			"count" : 603,
			"type" : "VEC3",
			"min" : [ -6.419921875, -7.6376953125, 0 ],
			"max" : [ 6.419921875, 7.63671875, 31.857999801635742 ]
		},
		{
			"bufferView" : 1,
			"byteOffset" : 0,
			"componentType" : 5126,
			"count" : 603,
			"type" : "VEC3",
			"min" : [ -0.841677188873291, -0.8516601324081421, -1 ],
			"max" : [ 0.8314348459243774, 0.8529022336006165, 1 ]
		},
		{
			"bufferView" : 2,
			"byteOffset" : 0,
			"componentType" : 5126,
			"count" : 603,
			"type" : "VEC3"
		},
		{
			"bufferView" : 3,
			"byteOffset" : 0,
			"componentType" : 5123,
			"count" : 603,
			"type" : "SCALAR",
			"min" : [ 0 ],
			"max" : [ 602 ]
		}
	],
	"bufferViews" : [
		{
			"buffer" : 0,
			"byteOffset" : 0,
			"byteLength" : 7236,
			"target" : 34962
		},
		{
			"buffer" : 0,
			"byteOffset" : 7236,
			"byteLength" : 7236,
			"target" : 34962
		},
		{
			"buffer" : 0,
			"byteOffset" : 14472,
			"byteLength" : 7236,
			"target" : 34962
		},
		{
			"buffer" : 0,
			"byteOffset" : 21708,
			"byteLength" : 1206,
			"target" : 34963
		}
	],
	"buffers" : [
		{
			"uri" : "B355551528001063C0.bin",
			"byteLength" : 22914
		}
	]
}
