{
	"asset" : {
		"generator" : "FME 2023.2.2.0",
		"version" : "2.0"
	},
	"images" : [
		{
			"uri" : "T19500168000106E10_001.jpg"
		}
	],
	"samplers" : [
		{
			"wrapS" : 10497,
			"wrapT" : 10497,
			"magFilter" : 9729,
			"minFilter" : 9986
		}
	],
	"textures" : [
		{
			"source" : 0,
			"sampler" : 0
		}
	],
	"materials" : [
		{
			"name" : "T19500168000106E10",
			"pbrMetallicRoughness" : {
				"baseColorTexture" : {
					"index" : 0,
					"texCoord" : 0
				},
				"roughnessFactor" : 0.984375,
				"metallicFactor" : 0.5
			}
		}
	],
	"meshes" : [
		{
			"primitives" : [
				{
					"attributes" : {
						"NORMAL" : 1,
						"POSITION" : 0,
						"TEXCOORD_0" : 2
					},
					"indices" : 3,
					"material" : 0,
					"mode" : 4
				}
			]
		}
	],
	"nodes" : [
		{
			"name" : "T19500168000106E10",
			"matrix" : [ 1, 0, 0, 0, 0, 0, -1, 0, 0, 1, 0, 0, 819875, 0.8908538818359375, -817100, 1 ],
			"children" : [ 1 ]
		},
		{
			"mesh" : 0
		}
	],
	"scenes" : [
		{
			"nodes" : [ 0 ]
		}
	],
	"scene" : 0,
	"accessors" : [
		{
			"bufferView" : 0,
			"byteOffset" : 0,
			"componentType" : 5126,
			"count" : 22841,
			"type" : "VEC3",
			"min" : [ -375, -300, 0 ],
			"max" : [ 375, 300, 170.31614685058594 ]
		},
		{
			"bufferView" : 1,
			"byteOffset" : 0,
			"componentType" : 5126,
			"count" : 22841,
			"type" : "VEC3",
			"min" : [ -0.7410411834716797, -0.7906386256217957, 0.5147958397865295 ],
			"max" : [ 0.8440185189247131, 0.7883385419845581, 1 ]
		},
		{
			"bufferView" : 2,
			"byteOffset" : 0,
			"componentType" : 5126,
			"count" : 22841,
			"type" : "VEC2",
			"min" : [ 0, 0 ],
			"max" : [ 1, 1 ]
		},
		{
			"bufferView" : 3,
			"byteOffset" : 0,
			"componentType" : 5123,
			"count" : 133713,
			"type" : "SCALAR",
			"min" : [ 0 ],
			"max" : [ 22840 ]
		}
	],
	"bufferViews" : [
		{
			"buffer" : 0,
			"byteOffset" : 0,
			"byteLength" : 274092,
			"target" : 34962
		},
		{
			"buffer" : 0,
			"byteOffset" : 274092,
			"byteLength" : 274092,
			"target" : 34962
		},
		{
			"buffer" : 0,
			"byteOffset" : 548184,
			"byteLength" : 182728,
			"target" : 34962
		},
		{
			"buffer" : 0,
			"byteOffset" : 730912,
			"byteLength" : 267426,
			"target" : 34963
		}
	],
	"buffers" : [
		{
			"uri" : "T19500168000106E10.bin",
			"byteLength" : 998338
		}
	]
}