{
	"asset" : {
		"generator" : "FME 2022.2.4.0",
		"version" : "2.0"
	},
	"materials" : [
		{
			"name" : "default_material",
			"pbrMetallicRoughness" : {
				"baseColorFactor" : [ 1, 1, 1, 1 ],
				"roughnessFactor" : 0.30000000000000004,
				"metallicFactor" : 0.5
			}
		}
	],
	"meshes" : [
		{
			"primitives" : [
				{
					"attributes" : {
						"NORMAL" : 1,
						"POSITION" : 0,
						"COLOR_0" : 2
					},
					"indices" : 3,
					"material" : 0,
					"mode" : 4
				}
			]
		}
	],
	"nodes" : [
		{
			"name" : "B167811509201062G0",
			"matrix" : [ 1, 0, 0, 0, 0, 0, -1, 0, 0, 1, 0, 0, 816783.625, 58.83089828491211, -815092.3125, 1 ],
			"children" : [ 1 ]
		},
		{
			"mesh" : 0
		}
	],
	"scenes" : [
		{
			"nodes" : [ 0 ]
		}
	],
	"scene" : 0,
	"accessors" : [
		{
			"bufferView" : 0,
			"byteOffset" : 0,
			"componentType" : 5126,
			"count" : 90,
			"type" : "VEC3",
			"min" : [ -7.3125, -6.3125, 0 ],
			"max" : [ 7.375, 6.3125, 6.020702362060547 ]
		},
		{
			"bufferView" : 1,
			"byteOffset" : 0,
			"componentType" : 5126,
			"count" : 90,
			"type" : "VEC3",
			"min" : [ -0.9436236619949341, -0.9436199069023132, -0.9923495650291443 ],
			"max" : [ 0.9435944557189941, 0.9436262249946594, 0.9923495650291443 ]
		},
		{
			"bufferView" : 2,
			"byteOffset" : 0,
			"componentType" : 5126,
			"count" : 90,
			"type" : "VEC3"
		},
		{
			"bufferView" : 3,
			"byteOffset" : 0,
			"componentType" : 5121,
			"count" : 90,
			"type" : "SCALAR",
			"min" : [ 0 ],
			"max" : [ 89 ]
		}
	],
	"bufferViews" : [
		{
			"buffer" : 0,
			"byteOffset" : 0,
			"byteLength" : 1080,
			"target" : 34962
		},
		{
			"buffer" : 0,
			"byteOffset" : 1080,
			"byteLength" : 1080,
			"target" : 34962
		},
		{
			"buffer" : 0,
			"byteOffset" : 2160,
			"byteLength" : 1080,
			"target" : 34962
		},
		{
			"buffer" : 0,
			"byteOffset" : 3240,
			"byteLength" : 90,
			"target" : 34963
		}
	],
	"buffers" : [
		{
			"uri" : "B167811509201062G0.bin",
			"byteLength" : 3330
		}
	]
}
