{
	"asset" : {
		"generator" : "FME 2023.1.0.0",
		"version" : "2.0"
	},
	"materials" : [
		{
			"name" : "default_material",
			"pbrMetallicRoughness" : {
				"baseColorFactor" : [ 1, 1, 1, 1 ],
				"roughnessFactor" : 0.30000000000000004,
				"metallicFactor" : 0.5
			}
		}
	],
	"meshes" : [
		{
			"primitives" : [
				{
					"attributes" : {
						"NORMAL" : 1,
						"POSITION" : 0,
						"COLOR_0" : 2
					},
					"indices" : 3,
					"material" : 0,
					"mode" : 4
				}
			]
		}
	],
	"nodes" : [
		{
			"name" : "B340091583402063C0",
			"matrix" : [ 1, 0, 0, 0, 0, 0, -1, 0, 0, 1, 0, 0, 834008.375, 32.196998596191406, -815834.6875, 1 ],
			"children" : [ 1 ]
		},
		{
			"mesh" : 0
		}
	],
	"scenes" : [
		{
			"nodes" : [ 0 ]
		}
	],
	"scene" : 0,
	"accessors" : [
		{
			"bufferView" : 0,
			"byteOffset" : 0,
			"componentType" : 5126,
			"count" : 483,
			"type" : "VEC3",
			"min" : [ -7.0810546875, -8.1376953125, 0 ],
			"max" : [ 7.0810546875, 8.138671875, 23.145999908447266 ]
		},
		{
			"bufferView" : 1,
			"byteOffset" : 0,
			"componentType" : 5126,
			"count" : 483,
			"type" : "VEC3",
			"min" : [ -0.9910881519317627, -0.9895616173744202, -1 ],
			"max" : [ 0.9908448457717896, 0.9888385534286499, 1 ]
		},
		{
			"bufferView" : 2,
			"byteOffset" : 0,
			"componentType" : 5126,
			"count" : 483,
			"type" : "VEC3"
		},
		{
			"bufferView" : 3,
			"byteOffset" : 0,
			"componentType" : 5123,
			"count" : 483,
			"type" : "SCALAR",
			"min" : [ 0 ],
			"max" : [ 482 ]
		}
	],
	"bufferViews" : [
		{
			"buffer" : 0,
			"byteOffset" : 0,
			"byteLength" : 5796,
			"target" : 34962
		},
		{
			"buffer" : 0,
			"byteOffset" : 5796,
			"byteLength" : 5796,
			"target" : 34962
		},
		{
			"buffer" : 0,
			"byteOffset" : 11592,
			"byteLength" : 5796,
			"target" : 34962
		},
		{
			"buffer" : 0,
			"byteOffset" : 17388,
			"byteLength" : 966,
			"target" : 34963
		}
	],
	"buffers" : [
		{
			"uri" : "B340091583402063C0.bin",
			"byteLength" : 18354
		}
	]
}
