{
	"asset" : {
		"generator" : "FME 2023.2.1.0",
		"version" : "2.0"
	},
	"materials" : [
		{
			"name" : "default_material",
			"pbrMetallicRoughness" : {
				"baseColorFactor" : [ 1, 1, 1, 1 ],
				"roughnessFactor" : 0.30000000000000004,
				"metallicFactor" : 0.5
			}
		}
	],
	"meshes" : [
		{
			"primitives" : [
				{
					"attributes" : {
						"NORMAL" : 1,
						"POSITION" : 0,
						"COLOR_0" : 2
					},
					"indices" : 3,
					"material" : 0,
					"mode" : 4
				}
			]
		}
	],
	"nodes" : [
		{
			"name" : "B342991514401063C0",
			"matrix" : [ 1, 0, 0, 0, 0, 0, -1, 0, 0, 1, 0, 0, 834297.8125, 86.23999786376953, -815142.75, 1 ],
			"children" : [ 1 ]
		},
		{
			"mesh" : 0
		}
	],
	"scenes" : [
		{
			"nodes" : [ 0 ]
		}
	],
	"scene" : 0,
	"accessors" : [
		{
			"bufferView" : 0,
			"byteOffset" : 0,
			"componentType" : 5126,
			"count" : 933,
			"type" : "VEC3",
			"min" : [ -5.638671875, -3.6806640625, 0 ],
			"max" : [ 5.638671875, 3.6806640625, 10.894004821777344 ]
		},
		{
			"bufferView" : 1,
			"byteOffset" : 0,
			"componentType" : 5126,
			"count" : 933,
			"type" : "VEC3",
			"min" : [ -0.9425539374351501, -0.93854159116745, -1 ],
			"max" : [ 0.9383936524391174, 0.93854159116745, 1 ]
		},
		{
			"bufferView" : 2,
			"byteOffset" : 0,
			"componentType" : 5126,
			"count" : 933,
			"type" : "VEC3"
		},
		{
			"bufferView" : 3,
			"byteOffset" : 0,
			"componentType" : 5123,
			"count" : 933,
			"type" : "SCALAR",
			"min" : [ 0 ],
			"max" : [ 932 ]
		}
	],
	"bufferViews" : [
		{
			"buffer" : 0,
			"byteOffset" : 0,
			"byteLength" : 11196,
			"target" : 34962
		},
		{
			"buffer" : 0,
			"byteOffset" : 11196,
			"byteLength" : 11196,
			"target" : 34962
		},
		{
			"buffer" : 0,
			"byteOffset" : 22392,
			"byteLength" : 11196,
			"target" : 34962
		},
		{
			"buffer" : 0,
			"byteOffset" : 33588,
			"byteLength" : 1866,
			"target" : 34963
		}
	],
	"buffers" : [
		{
			"uri" : "B342991514401063C0.bin",
			"byteLength" : 35454
		}
	]
}
