{
	"asset" : {
		"generator" : "FME 2023.2.1.0",
		"version" : "2.0"
	},
	"materials" : [
		{
			"name" : "default_material",
			"pbrMetallicRoughness" : {
				"baseColorFactor" : [ 1, 1, 1, 1 ],
				"roughnessFactor" : 0.30000000000000004,
				"metallicFactor" : 0.5
			}
		}
	],
	"meshes" : [
		{
			"primitives" : [
				{
					"attributes" : {
						"NORMAL" : 1,
						"POSITION" : 0,
						"COLOR_0" : 2
					},
					"indices" : 3,
					"material" : 0,
					"mode" : 4
				}
			]
		}
	],
	"nodes" : [
		{
			"name" : "B338451620301063C0",
			"matrix" : [ 1, 0, 0, 0, 0, 0, -1, 0, 0, 1, 0, 0, 833843.9375, 7.879997253417969, -816201.75, 1 ],
			"children" : [ 1 ]
		},
		{
			"mesh" : 0
		}
	],
	"scenes" : [
		{
			"nodes" : [ 0 ]
		}
	],
	"scene" : 0,
	"accessors" : [
		{
			"bufferView" : 0,
			"byteOffset" : 0,
			"componentType" : 5126,
			"count" : 651,
			"type" : "VEC3",
			"min" : [ -6.513671875, -6.75, 0 ],
			"max" : [ 6.513671875, 6.75, 18.312000274658203 ]
		},
		{
			"bufferView" : 1,
			"byteOffset" : 0,
			"componentType" : 5126,
			"count" : 651,
			"type" : "VEC3",
			"min" : [ -0.8301612138748169, -0.7828232645988464, -1 ],
			"max" : [ 0.8944272398948669, 0.7405029535293579, 1 ]
		},
		{
			"bufferView" : 2,
			"byteOffset" : 0,
			"componentType" : 5126,
			"count" : 651,
			"type" : "VEC3"
		},
		{
			"bufferView" : 3,
			"byteOffset" : 0,
			"componentType" : 5123,
			"count" : 651,
			"type" : "SCALAR",
			"min" : [ 0 ],
			"max" : [ 650 ]
		}
	],
	"bufferViews" : [
		{
			"buffer" : 0,
			"byteOffset" : 0,
			"byteLength" : 7812,
			"target" : 34962
		},
		{
			"buffer" : 0,
			"byteOffset" : 7812,
			"byteLength" : 7812,
			"target" : 34962
		},
		{
			"buffer" : 0,
			"byteOffset" : 15624,
			"byteLength" : 7812,
			"target" : 34962
		},
		{
			"buffer" : 0,
			"byteOffset" : 23436,
			"byteLength" : 1302,
			"target" : 34963
		}
	],
	"buffers" : [
		{
			"uri" : "B338451620301063C0.bin",
			"byteLength" : 24738
		}
	]
}
