{
	"asset" : {
		"generator" : "FME 2023.2.1.0",
		"version" : "2.0"
	},
	"materials" : [
		{
			"name" : "default_material",
			"pbrMetallicRoughness" : {
				"baseColorFactor" : [ 1, 1, 1, 1 ],
				"roughnessFactor" : 0.30000000000000004,
				"metallicFactor" : 0.5
			}
		}
	],
	"meshes" : [
		{
			"primitives" : [
				{
					"attributes" : {
						"NORMAL" : 1,
						"POSITION" : 0,
						"COLOR_0" : 2
					},
					"indices" : 3,
					"material" : 0,
					"mode" : 4
				}
			]
		}
	],
	"nodes" : [
		{
			"name" : "B333941617001063C0",
			"matrix" : [ 1, 0, 0, 0, 0, 0, -1, 0, 0, 1, 0, 0, 833393.8125, 38.136993408203125, -816170.625, 1 ],
			"children" : [ 1 ]
		},
		{
			"mesh" : 0
		}
	],
	"scenes" : [
		{
			"nodes" : [ 0 ]
		}
	],
	"scene" : 0,
	"accessors" : [
		{
			"bufferView" : 0,
			"byteOffset" : 0,
			"componentType" : 5126,
			"count" : 1785,
			"type" : "VEC3",
			"min" : [ -8.5869140625, -9.1298828125, 0 ],
			"max" : [ 8.5869140625, 9.1298828125, 77.11000061035156 ]
		},
		{
			"bufferView" : 1,
			"byteOffset" : 0,
			"componentType" : 5126,
			"count" : 1785,
			"type" : "VEC3",
			"min" : [ -0.999804675579071, -0.9997079968452454, -1 ],
			"max" : [ 0.999806821346283, 0.9997245669364929, 1 ]
		},
		{
			"bufferView" : 2,
			"byteOffset" : 0,
			"componentType" : 5126,
			"count" : 1785,
			"type" : "VEC3"
		},
		{
			"bufferView" : 3,
			"byteOffset" : 0,
			"componentType" : 5123,
			"count" : 1785,
			"type" : "SCALAR",
			"min" : [ 0 ],
			"max" : [ 1784 ]
		}
	],
	"bufferViews" : [
		{
			"buffer" : 0,
			"byteOffset" : 0,
			"byteLength" : 21420,
			"target" : 34962
		},
		{
			"buffer" : 0,
			"byteOffset" : 21420,
			"byteLength" : 21420,
			"target" : 34962
		},
		{
			"buffer" : 0,
			"byteOffset" : 42840,
			"byteLength" : 21420,
			"target" : 34962
		},
		{
			"buffer" : 0,
			"byteOffset" : 64260,
			"byteLength" : 3570,
			"target" : 34963
		}
	],
	"buffers" : [
		{
			"uri" : "B333941617001063C0.bin",
			"byteLength" : 67830
		}
	]
}
