{
	"asset" : {
		"generator" : "FME 2023.1.0.0",
		"version" : "2.0"
	},
	"materials" : [
		{
			"name" : "default_material",
			"pbrMetallicRoughness" : {
				"baseColorFactor" : [ 1, 1, 1, 1 ],
				"roughnessFactor" : 0.30000000000000004,
				"metallicFactor" : 0.5
			}
		}
	],
	"meshes" : [
		{
			"primitives" : [
				{
					"attributes" : {
						"NORMAL" : 1,
						"POSITION" : 0,
						"COLOR_0" : 2
					},
					"indices" : 3,
					"material" : 0,
					"mode" : 4
				}
			]
		}
	],
	"nodes" : [
		{
			"name" : "B336811637801063C0",
			"matrix" : [ 1, 0, 0, 0, 0, 0, -1, 0, 0, 1, 0, 0, 833682.625, 19.014995574951172, -816377.0625, 1 ],
			"children" : [ 1 ]
		},
		{
			"mesh" : 0
		}
	],
	"scenes" : [
		{
			"nodes" : [ 0 ]
		}
	],
	"scene" : 0,
	"accessors" : [
		{
			"bufferView" : 0,
			"byteOffset" : 0,
			"componentType" : 5126,
			"count" : 366,
			"type" : "VEC3",
			"min" : [ -6.8115234375, -6.857421875, 0 ],
			"max" : [ 6.8125, 6.857421875, 90.74099731445312 ]
		},
		{
			"bufferView" : 1,
			"byteOffset" : 0,
			"componentType" : 5126,
			"count" : 366,
			"type" : "VEC3",
			"min" : [ -0.9654698371887207, -0.9655224680900574, -1 ],
			"max" : [ 0.9658118486404419, 0.9654542207717896, 1 ]
		},
		{
			"bufferView" : 2,
			"byteOffset" : 0,
			"componentType" : 5126,
			"count" : 366,
			"type" : "VEC3"
		},
		{
			"bufferView" : 3,
			"byteOffset" : 0,
			"componentType" : 5123,
			"count" : 366,
			"type" : "SCALAR",
			"min" : [ 0 ],
			"max" : [ 365 ]
		}
	],
	"bufferViews" : [
		{
			"buffer" : 0,
			"byteOffset" : 0,
			"byteLength" : 4392,
			"target" : 34962
		},
		{
			"buffer" : 0,
			"byteOffset" : 4392,
			"byteLength" : 4392,
			"target" : 34962
		},
		{
			"buffer" : 0,
			"byteOffset" : 8784,
			"byteLength" : 4392,
			"target" : 34962
		},
		{
			"buffer" : 0,
			"byteOffset" : 13176,
			"byteLength" : 732,
			"target" : 34963
		}
	],
	"buffers" : [
		{
			"uri" : "B336811637801063C0.bin",
			"byteLength" : 13908
		}
	]
}
