{
	"asset" : {
		"generator" : "FME 2023.1.0.0",
		"version" : "2.0"
	},
	"materials" : [
		{
			"name" : "default_material",
			"pbrMetallicRoughness" : {
				"baseColorFactor" : [ 1, 1, 1, 1 ],
				"roughnessFactor" : 0.30000000000000004,
				"metallicFactor" : 0.5
			}
		}
	],
	"meshes" : [
		{
			"primitives" : [
				{
					"attributes" : {
						"NORMAL" : 1,
						"POSITION" : 0,
						"COLOR_0" : 2
					},
					"indices" : 3,
					"material" : 0,
					"mode" : 4
				}
			]
		}
	],
	"nodes" : [
		{
			"name" : "B339211552801063C0",
			"matrix" : [ 1, 0, 0, 0, 0, 0, -1, 0, 0, 1, 0, 0, 833919.375, 60.654991149902344, -815526.8125, 1 ],
			"children" : [ 1 ]
		},
		{
			"mesh" : 0
		}
	],
	"scenes" : [
		{
			"nodes" : [ 0 ]
		}
	],
	"scene" : 0,
	"accessors" : [
		{
			"bufferView" : 0,
			"byteOffset" : 0,
			"componentType" : 5126,
			"count" : 1407,
			"type" : "VEC3",
			"min" : [ -18.2431640625, -19.8291015625, 0 ],
			"max" : [ 18.2431640625, 19.8291015625, 44.204002380371094 ]
		},
		{
			"bufferView" : 1,
			"byteOffset" : 0,
			"componentType" : 5126,
			"count" : 1407,
			"type" : "VEC3",
			"min" : [ -0.7192955613136292, -0.7630996108055115, -1 ],
			"max" : [ 0.7331244945526123, 0.7565849423408508, 1 ]
		},
		{
			"bufferView" : 2,
			"byteOffset" : 0,
			"componentType" : 5126,
			"count" : 1407,
			"type" : "VEC3"
		},
		{
			"bufferView" : 3,
			"byteOffset" : 0,
			"componentType" : 5123,
			"count" : 1407,
			"type" : "SCALAR",
			"min" : [ 0 ],
			"max" : [ 1406 ]
		}
	],
	"bufferViews" : [
		{
			"buffer" : 0,
			"byteOffset" : 0,
			"byteLength" : 16884,
			"target" : 34962
		},
		{
			"buffer" : 0,
			"byteOffset" : 16884,
			"byteLength" : 16884,
			"target" : 34962
		},
		{
			"buffer" : 0,
			"byteOffset" : 33768,
			"byteLength" : 16884,
			"target" : 34962
		},
		{
			"buffer" : 0,
			"byteOffset" : 50652,
			"byteLength" : 2814,
			"target" : 34963
		}
	],
	"buffers" : [
		{
			"uri" : "B339211552801063C0.bin",
			"byteLength" : 53466
		}
	]
}
