{
	"asset" : {
		"generator" : "FME 2023.1.0.0",
		"version" : "2.0"
	},
	"materials" : [
		{
			"name" : "default_material",
			"pbrMetallicRoughness" : {
				"baseColorFactor" : [ 1, 1, 1, 1 ],
				"roughnessFactor" : 0.30000000000000004,
				"metallicFactor" : 0.5
			}
		}
	],
	"meshes" : [
		{
			"primitives" : [
				{
					"attributes" : {
						"NORMAL" : 1,
						"POSITION" : 0,
						"COLOR_0" : 2
					},
					"indices" : 3,
					"material" : 0,
					"mode" : 4
				}
			]
		}
	],
	"nodes" : [
		{
			"name" : "B356541589001063C0",
			"matrix" : [ 1, 0, 0, 0, 0, 0, -1, 0, 0, 1, 0, 0, 835653.8125, 4.9730000495910645, -815890.3125, 1 ],
			"children" : [ 1 ]
		},
		{
			"mesh" : 0
		}
	],
	"scenes" : [
		{
			"nodes" : [ 0 ]
		}
	],
	"scene" : 0,
	"accessors" : [
		{
			"bufferView" : 0,
			"byteOffset" : 0,
			"componentType" : 5126,
			"count" : 1521,
			"type" : "VEC3",
			"min" : [ -31.978515625, -12.0703125, 0 ],
			"max" : [ 31.978515625, 12.0703125, 20.027999877929688 ]
		},
		{
			"bufferView" : 1,
			"byteOffset" : 0,
			"componentType" : 5126,
			"count" : 1521,
			"type" : "VEC3",
			"min" : [ -0.9999635815620422, -0.9983822107315063, -1 ],
			"max" : [ 0.9984104633331299, 0.998471200466156, 1 ]
		},
		{
			"bufferView" : 2,
			"byteOffset" : 0,
			"componentType" : 5126,
			"count" : 1521,
			"type" : "VEC3"
		},
		{
			"bufferView" : 3,
			"byteOffset" : 0,
			"componentType" : 5123,
			"count" : 1521,
			"type" : "SCALAR",
			"min" : [ 0 ],
			"max" : [ 1520 ]
		}
	],
	"bufferViews" : [
		{
			"buffer" : 0,
			"byteOffset" : 0,
			"byteLength" : 18252,
			"target" : 34962
		},
		{
			"buffer" : 0,
			"byteOffset" : 18252,
			"byteLength" : 18252,
			"target" : 34962
		},
		{
			"buffer" : 0,
			"byteOffset" : 36504,
			"byteLength" : 18252,
			"target" : 34962
		},
		{
			"buffer" : 0,
			"byteOffset" : 54756,
			"byteLength" : 3042,
			"target" : 34963
		}
	],
	"buffers" : [
		{
			"uri" : "B356541589001063C0.bin",
			"byteLength" : 57798
		}
	]
}
