{
	"asset" : {
		"generator" : "FME 2022.2.4.0",
		"version" : "2.0"
	},
	"materials" : [
		{
			"name" : "default_material",
			"pbrMetallicRoughness" : {
				"baseColorFactor" : [ 1, 1, 1, 1 ],
				"roughnessFactor" : 0.30000000000000004,
				"metallicFactor" : 0.5
			}
		}
	],
	"meshes" : [
		{
			"primitives" : [
				{
					"attributes" : {
						"NORMAL" : 1,
						"POSITION" : 0,
						"COLOR_0" : 2
					},
					"indices" : 3,
					"material" : 0,
					"mode" : 4
				}
			]
		}
	],
	"nodes" : [
		{
			"name" : "B356741571101063C0",
			"matrix" : [ 1, 0, 0, 0, 0, 0, -1, 0, 0, 1, 0, 0, 835673.5, 3.4770114421844482, -815701.125, 1 ],
			"children" : [ 1 ]
		},
		{
			"mesh" : 0
		}
	],
	"scenes" : [
		{
			"nodes" : [ 0 ]
		}
	],
	"scene" : 0,
	"accessors" : [
		{
			"bufferView" : 0,
			"byteOffset" : 0,
			"componentType" : 5126,
			"count" : 3072,
			"type" : "VEC3",
			"min" : [ -16.9423828125, -18.7236328125, 0 ],
			"max" : [ 16.9423828125, 18.7236328125, 80.73995971679688 ]
		},
		{
			"bufferView" : 1,
			"byteOffset" : 0,
			"componentType" : 5126,
			"count" : 3072,
			"type" : "VEC3",
			"min" : [ -0.9999787211418152, -0.9999807476997375, -1 ],
			"max" : [ 0.9999755024909973, 0.998437225818634, 1 ]
		},
		{
			"bufferView" : 2,
			"byteOffset" : 0,
			"componentType" : 5126,
			"count" : 3072,
			"type" : "VEC3"
		},
		{
			"bufferView" : 3,
			"byteOffset" : 0,
			"componentType" : 5123,
			"count" : 3072,
			"type" : "SCALAR",
			"min" : [ 0 ],
			"max" : [ 3071 ]
		}
	],
	"bufferViews" : [
		{
			"buffer" : 0,
			"byteOffset" : 0,
			"byteLength" : 36864,
			"target" : 34962
		},
		{
			"buffer" : 0,
			"byteOffset" : 36864,
			"byteLength" : 36864,
			"target" : 34962
		},
		{
			"buffer" : 0,
			"byteOffset" : 73728,
			"byteLength" : 36864,
			"target" : 34962
		},
		{
			"buffer" : 0,
			"byteOffset" : 110592,
			"byteLength" : 6144,
			"target" : 34963
		}
	],
	"buffers" : [
		{
			"uri" : "B356741571101063C0.bin",
			"byteLength" : 116736
		}
	]
}
