{
	"asset" : {
		"generator" : "FME 2023.1.0.0",
		"version" : "2.0"
	},
	"materials" : [
		{
			"name" : "default_material",
			"pbrMetallicRoughness" : {
				"baseColorFactor" : [ 1, 1, 1, 1 ],
				"roughnessFactor" : 0.30000000000000004,
				"metallicFactor" : 0.5
			}
		}
	],
	"meshes" : [
		{
			"primitives" : [
				{
					"attributes" : {
						"NORMAL" : 1,
						"POSITION" : 0,
						"COLOR_0" : 2
					},
					"indices" : 3,
					"material" : 0,
					"mode" : 4
				}
			]
		}
	],
	"nodes" : [
		{
			"name" : "B341991587501063C0",
			"matrix" : [ 1, 0, 0, 0, 0, 0, -1, 0, 0, 1, 0, 0, 834201.25, 5.004000186920166, -815874, 1 ],
			"children" : [ 1 ]
		},
		{
			"mesh" : 0
		}
	],
	"scenes" : [
		{
			"nodes" : [ 0 ]
		}
	],
	"scene" : 0,
	"accessors" : [
		{
			"bufferView" : 0,
			"byteOffset" : 0,
			"componentType" : 5126,
			"count" : 1263,
			"type" : "VEC3",
			"min" : [ -29.083984375, -31.4765625, 0 ],
			"max" : [ 29.033203125, 31.4140625, 90.73100280761719 ]
		},
		{
			"bufferView" : 1,
			"byteOffset" : 0,
			"componentType" : 5126,
			"count" : 1263,
			"type" : "VEC3",
			"min" : [ -0.9984698295593262, -0.9853789210319519, -1 ],
			"max" : [ 0.8783888220787048, 0.9937745928764343, 1 ]
		},
		{
			"bufferView" : 2,
			"byteOffset" : 0,
			"componentType" : 5126,
			"count" : 1263,
			"type" : "VEC3"
		},
		{
			"bufferView" : 3,
			"byteOffset" : 0,
			"componentType" : 5123,
			"count" : 1263,
			"type" : "SCALAR",
			"min" : [ 0 ],
			"max" : [ 1262 ]
		}
	],
	"bufferViews" : [
		{
			"buffer" : 0,
			"byteOffset" : 0,
			"byteLength" : 15156,
			"target" : 34962
		},
		{
			"buffer" : 0,
			"byteOffset" : 15156,
			"byteLength" : 15156,
			"target" : 34962
		},
		{
			"buffer" : 0,
			"byteOffset" : 30312,
			"byteLength" : 15156,
			"target" : 34962
		},
		{
			"buffer" : 0,
			"byteOffset" : 45468,
			"byteLength" : 2526,
			"target" : 34963
		}
	],
	"buffers" : [
		{
			"uri" : "B341991587501063C0.bin",
			"byteLength" : 47994
		}
	]
}
