{
	"asset" : {
		"generator" : "FME 2023.1.0.0",
		"version" : "2.0"
	},
	"materials" : [
		{
			"name" : "default_material",
			"pbrMetallicRoughness" : {
				"baseColorFactor" : [ 1, 1, 1, 1 ],
				"roughnessFactor" : 0.30000000000000004,
				"metallicFactor" : 0.5
			}
		}
	],
	"meshes" : [
		{
			"primitives" : [
				{
					"attributes" : {
						"NORMAL" : 1,
						"POSITION" : 0,
						"COLOR_0" : 2
					},
					"indices" : 3,
					"material" : 0,
					"mode" : 4
				}
			]
		}
	],
	"nodes" : [
		{
			"name" : "B355621519401063C0",
			"matrix" : [ 1, 0, 0, 0, 0, 0, -1, 0, 0, 1, 0, 0, 835564.9375, 11.519000053405762, -815191.6875, 1 ],
			"children" : [ 1 ]
		},
		{
			"mesh" : 0
		}
	],
	"scenes" : [
		{
			"nodes" : [ 0 ]
		}
	],
	"scene" : 0,
	"accessors" : [
		{
			"bufferView" : 0,
			"byteOffset" : 0,
			"componentType" : 5126,
			"count" : 462,
			"type" : "VEC3",
			"min" : [ -5.9453125, -6.4951171875, 0 ],
			"max" : [ 5.9453125, 6.4951171875, 24.055999755859375 ]
		},
		{
			"bufferView" : 1,
			"byteOffset" : 0,
			"componentType" : 5126,
			"count" : 462,
			"type" : "VEC3",
			"min" : [ -0.7188511490821838, -0.714593768119812, -1 ],
			"max" : [ 0.7149981260299683, 0.7148116230964661, 1 ]
		},
		{
			"bufferView" : 2,
			"byteOffset" : 0,
			"componentType" : 5126,
			"count" : 462,
			"type" : "VEC3"
		},
		{
			"bufferView" : 3,
			"byteOffset" : 0,
			"componentType" : 5123,
			"count" : 462,
			"type" : "SCALAR",
			"min" : [ 0 ],
			"max" : [ 461 ]
		}
	],
	"bufferViews" : [
		{
			"buffer" : 0,
			"byteOffset" : 0,
			"byteLength" : 5544,
			"target" : 34962
		},
		{
			"buffer" : 0,
			"byteOffset" : 5544,
			"byteLength" : 5544,
			"target" : 34962
		},
		{
			"buffer" : 0,
			"byteOffset" : 11088,
			"byteLength" : 5544,
			"target" : 34962
		},
		{
			"buffer" : 0,
			"byteOffset" : 16632,
			"byteLength" : 924,
			"target" : 34963
		}
	],
	"buffers" : [
		{
			"uri" : "B355621519401063C0.bin",
			"byteLength" : 17556
		}
	]
}
