{
	"asset" : {
		"generator" : "FME 2023.2.1.0",
		"version" : "2.0"
	},
	"materials" : [
		{
			"name" : "default_material",
			"pbrMetallicRoughness" : {
				"baseColorFactor" : [ 1, 1, 1, 1 ],
				"roughnessFactor" : 0.30000000000000004,
				"metallicFactor" : 0.5
			}
		}
	],
	"meshes" : [
		{
			"primitives" : [
				{
					"attributes" : {
						"NORMAL" : 1,
						"POSITION" : 0,
						"COLOR_0" : 2
					},
					"indices" : 3,
					"material" : 0,
					"mode" : 4
				}
			]
		}
	],
	"nodes" : [
		{
			"name" : "B355531738002063C0",
			"matrix" : [ 1, 0, 0, 0, 0, 0, -1, 0, 0, 1, 0, 0, 835553.375, -1.159500002861023, -817389.5, 1 ],
			"children" : [ 1 ]
		},
		{
			"mesh" : 0
		}
	],
	"scenes" : [
		{
			"nodes" : [ 0 ]
		}
	],
	"scene" : 0,
	"accessors" : [
		{
			"bufferView" : 0,
			"byteOffset" : 0,
			"componentType" : 5126,
			"count" : 97905,
			"type" : "VEC3",
			"min" : [ -52.69921875, -52.3427734375, 0 ],
			"max" : [ 52.74609375, 52.259765625, 22.04400062561035 ]
		},
		{
			"bufferView" : 1,
			"byteOffset" : 0,
			"componentType" : 5126,
			"count" : 97905,
			"type" : "VEC3",
			"min" : [ -1, -1, -1 ],
			"max" : [ 1, 0.9999915957450867, 1 ]
		},
		{
			"bufferView" : 2,
			"byteOffset" : 0,
			"componentType" : 5126,
			"count" : 97905,
			"type" : "VEC3"
		},
		{
			"bufferView" : 3,
			"byteOffset" : 0,
			"componentType" : 5125,
			"count" : 97905,
			"type" : "SCALAR",
			"min" : [ 0 ],
			"max" : [ 97904 ]
		}
	],
	"bufferViews" : [
		{
			"buffer" : 0,
			"byteOffset" : 0,
			"byteLength" : 1174860,
			"target" : 34962
		},
		{
			"buffer" : 0,
			"byteOffset" : 1174860,
			"byteLength" : 1174860,
			"target" : 34962
		},
		{
			"buffer" : 0,
			"byteOffset" : 2349720,
			"byteLength" : 1174860,
			"target" : 34962
		},
		{
			"buffer" : 0,
			"byteOffset" : 3524580,
			"byteLength" : 391620,
			"target" : 34963
		}
	],
	"buffers" : [
		{
			"uri" : "B355531738002063C0.bin",
			"byteLength" : 3916200
		}
	]
}
