{
	"asset" : {
		"generator" : "FME 2023.2.1.0",
		"version" : "2.0"
	},
	"materials" : [
		{
			"name" : "default_material",
			"pbrMetallicRoughness" : {
				"baseColorFactor" : [ 1, 1, 1, 1 ],
				"roughnessFactor" : 0.30000000000000004,
				"metallicFactor" : 0.5
			}
		}
	],
	"meshes" : [
		{
			"primitives" : [
				{
					"attributes" : {
						"NORMAL" : 1,
						"POSITION" : 0,
						"COLOR_0" : 2
					},
					"indices" : 3,
					"material" : 0,
					"mode" : 4
				}
			]
		}
	],
	"nodes" : [
		{
			"name" : "B170211476301062G0",
			"matrix" : [ 1, 0, 0, 0, 0, 0, -1, 0, 0, 1, 0, 0, 817020.5625, 20.01959991455078, -814763.3125, 1 ],
			"children" : [ 1 ]
		},
		{
			"mesh" : 0
		}
	],
	"scenes" : [
		{
			"nodes" : [ 0 ]
		}
	],
	"scene" : 0,
	"accessors" : [
		{
			"bufferView" : 0,
			"byteOffset" : 0,
			"componentType" : 5126,
			"count" : 264,
			"type" : "VEC3",
			"min" : [ -5.75, -5.4375, 0 ],
			"max" : [ 5.75, 5.4375, 11.901899337768555 ]
		},
		{
			"bufferView" : 1,
			"byteOffset" : 0,
			"componentType" : 5126,
			"count" : 264,
			"type" : "VEC3",
			"min" : [ -0.7620834112167358, -0.7619501948356628, -0.9991399645805359 ],
			"max" : [ 0.7620834112167358, 0.7619513869285583, 1 ]
		},
		{
			"bufferView" : 2,
			"byteOffset" : 0,
			"componentType" : 5126,
			"count" : 264,
			"type" : "VEC3"
		},
		{
			"bufferView" : 3,
			"byteOffset" : 0,
			"componentType" : 5123,
			"count" : 264,
			"type" : "SCALAR",
			"min" : [ 0 ],
			"max" : [ 263 ]
		}
	],
	"bufferViews" : [
		{
			"buffer" : 0,
			"byteOffset" : 0,
			"byteLength" : 3168,
			"target" : 34962
		},
		{
			"buffer" : 0,
			"byteOffset" : 3168,
			"byteLength" : 3168,
			"target" : 34962
		},
		{
			"buffer" : 0,
			"byteOffset" : 6336,
			"byteLength" : 3168,
			"target" : 34962
		},
		{
			"buffer" : 0,
			"byteOffset" : 9504,
			"byteLength" : 528,
			"target" : 34963
		}
	],
	"buffers" : [
		{
			"uri" : "B170211476301062G0.bin",
			"byteLength" : 10032
		}
	]
}
