{
	"asset" : {
		"generator" : "FME 2023.2.1.0",
		"version" : "2.0"
	},
	"materials" : [
		{
			"name" : "default_material",
			"pbrMetallicRoughness" : {
				"baseColorFactor" : [ 1, 1, 1, 1 ],
				"roughnessFactor" : 0.30000000000000004,
				"metallicFactor" : 0.5
			}
		}
	],
	"meshes" : [
		{
			"primitives" : [
				{
					"attributes" : {
						"NORMAL" : 1,
						"POSITION" : 0,
						"COLOR_0" : 2
					},
					"indices" : 3,
					"material" : 0,
					"mode" : 4
				}
			]
		}
	],
	"nodes" : [
		{
			"name" : "B334671596801063C0",
			"matrix" : [ 1, 0, 0, 0, 0, 0, -1, 0, 0, 1, 0, 0, 833466.875, 73.59200286865234, -815968.625, 1 ],
			"children" : [ 1 ]
		},
		{
			"mesh" : 0
		}
	],
	"scenes" : [
		{
			"nodes" : [ 0 ]
		}
	],
	"scene" : 0,
	"accessors" : [
		{
			"bufferView" : 0,
			"byteOffset" : 0,
			"componentType" : 5126,
			"count" : 66,
			"type" : "VEC3",
			"min" : [ -3.8916015625, -3.0869140625, 0 ],
			"max" : [ 3.8916015625, 3.087890625, 12.541000366210938 ]
		},
		{
			"bufferView" : 1,
			"byteOffset" : 0,
			"componentType" : 5126,
			"count" : 66,
			"type" : "VEC3",
			"min" : [ -0.9788349866867065, -0.9959229826927185, 0 ],
			"max" : [ 0.9966108202934265, 0.9967814087867737, 1 ]
		},
		{
			"bufferView" : 2,
			"byteOffset" : 0,
			"componentType" : 5126,
			"count" : 66,
			"type" : "VEC3"
		},
		{
			"bufferView" : 3,
			"byteOffset" : 0,
			"componentType" : 5121,
			"count" : 66,
			"type" : "SCALAR",
			"min" : [ 0 ],
			"max" : [ 65 ]
		}
	],
	"bufferViews" : [
		{
			"buffer" : 0,
			"byteOffset" : 0,
			"byteLength" : 792,
			"target" : 34962
		},
		{
			"buffer" : 0,
			"byteOffset" : 792,
			"byteLength" : 792,
			"target" : 34962
		},
		{
			"buffer" : 0,
			"byteOffset" : 1584,
			"byteLength" : 792,
			"target" : 34962
		},
		{
			"buffer" : 0,
			"byteOffset" : 2376,
			"byteLength" : 66,
			"target" : 34963
		}
	],
	"buffers" : [
		{
			"uri" : "B334671596801063C0.bin",
			"byteLength" : 2442
		}
	]
}
