{"asset":{"generator":"FME 2023.2.1.0","version":"2.0"},"materials":[{"name":"T34500156000106E11","pbrMetallicRoughness":{"roughnessFactor":0.984375,"metallicFactor":0.5}}],"meshes":[{"primitives":[{"attributes":{"NORMAL":1,"POSITION":0,"TEXCOORD_0":2},"indices":3,"material":0,"mode":4}]}],"nodes":[{"name":"T34500156000106E11","matrix":[0.0254,0,0,0,0,0,-0.0254,0,0,0.0254,0,0,834874.9876,-0.3569946338653564,-815900.0192,1],"children":[1]},{"mesh":0}],"scenes":[{"nodes":[0]}],"scene":0,"accessors":[{"bufferView":0,"byteOffset":0,"componentType":5126,"count":293745,"type":"VEC3","min":[-14783.46484375,-11831.5546875,0],"max":[14783.46484375,11830.708984375,835.8936767578125]},{"bufferView":1,"byteOffset":0,"componentType":5126,"count":293745,"type":"VEC3","min":[-0.9999829530715942,-1,-1],"max":[0.9998809099197388,0.9999977946281433,1]},{"bufferView":2,"byteOffset":0,"componentType":5126,"count":293745,"type":"VEC2","min":[2.9802322387695312e-08,0],"max":[1,1]},{"bufferView":3,"byteOffset":0,"componentType":5125,"count":293745,"type":"SCALAR","min":[0],"max":[293744]}],"bufferViews":[{"buffer":0,"byteOffset":0,"byteLength":3524940,"target":34962},{"buffer":0,"byteOffset":3524940,"byteLength":3524940,"target":34962},{"buffer":0,"byteOffset":7049880,"byteLength":2349960,"target":34962},{"buffer":0,"byteOffset":9399840,"byteLength":1174980,"target":34963}],"buffers":[{"uri":"T34500156000106E11.bin","byteLength":10574820}]}