{
	"asset" : {
		"generator" : "FME 2023.2.1.0",
		"version" : "2.0"
	},
	"materials" : [
		{
			"name" : "default_material",
			"pbrMetallicRoughness" : {
				"baseColorFactor" : [ 1, 1, 1, 1 ],
				"roughnessFactor" : 0.30000000000000004,
				"metallicFactor" : 0.5
			}
		}
	],
	"meshes" : [
		{
			"primitives" : [
				{
					"attributes" : {
						"NORMAL" : 1,
						"POSITION" : 0,
						"COLOR_0" : 2
					},
					"indices" : 3,
					"material" : 0,
					"mode" : 4
				}
			]
		}
	],
	"nodes" : [
		{
			"name" : "B339871626101063C0",
			"matrix" : [ 1, 0, 0, 0, 0, 0, -1, 0, 0, 1, 0, 0, 833985.9375, 2.143998146057129, -816252.6875, 1 ],
			"children" : [ 1 ]
		},
		{
			"mesh" : 0
		}
	],
	"scenes" : [
		{
			"nodes" : [ 0 ]
		}
	],
	"scene" : 0,
	"accessors" : [
		{
			"bufferView" : 0,
			"byteOffset" : 0,
			"componentType" : 5126,
			"count" : 918,
			"type" : "VEC3",
			"min" : [ -12.224609375, -14.6533203125, 0 ],
			"max" : [ 12.2255859375, 14.65234375, 52.67500305175781 ]
		},
		{
			"bufferView" : 1,
			"byteOffset" : 0,
			"componentType" : 5126,
			"count" : 918,
			"type" : "VEC3",
			"min" : [ -0.8603324294090271, -0.8628481030464172, -1 ],
			"max" : [ 0.8607025146484375, 0.861089825630188, 1 ]
		},
		{
			"bufferView" : 2,
			"byteOffset" : 0,
			"componentType" : 5126,
			"count" : 918,
			"type" : "VEC3"
		},
		{
			"bufferView" : 3,
			"byteOffset" : 0,
			"componentType" : 5123,
			"count" : 918,
			"type" : "SCALAR",
			"min" : [ 0 ],
			"max" : [ 917 ]
		}
	],
	"bufferViews" : [
		{
			"buffer" : 0,
			"byteOffset" : 0,
			"byteLength" : 11016,
			"target" : 34962
		},
		{
			"buffer" : 0,
			"byteOffset" : 11016,
			"byteLength" : 11016,
			"target" : 34962
		},
		{
			"buffer" : 0,
			"byteOffset" : 22032,
			"byteLength" : 11016,
			"target" : 34962
		},
		{
			"buffer" : 0,
			"byteOffset" : 33048,
			"byteLength" : 1836,
			"target" : 34963
		}
	],
	"buffers" : [
		{
			"uri" : "B339871626101063C0.bin",
			"byteLength" : 34884
		}
	]
}
