{
	"asset" : {
		"generator" : "FME 2022.2.4.0",
		"version" : "2.0"
	},
	"materials" : [
		{
			"name" : "default_material",
			"pbrMetallicRoughness" : {
				"baseColorFactor" : [ 1, 1, 1, 1 ],
				"roughnessFactor" : 0.30000000000000004,
				"metallicFactor" : 0.5
			}
		}
	],
	"meshes" : [
		{
			"primitives" : [
				{
					"attributes" : {
						"NORMAL" : 1,
						"POSITION" : 0,
						"COLOR_0" : 2
					},
					"indices" : 3,
					"material" : 0,
					"mode" : 4
				}
			]
		}
	],
	"nodes" : [
		{
			"name" : "B170581479201062G0",
			"matrix" : [ 1, 0, 0, 0, 0, 0, -1, 0, 0, 1, 0, 0, 817058.4375, 21.259000778198242, -814791.1875, 1 ],
			"children" : [ 1 ]
		},
		{
			"mesh" : 0
		}
	],
	"scenes" : [
		{
			"nodes" : [ 0 ]
		}
	],
	"scene" : 0,
	"accessors" : [
		{
			"bufferView" : 0,
			"byteOffset" : 0,
			"componentType" : 5126,
			"count" : 363,
			"type" : "VEC3",
			"min" : [ -4.8125, -5.9375, 0 ],
			"max" : [ 4.8125, 5.9375, 9.659500122070312 ]
		},
		{
			"bufferView" : 1,
			"byteOffset" : 0,
			"componentType" : 5126,
			"count" : 363,
			"type" : "VEC3",
			"min" : [ -0.8716135621070862, -0.8716099262237549, -1 ],
			"max" : [ 0.8722895383834839, 0.8716124892234802, 1 ]
		},
		{
			"bufferView" : 2,
			"byteOffset" : 0,
			"componentType" : 5126,
			"count" : 363,
			"type" : "VEC3"
		},
		{
			"bufferView" : 3,
			"byteOffset" : 0,
			"componentType" : 5123,
			"count" : 363,
			"type" : "SCALAR",
			"min" : [ 0 ],
			"max" : [ 362 ]
		}
	],
	"bufferViews" : [
		{
			"buffer" : 0,
			"byteOffset" : 0,
			"byteLength" : 4356,
			"target" : 34962
		},
		{
			"buffer" : 0,
			"byteOffset" : 4356,
			"byteLength" : 4356,
			"target" : 34962
		},
		{
			"buffer" : 0,
			"byteOffset" : 8712,
			"byteLength" : 4356,
			"target" : 34962
		},
		{
			"buffer" : 0,
			"byteOffset" : 13068,
			"byteLength" : 726,
			"target" : 34963
		}
	],
	"buffers" : [
		{
			"uri" : "B170581479201062G0.bin",
			"byteLength" : 13794
		}
	]
}
