{
	"asset" : {
		"generator" : "FME 2023.2.1.0",
		"version" : "2.0"
	},
	"materials" : [
		{
			"name" : "default_material",
			"pbrMetallicRoughness" : {
				"baseColorFactor" : [ 1, 1, 1, 1 ],
				"roughnessFactor" : 0.30000000000000004,
				"metallicFactor" : 0.5
			}
		}
	],
	"meshes" : [
		{
			"primitives" : [
				{
					"attributes" : {
						"NORMAL" : 1,
						"POSITION" : 0,
						"COLOR_0" : 2
					},
					"indices" : 3,
					"material" : 0,
					"mode" : 4
				}
			]
		}
	],
	"nodes" : [
		{
			"name" : "B333441629401063C0",
			"matrix" : [ 1, 0, 0, 0, 0, 0, -1, 0, 0, 1, 0, 0, 833340.0625, 11.842000007629395, -816298.75, 1 ],
			"children" : [ 1 ]
		},
		{
			"mesh" : 0
		}
	],
	"scenes" : [
		{
			"nodes" : [ 0 ]
		}
	],
	"scene" : 0,
	"accessors" : [
		{
			"bufferView" : 0,
			"byteOffset" : 0,
			"componentType" : 5126,
			"count" : 360,
			"type" : "VEC3",
			"min" : [ -7.1787109375, -6.98046875, 0 ],
			"max" : [ 7.1767578125, 6.931640625, 19.365001678466797 ]
		},
		{
			"bufferView" : 1,
			"byteOffset" : 0,
			"componentType" : 5126,
			"count" : 360,
			"type" : "VEC3",
			"min" : [ -0.7571343779563904, -0.7571388483047485, -1 ],
			"max" : [ 0.7544189691543579, 0.757138729095459, 1 ]
		},
		{
			"bufferView" : 2,
			"byteOffset" : 0,
			"componentType" : 5126,
			"count" : 360,
			"type" : "VEC3"
		},
		{
			"bufferView" : 3,
			"byteOffset" : 0,
			"componentType" : 5123,
			"count" : 360,
			"type" : "SCALAR",
			"min" : [ 0 ],
			"max" : [ 359 ]
		}
	],
	"bufferViews" : [
		{
			"buffer" : 0,
			"byteOffset" : 0,
			"byteLength" : 4320,
			"target" : 34962
		},
		{
			"buffer" : 0,
			"byteOffset" : 4320,
			"byteLength" : 4320,
			"target" : 34962
		},
		{
			"buffer" : 0,
			"byteOffset" : 8640,
			"byteLength" : 4320,
			"target" : 34962
		},
		{
			"buffer" : 0,
			"byteOffset" : 12960,
			"byteLength" : 720,
			"target" : 34963
		}
	],
	"buffers" : [
		{
			"uri" : "B333441629401063C0.bin",
			"byteLength" : 13680
		}
	]
}
