{
	"asset" : {
		"generator" : "FME 2022.2.4.0",
		"version" : "2.0"
	},
	"materials" : [
		{
			"name" : "default_material",
			"pbrMetallicRoughness" : {
				"baseColorFactor" : [ 1, 1, 1, 1 ],
				"roughnessFactor" : 0.30000000000000004,
				"metallicFactor" : 0.5
			}
		}
	],
	"meshes" : [
		{
			"primitives" : [
				{
					"attributes" : {
						"NORMAL" : 1,
						"POSITION" : 0,
						"COLOR_0" : 2
					},
					"indices" : 3,
					"material" : 0,
					"mode" : 4
				}
			]
		}
	],
	"nodes" : [
		{
			"name" : "B333801577102063C0",
			"matrix" : [ 1, 0, 0, 0, 0, 0, -1, 0, 0, 1, 0, 0, 833380.1875, 133.08700561523438, -815771.5, 1 ],
			"children" : [ 1 ]
		},
		{
			"mesh" : 0
		}
	],
	"scenes" : [
		{
			"nodes" : [ 0 ]
		}
	],
	"scene" : 0,
	"accessors" : [
		{
			"bufferView" : 0,
			"byteOffset" : 0,
			"componentType" : 5126,
			"count" : 2748,
			"type" : "VEC3",
			"min" : [ -34.0537109375, -30.9091796875, 0 ],
			"max" : [ 34.0537109375, 30.908203125, 22.636001586914062 ]
		},
		{
			"bufferView" : 1,
			"byteOffset" : 0,
			"componentType" : 5126,
			"count" : 2748,
			"type" : "VEC3",
			"min" : [ -0.999677300453186, -0.9978377223014832, -1 ],
			"max" : [ 0.9986243844032288, 0.9999611377716064, 1 ]
		},
		{
			"bufferView" : 2,
			"byteOffset" : 0,
			"componentType" : 5126,
			"count" : 2748,
			"type" : "VEC3"
		},
		{
			"bufferView" : 3,
			"byteOffset" : 0,
			"componentType" : 5123,
			"count" : 2748,
			"type" : "SCALAR",
			"min" : [ 0 ],
			"max" : [ 2747 ]
		}
	],
	"bufferViews" : [
		{
			"buffer" : 0,
			"byteOffset" : 0,
			"byteLength" : 32976,
			"target" : 34962
		},
		{
			"buffer" : 0,
			"byteOffset" : 32976,
			"byteLength" : 32976,
			"target" : 34962
		},
		{
			"buffer" : 0,
			"byteOffset" : 65952,
			"byteLength" : 32976,
			"target" : 34962
		},
		{
			"buffer" : 0,
			"byteOffset" : 98928,
			"byteLength" : 5496,
			"target" : 34963
		}
	],
	"buffers" : [
		{
			"uri" : "B333801577102063C0.bin",
			"byteLength" : 104424
		}
	]
}
