{
	"asset" : {
		"generator" : "FME 2022.2.4.0",
		"version" : "2.0"
	},
	"materials" : [
		{
			"name" : "default_material",
			"pbrMetallicRoughness" : {
				"baseColorFactor" : [ 1, 1, 1, 1 ],
				"roughnessFactor" : 0.30000000000000004,
				"metallicFactor" : 0.5
			}
		}
	],
	"meshes" : [
		{
			"primitives" : [
				{
					"attributes" : {
						"NORMAL" : 1,
						"POSITION" : 0,
						"COLOR_0" : 2
					},
					"indices" : 3,
					"material" : 0,
					"mode" : 4
				}
			]
		}
	],
	"nodes" : [
		{
			"name" : "B335361568502063C0",
			"matrix" : [ 1, 0, 0, 0, 0, 0, -1, 0, 0, 1, 0, 0, 833533.0625, 127.5979995727539, -815685.125, 1 ],
			"children" : [ 1 ]
		},
		{
			"mesh" : 0
		}
	],
	"scenes" : [
		{
			"nodes" : [ 0 ]
		}
	],
	"scene" : 0,
	"accessors" : [
		{
			"bufferView" : 0,
			"byteOffset" : 0,
			"componentType" : 5126,
			"count" : 669,
			"type" : "VEC3",
			"min" : [ -10.7802734375, -8.19140625, 0 ],
			"max" : [ 10.779296875, 8.19140625, 16.366004943847656 ]
		},
		{
			"bufferView" : 1,
			"byteOffset" : 0,
			"componentType" : 5126,
			"count" : 669,
			"type" : "VEC3",
			"min" : [ -0.9979893565177917, -0.9991595149040222, -5.8916335547110066e-5 ],
			"max" : [ 0.9982980489730835, 0.9982150793075562, 1 ]
		},
		{
			"bufferView" : 2,
			"byteOffset" : 0,
			"componentType" : 5126,
			"count" : 669,
			"type" : "VEC3"
		},
		{
			"bufferView" : 3,
			"byteOffset" : 0,
			"componentType" : 5123,
			"count" : 669,
			"type" : "SCALAR",
			"min" : [ 0 ],
			"max" : [ 668 ]
		}
	],
	"bufferViews" : [
		{
			"buffer" : 0,
			"byteOffset" : 0,
			"byteLength" : 8028,
			"target" : 34962
		},
		{
			"buffer" : 0,
			"byteOffset" : 8028,
			"byteLength" : 8028,
			"target" : 34962
		},
		{
			"buffer" : 0,
			"byteOffset" : 16056,
			"byteLength" : 8028,
			"target" : 34962
		},
		{
			"buffer" : 0,
			"byteOffset" : 24084,
			"byteLength" : 1338,
			"target" : 34963
		}
	],
	"buffers" : [
		{
			"uri" : "B335361568502063C0.bin",
			"byteLength" : 25422
		}
	]
}
