{
	"asset" : {
		"generator" : "FME 2023.1.0.0",
		"version" : "2.0"
	},
	"materials" : [
		{
			"name" : "default_material",
			"pbrMetallicRoughness" : {
				"baseColorFactor" : [ 1, 1, 1, 1 ],
				"roughnessFactor" : 0.30000000000000004,
				"metallicFactor" : 0.5
			}
		}
	],
	"meshes" : [
		{
			"primitives" : [
				{
					"attributes" : {
						"NORMAL" : 1,
						"POSITION" : 0,
						"COLOR_0" : 2
					},
					"indices" : 3,
					"material" : 0,
					"mode" : 4
				}
			]
		}
	],
	"nodes" : [
		{
			"name" : "B338221636201063C0",
			"matrix" : [ 1, 0, 0, 0, 0, 0, -1, 0, 0, 1, 0, 0, 833821.5625, 3.433000087738037, -816358.5625, 1 ],
			"children" : [ 1 ]
		},
		{
			"mesh" : 0
		}
	],
	"scenes" : [
		{
			"nodes" : [ 0 ]
		}
	],
	"scene" : 0,
	"accessors" : [
		{
			"bufferView" : 0,
			"byteOffset" : 0,
			"componentType" : 5126,
			"count" : 663,
			"type" : "VEC3",
			"min" : [ -8.2626953125, -9.1796875, 0 ],
			"max" : [ 8.2626953125, 9.1796875, 73.64500427246094 ]
		},
		{
			"bufferView" : 1,
			"byteOffset" : 0,
			"componentType" : 5126,
			"count" : 663,
			"type" : "VEC3",
			"min" : [ -0.9691346883773804, -0.9690536856651306, -1 ],
			"max" : [ 0.9688804149627686, 0.9690912961959839, 1 ]
		},
		{
			"bufferView" : 2,
			"byteOffset" : 0,
			"componentType" : 5126,
			"count" : 663,
			"type" : "VEC3"
		},
		{
			"bufferView" : 3,
			"byteOffset" : 0,
			"componentType" : 5123,
			"count" : 663,
			"type" : "SCALAR",
			"min" : [ 0 ],
			"max" : [ 662 ]
		}
	],
	"bufferViews" : [
		{
			"buffer" : 0,
			"byteOffset" : 0,
			"byteLength" : 7956,
			"target" : 34962
		},
		{
			"buffer" : 0,
			"byteOffset" : 7956,
			"byteLength" : 7956,
			"target" : 34962
		},
		{
			"buffer" : 0,
			"byteOffset" : 15912,
			"byteLength" : 7956,
			"target" : 34962
		},
		{
			"buffer" : 0,
			"byteOffset" : 23868,
			"byteLength" : 1326,
			"target" : 34963
		}
	],
	"buffers" : [
		{
			"uri" : "B338221636201063C0.bin",
			"byteLength" : 25194
		}
	]
}
