{
	"asset" : {
		"generator" : "FME 2023.1.0.0",
		"version" : "2.0"
	},
	"materials" : [
		{
			"name" : "default_material",
			"pbrMetallicRoughness" : {
				"baseColorFactor" : [ 1, 1, 1, 1 ],
				"roughnessFactor" : 0.30000000000000004,
				"metallicFactor" : 0.5
			}
		}
	],
	"meshes" : [
		{
			"primitives" : [
				{
					"attributes" : {
						"NORMAL" : 1,
						"POSITION" : 0,
						"COLOR_0" : 2
					},
					"indices" : 3,
					"material" : 0,
					"mode" : 4
				}
			]
		}
	],
	"nodes" : [
		{
			"name" : "B332021658801063C0",
			"matrix" : [ 1, 0, 0, 0, 0, 0, -1, 0, 0, 1, 0, 0, 833201.4375, 3.5799999237060547, -816584.375, 1 ],
			"children" : [ 1 ]
		},
		{
			"mesh" : 0
		}
	],
	"scenes" : [
		{
			"nodes" : [ 0 ]
		}
	],
	"scene" : 0,
	"accessors" : [
		{
			"bufferView" : 0,
			"byteOffset" : 0,
			"componentType" : 5126,
			"count" : 2340,
			"type" : "VEC3",
			"min" : [ -7.0634765625, -8.337890625, 0 ],
			"max" : [ 7.064453125, 8.337890625, 68.90699768066406 ]
		},
		{
			"bufferView" : 1,
			"byteOffset" : 0,
			"componentType" : 5126,
			"count" : 2340,
			"type" : "VEC3",
			"min" : [ -0.996130645275116, -0.9957106709480286, -1 ],
			"max" : [ 0.9964624643325806, 0.9983713626861572, 1 ]
		},
		{
			"bufferView" : 2,
			"byteOffset" : 0,
			"componentType" : 5126,
			"count" : 2340,
			"type" : "VEC3"
		},
		{
			"bufferView" : 3,
			"byteOffset" : 0,
			"componentType" : 5123,
			"count" : 2340,
			"type" : "SCALAR",
			"min" : [ 0 ],
			"max" : [ 2339 ]
		}
	],
	"bufferViews" : [
		{
			"buffer" : 0,
			"byteOffset" : 0,
			"byteLength" : 28080,
			"target" : 34962
		},
		{
			"buffer" : 0,
			"byteOffset" : 28080,
			"byteLength" : 28080,
			"target" : 34962
		},
		{
			"buffer" : 0,
			"byteOffset" : 56160,
			"byteLength" : 28080,
			"target" : 34962
		},
		{
			"buffer" : 0,
			"byteOffset" : 84240,
			"byteLength" : 4680,
			"target" : 34963
		}
	],
	"buffers" : [
		{
			"uri" : "B332021658801063C0.bin",
			"byteLength" : 88920
		}
	]
}
