{
	"asset" : {
		"generator" : "FME 2023.2.1.0",
		"version" : "2.0"
	},
	"materials" : [
		{
			"name" : "default_material",
			"pbrMetallicRoughness" : {
				"baseColorFactor" : [ 1, 1, 1, 1 ],
				"roughnessFactor" : 0.30000000000000004,
				"metallicFactor" : 0.5
			}
		}
	],
	"meshes" : [
		{
			"primitives" : [
				{
					"attributes" : {
						"NORMAL" : 1,
						"POSITION" : 0,
						"COLOR_0" : 2
					},
					"indices" : 3,
					"material" : 0,
					"mode" : 4
				}
			]
		}
	],
	"nodes" : [
		{
			"name" : "B335551610802063C0",
			"matrix" : [ 1, 0, 0, 0, 0, 0, -1, 0, 0, 1, 0, 0, 833554.8125, 25.625, -816108.625, 1 ],
			"children" : [ 1 ]
		},
		{
			"mesh" : 0
		}
	],
	"scenes" : [
		{
			"nodes" : [ 0 ]
		}
	],
	"scene" : 0,
	"accessors" : [
		{
			"bufferView" : 0,
			"byteOffset" : 0,
			"componentType" : 5126,
			"count" : 573,
			"type" : "VEC3",
			"min" : [ -7.19921875, -9.7587890625, 0 ],
			"max" : [ 7.19921875, 9.7587890625, 10.584999084472656 ]
		},
		{
			"bufferView" : 1,
			"byteOffset" : 0,
			"componentType" : 5126,
			"count" : 573,
			"type" : "VEC3",
			"min" : [ -0.9574689865112305, -0.9642375111579895, -0.00329531729221344 ],
			"max" : [ 1, 0.9642136096954346, 1 ]
		},
		{
			"bufferView" : 2,
			"byteOffset" : 0,
			"componentType" : 5126,
			"count" : 573,
			"type" : "VEC3"
		},
		{
			"bufferView" : 3,
			"byteOffset" : 0,
			"componentType" : 5123,
			"count" : 573,
			"type" : "SCALAR",
			"min" : [ 0 ],
			"max" : [ 572 ]
		}
	],
	"bufferViews" : [
		{
			"buffer" : 0,
			"byteOffset" : 0,
			"byteLength" : 6876,
			"target" : 34962
		},
		{
			"buffer" : 0,
			"byteOffset" : 6876,
			"byteLength" : 6876,
			"target" : 34962
		},
		{
			"buffer" : 0,
			"byteOffset" : 13752,
			"byteLength" : 6876,
			"target" : 34962
		},
		{
			"buffer" : 0,
			"byteOffset" : 20628,
			"byteLength" : 1146,
			"target" : 34963
		}
	],
	"buffers" : [
		{
			"uri" : "B335551610802063C0.bin",
			"byteLength" : 21774
		}
	]
}
