{
	"asset" : {
		"generator" : "FME 2022.2.4.0",
		"version" : "2.0"
	},
	"materials" : [
		{
			"name" : "default_material",
			"pbrMetallicRoughness" : {
				"baseColorFactor" : [ 1, 1, 1, 1 ],
				"roughnessFactor" : 0.30000000000000004,
				"metallicFactor" : 0.5
			}
		}
	],
	"meshes" : [
		{
			"primitives" : [
				{
					"attributes" : {
						"NORMAL" : 1,
						"POSITION" : 0,
						"COLOR_0" : 2
					},
					"indices" : 3,
					"material" : 0,
					"mode" : 4
				}
			]
		}
	],
	"nodes" : [
		{
			"name" : "B335551559401063C0",
			"matrix" : [ 1, 0, 0, 0, 0, 0, -1, 0, 0, 1, 0, 0, 833555.0625, 139.53302001953125, -815594.125, 1 ],
			"children" : [ 1 ]
		},
		{
			"mesh" : 0
		}
	],
	"scenes" : [
		{
			"nodes" : [ 0 ]
		}
	],
	"scene" : 0,
	"accessors" : [
		{
			"bufferView" : 0,
			"byteOffset" : 0,
			"componentType" : 5126,
			"count" : 2952,
			"type" : "VEC3",
			"min" : [ -10.9296875, -7.9130859375, 0 ],
			"max" : [ 10.9287109375, 7.9140625, 70.98399353027344 ]
		},
		{
			"bufferView" : 1,
			"byteOffset" : 0,
			"componentType" : 5126,
			"count" : 2952,
			"type" : "VEC3",
			"min" : [ -0.8846904039382935, -0.998434841632843, -1 ],
			"max" : [ 0.8819689750671387, 0.999995231628418, 1 ]
		},
		{
			"bufferView" : 2,
			"byteOffset" : 0,
			"componentType" : 5126,
			"count" : 2952,
			"type" : "VEC3"
		},
		{
			"bufferView" : 3,
			"byteOffset" : 0,
			"componentType" : 5123,
			"count" : 2952,
			"type" : "SCALAR",
			"min" : [ 0 ],
			"max" : [ 2951 ]
		}
	],
	"bufferViews" : [
		{
			"buffer" : 0,
			"byteOffset" : 0,
			"byteLength" : 35424,
			"target" : 34962
		},
		{
			"buffer" : 0,
			"byteOffset" : 35424,
			"byteLength" : 35424,
			"target" : 34962
		},
		{
			"buffer" : 0,
			"byteOffset" : 70848,
			"byteLength" : 35424,
			"target" : 34962
		},
		{
			"buffer" : 0,
			"byteOffset" : 106272,
			"byteLength" : 5904,
			"target" : 34963
		}
	],
	"buffers" : [
		{
			"uri" : "B335551559401063C0.bin",
			"byteLength" : 112176
		}
	]
}
