{
	"asset" : {
		"generator" : "FME 2022.2.4.0",
		"version" : "2.0"
	},
	"materials" : [
		{
			"name" : "default_material",
			"pbrMetallicRoughness" : {
				"baseColorFactor" : [ 1, 1, 1, 1 ],
				"roughnessFactor" : 0.30000000000000004,
				"metallicFactor" : 0.5
			}
		}
	],
	"meshes" : [
		{
			"primitives" : [
				{
					"attributes" : {
						"NORMAL" : 1,
						"POSITION" : 0,
						"COLOR_0" : 2
					},
					"indices" : 3,
					"material" : 0,
					"mode" : 4
				}
			]
		}
	],
	"nodes" : [
		{
			"name" : "B185541360201063C0",
			"matrix" : [ 1, 0, 0, 0, 0, 0, -1, 0, 0, 1, 0, 0, 818554.125, 11.016300201416016, -813606.5625, 1 ],
			"children" : [ 1 ]
		},
		{
			"mesh" : 0
		}
	],
	"scenes" : [
		{
			"nodes" : [ 0 ]
		}
	],
	"scene" : 0,
	"accessors" : [
		{
			"bufferView" : 0,
			"byteOffset" : 0,
			"componentType" : 5126,
			"count" : 450,
			"type" : "VEC3",
			"min" : [ -21.25, -21.5, 0 ],
			"max" : [ 21.1875, 21.5, 9.360000610351562 ]
		},
		{
			"bufferView" : 1,
			"byteOffset" : 0,
			"componentType" : 5126,
			"count" : 450,
			"type" : "VEC3",
			"min" : [ -0.796383261680603, -0.7963923811912537, -1 ],
			"max" : [ 0.7963879704475403, 0.7963916063308716, 1 ]
		},
		{
			"bufferView" : 2,
			"byteOffset" : 0,
			"componentType" : 5126,
			"count" : 450,
			"type" : "VEC3"
		},
		{
			"bufferView" : 3,
			"byteOffset" : 0,
			"componentType" : 5123,
			"count" : 450,
			"type" : "SCALAR",
			"min" : [ 0 ],
			"max" : [ 449 ]
		}
	],
	"bufferViews" : [
		{
			"buffer" : 0,
			"byteOffset" : 0,
			"byteLength" : 5400,
			"target" : 34962
		},
		{
			"buffer" : 0,
			"byteOffset" : 5400,
			"byteLength" : 5400,
			"target" : 34962
		},
		{
			"buffer" : 0,
			"byteOffset" : 10800,
			"byteLength" : 5400,
			"target" : 34962
		},
		{
			"buffer" : 0,
			"byteOffset" : 16200,
			"byteLength" : 900,
			"target" : 34963
		}
	],
	"buffers" : [
		{
			"uri" : "B185541360201063C0.bin",
			"byteLength" : 17100
		}
	]
}
