{
	"asset" : {
		"generator" : "FME 2023.2.1.0",
		"version" : "2.0"
	},
	"materials" : [
		{
			"name" : "default_material",
			"pbrMetallicRoughness" : {
				"baseColorFactor" : [ 1, 1, 1, 1 ],
				"roughnessFactor" : 0.30000000000000004,
				"metallicFactor" : 0.5
			}
		}
	],
	"meshes" : [
		{
			"primitives" : [
				{
					"attributes" : {
						"NORMAL" : 1,
						"POSITION" : 0,
						"COLOR_0" : 2
					},
					"indices" : 3,
					"material" : 0,
					"mode" : 4
				}
			]
		}
	],
	"nodes" : [
		{
			"name" : "B334201579702063C0",
			"matrix" : [ 1, 0, 0, 0, 0, 0, -1, 0, 0, 1, 0, 0, 833420.8125, 122.89700317382812, -815797.625, 1 ],
			"children" : [ 1 ]
		},
		{
			"mesh" : 0
		}
	],
	"scenes" : [
		{
			"nodes" : [ 0 ]
		}
	],
	"scene" : 0,
	"accessors" : [
		{
			"bufferView" : 0,
			"byteOffset" : 0,
			"componentType" : 5126,
			"count" : 522,
			"type" : "VEC3",
			"min" : [ -15.4609375, -18.337890625, 0 ],
			"max" : [ 15.4609375, 18.337890625, 15.806991577148438 ]
		},
		{
			"bufferView" : 1,
			"byteOffset" : 0,
			"componentType" : 5126,
			"count" : 522,
			"type" : "VEC3",
			"min" : [ -0.8774335980415344, -0.878678023815155, -1 ],
			"max" : [ 0.8772757649421692, 0.8770962953567505, 1 ]
		},
		{
			"bufferView" : 2,
			"byteOffset" : 0,
			"componentType" : 5126,
			"count" : 522,
			"type" : "VEC3"
		},
		{
			"bufferView" : 3,
			"byteOffset" : 0,
			"componentType" : 5123,
			"count" : 522,
			"type" : "SCALAR",
			"min" : [ 0 ],
			"max" : [ 521 ]
		}
	],
	"bufferViews" : [
		{
			"buffer" : 0,
			"byteOffset" : 0,
			"byteLength" : 6264,
			"target" : 34962
		},
		{
			"buffer" : 0,
			"byteOffset" : 6264,
			"byteLength" : 6264,
			"target" : 34962
		},
		{
			"buffer" : 0,
			"byteOffset" : 12528,
			"byteLength" : 6264,
			"target" : 34962
		},
		{
			"buffer" : 0,
			"byteOffset" : 18792,
			"byteLength" : 1044,
			"target" : 34963
		}
	],
	"buffers" : [
		{
			"uri" : "B334201579702063C0.bin",
			"byteLength" : 19836
		}
	]
}
