{
	"asset" : {
		"generator" : "FME 2023.2.1.0",
		"version" : "2.0"
	},
	"materials" : [
		{
			"name" : "default_material",
			"pbrMetallicRoughness" : {
				"baseColorFactor" : [ 1, 1, 1, 1 ],
				"roughnessFactor" : 0.30000000000000004,
				"metallicFactor" : 0.5
			}
		}
	],
	"meshes" : [
		{
			"primitives" : [
				{
					"attributes" : {
						"NORMAL" : 1,
						"POSITION" : 0,
						"COLOR_0" : 2
					},
					"indices" : 3,
					"material" : 0,
					"mode" : 4
				}
			]
		}
	],
	"nodes" : [
		{
			"name" : "B334651572702063C0",
			"matrix" : [ 1, 0, 0, 0, 0, 0, -1, 0, 0, 1, 0, 0, 833464.8125, 129.41000366210938, -815729.875, 1 ],
			"children" : [ 1 ]
		},
		{
			"mesh" : 0
		}
	],
	"scenes" : [
		{
			"nodes" : [ 0 ]
		}
	],
	"scene" : 0,
	"accessors" : [
		{
			"bufferView" : 0,
			"byteOffset" : 0,
			"componentType" : 5126,
			"count" : 1614,
			"type" : "VEC3",
			"min" : [ -16.8837890625, -16.4150390625, 0 ],
			"max" : [ 16.884765625, 16.416015625, 30.20098876953125 ]
		},
		{
			"bufferView" : 1,
			"byteOffset" : 0,
			"componentType" : 5126,
			"count" : 1614,
			"type" : "VEC3",
			"min" : [ -0.9956902861595154, -0.9721809029579163, -1 ],
			"max" : [ 0.9643176198005676, 0.9708265662193298, 1 ]
		},
		{
			"bufferView" : 2,
			"byteOffset" : 0,
			"componentType" : 5126,
			"count" : 1614,
			"type" : "VEC3"
		},
		{
			"bufferView" : 3,
			"byteOffset" : 0,
			"componentType" : 5123,
			"count" : 1614,
			"type" : "SCALAR",
			"min" : [ 0 ],
			"max" : [ 1613 ]
		}
	],
	"bufferViews" : [
		{
			"buffer" : 0,
			"byteOffset" : 0,
			"byteLength" : 19368,
			"target" : 34962
		},
		{
			"buffer" : 0,
			"byteOffset" : 19368,
			"byteLength" : 19368,
			"target" : 34962
		},
		{
			"buffer" : 0,
			"byteOffset" : 38736,
			"byteLength" : 19368,
			"target" : 34962
		},
		{
			"buffer" : 0,
			"byteOffset" : 58104,
			"byteLength" : 3228,
			"target" : 34963
		}
	],
	"buffers" : [
		{
			"uri" : "B334651572702063C0.bin",
			"byteLength" : 61332
		}
	]
}
