{
	"asset" : {
		"generator" : "FME 2023.1.0.0",
		"version" : "2.0"
	},
	"materials" : [
		{
			"name" : "default_material",
			"pbrMetallicRoughness" : {
				"baseColorFactor" : [ 1, 1, 1, 1 ],
				"roughnessFactor" : 0.30000000000000004,
				"metallicFactor" : 0.5
			}
		}
	],
	"meshes" : [
		{
			"primitives" : [
				{
					"attributes" : {
						"NORMAL" : 1,
						"POSITION" : 0,
						"COLOR_0" : 2
					},
					"indices" : 3,
					"material" : 0,
					"mode" : 4
				}
			]
		}
	],
	"nodes" : [
		{
			"name" : "B342631572302063C0",
			"matrix" : [ 1, 0, 0, 0, 0, 0, -1, 0, 0, 1, 0, 0, 834264, 5.186999797821045, -815722.625, 1 ],
			"children" : [ 1 ]
		},
		{
			"mesh" : 0
		}
	],
	"scenes" : [
		{
			"nodes" : [ 0 ]
		}
	],
	"scene" : 0,
	"accessors" : [
		{
			"bufferView" : 0,
			"byteOffset" : 0,
			"componentType" : 5126,
			"count" : 1389,
			"type" : "VEC3",
			"min" : [ -21.126953125, -20.8193359375, 0 ],
			"max" : [ 21.16015625, 20.90625, 15.680000305175781 ]
		},
		{
			"bufferView" : 1,
			"byteOffset" : 0,
			"componentType" : 5126,
			"count" : 1389,
			"type" : "VEC3",
			"min" : [ -0.9328194856643677, -0.9999951124191284, -1 ],
			"max" : [ 0.9937254190444946, 0.9286324977874756, 1 ]
		},
		{
			"bufferView" : 2,
			"byteOffset" : 0,
			"componentType" : 5126,
			"count" : 1389,
			"type" : "VEC3"
		},
		{
			"bufferView" : 3,
			"byteOffset" : 0,
			"componentType" : 5123,
			"count" : 1389,
			"type" : "SCALAR",
			"min" : [ 0 ],
			"max" : [ 1388 ]
		}
	],
	"bufferViews" : [
		{
			"buffer" : 0,
			"byteOffset" : 0,
			"byteLength" : 16668,
			"target" : 34962
		},
		{
			"buffer" : 0,
			"byteOffset" : 16668,
			"byteLength" : 16668,
			"target" : 34962
		},
		{
			"buffer" : 0,
			"byteOffset" : 33336,
			"byteLength" : 16668,
			"target" : 34962
		},
		{
			"buffer" : 0,
			"byteOffset" : 50004,
			"byteLength" : 2778,
			"target" : 34963
		}
	],
	"buffers" : [
		{
			"uri" : "B342631572302063C0.bin",
			"byteLength" : 52782
		}
	]
}
