{
	"asset" : {
		"generator" : "FME 2023.1.0.0",
		"version" : "2.0"
	},
	"materials" : [
		{
			"name" : "default_material",
			"pbrMetallicRoughness" : {
				"baseColorFactor" : [ 1, 1, 1, 1 ],
				"roughnessFactor" : 0.30000000000000004,
				"metallicFactor" : 0.5
			}
		}
	],
	"meshes" : [
		{
			"primitives" : [
				{
					"attributes" : {
						"NORMAL" : 1,
						"POSITION" : 0,
						"COLOR_0" : 2
					},
					"indices" : 3,
					"material" : 0,
					"mode" : 4
				}
			]
		}
	],
	"nodes" : [
		{
			"name" : "B340991595401063C0",
			"matrix" : [ 1, 0, 0, 0, 0, 0, -1, 0, 0, 1, 0, 0, 834095.25, 6.413000106811523, -815944.375, 1 ],
			"children" : [ 1 ]
		},
		{
			"mesh" : 0
		}
	],
	"scenes" : [
		{
			"nodes" : [ 0 ]
		}
	],
	"scene" : 0,
	"accessors" : [
		{
			"bufferView" : 0,
			"byteOffset" : 0,
			"componentType" : 5126,
			"count" : 1611,
			"type" : "VEC3",
			"min" : [ -18.638671875, -15.458984375, 0 ],
			"max" : [ 18.603515625, 15.4921875, 40.95500183105469 ]
		},
		{
			"bufferView" : 1,
			"byteOffset" : 0,
			"componentType" : 5126,
			"count" : 1611,
			"type" : "VEC3",
			"min" : [ -0.8000000715255737, -0.7970921397209167, -1 ],
			"max" : [ 0.7978672981262207, 0.8086183071136475, 1 ]
		},
		{
			"bufferView" : 2,
			"byteOffset" : 0,
			"componentType" : 5126,
			"count" : 1611,
			"type" : "VEC3"
		},
		{
			"bufferView" : 3,
			"byteOffset" : 0,
			"componentType" : 5123,
			"count" : 1611,
			"type" : "SCALAR",
			"min" : [ 0 ],
			"max" : [ 1610 ]
		}
	],
	"bufferViews" : [
		{
			"buffer" : 0,
			"byteOffset" : 0,
			"byteLength" : 19332,
			"target" : 34962
		},
		{
			"buffer" : 0,
			"byteOffset" : 19332,
			"byteLength" : 19332,
			"target" : 34962
		},
		{
			"buffer" : 0,
			"byteOffset" : 38664,
			"byteLength" : 19332,
			"target" : 34962
		},
		{
			"buffer" : 0,
			"byteOffset" : 57996,
			"byteLength" : 3222,
			"target" : 34963
		}
	],
	"buffers" : [
		{
			"uri" : "B340991595401063C0.bin",
			"byteLength" : 61218
		}
	]
}
