{
	"asset" : {
		"generator" : "FME 2023.1.0.0",
		"version" : "2.0"
	},
	"materials" : [
		{
			"name" : "default_material",
			"pbrMetallicRoughness" : {
				"baseColorFactor" : [ 1, 1, 1, 1 ],
				"roughnessFactor" : 0.30000000000000004,
				"metallicFactor" : 0.5
			}
		}
	],
	"meshes" : [
		{
			"primitives" : [
				{
					"attributes" : {
						"NORMAL" : 1,
						"POSITION" : 0,
						"COLOR_0" : 2
					},
					"indices" : 3,
					"material" : 0,
					"mode" : 4
				}
			]
		}
	],
	"nodes" : [
		{
			"name" : "B337081571201063C0",
			"matrix" : [ 1, 0, 0, 0, 0, 0, -1, 0, 0, 1, 0, 0, 833708.5625, 85.2650146484375, -815712.875, 1 ],
			"children" : [ 1 ]
		},
		{
			"mesh" : 0
		}
	],
	"scenes" : [
		{
			"nodes" : [ 0 ]
		}
	],
	"scene" : 0,
	"accessors" : [
		{
			"bufferView" : 0,
			"byteOffset" : 0,
			"componentType" : 5126,
			"count" : 120,
			"type" : "VEC3",
			"min" : [ -5.4912109375, -4.5478515625, 0 ],
			"max" : [ 5.490234375, 4.548828125, 3.7150039672851562 ]
		},
		{
			"bufferView" : 1,
			"byteOffset" : 0,
			"componentType" : 5126,
			"count" : 120,
			"type" : "VEC3",
			"min" : [ -0.8782336711883545, -0.9976932406425476, 0 ],
			"max" : [ 0.8753358125686646, 0.8773414492607117, 0.967747688293457 ]
		},
		{
			"bufferView" : 2,
			"byteOffset" : 0,
			"componentType" : 5126,
			"count" : 120,
			"type" : "VEC3"
		},
		{
			"bufferView" : 3,
			"byteOffset" : 0,
			"componentType" : 5121,
			"count" : 120,
			"type" : "SCALAR",
			"min" : [ 0 ],
			"max" : [ 119 ]
		}
	],
	"bufferViews" : [
		{
			"buffer" : 0,
			"byteOffset" : 0,
			"byteLength" : 1440,
			"target" : 34962
		},
		{
			"buffer" : 0,
			"byteOffset" : 1440,
			"byteLength" : 1440,
			"target" : 34962
		},
		{
			"buffer" : 0,
			"byteOffset" : 2880,
			"byteLength" : 1440,
			"target" : 34962
		},
		{
			"buffer" : 0,
			"byteOffset" : 4320,
			"byteLength" : 120,
			"target" : 34963
		}
	],
	"buffers" : [
		{
			"uri" : "B337081571201063C0.bin",
			"byteLength" : 4440
		}
	]
}
