{
	"asset" : {
		"generator" : "FME 2022.2.4.0",
		"version" : "2.0"
	},
	"materials" : [
		{
			"name" : "default_material",
			"pbrMetallicRoughness" : {
				"baseColorFactor" : [ 1, 1, 1, 1 ],
				"roughnessFactor" : 0.30000000000000004,
				"metallicFactor" : 0.5
			}
		}
	],
	"meshes" : [
		{
			"primitives" : [
				{
					"attributes" : {
						"NORMAL" : 1,
						"POSITION" : 0,
						"COLOR_0" : 2
					},
					"indices" : 3,
					"material" : 0,
					"mode" : 4
				}
			]
		}
	],
	"nodes" : [
		{
			"name" : "B332951651401063C0",
			"matrix" : [ 1, 0, 0, 0, 0, 0, -1, 0, 0, 1, 0, 0, 833297.4375, 3.361995220184326, -816517.3125, 1 ],
			"children" : [ 1 ]
		},
		{
			"mesh" : 0
		}
	],
	"scenes" : [
		{
			"nodes" : [ 0 ]
		}
	],
	"scene" : 0,
	"accessors" : [
		{
			"bufferView" : 0,
			"byteOffset" : 0,
			"componentType" : 5126,
			"count" : 693,
			"type" : "VEC3",
			"min" : [ -7.64453125, -8.6025390625, 0 ],
			"max" : [ 7.6435546875, 8.603515625, 25.21099853515625 ]
		},
		{
			"bufferView" : 1,
			"byteOffset" : 0,
			"componentType" : 5126,
			"count" : 693,
			"type" : "VEC3",
			"min" : [ -0.9709143042564392, -0.7607671022415161, -1 ],
			"max" : [ 0.77021723985672, 0.7608397006988525, 1 ]
		},
		{
			"bufferView" : 2,
			"byteOffset" : 0,
			"componentType" : 5126,
			"count" : 693,
			"type" : "VEC3"
		},
		{
			"bufferView" : 3,
			"byteOffset" : 0,
			"componentType" : 5123,
			"count" : 693,
			"type" : "SCALAR",
			"min" : [ 0 ],
			"max" : [ 692 ]
		}
	],
	"bufferViews" : [
		{
			"buffer" : 0,
			"byteOffset" : 0,
			"byteLength" : 8316,
			"target" : 34962
		},
		{
			"buffer" : 0,
			"byteOffset" : 8316,
			"byteLength" : 8316,
			"target" : 34962
		},
		{
			"buffer" : 0,
			"byteOffset" : 16632,
			"byteLength" : 8316,
			"target" : 34962
		},
		{
			"buffer" : 0,
			"byteOffset" : 24948,
			"byteLength" : 1386,
			"target" : 34963
		}
	],
	"buffers" : [
		{
			"uri" : "B332951651401063C0.bin",
			"byteLength" : 26334
		}
	]
}
