{
	"asset" : {
		"generator" : "FME 2023.1.0.0",
		"version" : "2.0"
	},
	"materials" : [
		{
			"name" : "default_material",
			"pbrMetallicRoughness" : {
				"baseColorFactor" : [ 1, 1, 1, 1 ],
				"roughnessFactor" : 0.30000000000000004,
				"metallicFactor" : 0.5
			}
		}
	],
	"meshes" : [
		{
			"primitives" : [
				{
					"attributes" : {
						"NORMAL" : 1,
						"POSITION" : 0,
						"COLOR_0" : 2
					},
					"indices" : 3,
					"material" : 0,
					"mode" : 4
				}
			]
		}
	],
	"nodes" : [
		{
			"name" : "B181621352801062G0",
			"matrix" : [ 1, 0, 0, 0, 0, 0, -1, 0, 0, 1, 0, 0, 818160.8125, 77.85179901123047, -813528.25, 1 ],
			"children" : [ 1 ]
		},
		{
			"mesh" : 0
		}
	],
	"scenes" : [
		{
			"nodes" : [ 0 ]
		}
	],
	"scene" : 0,
	"accessors" : [
		{
			"bufferView" : 0,
			"byteOffset" : 0,
			"componentType" : 5126,
			"count" : 60,
			"type" : "VEC3",
			"min" : [ -2, -2.3125, 0 ],
			"max" : [ 2, 2.3125, 3.2384033203125 ]
		},
		{
			"bufferView" : 1,
			"byteOffset" : 0,
			"componentType" : 5126,
			"count" : 60,
			"type" : "VEC3",
			"min" : [ -0.9852559566497803, -0.9852348566055298, -0.9407147169113159 ],
			"max" : [ 0.9852549433708191, 0.9852547645568848, 0.9966318607330322 ]
		},
		{
			"bufferView" : 2,
			"byteOffset" : 0,
			"componentType" : 5126,
			"count" : 60,
			"type" : "VEC3"
		},
		{
			"bufferView" : 3,
			"byteOffset" : 0,
			"componentType" : 5121,
			"count" : 60,
			"type" : "SCALAR",
			"min" : [ 0 ],
			"max" : [ 59 ]
		}
	],
	"bufferViews" : [
		{
			"buffer" : 0,
			"byteOffset" : 0,
			"byteLength" : 720,
			"target" : 34962
		},
		{
			"buffer" : 0,
			"byteOffset" : 720,
			"byteLength" : 720,
			"target" : 34962
		},
		{
			"buffer" : 0,
			"byteOffset" : 1440,
			"byteLength" : 720,
			"target" : 34962
		},
		{
			"buffer" : 0,
			"byteOffset" : 2160,
			"byteLength" : 60,
			"target" : 34963
		}
	],
	"buffers" : [
		{
			"uri" : "B181621352801062G0.bin",
			"byteLength" : 2220
		}
	]
}
