{
	"asset" : {
		"generator" : "FME 2023.1.0.0",
		"version" : "2.0"
	},
	"materials" : [
		{
			"name" : "default_material",
			"pbrMetallicRoughness" : {
				"baseColorFactor" : [ 1, 1, 1, 1 ],
				"roughnessFactor" : 0.30000000000000004,
				"metallicFactor" : 0.5
			}
		}
	],
	"meshes" : [
		{
			"primitives" : [
				{
					"attributes" : {
						"NORMAL" : 1,
						"POSITION" : 0,
						"COLOR_0" : 2
					},
					"indices" : 3,
					"material" : 0,
					"mode" : 4
				}
			]
		}
	],
	"nodes" : [
		{
			"name" : "B333711518801063C0",
			"matrix" : [ 1, 0, 0, 0, 0, 0, -1, 0, 0, 1, 0, 0, 833376.125, 410.3160095214844, -815190.9375, 1 ],
			"children" : [ 1 ]
		},
		{
			"mesh" : 0
		}
	],
	"scenes" : [
		{
			"nodes" : [ 0 ]
		}
	],
	"scene" : 0,
	"accessors" : [
		{
			"bufferView" : 0,
			"byteOffset" : 0,
			"componentType" : 5126,
			"count" : 2640,
			"type" : "VEC3",
			"min" : [ -16.248046875, -11.8056640625, 0 ],
			"max" : [ 16.228515625, 11.8154296875, 10.733001708984375 ]
		},
		{
			"bufferView" : 1,
			"byteOffset" : 0,
			"componentType" : 5126,
			"count" : 2640,
			"type" : "VEC3",
			"min" : [ -1, -0.9908301830291748, -1 ],
			"max" : [ 1, 0.9992508292198181, 1 ]
		},
		{
			"bufferView" : 2,
			"byteOffset" : 0,
			"componentType" : 5126,
			"count" : 2640,
			"type" : "VEC3"
		},
		{
			"bufferView" : 3,
			"byteOffset" : 0,
			"componentType" : 5123,
			"count" : 2640,
			"type" : "SCALAR",
			"min" : [ 0 ],
			"max" : [ 2639 ]
		}
	],
	"bufferViews" : [
		{
			"buffer" : 0,
			"byteOffset" : 0,
			"byteLength" : 31680,
			"target" : 34962
		},
		{
			"buffer" : 0,
			"byteOffset" : 31680,
			"byteLength" : 31680,
			"target" : 34962
		},
		{
			"buffer" : 0,
			"byteOffset" : 63360,
			"byteLength" : 31680,
			"target" : 34962
		},
		{
			"buffer" : 0,
			"byteOffset" : 95040,
			"byteLength" : 5280,
			"target" : 34963
		}
	],
	"buffers" : [
		{
			"uri" : "B333711518801063C0.bin",
			"byteLength" : 100320
		}
	]
}
