{
	"asset" : {
		"generator" : "FME 2023.2.1.0",
		"version" : "2.0"
	},
	"materials" : [
		{
			"name" : "default_material",
			"pbrMetallicRoughness" : {
				"baseColorFactor" : [ 1, 1, 1, 1 ],
				"roughnessFactor" : 0.30000000000000004,
				"metallicFactor" : 0.5
			}
		}
	],
	"meshes" : [
		{
			"primitives" : [
				{
					"attributes" : {
						"NORMAL" : 1,
						"POSITION" : 0,
						"COLOR_0" : 2
					},
					"indices" : 3,
					"material" : 0,
					"mode" : 4
				}
			]
		}
	],
	"nodes" : [
		{
			"name" : "B339571607301063C0",
			"matrix" : [ 1, 0, 0, 0, 0, 0, -1, 0, 0, 1, 0, 0, 833955.625, 11.229999542236328, -816069.5, 1 ],
			"children" : [ 1 ]
		},
		{
			"mesh" : 0
		}
	],
	"scenes" : [
		{
			"nodes" : [ 0 ]
		}
	],
	"scene" : 0,
	"accessors" : [
		{
			"bufferView" : 0,
			"byteOffset" : 0,
			"componentType" : 5126,
			"count" : 282,
			"type" : "VEC3",
			"min" : [ -5.4599609375, -5.677734375, 0 ],
			"max" : [ 5.4609375, 5.677734375, 17.933000564575195 ]
		},
		{
			"bufferView" : 1,
			"byteOffset" : 0,
			"componentType" : 5126,
			"count" : 282,
			"type" : "VEC3",
			"min" : [ -0.7532335519790649, -0.7485882639884949, -0.004286919254809618 ],
			"max" : [ 0.7738828063011169, 0.7226624488830566, 1 ]
		},
		{
			"bufferView" : 2,
			"byteOffset" : 0,
			"componentType" : 5126,
			"count" : 282,
			"type" : "VEC3"
		},
		{
			"bufferView" : 3,
			"byteOffset" : 0,
			"componentType" : 5123,
			"count" : 282,
			"type" : "SCALAR",
			"min" : [ 0 ],
			"max" : [ 281 ]
		}
	],
	"bufferViews" : [
		{
			"buffer" : 0,
			"byteOffset" : 0,
			"byteLength" : 3384,
			"target" : 34962
		},
		{
			"buffer" : 0,
			"byteOffset" : 3384,
			"byteLength" : 3384,
			"target" : 34962
		},
		{
			"buffer" : 0,
			"byteOffset" : 6768,
			"byteLength" : 3384,
			"target" : 34962
		},
		{
			"buffer" : 0,
			"byteOffset" : 10152,
			"byteLength" : 564,
			"target" : 34963
		}
	],
	"buffers" : [
		{
			"uri" : "B339571607301063C0.bin",
			"byteLength" : 10716
		}
	]
}
