{
	"asset" : {
		"generator" : "FME 2022.2.4.0",
		"version" : "2.0"
	},
	"materials" : [
		{
			"name" : "default_material",
			"pbrMetallicRoughness" : {
				"baseColorFactor" : [ 1, 1, 1, 1 ],
				"roughnessFactor" : 0.30000000000000004,
				"metallicFactor" : 0.5
			}
		}
	],
	"meshes" : [
		{
			"primitives" : [
				{
					"attributes" : {
						"NORMAL" : 1,
						"POSITION" : 0,
						"COLOR_0" : 2
					},
					"indices" : 3,
					"material" : 0,
					"mode" : 4
				}
			]
		}
	],
	"nodes" : [
		{
			"name" : "B340681619001063C0",
			"matrix" : [ 1, 0, 0, 0, 0, 0, -1, 0, 0, 1, 0, 0, 834061.3125, 3.4329962730407715, -816179.9375, 1 ],
			"children" : [ 1 ]
		},
		{
			"mesh" : 0
		}
	],
	"scenes" : [
		{
			"nodes" : [ 0 ]
		}
	],
	"scene" : 0,
	"accessors" : [
		{
			"bufferView" : 0,
			"byteOffset" : 0,
			"componentType" : 5126,
			"count" : 1134,
			"type" : "VEC3",
			"min" : [ -16.958984375, -13.8447265625, 0 ],
			"max" : [ 16.9580078125, 13.8447265625, 59.23800277709961 ]
		},
		{
			"bufferView" : 1,
			"byteOffset" : 0,
			"componentType" : 5126,
			"count" : 1134,
			"type" : "VEC3",
			"min" : [ -0.9954717755317688, -0.8006817698478699, -1 ],
			"max" : [ 0.9951688647270203, 0.8005947470664978, 1 ]
		},
		{
			"bufferView" : 2,
			"byteOffset" : 0,
			"componentType" : 5126,
			"count" : 1134,
			"type" : "VEC3"
		},
		{
			"bufferView" : 3,
			"byteOffset" : 0,
			"componentType" : 5123,
			"count" : 1134,
			"type" : "SCALAR",
			"min" : [ 0 ],
			"max" : [ 1133 ]
		}
	],
	"bufferViews" : [
		{
			"buffer" : 0,
			"byteOffset" : 0,
			"byteLength" : 13608,
			"target" : 34962
		},
		{
			"buffer" : 0,
			"byteOffset" : 13608,
			"byteLength" : 13608,
			"target" : 34962
		},
		{
			"buffer" : 0,
			"byteOffset" : 27216,
			"byteLength" : 13608,
			"target" : 34962
		},
		{
			"buffer" : 0,
			"byteOffset" : 40824,
			"byteLength" : 2268,
			"target" : 34963
		}
	],
	"buffers" : [
		{
			"uri" : "B340681619001063C0.bin",
			"byteLength" : 43092
		}
	]
}
