{
	"asset" : {
		"generator" : "FME 2022.2.4.0",
		"version" : "2.0"
	},
	"materials" : [
		{
			"name" : "default_material",
			"pbrMetallicRoughness" : {
				"baseColorFactor" : [ 1, 1, 1, 1 ],
				"roughnessFactor" : 0.30000000000000004,
				"metallicFactor" : 0.5
			}
		}
	],
	"meshes" : [
		{
			"primitives" : [
				{
					"attributes" : {
						"NORMAL" : 1,
						"POSITION" : 0,
						"COLOR_0" : 2
					},
					"indices" : 3,
					"material" : 0,
					"mode" : 4
				}
			]
		}
	],
	"nodes" : [
		{
			"name" : "B170261529201062G0",
			"matrix" : [ 1, 0, 0, 0, 0, 0, -1, 0, 0, 1, 0, 0, 817025.375, 75.0739974975586, -815291.3125, 1 ],
			"children" : [ 1 ]
		},
		{
			"mesh" : 0
		}
	],
	"scenes" : [
		{
			"nodes" : [ 0 ]
		}
	],
	"scene" : 0,
	"accessors" : [
		{
			"bufferView" : 0,
			"byteOffset" : 0,
			"componentType" : 5126,
			"count" : 342,
			"type" : "VEC3",
			"min" : [ -6.3125, -5.8125, 0 ],
			"max" : [ 6.25, 5.8125, 10.060104370117188 ]
		},
		{
			"bufferView" : 1,
			"byteOffset" : 0,
			"componentType" : 5126,
			"count" : 342,
			"type" : "VEC3",
			"min" : [ -0.85947185754776, -0.8591780662536621, -1 ],
			"max" : [ 0.8600590825080872, 0.859220027923584, 1 ]
		},
		{
			"bufferView" : 2,
			"byteOffset" : 0,
			"componentType" : 5126,
			"count" : 342,
			"type" : "VEC3"
		},
		{
			"bufferView" : 3,
			"byteOffset" : 0,
			"componentType" : 5123,
			"count" : 342,
			"type" : "SCALAR",
			"min" : [ 0 ],
			"max" : [ 341 ]
		}
	],
	"bufferViews" : [
		{
			"buffer" : 0,
			"byteOffset" : 0,
			"byteLength" : 4104,
			"target" : 34962
		},
		{
			"buffer" : 0,
			"byteOffset" : 4104,
			"byteLength" : 4104,
			"target" : 34962
		},
		{
			"buffer" : 0,
			"byteOffset" : 8208,
			"byteLength" : 4104,
			"target" : 34962
		},
		{
			"buffer" : 0,
			"byteOffset" : 12312,
			"byteLength" : 684,
			"target" : 34963
		}
	],
	"buffers" : [
		{
			"uri" : "B170261529201062G0.bin",
			"byteLength" : 12996
		}
	]
}
