{
	"asset" : {
		"generator" : "FME 2023.2.1.0",
		"version" : "2.0"
	},
	"materials" : [
		{
			"name" : "default_material",
			"pbrMetallicRoughness" : {
				"baseColorFactor" : [ 1, 1, 1, 1 ],
				"roughnessFactor" : 0.30000000000000004,
				"metallicFactor" : 0.5
			}
		}
	],
	"meshes" : [
		{
			"primitives" : [
				{
					"attributes" : {
						"NORMAL" : 1,
						"POSITION" : 0,
						"COLOR_0" : 2
					},
					"indices" : 3,
					"material" : 0,
					"mode" : 4
				}
			]
		}
	],
	"nodes" : [
		{
			"name" : "B350141502701063C0",
			"matrix" : [ 1, 0, 0, 0, 0, 0, -1, 0, 0, 1, 0, 0, 835015, 115.26100158691406, -815027.8125, 1 ],
			"children" : [ 1 ]
		},
		{
			"mesh" : 0
		}
	],
	"scenes" : [
		{
			"nodes" : [ 0 ]
		}
	],
	"scene" : 0,
	"accessors" : [
		{
			"bufferView" : 0,
			"byteOffset" : 0,
			"componentType" : 5126,
			"count" : 1134,
			"type" : "VEC3",
			"min" : [ -9.61328125, -10.1640625, 0 ],
			"max" : [ 9.6142578125, 10.1650390625, 15.220993041992188 ]
		},
		{
			"bufferView" : 1,
			"byteOffset" : 0,
			"componentType" : 5126,
			"count" : 1134,
			"type" : "VEC3",
			"min" : [ -0.9926914572715759, -0.9920820593833923, -1 ],
			"max" : [ 0.9857158064842224, 0.9969338178634644, 1 ]
		},
		{
			"bufferView" : 2,
			"byteOffset" : 0,
			"componentType" : 5126,
			"count" : 1134,
			"type" : "VEC3"
		},
		{
			"bufferView" : 3,
			"byteOffset" : 0,
			"componentType" : 5123,
			"count" : 1134,
			"type" : "SCALAR",
			"min" : [ 0 ],
			"max" : [ 1133 ]
		}
	],
	"bufferViews" : [
		{
			"buffer" : 0,
			"byteOffset" : 0,
			"byteLength" : 13608,
			"target" : 34962
		},
		{
			"buffer" : 0,
			"byteOffset" : 13608,
			"byteLength" : 13608,
			"target" : 34962
		},
		{
			"buffer" : 0,
			"byteOffset" : 27216,
			"byteLength" : 13608,
			"target" : 34962
		},
		{
			"buffer" : 0,
			"byteOffset" : 40824,
			"byteLength" : 2268,
			"target" : 34963
		}
	],
	"buffers" : [
		{
			"uri" : "B350141502701063C0.bin",
			"byteLength" : 43092
		}
	]
}
