{
	"asset" : {
		"generator" : "FME 2022.2.4.0",
		"version" : "2.0"
	},
	"materials" : [
		{
			"name" : "default_material",
			"pbrMetallicRoughness" : {
				"baseColorFactor" : [ 1, 1, 1, 1 ],
				"roughnessFactor" : 0.30000000000000004,
				"metallicFactor" : 0.5
			}
		}
	],
	"meshes" : [
		{
			"primitives" : [
				{
					"attributes" : {
						"NORMAL" : 1,
						"POSITION" : 0,
						"COLOR_0" : 2
					},
					"indices" : 3,
					"material" : 0,
					"mode" : 4
				}
			]
		}
	],
	"nodes" : [
		{
			"name" : "B355621534701063C0",
			"matrix" : [ 1, 0, 0, 0, 0, 0, -1, 0, 0, 1, 0, 0, 835561.3125, 3.996000051498413, -815348.125, 1 ],
			"children" : [ 1 ]
		},
		{
			"mesh" : 0
		}
	],
	"scenes" : [
		{
			"nodes" : [ 0 ]
		}
	],
	"scene" : 0,
	"accessors" : [
		{
			"bufferView" : 0,
			"byteOffset" : 0,
			"componentType" : 5126,
			"count" : 3381,
			"type" : "VEC3",
			"min" : [ -19.2109375, -21.138671875, 0 ],
			"max" : [ 19.2109375, 21.138671875, 54.65200424194336 ]
		},
		{
			"bufferView" : 1,
			"byteOffset" : 0,
			"componentType" : 5126,
			"count" : 3381,
			"type" : "VEC3",
			"min" : [ -0.8407238721847534, -0.8443294167518616, -1 ],
			"max" : [ 0.8383200764656067, 0.8462327718734741, 1 ]
		},
		{
			"bufferView" : 2,
			"byteOffset" : 0,
			"componentType" : 5126,
			"count" : 3381,
			"type" : "VEC3"
		},
		{
			"bufferView" : 3,
			"byteOffset" : 0,
			"componentType" : 5123,
			"count" : 3381,
			"type" : "SCALAR",
			"min" : [ 0 ],
			"max" : [ 3380 ]
		}
	],
	"bufferViews" : [
		{
			"buffer" : 0,
			"byteOffset" : 0,
			"byteLength" : 40572,
			"target" : 34962
		},
		{
			"buffer" : 0,
			"byteOffset" : 40572,
			"byteLength" : 40572,
			"target" : 34962
		},
		{
			"buffer" : 0,
			"byteOffset" : 81144,
			"byteLength" : 40572,
			"target" : 34962
		},
		{
			"buffer" : 0,
			"byteOffset" : 121716,
			"byteLength" : 6762,
			"target" : 34963
		}
	],
	"buffers" : [
		{
			"uri" : "B355621534701063C0.bin",
			"byteLength" : 128478
		}
	]
}
