{
	"asset" : {
		"generator" : "FME 2022.2.4.0",
		"version" : "2.0"
	},
	"materials" : [
		{
			"name" : "default_material",
			"pbrMetallicRoughness" : {
				"baseColorFactor" : [ 1, 1, 1, 1 ],
				"roughnessFactor" : 0.30000000000000004,
				"metallicFactor" : 0.5
			}
		}
	],
	"meshes" : [
		{
			"primitives" : [
				{
					"attributes" : {
						"NORMAL" : 1,
						"POSITION" : 0,
						"COLOR_0" : 2
					},
					"indices" : 3,
					"material" : 0,
					"mode" : 4
				}
			]
		}
	],
	"nodes" : [
		{
			"name" : "B341451613401063C0",
			"matrix" : [ 1, 0, 0, 0, 0, 0, -1, 0, 0, 1, 0, 0, 834164.625, 3.4230000972747803, -816147.125, 1 ],
			"children" : [ 1 ]
		},
		{
			"mesh" : 0
		}
	],
	"scenes" : [
		{
			"nodes" : [ 0 ]
		}
	],
	"scene" : 0,
	"accessors" : [
		{
			"bufferView" : 0,
			"byteOffset" : 0,
			"componentType" : 5126,
			"count" : 2436,
			"type" : "VEC3",
			"min" : [ -29.69921875, -27.296875, 0 ],
			"max" : [ 29.6171875, 27.30859375, 78.43201446533203 ]
		},
		{
			"bufferView" : 1,
			"byteOffset" : 0,
			"componentType" : 5126,
			"count" : 2436,
			"type" : "VEC3",
			"min" : [ -0.9985324144363403, -0.9989446997642517, -1 ],
			"max" : [ 1, 0.8979207873344421, 1 ]
		},
		{
			"bufferView" : 2,
			"byteOffset" : 0,
			"componentType" : 5126,
			"count" : 2436,
			"type" : "VEC3"
		},
		{
			"bufferView" : 3,
			"byteOffset" : 0,
			"componentType" : 5123,
			"count" : 2436,
			"type" : "SCALAR",
			"min" : [ 0 ],
			"max" : [ 2435 ]
		}
	],
	"bufferViews" : [
		{
			"buffer" : 0,
			"byteOffset" : 0,
			"byteLength" : 29232,
			"target" : 34962
		},
		{
			"buffer" : 0,
			"byteOffset" : 29232,
			"byteLength" : 29232,
			"target" : 34962
		},
		{
			"buffer" : 0,
			"byteOffset" : 58464,
			"byteLength" : 29232,
			"target" : 34962
		},
		{
			"buffer" : 0,
			"byteOffset" : 87696,
			"byteLength" : 4872,
			"target" : 34963
		}
	],
	"buffers" : [
		{
			"uri" : "B341451613401063C0.bin",
			"byteLength" : 92568
		}
	]
}
