{
	"asset" : {
		"generator" : "FME 2022.2.4.0",
		"version" : "2.0"
	},
	"materials" : [
		{
			"name" : "default_material",
			"pbrMetallicRoughness" : {
				"baseColorFactor" : [ 1, 1, 1, 1 ],
				"roughnessFactor" : 0.30000000000000004,
				"metallicFactor" : 0.5
			}
		}
	],
	"meshes" : [
		{
			"primitives" : [
				{
					"attributes" : {
						"NORMAL" : 1,
						"POSITION" : 0,
						"COLOR_0" : 2
					},
					"indices" : 3,
					"material" : 0,
					"mode" : 4
				}
			]
		}
	],
	"nodes" : [
		{
			"name" : "B352181559701063C0",
			"matrix" : [ 1, 0, 0, 0, 0, 0, -1, 0, 0, 1, 0, 0, 835215.5, 5.408996105194092, -815600.0625, 1 ],
			"children" : [ 1 ]
		},
		{
			"mesh" : 0
		}
	],
	"scenes" : [
		{
			"nodes" : [ 0 ]
		}
	],
	"scene" : 0,
	"accessors" : [
		{
			"bufferView" : 0,
			"byteOffset" : 0,
			"componentType" : 5126,
			"count" : 996,
			"type" : "VEC3",
			"min" : [ -13.865234375, -7.8359375, 0 ],
			"max" : [ 13.865234375, 7.8359375, 17.035999298095703 ]
		},
		{
			"bufferView" : 1,
			"byteOffset" : 0,
			"componentType" : 5126,
			"count" : 996,
			"type" : "VEC3",
			"min" : [ -0.9999966621398926, -0.9999858736991882, -1 ],
			"max" : [ 1, 0.9999870657920837, 1 ]
		},
		{
			"bufferView" : 2,
			"byteOffset" : 0,
			"componentType" : 5126,
			"count" : 996,
			"type" : "VEC3"
		},
		{
			"bufferView" : 3,
			"byteOffset" : 0,
			"componentType" : 5123,
			"count" : 996,
			"type" : "SCALAR",
			"min" : [ 0 ],
			"max" : [ 995 ]
		}
	],
	"bufferViews" : [
		{
			"buffer" : 0,
			"byteOffset" : 0,
			"byteLength" : 11952,
			"target" : 34962
		},
		{
			"buffer" : 0,
			"byteOffset" : 11952,
			"byteLength" : 11952,
			"target" : 34962
		},
		{
			"buffer" : 0,
			"byteOffset" : 23904,
			"byteLength" : 11952,
			"target" : 34962
		},
		{
			"buffer" : 0,
			"byteOffset" : 35856,
			"byteLength" : 1992,
			"target" : 34963
		}
	],
	"buffers" : [
		{
			"uri" : "B352181559701063C0.bin",
			"byteLength" : 37848
		}
	]
}
