{
	"asset" : {
		"generator" : "FME 2022.2.4.0",
		"version" : "2.0"
	},
	"materials" : [
		{
			"name" : "default_material",
			"pbrMetallicRoughness" : {
				"baseColorFactor" : [ 1, 1, 1, 1 ],
				"roughnessFactor" : 0.30000000000000004,
				"metallicFactor" : 0.5
			}
		}
	],
	"meshes" : [
		{
			"primitives" : [
				{
					"attributes" : {
						"NORMAL" : 1,
						"POSITION" : 0,
						"COLOR_0" : 2
					},
					"indices" : 3,
					"material" : 0,
					"mode" : 4
				}
			]
		}
	],
	"nodes" : [
		{
			"name" : "B336611621701063C0",
			"matrix" : [ 1, 0, 0, 0, 0, 0, -1, 0, 0, 1, 0, 0, 833663.25, 3.4110000133514404, -816216.375, 1 ],
			"children" : [ 1 ]
		},
		{
			"mesh" : 0
		}
	],
	"scenes" : [
		{
			"nodes" : [ 0 ]
		}
	],
	"scene" : 0,
	"accessors" : [
		{
			"bufferView" : 0,
			"byteOffset" : 0,
			"componentType" : 5126,
			"count" : 615,
			"type" : "VEC3",
			"min" : [ -9.3359375, -8.47265625, 0 ],
			"max" : [ 9.3369140625, 8.47265625, 96.53099822998047 ]
		},
		{
			"bufferView" : 1,
			"byteOffset" : 0,
			"componentType" : 5126,
			"count" : 615,
			"type" : "VEC3",
			"min" : [ -0.999099850654602, -0.9999656081199646, -1 ],
			"max" : [ 0.9992393851280212, 0.9991308450698853, 1 ]
		},
		{
			"bufferView" : 2,
			"byteOffset" : 0,
			"componentType" : 5126,
			"count" : 615,
			"type" : "VEC3"
		},
		{
			"bufferView" : 3,
			"byteOffset" : 0,
			"componentType" : 5123,
			"count" : 615,
			"type" : "SCALAR",
			"min" : [ 0 ],
			"max" : [ 614 ]
		}
	],
	"bufferViews" : [
		{
			"buffer" : 0,
			"byteOffset" : 0,
			"byteLength" : 7380,
			"target" : 34962
		},
		{
			"buffer" : 0,
			"byteOffset" : 7380,
			"byteLength" : 7380,
			"target" : 34962
		},
		{
			"buffer" : 0,
			"byteOffset" : 14760,
			"byteLength" : 7380,
			"target" : 34962
		},
		{
			"buffer" : 0,
			"byteOffset" : 22140,
			"byteLength" : 1230,
			"target" : 34963
		}
	],
	"buffers" : [
		{
			"uri" : "B336611621701063C0.bin",
			"byteLength" : 23370
		}
	]
}
