{
	"asset" : {
		"generator" : "FME 2022.2.4.0",
		"version" : "2.0"
	},
	"materials" : [
		{
			"name" : "default_material",
			"pbrMetallicRoughness" : {
				"baseColorFactor" : [ 1, 1, 1, 1 ],
				"roughnessFactor" : 0.30000000000000004,
				"metallicFactor" : 0.5
			}
		}
	],
	"meshes" : [
		{
			"primitives" : [
				{
					"attributes" : {
						"NORMAL" : 1,
						"POSITION" : 0,
						"COLOR_0" : 2
					},
					"indices" : 3,
					"material" : 0,
					"mode" : 4
				}
			]
		}
	],
	"nodes" : [
		{
			"name" : "B164811246601062G0",
			"matrix" : [ 1, 0, 0, 0, 0, 0, -1, 0, 0, 1, 0, 0, 816480.375, 56.99420166015625, -812466, 1 ],
			"children" : [ 1 ]
		},
		{
			"mesh" : 0
		}
	],
	"scenes" : [
		{
			"nodes" : [ 0 ]
		}
	],
	"scene" : 0,
	"accessors" : [
		{
			"bufferView" : 0,
			"byteOffset" : 0,
			"componentType" : 5126,
			"count" : 30,
			"type" : "VEC3",
			"min" : [ -1.5625, -1.625, 0 ],
			"max" : [ 1.5, 1.5625, 2.1980972290039062 ]
		},
		{
			"bufferView" : 1,
			"byteOffset" : 0,
			"componentType" : 5126,
			"count" : 30,
			"type" : "VEC3",
			"min" : [ -0.801963210105896, -0.8020131587982178, 0 ],
			"max" : [ 0.8016295433044434, 0.7852202653884888, 1 ]
		},
		{
			"bufferView" : 2,
			"byteOffset" : 0,
			"componentType" : 5126,
			"count" : 30,
			"type" : "VEC3"
		},
		{
			"bufferView" : 3,
			"byteOffset" : 0,
			"componentType" : 5121,
			"count" : 30,
			"type" : "SCALAR",
			"min" : [ 0 ],
			"max" : [ 29 ]
		}
	],
	"bufferViews" : [
		{
			"buffer" : 0,
			"byteOffset" : 0,
			"byteLength" : 360,
			"target" : 34962
		},
		{
			"buffer" : 0,
			"byteOffset" : 360,
			"byteLength" : 360,
			"target" : 34962
		},
		{
			"buffer" : 0,
			"byteOffset" : 720,
			"byteLength" : 360,
			"target" : 34962
		},
		{
			"buffer" : 0,
			"byteOffset" : 1080,
			"byteLength" : 30,
			"target" : 34963
		}
	],
	"buffers" : [
		{
			"uri" : "B164811246601062G0.bin",
			"byteLength" : 1110
		}
	]
}
