{
	"asset" : {
		"generator" : "FME 2022.2.4.0",
		"version" : "2.0"
	},
	"materials" : [
		{
			"name" : "default_material",
			"pbrMetallicRoughness" : {
				"baseColorFactor" : [ 1, 1, 1, 1 ],
				"roughnessFactor" : 0.30000000000000004,
				"metallicFactor" : 0.5
			}
		}
	],
	"meshes" : [
		{
			"primitives" : [
				{
					"attributes" : {
						"NORMAL" : 1,
						"POSITION" : 0,
						"COLOR_0" : 2
					},
					"indices" : 3,
					"material" : 0,
					"mode" : 4
				}
			]
		}
	],
	"nodes" : [
		{
			"name" : "B337851560201063C0",
			"matrix" : [ 1, 0, 0, 0, 0, 0, -1, 0, 0, 1, 0, 0, 833788.4375, 105.14400482177734, -815609.625, 1 ],
			"children" : [ 1 ]
		},
		{
			"mesh" : 0
		}
	],
	"scenes" : [
		{
			"nodes" : [ 0 ]
		}
	],
	"scene" : 0,
	"accessors" : [
		{
			"bufferView" : 0,
			"byteOffset" : 0,
			"componentType" : 5126,
			"count" : 14871,
			"type" : "VEC3",
			"min" : [ -15.0498046875, -16.0771484375, 0 ],
			"max" : [ 15.05078125, 16.0771484375, 121.97101593017578 ]
		},
		{
			"bufferView" : 1,
			"byteOffset" : 0,
			"componentType" : 5126,
			"count" : 14871,
			"type" : "VEC3",
			"min" : [ -0.9936371445655823, -0.996346652507782, -1 ],
			"max" : [ 0.9938837885856628, 0.9974683523178101, 1 ]
		},
		{
			"bufferView" : 2,
			"byteOffset" : 0,
			"componentType" : 5126,
			"count" : 14871,
			"type" : "VEC3"
		},
		{
			"bufferView" : 3,
			"byteOffset" : 0,
			"componentType" : 5123,
			"count" : 14871,
			"type" : "SCALAR",
			"min" : [ 0 ],
			"max" : [ 14870 ]
		}
	],
	"bufferViews" : [
		{
			"buffer" : 0,
			"byteOffset" : 0,
			"byteLength" : 178452,
			"target" : 34962
		},
		{
			"buffer" : 0,
			"byteOffset" : 178452,
			"byteLength" : 178452,
			"target" : 34962
		},
		{
			"buffer" : 0,
			"byteOffset" : 356904,
			"byteLength" : 178452,
			"target" : 34962
		},
		{
			"buffer" : 0,
			"byteOffset" : 535356,
			"byteLength" : 29742,
			"target" : 34963
		}
	],
	"buffers" : [
		{
			"uri" : "B337851560201063C0.bin",
			"byteLength" : 565098
		}
	]
}
