{
	"asset" : {
		"generator" : "FME 2023.2.1.0",
		"version" : "2.0"
	},
	"materials" : [
		{
			"name" : "default_material",
			"pbrMetallicRoughness" : {
				"baseColorFactor" : [ 1, 1, 1, 1 ],
				"roughnessFactor" : 0.30000000000000004,
				"metallicFactor" : 0.5
			}
		}
	],
	"meshes" : [
		{
			"primitives" : [
				{
					"attributes" : {
						"NORMAL" : 1,
						"POSITION" : 0,
						"COLOR_0" : 2
					},
					"indices" : 3,
					"material" : 0,
					"mode" : 4
				}
			]
		}
	],
	"nodes" : [
		{
			"name" : "B338841568802063C0",
			"matrix" : [ 1, 0, 0, 0, 0, 0, -1, 0, 0, 1, 0, 0, 833884.9375, 69.22899627685547, -815688.5, 1 ],
			"children" : [ 1 ]
		},
		{
			"mesh" : 0
		}
	],
	"scenes" : [
		{
			"nodes" : [ 0 ]
		}
	],
	"scene" : 0,
	"accessors" : [
		{
			"bufferView" : 0,
			"byteOffset" : 0,
			"componentType" : 5126,
			"count" : 285,
			"type" : "VEC3",
			"min" : [ -7.3486328125, -9.330078125, 0 ],
			"max" : [ 7.349609375, 9.330078125, 7.487007141113281 ]
		},
		{
			"bufferView" : 1,
			"byteOffset" : 0,
			"componentType" : 5126,
			"count" : 285,
			"type" : "VEC3",
			"min" : [ -0.9518032073974609, -0.8784143328666687, -1 ],
			"max" : [ 0.949737548828125, 0.8719670176506042, 1 ]
		},
		{
			"bufferView" : 2,
			"byteOffset" : 0,
			"componentType" : 5126,
			"count" : 285,
			"type" : "VEC3"
		},
		{
			"bufferView" : 3,
			"byteOffset" : 0,
			"componentType" : 5123,
			"count" : 285,
			"type" : "SCALAR",
			"min" : [ 0 ],
			"max" : [ 284 ]
		}
	],
	"bufferViews" : [
		{
			"buffer" : 0,
			"byteOffset" : 0,
			"byteLength" : 3420,
			"target" : 34962
		},
		{
			"buffer" : 0,
			"byteOffset" : 3420,
			"byteLength" : 3420,
			"target" : 34962
		},
		{
			"buffer" : 0,
			"byteOffset" : 6840,
			"byteLength" : 3420,
			"target" : 34962
		},
		{
			"buffer" : 0,
			"byteOffset" : 10260,
			"byteLength" : 570,
			"target" : 34963
		}
	],
	"buffers" : [
		{
			"uri" : "B338841568802063C0.bin",
			"byteLength" : 10830
		}
	]
}
