{
	"asset" : {
		"generator" : "FME 2023.1.0.0",
		"version" : "2.0"
	},
	"materials" : [
		{
			"name" : "default_material",
			"pbrMetallicRoughness" : {
				"baseColorFactor" : [ 1, 1, 1, 1 ],
				"roughnessFactor" : 0.30000000000000004,
				"metallicFactor" : 0.5
			}
		}
	],
	"meshes" : [
		{
			"primitives" : [
				{
					"attributes" : {
						"NORMAL" : 1,
						"POSITION" : 0,
						"COLOR_0" : 2
					},
					"indices" : 3,
					"material" : 0,
					"mode" : 4
				}
			]
		}
	],
	"nodes" : [
		{
			"name" : "B339921528101063C0",
			"matrix" : [ 1, 0, 0, 0, 0, 0, -1, 0, 0, 1, 0, 0, 833994.5, 112.57099914550781, -815278.9375, 1 ],
			"children" : [ 1 ]
		},
		{
			"mesh" : 0
		}
	],
	"scenes" : [
		{
			"nodes" : [ 0 ]
		}
	],
	"scene" : 0,
	"accessors" : [
		{
			"bufferView" : 0,
			"byteOffset" : 0,
			"componentType" : 5126,
			"count" : 1326,
			"type" : "VEC3",
			"min" : [ -10.064453125, -11.3994140625, 0 ],
			"max" : [ 10.0654296875, 11.3994140625, 83.08599853515625 ]
		},
		{
			"bufferView" : 1,
			"byteOffset" : 0,
			"componentType" : 5126,
			"count" : 1326,
			"type" : "VEC3",
			"min" : [ -0.9640735983848572, -0.9830739498138428, -1 ],
			"max" : [ 1, 0.9741149544715881, 1 ]
		},
		{
			"bufferView" : 2,
			"byteOffset" : 0,
			"componentType" : 5126,
			"count" : 1326,
			"type" : "VEC3"
		},
		{
			"bufferView" : 3,
			"byteOffset" : 0,
			"componentType" : 5123,
			"count" : 1326,
			"type" : "SCALAR",
			"min" : [ 0 ],
			"max" : [ 1325 ]
		}
	],
	"bufferViews" : [
		{
			"buffer" : 0,
			"byteOffset" : 0,
			"byteLength" : 15912,
			"target" : 34962
		},
		{
			"buffer" : 0,
			"byteOffset" : 15912,
			"byteLength" : 15912,
			"target" : 34962
		},
		{
			"buffer" : 0,
			"byteOffset" : 31824,
			"byteLength" : 15912,
			"target" : 34962
		},
		{
			"buffer" : 0,
			"byteOffset" : 47736,
			"byteLength" : 2652,
			"target" : 34963
		}
	],
	"buffers" : [
		{
			"uri" : "B339921528101063C0.bin",
			"byteLength" : 50388
		}
	]
}
