{
	"asset" : {
		"generator" : "FME 2022.2.4.0",
		"version" : "2.0"
	},
	"materials" : [
		{
			"name" : "default_material",
			"pbrMetallicRoughness" : {
				"baseColorFactor" : [ 1, 1, 1, 1 ],
				"roughnessFactor" : 0.30000000000000004,
				"metallicFactor" : 0.5
			}
		}
	],
	"meshes" : [
		{
			"primitives" : [
				{
					"attributes" : {
						"NORMAL" : 1,
						"POSITION" : 0,
						"COLOR_0" : 2
					},
					"indices" : 3,
					"material" : 0,
					"mode" : 4
				}
			]
		}
	],
	"nodes" : [
		{
			"name" : "B334521638702063C0",
			"matrix" : [ 1, 0, 0, 0, 0, 0, -1, 0, 0, 1, 0, 0, 833452.875, 3.230998992919922, -816385.75, 1 ],
			"children" : [ 1 ]
		},
		{
			"mesh" : 0
		}
	],
	"scenes" : [
		{
			"nodes" : [ 0 ]
		}
	],
	"scene" : 0,
	"accessors" : [
		{
			"bufferView" : 0,
			"byteOffset" : 0,
			"componentType" : 5126,
			"count" : 387,
			"type" : "VEC3",
			"min" : [ -12.083984375, -18.2333984375, 0 ],
			"max" : [ 12.0830078125, 18.234375, 17.148998260498047 ]
		},
		{
			"bufferView" : 1,
			"byteOffset" : 0,
			"componentType" : 5126,
			"count" : 387,
			"type" : "VEC3",
			"min" : [ -0.9354404807090759, -0.9589585661888123, -1 ],
			"max" : [ 0.940289318561554, 0.9517976641654968, 1 ]
		},
		{
			"bufferView" : 2,
			"byteOffset" : 0,
			"componentType" : 5126,
			"count" : 387,
			"type" : "VEC3"
		},
		{
			"bufferView" : 3,
			"byteOffset" : 0,
			"componentType" : 5123,
			"count" : 387,
			"type" : "SCALAR",
			"min" : [ 0 ],
			"max" : [ 386 ]
		}
	],
	"bufferViews" : [
		{
			"buffer" : 0,
			"byteOffset" : 0,
			"byteLength" : 4644,
			"target" : 34962
		},
		{
			"buffer" : 0,
			"byteOffset" : 4644,
			"byteLength" : 4644,
			"target" : 34962
		},
		{
			"buffer" : 0,
			"byteOffset" : 9288,
			"byteLength" : 4644,
			"target" : 34962
		},
		{
			"buffer" : 0,
			"byteOffset" : 13932,
			"byteLength" : 774,
			"target" : 34963
		}
	],
	"buffers" : [
		{
			"uri" : "B334521638702063C0.bin",
			"byteLength" : 14706
		}
	]
}
