{
	"asset" : {
		"generator" : "FME 2023.1.0.0",
		"version" : "2.0"
	},
	"materials" : [
		{
			"name" : "default_material",
			"pbrMetallicRoughness" : {
				"baseColorFactor" : [ 1, 1, 1, 1 ],
				"roughnessFactor" : 0.30000000000000004,
				"metallicFactor" : 0.5
			}
		}
	],
	"meshes" : [
		{
			"primitives" : [
				{
					"attributes" : {
						"NORMAL" : 1,
						"POSITION" : 0,
						"COLOR_0" : 2
					},
					"indices" : 3,
					"material" : 0,
					"mode" : 4
				}
			]
		}
	],
	"nodes" : [
		{
			"name" : "B332791627701063C0",
			"matrix" : [ 1, 0, 0, 0, 0, 0, -1, 0, 0, 1, 0, 0, 833274.375, 14.659000396728516, -816268.5, 1 ],
			"children" : [ 1 ]
		},
		{
			"mesh" : 0
		}
	],
	"scenes" : [
		{
			"nodes" : [ 0 ]
		}
	],
	"scene" : 0,
	"accessors" : [
		{
			"bufferView" : 0,
			"byteOffset" : 0,
			"componentType" : 5126,
			"count" : 894,
			"type" : "VEC3",
			"min" : [ -9.625, -11.4296875, 0 ],
			"max" : [ 9.640625, 11.5234375, 20.757999420166016 ]
		},
		{
			"bufferView" : 1,
			"byteOffset" : 0,
			"componentType" : 5126,
			"count" : 894,
			"type" : "VEC3",
			"min" : [ -0.7852691411972046, -0.7912850379943848, -1 ],
			"max" : [ 1, 0.8944272398948669, 1 ]
		},
		{
			"bufferView" : 2,
			"byteOffset" : 0,
			"componentType" : 5126,
			"count" : 894,
			"type" : "VEC3"
		},
		{
			"bufferView" : 3,
			"byteOffset" : 0,
			"componentType" : 5123,
			"count" : 894,
			"type" : "SCALAR",
			"min" : [ 0 ],
			"max" : [ 893 ]
		}
	],
	"bufferViews" : [
		{
			"buffer" : 0,
			"byteOffset" : 0,
			"byteLength" : 10728,
			"target" : 34962
		},
		{
			"buffer" : 0,
			"byteOffset" : 10728,
			"byteLength" : 10728,
			"target" : 34962
		},
		{
			"buffer" : 0,
			"byteOffset" : 21456,
			"byteLength" : 10728,
			"target" : 34962
		},
		{
			"buffer" : 0,
			"byteOffset" : 32184,
			"byteLength" : 1788,
			"target" : 34963
		}
	],
	"buffers" : [
		{
			"uri" : "B332791627701063C0.bin",
			"byteLength" : 33972
		}
	]
}
