{
	"asset" : {
		"generator" : "FME 2023.1.0.0",
		"version" : "2.0"
	},
	"materials" : [
		{
			"name" : "default_material",
			"pbrMetallicRoughness" : {
				"baseColorFactor" : [ 1, 1, 1, 1 ],
				"roughnessFactor" : 0.30000000000000004,
				"metallicFactor" : 0.5
			}
		}
	],
	"meshes" : [
		{
			"primitives" : [
				{
					"attributes" : {
						"NORMAL" : 1,
						"POSITION" : 0,
						"COLOR_0" : 2
					},
					"indices" : 3,
					"material" : 0,
					"mode" : 4
				}
			]
		}
	],
	"nodes" : [
		{
			"name" : "B340371586501063C0",
			"matrix" : [ 1, 0, 0, 0, 0, 0, -1, 0, 0, 1, 0, 0, 834035.9375, 18.09000015258789, -815859.1875, 1 ],
			"children" : [ 1 ]
		},
		{
			"mesh" : 0
		}
	],
	"scenes" : [
		{
			"nodes" : [ 0 ]
		}
	],
	"scene" : 0,
	"accessors" : [
		{
			"bufferView" : 0,
			"byteOffset" : 0,
			"componentType" : 5126,
			"count" : 1650,
			"type" : "VEC3",
			"min" : [ -11.11328125, -12.7158203125, 0 ],
			"max" : [ 11.11328125, 12.71484375, 51.1879997253418 ]
		},
		{
			"bufferView" : 1,
			"byteOffset" : 0,
			"componentType" : 5126,
			"count" : 1650,
			"type" : "VEC3",
			"min" : [ -0.8198280334472656, -0.8201269507408142, -1 ],
			"max" : [ 0.8264771103858948, 1, 1 ]
		},
		{
			"bufferView" : 2,
			"byteOffset" : 0,
			"componentType" : 5126,
			"count" : 1650,
			"type" : "VEC3"
		},
		{
			"bufferView" : 3,
			"byteOffset" : 0,
			"componentType" : 5123,
			"count" : 1650,
			"type" : "SCALAR",
			"min" : [ 0 ],
			"max" : [ 1649 ]
		}
	],
	"bufferViews" : [
		{
			"buffer" : 0,
			"byteOffset" : 0,
			"byteLength" : 19800,
			"target" : 34962
		},
		{
			"buffer" : 0,
			"byteOffset" : 19800,
			"byteLength" : 19800,
			"target" : 34962
		},
		{
			"buffer" : 0,
			"byteOffset" : 39600,
			"byteLength" : 19800,
			"target" : 34962
		},
		{
			"buffer" : 0,
			"byteOffset" : 59400,
			"byteLength" : 3300,
			"target" : 34963
		}
	],
	"buffers" : [
		{
			"uri" : "B340371586501063C0.bin",
			"byteLength" : 62700
		}
	]
}
