{"accessors":[{"bufferView":0,"componentType":5126,"count":25867,"type":"VEC3"},{"bufferView":1,"componentType":5126,"count":25867,"type":"VEC3"},{"bufferView":2,"componentType":5126,"count":25867,"max":[106.921875,110.951171875,15.852001190185547],"min":[-106.921875,-110.94921875,0.0],"type":"VEC3"},{"bufferView":3,"componentType":5123,"count":31983,"max":[25866],"min":[0],"type":"SCALAR"}],"asset":{"generator":"FME 2023.1.0.0","version":"2.0"},"bufferViews":[{"buffer":0,"byteLength":310404,"byteOffset":0,"target":34962},{"buffer":0,"byteLength":310404,"byteOffset":310404,"target":34962},{"buffer":0,"byteLength":310404,"byteOffset":620808,"target":34962},{"buffer":0,"byteLength":63966,"byteOffset":931212,"target":34963}],"buffers":[{"byteLength":995180,"uri":"buffer.bin"}],"materials":[{"name":"default_material","pbrMetallicRoughness":{"baseColorFactor":[1,1,1,1],"metallicFactor":0.5,"roughnessFactor":0.30000000000000004}}],"meshes":[{"primitives":[{"attributes":{"COLOR_0":0,"NORMAL":1,"POSITION":2},"indices":3,"material":0,"mode":4}]}],"nodes":[{"children":[1],"matrix":[1,0,0,0,0,0,-1,0,0,1,0,0,836481.5,32.189998626708984,-819537.75,1],"name":"B364461960802063C0"},{"mesh":0}],"scene":0,"scenes":[{"nodes":[0]}]}
