{
	"asset" : {
		"generator" : "FME 2022.2.4.0",
		"version" : "2.0"
	},
	"materials" : [
		{
			"name" : "default_material",
			"pbrMetallicRoughness" : {
				"baseColorFactor" : [ 1, 1, 1, 1 ],
				"roughnessFactor" : 0.30000000000000004,
				"metallicFactor" : 0.5
			}
		}
	],
	"meshes" : [
		{
			"primitives" : [
				{
					"attributes" : {
						"NORMAL" : 1,
						"POSITION" : 0,
						"COLOR_0" : 2
					},
					"indices" : 3,
					"material" : 0,
					"mode" : 4
				}
			]
		}
	],
	"nodes" : [
		{
			"name" : "B334071647601063C0",
			"matrix" : [ 1, 0, 0, 0, 0, 0, -1, 0, 0, 1, 0, 0, 833417.6875, 2.9000039100646973, -816489.75, 1 ],
			"children" : [ 1 ]
		},
		{
			"mesh" : 0
		}
	],
	"scenes" : [
		{
			"nodes" : [ 0 ]
		}
	],
	"scene" : 0,
	"accessors" : [
		{
			"bufferView" : 0,
			"byteOffset" : 0,
			"componentType" : 5126,
			"count" : 1104,
			"type" : "VEC3",
			"min" : [ -13.4541015625, -22.671875, 0 ],
			"max" : [ 13.453125, 22.671875, 76.13199615478516 ]
		},
		{
			"bufferView" : 1,
			"byteOffset" : 0,
			"componentType" : 5126,
			"count" : 1104,
			"type" : "VEC3",
			"min" : [ -0.9387257099151611, -0.939435601234436, -1 ],
			"max" : [ 0.97273188829422, 0.9549176692962646, 1 ]
		},
		{
			"bufferView" : 2,
			"byteOffset" : 0,
			"componentType" : 5126,
			"count" : 1104,
			"type" : "VEC3"
		},
		{
			"bufferView" : 3,
			"byteOffset" : 0,
			"componentType" : 5123,
			"count" : 1104,
			"type" : "SCALAR",
			"min" : [ 0 ],
			"max" : [ 1103 ]
		}
	],
	"bufferViews" : [
		{
			"buffer" : 0,
			"byteOffset" : 0,
			"byteLength" : 13248,
			"target" : 34962
		},
		{
			"buffer" : 0,
			"byteOffset" : 13248,
			"byteLength" : 13248,
			"target" : 34962
		},
		{
			"buffer" : 0,
			"byteOffset" : 26496,
			"byteLength" : 13248,
			"target" : 34962
		},
		{
			"buffer" : 0,
			"byteOffset" : 39744,
			"byteLength" : 2208,
			"target" : 34963
		}
	],
	"buffers" : [
		{
			"uri" : "B334071647601063C0.bin",
			"byteLength" : 41952
		}
	]
}
