{
	"asset" : {
		"generator" : "FME 2023.1.0.0",
		"version" : "2.0"
	},
	"materials" : [
		{
			"name" : "default_material",
			"pbrMetallicRoughness" : {
				"baseColorFactor" : [ 1, 1, 1, 1 ],
				"roughnessFactor" : 0.30000000000000004,
				"metallicFactor" : 0.5
			}
		}
	],
	"meshes" : [
		{
			"primitives" : [
				{
					"attributes" : {
						"NORMAL" : 1,
						"POSITION" : 0,
						"COLOR_0" : 2
					},
					"indices" : 3,
					"material" : 0,
					"mode" : 4
				}
			]
		}
	],
	"nodes" : [
		{
			"name" : "B359831544602063C0",
			"matrix" : [ 1, 0, 0, 0, 0, 0, -1, 0, 0, 1, 0, 0, 835983.375, 2.8540000915527344, -815450.4375, 1 ],
			"children" : [ 1 ]
		},
		{
			"mesh" : 0
		}
	],
	"scenes" : [
		{
			"nodes" : [ 0 ]
		}
	],
	"scene" : 0,
	"accessors" : [
		{
			"bufferView" : 0,
			"byteOffset" : 0,
			"componentType" : 5126,
			"count" : 462,
			"type" : "VEC3",
			"min" : [ -6.25390625, -10.5439453125, 0 ],
			"max" : [ 6.25390625, 10.5439453125, 14.913999557495117 ]
		},
		{
			"bufferView" : 1,
			"byteOffset" : 0,
			"componentType" : 5126,
			"count" : 462,
			"type" : "VEC3",
			"min" : [ -0.9940162897109985, -0.9939645528793335, -1 ],
			"max" : [ 0.9940162897109985, 0.9939871430397034, 1 ]
		},
		{
			"bufferView" : 2,
			"byteOffset" : 0,
			"componentType" : 5126,
			"count" : 462,
			"type" : "VEC3"
		},
		{
			"bufferView" : 3,
			"byteOffset" : 0,
			"componentType" : 5123,
			"count" : 462,
			"type" : "SCALAR",
			"min" : [ 0 ],
			"max" : [ 461 ]
		}
	],
	"bufferViews" : [
		{
			"buffer" : 0,
			"byteOffset" : 0,
			"byteLength" : 5544,
			"target" : 34962
		},
		{
			"buffer" : 0,
			"byteOffset" : 5544,
			"byteLength" : 5544,
			"target" : 34962
		},
		{
			"buffer" : 0,
			"byteOffset" : 11088,
			"byteLength" : 5544,
			"target" : 34962
		},
		{
			"buffer" : 0,
			"byteOffset" : 16632,
			"byteLength" : 924,
			"target" : 34963
		}
	],
	"buffers" : [
		{
			"uri" : "B359831544602063C0.bin",
			"byteLength" : 17556
		}
	]
}
