{
	"asset" : {
		"generator" : "FME 2022.2.4.0",
		"version" : "2.0"
	},
	"materials" : [
		{
			"name" : "default_material",
			"pbrMetallicRoughness" : {
				"baseColorFactor" : [ 1, 1, 1, 1 ],
				"roughnessFactor" : 0.30000000000000004,
				"metallicFactor" : 0.5
			}
		}
	],
	"meshes" : [
		{
			"primitives" : [
				{
					"attributes" : {
						"NORMAL" : 1,
						"POSITION" : 0,
						"COLOR_0" : 2
					},
					"indices" : 3,
					"material" : 0,
					"mode" : 4
				}
			]
		}
	],
	"nodes" : [
		{
			"name" : "B330441652701063C0",
			"matrix" : [ 1, 0, 0, 0, 0, 0, -1, 0, 0, 1, 0, 0, 833043.5, 3.4189999103546143, -816523, 1 ],
			"children" : [ 1 ]
		},
		{
			"mesh" : 0
		}
	],
	"scenes" : [
		{
			"nodes" : [ 0 ]
		}
	],
	"scene" : 0,
	"accessors" : [
		{
			"bufferView" : 0,
			"byteOffset" : 0,
			"componentType" : 5126,
			"count" : 804,
			"type" : "VEC3",
			"min" : [ -3.23876953125, -11.990234375, 0 ],
			"max" : [ 3.2392578125, 11.990234375, 23.751996994018555 ]
		},
		{
			"bufferView" : 1,
			"byteOffset" : 0,
			"componentType" : 5126,
			"count" : 804,
			"type" : "VEC3",
			"min" : [ -0.9962089657783508, -0.9970306754112244, -1 ],
			"max" : [ 0.9961057305335999, 0.9966846704483032, 1 ]
		},
		{
			"bufferView" : 2,
			"byteOffset" : 0,
			"componentType" : 5126,
			"count" : 804,
			"type" : "VEC3"
		},
		{
			"bufferView" : 3,
			"byteOffset" : 0,
			"componentType" : 5123,
			"count" : 804,
			"type" : "SCALAR",
			"min" : [ 0 ],
			"max" : [ 803 ]
		}
	],
	"bufferViews" : [
		{
			"buffer" : 0,
			"byteOffset" : 0,
			"byteLength" : 9648,
			"target" : 34962
		},
		{
			"buffer" : 0,
			"byteOffset" : 9648,
			"byteLength" : 9648,
			"target" : 34962
		},
		{
			"buffer" : 0,
			"byteOffset" : 19296,
			"byteLength" : 9648,
			"target" : 34962
		},
		{
			"buffer" : 0,
			"byteOffset" : 28944,
			"byteLength" : 1608,
			"target" : 34963
		}
	],
	"buffers" : [
		{
			"uri" : "B330441652701063C0.bin",
			"byteLength" : 30552
		}
	]
}
