{
	"asset" : {
		"generator" : "FME 2023.2.1.0",
		"version" : "2.0"
	},
	"materials" : [
		{
			"name" : "default_material",
			"pbrMetallicRoughness" : {
				"baseColorFactor" : [ 1, 1, 1, 1 ],
				"roughnessFactor" : 0.30000000000000004,
				"metallicFactor" : 0.5
			}
		}
	],
	"meshes" : [
		{
			"primitives" : [
				{
					"attributes" : {
						"NORMAL" : 1,
						"POSITION" : 0,
						"COLOR_0" : 2
					},
					"indices" : 3,
					"material" : 0,
					"mode" : 4
				}
			]
		}
	],
	"nodes" : [
		{
			"name" : "B359071517601063C0",
			"matrix" : [ 1, 0, 0, 0, 0, 0, -1, 0, 0, 1, 0, 0, 835908.0625, 17.451000213623047, -815176.75, 1 ],
			"children" : [ 1 ]
		},
		{
			"mesh" : 0
		}
	],
	"scenes" : [
		{
			"nodes" : [ 0 ]
		}
	],
	"scene" : 0,
	"accessors" : [
		{
			"bufferView" : 0,
			"byteOffset" : 0,
			"componentType" : 5126,
			"count" : 486,
			"type" : "VEC3",
			"min" : [ -4.6279296875, -4.2734375, 0 ],
			"max" : [ 4.6279296875, 4.2724609375, 61.93400192260742 ]
		},
		{
			"bufferView" : 1,
			"byteOffset" : 0,
			"componentType" : 5126,
			"count" : 486,
			"type" : "VEC3",
			"min" : [ -0.9942441582679749, -0.9939436316490173, -1 ],
			"max" : [ 0.9938936829566956, 0.9939268231391907, 1 ]
		},
		{
			"bufferView" : 2,
			"byteOffset" : 0,
			"componentType" : 5126,
			"count" : 486,
			"type" : "VEC3"
		},
		{
			"bufferView" : 3,
			"byteOffset" : 0,
			"componentType" : 5123,
			"count" : 486,
			"type" : "SCALAR",
			"min" : [ 0 ],
			"max" : [ 485 ]
		}
	],
	"bufferViews" : [
		{
			"buffer" : 0,
			"byteOffset" : 0,
			"byteLength" : 5832,
			"target" : 34962
		},
		{
			"buffer" : 0,
			"byteOffset" : 5832,
			"byteLength" : 5832,
			"target" : 34962
		},
		{
			"buffer" : 0,
			"byteOffset" : 11664,
			"byteLength" : 5832,
			"target" : 34962
		},
		{
			"buffer" : 0,
			"byteOffset" : 17496,
			"byteLength" : 972,
			"target" : 34963
		}
	],
	"buffers" : [
		{
			"uri" : "B359071517601063C0.bin",
			"byteLength" : 18468
		}
	]
}
