{
	"asset" : {
		"generator" : "FME 2023.2.2.0",
		"version" : "2.0"
	},
	"materials" : [
		{
			"name" : "default_material",
			"pbrMetallicRoughness" : {
				"baseColorFactor" : [ 1, 1, 1, 1 ],
				"roughnessFactor" : 0.30000000000000004,
				"metallicFactor" : 0.5
			}
		}
	],
	"meshes" : [
		{
			"primitives" : [
				{
					"attributes" : {
						"NORMAL" : 1,
						"POSITION" : 0,
						"COLOR_0" : 2
					},
					"indices" : 3,
					"material" : 0,
					"mode" : 4
				}
			]
		}
	],
	"nodes" : [
		{
			"name" : "B201391618601062G0",
			"matrix" : [ 1, 0, 0, 0, 0, 0, -1, 0, 0, 1, 0, 0, 820141, 11.29990005493164, -816187.375, 1 ],
			"children" : [ 1 ]
		},
		{
			"mesh" : 0
		}
	],
	"scenes" : [
		{
			"nodes" : [ 0 ]
		}
	],
	"scene" : 0,
	"accessors" : [
		{
			"bufferView" : 0,
			"byteOffset" : 0,
			"componentType" : 5126,
			"count" : 66,
			"type" : "VEC3",
			"min" : [ -5.0625, -7.125, 0 ],
			"max" : [ 5.125, 7.1875, 2.72029972076416 ]
		},
		{
			"bufferView" : 1,
			"byteOffset" : 0,
			"componentType" : 5126,
			"count" : 66,
			"type" : "VEC3",
			"min" : [ -0.9985577464103699, -0.9928346276283264, 0 ],
			"max" : [ 0.9928344488143921, 0.9989133477210999, 1 ]
		},
		{
			"bufferView" : 2,
			"byteOffset" : 0,
			"componentType" : 5126,
			"count" : 66,
			"type" : "VEC3"
		},
		{
			"bufferView" : 3,
			"byteOffset" : 0,
			"componentType" : 5121,
			"count" : 66,
			"type" : "SCALAR",
			"min" : [ 0 ],
			"max" : [ 65 ]
		}
	],
	"bufferViews" : [
		{
			"buffer" : 0,
			"byteOffset" : 0,
			"byteLength" : 792,
			"target" : 34962
		},
		{
			"buffer" : 0,
			"byteOffset" : 792,
			"byteLength" : 792,
			"target" : 34962
		},
		{
			"buffer" : 0,
			"byteOffset" : 1584,
			"byteLength" : 792,
			"target" : 34962
		},
		{
			"buffer" : 0,
			"byteOffset" : 2376,
			"byteLength" : 66,
			"target" : 34963
		}
	],
	"buffers" : [
		{
			"uri" : "B201391618601062G0.bin",
			"byteLength" : 2442
		}
	]
}
