{
	"asset" : {
		"generator" : "FME 2023.2.2.0",
		"version" : "2.0"
	},
	"materials" : [
		{
			"name" : "default_material",
			"pbrMetallicRoughness" : {
				"baseColorFactor" : [ 1, 1, 1, 1 ],
				"roughnessFactor" : 0.30000000000000004,
				"metallicFactor" : 0.5
			}
		}
	],
	"meshes" : [
		{
			"primitives" : [
				{
					"attributes" : {
						"NORMAL" : 1,
						"POSITION" : 0,
						"COLOR_0" : 2
					},
					"indices" : 3,
					"material" : 0,
					"mode" : 4
				}
			]
		}
	],
	"nodes" : [
		{
			"name" : "B176601506001062G0",
			"matrix" : [ 1, 0, 0, 0, 0, 0, -1, 0, 0, 1, 0, 0, 817659.125, 22.04010009765625, -815061.125, 1 ],
			"children" : [ 1 ]
		},
		{
			"mesh" : 0
		}
	],
	"scenes" : [
		{
			"nodes" : [ 0 ]
		}
	],
	"scene" : 0,
	"accessors" : [
		{
			"bufferView" : 0,
			"byteOffset" : 0,
			"componentType" : 5126,
			"count" : 942,
			"type" : "VEC3",
			"min" : [ -9.1875, -10.3125, 0 ],
			"max" : [ 9.25, 10.25, 8.659500122070312 ]
		},
		{
			"bufferView" : 1,
			"byteOffset" : 0,
			"componentType" : 5126,
			"count" : 942,
			"type" : "VEC3",
			"min" : [ -0.8892180323600769, -0.8879151344299316, -1 ],
			"max" : [ 0.952296793460846, 0.8879150152206421, 1 ]
		},
		{
			"bufferView" : 2,
			"byteOffset" : 0,
			"componentType" : 5126,
			"count" : 942,
			"type" : "VEC3"
		},
		{
			"bufferView" : 3,
			"byteOffset" : 0,
			"componentType" : 5123,
			"count" : 942,
			"type" : "SCALAR",
			"min" : [ 0 ],
			"max" : [ 941 ]
		}
	],
	"bufferViews" : [
		{
			"buffer" : 0,
			"byteOffset" : 0,
			"byteLength" : 11304,
			"target" : 34962
		},
		{
			"buffer" : 0,
			"byteOffset" : 11304,
			"byteLength" : 11304,
			"target" : 34962
		},
		{
			"buffer" : 0,
			"byteOffset" : 22608,
			"byteLength" : 11304,
			"target" : 34962
		},
		{
			"buffer" : 0,
			"byteOffset" : 33912,
			"byteLength" : 1884,
			"target" : 34963
		}
	],
	"buffers" : [
		{
			"uri" : "B176601506001062G0.bin",
			"byteLength" : 35796
		}
	]
}
