{
	"asset" : {
		"generator" : "FME 2023.1.0.0",
		"version" : "2.0"
	},
	"materials" : [
		{
			"name" : "default_material",
			"pbrMetallicRoughness" : {
				"baseColorFactor" : [ 1, 1, 1, 1 ],
				"roughnessFactor" : 0.30000000000000004,
				"metallicFactor" : 0.5
			}
		}
	],
	"meshes" : [
		{
			"primitives" : [
				{
					"attributes" : {
						"NORMAL" : 1,
						"POSITION" : 0,
						"COLOR_0" : 2
					},
					"indices" : 3,
					"material" : 0,
					"mode" : 4
				}
			]
		}
	],
	"nodes" : [
		{
			"name" : "B333901571601063C0",
			"matrix" : [ 1, 0, 0, 0, 0, 0, -1, 0, 0, 1, 0, 0, 833389.5625, 164.11099243164062, -815715.25, 1 ],
			"children" : [ 1 ]
		},
		{
			"mesh" : 0
		}
	],
	"scenes" : [
		{
			"nodes" : [ 0 ]
		}
	],
	"scene" : 0,
	"accessors" : [
		{
			"bufferView" : 0,
			"byteOffset" : 0,
			"componentType" : 5126,
			"count" : 8298,
			"type" : "VEC3",
			"min" : [ -21.5283203125, -15.7041015625, 0 ],
			"max" : [ 21.5283203125, 15.705078125, 93.12802124023438 ]
		},
		{
			"bufferView" : 1,
			"byteOffset" : 0,
			"componentType" : 5126,
			"count" : 8298,
			"type" : "VEC3",
			"min" : [ -0.8795904517173767, -0.8875895738601685, -1 ],
			"max" : [ 0.8797292113304138, 0.8876723051071167, 1 ]
		},
		{
			"bufferView" : 2,
			"byteOffset" : 0,
			"componentType" : 5126,
			"count" : 8298,
			"type" : "VEC3"
		},
		{
			"bufferView" : 3,
			"byteOffset" : 0,
			"componentType" : 5123,
			"count" : 8298,
			"type" : "SCALAR",
			"min" : [ 0 ],
			"max" : [ 8297 ]
		}
	],
	"bufferViews" : [
		{
			"buffer" : 0,
			"byteOffset" : 0,
			"byteLength" : 99576,
			"target" : 34962
		},
		{
			"buffer" : 0,
			"byteOffset" : 99576,
			"byteLength" : 99576,
			"target" : 34962
		},
		{
			"buffer" : 0,
			"byteOffset" : 199152,
			"byteLength" : 99576,
			"target" : 34962
		},
		{
			"buffer" : 0,
			"byteOffset" : 298728,
			"byteLength" : 16596,
			"target" : 34963
		}
	],
	"buffers" : [
		{
			"uri" : "B333901571601063C0.bin",
			"byteLength" : 315324
		}
	]
}
