{
	"asset" : {
		"generator" : "FME 2023.1.0.0",
		"version" : "2.0"
	},
	"materials" : [
		{
			"name" : "default_material",
			"pbrMetallicRoughness" : {
				"baseColorFactor" : [ 1, 1, 1, 1 ],
				"roughnessFactor" : 0.30000000000000004,
				"metallicFactor" : 0.5
			}
		}
	],
	"meshes" : [
		{
			"primitives" : [
				{
					"attributes" : {
						"NORMAL" : 1,
						"POSITION" : 0,
						"COLOR_0" : 2
					},
					"indices" : 3,
					"material" : 0,
					"mode" : 4
				}
			]
		}
	],
	"nodes" : [
		{
			"name" : "B186081467101062G0",
			"matrix" : [ 1, 0, 0, 0, 0, 0, -1, 0, 0, 1, 0, 0, 818608.375, 6.447400093078613, -814669.6875, 1 ],
			"children" : [ 1 ]
		},
		{
			"mesh" : 0
		}
	],
	"scenes" : [
		{
			"nodes" : [ 0 ]
		}
	],
	"scene" : 0,
	"accessors" : [
		{
			"bufferView" : 0,
			"byteOffset" : 0,
			"componentType" : 5126,
			"count" : 600,
			"type" : "VEC3",
			"min" : [ -4.75, -5.75, 0 ],
			"max" : [ 4.6875, 5.75, 7.110400199890137 ]
		},
		{
			"bufferView" : 1,
			"byteOffset" : 0,
			"componentType" : 5126,
			"count" : 600,
			"type" : "VEC3",
			"min" : [ -0.9974267482757568, -0.9974267482757568, -1 ],
			"max" : [ 0.9974267482757568, 0.9974267482757568, 1 ]
		},
		{
			"bufferView" : 2,
			"byteOffset" : 0,
			"componentType" : 5126,
			"count" : 600,
			"type" : "VEC3"
		},
		{
			"bufferView" : 3,
			"byteOffset" : 0,
			"componentType" : 5123,
			"count" : 600,
			"type" : "SCALAR",
			"min" : [ 0 ],
			"max" : [ 599 ]
		}
	],
	"bufferViews" : [
		{
			"buffer" : 0,
			"byteOffset" : 0,
			"byteLength" : 7200,
			"target" : 34962
		},
		{
			"buffer" : 0,
			"byteOffset" : 7200,
			"byteLength" : 7200,
			"target" : 34962
		},
		{
			"buffer" : 0,
			"byteOffset" : 14400,
			"byteLength" : 7200,
			"target" : 34962
		},
		{
			"buffer" : 0,
			"byteOffset" : 21600,
			"byteLength" : 1200,
			"target" : 34963
		}
	],
	"buffers" : [
		{
			"uri" : "B186081467101062G0.bin",
			"byteLength" : 22800
		}
	]
}
