{
	"asset" : {
		"generator" : "FME 2023.2.2.0",
		"version" : "2.0"
	},
	"materials" : [
		{
			"name" : "default_material",
			"pbrMetallicRoughness" : {
				"baseColorFactor" : [ 1, 1, 1, 1 ],
				"roughnessFactor" : 0.30000000000000004,
				"metallicFactor" : 0.5
			}
		}
	],
	"meshes" : [
		{
			"primitives" : [
				{
					"attributes" : {
						"NORMAL" : 1,
						"POSITION" : 0,
						"COLOR_0" : 2
					},
					"indices" : 3,
					"material" : 0,
					"mode" : 4
				}
			]
		}
	],
	"nodes" : [
		{
			"name" : "B169741503401062G0",
			"matrix" : [ 1, 0, 0, 0, 0, 0, -1, 0, 0, 1, 0, 0, 816974.5, 50.74150085449219, -815036.3125, 1 ],
			"children" : [ 1 ]
		},
		{
			"mesh" : 0
		}
	],
	"scenes" : [
		{
			"nodes" : [ 0 ]
		}
	],
	"scene" : 0,
	"accessors" : [
		{
			"bufferView" : 0,
			"byteOffset" : 0,
			"componentType" : 5126,
			"count" : 300,
			"type" : "VEC3",
			"min" : [ -6.9375, -6.375, 0 ],
			"max" : [ 7, 6.375, 5.171699523925781 ]
		},
		{
			"bufferView" : 1,
			"byteOffset" : 0,
			"componentType" : 5126,
			"count" : 300,
			"type" : "VEC3",
			"min" : [ -0.891258180141449, -0.8912047743797302, -1 ],
			"max" : [ 0.891258180141449, 0.8922808170318604, 1 ]
		},
		{
			"bufferView" : 2,
			"byteOffset" : 0,
			"componentType" : 5126,
			"count" : 300,
			"type" : "VEC3"
		},
		{
			"bufferView" : 3,
			"byteOffset" : 0,
			"componentType" : 5123,
			"count" : 300,
			"type" : "SCALAR",
			"min" : [ 0 ],
			"max" : [ 299 ]
		}
	],
	"bufferViews" : [
		{
			"buffer" : 0,
			"byteOffset" : 0,
			"byteLength" : 3600,
			"target" : 34962
		},
		{
			"buffer" : 0,
			"byteOffset" : 3600,
			"byteLength" : 3600,
			"target" : 34962
		},
		{
			"buffer" : 0,
			"byteOffset" : 7200,
			"byteLength" : 3600,
			"target" : 34962
		},
		{
			"buffer" : 0,
			"byteOffset" : 10800,
			"byteLength" : 600,
			"target" : 34963
		}
	],
	"buffers" : [
		{
			"uri" : "B169741503401062G0.bin",
			"byteLength" : 11400
		}
	]
}
