{
	"asset" : {
		"generator" : "FME 2022.2.4.0",
		"version" : "2.0"
	},
	"materials" : [
		{
			"name" : "default_material",
			"pbrMetallicRoughness" : {
				"baseColorFactor" : [ 1, 1, 1, 1 ],
				"roughnessFactor" : 0.30000000000000004,
				"metallicFactor" : 0.5
			}
		}
	],
	"meshes" : [
		{
			"primitives" : [
				{
					"attributes" : {
						"NORMAL" : 1,
						"POSITION" : 0,
						"COLOR_0" : 2
					},
					"indices" : 3,
					"material" : 0,
					"mode" : 4
				}
			]
		}
	],
	"nodes" : [
		{
			"name" : "B170341447601062G0",
			"matrix" : [ 1, 0, 0, 0, 0, 0, -1, 0, 0, 1, 0, 0, 817034.75, 14.162300109863281, -814474.9375, 1 ],
			"children" : [ 1 ]
		},
		{
			"mesh" : 0
		}
	],
	"scenes" : [
		{
			"nodes" : [ 0 ]
		}
	],
	"scene" : 0,
	"accessors" : [
		{
			"bufferView" : 0,
			"byteOffset" : 0,
			"componentType" : 5126,
			"count" : 258,
			"type" : "VEC3",
			"min" : [ -7.5, -6.875, 0 ],
			"max" : [ 7.4375, 6.875, 5.477300643920898 ]
		},
		{
			"bufferView" : 1,
			"byteOffset" : 0,
			"componentType" : 5126,
			"count" : 258,
			"type" : "VEC3",
			"min" : [ -0.8150976896286011, -0.8141940236091614, -1 ],
			"max" : [ 0.8146905899047852, 0.8141138553619385, 1 ]
		},
		{
			"bufferView" : 2,
			"byteOffset" : 0,
			"componentType" : 5126,
			"count" : 258,
			"type" : "VEC3"
		},
		{
			"bufferView" : 3,
			"byteOffset" : 0,
			"componentType" : 5123,
			"count" : 258,
			"type" : "SCALAR",
			"min" : [ 0 ],
			"max" : [ 257 ]
		}
	],
	"bufferViews" : [
		{
			"buffer" : 0,
			"byteOffset" : 0,
			"byteLength" : 3096,
			"target" : 34962
		},
		{
			"buffer" : 0,
			"byteOffset" : 3096,
			"byteLength" : 3096,
			"target" : 34962
		},
		{
			"buffer" : 0,
			"byteOffset" : 6192,
			"byteLength" : 3096,
			"target" : 34962
		},
		{
			"buffer" : 0,
			"byteOffset" : 9288,
			"byteLength" : 516,
			"target" : 34963
		}
	],
	"buffers" : [
		{
			"uri" : "B170341447601062G0.bin",
			"byteLength" : 9804
		}
	]
}
