{
	"asset" : {
		"generator" : "FME 2022.2.4.0",
		"version" : "2.0"
	},
	"materials" : [
		{
			"name" : "default_material",
			"pbrMetallicRoughness" : {
				"baseColorFactor" : [ 1, 1, 1, 1 ],
				"roughnessFactor" : 0.30000000000000004,
				"metallicFactor" : 0.5
			}
		}
	],
	"meshes" : [
		{
			"primitives" : [
				{
					"attributes" : {
						"NORMAL" : 1,
						"POSITION" : 0,
						"COLOR_0" : 2
					},
					"indices" : 3,
					"material" : 0,
					"mode" : 4
				}
			]
		}
	],
	"nodes" : [
		{
			"name" : "B333601649701063C0",
			"matrix" : [ 1, 0, 0, 0, 0, 0, -1, 0, 0, 1, 0, 0, 833359.8125, 2.9459962844848633, -816490.8125, 1 ],
			"children" : [ 1 ]
		},
		{
			"mesh" : 0
		}
	],
	"scenes" : [
		{
			"nodes" : [ 0 ]
		}
	],
	"scene" : 0,
	"accessors" : [
		{
			"bufferView" : 0,
			"byteOffset" : 0,
			"componentType" : 5126,
			"count" : 1647,
			"type" : "VEC3",
			"min" : [ -12.078125, -13.03515625, 0 ],
			"max" : [ 12.0771484375, 13.0341796875, 60.3129997253418 ]
		},
		{
			"bufferView" : 1,
			"byteOffset" : 0,
			"componentType" : 5126,
			"count" : 1647,
			"type" : "VEC3",
			"min" : [ -0.7739458680152893, -0.7651196122169495, -1 ],
			"max" : [ 0.8419637084007263, 0.8364890217781067, 1 ]
		},
		{
			"bufferView" : 2,
			"byteOffset" : 0,
			"componentType" : 5126,
			"count" : 1647,
			"type" : "VEC3"
		},
		{
			"bufferView" : 3,
			"byteOffset" : 0,
			"componentType" : 5123,
			"count" : 1647,
			"type" : "SCALAR",
			"min" : [ 0 ],
			"max" : [ 1646 ]
		}
	],
	"bufferViews" : [
		{
			"buffer" : 0,
			"byteOffset" : 0,
			"byteLength" : 19764,
			"target" : 34962
		},
		{
			"buffer" : 0,
			"byteOffset" : 19764,
			"byteLength" : 19764,
			"target" : 34962
		},
		{
			"buffer" : 0,
			"byteOffset" : 39528,
			"byteLength" : 19764,
			"target" : 34962
		},
		{
			"buffer" : 0,
			"byteOffset" : 59292,
			"byteLength" : 3294,
			"target" : 34963
		}
	],
	"buffers" : [
		{
			"uri" : "B333601649701063C0.bin",
			"byteLength" : 62586
		}
	]
}
