{
	"asset" : {
		"generator" : "FME 2023.2.2.0",
		"version" : "2.0"
	},
	"materials" : [
		{
			"name" : "default_material",
			"pbrMetallicRoughness" : {
				"baseColorFactor" : [ 1, 1, 1, 1 ],
				"roughnessFactor" : 0.30000000000000004,
				"metallicFactor" : 0.5
			}
		}
	],
	"meshes" : [
		{
			"primitives" : [
				{
					"attributes" : {
						"NORMAL" : 1,
						"POSITION" : 0,
						"COLOR_0" : 2
					},
					"indices" : 3,
					"material" : 0,
					"mode" : 4
				}
			]
		}
	],
	"nodes" : [
		{
			"name" : "B184281485601062G0",
			"matrix" : [ 1, 0, 0, 0, 0, 0, -1, 0, 0, 1, 0, 0, 818428.75, 4.116700172424316, -814855.125, 1 ],
			"children" : [ 1 ]
		},
		{
			"mesh" : 0
		}
	],
	"scenes" : [
		{
			"nodes" : [ 0 ]
		}
	],
	"scene" : 0,
	"accessors" : [
		{
			"bufferView" : 0,
			"byteOffset" : 0,
			"componentType" : 5126,
			"count" : 120,
			"type" : "VEC3",
			"min" : [ -4.5, -5.25, 0 ],
			"max" : [ 4.5, 5.1875, 3.5070996284484863 ]
		},
		{
			"bufferView" : 1,
			"byteOffset" : 0,
			"componentType" : 5126,
			"count" : 120,
			"type" : "VEC3",
			"min" : [ -0.9839020371437073, -0.9838501214981079, -1 ],
			"max" : [ 0.982607901096344, 0.9838499426841736, 1 ]
		},
		{
			"bufferView" : 2,
			"byteOffset" : 0,
			"componentType" : 5126,
			"count" : 120,
			"type" : "VEC3"
		},
		{
			"bufferView" : 3,
			"byteOffset" : 0,
			"componentType" : 5121,
			"count" : 120,
			"type" : "SCALAR",
			"min" : [ 0 ],
			"max" : [ 119 ]
		}
	],
	"bufferViews" : [
		{
			"buffer" : 0,
			"byteOffset" : 0,
			"byteLength" : 1440,
			"target" : 34962
		},
		{
			"buffer" : 0,
			"byteOffset" : 1440,
			"byteLength" : 1440,
			"target" : 34962
		},
		{
			"buffer" : 0,
			"byteOffset" : 2880,
			"byteLength" : 1440,
			"target" : 34962
		},
		{
			"buffer" : 0,
			"byteOffset" : 4320,
			"byteLength" : 120,
			"target" : 34963
		}
	],
	"buffers" : [
		{
			"uri" : "B184281485601062G0.bin",
			"byteLength" : 4440
		}
	]
}
