{
	"asset" : {
		"generator" : "FME 2023.1.0.0",
		"version" : "2.0"
	},
	"materials" : [
		{
			"name" : "default_material",
			"pbrMetallicRoughness" : {
				"baseColorFactor" : [ 1, 1, 1, 1 ],
				"roughnessFactor" : 0.30000000000000004,
				"metallicFactor" : 0.5
			}
		}
	],
	"meshes" : [
		{
			"primitives" : [
				{
					"attributes" : {
						"NORMAL" : 1,
						"POSITION" : 0,
						"COLOR_0" : 2
					},
					"indices" : 3,
					"material" : 0,
					"mode" : 4
				}
			]
		}
	],
	"nodes" : [
		{
			"name" : "B334651614101063C0",
			"matrix" : [ 1, 0, 0, 0, 0, 0, -1, 0, 0, 1, 0, 0, 833462.8125, 26.7030029296875, -816137, 1 ],
			"children" : [ 1 ]
		},
		{
			"mesh" : 0
		}
	],
	"scenes" : [
		{
			"nodes" : [ 0 ]
		}
	],
	"scene" : 0,
	"accessors" : [
		{
			"bufferView" : 0,
			"byteOffset" : 0,
			"componentType" : 5126,
			"count" : 396,
			"type" : "VEC3",
			"min" : [ -6.7958984375, -7.345703125, 0 ],
			"max" : [ 6.794921875, 7.3447265625, 22.834999084472656 ]
		},
		{
			"bufferView" : 1,
			"byteOffset" : 0,
			"componentType" : 5126,
			"count" : 396,
			"type" : "VEC3",
			"min" : [ -0.7568455338478088, -0.7476562857627869, -1 ],
			"max" : [ 0.7521886825561523, 0.7592722177505493, 1 ]
		},
		{
			"bufferView" : 2,
			"byteOffset" : 0,
			"componentType" : 5126,
			"count" : 396,
			"type" : "VEC3"
		},
		{
			"bufferView" : 3,
			"byteOffset" : 0,
			"componentType" : 5123,
			"count" : 396,
			"type" : "SCALAR",
			"min" : [ 0 ],
			"max" : [ 395 ]
		}
	],
	"bufferViews" : [
		{
			"buffer" : 0,
			"byteOffset" : 0,
			"byteLength" : 4752,
			"target" : 34962
		},
		{
			"buffer" : 0,
			"byteOffset" : 4752,
			"byteLength" : 4752,
			"target" : 34962
		},
		{
			"buffer" : 0,
			"byteOffset" : 9504,
			"byteLength" : 4752,
			"target" : 34962
		},
		{
			"buffer" : 0,
			"byteOffset" : 14256,
			"byteLength" : 792,
			"target" : 34963
		}
	],
	"buffers" : [
		{
			"uri" : "B334651614101063C0.bin",
			"byteLength" : 15048
		}
	]
}
