{
	"asset" : {
		"generator" : "FME 2023.1.0.0",
		"version" : "2.0"
	},
	"materials" : [
		{
			"name" : "default_material",
			"pbrMetallicRoughness" : {
				"baseColorFactor" : [ 1, 1, 1, 1 ],
				"roughnessFactor" : 0.30000000000000004,
				"metallicFactor" : 0.5
			}
		}
	],
	"meshes" : [
		{
			"primitives" : [
				{
					"attributes" : {
						"NORMAL" : 1,
						"POSITION" : 0,
						"COLOR_0" : 2
					},
					"indices" : 3,
					"material" : 0,
					"mode" : 4
				}
			]
		}
	],
	"nodes" : [
		{
			"name" : "I254702348107063C0",
			"matrix" : [ 1, 0, 0, 0, 0, 0, -1, 0, 0, 1, 0, 0, 826001.6875, 5.8600006103515625, -823659.5625, 1 ],
			"children" : [ 1 ]
		},
		{
			"mesh" : 0
		}
	],
	"scenes" : [
		{
			"nodes" : [ 0 ]
		}
	],
	"scene" : 0,
	"accessors" : [
		{
			"bufferView" : 0,
			"byteOffset" : 0,
			"componentType" : 5126,
			"count" : 54057,
			"type" : "VEC3",
			"min" : [ -531.931640625, -179.05078125, 0 ],
			"max" : [ 531.93359375, 179.05078125, 85.35299682617188 ]
		},
		{
			"bufferView" : 1,
			"byteOffset" : 0,
			"componentType" : 5126,
			"count" : 54057,
			"type" : "VEC3",
			"min" : [ -1, -1, -1 ],
			"max" : [ 1, 1, 1 ]
		},
		{
			"bufferView" : 2,
			"byteOffset" : 0,
			"componentType" : 5126,
			"count" : 54057,
			"type" : "VEC3"
		},
		{
			"bufferView" : 3,
			"byteOffset" : 0,
			"componentType" : 5123,
			"count" : 54057,
			"type" : "SCALAR",
			"min" : [ 0 ],
			"max" : [ 54056 ]
		}
	],
	"bufferViews" : [
		{
			"buffer" : 0,
			"byteOffset" : 0,
			"byteLength" : 648684,
			"target" : 34962
		},
		{
			"buffer" : 0,
			"byteOffset" : 648684,
			"byteLength" : 648684,
			"target" : 34962
		},
		{
			"buffer" : 0,
			"byteOffset" : 1297368,
			"byteLength" : 648684,
			"target" : 34962
		},
		{
			"buffer" : 0,
			"byteOffset" : 1946052,
			"byteLength" : 108114,
			"target" : 34963
		}
	],
	"buffers" : [
		{
			"uri" : "I254702348107063C0.bin",
			"byteLength" : 2054166
		}
	]
}
