{
	"asset" : {
		"generator" : "FME 2023.1.0.0",
		"version" : "2.0"
	},
	"images" : [
		{
			"uri" : "T15750300000106E10_001.jpg"
		}
	],
	"samplers" : [
		{
			"wrapS" : 10497,
			"wrapT" : 10497,
			"magFilter" : 9729,
			"minFilter" : 9986
		}
	],
	"textures" : [
		{
			"source" : 0,
			"sampler" : 0
		}
	],
	"materials" : [
		{
			"name" : "T15750300000106E1001",
			"pbrMetallicRoughness" : {
				"baseColorTexture" : {
					"index" : 0,
					"texCoord" : 0
				},
				"roughnessFactor" : 0.984375,
				"metallicFactor" : 0.5
			}
		}
	],
	"meshes" : [
		{
			"primitives" : [
				{
					"attributes" : {
						"NORMAL" : 1,
						"POSITION" : 0,
						"TEXCOORD_0" : 2
					},
					"indices" : 3,
					"material" : 0,
					"mode" : 4
				}
			]
		}
	],
	"nodes" : [
		{
			"name" : "T15750300000106E10",
			"matrix" : [ 1, 0, 0, 0, 0, 0, -1, 0, 0, 1, 0, 0, 816125, 0.9179840087890625, -830300, 1 ],
			"children" : [ 1 ]
		},
		{
			"mesh" : 0
		}
	],
	"scenes" : [
		{
			"nodes" : [ 0 ]
		}
	],
	"scene" : 0,
	"accessors" : [
		{
			"bufferView" : 0,
			"byteOffset" : 0,
			"componentType" : 5126,
			"count" : 226608,
			"type" : "VEC3",
			"min" : [ -374.9986572265625, -300.0000305175781, 0 ],
			"max" : [ 375.001953125, 300, 59.82191467285156 ]
		},
		{
			"bufferView" : 1,
			"byteOffset" : 0,
			"componentType" : 5126,
			"count" : 226608,
			"type" : "VEC3",
			"min" : [ -0.9999660849571228, -1, -1 ],
			"max" : [ 1, 0.999846339225769, 1 ]
		},
		{
			"bufferView" : 2,
			"byteOffset" : 0,
			"componentType" : 5126,
			"count" : 226608,
			"type" : "VEC2",
			"min" : [ 6.61611557006836e-5, 8.296966552734375e-5 ],
			"max" : [ 0.9999338984489441, 0.9999167919158936 ]
		},
		{
			"bufferView" : 3,
			"byteOffset" : 0,
			"componentType" : 5125,
			"count" : 226608,
			"type" : "SCALAR",
			"min" : [ 0 ],
			"max" : [ 226607 ]
		}
	],
	"bufferViews" : [
		{
			"buffer" : 0,
			"byteOffset" : 0,
			"byteLength" : 2719296,
			"target" : 34962
		},
		{
			"buffer" : 0,
			"byteOffset" : 2719296,
			"byteLength" : 2719296,
			"target" : 34962
		},
		{
			"buffer" : 0,
			"byteOffset" : 5438592,
			"byteLength" : 1812864,
			"target" : 34962
		},
		{
			"buffer" : 0,
			"byteOffset" : 7251456,
			"byteLength" : 906432,
			"target" : 34963
		}
	],
	"buffers" : [
		{
			"uri" : "T15750300000106E10.bin",
			"byteLength" : 8157888
		}
	]
}