{
	"asset" : {
		"generator" : "FME 2023.2.1.0",
		"version" : "2.0"
	},
	"materials" : [
		{
			"name" : "default_material",
			"pbrMetallicRoughness" : {
				"baseColorFactor" : [ 1, 1, 1, 1 ],
				"roughnessFactor" : 0.30000000000000004,
				"metallicFactor" : 0.5
			}
		}
	],
	"meshes" : [
		{
			"primitives" : [
				{
					"attributes" : {
						"NORMAL" : 1,
						"POSITION" : 0,
						"COLOR_0" : 2
					},
					"indices" : 3,
					"material" : 0,
					"mode" : 4
				}
			]
		}
	],
	"nodes" : [
		{
			"name" : "B356441521401063C0",
			"matrix" : [ 1, 0, 0, 0, 0, 0, -1, 0, 0, 1, 0, 0, 835645.125, 11.255999565124512, -815213, 1 ],
			"children" : [ 1 ]
		},
		{
			"mesh" : 0
		}
	],
	"scenes" : [
		{
			"nodes" : [ 0 ]
		}
	],
	"scene" : 0,
	"accessors" : [
		{
			"bufferView" : 0,
			"byteOffset" : 0,
			"componentType" : 5126,
			"count" : 1158,
			"type" : "VEC3",
			"min" : [ -8.791015625, -7.80078125, 0 ],
			"max" : [ 8.791015625, 7.8017578125, 70.68899536132812 ]
		},
		{
			"bufferView" : 1,
			"byteOffset" : 0,
			"componentType" : 5126,
			"count" : 1158,
			"type" : "VEC3",
			"min" : [ -0.8673125505447388, -0.8625732064247131, -1 ],
			"max" : [ 0.8634268641471863, 0.8622999787330627, 1 ]
		},
		{
			"bufferView" : 2,
			"byteOffset" : 0,
			"componentType" : 5126,
			"count" : 1158,
			"type" : "VEC3"
		},
		{
			"bufferView" : 3,
			"byteOffset" : 0,
			"componentType" : 5123,
			"count" : 1158,
			"type" : "SCALAR",
			"min" : [ 0 ],
			"max" : [ 1157 ]
		}
	],
	"bufferViews" : [
		{
			"buffer" : 0,
			"byteOffset" : 0,
			"byteLength" : 13896,
			"target" : 34962
		},
		{
			"buffer" : 0,
			"byteOffset" : 13896,
			"byteLength" : 13896,
			"target" : 34962
		},
		{
			"buffer" : 0,
			"byteOffset" : 27792,
			"byteLength" : 13896,
			"target" : 34962
		},
		{
			"buffer" : 0,
			"byteOffset" : 41688,
			"byteLength" : 2316,
			"target" : 34963
		}
	],
	"buffers" : [
		{
			"uri" : "B356441521401063C0.bin",
			"byteLength" : 44004
		}
	]
}
