{
	"asset" : {
		"generator" : "FME 2023.1.0.0",
		"version" : "2.0"
	},
	"materials" : [
		{
			"name" : "default_material",
			"pbrMetallicRoughness" : {
				"baseColorFactor" : [ 1, 1, 1, 1 ],
				"roughnessFactor" : 0.30000000000000004,
				"metallicFactor" : 0.5
			}
		}
	],
	"meshes" : [
		{
			"primitives" : [
				{
					"attributes" : {
						"NORMAL" : 1,
						"POSITION" : 0,
						"COLOR_0" : 2
					},
					"indices" : 3,
					"material" : 0,
					"mode" : 4
				}
			]
		}
	],
	"nodes" : [
		{
			"name" : "B339211597701063C0",
			"matrix" : [ 1, 0, 0, 0, 0, 0, -1, 0, 0, 1, 0, 0, 833923.625, 24.4950008392334, -815974.3125, 1 ],
			"children" : [ 1 ]
		},
		{
			"mesh" : 0
		}
	],
	"scenes" : [
		{
			"nodes" : [ 0 ]
		}
	],
	"scene" : 0,
	"accessors" : [
		{
			"bufferView" : 0,
			"byteOffset" : 0,
			"componentType" : 5126,
			"count" : 441,
			"type" : "VEC3",
			"min" : [ -6.0703125, -7.0283203125, 0 ],
			"max" : [ 6.0712890625, 7.0283203125, 18.114999771118164 ]
		},
		{
			"bufferView" : 1,
			"byteOffset" : 0,
			"componentType" : 5126,
			"count" : 441,
			"type" : "VEC3",
			"min" : [ -0.7236043214797974, -0.7281157374382019, -0.9918469190597534 ],
			"max" : [ 0.7345069050788879, 0.8546462059020996, 1 ]
		},
		{
			"bufferView" : 2,
			"byteOffset" : 0,
			"componentType" : 5126,
			"count" : 441,
			"type" : "VEC3"
		},
		{
			"bufferView" : 3,
			"byteOffset" : 0,
			"componentType" : 5123,
			"count" : 441,
			"type" : "SCALAR",
			"min" : [ 0 ],
			"max" : [ 440 ]
		}
	],
	"bufferViews" : [
		{
			"buffer" : 0,
			"byteOffset" : 0,
			"byteLength" : 5292,
			"target" : 34962
		},
		{
			"buffer" : 0,
			"byteOffset" : 5292,
			"byteLength" : 5292,
			"target" : 34962
		},
		{
			"buffer" : 0,
			"byteOffset" : 10584,
			"byteLength" : 5292,
			"target" : 34962
		},
		{
			"buffer" : 0,
			"byteOffset" : 15876,
			"byteLength" : 882,
			"target" : 34963
		}
	],
	"buffers" : [
		{
			"uri" : "B339211597701063C0.bin",
			"byteLength" : 16758
		}
	]
}
