{
	"asset" : {
		"generator" : "FME 2022.2.4.0",
		"version" : "2.0"
	},
	"materials" : [
		{
			"name" : "default_material",
			"pbrMetallicRoughness" : {
				"baseColorFactor" : [ 1, 1, 1, 1 ],
				"roughnessFactor" : 0.30000000000000004,
				"metallicFactor" : 0.5
			}
		}
	],
	"meshes" : [
		{
			"primitives" : [
				{
					"attributes" : {
						"NORMAL" : 1,
						"POSITION" : 0,
						"COLOR_0" : 2
					},
					"indices" : 3,
					"material" : 0,
					"mode" : 4
				}
			]
		}
	],
	"nodes" : [
		{
			"name" : "B340761584901063C0",
			"matrix" : [ 1, 0, 0, 0, 0, 0, -1, 0, 0, 1, 0, 0, 834075.1875, 12.857000350952148, -815844.5, 1 ],
			"children" : [ 1 ]
		},
		{
			"mesh" : 0
		}
	],
	"scenes" : [
		{
			"nodes" : [ 0 ]
		}
	],
	"scene" : 0,
	"accessors" : [
		{
			"bufferView" : 0,
			"byteOffset" : 0,
			"componentType" : 5126,
			"count" : 3681,
			"type" : "VEC3",
			"min" : [ -15.4658203125, -15.51171875, 0 ],
			"max" : [ 15.466796875, 15.5107421875, 69.50999450683594 ]
		},
		{
			"bufferView" : 1,
			"byteOffset" : 0,
			"componentType" : 5126,
			"count" : 3681,
			"type" : "VEC3",
			"min" : [ -1, -1, -1 ],
			"max" : [ 0.9797149300575256, 0.993746817111969, 1 ]
		},
		{
			"bufferView" : 2,
			"byteOffset" : 0,
			"componentType" : 5126,
			"count" : 3681,
			"type" : "VEC3"
		},
		{
			"bufferView" : 3,
			"byteOffset" : 0,
			"componentType" : 5123,
			"count" : 3681,
			"type" : "SCALAR",
			"min" : [ 0 ],
			"max" : [ 3680 ]
		}
	],
	"bufferViews" : [
		{
			"buffer" : 0,
			"byteOffset" : 0,
			"byteLength" : 44172,
			"target" : 34962
		},
		{
			"buffer" : 0,
			"byteOffset" : 44172,
			"byteLength" : 44172,
			"target" : 34962
		},
		{
			"buffer" : 0,
			"byteOffset" : 88344,
			"byteLength" : 44172,
			"target" : 34962
		},
		{
			"buffer" : 0,
			"byteOffset" : 132516,
			"byteLength" : 7362,
			"target" : 34963
		}
	],
	"buffers" : [
		{
			"uri" : "B340761584901063C0.bin",
			"byteLength" : 139878
		}
	]
}
