{
	"asset" : {
		"generator" : "FME 2023.1.0.0",
		"version" : "2.0"
	},
	"materials" : [
		{
			"name" : "default_material",
			"pbrMetallicRoughness" : {
				"baseColorFactor" : [ 1, 1, 1, 1 ],
				"roughnessFactor" : 0.30000000000000004,
				"metallicFactor" : 0.5
			}
		}
	],
	"meshes" : [
		{
			"primitives" : [
				{
					"attributes" : {
						"NORMAL" : 1,
						"POSITION" : 0,
						"COLOR_0" : 2
					},
					"indices" : 3,
					"material" : 0,
					"mode" : 4
				}
			]
		}
	],
	"nodes" : [
		{
			"name" : "B337081561301063C0",
			"matrix" : [ 1, 0, 0, 0, 0, 0, -1, 0, 0, 1, 0, 0, 833708.8125, 114.3290023803711, -815612.125, 1 ],
			"children" : [ 1 ]
		},
		{
			"mesh" : 0
		}
	],
	"scenes" : [
		{
			"nodes" : [ 0 ]
		}
	],
	"scene" : 0,
	"accessors" : [
		{
			"bufferView" : 0,
			"byteOffset" : 0,
			"componentType" : 5126,
			"count" : 1215,
			"type" : "VEC3",
			"min" : [ -8.34765625, -6.4208984375, 0 ],
			"max" : [ 8.3486328125, 6.4208984375, 75.2979965209961 ]
		},
		{
			"bufferView" : 1,
			"byteOffset" : 0,
			"componentType" : 5126,
			"count" : 1215,
			"type" : "VEC3",
			"min" : [ -0.9859607815742493, -0.9988793730735779, -1 ],
			"max" : [ 0.9863009452819824, 0.9988424181938171, 1 ]
		},
		{
			"bufferView" : 2,
			"byteOffset" : 0,
			"componentType" : 5126,
			"count" : 1215,
			"type" : "VEC3"
		},
		{
			"bufferView" : 3,
			"byteOffset" : 0,
			"componentType" : 5123,
			"count" : 1215,
			"type" : "SCALAR",
			"min" : [ 0 ],
			"max" : [ 1214 ]
		}
	],
	"bufferViews" : [
		{
			"buffer" : 0,
			"byteOffset" : 0,
			"byteLength" : 14580,
			"target" : 34962
		},
		{
			"buffer" : 0,
			"byteOffset" : 14580,
			"byteLength" : 14580,
			"target" : 34962
		},
		{
			"buffer" : 0,
			"byteOffset" : 29160,
			"byteLength" : 14580,
			"target" : 34962
		},
		{
			"buffer" : 0,
			"byteOffset" : 43740,
			"byteLength" : 2430,
			"target" : 34963
		}
	],
	"buffers" : [
		{
			"uri" : "B337081561301063C0.bin",
			"byteLength" : 46170
		}
	]
}
