{
	"asset" : {
		"generator" : "FME 2023.1.0.0",
		"version" : "2.0"
	},
	"materials" : [
		{
			"name" : "default_material",
			"pbrMetallicRoughness" : {
				"baseColorFactor" : [ 1, 1, 1, 1 ],
				"roughnessFactor" : 0.30000000000000004,
				"metallicFactor" : 0.5
			}
		}
	],
	"meshes" : [
		{
			"primitives" : [
				{
					"attributes" : {
						"NORMAL" : 1,
						"POSITION" : 0,
						"COLOR_0" : 2
					},
					"indices" : 3,
					"material" : 0,
					"mode" : 4
				}
			]
		}
	],
	"nodes" : [
		{
			"name" : "B350621560802063C0",
			"matrix" : [ 1, 0, 0, 0, 0, 0, -1, 0, 0, 1, 0, 0, 835057.625, 5.673003673553467, -815612.625, 1 ],
			"children" : [ 1 ]
		},
		{
			"mesh" : 0
		}
	],
	"scenes" : [
		{
			"nodes" : [ 0 ]
		}
	],
	"scene" : 0,
	"accessors" : [
		{
			"bufferView" : 0,
			"byteOffset" : 0,
			"componentType" : 5126,
			"count" : 3435,
			"type" : "VEC3",
			"min" : [ -66.423828125, -44.080078125, 0 ],
			"max" : [ 66.423828125, 44.080078125, 19.94900131225586 ]
		},
		{
			"bufferView" : 1,
			"byteOffset" : 0,
			"componentType" : 5126,
			"count" : 3435,
			"type" : "VEC3",
			"min" : [ -0.8334075212478638, -0.8331391215324402, -1 ],
			"max" : [ 0.8463847637176514, 0.8444770574569702, 1 ]
		},
		{
			"bufferView" : 2,
			"byteOffset" : 0,
			"componentType" : 5126,
			"count" : 3435,
			"type" : "VEC3"
		},
		{
			"bufferView" : 3,
			"byteOffset" : 0,
			"componentType" : 5123,
			"count" : 3435,
			"type" : "SCALAR",
			"min" : [ 0 ],
			"max" : [ 3434 ]
		}
	],
	"bufferViews" : [
		{
			"buffer" : 0,
			"byteOffset" : 0,
			"byteLength" : 41220,
			"target" : 34962
		},
		{
			"buffer" : 0,
			"byteOffset" : 41220,
			"byteLength" : 41220,
			"target" : 34962
		},
		{
			"buffer" : 0,
			"byteOffset" : 82440,
			"byteLength" : 41220,
			"target" : 34962
		},
		{
			"buffer" : 0,
			"byteOffset" : 123660,
			"byteLength" : 6870,
			"target" : 34963
		}
	],
	"buffers" : [
		{
			"uri" : "B350621560802063C0.bin",
			"byteLength" : 130530
		}
	]
}
