{
	"asset" : {
		"generator" : "FME 2022.2.4.0",
		"version" : "2.0"
	},
	"materials" : [
		{
			"name" : "default_material",
			"pbrMetallicRoughness" : {
				"baseColorFactor" : [ 1, 1, 1, 1 ],
				"roughnessFactor" : 0.30000000000000004,
				"metallicFactor" : 0.5
			}
		}
	],
	"meshes" : [
		{
			"primitives" : [
				{
					"attributes" : {
						"NORMAL" : 1,
						"POSITION" : 0,
						"COLOR_0" : 2
					},
					"indices" : 3,
					"material" : 0,
					"mode" : 4
				}
			]
		}
	],
	"nodes" : [
		{
			"name" : "B169781476901062G0",
			"matrix" : [ 1, 0, 0, 0, 0, 0, -1, 0, 0, 1, 0, 0, 816978.5, 25.110300064086914, -814769.5, 1 ],
			"children" : [ 1 ]
		},
		{
			"mesh" : 0
		}
	],
	"scenes" : [
		{
			"nodes" : [ 0 ]
		}
	],
	"scene" : 0,
	"accessors" : [
		{
			"bufferView" : 0,
			"byteOffset" : 0,
			"componentType" : 5126,
			"count" : 336,
			"type" : "VEC3",
			"min" : [ -6.125, -5.5625, 0 ],
			"max" : [ 6.125, 5.625, 10.738401412963867 ]
		},
		{
			"bufferView" : 1,
			"byteOffset" : 0,
			"componentType" : 5126,
			"count" : 336,
			"type" : "VEC3",
			"min" : [ -0.7572925686836243, -0.7751158475875854, -1 ],
			"max" : [ 0.7744007706642151, 0.7662007212638855, 1 ]
		},
		{
			"bufferView" : 2,
			"byteOffset" : 0,
			"componentType" : 5126,
			"count" : 336,
			"type" : "VEC3"
		},
		{
			"bufferView" : 3,
			"byteOffset" : 0,
			"componentType" : 5123,
			"count" : 336,
			"type" : "SCALAR",
			"min" : [ 0 ],
			"max" : [ 335 ]
		}
	],
	"bufferViews" : [
		{
			"buffer" : 0,
			"byteOffset" : 0,
			"byteLength" : 4032,
			"target" : 34962
		},
		{
			"buffer" : 0,
			"byteOffset" : 4032,
			"byteLength" : 4032,
			"target" : 34962
		},
		{
			"buffer" : 0,
			"byteOffset" : 8064,
			"byteLength" : 4032,
			"target" : 34962
		},
		{
			"buffer" : 0,
			"byteOffset" : 12096,
			"byteLength" : 672,
			"target" : 34963
		}
	],
	"buffers" : [
		{
			"uri" : "B169781476901062G0.bin",
			"byteLength" : 12768
		}
	]
}
