{
	"asset" : {
		"generator" : "FME 2022.2.4.0",
		"version" : "2.0"
	},
	"materials" : [
		{
			"name" : "default_material",
			"pbrMetallicRoughness" : {
				"baseColorFactor" : [ 1, 1, 1, 1 ],
				"roughnessFactor" : 0.30000000000000004,
				"metallicFactor" : 0.5
			}
		}
	],
	"meshes" : [
		{
			"primitives" : [
				{
					"attributes" : {
						"NORMAL" : 1,
						"POSITION" : 0,
						"COLOR_0" : 2
					},
					"indices" : 3,
					"material" : 0,
					"mode" : 4
				}
			]
		}
	],
	"nodes" : [
		{
			"name" : "B357571520501063C0",
			"matrix" : [ 1, 0, 0, 0, 0, 0, -1, 0, 0, 1, 0, 0, 835754.3125, 4.367000102996826, -815206.625, 1 ],
			"children" : [ 1 ]
		},
		{
			"mesh" : 0
		}
	],
	"scenes" : [
		{
			"nodes" : [ 0 ]
		}
	],
	"scene" : 0,
	"accessors" : [
		{
			"bufferView" : 0,
			"byteOffset" : 0,
			"componentType" : 5126,
			"count" : 489,
			"type" : "VEC3",
			"min" : [ -5.5859375, -4.9287109375, 0 ],
			"max" : [ 5.5869140625, 4.9287109375, 22.601001739501953 ]
		},
		{
			"bufferView" : 1,
			"byteOffset" : 0,
			"componentType" : 5126,
			"count" : 489,
			"type" : "VEC3",
			"min" : [ -0.9120537638664246, -0.9115051031112671, -1 ],
			"max" : [ 0.914349377155304, 0.9160608649253845, 1 ]
		},
		{
			"bufferView" : 2,
			"byteOffset" : 0,
			"componentType" : 5126,
			"count" : 489,
			"type" : "VEC3"
		},
		{
			"bufferView" : 3,
			"byteOffset" : 0,
			"componentType" : 5123,
			"count" : 489,
			"type" : "SCALAR",
			"min" : [ 0 ],
			"max" : [ 488 ]
		}
	],
	"bufferViews" : [
		{
			"buffer" : 0,
			"byteOffset" : 0,
			"byteLength" : 5868,
			"target" : 34962
		},
		{
			"buffer" : 0,
			"byteOffset" : 5868,
			"byteLength" : 5868,
			"target" : 34962
		},
		{
			"buffer" : 0,
			"byteOffset" : 11736,
			"byteLength" : 5868,
			"target" : 34962
		},
		{
			"buffer" : 0,
			"byteOffset" : 17604,
			"byteLength" : 978,
			"target" : 34963
		}
	],
	"buffers" : [
		{
			"uri" : "B357571520501063C0.bin",
			"byteLength" : 18582
		}
	]
}
