{
	"asset" : {
		"generator" : "FME 2022.2.4.0",
		"version" : "2.0"
	},
	"materials" : [
		{
			"name" : "default_material",
			"pbrMetallicRoughness" : {
				"baseColorFactor" : [ 1, 1, 1, 1 ],
				"roughnessFactor" : 0.30000000000000004,
				"metallicFactor" : 0.5
			}
		}
	],
	"meshes" : [
		{
			"primitives" : [
				{
					"attributes" : {
						"NORMAL" : 1,
						"POSITION" : 0,
						"COLOR_0" : 2
					},
					"indices" : 3,
					"material" : 0,
					"mode" : 4
				}
			]
		}
	],
	"nodes" : [
		{
			"name" : "B359901518202063C0",
			"matrix" : [ 1, 0, 0, 0, 0, 0, -1, 0, 0, 1, 0, 0, 835994.125, 4.61299991607666, -815167.25, 1 ],
			"children" : [ 1 ]
		},
		{
			"mesh" : 0
		}
	],
	"scenes" : [
		{
			"nodes" : [ 0 ]
		}
	],
	"scene" : 0,
	"accessors" : [
		{
			"bufferView" : 0,
			"byteOffset" : 0,
			"componentType" : 5126,
			"count" : 2034,
			"type" : "VEC3",
			"min" : [ -18.65234375, -41.4775390625, 0 ],
			"max" : [ 18.65234375, 41.4775390625, 21.96200180053711 ]
		},
		{
			"bufferView" : 1,
			"byteOffset" : 0,
			"componentType" : 5126,
			"count" : 2034,
			"type" : "VEC3",
			"min" : [ -0.9982432723045349, -0.9951111078262329, -1 ],
			"max" : [ 0.999563992023468, 0.9951111078262329, 1 ]
		},
		{
			"bufferView" : 2,
			"byteOffset" : 0,
			"componentType" : 5126,
			"count" : 2034,
			"type" : "VEC3"
		},
		{
			"bufferView" : 3,
			"byteOffset" : 0,
			"componentType" : 5123,
			"count" : 2034,
			"type" : "SCALAR",
			"min" : [ 0 ],
			"max" : [ 2033 ]
		}
	],
	"bufferViews" : [
		{
			"buffer" : 0,
			"byteOffset" : 0,
			"byteLength" : 24408,
			"target" : 34962
		},
		{
			"buffer" : 0,
			"byteOffset" : 24408,
			"byteLength" : 24408,
			"target" : 34962
		},
		{
			"buffer" : 0,
			"byteOffset" : 48816,
			"byteLength" : 24408,
			"target" : 34962
		},
		{
			"buffer" : 0,
			"byteOffset" : 73224,
			"byteLength" : 4068,
			"target" : 34963
		}
	],
	"buffers" : [
		{
			"uri" : "B359901518202063C0.bin",
			"byteLength" : 77292
		}
	]
}
