{
	"asset" : {
		"generator" : "FME 2023.2.2.0",
		"version" : "2.0"
	},
	"materials" : [
		{
			"name" : "default_material",
			"pbrMetallicRoughness" : {
				"baseColorFactor" : [ 1, 1, 1, 1 ],
				"roughnessFactor" : 0.30000000000000004,
				"metallicFactor" : 0.5
			}
		}
	],
	"meshes" : [
		{
			"primitives" : [
				{
					"attributes" : {
						"NORMAL" : 1,
						"POSITION" : 0,
						"COLOR_0" : 2
					},
					"indices" : 3,
					"material" : 0,
					"mode" : 4
				}
			]
		}
	],
	"nodes" : [
		{
			"name" : "B170491474501062G0",
			"matrix" : [ 1, 0, 0, 0, 0, 0, -1, 0, 0, 1, 0, 0, 817049, 18.372800827026367, -814744.5, 1 ],
			"children" : [ 1 ]
		},
		{
			"mesh" : 0
		}
	],
	"scenes" : [
		{
			"nodes" : [ 0 ]
		}
	],
	"scene" : 0,
	"accessors" : [
		{
			"bufferView" : 0,
			"byteOffset" : 0,
			"componentType" : 5126,
			"count" : 252,
			"type" : "VEC3",
			"min" : [ -6.6875, -6.375, 0 ],
			"max" : [ 6.6875, 6.4375, 10.630498886108398 ]
		},
		{
			"bufferView" : 1,
			"byteOffset" : 0,
			"componentType" : 5126,
			"count" : 252,
			"type" : "VEC3",
			"min" : [ -0.7573818564414978, -0.7612188458442688, -1 ],
			"max" : [ 0.757292628288269, 0.753197431564331, 1 ]
		},
		{
			"bufferView" : 2,
			"byteOffset" : 0,
			"componentType" : 5126,
			"count" : 252,
			"type" : "VEC3"
		},
		{
			"bufferView" : 3,
			"byteOffset" : 0,
			"componentType" : 5121,
			"count" : 252,
			"type" : "SCALAR",
			"min" : [ 0 ],
			"max" : [ 251 ]
		}
	],
	"bufferViews" : [
		{
			"buffer" : 0,
			"byteOffset" : 0,
			"byteLength" : 3024,
			"target" : 34962
		},
		{
			"buffer" : 0,
			"byteOffset" : 3024,
			"byteLength" : 3024,
			"target" : 34962
		},
		{
			"buffer" : 0,
			"byteOffset" : 6048,
			"byteLength" : 3024,
			"target" : 34962
		},
		{
			"buffer" : 0,
			"byteOffset" : 9072,
			"byteLength" : 252,
			"target" : 34963
		}
	],
	"buffers" : [
		{
			"uri" : "B170491474501062G0.bin",
			"byteLength" : 9324
		}
	]
}
