{
	"asset" : {
		"generator" : "FME 2023.2.2.0",
		"version" : "2.0"
	},
	"materials" : [
		{
			"name" : "default_material",
			"pbrMetallicRoughness" : {
				"baseColorFactor" : [ 1, 1, 1, 1 ],
				"roughnessFactor" : 0.30000000000000004,
				"metallicFactor" : 0.5
			}
		}
	],
	"meshes" : [
		{
			"primitives" : [
				{
					"attributes" : {
						"NORMAL" : 1,
						"POSITION" : 0,
						"COLOR_0" : 2
					},
					"indices" : 3,
					"material" : 0,
					"mode" : 4
				}
			]
		}
	],
	"nodes" : [
		{
			"name" : "B358881720201063C0",
			"matrix" : [ 1, 0, 0, 0, 0, 0, -1, 0, 0, 1, 0, 0, 835888.5, 4.0269999504089355, -817202.375, 1 ],
			"children" : [ 1 ]
		},
		{
			"mesh" : 0
		}
	],
	"scenes" : [
		{
			"nodes" : [ 0 ]
		}
	],
	"scene" : 0,
	"accessors" : [
		{
			"bufferView" : 0,
			"byteOffset" : 0,
			"componentType" : 5126,
			"count" : 150,
			"type" : "VEC3",
			"min" : [ -2.5458984375, -3.9140625, 0 ],
			"max" : [ 2.474609375, 3.9521484375, 3.1047000885009766 ]
		},
		{
			"bufferView" : 1,
			"byteOffset" : 0,
			"componentType" : 5126,
			"count" : 150,
			"type" : "VEC3",
			"min" : [ -0.9980098009109497, -0.7801517248153687, -0.006357608828693628 ],
			"max" : [ 0.9980477690696716, 0.9982316493988037, 1 ]
		},
		{
			"bufferView" : 2,
			"byteOffset" : 0,
			"componentType" : 5126,
			"count" : 150,
			"type" : "VEC3"
		},
		{
			"bufferView" : 3,
			"byteOffset" : 0,
			"componentType" : 5121,
			"count" : 150,
			"type" : "SCALAR",
			"min" : [ 0 ],
			"max" : [ 149 ]
		}
	],
	"bufferViews" : [
		{
			"buffer" : 0,
			"byteOffset" : 0,
			"byteLength" : 1800,
			"target" : 34962
		},
		{
			"buffer" : 0,
			"byteOffset" : 1800,
			"byteLength" : 1800,
			"target" : 34962
		},
		{
			"buffer" : 0,
			"byteOffset" : 3600,
			"byteLength" : 1800,
			"target" : 34962
		},
		{
			"buffer" : 0,
			"byteOffset" : 5400,
			"byteLength" : 150,
			"target" : 34963
		}
	],
	"buffers" : [
		{
			"uri" : "B358881720201063C0.bin",
			"byteLength" : 5550
		}
	]
}
