{
	"asset" : {
		"generator" : "FME 2023.1.0.0",
		"version" : "2.0"
	},
	"materials" : [
		{
			"name" : "default_material",
			"pbrMetallicRoughness" : {
				"baseColorFactor" : [ 1, 1, 1, 1 ],
				"roughnessFactor" : 0.30000000000000004,
				"metallicFactor" : 0.5
			}
		}
	],
	"meshes" : [
		{
			"primitives" : [
				{
					"attributes" : {
						"NORMAL" : 1,
						"POSITION" : 0,
						"COLOR_0" : 2
					},
					"indices" : 3,
					"material" : 0,
					"mode" : 4
				}
			]
		}
	],
	"nodes" : [
		{
			"name" : "B334601634601063C0",
			"matrix" : [ 1, 0, 0, 0, 0, 0, -1, 0, 0, 1, 0, 0, 833472.5625, 24.544994354248047, -816364.875, 1 ],
			"children" : [ 1 ]
		},
		{
			"mesh" : 0
		}
	],
	"scenes" : [
		{
			"nodes" : [ 0 ]
		}
	],
	"scene" : 0,
	"accessors" : [
		{
			"bufferView" : 0,
			"byteOffset" : 0,
			"componentType" : 5126,
			"count" : 12429,
			"type" : "VEC3",
			"min" : [ -36.1591796875, -37.3349609375, 0 ],
			"max" : [ 36.1591796875, 37.3359375, 62.70199966430664 ]
		},
		{
			"bufferView" : 1,
			"byteOffset" : 0,
			"componentType" : 5126,
			"count" : 12429,
			"type" : "VEC3",
			"min" : [ -0.9991820454597473, -1, -1 ],
			"max" : [ 0.9996117949485779, 1, 1 ]
		},
		{
			"bufferView" : 2,
			"byteOffset" : 0,
			"componentType" : 5126,
			"count" : 12429,
			"type" : "VEC3"
		},
		{
			"bufferView" : 3,
			"byteOffset" : 0,
			"componentType" : 5123,
			"count" : 12429,
			"type" : "SCALAR",
			"min" : [ 0 ],
			"max" : [ 12428 ]
		}
	],
	"bufferViews" : [
		{
			"buffer" : 0,
			"byteOffset" : 0,
			"byteLength" : 149148,
			"target" : 34962
		},
		{
			"buffer" : 0,
			"byteOffset" : 149148,
			"byteLength" : 149148,
			"target" : 34962
		},
		{
			"buffer" : 0,
			"byteOffset" : 298296,
			"byteLength" : 149148,
			"target" : 34962
		},
		{
			"buffer" : 0,
			"byteOffset" : 447444,
			"byteLength" : 24858,
			"target" : 34963
		}
	],
	"buffers" : [
		{
			"uri" : "B334601634601063C0.bin",
			"byteLength" : 472302
		}
	]
}
