{
	"asset" : {
		"generator" : "FME 2023.2.1.0",
		"version" : "2.0"
	},
	"materials" : [
		{
			"name" : "default_material",
			"pbrMetallicRoughness" : {
				"baseColorFactor" : [ 1, 1, 1, 1 ],
				"roughnessFactor" : 0.30000000000000004,
				"metallicFactor" : 0.5
			}
		}
	],
	"meshes" : [
		{
			"primitives" : [
				{
					"attributes" : {
						"NORMAL" : 1,
						"POSITION" : 0,
						"COLOR_0" : 2
					},
					"indices" : 3,
					"material" : 0,
					"mode" : 4
				}
			]
		}
	],
	"nodes" : [
		{
			"name" : "B337471573601063C0",
			"matrix" : [ 1, 0, 0, 0, 0, 0, -1, 0, 0, 1, 0, 0, 833751.0625, 77.41500091552734, -815727.875, 1 ],
			"children" : [ 1 ]
		},
		{
			"mesh" : 0
		}
	],
	"scenes" : [
		{
			"nodes" : [ 0 ]
		}
	],
	"scene" : 0,
	"accessors" : [
		{
			"bufferView" : 0,
			"byteOffset" : 0,
			"componentType" : 5126,
			"count" : 1230,
			"type" : "VEC3",
			"min" : [ -11.296875, -12.0986328125, 0 ],
			"max" : [ 11.296875, 12.0986328125, 32.644996643066406 ]
		},
		{
			"bufferView" : 1,
			"byteOffset" : 0,
			"componentType" : 5126,
			"count" : 1230,
			"type" : "VEC3",
			"min" : [ -0.9271793365478516, -0.9270446300506592, -1 ],
			"max" : [ 0.9267393350601196, 0.926016092300415, 1 ]
		},
		{
			"bufferView" : 2,
			"byteOffset" : 0,
			"componentType" : 5126,
			"count" : 1230,
			"type" : "VEC3"
		},
		{
			"bufferView" : 3,
			"byteOffset" : 0,
			"componentType" : 5123,
			"count" : 1230,
			"type" : "SCALAR",
			"min" : [ 0 ],
			"max" : [ 1229 ]
		}
	],
	"bufferViews" : [
		{
			"buffer" : 0,
			"byteOffset" : 0,
			"byteLength" : 14760,
			"target" : 34962
		},
		{
			"buffer" : 0,
			"byteOffset" : 14760,
			"byteLength" : 14760,
			"target" : 34962
		},
		{
			"buffer" : 0,
			"byteOffset" : 29520,
			"byteLength" : 14760,
			"target" : 34962
		},
		{
			"buffer" : 0,
			"byteOffset" : 44280,
			"byteLength" : 2460,
			"target" : 34963
		}
	],
	"buffers" : [
		{
			"uri" : "B337471573601063C0.bin",
			"byteLength" : 46740
		}
	]
}
