{"accessors":[{"bufferView":0,"componentType":5126,"count":2102,"type":"VEC3"},{"bufferView":1,"componentType":5126,"count":2102,"type":"VEC3"},{"bufferView":2,"componentType":5126,"count":2102,"max":[24.748046875,38.28271484375,26.459003448486328],"min":[-24.748046875,-38.2822265625,0.0],"type":"VEC3"},{"bufferView":3,"componentType":5123,"count":2622,"max":[2101],"min":[0],"type":"SCALAR"}],"asset":{"generator":"FME 2023.1.0.0","version":"2.0"},"bufferViews":[{"buffer":0,"byteLength":25224,"byteOffset":0,"target":34962},{"buffer":0,"byteLength":25224,"byteOffset":25224,"target":34962},{"buffer":0,"byteLength":25224,"byteOffset":50448,"target":34962},{"buffer":0,"byteLength":5244,"byteOffset":75672,"target":34963}],"buffers":[{"byteLength":80916,"uri":"buffer.bin"}],"materials":[{"name":"default_material","pbrMetallicRoughness":{"baseColorFactor":[1,1,1,1],"metallicFactor":0.5,"roughnessFactor":0.30000000000000004}}],"meshes":[{"primitives":[{"attributes":{"COLOR_0":0,"NORMAL":1,"POSITION":2},"indices":3,"material":0,"mode":4}]}],"nodes":[{"children":[1],"matrix":[1,0,0,0,0,0,-1,0,0,1,0,0,834168.8125,57.801998138427734,-811359,1],"name":"B341701135801063C0"},{"mesh":0}],"scene":0,"scenes":[{"nodes":[0]}]}
