{
	"asset" : {
		"generator" : "FME 2023.1.0.0",
		"version" : "2.0"
	},
	"materials" : [
		{
			"name" : "default_material",
			"pbrMetallicRoughness" : {
				"baseColorFactor" : [ 1, 1, 1, 1 ],
				"roughnessFactor" : 0.30000000000000004,
				"metallicFactor" : 0.5
			}
		}
	],
	"meshes" : [
		{
			"primitives" : [
				{
					"attributes" : {
						"NORMAL" : 1,
						"POSITION" : 0,
						"COLOR_0" : 2
					},
					"indices" : 3,
					"material" : 0,
					"mode" : 4
				}
			]
		}
	],
	"nodes" : [
		{
			"name" : "B336591565801063C0",
			"matrix" : [ 1, 0, 0, 0, 0, 0, -1, 0, 0, 1, 0, 0, 833660.9375, 106.06600189208984, -815658.125, 1 ],
			"children" : [ 1 ]
		},
		{
			"mesh" : 0
		}
	],
	"scenes" : [
		{
			"nodes" : [ 0 ]
		}
	],
	"scene" : 0,
	"accessors" : [
		{
			"bufferView" : 0,
			"byteOffset" : 0,
			"componentType" : 5126,
			"count" : 1428,
			"type" : "VEC3",
			"min" : [ -10.3505859375, -10.0478515625, 0 ],
			"max" : [ 10.3515625, 10.0478515625, 75.6679916381836 ]
		},
		{
			"bufferView" : 1,
			"byteOffset" : 0,
			"componentType" : 5126,
			"count" : 1428,
			"type" : "VEC3",
			"min" : [ -0.9955795407295227, -0.9988822340965271, -1 ],
			"max" : [ 0.9955795407295227, 0.9946586489677429, 1 ]
		},
		{
			"bufferView" : 2,
			"byteOffset" : 0,
			"componentType" : 5126,
			"count" : 1428,
			"type" : "VEC3"
		},
		{
			"bufferView" : 3,
			"byteOffset" : 0,
			"componentType" : 5123,
			"count" : 1428,
			"type" : "SCALAR",
			"min" : [ 0 ],
			"max" : [ 1427 ]
		}
	],
	"bufferViews" : [
		{
			"buffer" : 0,
			"byteOffset" : 0,
			"byteLength" : 17136,
			"target" : 34962
		},
		{
			"buffer" : 0,
			"byteOffset" : 17136,
			"byteLength" : 17136,
			"target" : 34962
		},
		{
			"buffer" : 0,
			"byteOffset" : 34272,
			"byteLength" : 17136,
			"target" : 34962
		},
		{
			"buffer" : 0,
			"byteOffset" : 51408,
			"byteLength" : 2856,
			"target" : 34963
		}
	],
	"buffers" : [
		{
			"uri" : "B336591565801063C0.bin",
			"byteLength" : 54264
		}
	]
}
