{
	"asset" : {
		"generator" : "FME 2023.2.1.0",
		"version" : "2.0"
	},
	"materials" : [
		{
			"name" : "default_material",
			"pbrMetallicRoughness" : {
				"baseColorFactor" : [ 1, 1, 1, 1 ],
				"roughnessFactor" : 0.30000000000000004,
				"metallicFactor" : 0.5
			}
		}
	],
	"meshes" : [
		{
			"primitives" : [
				{
					"attributes" : {
						"NORMAL" : 1,
						"POSITION" : 0,
						"COLOR_0" : 2
					},
					"indices" : 3,
					"material" : 0,
					"mode" : 4
				}
			]
		}
	],
	"nodes" : [
		{
			"name" : "B333631651401063C0",
			"matrix" : [ 1, 0, 0, 0, 0, 0, -1, 0, 0, 1, 0, 0, 833369.3125, 2.9000039100646973, -816518.75, 1 ],
			"children" : [ 1 ]
		},
		{
			"mesh" : 0
		}
	],
	"scenes" : [
		{
			"nodes" : [ 0 ]
		}
	],
	"scene" : 0,
	"accessors" : [
		{
			"bufferView" : 0,
			"byteOffset" : 0,
			"componentType" : 5126,
			"count" : 924,
			"type" : "VEC3",
			"min" : [ -7.9814453125, -12.8388671875, 0 ],
			"max" : [ 7.9814453125, 12.837890625, 70.70800018310547 ]
		},
		{
			"bufferView" : 1,
			"byteOffset" : 0,
			"componentType" : 5126,
			"count" : 924,
			"type" : "VEC3",
			"min" : [ -0.980303168296814, -0.9406138062477112, -1 ],
			"max" : [ 0.9469513297080994, 0.944472074508667, 1 ]
		},
		{
			"bufferView" : 2,
			"byteOffset" : 0,
			"componentType" : 5126,
			"count" : 924,
			"type" : "VEC3"
		},
		{
			"bufferView" : 3,
			"byteOffset" : 0,
			"componentType" : 5123,
			"count" : 924,
			"type" : "SCALAR",
			"min" : [ 0 ],
			"max" : [ 923 ]
		}
	],
	"bufferViews" : [
		{
			"buffer" : 0,
			"byteOffset" : 0,
			"byteLength" : 11088,
			"target" : 34962
		},
		{
			"buffer" : 0,
			"byteOffset" : 11088,
			"byteLength" : 11088,
			"target" : 34962
		},
		{
			"buffer" : 0,
			"byteOffset" : 22176,
			"byteLength" : 11088,
			"target" : 34962
		},
		{
			"buffer" : 0,
			"byteOffset" : 33264,
			"byteLength" : 1848,
			"target" : 34963
		}
	],
	"buffers" : [
		{
			"uri" : "B333631651401063C0.bin",
			"byteLength" : 35112
		}
	]
}
