{
	"asset" : {
		"generator" : "FME 2023.1.0.0",
		"version" : "2.0"
	},
	"materials" : [
		{
			"name" : "default_material",
			"pbrMetallicRoughness" : {
				"baseColorFactor" : [ 1, 1, 1, 1 ],
				"roughnessFactor" : 0.30000000000000004,
				"metallicFactor" : 0.5
			}
		}
	],
	"meshes" : [
		{
			"primitives" : [
				{
					"attributes" : {
						"NORMAL" : 1,
						"POSITION" : 0,
						"COLOR_0" : 2
					},
					"indices" : 3,
					"material" : 0,
					"mode" : 4
				}
			]
		}
	],
	"nodes" : [
		{
			"name" : "B336351647402063C0",
			"matrix" : [ 1, 0, 0, 0, 0, 0, -1, 0, 0, 1, 0, 0, 833637.0625, 3.9059998989105225, -816465.5625, 1 ],
			"children" : [ 1 ]
		},
		{
			"mesh" : 0
		}
	],
	"scenes" : [
		{
			"nodes" : [ 0 ]
		}
	],
	"scene" : 0,
	"accessors" : [
		{
			"bufferView" : 0,
			"byteOffset" : 0,
			"componentType" : 5126,
			"count" : 2799,
			"type" : "VEC3",
			"min" : [ -10.48828125, -26.029296875, 0 ],
			"max" : [ 10.48828125, 26.029296875, 18.68000030517578 ]
		},
		{
			"bufferView" : 1,
			"byteOffset" : 0,
			"componentType" : 5126,
			"count" : 2799,
			"type" : "VEC3",
			"min" : [ -1, -0.998553454875946, -1 ],
			"max" : [ 0.999973475933075, 1, 1 ]
		},
		{
			"bufferView" : 2,
			"byteOffset" : 0,
			"componentType" : 5126,
			"count" : 2799,
			"type" : "VEC3"
		},
		{
			"bufferView" : 3,
			"byteOffset" : 0,
			"componentType" : 5123,
			"count" : 2799,
			"type" : "SCALAR",
			"min" : [ 0 ],
			"max" : [ 2798 ]
		}
	],
	"bufferViews" : [
		{
			"buffer" : 0,
			"byteOffset" : 0,
			"byteLength" : 33588,
			"target" : 34962
		},
		{
			"buffer" : 0,
			"byteOffset" : 33588,
			"byteLength" : 33588,
			"target" : 34962
		},
		{
			"buffer" : 0,
			"byteOffset" : 67176,
			"byteLength" : 33588,
			"target" : 34962
		},
		{
			"buffer" : 0,
			"byteOffset" : 100764,
			"byteLength" : 5598,
			"target" : 34963
		}
	],
	"buffers" : [
		{
			"uri" : "B336351647402063C0.bin",
			"byteLength" : 106362
		}
	]
}
