{
	"asset" : {
		"generator" : "FME 2023.2.1.0",
		"version" : "2.0"
	},
	"materials" : [
		{
			"name" : "default_material",
			"pbrMetallicRoughness" : {
				"baseColorFactor" : [ 1, 1, 1, 1 ],
				"roughnessFactor" : 0.30000000000000004,
				"metallicFactor" : 0.5
			}
		}
	],
	"meshes" : [
		{
			"primitives" : [
				{
					"attributes" : {
						"NORMAL" : 1,
						"POSITION" : 0,
						"COLOR_0" : 2
					},
					"indices" : 3,
					"material" : 0,
					"mode" : 4
				}
			]
		}
	],
	"nodes" : [
		{
			"name" : "B330651619402063C0",
			"matrix" : [ 1, 0, 0, 0, 0, 0, -1, 0, 0, 1, 0, 0, 833065.8125, 64.9849853515625, -816197.0625, 1 ],
			"children" : [ 1 ]
		},
		{
			"mesh" : 0
		}
	],
	"scenes" : [
		{
			"nodes" : [ 0 ]
		}
	],
	"scene" : 0,
	"accessors" : [
		{
			"bufferView" : 0,
			"byteOffset" : 0,
			"componentType" : 5126,
			"count" : 2214,
			"type" : "VEC3",
			"min" : [ -8.64892578125, -11.88671875, 0 ],
			"max" : [ 8.6494140625, 11.88671875, 6.204010009765625 ]
		},
		{
			"bufferView" : 1,
			"byteOffset" : 0,
			"componentType" : 5126,
			"count" : 2214,
			"type" : "VEC3",
			"min" : [ -0.9999983906745911, -0.9999969601631165, -1 ],
			"max" : [ 1, 0.9999892711639404, 1 ]
		},
		{
			"bufferView" : 2,
			"byteOffset" : 0,
			"componentType" : 5126,
			"count" : 2214,
			"type" : "VEC3"
		},
		{
			"bufferView" : 3,
			"byteOffset" : 0,
			"componentType" : 5123,
			"count" : 2214,
			"type" : "SCALAR",
			"min" : [ 0 ],
			"max" : [ 2213 ]
		}
	],
	"bufferViews" : [
		{
			"buffer" : 0,
			"byteOffset" : 0,
			"byteLength" : 26568,
			"target" : 34962
		},
		{
			"buffer" : 0,
			"byteOffset" : 26568,
			"byteLength" : 26568,
			"target" : 34962
		},
		{
			"buffer" : 0,
			"byteOffset" : 53136,
			"byteLength" : 26568,
			"target" : 34962
		},
		{
			"buffer" : 0,
			"byteOffset" : 79704,
			"byteLength" : 4428,
			"target" : 34963
		}
	],
	"buffers" : [
		{
			"uri" : "B330651619402063C0.bin",
			"byteLength" : 84132
		}
	]
}
