{"asset":{"generator":"FME 2023.2.1.0","version":"2.0"},"materials":[{"name":"T24000234000106E11","pbrMetallicRoughness":{"roughnessFactor":0.984375,"metallicFactor":0.5}}],"meshes":[{"primitives":[{"attributes":{"NORMAL":1,"POSITION":0,"TEXCOORD_0":2},"indices":3,"material":0,"mode":4}]}],"nodes":[{"name":"T24000234000106E11","matrix":[1,0,0,0,0,0,-1,0,0,1,0,0,824375,-1.0327987670898438,-823700,1],"children":[1]},{"mesh":0}],"scenes":[{"nodes":[0]}],"scene":0,"accessors":[{"bufferView":0,"byteOffset":0,"componentType":5126,"count":77793,"type":"VEC3","min":[-375,-300,0],"max":[375,300,51.532798767089844]},{"bufferView":1,"byteOffset":0,"componentType":5126,"count":77793,"type":"VEC3","min":[-0.9999736547470093,-0.9999864101409912,-0.9965173602104187],"max":[0.9990310668945312,0.999988317489624,1]},{"bufferView":2,"byteOffset":0,"componentType":5126,"count":77793,"type":"VEC2","min":[0.00013318657875061035,0.00016647577285766602],"max":[0.9998668432235718,0.9998335242271423]},{"bufferView":3,"byteOffset":0,"componentType":5125,"count":77793,"type":"SCALAR","min":[0],"max":[77792]}],"bufferViews":[{"buffer":0,"byteOffset":0,"byteLength":933516,"target":34962},{"buffer":0,"byteOffset":933516,"byteLength":933516,"target":34962},{"buffer":0,"byteOffset":1867032,"byteLength":622344,"target":34962},{"buffer":0,"byteOffset":2489376,"byteLength":311172,"target":34963}],"buffers":[{"uri":"T24000234000106E11.bin","byteLength":2800548}]}