{
	"asset" : {
		"generator" : "FME 2023.1.0.0",
		"version" : "2.0"
	},
	"materials" : [
		{
			"name" : "default_material",
			"pbrMetallicRoughness" : {
				"baseColorFactor" : [ 1, 1, 1, 1 ],
				"roughnessFactor" : 0.30000000000000004,
				"metallicFactor" : 0.5
			}
		}
	],
	"meshes" : [
		{
			"primitives" : [
				{
					"attributes" : {
						"NORMAL" : 1,
						"POSITION" : 0,
						"COLOR_0" : 2
					},
					"indices" : 3,
					"material" : 0,
					"mode" : 4
				}
			]
		}
	],
	"nodes" : [
		{
			"name" : "B185201366801062G0",
			"matrix" : [ 1, 0, 0, 0, 0, 0, -1, 0, 0, 1, 0, 0, 818519.5, 3.800100088119507, -813668.125, 1 ],
			"children" : [ 1 ]
		},
		{
			"mesh" : 0
		}
	],
	"scenes" : [
		{
			"nodes" : [ 0 ]
		}
	],
	"scene" : 0,
	"accessors" : [
		{
			"bufferView" : 0,
			"byteOffset" : 0,
			"componentType" : 5126,
			"count" : 186,
			"type" : "VEC3",
			"min" : [ -6.625, -6.6875, 0 ],
			"max" : [ 6.6875, 6.625, 7.420899391174316 ]
		},
		{
			"bufferView" : 1,
			"byteOffset" : 0,
			"componentType" : 5126,
			"count" : 186,
			"type" : "VEC3",
			"min" : [ -0.7929576635360718, -0.792959451675415, 0 ],
			"max" : [ 0.7929570078849792, 0.7929611206054688, 1 ]
		},
		{
			"bufferView" : 2,
			"byteOffset" : 0,
			"componentType" : 5126,
			"count" : 186,
			"type" : "VEC3"
		},
		{
			"bufferView" : 3,
			"byteOffset" : 0,
			"componentType" : 5121,
			"count" : 186,
			"type" : "SCALAR",
			"min" : [ 0 ],
			"max" : [ 185 ]
		}
	],
	"bufferViews" : [
		{
			"buffer" : 0,
			"byteOffset" : 0,
			"byteLength" : 2232,
			"target" : 34962
		},
		{
			"buffer" : 0,
			"byteOffset" : 2232,
			"byteLength" : 2232,
			"target" : 34962
		},
		{
			"buffer" : 0,
			"byteOffset" : 4464,
			"byteLength" : 2232,
			"target" : 34962
		},
		{
			"buffer" : 0,
			"byteOffset" : 6696,
			"byteLength" : 186,
			"target" : 34963
		}
	],
	"buffers" : [
		{
			"uri" : "B185201366801062G0.bin",
			"byteLength" : 6882
		}
	]
}
