{
	"asset" : {
		"generator" : "FME 2023.2.1.0",
		"version" : "2.0"
	},
	"materials" : [
		{
			"name" : "default_material",
			"pbrMetallicRoughness" : {
				"baseColorFactor" : [ 1, 1, 1, 1 ],
				"roughnessFactor" : 0.30000000000000004,
				"metallicFactor" : 0.5
			}
		}
	],
	"meshes" : [
		{
			"primitives" : [
				{
					"attributes" : {
						"NORMAL" : 1,
						"POSITION" : 0,
						"COLOR_0" : 2
					},
					"indices" : 3,
					"material" : 0,
					"mode" : 4
				}
			]
		}
	],
	"nodes" : [
		{
			"name" : "B337691548601063C0",
			"matrix" : [ 1, 0, 0, 0, 0, 0, -1, 0, 0, 1, 0, 0, 833761.75, 126.59400177001953, -815483.4375, 1 ],
			"children" : [ 1 ]
		},
		{
			"mesh" : 0
		}
	],
	"scenes" : [
		{
			"nodes" : [ 0 ]
		}
	],
	"scene" : 0,
	"accessors" : [
		{
			"bufferView" : 0,
			"byteOffset" : 0,
			"componentType" : 5126,
			"count" : 1470,
			"type" : "VEC3",
			"min" : [ -11.6162109375, -12.59375, 0 ],
			"max" : [ 11.6171875, 12.59375, 40.03099822998047 ]
		},
		{
			"bufferView" : 1,
			"byteOffset" : 0,
			"componentType" : 5126,
			"count" : 1470,
			"type" : "VEC3",
			"min" : [ -0.9446309208869934, -0.9456033110618591, -1 ],
			"max" : [ 0.9520970582962036, 0.9460226893424988, 1 ]
		},
		{
			"bufferView" : 2,
			"byteOffset" : 0,
			"componentType" : 5126,
			"count" : 1470,
			"type" : "VEC3"
		},
		{
			"bufferView" : 3,
			"byteOffset" : 0,
			"componentType" : 5123,
			"count" : 1470,
			"type" : "SCALAR",
			"min" : [ 0 ],
			"max" : [ 1469 ]
		}
	],
	"bufferViews" : [
		{
			"buffer" : 0,
			"byteOffset" : 0,
			"byteLength" : 17640,
			"target" : 34962
		},
		{
			"buffer" : 0,
			"byteOffset" : 17640,
			"byteLength" : 17640,
			"target" : 34962
		},
		{
			"buffer" : 0,
			"byteOffset" : 35280,
			"byteLength" : 17640,
			"target" : 34962
		},
		{
			"buffer" : 0,
			"byteOffset" : 52920,
			"byteLength" : 2940,
			"target" : 34963
		}
	],
	"buffers" : [
		{
			"uri" : "B337691548601063C0.bin",
			"byteLength" : 55860
		}
	]
}
