{
	"asset" : {
		"generator" : "FME 2022.2.4.0",
		"version" : "2.0"
	},
	"materials" : [
		{
			"name" : "default_material",
			"pbrMetallicRoughness" : {
				"baseColorFactor" : [ 1, 1, 1, 1 ],
				"roughnessFactor" : 0.30000000000000004,
				"metallicFactor" : 0.5
			}
		}
	],
	"meshes" : [
		{
			"primitives" : [
				{
					"attributes" : {
						"NORMAL" : 1,
						"POSITION" : 0,
						"COLOR_0" : 2
					},
					"indices" : 3,
					"material" : 0,
					"mode" : 4
				}
			]
		}
	],
	"nodes" : [
		{
			"name" : "B342111606801063C0",
			"matrix" : [ 1, 0, 0, 0, 0, 0, -1, 0, 0, 1, 0, 0, 834209.875, 3.2839999198913574, -816065.375, 1 ],
			"children" : [ 1 ]
		},
		{
			"mesh" : 0
		}
	],
	"scenes" : [
		{
			"nodes" : [ 0 ]
		}
	],
	"scene" : 0,
	"accessors" : [
		{
			"bufferView" : 0,
			"byteOffset" : 0,
			"componentType" : 5126,
			"count" : 1872,
			"type" : "VEC3",
			"min" : [ -16.1982421875, -15.068359375, 0 ],
			"max" : [ 16.185546875, 15.064453125, 125.99800109863281 ]
		},
		{
			"bufferView" : 1,
			"byteOffset" : 0,
			"componentType" : 5126,
			"count" : 1872,
			"type" : "VEC3",
			"min" : [ -0.9953621625900269, -0.9944226145744324, -1 ],
			"max" : [ 0.9764164686203003, 0.9763825535774231, 1 ]
		},
		{
			"bufferView" : 2,
			"byteOffset" : 0,
			"componentType" : 5126,
			"count" : 1872,
			"type" : "VEC3"
		},
		{
			"bufferView" : 3,
			"byteOffset" : 0,
			"componentType" : 5123,
			"count" : 1872,
			"type" : "SCALAR",
			"min" : [ 0 ],
			"max" : [ 1871 ]
		}
	],
	"bufferViews" : [
		{
			"buffer" : 0,
			"byteOffset" : 0,
			"byteLength" : 22464,
			"target" : 34962
		},
		{
			"buffer" : 0,
			"byteOffset" : 22464,
			"byteLength" : 22464,
			"target" : 34962
		},
		{
			"buffer" : 0,
			"byteOffset" : 44928,
			"byteLength" : 22464,
			"target" : 34962
		},
		{
			"buffer" : 0,
			"byteOffset" : 67392,
			"byteLength" : 3744,
			"target" : 34963
		}
	],
	"buffers" : [
		{
			"uri" : "B342111606801063C0.bin",
			"byteLength" : 71136
		}
	]
}
