{
	"asset" : {
		"generator" : "FME 2023.1.0.0",
		"version" : "2.0"
	},
	"materials" : [
		{
			"name" : "default_material",
			"pbrMetallicRoughness" : {
				"baseColorFactor" : [ 1, 1, 1, 1 ],
				"roughnessFactor" : 0.30000000000000004,
				"metallicFactor" : 0.5
			}
		}
	],
	"meshes" : [
		{
			"primitives" : [
				{
					"attributes" : {
						"NORMAL" : 1,
						"POSITION" : 0,
						"COLOR_0" : 2
					},
					"indices" : 3,
					"material" : 0,
					"mode" : 4
				}
			]
		}
	],
	"nodes" : [
		{
			"name" : "B356471527701063C0",
			"matrix" : [ 1, 0, 0, 0, 0, 0, -1, 0, 0, 1, 0, 0, 835647.125, 11.826000213623047, -815277.125, 1 ],
			"children" : [ 1 ]
		},
		{
			"mesh" : 0
		}
	],
	"scenes" : [
		{
			"nodes" : [ 0 ]
		}
	],
	"scene" : 0,
	"accessors" : [
		{
			"bufferView" : 0,
			"byteOffset" : 0,
			"componentType" : 5126,
			"count" : 666,
			"type" : "VEC3",
			"min" : [ -6.6376953125, -9.8310546875, 0 ],
			"max" : [ 6.6376953125, 9.83203125, 60.54800796508789 ]
		},
		{
			"bufferView" : 1,
			"byteOffset" : 0,
			"componentType" : 5126,
			"count" : 666,
			"type" : "VEC3",
			"min" : [ -0.8735445737838745, -0.8765785694122314, -1 ],
			"max" : [ 0.8839871883392334, 0.8823529481887817, 1 ]
		},
		{
			"bufferView" : 2,
			"byteOffset" : 0,
			"componentType" : 5126,
			"count" : 666,
			"type" : "VEC3"
		},
		{
			"bufferView" : 3,
			"byteOffset" : 0,
			"componentType" : 5123,
			"count" : 666,
			"type" : "SCALAR",
			"min" : [ 0 ],
			"max" : [ 665 ]
		}
	],
	"bufferViews" : [
		{
			"buffer" : 0,
			"byteOffset" : 0,
			"byteLength" : 7992,
			"target" : 34962
		},
		{
			"buffer" : 0,
			"byteOffset" : 7992,
			"byteLength" : 7992,
			"target" : 34962
		},
		{
			"buffer" : 0,
			"byteOffset" : 15984,
			"byteLength" : 7992,
			"target" : 34962
		},
		{
			"buffer" : 0,
			"byteOffset" : 23976,
			"byteLength" : 1332,
			"target" : 34963
		}
	],
	"buffers" : [
		{
			"uri" : "B356471527701063C0.bin",
			"byteLength" : 25308
		}
	]
}
