{
	"asset" : {
		"generator" : "FME 2023.2.1.0",
		"version" : "2.0"
	},
	"materials" : [
		{
			"name" : "default_material",
			"pbrMetallicRoughness" : {
				"baseColorFactor" : [ 1, 1, 1, 1 ],
				"roughnessFactor" : 0.30000000000000004,
				"metallicFactor" : 0.5
			}
		}
	],
	"meshes" : [
		{
			"primitives" : [
				{
					"attributes" : {
						"NORMAL" : 1,
						"POSITION" : 0,
						"COLOR_0" : 2
					},
					"indices" : 3,
					"material" : 0,
					"mode" : 4
				}
			]
		}
	],
	"nodes" : [
		{
			"name" : "B357031527301063C0",
			"matrix" : [ 1, 0, 0, 0, 0, 0, -1, 0, 0, 1, 0, 0, 835704.5625, 3.9110000133514404, -815272, 1 ],
			"children" : [ 1 ]
		},
		{
			"mesh" : 0
		}
	],
	"scenes" : [
		{
			"nodes" : [ 0 ]
		}
	],
	"scene" : 0,
	"accessors" : [
		{
			"bufferView" : 0,
			"byteOffset" : 0,
			"componentType" : 5126,
			"count" : 279,
			"type" : "VEC3",
			"min" : [ -5.5927734375, -6.455078125, 0 ],
			"max" : [ 5.591796875, 6.455078125, 17.275001525878906 ]
		},
		{
			"bufferView" : 1,
			"byteOffset" : 0,
			"componentType" : 5126,
			"count" : 279,
			"type" : "VEC3",
			"min" : [ -0.9056180119514465, -0.9576836824417114, -1 ],
			"max" : [ 0.9586221575737, 0.9607350826263428, 1 ]
		},
		{
			"bufferView" : 2,
			"byteOffset" : 0,
			"componentType" : 5126,
			"count" : 279,
			"type" : "VEC3"
		},
		{
			"bufferView" : 3,
			"byteOffset" : 0,
			"componentType" : 5123,
			"count" : 279,
			"type" : "SCALAR",
			"min" : [ 0 ],
			"max" : [ 278 ]
		}
	],
	"bufferViews" : [
		{
			"buffer" : 0,
			"byteOffset" : 0,
			"byteLength" : 3348,
			"target" : 34962
		},
		{
			"buffer" : 0,
			"byteOffset" : 3348,
			"byteLength" : 3348,
			"target" : 34962
		},
		{
			"buffer" : 0,
			"byteOffset" : 6696,
			"byteLength" : 3348,
			"target" : 34962
		},
		{
			"buffer" : 0,
			"byteOffset" : 10044,
			"byteLength" : 558,
			"target" : 34963
		}
	],
	"buffers" : [
		{
			"uri" : "B357031527301063C0.bin",
			"byteLength" : 10602
		}
	]
}
