{
	"asset" : {
		"generator" : "FME 2023.1.0.0",
		"version" : "2.0"
	},
	"materials" : [
		{
			"name" : "default_material",
			"pbrMetallicRoughness" : {
				"baseColorFactor" : [ 1, 1, 1, 1 ],
				"roughnessFactor" : 0.30000000000000004,
				"metallicFactor" : 0.5
			}
		}
	],
	"meshes" : [
		{
			"primitives" : [
				{
					"attributes" : {
						"NORMAL" : 1,
						"POSITION" : 0,
						"COLOR_0" : 2
					},
					"indices" : 3,
					"material" : 0,
					"mode" : 4
				}
			]
		}
	],
	"nodes" : [
		{
			"name" : "B336111631302063C0",
			"matrix" : [ 1, 0, 0, 0, 0, 0, -1, 0, 0, 1, 0, 0, 833611.9375, 2.8959999084472656, -816313.4375, 1 ],
			"children" : [ 1 ]
		},
		{
			"mesh" : 0
		}
	],
	"scenes" : [
		{
			"nodes" : [ 0 ]
		}
	],
	"scene" : 0,
	"accessors" : [
		{
			"bufferView" : 0,
			"byteOffset" : 0,
			"componentType" : 5126,
			"count" : 1047,
			"type" : "VEC3",
			"min" : [ -18.4384765625, -20.7265625, 0 ],
			"max" : [ 18.4375, 20.7265625, 12.595999717712402 ]
		},
		{
			"bufferView" : 1,
			"byteOffset" : 0,
			"componentType" : 5126,
			"count" : 1047,
			"type" : "VEC3",
			"min" : [ -0.9657712578773499, -0.9662349820137024, -1 ],
			"max" : [ 0.9658428430557251, 0.9652999639511108, 1 ]
		},
		{
			"bufferView" : 2,
			"byteOffset" : 0,
			"componentType" : 5126,
			"count" : 1047,
			"type" : "VEC3"
		},
		{
			"bufferView" : 3,
			"byteOffset" : 0,
			"componentType" : 5123,
			"count" : 1047,
			"type" : "SCALAR",
			"min" : [ 0 ],
			"max" : [ 1046 ]
		}
	],
	"bufferViews" : [
		{
			"buffer" : 0,
			"byteOffset" : 0,
			"byteLength" : 12564,
			"target" : 34962
		},
		{
			"buffer" : 0,
			"byteOffset" : 12564,
			"byteLength" : 12564,
			"target" : 34962
		},
		{
			"buffer" : 0,
			"byteOffset" : 25128,
			"byteLength" : 12564,
			"target" : 34962
		},
		{
			"buffer" : 0,
			"byteOffset" : 37692,
			"byteLength" : 2094,
			"target" : 34963
		}
	],
	"buffers" : [
		{
			"uri" : "B336111631302063C0.bin",
			"byteLength" : 39786
		}
	]
}
