{
	"asset" : {
		"generator" : "FME 2022.2.4.0",
		"version" : "2.0"
	},
	"materials" : [
		{
			"name" : "default_material",
			"pbrMetallicRoughness" : {
				"baseColorFactor" : [ 1, 1, 1, 1 ],
				"roughnessFactor" : 0.30000000000000004,
				"metallicFactor" : 0.5
			}
		}
	],
	"meshes" : [
		{
			"primitives" : [
				{
					"attributes" : {
						"NORMAL" : 1,
						"POSITION" : 0,
						"COLOR_0" : 2
					},
					"indices" : 3,
					"material" : 0,
					"mode" : 4
				}
			]
		}
	],
	"nodes" : [
		{
			"name" : "B336211573001063C0",
			"matrix" : [ 1, 0, 0, 0, 0, 0, -1, 0, 0, 1, 0, 0, 833625.5625, 92.37298583984375, -815730, 1 ],
			"children" : [ 1 ]
		},
		{
			"mesh" : 0
		}
	],
	"scenes" : [
		{
			"nodes" : [ 0 ]
		}
	],
	"scene" : 0,
	"accessors" : [
		{
			"bufferView" : 0,
			"byteOffset" : 0,
			"componentType" : 5126,
			"count" : 627,
			"type" : "VEC3",
			"min" : [ -7.392578125, -8.6845703125, 0 ],
			"max" : [ 7.3935546875, 8.6845703125, 24.865997314453125 ]
		},
		{
			"bufferView" : 1,
			"byteOffset" : 0,
			"componentType" : 5126,
			"count" : 627,
			"type" : "VEC3",
			"min" : [ -0.948371946811676, -0.8306607604026794, -1 ],
			"max" : [ 0.7472354173660278, 0.7278761267662048, 1 ]
		},
		{
			"bufferView" : 2,
			"byteOffset" : 0,
			"componentType" : 5126,
			"count" : 627,
			"type" : "VEC3"
		},
		{
			"bufferView" : 3,
			"byteOffset" : 0,
			"componentType" : 5123,
			"count" : 627,
			"type" : "SCALAR",
			"min" : [ 0 ],
			"max" : [ 626 ]
		}
	],
	"bufferViews" : [
		{
			"buffer" : 0,
			"byteOffset" : 0,
			"byteLength" : 7524,
			"target" : 34962
		},
		{
			"buffer" : 0,
			"byteOffset" : 7524,
			"byteLength" : 7524,
			"target" : 34962
		},
		{
			"buffer" : 0,
			"byteOffset" : 15048,
			"byteLength" : 7524,
			"target" : 34962
		},
		{
			"buffer" : 0,
			"byteOffset" : 22572,
			"byteLength" : 1254,
			"target" : 34963
		}
	],
	"buffers" : [
		{
			"uri" : "B336211573001063C0.bin",
			"byteLength" : 23826
		}
	]
}
