{
	"asset" : {
		"generator" : "FME 2023.1.0.0",
		"version" : "2.0"
	},
	"materials" : [
		{
			"name" : "default_material",
			"pbrMetallicRoughness" : {
				"baseColorFactor" : [ 1, 1, 1, 1 ],
				"roughnessFactor" : 0.30000000000000004,
				"metallicFactor" : 0.5
			}
		}
	],
	"meshes" : [
		{
			"primitives" : [
				{
					"attributes" : {
						"NORMAL" : 1,
						"POSITION" : 0,
						"COLOR_0" : 2
					},
					"indices" : 3,
					"material" : 0,
					"mode" : 4
				}
			]
		}
	],
	"nodes" : [
		{
			"name" : "B341401575801063C0",
			"matrix" : [ 1, 0, 0, 0, 0, 0, -1, 0, 0, 1, 0, 0, 834143.875, 18.02899932861328, -815759.375, 1 ],
			"children" : [ 1 ]
		},
		{
			"mesh" : 0
		}
	],
	"scenes" : [
		{
			"nodes" : [ 0 ]
		}
	],
	"scene" : 0,
	"accessors" : [
		{
			"bufferView" : 0,
			"byteOffset" : 0,
			"componentType" : 5126,
			"count" : 432,
			"type" : "VEC3",
			"min" : [ -7.7724609375, -7.220703125, 0 ],
			"max" : [ 7.7119140625, 7.310546875, 26.79800033569336 ]
		},
		{
			"bufferView" : 1,
			"byteOffset" : 0,
			"componentType" : 5126,
			"count" : 432,
			"type" : "VEC3",
			"min" : [ -0.8326812982559204, -0.7647383213043213, -1 ],
			"max" : [ 0.834871768951416, 0.7651280164718628, 1 ]
		},
		{
			"bufferView" : 2,
			"byteOffset" : 0,
			"componentType" : 5126,
			"count" : 432,
			"type" : "VEC3"
		},
		{
			"bufferView" : 3,
			"byteOffset" : 0,
			"componentType" : 5123,
			"count" : 432,
			"type" : "SCALAR",
			"min" : [ 0 ],
			"max" : [ 431 ]
		}
	],
	"bufferViews" : [
		{
			"buffer" : 0,
			"byteOffset" : 0,
			"byteLength" : 5184,
			"target" : 34962
		},
		{
			"buffer" : 0,
			"byteOffset" : 5184,
			"byteLength" : 5184,
			"target" : 34962
		},
		{
			"buffer" : 0,
			"byteOffset" : 10368,
			"byteLength" : 5184,
			"target" : 34962
		},
		{
			"buffer" : 0,
			"byteOffset" : 15552,
			"byteLength" : 864,
			"target" : 34963
		}
	],
	"buffers" : [
		{
			"uri" : "B341401575801063C0.bin",
			"byteLength" : 16416
		}
	]
}
