{
	"asset" : {
		"generator" : "FME 2023.2.1.0",
		"version" : "2.0"
	},
	"materials" : [
		{
			"name" : "default_material",
			"pbrMetallicRoughness" : {
				"baseColorFactor" : [ 1, 1, 1, 1 ],
				"roughnessFactor" : 0.30000000000000004,
				"metallicFactor" : 0.5
			}
		}
	],
	"meshes" : [
		{
			"primitives" : [
				{
					"attributes" : {
						"NORMAL" : 1,
						"POSITION" : 0,
						"COLOR_0" : 2
					},
					"indices" : 3,
					"material" : 0,
					"mode" : 4
				}
			]
		}
	],
	"nodes" : [
		{
			"name" : "B170061469501062G0",
			"matrix" : [ 1, 0, 0, 0, 0, 0, -1, 0, 0, 1, 0, 0, 817006.375, 18.36669921875, -814694.9375, 1 ],
			"children" : [ 1 ]
		},
		{
			"mesh" : 0
		}
	],
	"scenes" : [
		{
			"nodes" : [ 0 ]
		}
	],
	"scene" : 0,
	"accessors" : [
		{
			"bufferView" : 0,
			"byteOffset" : 0,
			"componentType" : 5126,
			"count" : 171,
			"type" : "VEC3",
			"min" : [ -5.5625, -5, 0 ],
			"max" : [ 5.5, 5, 10.879400253295898 ]
		},
		{
			"bufferView" : 1,
			"byteOffset" : 0,
			"componentType" : 5126,
			"count" : 171,
			"type" : "VEC3",
			"min" : [ -0.7721007466316223, -0.7760999798774719, -1 ],
			"max" : [ 0.7718361020088196, 0.7717806100845337, 1 ]
		},
		{
			"bufferView" : 2,
			"byteOffset" : 0,
			"componentType" : 5126,
			"count" : 171,
			"type" : "VEC3"
		},
		{
			"bufferView" : 3,
			"byteOffset" : 0,
			"componentType" : 5121,
			"count" : 171,
			"type" : "SCALAR",
			"min" : [ 0 ],
			"max" : [ 170 ]
		}
	],
	"bufferViews" : [
		{
			"buffer" : 0,
			"byteOffset" : 0,
			"byteLength" : 2052,
			"target" : 34962
		},
		{
			"buffer" : 0,
			"byteOffset" : 2052,
			"byteLength" : 2052,
			"target" : 34962
		},
		{
			"buffer" : 0,
			"byteOffset" : 4104,
			"byteLength" : 2052,
			"target" : 34962
		},
		{
			"buffer" : 0,
			"byteOffset" : 6156,
			"byteLength" : 171,
			"target" : 34963
		}
	],
	"buffers" : [
		{
			"uri" : "B170061469501062G0.bin",
			"byteLength" : 6327
		}
	]
}
