{
	"asset" : {
		"generator" : "FME 2022.2.4.0",
		"version" : "2.0"
	},
	"materials" : [
		{
			"name" : "default_material",
			"pbrMetallicRoughness" : {
				"baseColorFactor" : [ 1, 1, 1, 1 ],
				"roughnessFactor" : 0.30000000000000004,
				"metallicFactor" : 0.5
			}
		}
	],
	"meshes" : [
		{
			"primitives" : [
				{
					"attributes" : {
						"NORMAL" : 1,
						"POSITION" : 0,
						"COLOR_0" : 2
					},
					"indices" : 3,
					"material" : 0,
					"mode" : 4
				}
			]
		}
	],
	"nodes" : [
		{
			"name" : "B339141538201063C0",
			"matrix" : [ 1, 0, 0, 0, 0, 0, -1, 0, 0, 1, 0, 0, 833894.875, 118.18800354003906, -815383.125, 1 ],
			"children" : [ 1 ]
		},
		{
			"mesh" : 0
		}
	],
	"scenes" : [
		{
			"nodes" : [ 0 ]
		}
	],
	"scene" : 0,
	"accessors" : [
		{
			"bufferView" : 0,
			"byteOffset" : 0,
			"componentType" : 5126,
			"count" : 13533,
			"type" : "VEC3",
			"min" : [ -30.103515625, -33.958984375, 0 ],
			"max" : [ 30.1025390625, 33.958984375, 25.19000244140625 ]
		},
		{
			"bufferView" : 1,
			"byteOffset" : 0,
			"componentType" : 5126,
			"count" : 13533,
			"type" : "VEC3",
			"min" : [ -0.9999538064002991, -1, -1 ],
			"max" : [ 0.9996034502983093, 1, 1 ]
		},
		{
			"bufferView" : 2,
			"byteOffset" : 0,
			"componentType" : 5126,
			"count" : 13533,
			"type" : "VEC3"
		},
		{
			"bufferView" : 3,
			"byteOffset" : 0,
			"componentType" : 5123,
			"count" : 13533,
			"type" : "SCALAR",
			"min" : [ 0 ],
			"max" : [ 13532 ]
		}
	],
	"bufferViews" : [
		{
			"buffer" : 0,
			"byteOffset" : 0,
			"byteLength" : 162396,
			"target" : 34962
		},
		{
			"buffer" : 0,
			"byteOffset" : 162396,
			"byteLength" : 162396,
			"target" : 34962
		},
		{
			"buffer" : 0,
			"byteOffset" : 324792,
			"byteLength" : 162396,
			"target" : 34962
		},
		{
			"buffer" : 0,
			"byteOffset" : 487188,
			"byteLength" : 27066,
			"target" : 34963
		}
	],
	"buffers" : [
		{
			"uri" : "B339141538201063C0.bin",
			"byteLength" : 514254
		}
	]
}
