{
	"asset" : {
		"generator" : "FME 2022.2.4.0",
		"version" : "2.0"
	},
	"materials" : [
		{
			"name" : "default_material",
			"pbrMetallicRoughness" : {
				"baseColorFactor" : [ 1, 1, 1, 1 ],
				"roughnessFactor" : 0.30000000000000004,
				"metallicFactor" : 0.5
			}
		}
	],
	"meshes" : [
		{
			"primitives" : [
				{
					"attributes" : {
						"NORMAL" : 1,
						"POSITION" : 0,
						"COLOR_0" : 2
					},
					"indices" : 3,
					"material" : 0,
					"mode" : 4
				}
			]
		}
	],
	"nodes" : [
		{
			"name" : "B333101622501063C0",
			"matrix" : [ 1, 0, 0, 0, 0, 0, -1, 0, 0, 1, 0, 0, 833306.375, 16.808000564575195, -816227.875, 1 ],
			"children" : [ 1 ]
		},
		{
			"mesh" : 0
		}
	],
	"scenes" : [
		{
			"nodes" : [ 0 ]
		}
	],
	"scene" : 0,
	"accessors" : [
		{
			"bufferView" : 0,
			"byteOffset" : 0,
			"componentType" : 5126,
			"count" : 759,
			"type" : "VEC3",
			"min" : [ -7.75390625, -6.2138671875, 0 ],
			"max" : [ 7.7255859375, 6.24609375, 29.871000289916992 ]
		},
		{
			"bufferView" : 1,
			"byteOffset" : 0,
			"componentType" : 5126,
			"count" : 759,
			"type" : "VEC3",
			"min" : [ -0.7661726474761963, -0.774085521697998, -1 ],
			"max" : [ 0.7717239856719971, 0.7711532115936279, 1 ]
		},
		{
			"bufferView" : 2,
			"byteOffset" : 0,
			"componentType" : 5126,
			"count" : 759,
			"type" : "VEC3"
		},
		{
			"bufferView" : 3,
			"byteOffset" : 0,
			"componentType" : 5123,
			"count" : 759,
			"type" : "SCALAR",
			"min" : [ 0 ],
			"max" : [ 758 ]
		}
	],
	"bufferViews" : [
		{
			"buffer" : 0,
			"byteOffset" : 0,
			"byteLength" : 9108,
			"target" : 34962
		},
		{
			"buffer" : 0,
			"byteOffset" : 9108,
			"byteLength" : 9108,
			"target" : 34962
		},
		{
			"buffer" : 0,
			"byteOffset" : 18216,
			"byteLength" : 9108,
			"target" : 34962
		},
		{
			"buffer" : 0,
			"byteOffset" : 27324,
			"byteLength" : 1518,
			"target" : 34963
		}
	],
	"buffers" : [
		{
			"uri" : "B333101622501063C0.bin",
			"byteLength" : 28842
		}
	]
}
