{
	"asset" : {
		"generator" : "FME 2023.1.0.0",
		"version" : "2.0"
	},
	"materials" : [
		{
			"name" : "default_material",
			"pbrMetallicRoughness" : {
				"baseColorFactor" : [ 1, 1, 1, 1 ],
				"roughnessFactor" : 0.30000000000000004,
				"metallicFactor" : 0.5
			}
		}
	],
	"meshes" : [
		{
			"primitives" : [
				{
					"attributes" : {
						"NORMAL" : 1,
						"POSITION" : 0,
						"COLOR_0" : 2
					},
					"indices" : 3,
					"material" : 0,
					"mode" : 4
				}
			]
		}
	],
	"nodes" : [
		{
			"name" : "B359731551001063C0",
			"matrix" : [ 1, 0, 0, 0, 0, 0, -1, 0, 0, 1, 0, 0, 835981.625, 21.499000549316406, -815508.1875, 1 ],
			"children" : [ 1 ]
		},
		{
			"mesh" : 0
		}
	],
	"scenes" : [
		{
			"nodes" : [ 0 ]
		}
	],
	"scene" : 0,
	"accessors" : [
		{
			"bufferView" : 0,
			"byteOffset" : 0,
			"componentType" : 5126,
			"count" : 3168,
			"type" : "VEC3",
			"min" : [ -15.287109375, -8.279296875, 0 ],
			"max" : [ 15.2880859375, 8.279296875, 50.26300048828125 ]
		},
		{
			"bufferView" : 1,
			"byteOffset" : 0,
			"componentType" : 5126,
			"count" : 3168,
			"type" : "VEC3",
			"min" : [ -0.9938837289810181, -0.9976463317871094, -1 ],
			"max" : [ 0.9992612600326538, 0.9954321384429932, 1 ]
		},
		{
			"bufferView" : 2,
			"byteOffset" : 0,
			"componentType" : 5126,
			"count" : 3168,
			"type" : "VEC3"
		},
		{
			"bufferView" : 3,
			"byteOffset" : 0,
			"componentType" : 5123,
			"count" : 3168,
			"type" : "SCALAR",
			"min" : [ 0 ],
			"max" : [ 3167 ]
		}
	],
	"bufferViews" : [
		{
			"buffer" : 0,
			"byteOffset" : 0,
			"byteLength" : 38016,
			"target" : 34962
		},
		{
			"buffer" : 0,
			"byteOffset" : 38016,
			"byteLength" : 38016,
			"target" : 34962
		},
		{
			"buffer" : 0,
			"byteOffset" : 76032,
			"byteLength" : 38016,
			"target" : 34962
		},
		{
			"buffer" : 0,
			"byteOffset" : 114048,
			"byteLength" : 6336,
			"target" : 34963
		}
	],
	"buffers" : [
		{
			"uri" : "B359731551001063C0.bin",
			"byteLength" : 120384
		}
	]
}
