{
	"asset" : {
		"generator" : "FME 2023.1.0.0",
		"version" : "2.0"
	},
	"materials" : [
		{
			"name" : "default_material",
			"pbrMetallicRoughness" : {
				"baseColorFactor" : [ 1, 1, 1, 1 ],
				"roughnessFactor" : 0.30000000000000004,
				"metallicFactor" : 0.5
			}
		}
	],
	"meshes" : [
		{
			"primitives" : [
				{
					"attributes" : {
						"NORMAL" : 1,
						"POSITION" : 0,
						"COLOR_0" : 2
					},
					"indices" : 3,
					"material" : 0,
					"mode" : 4
				}
			]
		}
	],
	"nodes" : [
		{
			"name" : "B342711604201063C0",
			"matrix" : [ 1, 0, 0, 0, 0, 0, -1, 0, 0, 1, 0, 0, 834265.625, 3.249000072479248, -816034.8125, 1 ],
			"children" : [ 1 ]
		},
		{
			"mesh" : 0
		}
	],
	"scenes" : [
		{
			"nodes" : [ 0 ]
		}
	],
	"scene" : 0,
	"accessors" : [
		{
			"bufferView" : 0,
			"byteOffset" : 0,
			"componentType" : 5126,
			"count" : 1833,
			"type" : "VEC3",
			"min" : [ -14.73046875, -12.08203125, 0 ],
			"max" : [ 14.80859375, 12.05078125, 59.051998138427734 ]
		},
		{
			"bufferView" : 1,
			"byteOffset" : 0,
			"componentType" : 5126,
			"count" : 1833,
			"type" : "VEC3",
			"min" : [ -0.857492983341217, -1, -1 ],
			"max" : [ 0.9997098445892334, 0.8944272398948669, 1 ]
		},
		{
			"bufferView" : 2,
			"byteOffset" : 0,
			"componentType" : 5126,
			"count" : 1833,
			"type" : "VEC3"
		},
		{
			"bufferView" : 3,
			"byteOffset" : 0,
			"componentType" : 5123,
			"count" : 1833,
			"type" : "SCALAR",
			"min" : [ 0 ],
			"max" : [ 1832 ]
		}
	],
	"bufferViews" : [
		{
			"buffer" : 0,
			"byteOffset" : 0,
			"byteLength" : 21996,
			"target" : 34962
		},
		{
			"buffer" : 0,
			"byteOffset" : 21996,
			"byteLength" : 21996,
			"target" : 34962
		},
		{
			"buffer" : 0,
			"byteOffset" : 43992,
			"byteLength" : 21996,
			"target" : 34962
		},
		{
			"buffer" : 0,
			"byteOffset" : 65988,
			"byteLength" : 3666,
			"target" : 34963
		}
	],
	"buffers" : [
		{
			"uri" : "B342711604201063C0.bin",
			"byteLength" : 69654
		}
	]
}
