{
	"asset" : {
		"generator" : "FME 2022.2.4.0",
		"version" : "2.0"
	},
	"materials" : [
		{
			"name" : "default_material",
			"pbrMetallicRoughness" : {
				"baseColorFactor" : [ 1, 1, 1, 1 ],
				"roughnessFactor" : 0.30000000000000004,
				"metallicFactor" : 0.5
			}
		}
	],
	"meshes" : [
		{
			"primitives" : [
				{
					"attributes" : {
						"NORMAL" : 1,
						"POSITION" : 0,
						"COLOR_0" : 2
					},
					"indices" : 3,
					"material" : 0,
					"mode" : 4
				}
			]
		}
	],
	"nodes" : [
		{
			"name" : "B337991610301063C0",
			"matrix" : [ 1, 0, 0, 0, 0, 0, -1, 0, 0, 1, 0, 0, 833797.875, 24.20800018310547, -816099.25, 1 ],
			"children" : [ 1 ]
		},
		{
			"mesh" : 0
		}
	],
	"scenes" : [
		{
			"nodes" : [ 0 ]
		}
	],
	"scene" : 0,
	"accessors" : [
		{
			"bufferView" : 0,
			"byteOffset" : 0,
			"componentType" : 5126,
			"count" : 609,
			"type" : "VEC3",
			"min" : [ -6.017578125, -6.439453125, 0 ],
			"max" : [ 6.0166015625, 6.4404296875, 23.518001556396484 ]
		},
		{
			"bufferView" : 1,
			"byteOffset" : 0,
			"componentType" : 5126,
			"count" : 609,
			"type" : "VEC3",
			"min" : [ -0.7704558968544006, -0.8822804093360901, -1 ],
			"max" : [ 0.7466985583305359, 0.7477225065231323, 1 ]
		},
		{
			"bufferView" : 2,
			"byteOffset" : 0,
			"componentType" : 5126,
			"count" : 609,
			"type" : "VEC3"
		},
		{
			"bufferView" : 3,
			"byteOffset" : 0,
			"componentType" : 5123,
			"count" : 609,
			"type" : "SCALAR",
			"min" : [ 0 ],
			"max" : [ 608 ]
		}
	],
	"bufferViews" : [
		{
			"buffer" : 0,
			"byteOffset" : 0,
			"byteLength" : 7308,
			"target" : 34962
		},
		{
			"buffer" : 0,
			"byteOffset" : 7308,
			"byteLength" : 7308,
			"target" : 34962
		},
		{
			"buffer" : 0,
			"byteOffset" : 14616,
			"byteLength" : 7308,
			"target" : 34962
		},
		{
			"buffer" : 0,
			"byteOffset" : 21924,
			"byteLength" : 1218,
			"target" : 34963
		}
	],
	"buffers" : [
		{
			"uri" : "B337991610301063C0.bin",
			"byteLength" : 23142
		}
	]
}
