{"asset":{"generator":"FME 2020.0.0.0","version":"2.0"},"materials":[{"name":"default_material","pbrMetallicRoughness":{"baseColorFactor":[0.8,0.8,0.8,1],"roughnessFactor":0.30000000000000004,"metallicFactor":0.5}},{"name":"T30000198000106E10_001","pbrMetallicRoughness":{"roughnessFactor":0.984375,"metallicFactor":0.5}}],"meshes":[{"primitives":[{"attributes":{"NORMAL":1,"POSITION":0,"TEXCOORD_0":2},"indices":3,"material":1,"mode":4}]}],"nodes":[{"name":"T30000198000106E10","matrix":[1,0,0,0,0,0,-1,0,0,1,0,0,830375,0.9999995231628418,-820100,1],"children":[1]},{"mesh":0}],"scenes":[{"nodes":[0]}],"scene":0,"accessors":[{"bufferView":0,"byteOffset":0,"componentType":5126,"count":885,"type":"VEC3","min":[-375,-300,0],"max":[375,300,4.6866135597229]},{"bufferView":1,"byteOffset":0,"componentType":5126,"count":885,"type":"VEC3","min":[-0.939636766910553,-0.8544092774391174,0.1329619139432907],"max":[0.09199924767017365,0.6444835066795349,1]},{"bufferView":2,"byteOffset":0,"componentType":5126,"count":885,"type":"VEC2","min":[6.654858589172363e-05,8.314847946166992e-05],"max":[0.9999334216117859,0.9999167919158936]},{"bufferView":3,"byteOffset":0,"componentType":5123,"count":885,"type":"SCALAR","min":[0],"max":[884]}],"bufferViews":[{"buffer":0,"byteOffset":0,"byteLength":10620,"target":34962},{"buffer":0,"byteOffset":10620,"byteLength":10620,"target":34962},{"buffer":0,"byteOffset":21240,"byteLength":7080,"target":34962},{"buffer":0,"byteOffset":28320,"byteLength":1770,"target":34963}],"buffers":[{"uri":"T30000198000106E10.bin","byteLength":30090}]}