{
	"asset" : {
		"generator" : "FME 2023.2.1.0",
		"version" : "2.0"
	},
	"materials" : [
		{
			"name" : "default_material",
			"pbrMetallicRoughness" : {
				"baseColorFactor" : [ 1, 1, 1, 1 ],
				"roughnessFactor" : 0.30000000000000004,
				"metallicFactor" : 0.5
			}
		}
	],
	"meshes" : [
		{
			"primitives" : [
				{
					"attributes" : {
						"NORMAL" : 1,
						"POSITION" : 0,
						"COLOR_0" : 2
					},
					"indices" : 3,
					"material" : 0,
					"mode" : 4
				}
			]
		}
	],
	"nodes" : [
		{
			"name" : "B357981543301063C0",
			"matrix" : [ 1, 0, 0, 0, 0, 0, -1, 0, 0, 1, 0, 0, 835794.9375, 3.6549999713897705, -815428.0625, 1 ],
			"children" : [ 1 ]
		},
		{
			"mesh" : 0
		}
	],
	"scenes" : [
		{
			"nodes" : [ 0 ]
		}
	],
	"scene" : 0,
	"accessors" : [
		{
			"bufferView" : 0,
			"byteOffset" : 0,
			"componentType" : 5126,
			"count" : 1392,
			"type" : "VEC3",
			"min" : [ -12.806640625, -11.6396484375, 0 ],
			"max" : [ 12.806640625, 11.640625, 55.439002990722656 ]
		},
		{
			"bufferView" : 1,
			"byteOffset" : 0,
			"componentType" : 5126,
			"count" : 1392,
			"type" : "VEC3",
			"min" : [ -0.9938433170318604, -0.9945130348205566, -1 ],
			"max" : [ 0.9938583374023438, 0.9934447407722473, 1 ]
		},
		{
			"bufferView" : 2,
			"byteOffset" : 0,
			"componentType" : 5126,
			"count" : 1392,
			"type" : "VEC3"
		},
		{
			"bufferView" : 3,
			"byteOffset" : 0,
			"componentType" : 5123,
			"count" : 1392,
			"type" : "SCALAR",
			"min" : [ 0 ],
			"max" : [ 1391 ]
		}
	],
	"bufferViews" : [
		{
			"buffer" : 0,
			"byteOffset" : 0,
			"byteLength" : 16704,
			"target" : 34962
		},
		{
			"buffer" : 0,
			"byteOffset" : 16704,
			"byteLength" : 16704,
			"target" : 34962
		},
		{
			"buffer" : 0,
			"byteOffset" : 33408,
			"byteLength" : 16704,
			"target" : 34962
		},
		{
			"buffer" : 0,
			"byteOffset" : 50112,
			"byteLength" : 2784,
			"target" : 34963
		}
	],
	"buffers" : [
		{
			"uri" : "B357981543301063C0.bin",
			"byteLength" : 52896
		}
	]
}
