{
	"asset" : {
		"generator" : "FME 2022.2.4.0",
		"version" : "2.0"
	},
	"materials" : [
		{
			"name" : "default_material",
			"pbrMetallicRoughness" : {
				"baseColorFactor" : [ 1, 1, 1, 1 ],
				"roughnessFactor" : 0.30000000000000004,
				"metallicFactor" : 0.5
			}
		}
	],
	"meshes" : [
		{
			"primitives" : [
				{
					"attributes" : {
						"NORMAL" : 1,
						"POSITION" : 0,
						"COLOR_0" : 2
					},
					"indices" : 3,
					"material" : 0,
					"mode" : 4
				}
			]
		}
	],
	"nodes" : [
		{
			"name" : "B341921576801063C0",
			"matrix" : [ 1, 0, 0, 0, 0, 0, -1, 0, 0, 1, 0, 0, 834197.75, 11.026000022888184, -815768, 1 ],
			"children" : [ 1 ]
		},
		{
			"mesh" : 0
		}
	],
	"scenes" : [
		{
			"nodes" : [ 0 ]
		}
	],
	"scene" : 0,
	"accessors" : [
		{
			"bufferView" : 0,
			"byteOffset" : 0,
			"componentType" : 5126,
			"count" : 483,
			"type" : "VEC3",
			"min" : [ -9.150390625, -9.4765625, 0 ],
			"max" : [ 9.1953125, 9.548828125, 51.779998779296875 ]
		},
		{
			"bufferView" : 1,
			"byteOffset" : 0,
			"componentType" : 5126,
			"count" : 483,
			"type" : "VEC3",
			"min" : [ -0.7359290719032288, -0.7493720650672913, -0.0023108927998691797 ],
			"max" : [ 0.7902198433876038, 0.7372926473617554, 1 ]
		},
		{
			"bufferView" : 2,
			"byteOffset" : 0,
			"componentType" : 5126,
			"count" : 483,
			"type" : "VEC3"
		},
		{
			"bufferView" : 3,
			"byteOffset" : 0,
			"componentType" : 5123,
			"count" : 483,
			"type" : "SCALAR",
			"min" : [ 0 ],
			"max" : [ 482 ]
		}
	],
	"bufferViews" : [
		{
			"buffer" : 0,
			"byteOffset" : 0,
			"byteLength" : 5796,
			"target" : 34962
		},
		{
			"buffer" : 0,
			"byteOffset" : 5796,
			"byteLength" : 5796,
			"target" : 34962
		},
		{
			"buffer" : 0,
			"byteOffset" : 11592,
			"byteLength" : 5796,
			"target" : 34962
		},
		{
			"buffer" : 0,
			"byteOffset" : 17388,
			"byteLength" : 966,
			"target" : 34963
		}
	],
	"buffers" : [
		{
			"uri" : "B341921576801063C0.bin",
			"byteLength" : 18354
		}
	]
}
