{
	"asset" : {
		"generator" : "FME 2023.2.2.0",
		"version" : "2.0"
	},
	"materials" : [
		{
			"name" : "default_material",
			"pbrMetallicRoughness" : {
				"baseColorFactor" : [ 1, 1, 1, 1 ],
				"roughnessFactor" : 0.30000000000000004,
				"metallicFactor" : 0.5
			}
		}
	],
	"meshes" : [
		{
			"primitives" : [
				{
					"attributes" : {
						"NORMAL" : 1,
						"POSITION" : 0,
						"COLOR_0" : 2
					},
					"indices" : 3,
					"material" : 0,
					"mode" : 4
				}
			]
		}
	],
	"nodes" : [
		{
			"name" : "B170261480101062G0",
			"matrix" : [ 1, 0, 0, 0, 0, 0, -1, 0, 0, 1, 0, 0, 817024.375, 24.673900604248047, -814800.625, 1 ],
			"children" : [ 1 ]
		},
		{
			"mesh" : 0
		}
	],
	"scenes" : [
		{
			"nodes" : [ 0 ]
		}
	],
	"scene" : 0,
	"accessors" : [
		{
			"bufferView" : 0,
			"byteOffset" : 0,
			"componentType" : 5126,
			"count" : 117,
			"type" : "VEC3",
			"min" : [ -5.5625, -5.25, 0 ],
			"max" : [ 5.5, 5.3125, 3.596799850463867 ]
		},
		{
			"bufferView" : 1,
			"byteOffset" : 0,
			"componentType" : 5126,
			"count" : 117,
			"type" : "VEC3",
			"min" : [ -0.8032059669494629, -0.8033717274665833, -0.9922808408737183 ],
			"max" : [ 0.8035035729408264, 0.8034610748291016, 1 ]
		},
		{
			"bufferView" : 2,
			"byteOffset" : 0,
			"componentType" : 5126,
			"count" : 117,
			"type" : "VEC3"
		},
		{
			"bufferView" : 3,
			"byteOffset" : 0,
			"componentType" : 5121,
			"count" : 117,
			"type" : "SCALAR",
			"min" : [ 0 ],
			"max" : [ 116 ]
		}
	],
	"bufferViews" : [
		{
			"buffer" : 0,
			"byteOffset" : 0,
			"byteLength" : 1404,
			"target" : 34962
		},
		{
			"buffer" : 0,
			"byteOffset" : 1404,
			"byteLength" : 1404,
			"target" : 34962
		},
		{
			"buffer" : 0,
			"byteOffset" : 2808,
			"byteLength" : 1404,
			"target" : 34962
		},
		{
			"buffer" : 0,
			"byteOffset" : 4212,
			"byteLength" : 117,
			"target" : 34963
		}
	],
	"buffers" : [
		{
			"uri" : "B170261480101062G0.bin",
			"byteLength" : 4329
		}
	]
}
