{
	"asset" : {
		"generator" : "FME 2022.2.4.0",
		"version" : "2.0"
	},
	"materials" : [
		{
			"name" : "default_material",
			"pbrMetallicRoughness" : {
				"baseColorFactor" : [ 1, 1, 1, 1 ],
				"roughnessFactor" : 0.30000000000000004,
				"metallicFactor" : 0.5
			}
		}
	],
	"meshes" : [
		{
			"primitives" : [
				{
					"attributes" : {
						"NORMAL" : 1,
						"POSITION" : 0,
						"COLOR_0" : 2
					},
					"indices" : 3,
					"material" : 0,
					"mode" : 4
				}
			]
		}
	],
	"nodes" : [
		{
			"name" : "B339601534702063C0",
			"matrix" : [ 1, 0, 0, 0, 0, 0, -1, 0, 0, 1, 0, 0, 833960.5625, 106.38001251220703, -815347.125, 1 ],
			"children" : [ 1 ]
		},
		{
			"mesh" : 0
		}
	],
	"scenes" : [
		{
			"nodes" : [ 0 ]
		}
	],
	"scene" : 0,
	"accessors" : [
		{
			"bufferView" : 0,
			"byteOffset" : 0,
			"componentType" : 5126,
			"count" : 2808,
			"type" : "VEC3",
			"min" : [ -19.615234375, -18.31640625, 0 ],
			"max" : [ 19.615234375, 18.31640625, 19.93500518798828 ]
		},
		{
			"bufferView" : 1,
			"byteOffset" : 0,
			"componentType" : 5126,
			"count" : 2808,
			"type" : "VEC3",
			"min" : [ -1, -0.9982743859291077, -1 ],
			"max" : [ 0.9998642206192017, 0.9970880150794983, 1 ]
		},
		{
			"bufferView" : 2,
			"byteOffset" : 0,
			"componentType" : 5126,
			"count" : 2808,
			"type" : "VEC3"
		},
		{
			"bufferView" : 3,
			"byteOffset" : 0,
			"componentType" : 5123,
			"count" : 2808,
			"type" : "SCALAR",
			"min" : [ 0 ],
			"max" : [ 2807 ]
		}
	],
	"bufferViews" : [
		{
			"buffer" : 0,
			"byteOffset" : 0,
			"byteLength" : 33696,
			"target" : 34962
		},
		{
			"buffer" : 0,
			"byteOffset" : 33696,
			"byteLength" : 33696,
			"target" : 34962
		},
		{
			"buffer" : 0,
			"byteOffset" : 67392,
			"byteLength" : 33696,
			"target" : 34962
		},
		{
			"buffer" : 0,
			"byteOffset" : 101088,
			"byteLength" : 5616,
			"target" : 34963
		}
	],
	"buffers" : [
		{
			"uri" : "B339601534702063C0.bin",
			"byteLength" : 106704
		}
	]
}
