{
	"asset" : {
		"generator" : "FME 2023.1.0.0",
		"version" : "2.0"
	},
	"materials" : [
		{
			"name" : "default_material",
			"pbrMetallicRoughness" : {
				"baseColorFactor" : [ 1, 1, 1, 1 ],
				"roughnessFactor" : 0.30000000000000004,
				"metallicFactor" : 0.5
			}
		}
	],
	"meshes" : [
		{
			"primitives" : [
				{
					"attributes" : {
						"NORMAL" : 1,
						"POSITION" : 0,
						"COLOR_0" : 2
					},
					"indices" : 3,
					"material" : 0,
					"mode" : 4
				}
			]
		}
	],
	"nodes" : [
		{
			"name" : "B338671604301063C0",
			"matrix" : [ 1, 0, 0, 0, 0, 0, -1, 0, 0, 1, 0, 0, 833868, 19.02199935913086, -816043.3125, 1 ],
			"children" : [ 1 ]
		},
		{
			"mesh" : 0
		}
	],
	"scenes" : [
		{
			"nodes" : [ 0 ]
		}
	],
	"scene" : 0,
	"accessors" : [
		{
			"bufferView" : 0,
			"byteOffset" : 0,
			"componentType" : 5126,
			"count" : 2529,
			"type" : "VEC3",
			"min" : [ -12.1689453125, -13.671875, 0 ],
			"max" : [ 12.2197265625, 13.697265625, 13.110000610351562 ]
		},
		{
			"bufferView" : 1,
			"byteOffset" : 0,
			"componentType" : 5126,
			"count" : 2529,
			"type" : "VEC3",
			"min" : [ -0.999851405620575, -0.9982150197029114, -1 ],
			"max" : [ 1, 0.9982254505157471, 1 ]
		},
		{
			"bufferView" : 2,
			"byteOffset" : 0,
			"componentType" : 5126,
			"count" : 2529,
			"type" : "VEC3"
		},
		{
			"bufferView" : 3,
			"byteOffset" : 0,
			"componentType" : 5123,
			"count" : 2529,
			"type" : "SCALAR",
			"min" : [ 0 ],
			"max" : [ 2528 ]
		}
	],
	"bufferViews" : [
		{
			"buffer" : 0,
			"byteOffset" : 0,
			"byteLength" : 30348,
			"target" : 34962
		},
		{
			"buffer" : 0,
			"byteOffset" : 30348,
			"byteLength" : 30348,
			"target" : 34962
		},
		{
			"buffer" : 0,
			"byteOffset" : 60696,
			"byteLength" : 30348,
			"target" : 34962
		},
		{
			"buffer" : 0,
			"byteOffset" : 91044,
			"byteLength" : 5058,
			"target" : 34963
		}
	],
	"buffers" : [
		{
			"uri" : "B338671604301063C0.bin",
			"byteLength" : 96102
		}
	]
}
