{
	"asset" : {
		"generator" : "FME 2023.1.0.0",
		"version" : "2.0"
	},
	"materials" : [
		{
			"name" : "default_material",
			"pbrMetallicRoughness" : {
				"baseColorFactor" : [ 1, 1, 1, 1 ],
				"roughnessFactor" : 0.30000000000000004,
				"metallicFactor" : 0.5
			}
		}
	],
	"meshes" : [
		{
			"primitives" : [
				{
					"attributes" : {
						"NORMAL" : 1,
						"POSITION" : 0,
						"COLOR_0" : 2
					},
					"indices" : 3,
					"material" : 0,
					"mode" : 4
				}
			]
		}
	],
	"nodes" : [
		{
			"name" : "B342541514701063C0",
			"matrix" : [ 1, 0, 0, 0, 0, 0, -1, 0, 0, 1, 0, 0, 834250.75, 86.61900329589844, -815135.5, 1 ],
			"children" : [ 1 ]
		},
		{
			"mesh" : 0
		}
	],
	"scenes" : [
		{
			"nodes" : [ 0 ]
		}
	],
	"scene" : 0,
	"accessors" : [
		{
			"bufferView" : 0,
			"byteOffset" : 0,
			"componentType" : 5126,
			"count" : 3771,
			"type" : "VEC3",
			"min" : [ -17.85546875, -20.0087890625, 0 ],
			"max" : [ 17.8544921875, 20.0078125, 108.91799926757812 ]
		},
		{
			"bufferView" : 1,
			"byteOffset" : 0,
			"componentType" : 5126,
			"count" : 3771,
			"type" : "VEC3",
			"min" : [ -0.9986770153045654, -0.99928879737854, -1 ],
			"max" : [ 0.9997885823249817, 0.9994540214538574, 1 ]
		},
		{
			"bufferView" : 2,
			"byteOffset" : 0,
			"componentType" : 5126,
			"count" : 3771,
			"type" : "VEC3"
		},
		{
			"bufferView" : 3,
			"byteOffset" : 0,
			"componentType" : 5123,
			"count" : 3771,
			"type" : "SCALAR",
			"min" : [ 0 ],
			"max" : [ 3770 ]
		}
	],
	"bufferViews" : [
		{
			"buffer" : 0,
			"byteOffset" : 0,
			"byteLength" : 45252,
			"target" : 34962
		},
		{
			"buffer" : 0,
			"byteOffset" : 45252,
			"byteLength" : 45252,
			"target" : 34962
		},
		{
			"buffer" : 0,
			"byteOffset" : 90504,
			"byteLength" : 45252,
			"target" : 34962
		},
		{
			"buffer" : 0,
			"byteOffset" : 135756,
			"byteLength" : 7542,
			"target" : 34963
		}
	],
	"buffers" : [
		{
			"uri" : "B342541514701063C0.bin",
			"byteLength" : 143298
		}
	]
}
