{
	"asset" : {
		"generator" : "FME 2023.2.2.0",
		"version" : "2.0"
	},
	"images" : [
		{
			"uri" : "T39750198000106E11_001.jpg"
		}
	],
	"samplers" : [
		{
			"wrapS" : 10497,
			"wrapT" : 10497,
			"magFilter" : 9729,
			"minFilter" : 9986
		}
	],
	"textures" : [
		{
			"source" : 0,
			"sampler" : 0
		}
	],
	"materials" : [
		{
			"name" : "T39750198000106E11_001",
			"pbrMetallicRoughness" : {
				"baseColorTexture" : {
					"index" : 0,
					"texCoord" : 0
				},
				"roughnessFactor" : 0.9843750009313226,
				"metallicFactor" : 0.5
			}
		}
	],
	"meshes" : [
		{
			"primitives" : [
				{
					"attributes" : {
						"NORMAL" : 1,
						"POSITION" : 0,
						"TEXCOORD_0" : 2
					},
					"indices" : 3,
					"material" : 0,
					"mode" : 4
				}
			]
		}
	],
	"nodes" : [
		{
			"name" : "T39750198000106E11",
			"matrix" : [ 1, 0, 0, 0, 0, 0, -1, 0, 0, 1, 0, 0, 840125, -1.09100341796875, -820099.875, 1 ],
			"children" : [ 1 ]
		},
		{
			"mesh" : 0
		}
	],
	"scenes" : [
		{
			"nodes" : [ 0 ]
		}
	],
	"scene" : 0,
	"accessors" : [
		{
			"bufferView" : 0,
			"byteOffset" : 0,
			"componentType" : 5126,
			"count" : 74853,
			"type" : "VEC3",
			"min" : [ -375.03125, -300.09375, 0 ],
			"max" : [ 375.03125, 300.09375, 69.27909851074219 ]
		},
		{
			"bufferView" : 1,
			"byteOffset" : 0,
			"componentType" : 5126,
			"count" : 74853,
			"type" : "VEC3",
			"min" : [ -1, -1, -1 ],
			"max" : [ 1, 1, 1 ]
		},
		{
			"bufferView" : 2,
			"byteOffset" : 0,
			"componentType" : 5126,
			"count" : 74853,
			"type" : "VEC2",
			"min" : [ 0, 0 ],
			"max" : [ 1, 1.0000001192092896 ]
		},
		{
			"bufferView" : 3,
			"byteOffset" : 0,
			"componentType" : 5125,
			"count" : 74853,
			"type" : "SCALAR",
			"min" : [ 0 ],
			"max" : [ 74852 ]
		}
	],
	"bufferViews" : [
		{
			"buffer" : 0,
			"byteOffset" : 0,
			"byteLength" : 898236,
			"target" : 34962
		},
		{
			"buffer" : 0,
			"byteOffset" : 898236,
			"byteLength" : 898236,
			"target" : 34962
		},
		{
			"buffer" : 0,
			"byteOffset" : 1796472,
			"byteLength" : 598824,
			"target" : 34962
		},
		{
			"buffer" : 0,
			"byteOffset" : 2395296,
			"byteLength" : 299412,
			"target" : 34963
		}
	],
	"buffers" : [
		{
			"uri" : "T39750198000106E11.bin",
			"byteLength" : 2694708
		}
	]
}
