{
	"asset" : {
		"generator" : "FME 2023.2.1.0",
		"version" : "2.0"
	},
	"materials" : [
		{
			"name" : "default_material",
			"pbrMetallicRoughness" : {
				"baseColorFactor" : [ 1, 1, 1, 1 ],
				"roughnessFactor" : 0.30000000000000004,
				"metallicFactor" : 0.5
			}
		}
	],
	"meshes" : [
		{
			"primitives" : [
				{
					"attributes" : {
						"NORMAL" : 1,
						"POSITION" : 0,
						"COLOR_0" : 2
					},
					"indices" : 3,
					"material" : 0,
					"mode" : 4
				}
			]
		}
	],
	"nodes" : [
		{
			"name" : "B332861512101063C0",
			"matrix" : [ 1, 0, 0, 0, 0, 0, -1, 0, 0, 1, 0, 0, 833287.4375, 458.7090148925781, -815120, 1 ],
			"children" : [ 1 ]
		},
		{
			"mesh" : 0
		}
	],
	"scenes" : [
		{
			"nodes" : [ 0 ]
		}
	],
	"scene" : 0,
	"accessors" : [
		{
			"bufferView" : 0,
			"byteOffset" : 0,
			"componentType" : 5126,
			"count" : 48,
			"type" : "VEC3",
			"min" : [ -3.5810546875, -1.6591796875, 0 ],
			"max" : [ 3.5517578125, 1.7236328125, 3.503997802734375 ]
		},
		{
			"bufferView" : 1,
			"byteOffset" : 0,
			"componentType" : 5126,
			"count" : 48,
			"type" : "VEC3",
			"min" : [ -0.9822937846183777, -0.9916874766349792, 0 ],
			"max" : [ 0.8881999254226685, 0.9882837533950806, 0.9986275434494019 ]
		},
		{
			"bufferView" : 2,
			"byteOffset" : 0,
			"componentType" : 5126,
			"count" : 48,
			"type" : "VEC3"
		},
		{
			"bufferView" : 3,
			"byteOffset" : 0,
			"componentType" : 5121,
			"count" : 48,
			"type" : "SCALAR",
			"min" : [ 0 ],
			"max" : [ 47 ]
		}
	],
	"bufferViews" : [
		{
			"buffer" : 0,
			"byteOffset" : 0,
			"byteLength" : 576,
			"target" : 34962
		},
		{
			"buffer" : 0,
			"byteOffset" : 576,
			"byteLength" : 576,
			"target" : 34962
		},
		{
			"buffer" : 0,
			"byteOffset" : 1152,
			"byteLength" : 576,
			"target" : 34962
		},
		{
			"buffer" : 0,
			"byteOffset" : 1728,
			"byteLength" : 48,
			"target" : 34963
		}
	],
	"buffers" : [
		{
			"uri" : "B332861512101063C0.bin",
			"byteLength" : 1776
		}
	]
}
