{
	"asset" : {
		"generator" : "FME 2022.2.4.0",
		"version" : "2.0"
	},
	"materials" : [
		{
			"name" : "default_material",
			"pbrMetallicRoughness" : {
				"baseColorFactor" : [ 1, 1, 1, 1 ],
				"roughnessFactor" : 0.30000000000000004,
				"metallicFactor" : 0.5
			}
		}
	],
	"meshes" : [
		{
			"primitives" : [
				{
					"attributes" : {
						"NORMAL" : 1,
						"POSITION" : 0,
						"COLOR_0" : 2
					},
					"indices" : 3,
					"material" : 0,
					"mode" : 4
				}
			]
		}
	],
	"nodes" : [
		{
			"name" : "B336591562202063C0",
			"matrix" : [ 1, 0, 0, 0, 0, 0, -1, 0, 0, 1, 0, 0, 833658.8125, 107.01300048828125, -815621.625, 1 ],
			"children" : [ 1 ]
		},
		{
			"mesh" : 0
		}
	],
	"scenes" : [
		{
			"nodes" : [ 0 ]
		}
	],
	"scene" : 0,
	"accessors" : [
		{
			"bufferView" : 0,
			"byteOffset" : 0,
			"componentType" : 5126,
			"count" : 918,
			"type" : "VEC3",
			"min" : [ -14.435546875, -12.5029296875, 0 ],
			"max" : [ 14.4365234375, 12.5029296875, 14.214996337890625 ]
		},
		{
			"bufferView" : 1,
			"byteOffset" : 0,
			"componentType" : 5126,
			"count" : 918,
			"type" : "VEC3",
			"min" : [ -0.8932086825370789, -1, -1 ],
			"max" : [ 0.8937557935714722, 0.9070214033126831, 1 ]
		},
		{
			"bufferView" : 2,
			"byteOffset" : 0,
			"componentType" : 5126,
			"count" : 918,
			"type" : "VEC3"
		},
		{
			"bufferView" : 3,
			"byteOffset" : 0,
			"componentType" : 5123,
			"count" : 918,
			"type" : "SCALAR",
			"min" : [ 0 ],
			"max" : [ 917 ]
		}
	],
	"bufferViews" : [
		{
			"buffer" : 0,
			"byteOffset" : 0,
			"byteLength" : 11016,
			"target" : 34962
		},
		{
			"buffer" : 0,
			"byteOffset" : 11016,
			"byteLength" : 11016,
			"target" : 34962
		},
		{
			"buffer" : 0,
			"byteOffset" : 22032,
			"byteLength" : 11016,
			"target" : 34962
		},
		{
			"buffer" : 0,
			"byteOffset" : 33048,
			"byteLength" : 1836,
			"target" : 34963
		}
	],
	"buffers" : [
		{
			"uri" : "B336591562202063C0.bin",
			"byteLength" : 34884
		}
	]
}
