{
	"asset" : {
		"generator" : "FME 2023.1.0.0",
		"version" : "2.0"
	},
	"materials" : [
		{
			"name" : "default_material",
			"pbrMetallicRoughness" : {
				"baseColorFactor" : [ 1, 1, 1, 1 ],
				"roughnessFactor" : 0.30000000000000004,
				"metallicFactor" : 0.5
			}
		}
	],
	"meshes" : [
		{
			"primitives" : [
				{
					"attributes" : {
						"NORMAL" : 1,
						"POSITION" : 0,
						"COLOR_0" : 2
					},
					"indices" : 3,
					"material" : 0,
					"mode" : 4
				}
			]
		}
	],
	"nodes" : [
		{
			"name" : "B340451562901063C0",
			"matrix" : [ 1, 0, 0, 0, 0, 0, -1, 0, 0, 1, 0, 0, 834047.6875, 41.59199142456055, -815628.5625, 1 ],
			"children" : [ 1 ]
		},
		{
			"mesh" : 0
		}
	],
	"scenes" : [
		{
			"nodes" : [ 0 ]
		}
	],
	"scene" : 0,
	"accessors" : [
		{
			"bufferView" : 0,
			"byteOffset" : 0,
			"componentType" : 5126,
			"count" : 1044,
			"type" : "VEC3",
			"min" : [ -7.9873046875, -6.8095703125, 0 ],
			"max" : [ 7.9873046875, 6.8095703125, 13.701000213623047 ]
		},
		{
			"bufferView" : 1,
			"byteOffset" : 0,
			"componentType" : 5126,
			"count" : 1044,
			"type" : "VEC3",
			"min" : [ -0.9938837885856628, -0.8345610499382019, -1 ],
			"max" : [ 0.9936792850494385, 0.8565979599952698, 1 ]
		},
		{
			"bufferView" : 2,
			"byteOffset" : 0,
			"componentType" : 5126,
			"count" : 1044,
			"type" : "VEC3"
		},
		{
			"bufferView" : 3,
			"byteOffset" : 0,
			"componentType" : 5123,
			"count" : 1044,
			"type" : "SCALAR",
			"min" : [ 0 ],
			"max" : [ 1043 ]
		}
	],
	"bufferViews" : [
		{
			"buffer" : 0,
			"byteOffset" : 0,
			"byteLength" : 12528,
			"target" : 34962
		},
		{
			"buffer" : 0,
			"byteOffset" : 12528,
			"byteLength" : 12528,
			"target" : 34962
		},
		{
			"buffer" : 0,
			"byteOffset" : 25056,
			"byteLength" : 12528,
			"target" : 34962
		},
		{
			"buffer" : 0,
			"byteOffset" : 37584,
			"byteLength" : 2088,
			"target" : 34963
		}
	],
	"buffers" : [
		{
			"uri" : "B340451562901063C0.bin",
			"byteLength" : 39672
		}
	]
}
