{
	"asset" : {
		"generator" : "FME 2023.1.0.0",
		"version" : "2.0"
	},
	"materials" : [
		{
			"name" : "default_material",
			"pbrMetallicRoughness" : {
				"baseColorFactor" : [ 1, 1, 1, 1 ],
				"roughnessFactor" : 0.30000000000000004,
				"metallicFactor" : 0.5
			}
		}
	],
	"meshes" : [
		{
			"primitives" : [
				{
					"attributes" : {
						"NORMAL" : 1,
						"POSITION" : 0,
						"COLOR_0" : 2
					},
					"indices" : 3,
					"material" : 0,
					"mode" : 4
				}
			]
		}
	],
	"nodes" : [
		{
			"name" : "B335641630001063C0",
			"matrix" : [ 1, 0, 0, 0, 0, 0, -1, 0, 0, 1, 0, 0, 833563.875, 19.003999710083008, -816300.875, 1 ],
			"children" : [ 1 ]
		},
		{
			"mesh" : 0
		}
	],
	"scenes" : [
		{
			"nodes" : [ 0 ]
		}
	],
	"scene" : 0,
	"accessors" : [
		{
			"bufferView" : 0,
			"byteOffset" : 0,
			"componentType" : 5126,
			"count" : 1563,
			"type" : "VEC3",
			"min" : [ -9.9609375, -9.39453125, 0 ],
			"max" : [ 9.9599609375, 9.3955078125, 60.79900360107422 ]
		},
		{
			"bufferView" : 1,
			"byteOffset" : 0,
			"componentType" : 5126,
			"count" : 1563,
			"type" : "VEC3",
			"min" : [ -0.8548025488853455, -0.8438396453857422, -1 ],
			"max" : [ 0.8415409922599792, 0.845956027507782, 1 ]
		},
		{
			"bufferView" : 2,
			"byteOffset" : 0,
			"componentType" : 5126,
			"count" : 1563,
			"type" : "VEC3"
		},
		{
			"bufferView" : 3,
			"byteOffset" : 0,
			"componentType" : 5123,
			"count" : 1563,
			"type" : "SCALAR",
			"min" : [ 0 ],
			"max" : [ 1562 ]
		}
	],
	"bufferViews" : [
		{
			"buffer" : 0,
			"byteOffset" : 0,
			"byteLength" : 18756,
			"target" : 34962
		},
		{
			"buffer" : 0,
			"byteOffset" : 18756,
			"byteLength" : 18756,
			"target" : 34962
		},
		{
			"buffer" : 0,
			"byteOffset" : 37512,
			"byteLength" : 18756,
			"target" : 34962
		},
		{
			"buffer" : 0,
			"byteOffset" : 56268,
			"byteLength" : 3126,
			"target" : 34963
		}
	],
	"buffers" : [
		{
			"uri" : "B335641630001063C0.bin",
			"byteLength" : 59394
		}
	]
}
