{"accessors":[{"bufferView":0,"componentType":5126,"count":43229,"type":"VEC3"},{"bufferView":1,"componentType":5126,"count":43229,"type":"VEC3"},{"bufferView":2,"componentType":5126,"count":43229,"max":[22.87109375,29.31640625,119.08799743652344],"min":[-22.87109375,-29.3203125,0.0],"type":"VEC3"},{"bufferView":3,"componentType":5123,"count":56226,"max":[43228],"min":[0],"type":"SCALAR"}],"asset":{"generator":"FME 2022.2.4.0","version":"2.0"},"bufferViews":[{"buffer":0,"byteLength":518748,"byteOffset":0,"target":34962},{"buffer":0,"byteLength":518748,"byteOffset":518748,"target":34962},{"buffer":0,"byteLength":518748,"byteOffset":1037496,"target":34962},{"buffer":0,"byteLength":112452,"byteOffset":1556244,"target":34963}],"buffers":[{"byteLength":1668696,"uri":"buffer.bin"}],"materials":[{"name":"default_material","pbrMetallicRoughness":{"baseColorFactor":[1,1,1,1],"metallicFactor":0.5,"roughnessFactor":0.30000000000000004}}],"meshes":[{"primitives":[{"attributes":{"COLOR_0":0,"NORMAL":1,"POSITION":2},"indices":3,"material":0,"mode":4}]}],"nodes":[{"children":[1],"matrix":[1,0,0,0,0,0,-1,0,0,1,0,0,830800.125,13.001998901367188,-839471,1],"name":"B308003946801063C0"},{"mesh":0}],"scene":0,"scenes":[{"nodes":[0]}]}
