{
	"asset" : {
		"generator" : "FME 2022.2.4.0",
		"version" : "2.0"
	},
	"materials" : [
		{
			"name" : "default_material",
			"pbrMetallicRoughness" : {
				"baseColorFactor" : [ 1, 1, 1, 1 ],
				"roughnessFactor" : 0.30000000000000004,
				"metallicFactor" : 0.5
			}
		}
	],
	"meshes" : [
		{
			"primitives" : [
				{
					"attributes" : {
						"NORMAL" : 1,
						"POSITION" : 0,
						"COLOR_0" : 2
					},
					"indices" : 3,
					"material" : 0,
					"mode" : 4
				}
			]
		}
	],
	"nodes" : [
		{
			"name" : "B338461619601063C0",
			"matrix" : [ 1, 0, 0, 0, 0, 0, -1, 0, 0, 1, 0, 0, 833847.5, 7.879997253417969, -816197.8125, 1 ],
			"children" : [ 1 ]
		},
		{
			"mesh" : 0
		}
	],
	"scenes" : [
		{
			"nodes" : [ 0 ]
		}
	],
	"scene" : 0,
	"accessors" : [
		{
			"bufferView" : 0,
			"byteOffset" : 0,
			"componentType" : 5126,
			"count" : 336,
			"type" : "VEC3",
			"min" : [ -6.783203125, -7.2109375, 0 ],
			"max" : [ 6.783203125, 7.2109375, 18.12799835205078 ]
		},
		{
			"bufferView" : 1,
			"byteOffset" : 0,
			"componentType" : 5126,
			"count" : 336,
			"type" : "VEC3",
			"min" : [ -0.8093294501304626, -0.7390748858451843, -1 ],
			"max" : [ 0.8124440908432007, 0.740078866481781, 1 ]
		},
		{
			"bufferView" : 2,
			"byteOffset" : 0,
			"componentType" : 5126,
			"count" : 336,
			"type" : "VEC3"
		},
		{
			"bufferView" : 3,
			"byteOffset" : 0,
			"componentType" : 5123,
			"count" : 336,
			"type" : "SCALAR",
			"min" : [ 0 ],
			"max" : [ 335 ]
		}
	],
	"bufferViews" : [
		{
			"buffer" : 0,
			"byteOffset" : 0,
			"byteLength" : 4032,
			"target" : 34962
		},
		{
			"buffer" : 0,
			"byteOffset" : 4032,
			"byteLength" : 4032,
			"target" : 34962
		},
		{
			"buffer" : 0,
			"byteOffset" : 8064,
			"byteLength" : 4032,
			"target" : 34962
		},
		{
			"buffer" : 0,
			"byteOffset" : 12096,
			"byteLength" : 672,
			"target" : 34963
		}
	],
	"buffers" : [
		{
			"uri" : "B338461619601063C0.bin",
			"byteLength" : 12768
		}
	]
}
