{
	"asset" : {
		"generator" : "FME 2022.2.4.0",
		"version" : "2.0"
	},
	"materials" : [
		{
			"name" : "default_material",
			"pbrMetallicRoughness" : {
				"baseColorFactor" : [ 1, 1, 1, 1 ],
				"roughnessFactor" : 0.30000000000000004,
				"metallicFactor" : 0.5
			}
		}
	],
	"meshes" : [
		{
			"primitives" : [
				{
					"attributes" : {
						"NORMAL" : 1,
						"POSITION" : 0,
						"COLOR_0" : 2
					},
					"indices" : 3,
					"material" : 0,
					"mode" : 4
				}
			]
		}
	],
	"nodes" : [
		{
			"name" : "B342741505901063C0",
			"matrix" : [ 1, 0, 0, 0, 0, 0, -1, 0, 0, 1, 0, 0, 834266.9375, 143.25799560546875, -815052.125, 1 ],
			"children" : [ 1 ]
		},
		{
			"mesh" : 0
		}
	],
	"scenes" : [
		{
			"nodes" : [ 0 ]
		}
	],
	"scene" : 0,
	"accessors" : [
		{
			"bufferView" : 0,
			"byteOffset" : 0,
			"componentType" : 5126,
			"count" : 2871,
			"type" : "VEC3",
			"min" : [ -10.2333984375, -16.716796875, 0 ],
			"max" : [ 10.234375, 16.716796875, 51.21299743652344 ]
		},
		{
			"bufferView" : 1,
			"byteOffset" : 0,
			"componentType" : 5126,
			"count" : 2871,
			"type" : "VEC3",
			"min" : [ -0.9991623759269714, -0.9961515069007874, -1 ],
			"max" : [ 0.9725514054298401, 1, 1 ]
		},
		{
			"bufferView" : 2,
			"byteOffset" : 0,
			"componentType" : 5126,
			"count" : 2871,
			"type" : "VEC3"
		},
		{
			"bufferView" : 3,
			"byteOffset" : 0,
			"componentType" : 5123,
			"count" : 2871,
			"type" : "SCALAR",
			"min" : [ 0 ],
			"max" : [ 2870 ]
		}
	],
	"bufferViews" : [
		{
			"buffer" : 0,
			"byteOffset" : 0,
			"byteLength" : 34452,
			"target" : 34962
		},
		{
			"buffer" : 0,
			"byteOffset" : 34452,
			"byteLength" : 34452,
			"target" : 34962
		},
		{
			"buffer" : 0,
			"byteOffset" : 68904,
			"byteLength" : 34452,
			"target" : 34962
		},
		{
			"buffer" : 0,
			"byteOffset" : 103356,
			"byteLength" : 5742,
			"target" : 34963
		}
	],
	"buffers" : [
		{
			"uri" : "B342741505901063C0.bin",
			"byteLength" : 109098
		}
	]
}
