{
	"asset" : {
		"generator" : "FME 2023.2.1.0",
		"version" : "2.0"
	},
	"materials" : [
		{
			"name" : "default_material",
			"pbrMetallicRoughness" : {
				"baseColorFactor" : [ 1, 1, 1, 1 ],
				"roughnessFactor" : 0.30000000000000004,
				"metallicFactor" : 0.5
			}
		}
	],
	"meshes" : [
		{
			"primitives" : [
				{
					"attributes" : {
						"NORMAL" : 1,
						"POSITION" : 0,
						"COLOR_0" : 2
					},
					"indices" : 3,
					"material" : 0,
					"mode" : 4
				}
			]
		}
	],
	"nodes" : [
		{
			"name" : "B333811643501063C0",
			"matrix" : [ 1, 0, 0, 0, 0, 0, -1, 0, 0, 1, 0, 0, 833388.5, 2.945995330810547, -816440.6875, 1 ],
			"children" : [ 1 ]
		},
		{
			"mesh" : 0
		}
	],
	"scenes" : [
		{
			"nodes" : [ 0 ]
		}
	],
	"scene" : 0,
	"accessors" : [
		{
			"bufferView" : 0,
			"byteOffset" : 0,
			"componentType" : 5126,
			"count" : 363,
			"type" : "VEC3",
			"min" : [ -8.421875, -9.4013671875, 0 ],
			"max" : [ 8.4208984375, 9.400390625, 23.072002410888672 ]
		},
		{
			"bufferView" : 1,
			"byteOffset" : 0,
			"componentType" : 5126,
			"count" : 363,
			"type" : "VEC3",
			"min" : [ -0.7870776653289795, -0.773685872554779, -0.9999879002571106 ],
			"max" : [ 0.7699554562568665, 0.7699028849601746, 1 ]
		},
		{
			"bufferView" : 2,
			"byteOffset" : 0,
			"componentType" : 5126,
			"count" : 363,
			"type" : "VEC3"
		},
		{
			"bufferView" : 3,
			"byteOffset" : 0,
			"componentType" : 5123,
			"count" : 363,
			"type" : "SCALAR",
			"min" : [ 0 ],
			"max" : [ 362 ]
		}
	],
	"bufferViews" : [
		{
			"buffer" : 0,
			"byteOffset" : 0,
			"byteLength" : 4356,
			"target" : 34962
		},
		{
			"buffer" : 0,
			"byteOffset" : 4356,
			"byteLength" : 4356,
			"target" : 34962
		},
		{
			"buffer" : 0,
			"byteOffset" : 8712,
			"byteLength" : 4356,
			"target" : 34962
		},
		{
			"buffer" : 0,
			"byteOffset" : 13068,
			"byteLength" : 726,
			"target" : 34963
		}
	],
	"buffers" : [
		{
			"uri" : "B333811643501063C0.bin",
			"byteLength" : 13794
		}
	]
}
