{
	"asset" : {
		"generator" : "FME 2023.2.1.0",
		"version" : "2.0"
	},
	"materials" : [
		{
			"name" : "default_material",
			"pbrMetallicRoughness" : {
				"baseColorFactor" : [ 1, 1, 1, 1 ],
				"roughnessFactor" : 0.30000000000000004,
				"metallicFactor" : 0.5
			}
		}
	],
	"meshes" : [
		{
			"primitives" : [
				{
					"attributes" : {
						"NORMAL" : 1,
						"POSITION" : 0,
						"COLOR_0" : 2
					},
					"indices" : 3,
					"material" : 0,
					"mode" : 4
				}
			]
		}
	],
	"nodes" : [
		{
			"name" : "B332291632001063C0",
			"matrix" : [ 1, 0, 0, 0, 0, 0, -1, 0, 0, 1, 0, 0, 833230.4375, 15.458999633789062, -816315.5, 1 ],
			"children" : [ 1 ]
		},
		{
			"mesh" : 0
		}
	],
	"scenes" : [
		{
			"nodes" : [ 0 ]
		}
	],
	"scene" : 0,
	"accessors" : [
		{
			"bufferView" : 0,
			"byteOffset" : 0,
			"componentType" : 5126,
			"count" : 1047,
			"type" : "VEC3",
			"min" : [ -7.3466796875, -7.7763671875, 0 ],
			"max" : [ 7.3681640625, 7.7138671875, 23.35100555419922 ]
		},
		{
			"bufferView" : 1,
			"byteOffset" : 0,
			"componentType" : 5126,
			"count" : 1047,
			"type" : "VEC3",
			"min" : [ -0.9487398266792297, -0.7695491313934326, -1 ],
			"max" : [ 1, 0.8074288964271545, 1 ]
		},
		{
			"bufferView" : 2,
			"byteOffset" : 0,
			"componentType" : 5126,
			"count" : 1047,
			"type" : "VEC3"
		},
		{
			"bufferView" : 3,
			"byteOffset" : 0,
			"componentType" : 5123,
			"count" : 1047,
			"type" : "SCALAR",
			"min" : [ 0 ],
			"max" : [ 1046 ]
		}
	],
	"bufferViews" : [
		{
			"buffer" : 0,
			"byteOffset" : 0,
			"byteLength" : 12564,
			"target" : 34962
		},
		{
			"buffer" : 0,
			"byteOffset" : 12564,
			"byteLength" : 12564,
			"target" : 34962
		},
		{
			"buffer" : 0,
			"byteOffset" : 25128,
			"byteLength" : 12564,
			"target" : 34962
		},
		{
			"buffer" : 0,
			"byteOffset" : 37692,
			"byteLength" : 2094,
			"target" : 34963
		}
	],
	"buffers" : [
		{
			"uri" : "B332291632001063C0.bin",
			"byteLength" : 39786
		}
	]
}
