{
	"asset" : {
		"generator" : "FME 2023.2.1.0",
		"version" : "2.0"
	},
	"materials" : [
		{
			"name" : "default_material",
			"pbrMetallicRoughness" : {
				"baseColorFactor" : [ 1, 1, 1, 1 ],
				"roughnessFactor" : 0.30000000000000004,
				"metallicFactor" : 0.5
			}
		}
	],
	"meshes" : [
		{
			"primitives" : [
				{
					"attributes" : {
						"NORMAL" : 1,
						"POSITION" : 0,
						"COLOR_0" : 2
					},
					"indices" : 3,
					"material" : 0,
					"mode" : 4
				}
			]
		}
	],
	"nodes" : [
		{
			"name" : "B337211637402063C0",
			"matrix" : [ 1, 0, 0, 0, 0, 0, -1, 0, 0, 1, 0, 0, 833721.8125, 2.715999126434326, -816376.125, 1 ],
			"children" : [ 1 ]
		},
		{
			"mesh" : 0
		}
	],
	"scenes" : [
		{
			"nodes" : [ 0 ]
		}
	],
	"scene" : 0,
	"accessors" : [
		{
			"bufferView" : 0,
			"byteOffset" : 0,
			"componentType" : 5126,
			"count" : 609,
			"type" : "VEC3",
			"min" : [ -15.1376953125, -18.5244140625, 0 ],
			"max" : [ 15.13671875, 18.5244140625, 21.244998931884766 ]
		},
		{
			"bufferView" : 1,
			"byteOffset" : 0,
			"componentType" : 5126,
			"count" : 609,
			"type" : "VEC3",
			"min" : [ -0.980580747127533, -0.9661949872970581, -1 ],
			"max" : [ 0.9666878581047058, 0.9661949872970581, 1 ]
		},
		{
			"bufferView" : 2,
			"byteOffset" : 0,
			"componentType" : 5126,
			"count" : 609,
			"type" : "VEC3"
		},
		{
			"bufferView" : 3,
			"byteOffset" : 0,
			"componentType" : 5123,
			"count" : 609,
			"type" : "SCALAR",
			"min" : [ 0 ],
			"max" : [ 608 ]
		}
	],
	"bufferViews" : [
		{
			"buffer" : 0,
			"byteOffset" : 0,
			"byteLength" : 7308,
			"target" : 34962
		},
		{
			"buffer" : 0,
			"byteOffset" : 7308,
			"byteLength" : 7308,
			"target" : 34962
		},
		{
			"buffer" : 0,
			"byteOffset" : 14616,
			"byteLength" : 7308,
			"target" : 34962
		},
		{
			"buffer" : 0,
			"byteOffset" : 21924,
			"byteLength" : 1218,
			"target" : 34963
		}
	],
	"buffers" : [
		{
			"uri" : "B337211637402063C0.bin",
			"byteLength" : 23142
		}
	]
}
