{
	"asset" : {
		"generator" : "FME 2023.1.0.0",
		"version" : "2.0"
	},
	"materials" : [
		{
			"name" : "default_material",
			"pbrMetallicRoughness" : {
				"baseColorFactor" : [ 1, 1, 1, 1 ],
				"roughnessFactor" : 0.30000000000000004,
				"metallicFactor" : 0.5
			}
		}
	],
	"meshes" : [
		{
			"primitives" : [
				{
					"attributes" : {
						"NORMAL" : 1,
						"POSITION" : 0,
						"COLOR_0" : 2
					},
					"indices" : 3,
					"material" : 0,
					"mode" : 4
				}
			]
		}
	],
	"nodes" : [
		{
			"name" : "B330061656201063C0",
			"matrix" : [ 1, 0, 0, 0, 0, 0, -1, 0, 0, 1, 0, 0, 833010.9375, 3.6679999828338623, -816570.1875, 1 ],
			"children" : [ 1 ]
		},
		{
			"mesh" : 0
		}
	],
	"scenes" : [
		{
			"nodes" : [ 0 ]
		}
	],
	"scene" : 0,
	"accessors" : [
		{
			"bufferView" : 0,
			"byteOffset" : 0,
			"componentType" : 5126,
			"count" : 1311,
			"type" : "VEC3",
			"min" : [ -8.48193359375, -12.1015625, 0 ],
			"max" : [ 8.48193359375, 12.1015625, 58.306968688964844 ]
		},
		{
			"bufferView" : 1,
			"byteOffset" : 0,
			"componentType" : 5126,
			"count" : 1311,
			"type" : "VEC3",
			"min" : [ -0.9974774718284607, -0.9992486238479614, -1 ],
			"max" : [ 0.9975096583366394, 0.9993621706962585, 1 ]
		},
		{
			"bufferView" : 2,
			"byteOffset" : 0,
			"componentType" : 5126,
			"count" : 1311,
			"type" : "VEC3"
		},
		{
			"bufferView" : 3,
			"byteOffset" : 0,
			"componentType" : 5123,
			"count" : 1311,
			"type" : "SCALAR",
			"min" : [ 0 ],
			"max" : [ 1310 ]
		}
	],
	"bufferViews" : [
		{
			"buffer" : 0,
			"byteOffset" : 0,
			"byteLength" : 15732,
			"target" : 34962
		},
		{
			"buffer" : 0,
			"byteOffset" : 15732,
			"byteLength" : 15732,
			"target" : 34962
		},
		{
			"buffer" : 0,
			"byteOffset" : 31464,
			"byteLength" : 15732,
			"target" : 34962
		},
		{
			"buffer" : 0,
			"byteOffset" : 47196,
			"byteLength" : 2622,
			"target" : 34963
		}
	],
	"buffers" : [
		{
			"uri" : "B330061656201063C0.bin",
			"byteLength" : 49818
		}
	]
}
