{
	"asset" : {
		"generator" : "FME 2023.1.0.0",
		"version" : "2.0"
	},
	"materials" : [
		{
			"name" : "default_material",
			"pbrMetallicRoughness" : {
				"baseColorFactor" : [ 1, 1, 1, 1 ],
				"roughnessFactor" : 0.30000000000000004,
				"metallicFactor" : 0.5
			}
		}
	],
	"meshes" : [
		{
			"primitives" : [
				{
					"attributes" : {
						"NORMAL" : 1,
						"POSITION" : 0,
						"COLOR_0" : 2
					},
					"indices" : 3,
					"material" : 0,
					"mode" : 4
				}
			]
		}
	],
	"nodes" : [
		{
			"name" : "B337381636002063C0",
			"matrix" : [ 1, 0, 0, 0, 0, 0, -1, 0, 0, 1, 0, 0, 833738.3125, 2.711994171142578, -816359.9375, 1 ],
			"children" : [ 1 ]
		},
		{
			"mesh" : 0
		}
	],
	"scenes" : [
		{
			"nodes" : [ 0 ]
		}
	],
	"scene" : 0,
	"accessors" : [
		{
			"bufferView" : 0,
			"byteOffset" : 0,
			"componentType" : 5126,
			"count" : 267,
			"type" : "VEC3",
			"min" : [ -10.0146484375, -9.185546875, 0 ],
			"max" : [ 10.0146484375, 9.1865234375, 17.099000930786133 ]
		},
		{
			"bufferView" : 1,
			"byteOffset" : 0,
			"componentType" : 5126,
			"count" : 267,
			"type" : "VEC3",
			"min" : [ -0.9668172597885132, -0.9652143716812134, -1 ],
			"max" : [ 0.9651234745979309, 0.9651246666908264, 1 ]
		},
		{
			"bufferView" : 2,
			"byteOffset" : 0,
			"componentType" : 5126,
			"count" : 267,
			"type" : "VEC3"
		},
		{
			"bufferView" : 3,
			"byteOffset" : 0,
			"componentType" : 5123,
			"count" : 267,
			"type" : "SCALAR",
			"min" : [ 0 ],
			"max" : [ 266 ]
		}
	],
	"bufferViews" : [
		{
			"buffer" : 0,
			"byteOffset" : 0,
			"byteLength" : 3204,
			"target" : 34962
		},
		{
			"buffer" : 0,
			"byteOffset" : 3204,
			"byteLength" : 3204,
			"target" : 34962
		},
		{
			"buffer" : 0,
			"byteOffset" : 6408,
			"byteLength" : 3204,
			"target" : 34962
		},
		{
			"buffer" : 0,
			"byteOffset" : 9612,
			"byteLength" : 534,
			"target" : 34963
		}
	],
	"buffers" : [
		{
			"uri" : "B337381636002063C0.bin",
			"byteLength" : 10146
		}
	]
}
