{
	"asset" : {
		"generator" : "FME 2022.2.4.0",
		"version" : "2.0"
	},
	"materials" : [
		{
			"name" : "default_material",
			"pbrMetallicRoughness" : {
				"baseColorFactor" : [ 1, 1, 1, 1 ],
				"roughnessFactor" : 0.30000000000000004,
				"metallicFactor" : 0.5
			}
		}
	],
	"meshes" : [
		{
			"primitives" : [
				{
					"attributes" : {
						"NORMAL" : 1,
						"POSITION" : 0,
						"COLOR_0" : 2
					},
					"indices" : 3,
					"material" : 0,
					"mode" : 4
				}
			]
		}
	],
	"nodes" : [
		{
			"name" : "B353551560201063C0",
			"matrix" : [ 1, 0, 0, 0, 0, 0, -1, 0, 0, 1, 0, 0, 835355.625, 4.4629974365234375, -815601.0625, 1 ],
			"children" : [ 1 ]
		},
		{
			"mesh" : 0
		}
	],
	"scenes" : [
		{
			"nodes" : [ 0 ]
		}
	],
	"scene" : 0,
	"accessors" : [
		{
			"bufferView" : 0,
			"byteOffset" : 0,
			"componentType" : 5126,
			"count" : 36,
			"type" : "VEC3",
			"min" : [ -6.0927734375, -6.3251953125, 0 ],
			"max" : [ 5.96875, 6.3251953125, 3.8570003509521484 ]
		},
		{
			"bufferView" : 1,
			"byteOffset" : 0,
			"componentType" : 5126,
			"count" : 36,
			"type" : "VEC3",
			"min" : [ -0.788569986820221, -0.7884863615036011, -1 ],
			"max" : [ 0.788569986820221, 0.7884863615036011, 0.9989251494407654 ]
		},
		{
			"bufferView" : 2,
			"byteOffset" : 0,
			"componentType" : 5126,
			"count" : 36,
			"type" : "VEC3"
		},
		{
			"bufferView" : 3,
			"byteOffset" : 0,
			"componentType" : 5121,
			"count" : 36,
			"type" : "SCALAR",
			"min" : [ 0 ],
			"max" : [ 35 ]
		}
	],
	"bufferViews" : [
		{
			"buffer" : 0,
			"byteOffset" : 0,
			"byteLength" : 432,
			"target" : 34962
		},
		{
			"buffer" : 0,
			"byteOffset" : 432,
			"byteLength" : 432,
			"target" : 34962
		},
		{
			"buffer" : 0,
			"byteOffset" : 864,
			"byteLength" : 432,
			"target" : 34962
		},
		{
			"buffer" : 0,
			"byteOffset" : 1296,
			"byteLength" : 36,
			"target" : 34963
		}
	],
	"buffers" : [
		{
			"uri" : "B353551560201063C0.bin",
			"byteLength" : 1332
		}
	]
}
