{
	"asset" : {
		"generator" : "FME 2023.1.0.0",
		"version" : "2.0"
	},
	"materials" : [
		{
			"name" : "default_material",
			"pbrMetallicRoughness" : {
				"baseColorFactor" : [ 1, 1, 1, 1 ],
				"roughnessFactor" : 0.30000000000000004,
				"metallicFactor" : 0.5
			}
		}
	],
	"meshes" : [
		{
			"primitives" : [
				{
					"attributes" : {
						"NORMAL" : 1,
						"POSITION" : 0,
						"COLOR_0" : 2
					},
					"indices" : 3,
					"material" : 0,
					"mode" : 4
				}
			]
		}
	],
	"nodes" : [
		{
			"name" : "B338581584501063C0",
			"matrix" : [ 1, 0, 0, 0, 0, 0, -1, 0, 0, 1, 0, 0, 833853, 46.64000701904297, -815847.375, 1 ],
			"children" : [ 1 ]
		},
		{
			"mesh" : 0
		}
	],
	"scenes" : [
		{
			"nodes" : [ 0 ]
		}
	],
	"scene" : 0,
	"accessors" : [
		{
			"bufferView" : 0,
			"byteOffset" : 0,
			"componentType" : 5126,
			"count" : 555,
			"type" : "VEC3",
			"min" : [ -8.2685546875, -7.3720703125, 0 ],
			"max" : [ 8.2685546875, 7.37109375, 22.152000427246094 ]
		},
		{
			"bufferView" : 1,
			"byteOffset" : 0,
			"componentType" : 5126,
			"count" : 555,
			"type" : "VEC3",
			"min" : [ -0.9189996123313904, -0.9216925501823425, -1 ],
			"max" : [ 0.9201546907424927, 1, 1 ]
		},
		{
			"bufferView" : 2,
			"byteOffset" : 0,
			"componentType" : 5126,
			"count" : 555,
			"type" : "VEC3"
		},
		{
			"bufferView" : 3,
			"byteOffset" : 0,
			"componentType" : 5123,
			"count" : 555,
			"type" : "SCALAR",
			"min" : [ 0 ],
			"max" : [ 554 ]
		}
	],
	"bufferViews" : [
		{
			"buffer" : 0,
			"byteOffset" : 0,
			"byteLength" : 6660,
			"target" : 34962
		},
		{
			"buffer" : 0,
			"byteOffset" : 6660,
			"byteLength" : 6660,
			"target" : 34962
		},
		{
			"buffer" : 0,
			"byteOffset" : 13320,
			"byteLength" : 6660,
			"target" : 34962
		},
		{
			"buffer" : 0,
			"byteOffset" : 19980,
			"byteLength" : 1110,
			"target" : 34963
		}
	],
	"buffers" : [
		{
			"uri" : "B338581584501063C0.bin",
			"byteLength" : 21090
		}
	]
}
