{
	"asset" : {
		"generator" : "FME 2022.2.4.0",
		"version" : "2.0"
	},
	"materials" : [
		{
			"name" : "default_material",
			"pbrMetallicRoughness" : {
				"baseColorFactor" : [ 1, 1, 1, 1 ],
				"roughnessFactor" : 0.30000000000000004,
				"metallicFactor" : 0.5
			}
		}
	],
	"meshes" : [
		{
			"primitives" : [
				{
					"attributes" : {
						"NORMAL" : 1,
						"POSITION" : 0,
						"COLOR_0" : 2
					},
					"indices" : 3,
					"material" : 0,
					"mode" : 4
				}
			]
		}
	],
	"nodes" : [
		{
			"name" : "B343161539101063C0",
			"matrix" : [ 1, 0, 0, 0, 0, 0, -1, 0, 0, 1, 0, 0, 834314.125, 46.97100067138672, -815382, 1 ],
			"children" : [ 1 ]
		},
		{
			"mesh" : 0
		}
	],
	"scenes" : [
		{
			"nodes" : [ 0 ]
		}
	],
	"scene" : 0,
	"accessors" : [
		{
			"bufferView" : 0,
			"byteOffset" : 0,
			"componentType" : 5126,
			"count" : 19422,
			"type" : "VEC3",
			"min" : [ -23.6806640625, -20.6953125, 0 ],
			"max" : [ 23.6806640625, 20.6953125, 24.240997314453125 ]
		},
		{
			"bufferView" : 1,
			"byteOffset" : 0,
			"componentType" : 5126,
			"count" : 19422,
			"type" : "VEC3",
			"min" : [ -1, -0.9999852776527405, -1 ],
			"max" : [ 1, 0.9998286366462708, 1 ]
		},
		{
			"bufferView" : 2,
			"byteOffset" : 0,
			"componentType" : 5126,
			"count" : 19422,
			"type" : "VEC3"
		},
		{
			"bufferView" : 3,
			"byteOffset" : 0,
			"componentType" : 5123,
			"count" : 19422,
			"type" : "SCALAR",
			"min" : [ 0 ],
			"max" : [ 19421 ]
		}
	],
	"bufferViews" : [
		{
			"buffer" : 0,
			"byteOffset" : 0,
			"byteLength" : 233064,
			"target" : 34962
		},
		{
			"buffer" : 0,
			"byteOffset" : 233064,
			"byteLength" : 233064,
			"target" : 34962
		},
		{
			"buffer" : 0,
			"byteOffset" : 466128,
			"byteLength" : 233064,
			"target" : 34962
		},
		{
			"buffer" : 0,
			"byteOffset" : 699192,
			"byteLength" : 38844,
			"target" : 34963
		}
	],
	"buffers" : [
		{
			"uri" : "B343161539101063C0.bin",
			"byteLength" : 738036
		}
	]
}
