{
	"asset" : {
		"generator" : "FME 2023.1.0.0",
		"version" : "2.0"
	},
	"materials" : [
		{
			"name" : "default_material",
			"pbrMetallicRoughness" : {
				"baseColorFactor" : [ 1, 1, 1, 1 ],
				"roughnessFactor" : 0.30000000000000004,
				"metallicFactor" : 0.5
			}
		}
	],
	"meshes" : [
		{
			"primitives" : [
				{
					"attributes" : {
						"NORMAL" : 1,
						"POSITION" : 0,
						"COLOR_0" : 2
					},
					"indices" : 3,
					"material" : 0,
					"mode" : 4
				}
			]
		}
	],
	"nodes" : [
		{
			"name" : "B334191670101063C0",
			"matrix" : [ 1, 0, 0, 0, 0, 0, -1, 0, 0, 1, 0, 0, 833419.25, 4.175000190734863, -816700, 1 ],
			"children" : [ 1 ]
		},
		{
			"mesh" : 0
		}
	],
	"scenes" : [
		{
			"nodes" : [ 0 ]
		}
	],
	"scene" : 0,
	"accessors" : [
		{
			"bufferView" : 0,
			"byteOffset" : 0,
			"componentType" : 5126,
			"count" : 936,
			"type" : "VEC3",
			"min" : [ -12.66015625, -13.5068359375, 0 ],
			"max" : [ 12.6591796875, 13.5068359375, 6.951000213623047 ]
		},
		{
			"bufferView" : 1,
			"byteOffset" : 0,
			"componentType" : 5126,
			"count" : 936,
			"type" : "VEC3",
			"min" : [ -0.9779022336006165, -0.9679228067398071, -1 ],
			"max" : [ 0.9778023958206177, 0.966924250125885, 1 ]
		},
		{
			"bufferView" : 2,
			"byteOffset" : 0,
			"componentType" : 5126,
			"count" : 936,
			"type" : "VEC3"
		},
		{
			"bufferView" : 3,
			"byteOffset" : 0,
			"componentType" : 5123,
			"count" : 936,
			"type" : "SCALAR",
			"min" : [ 0 ],
			"max" : [ 935 ]
		}
	],
	"bufferViews" : [
		{
			"buffer" : 0,
			"byteOffset" : 0,
			"byteLength" : 11232,
			"target" : 34962
		},
		{
			"buffer" : 0,
			"byteOffset" : 11232,
			"byteLength" : 11232,
			"target" : 34962
		},
		{
			"buffer" : 0,
			"byteOffset" : 22464,
			"byteLength" : 11232,
			"target" : 34962
		},
		{
			"buffer" : 0,
			"byteOffset" : 33696,
			"byteLength" : 1872,
			"target" : 34963
		}
	],
	"buffers" : [
		{
			"uri" : "B334191670101063C0.bin",
			"byteLength" : 35568
		}
	]
}
