{
	"asset" : {
		"generator" : "FME 2023.1.0.0",
		"version" : "2.0"
	},
	"materials" : [
		{
			"name" : "default_material",
			"pbrMetallicRoughness" : {
				"baseColorFactor" : [ 1, 1, 1, 1 ],
				"roughnessFactor" : 0.30000000000000004,
				"metallicFactor" : 0.5
			}
		}
	],
	"meshes" : [
		{
			"primitives" : [
				{
					"attributes" : {
						"NORMAL" : 1,
						"POSITION" : 0,
						"COLOR_0" : 2
					},
					"indices" : 3,
					"material" : 0,
					"mode" : 4
				}
			]
		}
	],
	"nodes" : [
		{
			"name" : "B334751643801063C0",
			"matrix" : [ 1, 0, 0, 0, 0, 0, -1, 0, 0, 1, 0, 0, 833476.1875, 2.9000048637390137, -816437.4375, 1 ],
			"children" : [ 1 ]
		},
		{
			"mesh" : 0
		}
	],
	"scenes" : [
		{
			"nodes" : [ 0 ]
		}
	],
	"scene" : 0,
	"accessors" : [
		{
			"bufferView" : 0,
			"byteOffset" : 0,
			"componentType" : 5126,
			"count" : 615,
			"type" : "VEC3",
			"min" : [ -5.455078125, -15.48828125, 0 ],
			"max" : [ 5.455078125, 15.4892578125, 23.42599868774414 ]
		},
		{
			"bufferView" : 1,
			"byteOffset" : 0,
			"componentType" : 5126,
			"count" : 615,
			"type" : "VEC3",
			"min" : [ -0.9785280823707581, -0.9785876870155334, -1 ],
			"max" : [ 0.9805341958999634, 0.9785917401313782, 1 ]
		},
		{
			"bufferView" : 2,
			"byteOffset" : 0,
			"componentType" : 5126,
			"count" : 615,
			"type" : "VEC3"
		},
		{
			"bufferView" : 3,
			"byteOffset" : 0,
			"componentType" : 5123,
			"count" : 615,
			"type" : "SCALAR",
			"min" : [ 0 ],
			"max" : [ 614 ]
		}
	],
	"bufferViews" : [
		{
			"buffer" : 0,
			"byteOffset" : 0,
			"byteLength" : 7380,
			"target" : 34962
		},
		{
			"buffer" : 0,
			"byteOffset" : 7380,
			"byteLength" : 7380,
			"target" : 34962
		},
		{
			"buffer" : 0,
			"byteOffset" : 14760,
			"byteLength" : 7380,
			"target" : 34962
		},
		{
			"buffer" : 0,
			"byteOffset" : 22140,
			"byteLength" : 1230,
			"target" : 34963
		}
	],
	"buffers" : [
		{
			"uri" : "B334751643801063C0.bin",
			"byteLength" : 23370
		}
	]
}
