{
	"asset" : {
		"generator" : "FME 2023.1.0.0",
		"version" : "2.0"
	},
	"materials" : [
		{
			"name" : "default_material",
			"pbrMetallicRoughness" : {
				"baseColorFactor" : [ 1, 1, 1, 1 ],
				"roughnessFactor" : 0.30000000000000004,
				"metallicFactor" : 0.5
			}
		}
	],
	"meshes" : [
		{
			"primitives" : [
				{
					"attributes" : {
						"NORMAL" : 1,
						"POSITION" : 0,
						"COLOR_0" : 2
					},
					"indices" : 3,
					"material" : 0,
					"mode" : 4
				}
			]
		}
	],
	"nodes" : [
		{
			"name" : "B332271621801063C0",
			"matrix" : [ 1, 0, 0, 0, 0, 0, -1, 0, 0, 1, 0, 0, 833226.6875, 31.708999633789062, -816213.125, 1 ],
			"children" : [ 1 ]
		},
		{
			"mesh" : 0
		}
	],
	"scenes" : [
		{
			"nodes" : [ 0 ]
		}
	],
	"scene" : 0,
	"accessors" : [
		{
			"bufferView" : 0,
			"byteOffset" : 0,
			"componentType" : 5126,
			"count" : 1917,
			"type" : "VEC3",
			"min" : [ -11.0517578125, -11.2890625, 0 ],
			"max" : [ 11.052734375, 11.2900390625, 65.197998046875 ]
		},
		{
			"bufferView" : 1,
			"byteOffset" : 0,
			"componentType" : 5126,
			"count" : 1917,
			"type" : "VEC3",
			"min" : [ -0.7737266421318054, -0.7999970316886902, -1 ],
			"max" : [ 1, 0.7718278765678406, 1 ]
		},
		{
			"bufferView" : 2,
			"byteOffset" : 0,
			"componentType" : 5126,
			"count" : 1917,
			"type" : "VEC3"
		},
		{
			"bufferView" : 3,
			"byteOffset" : 0,
			"componentType" : 5123,
			"count" : 1917,
			"type" : "SCALAR",
			"min" : [ 0 ],
			"max" : [ 1916 ]
		}
	],
	"bufferViews" : [
		{
			"buffer" : 0,
			"byteOffset" : 0,
			"byteLength" : 23004,
			"target" : 34962
		},
		{
			"buffer" : 0,
			"byteOffset" : 23004,
			"byteLength" : 23004,
			"target" : 34962
		},
		{
			"buffer" : 0,
			"byteOffset" : 46008,
			"byteLength" : 23004,
			"target" : 34962
		},
		{
			"buffer" : 0,
			"byteOffset" : 69012,
			"byteLength" : 3834,
			"target" : 34963
		}
	],
	"buffers" : [
		{
			"uri" : "B332271621801063C0.bin",
			"byteLength" : 72846
		}
	]
}
