{"accessors":[{"bufferView":0,"componentType":5126,"count":34115,"type":"VEC3"},{"bufferView":1,"componentType":5126,"count":34115,"type":"VEC3"},{"bufferView":2,"componentType":5126,"count":34115,"max":[15.095703125,14.4833984375,83.41302490234375],"min":[-15.0966796875,-14.484375,0.0],"type":"VEC3"},{"bufferView":3,"componentType":5123,"count":46842,"max":[34114],"min":[0],"type":"SCALAR"}],"asset":{"generator":"FME 2022.2.4.0","version":"2.0"},"bufferViews":[{"buffer":0,"byteLength":409380,"byteOffset":0,"target":34962},{"buffer":0,"byteLength":409380,"byteOffset":409380,"target":34962},{"buffer":0,"byteLength":409380,"byteOffset":818760,"target":34962},{"buffer":0,"byteLength":93684,"byteOffset":1228140,"target":34963}],"buffers":[{"byteLength":1321824,"uri":"buffer.bin"}],"materials":[{"name":"default_material","pbrMetallicRoughness":{"baseColorFactor":[1,1,1,1],"metallicFactor":0.5,"roughnessFactor":0.30000000000000004}}],"meshes":[{"primitives":[{"attributes":{"COLOR_0":0,"NORMAL":1,"POSITION":2},"indices":3,"material":0,"mode":4}]}],"nodes":[{"children":[1],"matrix":[1,0,0,0,0,0,-1,0,0,1,0,0,838496.1875,294.0669860839844,-813230.25,1],"name":"B384951323301063C0"},{"mesh":0}],"scene":0,"scenes":[{"nodes":[0]}]}
