{
	"asset" : {
		"generator" : "FME 2023.1.0.0",
		"version" : "2.0"
	},
	"materials" : [
		{
			"name" : "default_material",
			"pbrMetallicRoughness" : {
				"baseColorFactor" : [ 1, 1, 1, 1 ],
				"roughnessFactor" : 0.30000000000000004,
				"metallicFactor" : 0.5
			}
		}
	],
	"meshes" : [
		{
			"primitives" : [
				{
					"attributes" : {
						"NORMAL" : 1,
						"POSITION" : 0,
						"COLOR_0" : 2
					},
					"indices" : 3,
					"material" : 0,
					"mode" : 4
				}
			]
		}
	],
	"nodes" : [
		{
			"name" : "B333621638301063C0",
			"matrix" : [ 1, 0, 0, 0, 0, 0, -1, 0, 0, 1, 0, 0, 833365.4375, 4.394999980926514, -816383.375, 1 ],
			"children" : [ 1 ]
		},
		{
			"mesh" : 0
		}
	],
	"scenes" : [
		{
			"nodes" : [ 0 ]
		}
	],
	"scene" : 0,
	"accessors" : [
		{
			"bufferView" : 0,
			"byteOffset" : 0,
			"componentType" : 5126,
			"count" : 795,
			"type" : "VEC3",
			"min" : [ -9.1962890625, -8.4921875, 0 ],
			"max" : [ 9.1962890625, 8.4931640625, 50.72999954223633 ]
		},
		{
			"bufferView" : 1,
			"byteOffset" : 0,
			"componentType" : 5126,
			"count" : 795,
			"type" : "VEC3",
			"min" : [ -0.7764625549316406, -0.7735677361488342, -1 ],
			"max" : [ 0.7928081750869751, 0.7850523591041565, 1 ]
		},
		{
			"bufferView" : 2,
			"byteOffset" : 0,
			"componentType" : 5126,
			"count" : 795,
			"type" : "VEC3"
		},
		{
			"bufferView" : 3,
			"byteOffset" : 0,
			"componentType" : 5123,
			"count" : 795,
			"type" : "SCALAR",
			"min" : [ 0 ],
			"max" : [ 794 ]
		}
	],
	"bufferViews" : [
		{
			"buffer" : 0,
			"byteOffset" : 0,
			"byteLength" : 9540,
			"target" : 34962
		},
		{
			"buffer" : 0,
			"byteOffset" : 9540,
			"byteLength" : 9540,
			"target" : 34962
		},
		{
			"buffer" : 0,
			"byteOffset" : 19080,
			"byteLength" : 9540,
			"target" : 34962
		},
		{
			"buffer" : 0,
			"byteOffset" : 28620,
			"byteLength" : 1590,
			"target" : 34963
		}
	],
	"buffers" : [
		{
			"uri" : "B333621638301063C0.bin",
			"byteLength" : 30210
		}
	]
}
