{
	"asset" : {
		"generator" : "FME 2022.2.4.0",
		"version" : "2.0"
	},
	"materials" : [
		{
			"name" : "default_material",
			"pbrMetallicRoughness" : {
				"baseColorFactor" : [ 1, 1, 1, 1 ],
				"roughnessFactor" : 0.30000000000000004,
				"metallicFactor" : 0.5
			}
		}
	],
	"meshes" : [
		{
			"primitives" : [
				{
					"attributes" : {
						"NORMAL" : 1,
						"POSITION" : 0,
						"COLOR_0" : 2
					},
					"indices" : 3,
					"material" : 0,
					"mode" : 4
				}
			]
		}
	],
	"nodes" : [
		{
			"name" : "B356561534301063C0",
			"matrix" : [ 1, 0, 0, 0, 0, 0, -1, 0, 0, 1, 0, 0, 835656.9375, 17.42300033569336, -815341, 1 ],
			"children" : [ 1 ]
		},
		{
			"mesh" : 0
		}
	],
	"scenes" : [
		{
			"nodes" : [ 0 ]
		}
	],
	"scene" : 0,
	"accessors" : [
		{
			"bufferView" : 0,
			"byteOffset" : 0,
			"componentType" : 5126,
			"count" : 2151,
			"type" : "VEC3",
			"min" : [ -11.0537109375, -10.4716796875, 0 ],
			"max" : [ 11.0546875, 10.470703125, 62.46400833129883 ]
		},
		{
			"bufferView" : 1,
			"byteOffset" : 0,
			"componentType" : 5126,
			"count" : 2151,
			"type" : "VEC3",
			"min" : [ -0.98384028673172, -1, -1 ],
			"max" : [ 0.9836908578872681, 1, 1 ]
		},
		{
			"bufferView" : 2,
			"byteOffset" : 0,
			"componentType" : 5126,
			"count" : 2151,
			"type" : "VEC3"
		},
		{
			"bufferView" : 3,
			"byteOffset" : 0,
			"componentType" : 5123,
			"count" : 2151,
			"type" : "SCALAR",
			"min" : [ 0 ],
			"max" : [ 2150 ]
		}
	],
	"bufferViews" : [
		{
			"buffer" : 0,
			"byteOffset" : 0,
			"byteLength" : 25812,
			"target" : 34962
		},
		{
			"buffer" : 0,
			"byteOffset" : 25812,
			"byteLength" : 25812,
			"target" : 34962
		},
		{
			"buffer" : 0,
			"byteOffset" : 51624,
			"byteLength" : 25812,
			"target" : 34962
		},
		{
			"buffer" : 0,
			"byteOffset" : 77436,
			"byteLength" : 4302,
			"target" : 34963
		}
	],
	"buffers" : [
		{
			"uri" : "B356561534301063C0.bin",
			"byteLength" : 81738
		}
	]
}
