{
	"asset" : {
		"generator" : "FME 2023.2.1.0",
		"version" : "2.0"
	},
	"materials" : [
		{
			"name" : "default_material",
			"pbrMetallicRoughness" : {
				"baseColorFactor" : [ 1, 1, 1, 1 ],
				"roughnessFactor" : 0.30000000000000004,
				"metallicFactor" : 0.5
			}
		}
	],
	"meshes" : [
		{
			"primitives" : [
				{
					"attributes" : {
						"NORMAL" : 1,
						"POSITION" : 0,
						"COLOR_0" : 2
					},
					"indices" : 3,
					"material" : 0,
					"mode" : 4
				}
			]
		}
	],
	"nodes" : [
		{
			"name" : "B358591523301063C0",
			"matrix" : [ 1, 0, 0, 0, 0, 0, -1, 0, 0, 1, 0, 0, 835864.125, 3.947999954223633, -815231.9375, 1 ],
			"children" : [ 1 ]
		},
		{
			"mesh" : 0
		}
	],
	"scenes" : [
		{
			"nodes" : [ 0 ]
		}
	],
	"scene" : 0,
	"accessors" : [
		{
			"bufferView" : 0,
			"byteOffset" : 0,
			"componentType" : 5126,
			"count" : 468,
			"type" : "VEC3",
			"min" : [ -7.6826171875, -3.3662109375, 0 ],
			"max" : [ 7.68359375, 3.365234375, 21.475000381469727 ]
		},
		{
			"bufferView" : 1,
			"byteOffset" : 0,
			"componentType" : 5126,
			"count" : 468,
			"type" : "VEC3",
			"min" : [ -0.9945375919342041, -0.9945765137672424, -1 ],
			"max" : [ 0.9941793084144592, 0.9946083426475525, 1 ]
		},
		{
			"bufferView" : 2,
			"byteOffset" : 0,
			"componentType" : 5126,
			"count" : 468,
			"type" : "VEC3"
		},
		{
			"bufferView" : 3,
			"byteOffset" : 0,
			"componentType" : 5123,
			"count" : 468,
			"type" : "SCALAR",
			"min" : [ 0 ],
			"max" : [ 467 ]
		}
	],
	"bufferViews" : [
		{
			"buffer" : 0,
			"byteOffset" : 0,
			"byteLength" : 5616,
			"target" : 34962
		},
		{
			"buffer" : 0,
			"byteOffset" : 5616,
			"byteLength" : 5616,
			"target" : 34962
		},
		{
			"buffer" : 0,
			"byteOffset" : 11232,
			"byteLength" : 5616,
			"target" : 34962
		},
		{
			"buffer" : 0,
			"byteOffset" : 16848,
			"byteLength" : 936,
			"target" : 34963
		}
	],
	"buffers" : [
		{
			"uri" : "B358591523301063C0.bin",
			"byteLength" : 17784
		}
	]
}
