{
	"asset" : {
		"generator" : "FME 2023.1.0.0",
		"version" : "2.0"
	},
	"materials" : [
		{
			"name" : "default_material",
			"pbrMetallicRoughness" : {
				"baseColorFactor" : [ 1, 1, 1, 1 ],
				"roughnessFactor" : 0.30000000000000004,
				"metallicFactor" : 0.5
			}
		}
	],
	"meshes" : [
		{
			"primitives" : [
				{
					"attributes" : {
						"NORMAL" : 1,
						"POSITION" : 0,
						"COLOR_0" : 2
					},
					"indices" : 3,
					"material" : 0,
					"mode" : 4
				}
			]
		}
	],
	"nodes" : [
		{
			"name" : "B355451519401063C0",
			"matrix" : [ 1, 0, 0, 0, 0, 0, -1, 0, 0, 1, 0, 0, 835545.0625, 20.746999740600586, -815193.8125, 1 ],
			"children" : [ 1 ]
		},
		{
			"mesh" : 0
		}
	],
	"scenes" : [
		{
			"nodes" : [ 0 ]
		}
	],
	"scene" : 0,
	"accessors" : [
		{
			"bufferView" : 0,
			"byteOffset" : 0,
			"componentType" : 5126,
			"count" : 672,
			"type" : "VEC3",
			"min" : [ -8.5400390625, -9.302734375, 0 ],
			"max" : [ 8.5400390625, 9.3017578125, 16.668001174926758 ]
		},
		{
			"bufferView" : 1,
			"byteOffset" : 0,
			"componentType" : 5126,
			"count" : 672,
			"type" : "VEC3",
			"min" : [ -0.779695451259613, -0.778075098991394, -1 ],
			"max" : [ 0.7765576839447021, 0.7755122780799866, 1 ]
		},
		{
			"bufferView" : 2,
			"byteOffset" : 0,
			"componentType" : 5126,
			"count" : 672,
			"type" : "VEC3"
		},
		{
			"bufferView" : 3,
			"byteOffset" : 0,
			"componentType" : 5123,
			"count" : 672,
			"type" : "SCALAR",
			"min" : [ 0 ],
			"max" : [ 671 ]
		}
	],
	"bufferViews" : [
		{
			"buffer" : 0,
			"byteOffset" : 0,
			"byteLength" : 8064,
			"target" : 34962
		},
		{
			"buffer" : 0,
			"byteOffset" : 8064,
			"byteLength" : 8064,
			"target" : 34962
		},
		{
			"buffer" : 0,
			"byteOffset" : 16128,
			"byteLength" : 8064,
			"target" : 34962
		},
		{
			"buffer" : 0,
			"byteOffset" : 24192,
			"byteLength" : 1344,
			"target" : 34963
		}
	],
	"buffers" : [
		{
			"uri" : "B355451519401063C0.bin",
			"byteLength" : 25536
		}
	]
}
