{
	"asset" : {
		"generator" : "FME 2022.2.4.0",
		"version" : "2.0"
	},
	"materials" : [
		{
			"name" : "default_material",
			"pbrMetallicRoughness" : {
				"baseColorFactor" : [ 1, 1, 1, 1 ],
				"roughnessFactor" : 0.30000000000000004,
				"metallicFactor" : 0.5
			}
		}
	],
	"meshes" : [
		{
			"primitives" : [
				{
					"attributes" : {
						"NORMAL" : 1,
						"POSITION" : 0,
						"COLOR_0" : 2
					},
					"indices" : 3,
					"material" : 0,
					"mode" : 4
				}
			]
		}
	],
	"nodes" : [
		{
			"name" : "B340461518101063C0",
			"matrix" : [ 1, 0, 0, 0, 0, 0, -1, 0, 0, 1, 0, 0, 834055.4375, 101.3010025024414, -815181.25, 1 ],
			"children" : [ 1 ]
		},
		{
			"mesh" : 0
		}
	],
	"scenes" : [
		{
			"nodes" : [ 0 ]
		}
	],
	"scene" : 0,
	"accessors" : [
		{
			"bufferView" : 0,
			"byteOffset" : 0,
			"componentType" : 5126,
			"count" : 1812,
			"type" : "VEC3",
			"min" : [ -23.625, -18.6875, 0 ],
			"max" : [ 23.625, 18.625, 132.47698974609375 ]
		},
		{
			"bufferView" : 1,
			"byteOffset" : 0,
			"componentType" : 5126,
			"count" : 1812,
			"type" : "VEC3",
			"min" : [ -1, -0.987762987613678, -1 ],
			"max" : [ 0.9938837289810181, 0.986393928527832, 1 ]
		},
		{
			"bufferView" : 2,
			"byteOffset" : 0,
			"componentType" : 5126,
			"count" : 1812,
			"type" : "VEC3"
		},
		{
			"bufferView" : 3,
			"byteOffset" : 0,
			"componentType" : 5123,
			"count" : 1812,
			"type" : "SCALAR",
			"min" : [ 0 ],
			"max" : [ 1811 ]
		}
	],
	"bufferViews" : [
		{
			"buffer" : 0,
			"byteOffset" : 0,
			"byteLength" : 21744,
			"target" : 34962
		},
		{
			"buffer" : 0,
			"byteOffset" : 21744,
			"byteLength" : 21744,
			"target" : 34962
		},
		{
			"buffer" : 0,
			"byteOffset" : 43488,
			"byteLength" : 21744,
			"target" : 34962
		},
		{
			"buffer" : 0,
			"byteOffset" : 65232,
			"byteLength" : 3624,
			"target" : 34963
		}
	],
	"buffers" : [
		{
			"uri" : "B340461518101063C0.bin",
			"byteLength" : 68856
		}
	]
}
