{
	"asset" : {
		"generator" : "FME 2022.2.4.0",
		"version" : "2.0"
	},
	"materials" : [
		{
			"name" : "default_material",
			"pbrMetallicRoughness" : {
				"baseColorFactor" : [ 1, 1, 1, 1 ],
				"roughnessFactor" : 0.30000000000000004,
				"metallicFactor" : 0.5
			}
		}
	],
	"meshes" : [
		{
			"primitives" : [
				{
					"attributes" : {
						"NORMAL" : 1,
						"POSITION" : 0,
						"COLOR_0" : 2
					},
					"indices" : 3,
					"material" : 0,
					"mode" : 4
				}
			]
		}
	],
	"nodes" : [
		{
			"name" : "B357881553702063C0",
			"matrix" : [ 1, 0, 0, 0, 0, 0, -1, 0, 0, 1, 0, 0, 835796.0625, 3.180000066757202, -815540, 1 ],
			"children" : [ 1 ]
		},
		{
			"mesh" : 0
		}
	],
	"scenes" : [
		{
			"nodes" : [ 0 ]
		}
	],
	"scene" : 0,
	"accessors" : [
		{
			"bufferView" : 0,
			"byteOffset" : 0,
			"componentType" : 5126,
			"count" : 756,
			"type" : "VEC3",
			"min" : [ -24.6494140625, -12.19921875, 0 ],
			"max" : [ 24.6494140625, 12.19921875, 15.941999435424805 ]
		},
		{
			"bufferView" : 1,
			"byteOffset" : 0,
			"componentType" : 5126,
			"count" : 756,
			"type" : "VEC3",
			"min" : [ -0.9995586276054382, -0.9989599585533142, -1 ],
			"max" : [ 0.9987000226974487, 1, 1 ]
		},
		{
			"bufferView" : 2,
			"byteOffset" : 0,
			"componentType" : 5126,
			"count" : 756,
			"type" : "VEC3"
		},
		{
			"bufferView" : 3,
			"byteOffset" : 0,
			"componentType" : 5123,
			"count" : 756,
			"type" : "SCALAR",
			"min" : [ 0 ],
			"max" : [ 755 ]
		}
	],
	"bufferViews" : [
		{
			"buffer" : 0,
			"byteOffset" : 0,
			"byteLength" : 9072,
			"target" : 34962
		},
		{
			"buffer" : 0,
			"byteOffset" : 9072,
			"byteLength" : 9072,
			"target" : 34962
		},
		{
			"buffer" : 0,
			"byteOffset" : 18144,
			"byteLength" : 9072,
			"target" : 34962
		},
		{
			"buffer" : 0,
			"byteOffset" : 27216,
			"byteLength" : 1512,
			"target" : 34963
		}
	],
	"buffers" : [
		{
			"uri" : "B357881553702063C0.bin",
			"byteLength" : 28728
		}
	]
}
