{
	"asset" : {
		"generator" : "FME 2023.1.0.0",
		"version" : "2.0"
	},
	"materials" : [
		{
			"name" : "default_material",
			"pbrMetallicRoughness" : {
				"baseColorFactor" : [ 1, 1, 1, 1 ],
				"roughnessFactor" : 0.30000000000000004,
				"metallicFactor" : 0.5
			}
		}
	],
	"meshes" : [
		{
			"primitives" : [
				{
					"attributes" : {
						"NORMAL" : 1,
						"POSITION" : 0,
						"COLOR_0" : 2
					},
					"indices" : 3,
					"material" : 0,
					"mode" : 4
				}
			]
		}
	],
	"nodes" : [
		{
			"name" : "B335321647401063C0",
			"matrix" : [ 1, 0, 0, 0, 0, 0, -1, 0, 0, 1, 0, 0, 833536.4375, 3.315999984741211, -816490.125, 1 ],
			"children" : [ 1 ]
		},
		{
			"mesh" : 0
		}
	],
	"scenes" : [
		{
			"nodes" : [ 0 ]
		}
	],
	"scene" : 0,
	"accessors" : [
		{
			"bufferView" : 0,
			"byteOffset" : 0,
			"componentType" : 5126,
			"count" : 40143,
			"type" : "VEC3",
			"min" : [ -19.5859375, -27.5390625, 0 ],
			"max" : [ 19.5859375, 27.5390625, 20.7549991607666 ]
		},
		{
			"bufferView" : 1,
			"byteOffset" : 0,
			"componentType" : 5126,
			"count" : 40143,
			"type" : "VEC3",
			"min" : [ -1, -1, -1 ],
			"max" : [ 1, 1, 1 ]
		},
		{
			"bufferView" : 2,
			"byteOffset" : 0,
			"componentType" : 5126,
			"count" : 40143,
			"type" : "VEC3"
		},
		{
			"bufferView" : 3,
			"byteOffset" : 0,
			"componentType" : 5123,
			"count" : 40143,
			"type" : "SCALAR",
			"min" : [ 0 ],
			"max" : [ 40142 ]
		}
	],
	"bufferViews" : [
		{
			"buffer" : 0,
			"byteOffset" : 0,
			"byteLength" : 481716,
			"target" : 34962
		},
		{
			"buffer" : 0,
			"byteOffset" : 481716,
			"byteLength" : 481716,
			"target" : 34962
		},
		{
			"buffer" : 0,
			"byteOffset" : 963432,
			"byteLength" : 481716,
			"target" : 34962
		},
		{
			"buffer" : 0,
			"byteOffset" : 1445148,
			"byteLength" : 80286,
			"target" : 34963
		}
	],
	"buffers" : [
		{
			"uri" : "B335321647401063C0.bin",
			"byteLength" : 1525434
		}
	]
}
