{
	"asset" : {
		"generator" : "FME 2023.1.0.0",
		"version" : "2.0"
	},
	"materials" : [
		{
			"name" : "default_material",
			"pbrMetallicRoughness" : {
				"baseColorFactor" : [ 1, 1, 1, 1 ],
				"roughnessFactor" : 0.30000000000000004,
				"metallicFactor" : 0.5
			}
		}
	],
	"meshes" : [
		{
			"primitives" : [
				{
					"attributes" : {
						"NORMAL" : 1,
						"POSITION" : 0,
						"COLOR_0" : 2
					},
					"indices" : 3,
					"material" : 0,
					"mode" : 4
				}
			]
		}
	],
	"nodes" : [
		{
			"name" : "B332851584301063C0",
			"matrix" : [ 1, 0, 0, 0, 0, 0, -1, 0, 0, 1, 0, 0, 833284.3125, 120.0260009765625, -815843.125, 1 ],
			"children" : [ 1 ]
		},
		{
			"mesh" : 0
		}
	],
	"scenes" : [
		{
			"nodes" : [ 0 ]
		}
	],
	"scene" : 0,
	"accessors" : [
		{
			"bufferView" : 0,
			"byteOffset" : 0,
			"componentType" : 5126,
			"count" : 240,
			"type" : "VEC3",
			"min" : [ -2.5859375, -1.8583984375, 0 ],
			"max" : [ 2.5859375, 1.8583984375, 4.4069976806640625 ]
		},
		{
			"bufferView" : 1,
			"byteOffset" : 0,
			"componentType" : 5126,
			"count" : 240,
			"type" : "VEC3",
			"min" : [ -0.981587827205658, -0.9782745838165283, -1 ],
			"max" : [ 0.9845640063285828, 0.9839207530021667, 1 ]
		},
		{
			"bufferView" : 2,
			"byteOffset" : 0,
			"componentType" : 5126,
			"count" : 240,
			"type" : "VEC3"
		},
		{
			"bufferView" : 3,
			"byteOffset" : 0,
			"componentType" : 5121,
			"count" : 240,
			"type" : "SCALAR",
			"min" : [ 0 ],
			"max" : [ 239 ]
		}
	],
	"bufferViews" : [
		{
			"buffer" : 0,
			"byteOffset" : 0,
			"byteLength" : 2880,
			"target" : 34962
		},
		{
			"buffer" : 0,
			"byteOffset" : 2880,
			"byteLength" : 2880,
			"target" : 34962
		},
		{
			"buffer" : 0,
			"byteOffset" : 5760,
			"byteLength" : 2880,
			"target" : 34962
		},
		{
			"buffer" : 0,
			"byteOffset" : 8640,
			"byteLength" : 240,
			"target" : 34963
		}
	],
	"buffers" : [
		{
			"uri" : "B332851584301063C0.bin",
			"byteLength" : 8880
		}
	]
}
