{
	"asset" : {
		"generator" : "FME 2023.1.0.0",
		"version" : "2.0"
	},
	"materials" : [
		{
			"name" : "default_material",
			"pbrMetallicRoughness" : {
				"baseColorFactor" : [ 1, 1, 1, 1 ],
				"roughnessFactor" : 0.30000000000000004,
				"metallicFactor" : 0.5
			}
		}
	],
	"meshes" : [
		{
			"primitives" : [
				{
					"attributes" : {
						"NORMAL" : 1,
						"POSITION" : 0,
						"COLOR_0" : 2
					},
					"indices" : 3,
					"material" : 0,
					"mode" : 4
				}
			]
		}
	],
	"nodes" : [
		{
			"name" : "B338651590901063C0",
			"matrix" : [ 1, 0, 0, 0, 0, 0, -1, 0, 0, 1, 0, 0, 833865.5625, 35.40801239013672, -815905, 1 ],
			"children" : [ 1 ]
		},
		{
			"mesh" : 0
		}
	],
	"scenes" : [
		{
			"nodes" : [ 0 ]
		}
	],
	"scene" : 0,
	"accessors" : [
		{
			"bufferView" : 0,
			"byteOffset" : 0,
			"componentType" : 5126,
			"count" : 753,
			"type" : "VEC3",
			"min" : [ -8.015625, -7.9228515625, 0 ],
			"max" : [ 8.015625, 7.9228515625, 22.325000762939453 ]
		},
		{
			"bufferView" : 1,
			"byteOffset" : 0,
			"componentType" : 5126,
			"count" : 753,
			"type" : "VEC3",
			"min" : [ -0.8970577120780945, -0.9054824709892273, -1 ],
			"max" : [ 0.8970121741294861, 0.9017492532730103, 1 ]
		},
		{
			"bufferView" : 2,
			"byteOffset" : 0,
			"componentType" : 5126,
			"count" : 753,
			"type" : "VEC3"
		},
		{
			"bufferView" : 3,
			"byteOffset" : 0,
			"componentType" : 5123,
			"count" : 753,
			"type" : "SCALAR",
			"min" : [ 0 ],
			"max" : [ 752 ]
		}
	],
	"bufferViews" : [
		{
			"buffer" : 0,
			"byteOffset" : 0,
			"byteLength" : 9036,
			"target" : 34962
		},
		{
			"buffer" : 0,
			"byteOffset" : 9036,
			"byteLength" : 9036,
			"target" : 34962
		},
		{
			"buffer" : 0,
			"byteOffset" : 18072,
			"byteLength" : 9036,
			"target" : 34962
		},
		{
			"buffer" : 0,
			"byteOffset" : 27108,
			"byteLength" : 1506,
			"target" : 34963
		}
	],
	"buffers" : [
		{
			"uri" : "B338651590901063C0.bin",
			"byteLength" : 28614
		}
	]
}
