{
	"asset" : {
		"generator" : "FME 2022.2.4.0",
		"version" : "2.0"
	},
	"materials" : [
		{
			"name" : "default_material",
			"pbrMetallicRoughness" : {
				"baseColorFactor" : [ 1, 1, 1, 1 ],
				"roughnessFactor" : 0.30000000000000004,
				"metallicFactor" : 0.5
			}
		}
	],
	"meshes" : [
		{
			"primitives" : [
				{
					"attributes" : {
						"NORMAL" : 1,
						"POSITION" : 0,
						"COLOR_0" : 2
					},
					"indices" : 3,
					"material" : 0,
					"mode" : 4
				}
			]
		}
	],
	"nodes" : [
		{
			"name" : "B338871627201063C0",
			"matrix" : [ 1, 0, 0, 0, 0, 0, -1, 0, 0, 1, 0, 0, 833892.1875, 5.4000020027160645, -816270.5, 1 ],
			"children" : [ 1 ]
		},
		{
			"mesh" : 0
		}
	],
	"scenes" : [
		{
			"nodes" : [ 0 ]
		}
	],
	"scene" : 0,
	"accessors" : [
		{
			"bufferView" : 0,
			"byteOffset" : 0,
			"componentType" : 5126,
			"count" : 213,
			"type" : "VEC3",
			"min" : [ -7.7705078125, -5.1728515625, 0 ],
			"max" : [ 7.76953125, 5.1728515625, 21.43400001525879 ]
		},
		{
			"bufferView" : 1,
			"byteOffset" : 0,
			"componentType" : 5126,
			"count" : 213,
			"type" : "VEC3",
			"min" : [ -0.8508685827255249, -0.8442925214767456, -0.0005695153959095478 ],
			"max" : [ 0.8506829738616943, 0.8497548699378967, 1 ]
		},
		{
			"bufferView" : 2,
			"byteOffset" : 0,
			"componentType" : 5126,
			"count" : 213,
			"type" : "VEC3"
		},
		{
			"bufferView" : 3,
			"byteOffset" : 0,
			"componentType" : 5121,
			"count" : 213,
			"type" : "SCALAR",
			"min" : [ 0 ],
			"max" : [ 212 ]
		}
	],
	"bufferViews" : [
		{
			"buffer" : 0,
			"byteOffset" : 0,
			"byteLength" : 2556,
			"target" : 34962
		},
		{
			"buffer" : 0,
			"byteOffset" : 2556,
			"byteLength" : 2556,
			"target" : 34962
		},
		{
			"buffer" : 0,
			"byteOffset" : 5112,
			"byteLength" : 2556,
			"target" : 34962
		},
		{
			"buffer" : 0,
			"byteOffset" : 7668,
			"byteLength" : 213,
			"target" : 34963
		}
	],
	"buffers" : [
		{
			"uri" : "B338871627201063C0.bin",
			"byteLength" : 7881
		}
	]
}
