{
	"asset" : {
		"generator" : "FME 2023.1.0.0",
		"version" : "2.0"
	},
	"materials" : [
		{
			"name" : "default_material",
			"pbrMetallicRoughness" : {
				"baseColorFactor" : [ 1, 1, 1, 1 ],
				"roughnessFactor" : 0.30000000000000004,
				"metallicFactor" : 0.5
			}
		}
	],
	"meshes" : [
		{
			"primitives" : [
				{
					"attributes" : {
						"NORMAL" : 1,
						"POSITION" : 0,
						"COLOR_0" : 2
					},
					"indices" : 3,
					"material" : 0,
					"mode" : 4
				}
			]
		}
	],
	"nodes" : [
		{
			"name" : "B363951946701063C0",
			"matrix" : [ 1, 0, 0, 0, 0, 0, -1, 0, 0, 1, 0, 0, 836395.875, 43.375, -819469.6875, 1 ],
			"children" : [ 1 ]
		},
		{
			"mesh" : 0
		}
	],
	"scenes" : [
		{
			"nodes" : [ 0 ]
		}
	],
	"scene" : 0,
	"accessors" : [
		{
			"bufferView" : 0,
			"byteOffset" : 0,
			"componentType" : 5126,
			"count" : 6858,
			"type" : "VEC3",
			"min" : [ -18.90625, -19.646484375, 0 ],
			"max" : [ 18.90625, 19.646484375, 48.64399719238281 ]
		},
		{
			"bufferView" : 1,
			"byteOffset" : 0,
			"componentType" : 5126,
			"count" : 6858,
			"type" : "VEC3",
			"min" : [ -1, -1, -1 ],
			"max" : [ 1, 1, 1 ]
		},
		{
			"bufferView" : 2,
			"byteOffset" : 0,
			"componentType" : 5126,
			"count" : 6858,
			"type" : "VEC3"
		},
		{
			"bufferView" : 3,
			"byteOffset" : 0,
			"componentType" : 5123,
			"count" : 6858,
			"type" : "SCALAR",
			"min" : [ 0 ],
			"max" : [ 6857 ]
		}
	],
	"bufferViews" : [
		{
			"buffer" : 0,
			"byteOffset" : 0,
			"byteLength" : 82296,
			"target" : 34962
		},
		{
			"buffer" : 0,
			"byteOffset" : 82296,
			"byteLength" : 82296,
			"target" : 34962
		},
		{
			"buffer" : 0,
			"byteOffset" : 164592,
			"byteLength" : 82296,
			"target" : 34962
		},
		{
			"buffer" : 0,
			"byteOffset" : 246888,
			"byteLength" : 13716,
			"target" : 34963
		}
	],
	"buffers" : [
		{
			"uri" : "B363951946701063C0.bin",
			"byteLength" : 260604
		}
	]
}
