{
	"asset" : {
		"generator" : "FME 2023.2.2.0",
		"version" : "2.0"
	},
	"materials" : [
		{
			"name" : "default_material",
			"pbrMetallicRoughness" : {
				"baseColorFactor" : [ 1, 1, 1, 1 ],
				"roughnessFactor" : 0.30000000000000004,
				"metallicFactor" : 0.5
			}
		}
	],
	"meshes" : [
		{
			"primitives" : [
				{
					"attributes" : {
						"NORMAL" : 1,
						"POSITION" : 0,
						"COLOR_0" : 2
					},
					"indices" : 3,
					"material" : 0,
					"mode" : 4
				}
			]
		}
	],
	"nodes" : [
		{
			"name" : "B171381456201062G0",
			"matrix" : [ 1, 0, 0, 0, 0, 0, -1, 0, 0, 1, 0, 0, 817137.875, 12.305000305175781, -814564.25, 1 ],
			"children" : [ 1 ]
		},
		{
			"mesh" : 0
		}
	],
	"scenes" : [
		{
			"nodes" : [ 0 ]
		}
	],
	"scene" : 0,
	"accessors" : [
		{
			"bufferView" : 0,
			"byteOffset" : 0,
			"componentType" : 5126,
			"count" : 123,
			"type" : "VEC3",
			"min" : [ -6.5, -4.875, 0 ],
			"max" : [ 6.5, 4.875, 2.9146995544433594 ]
		},
		{
			"bufferView" : 1,
			"byteOffset" : 0,
			"componentType" : 5126,
			"count" : 123,
			"type" : "VEC3",
			"min" : [ -0.8604102730751038, -0.8604116439819336, -1 ],
			"max" : [ 0.8604781627655029, 0.9814938306808472, 1 ]
		},
		{
			"bufferView" : 2,
			"byteOffset" : 0,
			"componentType" : 5126,
			"count" : 123,
			"type" : "VEC3"
		},
		{
			"bufferView" : 3,
			"byteOffset" : 0,
			"componentType" : 5121,
			"count" : 123,
			"type" : "SCALAR",
			"min" : [ 0 ],
			"max" : [ 122 ]
		}
	],
	"bufferViews" : [
		{
			"buffer" : 0,
			"byteOffset" : 0,
			"byteLength" : 1476,
			"target" : 34962
		},
		{
			"buffer" : 0,
			"byteOffset" : 1476,
			"byteLength" : 1476,
			"target" : 34962
		},
		{
			"buffer" : 0,
			"byteOffset" : 2952,
			"byteLength" : 1476,
			"target" : 34962
		},
		{
			"buffer" : 0,
			"byteOffset" : 4428,
			"byteLength" : 123,
			"target" : 34963
		}
	],
	"buffers" : [
		{
			"uri" : "B171381456201062G0.bin",
			"byteLength" : 4551
		}
	]
}
