{
	"asset" : {
		"generator" : "FME 2022.2.4.0",
		"version" : "2.0"
	},
	"materials" : [
		{
			"name" : "default_material",
			"pbrMetallicRoughness" : {
				"baseColorFactor" : [ 1, 1, 1, 1 ],
				"roughnessFactor" : 0.30000000000000004,
				"metallicFactor" : 0.5
			}
		}
	],
	"meshes" : [
		{
			"primitives" : [
				{
					"attributes" : {
						"NORMAL" : 1,
						"POSITION" : 0,
						"COLOR_0" : 2
					},
					"indices" : 3,
					"material" : 0,
					"mode" : 4
				}
			]
		}
	],
	"nodes" : [
		{
			"name" : "B336951637401063C0",
			"matrix" : [ 1, 0, 0, 0, 0, 0, -1, 0, 0, 1, 0, 0, 833696.1875, 3.8160057067871094, -816373.625, 1 ],
			"children" : [ 1 ]
		},
		{
			"mesh" : 0
		}
	],
	"scenes" : [
		{
			"nodes" : [ 0 ]
		}
	],
	"scene" : 0,
	"accessors" : [
		{
			"bufferView" : 0,
			"byteOffset" : 0,
			"componentType" : 5126,
			"count" : 777,
			"type" : "VEC3",
			"min" : [ -4.6015625, -8.2294921875, 0 ],
			"max" : [ 4.6005859375, 8.2294921875, 26.5310001373291 ]
		},
		{
			"bufferView" : 1,
			"byteOffset" : 0,
			"componentType" : 5126,
			"count" : 777,
			"type" : "VEC3",
			"min" : [ -1, -0.965226411819458, -1 ],
			"max" : [ 0.963661789894104, 0.964024007320404, 1 ]
		},
		{
			"bufferView" : 2,
			"byteOffset" : 0,
			"componentType" : 5126,
			"count" : 777,
			"type" : "VEC3"
		},
		{
			"bufferView" : 3,
			"byteOffset" : 0,
			"componentType" : 5123,
			"count" : 777,
			"type" : "SCALAR",
			"min" : [ 0 ],
			"max" : [ 776 ]
		}
	],
	"bufferViews" : [
		{
			"buffer" : 0,
			"byteOffset" : 0,
			"byteLength" : 9324,
			"target" : 34962
		},
		{
			"buffer" : 0,
			"byteOffset" : 9324,
			"byteLength" : 9324,
			"target" : 34962
		},
		{
			"buffer" : 0,
			"byteOffset" : 18648,
			"byteLength" : 9324,
			"target" : 34962
		},
		{
			"buffer" : 0,
			"byteOffset" : 27972,
			"byteLength" : 1554,
			"target" : 34963
		}
	],
	"buffers" : [
		{
			"uri" : "B336951637401063C0.bin",
			"byteLength" : 29526
		}
	]
}
