{
	"asset" : {
		"generator" : "FME 2023.1.0.0",
		"version" : "2.0"
	},
	"materials" : [
		{
			"name" : "default_material",
			"pbrMetallicRoughness" : {
				"baseColorFactor" : [ 1, 1, 1, 1 ],
				"roughnessFactor" : 0.30000000000000004,
				"metallicFactor" : 0.5
			}
		}
	],
	"meshes" : [
		{
			"primitives" : [
				{
					"attributes" : {
						"NORMAL" : 1,
						"POSITION" : 0,
						"COLOR_0" : 2
					},
					"indices" : 3,
					"material" : 0,
					"mode" : 4
				}
			]
		}
	],
	"nodes" : [
		{
			"name" : "B337971618701063C0",
			"matrix" : [ 1, 0, 0, 0, 0, 0, -1, 0, 0, 1, 0, 0, 833802.0625, 16.94000244140625, -816190, 1 ],
			"children" : [ 1 ]
		},
		{
			"mesh" : 0
		}
	],
	"scenes" : [
		{
			"nodes" : [ 0 ]
		}
	],
	"scene" : 0,
	"accessors" : [
		{
			"bufferView" : 0,
			"byteOffset" : 0,
			"componentType" : 5126,
			"count" : 1128,
			"type" : "VEC3",
			"min" : [ -11.341796875, -9.4140625, 0 ],
			"max" : [ 11.3427734375, 9.4130859375, 44.99800109863281 ]
		},
		{
			"bufferView" : 1,
			"byteOffset" : 0,
			"componentType" : 5126,
			"count" : 1128,
			"type" : "VEC3",
			"min" : [ -0.9719263911247253, -0.9833016991615295, -1 ],
			"max" : [ 0.9718388915061951, 0.9838427901268005, 1 ]
		},
		{
			"bufferView" : 2,
			"byteOffset" : 0,
			"componentType" : 5126,
			"count" : 1128,
			"type" : "VEC3"
		},
		{
			"bufferView" : 3,
			"byteOffset" : 0,
			"componentType" : 5123,
			"count" : 1128,
			"type" : "SCALAR",
			"min" : [ 0 ],
			"max" : [ 1127 ]
		}
	],
	"bufferViews" : [
		{
			"buffer" : 0,
			"byteOffset" : 0,
			"byteLength" : 13536,
			"target" : 34962
		},
		{
			"buffer" : 0,
			"byteOffset" : 13536,
			"byteLength" : 13536,
			"target" : 34962
		},
		{
			"buffer" : 0,
			"byteOffset" : 27072,
			"byteLength" : 13536,
			"target" : 34962
		},
		{
			"buffer" : 0,
			"byteOffset" : 40608,
			"byteLength" : 2256,
			"target" : 34963
		}
	],
	"buffers" : [
		{
			"uri" : "B337971618701063C0.bin",
			"byteLength" : 42864
		}
	]
}
