{
	"asset" : {
		"generator" : "FME 2023.2.2.0",
		"version" : "2.0"
	},
	"materials" : [
		{
			"name" : "default_material",
			"pbrMetallicRoughness" : {
				"baseColorFactor" : [ 1, 1, 1, 1 ],
				"roughnessFactor" : 0.30000000000000004,
				"metallicFactor" : 0.5
			}
		}
	],
	"meshes" : [
		{
			"primitives" : [
				{
					"attributes" : {
						"NORMAL" : 1,
						"POSITION" : 0,
						"COLOR_0" : 2
					},
					"indices" : 3,
					"material" : 0,
					"mode" : 4
				}
			]
		}
	],
	"nodes" : [
		{
			"name" : "B170911474201062G0",
			"matrix" : [ 1, 0, 0, 0, 0, 0, -1, 0, 0, 1, 0, 0, 817091.25, 17.086200714111328, -814743.125, 1 ],
			"children" : [ 1 ]
		},
		{
			"mesh" : 0
		}
	],
	"scenes" : [
		{
			"nodes" : [ 0 ]
		}
	],
	"scene" : 0,
	"accessors" : [
		{
			"bufferView" : 0,
			"byteOffset" : 0,
			"componentType" : 5126,
			"count" : 417,
			"type" : "VEC3",
			"min" : [ -6.25, -6.1875, 0 ],
			"max" : [ 6.25, 6.125, 11.080099105834961 ]
		},
		{
			"bufferView" : 1,
			"byteOffset" : 0,
			"componentType" : 5126,
			"count" : 417,
			"type" : "VEC3",
			"min" : [ -0.7934006452560425, -0.816975474357605, -1 ],
			"max" : [ 0.7912684679031372, 0.7918835878372192, 1 ]
		},
		{
			"bufferView" : 2,
			"byteOffset" : 0,
			"componentType" : 5126,
			"count" : 417,
			"type" : "VEC3"
		},
		{
			"bufferView" : 3,
			"byteOffset" : 0,
			"componentType" : 5123,
			"count" : 417,
			"type" : "SCALAR",
			"min" : [ 0 ],
			"max" : [ 416 ]
		}
	],
	"bufferViews" : [
		{
			"buffer" : 0,
			"byteOffset" : 0,
			"byteLength" : 5004,
			"target" : 34962
		},
		{
			"buffer" : 0,
			"byteOffset" : 5004,
			"byteLength" : 5004,
			"target" : 34962
		},
		{
			"buffer" : 0,
			"byteOffset" : 10008,
			"byteLength" : 5004,
			"target" : 34962
		},
		{
			"buffer" : 0,
			"byteOffset" : 15012,
			"byteLength" : 834,
			"target" : 34963
		}
	],
	"buffers" : [
		{
			"uri" : "B170911474201062G0.bin",
			"byteLength" : 15846
		}
	]
}
