{
	"asset" : {
		"generator" : "FME 2023.2.1.0",
		"version" : "2.0"
	},
	"materials" : [
		{
			"name" : "default_material",
			"pbrMetallicRoughness" : {
				"baseColorFactor" : [ 1, 1, 1, 1 ],
				"roughnessFactor" : 0.30000000000000004,
				"metallicFactor" : 0.5
			}
		}
	],
	"meshes" : [
		{
			"primitives" : [
				{
					"attributes" : {
						"NORMAL" : 1,
						"POSITION" : 0,
						"COLOR_0" : 2
					},
					"indices" : 3,
					"material" : 0,
					"mode" : 4
				}
			]
		}
	],
	"nodes" : [
		{
			"name" : "B335241652401063C0",
			"matrix" : [ 1, 0, 0, 0, 0, 0, -1, 0, 0, 1, 0, 0, 833525, 3.1469991207122803, -816522.75, 1 ],
			"children" : [ 1 ]
		},
		{
			"mesh" : 0
		}
	],
	"scenes" : [
		{
			"nodes" : [ 0 ]
		}
	],
	"scene" : 0,
	"accessors" : [
		{
			"bufferView" : 0,
			"byteOffset" : 0,
			"componentType" : 5126,
			"count" : 186,
			"type" : "VEC3",
			"min" : [ -2.6123046875, -1.9658203125, 0 ],
			"max" : [ 2.6123046875, 1.966796875, 14.008003234863281 ]
		},
		{
			"bufferView" : 1,
			"byteOffset" : 0,
			"componentType" : 5126,
			"count" : 186,
			"type" : "VEC3",
			"min" : [ -0.9662005305290222, -0.966468095779419, -1 ],
			"max" : [ 0.9662005305290222, 0.9751995205879211, 1 ]
		},
		{
			"bufferView" : 2,
			"byteOffset" : 0,
			"componentType" : 5126,
			"count" : 186,
			"type" : "VEC3"
		},
		{
			"bufferView" : 3,
			"byteOffset" : 0,
			"componentType" : 5121,
			"count" : 186,
			"type" : "SCALAR",
			"min" : [ 0 ],
			"max" : [ 185 ]
		}
	],
	"bufferViews" : [
		{
			"buffer" : 0,
			"byteOffset" : 0,
			"byteLength" : 2232,
			"target" : 34962
		},
		{
			"buffer" : 0,
			"byteOffset" : 2232,
			"byteLength" : 2232,
			"target" : 34962
		},
		{
			"buffer" : 0,
			"byteOffset" : 4464,
			"byteLength" : 2232,
			"target" : 34962
		},
		{
			"buffer" : 0,
			"byteOffset" : 6696,
			"byteLength" : 186,
			"target" : 34963
		}
	],
	"buffers" : [
		{
			"uri" : "B335241652401063C0.bin",
			"byteLength" : 6882
		}
	]
}
