{
	"asset" : {
		"generator" : "FME 2022.2.4.0",
		"version" : "2.0"
	},
	"materials" : [
		{
			"name" : "default_material",
			"pbrMetallicRoughness" : {
				"baseColorFactor" : [ 1, 1, 1, 1 ],
				"roughnessFactor" : 0.30000000000000004,
				"metallicFactor" : 0.5
			}
		}
	],
	"meshes" : [
		{
			"primitives" : [
				{
					"attributes" : {
						"NORMAL" : 1,
						"POSITION" : 0,
						"COLOR_0" : 2
					},
					"indices" : 3,
					"material" : 0,
					"mode" : 4
				}
			]
		}
	],
	"nodes" : [
		{
			"name" : "B336911595101063C0",
			"matrix" : [ 1, 0, 0, 0, 0, 0, -1, 0, 0, 1, 0, 0, 833690.5625, 58.381988525390625, -815951.125, 1 ],
			"children" : [ 1 ]
		},
		{
			"mesh" : 0
		}
	],
	"scenes" : [
		{
			"nodes" : [ 0 ]
		}
	],
	"scene" : 0,
	"accessors" : [
		{
			"bufferView" : 0,
			"byteOffset" : 0,
			"componentType" : 5126,
			"count" : 228,
			"type" : "VEC3",
			"min" : [ -3.6162109375, -3.673828125, 0 ],
			"max" : [ 3.6162109375, 3.6728515625, 4.352001190185547 ]
		},
		{
			"bufferView" : 1,
			"byteOffset" : 0,
			"componentType" : 5126,
			"count" : 228,
			"type" : "VEC3",
			"min" : [ -0.7284007668495178, -0.7249035835266113, -0.0006339802639558911 ],
			"max" : [ 0.729292631149292, 0.7250053286552429, 1 ]
		},
		{
			"bufferView" : 2,
			"byteOffset" : 0,
			"componentType" : 5126,
			"count" : 228,
			"type" : "VEC3"
		},
		{
			"bufferView" : 3,
			"byteOffset" : 0,
			"componentType" : 5121,
			"count" : 228,
			"type" : "SCALAR",
			"min" : [ 0 ],
			"max" : [ 227 ]
		}
	],
	"bufferViews" : [
		{
			"buffer" : 0,
			"byteOffset" : 0,
			"byteLength" : 2736,
			"target" : 34962
		},
		{
			"buffer" : 0,
			"byteOffset" : 2736,
			"byteLength" : 2736,
			"target" : 34962
		},
		{
			"buffer" : 0,
			"byteOffset" : 5472,
			"byteLength" : 2736,
			"target" : 34962
		},
		{
			"buffer" : 0,
			"byteOffset" : 8208,
			"byteLength" : 228,
			"target" : 34963
		}
	],
	"buffers" : [
		{
			"uri" : "B336911595101063C0.bin",
			"byteLength" : 8436
		}
	]
}
