{
	"asset" : {
		"generator" : "FME 2023.1.0.0",
		"version" : "2.0"
	},
	"materials" : [
		{
			"name" : "default_material",
			"pbrMetallicRoughness" : {
				"baseColorFactor" : [ 1, 1, 1, 1 ],
				"roughnessFactor" : 0.30000000000000004,
				"metallicFactor" : 0.5
			}
		}
	],
	"meshes" : [
		{
			"primitives" : [
				{
					"attributes" : {
						"NORMAL" : 1,
						"POSITION" : 0,
						"COLOR_0" : 2
					},
					"indices" : 3,
					"material" : 0,
					"mode" : 4
				}
			]
		}
	],
	"nodes" : [
		{
			"name" : "B332511640902063C0",
			"matrix" : [ 1, 0, 0, 0, 0, 0, -1, 0, 0, 1, 0, 0, 833249.8125, 5.4710001945495605, -816409.0625, 1 ],
			"children" : [ 1 ]
		},
		{
			"mesh" : 0
		}
	],
	"scenes" : [
		{
			"nodes" : [ 0 ]
		}
	],
	"scene" : 0,
	"accessors" : [
		{
			"bufferView" : 0,
			"byteOffset" : 0,
			"componentType" : 5126,
			"count" : 1110,
			"type" : "VEC3",
			"min" : [ -19.298828125, -16.39453125, 0 ],
			"max" : [ 19.298828125, 16.39453125, 11.035999298095703 ]
		},
		{
			"bufferView" : 1,
			"byteOffset" : 0,
			"componentType" : 5126,
			"count" : 1110,
			"type" : "VEC3",
			"min" : [ -0.9567874073982239, -0.8392377495765686, -1 ],
			"max" : [ 0.8349583148956299, 0.8413594961166382, 1 ]
		},
		{
			"bufferView" : 2,
			"byteOffset" : 0,
			"componentType" : 5126,
			"count" : 1110,
			"type" : "VEC3"
		},
		{
			"bufferView" : 3,
			"byteOffset" : 0,
			"componentType" : 5123,
			"count" : 1110,
			"type" : "SCALAR",
			"min" : [ 0 ],
			"max" : [ 1109 ]
		}
	],
	"bufferViews" : [
		{
			"buffer" : 0,
			"byteOffset" : 0,
			"byteLength" : 13320,
			"target" : 34962
		},
		{
			"buffer" : 0,
			"byteOffset" : 13320,
			"byteLength" : 13320,
			"target" : 34962
		},
		{
			"buffer" : 0,
			"byteOffset" : 26640,
			"byteLength" : 13320,
			"target" : 34962
		},
		{
			"buffer" : 0,
			"byteOffset" : 39960,
			"byteLength" : 2220,
			"target" : 34963
		}
	],
	"buffers" : [
		{
			"uri" : "B332511640902063C0.bin",
			"byteLength" : 42180
		}
	]
}
