{
	"asset" : {
		"generator" : "FME 2022.2.4.0",
		"version" : "2.0"
	},
	"materials" : [
		{
			"name" : "default_material",
			"pbrMetallicRoughness" : {
				"baseColorFactor" : [ 1, 1, 1, 1 ],
				"roughnessFactor" : 0.30000000000000004,
				"metallicFactor" : 0.5
			}
		}
	],
	"meshes" : [
		{
			"primitives" : [
				{
					"attributes" : {
						"NORMAL" : 1,
						"POSITION" : 0,
						"COLOR_0" : 2
					},
					"indices" : 3,
					"material" : 0,
					"mode" : 4
				}
			]
		}
	],
	"nodes" : [
		{
			"name" : "B336971599501063C0",
			"matrix" : [ 1, 0, 0, 0, 0, 0, -1, 0, 0, 1, 0, 0, 833699.5625, 51.18800354003906, -815995, 1 ],
			"children" : [ 1 ]
		},
		{
			"mesh" : 0
		}
	],
	"scenes" : [
		{
			"nodes" : [ 0 ]
		}
	],
	"scene" : 0,
	"accessors" : [
		{
			"bufferView" : 0,
			"byteOffset" : 0,
			"componentType" : 5126,
			"count" : 489,
			"type" : "VEC3",
			"min" : [ -7.13671875, -7.05859375, 0 ],
			"max" : [ 7.1357421875, 7.0576171875, 23.634002685546875 ]
		},
		{
			"bufferView" : 1,
			"byteOffset" : 0,
			"componentType" : 5126,
			"count" : 489,
			"type" : "VEC3",
			"min" : [ -0.7222548723220825, -0.7206420302391052, -1 ],
			"max" : [ 0.7234809994697571, 0.7204288244247437, 1 ]
		},
		{
			"bufferView" : 2,
			"byteOffset" : 0,
			"componentType" : 5126,
			"count" : 489,
			"type" : "VEC3"
		},
		{
			"bufferView" : 3,
			"byteOffset" : 0,
			"componentType" : 5123,
			"count" : 489,
			"type" : "SCALAR",
			"min" : [ 0 ],
			"max" : [ 488 ]
		}
	],
	"bufferViews" : [
		{
			"buffer" : 0,
			"byteOffset" : 0,
			"byteLength" : 5868,
			"target" : 34962
		},
		{
			"buffer" : 0,
			"byteOffset" : 5868,
			"byteLength" : 5868,
			"target" : 34962
		},
		{
			"buffer" : 0,
			"byteOffset" : 11736,
			"byteLength" : 5868,
			"target" : 34962
		},
		{
			"buffer" : 0,
			"byteOffset" : 17604,
			"byteLength" : 978,
			"target" : 34963
		}
	],
	"buffers" : [
		{
			"uri" : "B336971599501063C0.bin",
			"byteLength" : 18582
		}
	]
}
