{
	"asset" : {
		"generator" : "FME 2022.2.4.0",
		"version" : "2.0"
	},
	"materials" : [
		{
			"name" : "default_material",
			"pbrMetallicRoughness" : {
				"baseColorFactor" : [ 1, 1, 1, 1 ],
				"roughnessFactor" : 0.30000000000000004,
				"metallicFactor" : 0.5
			}
		}
	],
	"meshes" : [
		{
			"primitives" : [
				{
					"attributes" : {
						"NORMAL" : 1,
						"POSITION" : 0,
						"COLOR_0" : 2
					},
					"indices" : 3,
					"material" : 0,
					"mode" : 4
				}
			]
		}
	],
	"nodes" : [
		{
			"name" : "B332171633101063C0",
			"matrix" : [ 1, 0, 0, 0, 0, 0, -1, 0, 0, 1, 0, 0, 833216.5625, 13.152000427246094, -816325.9375, 1 ],
			"children" : [ 1 ]
		},
		{
			"mesh" : 0
		}
	],
	"scenes" : [
		{
			"nodes" : [ 0 ]
		}
	],
	"scene" : 0,
	"accessors" : [
		{
			"bufferView" : 0,
			"byteOffset" : 0,
			"componentType" : 5126,
			"count" : 558,
			"type" : "VEC3",
			"min" : [ -5.65625, -7.265625, 0 ],
			"max" : [ 5.681640625, 7.234375, 24.55699920654297 ]
		},
		{
			"bufferView" : 1,
			"byteOffset" : 0,
			"componentType" : 5126,
			"count" : 558,
			"type" : "VEC3",
			"min" : [ -0.7954317927360535, -1, -1 ],
			"max" : [ 0.7808688879013062, 0.800000011920929, 1 ]
		},
		{
			"bufferView" : 2,
			"byteOffset" : 0,
			"componentType" : 5126,
			"count" : 558,
			"type" : "VEC3"
		},
		{
			"bufferView" : 3,
			"byteOffset" : 0,
			"componentType" : 5123,
			"count" : 558,
			"type" : "SCALAR",
			"min" : [ 0 ],
			"max" : [ 557 ]
		}
	],
	"bufferViews" : [
		{
			"buffer" : 0,
			"byteOffset" : 0,
			"byteLength" : 6696,
			"target" : 34962
		},
		{
			"buffer" : 0,
			"byteOffset" : 6696,
			"byteLength" : 6696,
			"target" : 34962
		},
		{
			"buffer" : 0,
			"byteOffset" : 13392,
			"byteLength" : 6696,
			"target" : 34962
		},
		{
			"buffer" : 0,
			"byteOffset" : 20088,
			"byteLength" : 1116,
			"target" : 34963
		}
	],
	"buffers" : [
		{
			"uri" : "B332171633101063C0.bin",
			"byteLength" : 21204
		}
	]
}
