{
	"asset" : {
		"generator" : "FME 2023.1.0.0",
		"version" : "2.0"
	},
	"materials" : [
		{
			"name" : "default_material",
			"pbrMetallicRoughness" : {
				"baseColorFactor" : [ 1, 1, 1, 1 ],
				"roughnessFactor" : 0.30000000000000004,
				"metallicFactor" : 0.5
			}
		}
	],
	"meshes" : [
		{
			"primitives" : [
				{
					"attributes" : {
						"NORMAL" : 1,
						"POSITION" : 0,
						"COLOR_0" : 2
					},
					"indices" : 3,
					"material" : 0,
					"mode" : 4
				}
			]
		}
	],
	"nodes" : [
		{
			"name" : "B338231619901063C0",
			"matrix" : [ 1, 0, 0, 0, 0, 0, -1, 0, 0, 1, 0, 0, 833818, 10.611000061035156, -816198.875, 1 ],
			"children" : [ 1 ]
		},
		{
			"mesh" : 0
		}
	],
	"scenes" : [
		{
			"nodes" : [ 0 ]
		}
	],
	"scene" : 0,
	"accessors" : [
		{
			"bufferView" : 0,
			"byteOffset" : 0,
			"componentType" : 5126,
			"count" : 345,
			"type" : "VEC3",
			"min" : [ -7.6083984375, -6.6142578125, 0 ],
			"max" : [ 7.607421875, 6.615234375, 28.963001251220703 ]
		},
		{
			"bufferView" : 1,
			"byteOffset" : 0,
			"componentType" : 5126,
			"count" : 345,
			"type" : "VEC3",
			"min" : [ -0.79649817943573, -0.814778745174408, -1 ],
			"max" : [ 0.8009986877441406, 0.8088639378547668, 1 ]
		},
		{
			"bufferView" : 2,
			"byteOffset" : 0,
			"componentType" : 5126,
			"count" : 345,
			"type" : "VEC3"
		},
		{
			"bufferView" : 3,
			"byteOffset" : 0,
			"componentType" : 5123,
			"count" : 345,
			"type" : "SCALAR",
			"min" : [ 0 ],
			"max" : [ 344 ]
		}
	],
	"bufferViews" : [
		{
			"buffer" : 0,
			"byteOffset" : 0,
			"byteLength" : 4140,
			"target" : 34962
		},
		{
			"buffer" : 0,
			"byteOffset" : 4140,
			"byteLength" : 4140,
			"target" : 34962
		},
		{
			"buffer" : 0,
			"byteOffset" : 8280,
			"byteLength" : 4140,
			"target" : 34962
		},
		{
			"buffer" : 0,
			"byteOffset" : 12420,
			"byteLength" : 690,
			"target" : 34963
		}
	],
	"buffers" : [
		{
			"uri" : "B338231619901063C0.bin",
			"byteLength" : 13110
		}
	]
}
