{"asset":{"generator":"FME 2023.1.0.0","version":"2.0"},"materials":[{"name":"T36750138000106E11_001","pbrMetallicRoughness":{"roughnessFactor":0.984375,"metallicFactor":0.5}}],"meshes":[{"primitives":[{"attributes":{"NORMAL":1,"POSITION":0,"TEXCOORD_0":2},"indices":3,"material":0,"mode":4}]}],"nodes":[{"name":"T36750138000106E11","matrix":[1,0,0,0,0,0,-1,0,0,1,0,0,837125,13.899002075195312,-814100,1],"children":[1]},{"mesh":0}],"scenes":[{"nodes":[0]}],"scene":0,"accessors":[{"bufferView":0,"byteOffset":0,"componentType":5126,"count":953376,"type":"VEC3","min":[-375.5,-300.5,0],"max":[375.5,300.5,197.86447143554688]},{"bufferView":1,"byteOffset":0,"componentType":5126,"count":953376,"type":"VEC3","min":[-1,-0.9999985694885254,-1],"max":[0.9999998807907104,1,1]},{"bufferView":2,"byteOffset":0,"componentType":5126,"count":953376,"type":"VEC2","min":[0.0010622759582474828,0.0021555423736572266],"max":[0.9982737898826599,0.9986734986305237]},{"bufferView":3,"byteOffset":0,"componentType":5125,"count":953376,"type":"SCALAR","min":[0],"max":[953375]}],"bufferViews":[{"buffer":0,"byteOffset":0,"byteLength":11440512,"target":34962},{"buffer":0,"byteOffset":11440512,"byteLength":11440512,"target":34962},{"buffer":0,"byteOffset":22881024,"byteLength":7627008,"target":34962},{"buffer":0,"byteOffset":30508032,"byteLength":3813504,"target":34963}],"buffers":[{"uri":"T36750138000106E11.bin","byteLength":34321536}]}