{
	"asset" : {
		"generator" : "FME 2023.2.1.0",
		"version" : "2.0"
	},
	"materials" : [
		{
			"name" : "default_material",
			"pbrMetallicRoughness" : {
				"baseColorFactor" : [ 1, 1, 1, 1 ],
				"roughnessFactor" : 0.30000000000000004,
				"metallicFactor" : 0.5
			}
		}
	],
	"meshes" : [
		{
			"primitives" : [
				{
					"attributes" : {
						"NORMAL" : 1,
						"POSITION" : 0,
						"COLOR_0" : 2
					},
					"indices" : 3,
					"material" : 0,
					"mode" : 4
				}
			]
		}
	],
	"nodes" : [
		{
			"name" : "B331521606501063C0",
			"matrix" : [ 1, 0, 0, 0, 0, 0, -1, 0, 0, 1, 0, 0, 833159.0625, 107.54900360107422, -816055.875, 1 ],
			"children" : [ 1 ]
		},
		{
			"mesh" : 0
		}
	],
	"scenes" : [
		{
			"nodes" : [ 0 ]
		}
	],
	"scene" : 0,
	"accessors" : [
		{
			"bufferView" : 0,
			"byteOffset" : 0,
			"componentType" : 5126,
			"count" : 9879,
			"type" : "VEC3",
			"min" : [ -14.0302734375, -17.5810546875, 0 ],
			"max" : [ 14.0302734375, 17.580078125, 114.04499053955078 ]
		},
		{
			"bufferView" : 1,
			"byteOffset" : 0,
			"componentType" : 5126,
			"count" : 9879,
			"type" : "VEC3",
			"min" : [ -1, -0.9999209046363831, -1 ],
			"max" : [ 1, 1, 1 ]
		},
		{
			"bufferView" : 2,
			"byteOffset" : 0,
			"componentType" : 5126,
			"count" : 9879,
			"type" : "VEC3"
		},
		{
			"bufferView" : 3,
			"byteOffset" : 0,
			"componentType" : 5123,
			"count" : 9879,
			"type" : "SCALAR",
			"min" : [ 0 ],
			"max" : [ 9878 ]
		}
	],
	"bufferViews" : [
		{
			"buffer" : 0,
			"byteOffset" : 0,
			"byteLength" : 118548,
			"target" : 34962
		},
		{
			"buffer" : 0,
			"byteOffset" : 118548,
			"byteLength" : 118548,
			"target" : 34962
		},
		{
			"buffer" : 0,
			"byteOffset" : 237096,
			"byteLength" : 118548,
			"target" : 34962
		},
		{
			"buffer" : 0,
			"byteOffset" : 355644,
			"byteLength" : 19758,
			"target" : 34963
		}
	],
	"buffers" : [
		{
			"uri" : "B331521606501063C0.bin",
			"byteLength" : 375402
		}
	]
}
