{
	"asset" : {
		"generator" : "FME 2022.2.4.0",
		"version" : "2.0"
	},
	"materials" : [
		{
			"name" : "default_material",
			"pbrMetallicRoughness" : {
				"baseColorFactor" : [ 1, 1, 1, 1 ],
				"roughnessFactor" : 0.30000000000000004,
				"metallicFactor" : 0.5
			}
		}
	],
	"meshes" : [
		{
			"primitives" : [
				{
					"attributes" : {
						"NORMAL" : 1,
						"POSITION" : 0,
						"COLOR_0" : 2
					},
					"indices" : 3,
					"material" : 0,
					"mode" : 4
				}
			]
		}
	],
	"nodes" : [
		{
			"name" : "B344721550201063C0",
			"matrix" : [ 1, 0, 0, 0, 0, 0, -1, 0, 0, 1, 0, 0, 834476.25, 22.9689998626709, -815500.625, 1 ],
			"children" : [ 1 ]
		},
		{
			"mesh" : 0
		}
	],
	"scenes" : [
		{
			"nodes" : [ 0 ]
		}
	],
	"scene" : 0,
	"accessors" : [
		{
			"bufferView" : 0,
			"byteOffset" : 0,
			"componentType" : 5126,
			"count" : 1680,
			"type" : "VEC3",
			"min" : [ -22.1171875, -17.10546875, 0 ],
			"max" : [ 22.1513671875, 17.126953125, 37.99199676513672 ]
		},
		{
			"bufferView" : 1,
			"byteOffset" : 0,
			"componentType" : 5126,
			"count" : 1680,
			"type" : "VEC3",
			"min" : [ -1, -0.8015002608299255, -1 ],
			"max" : [ 0.8293544054031372, 0.8015003800392151, 1 ]
		},
		{
			"bufferView" : 2,
			"byteOffset" : 0,
			"componentType" : 5126,
			"count" : 1680,
			"type" : "VEC3"
		},
		{
			"bufferView" : 3,
			"byteOffset" : 0,
			"componentType" : 5123,
			"count" : 1680,
			"type" : "SCALAR",
			"min" : [ 0 ],
			"max" : [ 1679 ]
		}
	],
	"bufferViews" : [
		{
			"buffer" : 0,
			"byteOffset" : 0,
			"byteLength" : 20160,
			"target" : 34962
		},
		{
			"buffer" : 0,
			"byteOffset" : 20160,
			"byteLength" : 20160,
			"target" : 34962
		},
		{
			"buffer" : 0,
			"byteOffset" : 40320,
			"byteLength" : 20160,
			"target" : 34962
		},
		{
			"buffer" : 0,
			"byteOffset" : 60480,
			"byteLength" : 3360,
			"target" : 34963
		}
	],
	"buffers" : [
		{
			"uri" : "B344721550201063C0.bin",
			"byteLength" : 63840
		}
	]
}
