{
	"asset" : {
		"generator" : "FME 2023.1.0.0",
		"version" : "2.0"
	},
	"materials" : [
		{
			"name" : "default_material",
			"pbrMetallicRoughness" : {
				"baseColorFactor" : [ 1, 1, 1, 1 ],
				"roughnessFactor" : 0.30000000000000004,
				"metallicFactor" : 0.5
			}
		}
	],
	"meshes" : [
		{
			"primitives" : [
				{
					"attributes" : {
						"NORMAL" : 1,
						"POSITION" : 0,
						"COLOR_0" : 2
					},
					"indices" : 3,
					"material" : 0,
					"mode" : 4
				}
			]
		}
	],
	"nodes" : [
		{
			"name" : "B336471638701063C0",
			"matrix" : [ 1, 0, 0, 0, 0, 0, -1, 0, 0, 1, 0, 0, 833648.3125, 10.29699420928955, -816385.9375, 1 ],
			"children" : [ 1 ]
		},
		{
			"mesh" : 0
		}
	],
	"scenes" : [
		{
			"nodes" : [ 0 ]
		}
	],
	"scene" : 0,
	"accessors" : [
		{
			"bufferView" : 0,
			"byteOffset" : 0,
			"componentType" : 5126,
			"count" : 324,
			"type" : "VEC3",
			"min" : [ -5.072265625, -4.2666015625, 0 ],
			"max" : [ 5.072265625, 4.2666015625, 39.62200164794922 ]
		},
		{
			"bufferView" : 1,
			"byteOffset" : 0,
			"componentType" : 5126,
			"count" : 324,
			"type" : "VEC3",
			"min" : [ -0.963833749294281, -0.9634757041931152, -1 ],
			"max" : [ 0.963517963886261, 0.9635239243507385, 1 ]
		},
		{
			"bufferView" : 2,
			"byteOffset" : 0,
			"componentType" : 5126,
			"count" : 324,
			"type" : "VEC3"
		},
		{
			"bufferView" : 3,
			"byteOffset" : 0,
			"componentType" : 5123,
			"count" : 324,
			"type" : "SCALAR",
			"min" : [ 0 ],
			"max" : [ 323 ]
		}
	],
	"bufferViews" : [
		{
			"buffer" : 0,
			"byteOffset" : 0,
			"byteLength" : 3888,
			"target" : 34962
		},
		{
			"buffer" : 0,
			"byteOffset" : 3888,
			"byteLength" : 3888,
			"target" : 34962
		},
		{
			"buffer" : 0,
			"byteOffset" : 7776,
			"byteLength" : 3888,
			"target" : 34962
		},
		{
			"buffer" : 0,
			"byteOffset" : 11664,
			"byteLength" : 648,
			"target" : 34963
		}
	],
	"buffers" : [
		{
			"uri" : "B336471638701063C0.bin",
			"byteLength" : 12312
		}
	]
}
