{
	"asset" : {
		"generator" : "FME 2023.1.0.0",
		"version" : "2.0"
	},
	"materials" : [
		{
			"name" : "default_material",
			"pbrMetallicRoughness" : {
				"baseColorFactor" : [ 1, 1, 1, 1 ],
				"roughnessFactor" : 0.30000000000000004,
				"metallicFactor" : 0.5
			}
		}
	],
	"meshes" : [
		{
			"primitives" : [
				{
					"attributes" : {
						"NORMAL" : 1,
						"POSITION" : 0,
						"COLOR_0" : 2
					},
					"indices" : 3,
					"material" : 0,
					"mode" : 4
				}
			]
		}
	],
	"nodes" : [
		{
			"name" : "B333741650501063C0",
			"matrix" : [ 1, 0, 0, 0, 0, 0, -1, 0, 0, 1, 0, 0, 833381, 16.140995025634766, -816513.375, 1 ],
			"children" : [ 1 ]
		},
		{
			"mesh" : 0
		}
	],
	"scenes" : [
		{
			"nodes" : [ 0 ]
		}
	],
	"scene" : 0,
	"accessors" : [
		{
			"bufferView" : 0,
			"byteOffset" : 0,
			"componentType" : 5126,
			"count" : 1314,
			"type" : "VEC3",
			"min" : [ -10.224609375, -13.126953125, 0 ],
			"max" : [ 10.224609375, 13.126953125, 44.483001708984375 ]
		},
		{
			"bufferView" : 1,
			"byteOffset" : 0,
			"componentType" : 5126,
			"count" : 1314,
			"type" : "VEC3",
			"min" : [ -0.9448941946029663, -0.942541241645813, -1 ],
			"max" : [ 0.9925484657287598, 0.945662260055542, 1 ]
		},
		{
			"bufferView" : 2,
			"byteOffset" : 0,
			"componentType" : 5126,
			"count" : 1314,
			"type" : "VEC3"
		},
		{
			"bufferView" : 3,
			"byteOffset" : 0,
			"componentType" : 5123,
			"count" : 1314,
			"type" : "SCALAR",
			"min" : [ 0 ],
			"max" : [ 1313 ]
		}
	],
	"bufferViews" : [
		{
			"buffer" : 0,
			"byteOffset" : 0,
			"byteLength" : 15768,
			"target" : 34962
		},
		{
			"buffer" : 0,
			"byteOffset" : 15768,
			"byteLength" : 15768,
			"target" : 34962
		},
		{
			"buffer" : 0,
			"byteOffset" : 31536,
			"byteLength" : 15768,
			"target" : 34962
		},
		{
			"buffer" : 0,
			"byteOffset" : 47304,
			"byteLength" : 2628,
			"target" : 34963
		}
	],
	"buffers" : [
		{
			"uri" : "B333741650501063C0.bin",
			"byteLength" : 49932
		}
	]
}
