{
	"asset" : {
		"generator" : "FME 2023.1.0.0",
		"version" : "2.0"
	},
	"materials" : [
		{
			"name" : "default_material",
			"pbrMetallicRoughness" : {
				"baseColorFactor" : [ 1, 1, 1, 1 ],
				"roughnessFactor" : 0.30000000000000004,
				"metallicFactor" : 0.5
			}
		}
	],
	"meshes" : [
		{
			"primitives" : [
				{
					"attributes" : {
						"NORMAL" : 1,
						"POSITION" : 0,
						"COLOR_0" : 2
					},
					"indices" : 3,
					"material" : 0,
					"mode" : 4
				}
			]
		}
	],
	"nodes" : [
		{
			"name" : "B333211500201063C0",
			"matrix" : [ 1, 0, 0, 0, 0, 0, -1, 0, 0, 1, 0, 0, 833329.625, 442.84124755859375, -814993.75, 1 ],
			"children" : [ 1 ]
		},
		{
			"mesh" : 0
		}
	],
	"scenes" : [
		{
			"nodes" : [ 0 ]
		}
	],
	"scene" : 0,
	"accessors" : [
		{
			"bufferView" : 0,
			"byteOffset" : 0,
			"componentType" : 5126,
			"count" : 40110,
			"type" : "VEC3",
			"min" : [ -11.0625, -14.98046875, 0 ],
			"max" : [ 11.0048828125, 14.9658203125, 22.138763427734375 ]
		},
		{
			"bufferView" : 1,
			"byteOffset" : 0,
			"componentType" : 5126,
			"count" : 40110,
			"type" : "VEC3",
			"min" : [ -1, -1, -0.9995332956314087 ],
			"max" : [ 0.9997022747993469, 0.9997063279151917, 0.9999975562095642 ]
		},
		{
			"bufferView" : 2,
			"byteOffset" : 0,
			"componentType" : 5126,
			"count" : 40110,
			"type" : "VEC3"
		},
		{
			"bufferView" : 3,
			"byteOffset" : 0,
			"componentType" : 5123,
			"count" : 40110,
			"type" : "SCALAR",
			"min" : [ 0 ],
			"max" : [ 40109 ]
		}
	],
	"bufferViews" : [
		{
			"buffer" : 0,
			"byteOffset" : 0,
			"byteLength" : 481320,
			"target" : 34962
		},
		{
			"buffer" : 0,
			"byteOffset" : 481320,
			"byteLength" : 481320,
			"target" : 34962
		},
		{
			"buffer" : 0,
			"byteOffset" : 962640,
			"byteLength" : 481320,
			"target" : 34962
		},
		{
			"buffer" : 0,
			"byteOffset" : 1443960,
			"byteLength" : 80220,
			"target" : 34963
		}
	],
	"buffers" : [
		{
			"uri" : "B333211500201063C0.bin",
			"byteLength" : 1524180
		}
	]
}
