{
	"asset" : {
		"generator" : "FME 2023.1.0.0",
		"version" : "2.0"
	},
	"materials" : [
		{
			"name" : "default_material",
			"pbrMetallicRoughness" : {
				"baseColorFactor" : [ 1, 1, 1, 1 ],
				"roughnessFactor" : 0.30000000000000004,
				"metallicFactor" : 0.5
			}
		}
	],
	"meshes" : [
		{
			"primitives" : [
				{
					"attributes" : {
						"NORMAL" : 1,
						"POSITION" : 0,
						"COLOR_0" : 2
					},
					"indices" : 3,
					"material" : 0,
					"mode" : 4
				}
			]
		}
	],
	"nodes" : [
		{
			"name" : "B335081616302063C0",
			"matrix" : [ 1, 0, 0, 0, 0, 0, -1, 0, 0, 1, 0, 0, 833507.9375, 18.817001342773438, -816163.625, 1 ],
			"children" : [ 1 ]
		},
		{
			"mesh" : 0
		}
	],
	"scenes" : [
		{
			"nodes" : [ 0 ]
		}
	],
	"scene" : 0,
	"accessors" : [
		{
			"bufferView" : 0,
			"byteOffset" : 0,
			"componentType" : 5126,
			"count" : 696,
			"type" : "VEC3",
			"min" : [ -12.5751953125, -11.55859375, 0 ],
			"max" : [ 12.5751953125, 11.55859375, 12.898000717163086 ]
		},
		{
			"bufferView" : 1,
			"byteOffset" : 0,
			"componentType" : 5126,
			"count" : 696,
			"type" : "VEC3",
			"min" : [ -0.8464885950088501, -0.8469297885894775, -1 ],
			"max" : [ 0.882879376411438, 0.8402150273323059, 1 ]
		},
		{
			"bufferView" : 2,
			"byteOffset" : 0,
			"componentType" : 5126,
			"count" : 696,
			"type" : "VEC3"
		},
		{
			"bufferView" : 3,
			"byteOffset" : 0,
			"componentType" : 5123,
			"count" : 696,
			"type" : "SCALAR",
			"min" : [ 0 ],
			"max" : [ 695 ]
		}
	],
	"bufferViews" : [
		{
			"buffer" : 0,
			"byteOffset" : 0,
			"byteLength" : 8352,
			"target" : 34962
		},
		{
			"buffer" : 0,
			"byteOffset" : 8352,
			"byteLength" : 8352,
			"target" : 34962
		},
		{
			"buffer" : 0,
			"byteOffset" : 16704,
			"byteLength" : 8352,
			"target" : 34962
		},
		{
			"buffer" : 0,
			"byteOffset" : 25056,
			"byteLength" : 1392,
			"target" : 34963
		}
	],
	"buffers" : [
		{
			"uri" : "B335081616302063C0.bin",
			"byteLength" : 26448
		}
	]
}
