{
	"asset" : {
		"generator" : "FME 2023.1.0.0",
		"version" : "2.0"
	},
	"materials" : [
		{
			"name" : "default_material",
			"pbrMetallicRoughness" : {
				"baseColorFactor" : [ 1, 1, 1, 1 ],
				"roughnessFactor" : 0.30000000000000004,
				"metallicFactor" : 0.5
			}
		}
	],
	"meshes" : [
		{
			"primitives" : [
				{
					"attributes" : {
						"NORMAL" : 1,
						"POSITION" : 0,
						"COLOR_0" : 2
					},
					"indices" : 3,
					"material" : 0,
					"mode" : 4
				}
			]
		}
	],
	"nodes" : [
		{
			"name" : "B342191624502063C0",
			"matrix" : [ 1, 0, 0, 0, 0, 0, -1, 0, 0, 1, 0, 0, 834213.8125, 4.116001129150391, -816265.1875, 1 ],
			"children" : [ 1 ]
		},
		{
			"mesh" : 0
		}
	],
	"scenes" : [
		{
			"nodes" : [ 0 ]
		}
	],
	"scene" : 0,
	"accessors" : [
		{
			"bufferView" : 0,
			"byteOffset" : 0,
			"componentType" : 5126,
			"count" : 6501,
			"type" : "VEC3",
			"min" : [ -27.916015625, -58.279296875, 0 ],
			"max" : [ 27.916015625, 58.279296875, 30.55099868774414 ]
		},
		{
			"bufferView" : 1,
			"byteOffset" : 0,
			"componentType" : 5126,
			"count" : 6501,
			"type" : "VEC3",
			"min" : [ -0.9987689256668091, -0.9996992349624634, -1 ],
			"max" : [ 0.9999798536300659, 0.9999890923500061, 1 ]
		},
		{
			"bufferView" : 2,
			"byteOffset" : 0,
			"componentType" : 5126,
			"count" : 6501,
			"type" : "VEC3"
		},
		{
			"bufferView" : 3,
			"byteOffset" : 0,
			"componentType" : 5123,
			"count" : 6501,
			"type" : "SCALAR",
			"min" : [ 0 ],
			"max" : [ 6500 ]
		}
	],
	"bufferViews" : [
		{
			"buffer" : 0,
			"byteOffset" : 0,
			"byteLength" : 78012,
			"target" : 34962
		},
		{
			"buffer" : 0,
			"byteOffset" : 78012,
			"byteLength" : 78012,
			"target" : 34962
		},
		{
			"buffer" : 0,
			"byteOffset" : 156024,
			"byteLength" : 78012,
			"target" : 34962
		},
		{
			"buffer" : 0,
			"byteOffset" : 234036,
			"byteLength" : 13002,
			"target" : 34963
		}
	],
	"buffers" : [
		{
			"uri" : "B342191624502063C0.bin",
			"byteLength" : 247038
		}
	]
}
