{
	"asset" : {
		"generator" : "FME 2023.2.2.0",
		"version" : "2.0"
	},
	"materials" : [
		{
			"name" : "default_material",
			"pbrMetallicRoughness" : {
				"baseColorFactor" : [ 1, 1, 1, 1 ],
				"roughnessFactor" : 0.30000000000000004,
				"metallicFactor" : 0.5
			}
		}
	],
	"meshes" : [
		{
			"primitives" : [
				{
					"attributes" : {
						"NORMAL" : 1,
						"POSITION" : 0,
						"COLOR_0" : 2
					},
					"indices" : 3,
					"material" : 0,
					"mode" : 4
				}
			]
		}
	],
	"nodes" : [
		{
			"name" : "B182961352001062G0",
			"matrix" : [ 1, 0, 0, 0, 0, 0, -1, 0, 0, 1, 0, 0, 818295.875, 77.93560028076172, -813521.125, 1 ],
			"children" : [ 1 ]
		},
		{
			"mesh" : 0
		}
	],
	"scenes" : [
		{
			"nodes" : [ 0 ]
		}
	],
	"scene" : 0,
	"accessors" : [
		{
			"bufferView" : 0,
			"byteOffset" : 0,
			"componentType" : 5126,
			"count" : 42,
			"type" : "VEC3",
			"min" : [ -3, -3.4375, 0 ],
			"max" : [ 2.9375, 3.375, 3.6576995849609375 ]
		},
		{
			"bufferView" : 1,
			"byteOffset" : 0,
			"componentType" : 5126,
			"count" : 42,
			"type" : "VEC3",
			"min" : [ -0.9686582684516907, -0.9686593413352966, 0 ],
			"max" : [ 0.9686581492424011, 0.9686593413352966, 0.9504001140594482 ]
		},
		{
			"bufferView" : 2,
			"byteOffset" : 0,
			"componentType" : 5126,
			"count" : 42,
			"type" : "VEC3"
		},
		{
			"bufferView" : 3,
			"byteOffset" : 0,
			"componentType" : 5121,
			"count" : 42,
			"type" : "SCALAR",
			"min" : [ 0 ],
			"max" : [ 41 ]
		}
	],
	"bufferViews" : [
		{
			"buffer" : 0,
			"byteOffset" : 0,
			"byteLength" : 504,
			"target" : 34962
		},
		{
			"buffer" : 0,
			"byteOffset" : 504,
			"byteLength" : 504,
			"target" : 34962
		},
		{
			"buffer" : 0,
			"byteOffset" : 1008,
			"byteLength" : 504,
			"target" : 34962
		},
		{
			"buffer" : 0,
			"byteOffset" : 1512,
			"byteLength" : 42,
			"target" : 34963
		}
	],
	"buffers" : [
		{
			"uri" : "B182961352001062G0.bin",
			"byteLength" : 1554
		}
	]
}
