{
	"asset" : {
		"generator" : "FME 2022.2.4.0",
		"version" : "2.0"
	},
	"materials" : [
		{
			"name" : "default_material",
			"pbrMetallicRoughness" : {
				"baseColorFactor" : [ 1, 1, 1, 1 ],
				"roughnessFactor" : 0.30000000000000004,
				"metallicFactor" : 0.5
			}
		}
	],
	"meshes" : [
		{
			"primitives" : [
				{
					"attributes" : {
						"NORMAL" : 1,
						"POSITION" : 0,
						"COLOR_0" : 2
					},
					"indices" : 3,
					"material" : 0,
					"mode" : 4
				}
			]
		}
	],
	"nodes" : [
		{
			"name" : "B350081546102063C0",
			"matrix" : [ 1, 0, 0, 0, 0, 0, -1, 0, 0, 1, 0, 0, 835068, 5.946000099182129, -815408.4375, 1 ],
			"children" : [ 1 ]
		},
		{
			"mesh" : 0
		}
	],
	"scenes" : [
		{
			"nodes" : [ 0 ]
		}
	],
	"scene" : 0,
	"accessors" : [
		{
			"bufferView" : 0,
			"byteOffset" : 0,
			"componentType" : 5126,
			"count" : 24273,
			"type" : "VEC3",
			"min" : [ -102.763671875, -56.029296875, 0 ],
			"max" : [ 102.763671875, 56.029296875, 27.477001190185547 ]
		},
		{
			"bufferView" : 1,
			"byteOffset" : 0,
			"componentType" : 5126,
			"count" : 24273,
			"type" : "VEC3",
			"min" : [ -1, -1, -1 ],
			"max" : [ 1, 1, 1 ]
		},
		{
			"bufferView" : 2,
			"byteOffset" : 0,
			"componentType" : 5126,
			"count" : 24273,
			"type" : "VEC3"
		},
		{
			"bufferView" : 3,
			"byteOffset" : 0,
			"componentType" : 5123,
			"count" : 24273,
			"type" : "SCALAR",
			"min" : [ 0 ],
			"max" : [ 24272 ]
		}
	],
	"bufferViews" : [
		{
			"buffer" : 0,
			"byteOffset" : 0,
			"byteLength" : 291276,
			"target" : 34962
		},
		{
			"buffer" : 0,
			"byteOffset" : 291276,
			"byteLength" : 291276,
			"target" : 34962
		},
		{
			"buffer" : 0,
			"byteOffset" : 582552,
			"byteLength" : 291276,
			"target" : 34962
		},
		{
			"buffer" : 0,
			"byteOffset" : 873828,
			"byteLength" : 48546,
			"target" : 34963
		}
	],
	"buffers" : [
		{
			"uri" : "B350081546102063C0.bin",
			"byteLength" : 922374
		}
	]
}
