{
	"asset" : {
		"generator" : "FME 2023.1.0.0",
		"version" : "2.0"
	},
	"materials" : [
		{
			"name" : "default_material",
			"pbrMetallicRoughness" : {
				"baseColorFactor" : [ 1, 1, 1, 1 ],
				"roughnessFactor" : 0.30000000000000004,
				"metallicFactor" : 0.5
			}
		}
	],
	"meshes" : [
		{
			"primitives" : [
				{
					"attributes" : {
						"NORMAL" : 1,
						"POSITION" : 0,
						"COLOR_0" : 2
					},
					"indices" : 3,
					"material" : 0,
					"mode" : 4
				}
			]
		}
	],
	"nodes" : [
		{
			"name" : "B336881639901063C0",
			"matrix" : [ 1, 0, 0, 0, 0, 0, -1, 0, 0, 1, 0, 0, 833687.875, 3.9340038299560547, -816393.6875, 1 ],
			"children" : [ 1 ]
		},
		{
			"mesh" : 0
		}
	],
	"scenes" : [
		{
			"nodes" : [ 0 ]
		}
	],
	"scene" : 0,
	"accessors" : [
		{
			"bufferView" : 0,
			"byteOffset" : 0,
			"componentType" : 5126,
			"count" : 1818,
			"type" : "VEC3",
			"min" : [ -8.46484375, -9.2109375, 0 ],
			"max" : [ 8.46484375, 9.2099609375, 83.30400085449219 ]
		},
		{
			"bufferView" : 1,
			"byteOffset" : 0,
			"componentType" : 5126,
			"count" : 1818,
			"type" : "VEC3",
			"min" : [ -0.9662349820137024, -0.97163987159729, -1 ],
			"max" : [ 0.9658758640289307, 0.9707320928573608, 1 ]
		},
		{
			"bufferView" : 2,
			"byteOffset" : 0,
			"componentType" : 5126,
			"count" : 1818,
			"type" : "VEC3"
		},
		{
			"bufferView" : 3,
			"byteOffset" : 0,
			"componentType" : 5123,
			"count" : 1818,
			"type" : "SCALAR",
			"min" : [ 0 ],
			"max" : [ 1817 ]
		}
	],
	"bufferViews" : [
		{
			"buffer" : 0,
			"byteOffset" : 0,
			"byteLength" : 21816,
			"target" : 34962
		},
		{
			"buffer" : 0,
			"byteOffset" : 21816,
			"byteLength" : 21816,
			"target" : 34962
		},
		{
			"buffer" : 0,
			"byteOffset" : 43632,
			"byteLength" : 21816,
			"target" : 34962
		},
		{
			"buffer" : 0,
			"byteOffset" : 65448,
			"byteLength" : 3636,
			"target" : 34963
		}
	],
	"buffers" : [
		{
			"uri" : "B336881639901063C0.bin",
			"byteLength" : 69084
		}
	]
}
