{
	"asset" : {
		"generator" : "FME 2023.1.0.0",
		"version" : "2.0"
	},
	"materials" : [
		{
			"name" : "default_material",
			"pbrMetallicRoughness" : {
				"baseColorFactor" : [ 1, 1, 1, 1 ],
				"roughnessFactor" : 0.30000000000000004,
				"metallicFactor" : 0.5
			}
		}
	],
	"meshes" : [
		{
			"primitives" : [
				{
					"attributes" : {
						"NORMAL" : 1,
						"POSITION" : 0,
						"COLOR_0" : 2
					},
					"indices" : 3,
					"material" : 0,
					"mode" : 4
				}
			]
		}
	],
	"nodes" : [
		{
			"name" : "B336881637001063C0",
			"matrix" : [ 1, 0, 0, 0, 0, 0, -1, 0, 0, 1, 0, 0, 833692.4375, 3.9439961910247803, -816375.625, 1 ],
			"children" : [ 1 ]
		},
		{
			"mesh" : 0
		}
	],
	"scenes" : [
		{
			"nodes" : [ 0 ]
		}
	],
	"scene" : 0,
	"accessors" : [
		{
			"bufferView" : 0,
			"byteOffset" : 0,
			"componentType" : 5126,
			"count" : 513,
			"type" : "VEC3",
			"min" : [ -4.984375, -8.8232421875, 0 ],
			"max" : [ 4.984375, 8.8232421875, 50.032005310058594 ]
		},
		{
			"bufferView" : 1,
			"byteOffset" : 0,
			"componentType" : 5126,
			"count" : 513,
			"type" : "VEC3",
			"min" : [ -0.965049684047699, -0.9692838191986084, -1 ],
			"max" : [ 0.9650309085845947, 0.9640163779258728, 1 ]
		},
		{
			"bufferView" : 2,
			"byteOffset" : 0,
			"componentType" : 5126,
			"count" : 513,
			"type" : "VEC3"
		},
		{
			"bufferView" : 3,
			"byteOffset" : 0,
			"componentType" : 5123,
			"count" : 513,
			"type" : "SCALAR",
			"min" : [ 0 ],
			"max" : [ 512 ]
		}
	],
	"bufferViews" : [
		{
			"buffer" : 0,
			"byteOffset" : 0,
			"byteLength" : 6156,
			"target" : 34962
		},
		{
			"buffer" : 0,
			"byteOffset" : 6156,
			"byteLength" : 6156,
			"target" : 34962
		},
		{
			"buffer" : 0,
			"byteOffset" : 12312,
			"byteLength" : 6156,
			"target" : 34962
		},
		{
			"buffer" : 0,
			"byteOffset" : 18468,
			"byteLength" : 1026,
			"target" : 34963
		}
	],
	"buffers" : [
		{
			"uri" : "B336881637001063C0.bin",
			"byteLength" : 19494
		}
	]
}
