{
	"asset" : {
		"generator" : "FME 2023.2.1.0",
		"version" : "2.0"
	},
	"materials" : [
		{
			"name" : "default_material",
			"pbrMetallicRoughness" : {
				"baseColorFactor" : [ 1, 1, 1, 1 ],
				"roughnessFactor" : 0.30000000000000004,
				"metallicFactor" : 0.5
			}
		}
	],
	"meshes" : [
		{
			"primitives" : [
				{
					"attributes" : {
						"NORMAL" : 1,
						"POSITION" : 0,
						"COLOR_0" : 2
					},
					"indices" : 3,
					"material" : 0,
					"mode" : 4
				}
			]
		}
	],
	"nodes" : [
		{
			"name" : "B335251622802063C0",
			"matrix" : [ 1, 0, 0, 0, 0, 0, -1, 0, 0, 1, 0, 0, 833528.9375, 5.626999855041504, -816223.375, 1 ],
			"children" : [ 1 ]
		},
		{
			"mesh" : 0
		}
	],
	"scenes" : [
		{
			"nodes" : [ 0 ]
		}
	],
	"scene" : 0,
	"accessors" : [
		{
			"bufferView" : 0,
			"byteOffset" : 0,
			"componentType" : 5126,
			"count" : 3570,
			"type" : "VEC3",
			"min" : [ -9.908203125, -9.60546875, 0 ],
			"max" : [ 9.966796875, 9.58984375, 20.045001983642578 ]
		},
		{
			"bufferView" : 1,
			"byteOffset" : 0,
			"componentType" : 5126,
			"count" : 3570,
			"type" : "VEC3",
			"min" : [ -0.9917119145393372, -0.9991054534912109, -1 ],
			"max" : [ 1, 0.9998014569282532, 1 ]
		},
		{
			"bufferView" : 2,
			"byteOffset" : 0,
			"componentType" : 5126,
			"count" : 3570,
			"type" : "VEC3"
		},
		{
			"bufferView" : 3,
			"byteOffset" : 0,
			"componentType" : 5123,
			"count" : 3570,
			"type" : "SCALAR",
			"min" : [ 0 ],
			"max" : [ 3569 ]
		}
	],
	"bufferViews" : [
		{
			"buffer" : 0,
			"byteOffset" : 0,
			"byteLength" : 42840,
			"target" : 34962
		},
		{
			"buffer" : 0,
			"byteOffset" : 42840,
			"byteLength" : 42840,
			"target" : 34962
		},
		{
			"buffer" : 0,
			"byteOffset" : 85680,
			"byteLength" : 42840,
			"target" : 34962
		},
		{
			"buffer" : 0,
			"byteOffset" : 128520,
			"byteLength" : 7140,
			"target" : 34963
		}
	],
	"buffers" : [
		{
			"uri" : "B335251622802063C0.bin",
			"byteLength" : 135660
		}
	]
}
