{
	"asset" : {
		"generator" : "FME 2022.2.4.0",
		"version" : "2.0"
	},
	"materials" : [
		{
			"name" : "default_material",
			"pbrMetallicRoughness" : {
				"baseColorFactor" : [ 1, 1, 1, 1 ],
				"roughnessFactor" : 0.30000000000000004,
				"metallicFactor" : 0.5
			}
		}
	],
	"meshes" : [
		{
			"primitives" : [
				{
					"attributes" : {
						"NORMAL" : 1,
						"POSITION" : 0,
						"COLOR_0" : 2
					},
					"indices" : 3,
					"material" : 0,
					"mode" : 4
				}
			]
		}
	],
	"nodes" : [
		{
			"name" : "B330611596001063C0",
			"matrix" : [ 1, 0, 0, 0, 0, 0, -1, 0, 0, 1, 0, 0, 833060.3125, 133.23300170898438, -815956.25, 1 ],
			"children" : [ 1 ]
		},
		{
			"mesh" : 0
		}
	],
	"scenes" : [
		{
			"nodes" : [ 0 ]
		}
	],
	"scene" : 0,
	"accessors" : [
		{
			"bufferView" : 0,
			"byteOffset" : 0,
			"componentType" : 5126,
			"count" : 2343,
			"type" : "VEC3",
			"min" : [ -8.9794921875, -13.2314453125, 0 ],
			"max" : [ 8.9794921875, 13.23046875, 34.39599609375 ]
		},
		{
			"bufferView" : 1,
			"byteOffset" : 0,
			"componentType" : 5126,
			"count" : 2343,
			"type" : "VEC3",
			"min" : [ -0.9449491500854492, -0.9431025385856628, -1 ],
			"max" : [ 0.9384223222732544, 0.9429826736450195, 1 ]
		},
		{
			"bufferView" : 2,
			"byteOffset" : 0,
			"componentType" : 5126,
			"count" : 2343,
			"type" : "VEC3"
		},
		{
			"bufferView" : 3,
			"byteOffset" : 0,
			"componentType" : 5123,
			"count" : 2343,
			"type" : "SCALAR",
			"min" : [ 0 ],
			"max" : [ 2342 ]
		}
	],
	"bufferViews" : [
		{
			"buffer" : 0,
			"byteOffset" : 0,
			"byteLength" : 28116,
			"target" : 34962
		},
		{
			"buffer" : 0,
			"byteOffset" : 28116,
			"byteLength" : 28116,
			"target" : 34962
		},
		{
			"buffer" : 0,
			"byteOffset" : 56232,
			"byteLength" : 28116,
			"target" : 34962
		},
		{
			"buffer" : 0,
			"byteOffset" : 84348,
			"byteLength" : 4686,
			"target" : 34963
		}
	],
	"buffers" : [
		{
			"uri" : "B330611596001063C0.bin",
			"byteLength" : 89034
		}
	]
}
