{
	"asset" : {
		"generator" : "FME 2023.1.0.0",
		"version" : "2.0"
	},
	"materials" : [
		{
			"name" : "default_material",
			"pbrMetallicRoughness" : {
				"baseColorFactor" : [ 1, 1, 1, 1 ],
				"roughnessFactor" : 0.30000000000000004,
				"metallicFactor" : 0.5
			}
		}
	],
	"meshes" : [
		{
			"primitives" : [
				{
					"attributes" : {
						"NORMAL" : 1,
						"POSITION" : 0,
						"COLOR_0" : 2
					},
					"indices" : 3,
					"material" : 0,
					"mode" : 4
				}
			]
		}
	],
	"nodes" : [
		{
			"name" : "B342661522801063C0",
			"matrix" : [ 1, 0, 0, 0, 0, 0, -1, 0, 0, 1, 0, 0, 834266.3125, 74.44000244140625, -815227.1875, 1 ],
			"children" : [ 1 ]
		},
		{
			"mesh" : 0
		}
	],
	"scenes" : [
		{
			"nodes" : [ 0 ]
		}
	],
	"scene" : 0,
	"accessors" : [
		{
			"bufferView" : 0,
			"byteOffset" : 0,
			"componentType" : 5126,
			"count" : 78,
			"type" : "VEC3",
			"min" : [ -2.783203125, -2.94140625, 0 ],
			"max" : [ 2.783203125, 2.94140625, 15.10699462890625 ]
		},
		{
			"bufferView" : 1,
			"byteOffset" : 0,
			"componentType" : 5126,
			"count" : 78,
			"type" : "VEC3",
			"min" : [ -0.8473520278930664, -0.946600079536438, 0 ],
			"max" : [ 0.8473861217498779, 0.9466954469680786, 1 ]
		},
		{
			"bufferView" : 2,
			"byteOffset" : 0,
			"componentType" : 5126,
			"count" : 78,
			"type" : "VEC3"
		},
		{
			"bufferView" : 3,
			"byteOffset" : 0,
			"componentType" : 5121,
			"count" : 78,
			"type" : "SCALAR",
			"min" : [ 0 ],
			"max" : [ 77 ]
		}
	],
	"bufferViews" : [
		{
			"buffer" : 0,
			"byteOffset" : 0,
			"byteLength" : 936,
			"target" : 34962
		},
		{
			"buffer" : 0,
			"byteOffset" : 936,
			"byteLength" : 936,
			"target" : 34962
		},
		{
			"buffer" : 0,
			"byteOffset" : 1872,
			"byteLength" : 936,
			"target" : 34962
		},
		{
			"buffer" : 0,
			"byteOffset" : 2808,
			"byteLength" : 78,
			"target" : 34963
		}
	],
	"buffers" : [
		{
			"uri" : "B342661522801063C0.bin",
			"byteLength" : 2886
		}
	]
}
