{
	"asset" : {
		"generator" : "FME 2023.2.1.0",
		"version" : "2.0"
	},
	"materials" : [
		{
			"name" : "default_material",
			"pbrMetallicRoughness" : {
				"baseColorFactor" : [ 1, 1, 1, 1 ],
				"roughnessFactor" : 0.30000000000000004,
				"metallicFactor" : 0.5
			}
		}
	],
	"meshes" : [
		{
			"primitives" : [
				{
					"attributes" : {
						"NORMAL" : 1,
						"POSITION" : 0,
						"COLOR_0" : 2
					},
					"indices" : 3,
					"material" : 0,
					"mode" : 4
				}
			]
		}
	],
	"nodes" : [
		{
			"name" : "B333971639902063C0",
			"matrix" : [ 1, 0, 0, 0, 0, 0, -1, 0, 0, 1, 0, 0, 833398.6875, 3.6289942264556885, -816399.8125, 1 ],
			"children" : [ 1 ]
		},
		{
			"mesh" : 0
		}
	],
	"scenes" : [
		{
			"nodes" : [ 0 ]
		}
	],
	"scene" : 0,
	"accessors" : [
		{
			"bufferView" : 0,
			"byteOffset" : 0,
			"componentType" : 5126,
			"count" : 660,
			"type" : "VEC3",
			"min" : [ -9.890625, -8.62109375, 0 ],
			"max" : [ 9.890625, 8.62109375, 9.305000305175781 ]
		},
		{
			"bufferView" : 1,
			"byteOffset" : 0,
			"componentType" : 5126,
			"count" : 660,
			"type" : "VEC3",
			"min" : [ -0.8764764070510864, -1, -1 ],
			"max" : [ 1, 0.7671297788619995, 1 ]
		},
		{
			"bufferView" : 2,
			"byteOffset" : 0,
			"componentType" : 5126,
			"count" : 660,
			"type" : "VEC3"
		},
		{
			"bufferView" : 3,
			"byteOffset" : 0,
			"componentType" : 5123,
			"count" : 660,
			"type" : "SCALAR",
			"min" : [ 0 ],
			"max" : [ 659 ]
		}
	],
	"bufferViews" : [
		{
			"buffer" : 0,
			"byteOffset" : 0,
			"byteLength" : 7920,
			"target" : 34962
		},
		{
			"buffer" : 0,
			"byteOffset" : 7920,
			"byteLength" : 7920,
			"target" : 34962
		},
		{
			"buffer" : 0,
			"byteOffset" : 15840,
			"byteLength" : 7920,
			"target" : 34962
		},
		{
			"buffer" : 0,
			"byteOffset" : 23760,
			"byteLength" : 1320,
			"target" : 34963
		}
	],
	"buffers" : [
		{
			"uri" : "B333971639902063C0.bin",
			"byteLength" : 25080
		}
	]
}
