{
	"asset" : {
		"generator" : "FME 2023.1.0.0",
		"version" : "2.0"
	},
	"materials" : [
		{
			"name" : "default_material",
			"pbrMetallicRoughness" : {
				"baseColorFactor" : [ 1, 1, 1, 1 ],
				"roughnessFactor" : 0.30000000000000004,
				"metallicFactor" : 0.5
			}
		}
	],
	"meshes" : [
		{
			"primitives" : [
				{
					"attributes" : {
						"NORMAL" : 1,
						"POSITION" : 0,
						"COLOR_0" : 2
					},
					"indices" : 3,
					"material" : 0,
					"mode" : 4
				}
			]
		}
	],
	"nodes" : [
		{
			"name" : "B359091519901063C0",
			"matrix" : [ 1, 0, 0, 0, 0, 0, -1, 0, 0, 1, 0, 0, 835910.625, 10.559000015258789, -815205, 1 ],
			"children" : [ 1 ]
		},
		{
			"mesh" : 0
		}
	],
	"scenes" : [
		{
			"nodes" : [ 0 ]
		}
	],
	"scene" : 0,
	"accessors" : [
		{
			"bufferView" : 0,
			"byteOffset" : 0,
			"componentType" : 5126,
			"count" : 969,
			"type" : "VEC3",
			"min" : [ -10.5244140625, -6.9501953125, 0 ],
			"max" : [ 10.5244140625, 6.9501953125, 78.8030014038086 ]
		},
		{
			"bufferView" : 1,
			"byteOffset" : 0,
			"componentType" : 5126,
			"count" : 969,
			"type" : "VEC3",
			"min" : [ -0.9986086487770081, -0.9953954815864563, -1 ],
			"max" : [ 0.9952591061592102, 0.9953786134719849, 1 ]
		},
		{
			"bufferView" : 2,
			"byteOffset" : 0,
			"componentType" : 5126,
			"count" : 969,
			"type" : "VEC3"
		},
		{
			"bufferView" : 3,
			"byteOffset" : 0,
			"componentType" : 5123,
			"count" : 969,
			"type" : "SCALAR",
			"min" : [ 0 ],
			"max" : [ 968 ]
		}
	],
	"bufferViews" : [
		{
			"buffer" : 0,
			"byteOffset" : 0,
			"byteLength" : 11628,
			"target" : 34962
		},
		{
			"buffer" : 0,
			"byteOffset" : 11628,
			"byteLength" : 11628,
			"target" : 34962
		},
		{
			"buffer" : 0,
			"byteOffset" : 23256,
			"byteLength" : 11628,
			"target" : 34962
		},
		{
			"buffer" : 0,
			"byteOffset" : 34884,
			"byteLength" : 1938,
			"target" : 34963
		}
	],
	"buffers" : [
		{
			"uri" : "B359091519901063C0.bin",
			"byteLength" : 36822
		}
	]
}
