{
	"asset" : {
		"generator" : "FME 2023.1.0.0",
		"version" : "2.0"
	},
	"materials" : [
		{
			"name" : "default_material",
			"pbrMetallicRoughness" : {
				"baseColorFactor" : [ 1, 1, 1, 1 ],
				"roughnessFactor" : 0.30000000000000004,
				"metallicFactor" : 0.5
			}
		}
	],
	"meshes" : [
		{
			"primitives" : [
				{
					"attributes" : {
						"NORMAL" : 1,
						"POSITION" : 0,
						"COLOR_0" : 2
					},
					"indices" : 3,
					"material" : 0,
					"mode" : 4
				}
			]
		}
	],
	"nodes" : [
		{
			"name" : "B332061630501063C0",
			"matrix" : [ 1, 0, 0, 0, 0, 0, -1, 0, 0, 1, 0, 0, 833216.1875, 14.460000038146973, -816314.25, 1 ],
			"children" : [ 1 ]
		},
		{
			"mesh" : 0
		}
	],
	"scenes" : [
		{
			"nodes" : [ 0 ]
		}
	],
	"scene" : 0,
	"accessors" : [
		{
			"bufferView" : 0,
			"byteOffset" : 0,
			"componentType" : 5126,
			"count" : 1890,
			"type" : "VEC3",
			"min" : [ -13.990234375, -15.677734375, 0 ],
			"max" : [ 14.029296875, 15.7080078125, 23.250999450683594 ]
		},
		{
			"bufferView" : 1,
			"byteOffset" : 0,
			"componentType" : 5126,
			"count" : 1890,
			"type" : "VEC3",
			"min" : [ -0.9847836494445801, -0.9662349820137024, -1 ],
			"max" : [ 0.9828721880912781, 0.9965457916259766, 1 ]
		},
		{
			"bufferView" : 2,
			"byteOffset" : 0,
			"componentType" : 5126,
			"count" : 1890,
			"type" : "VEC3"
		},
		{
			"bufferView" : 3,
			"byteOffset" : 0,
			"componentType" : 5123,
			"count" : 1890,
			"type" : "SCALAR",
			"min" : [ 0 ],
			"max" : [ 1889 ]
		}
	],
	"bufferViews" : [
		{
			"buffer" : 0,
			"byteOffset" : 0,
			"byteLength" : 22680,
			"target" : 34962
		},
		{
			"buffer" : 0,
			"byteOffset" : 22680,
			"byteLength" : 22680,
			"target" : 34962
		},
		{
			"buffer" : 0,
			"byteOffset" : 45360,
			"byteLength" : 22680,
			"target" : 34962
		},
		{
			"buffer" : 0,
			"byteOffset" : 68040,
			"byteLength" : 3780,
			"target" : 34963
		}
	],
	"buffers" : [
		{
			"uri" : "B332061630501063C0.bin",
			"byteLength" : 71820
		}
	]
}
