{
	"asset" : {
		"generator" : "FME 2023.1.0.0",
		"version" : "2.0"
	},
	"materials" : [
		{
			"name" : "default_material",
			"pbrMetallicRoughness" : {
				"baseColorFactor" : [ 1, 1, 1, 1 ],
				"roughnessFactor" : 0.30000000000000004,
				"metallicFactor" : 0.5
			}
		}
	],
	"meshes" : [
		{
			"primitives" : [
				{
					"attributes" : {
						"NORMAL" : 1,
						"POSITION" : 0,
						"COLOR_0" : 2
					},
					"indices" : 3,
					"material" : 0,
					"mode" : 4
				}
			]
		}
	],
	"nodes" : [
		{
			"name" : "B357841583801063C0",
			"matrix" : [ 1, 0, 0, 0, 0, 0, -1, 0, 0, 1, 0, 0, 835785.875, 55.112998962402344, -815822.8125, 1 ],
			"children" : [ 1 ]
		},
		{
			"mesh" : 0
		}
	],
	"scenes" : [
		{
			"nodes" : [ 0 ]
		}
	],
	"scene" : 0,
	"accessors" : [
		{
			"bufferView" : 0,
			"byteOffset" : 0,
			"componentType" : 5126,
			"count" : 4179,
			"type" : "VEC3",
			"min" : [ -31.7724609375, -25.30078125, 0 ],
			"max" : [ 31.7734375, 25.30078125, 83.47899627685547 ]
		},
		{
			"bufferView" : 1,
			"byteOffset" : 0,
			"componentType" : 5126,
			"count" : 4179,
			"type" : "VEC3",
			"min" : [ -0.9999816417694092, -0.9972018003463745, -1 ],
			"max" : [ 0.9971475005149841, 0.9986315965652466, 1 ]
		},
		{
			"bufferView" : 2,
			"byteOffset" : 0,
			"componentType" : 5126,
			"count" : 4179,
			"type" : "VEC3"
		},
		{
			"bufferView" : 3,
			"byteOffset" : 0,
			"componentType" : 5123,
			"count" : 4179,
			"type" : "SCALAR",
			"min" : [ 0 ],
			"max" : [ 4178 ]
		}
	],
	"bufferViews" : [
		{
			"buffer" : 0,
			"byteOffset" : 0,
			"byteLength" : 50148,
			"target" : 34962
		},
		{
			"buffer" : 0,
			"byteOffset" : 50148,
			"byteLength" : 50148,
			"target" : 34962
		},
		{
			"buffer" : 0,
			"byteOffset" : 100296,
			"byteLength" : 50148,
			"target" : 34962
		},
		{
			"buffer" : 0,
			"byteOffset" : 150444,
			"byteLength" : 8358,
			"target" : 34963
		}
	],
	"buffers" : [
		{
			"uri" : "B357841583801063C0.bin",
			"byteLength" : 158802
		}
	]
}
