{
	"asset" : {
		"generator" : "FME 2023.1.0.0",
		"version" : "2.0"
	},
	"materials" : [
		{
			"name" : "default_material",
			"pbrMetallicRoughness" : {
				"baseColorFactor" : [ 1, 1, 1, 1 ],
				"roughnessFactor" : 0.30000000000000004,
				"metallicFactor" : 0.5
			}
		}
	],
	"meshes" : [
		{
			"primitives" : [
				{
					"attributes" : {
						"NORMAL" : 1,
						"POSITION" : 0,
						"COLOR_0" : 2
					},
					"indices" : 3,
					"material" : 0,
					"mode" : 4
				}
			]
		}
	],
	"nodes" : [
		{
			"name" : "B339411606101063C0",
			"matrix" : [ 1, 0, 0, 0, 0, 0, -1, 0, 0, 1, 0, 0, 833943.25, 12.170999526977539, -816062.9375, 1 ],
			"children" : [ 1 ]
		},
		{
			"mesh" : 0
		}
	],
	"scenes" : [
		{
			"nodes" : [ 0 ]
		}
	],
	"scene" : 0,
	"accessors" : [
		{
			"bufferView" : 0,
			"byteOffset" : 0,
			"componentType" : 5126,
			"count" : 177,
			"type" : "VEC3",
			"min" : [ -5.1875, -5.830078125, 0 ],
			"max" : [ 5.1875, 5.830078125, 24.58500099182129 ]
		},
		{
			"bufferView" : 1,
			"byteOffset" : 0,
			"componentType" : 5126,
			"count" : 177,
			"type" : "VEC3",
			"min" : [ -0.8085022568702698, -0.7508929967880249, -0.003783451160416007 ],
			"max" : [ 0.8088124394416809, 0.6941924691200256, 1 ]
		},
		{
			"bufferView" : 2,
			"byteOffset" : 0,
			"componentType" : 5126,
			"count" : 177,
			"type" : "VEC3"
		},
		{
			"bufferView" : 3,
			"byteOffset" : 0,
			"componentType" : 5121,
			"count" : 177,
			"type" : "SCALAR",
			"min" : [ 0 ],
			"max" : [ 176 ]
		}
	],
	"bufferViews" : [
		{
			"buffer" : 0,
			"byteOffset" : 0,
			"byteLength" : 2124,
			"target" : 34962
		},
		{
			"buffer" : 0,
			"byteOffset" : 2124,
			"byteLength" : 2124,
			"target" : 34962
		},
		{
			"buffer" : 0,
			"byteOffset" : 4248,
			"byteLength" : 2124,
			"target" : 34962
		},
		{
			"buffer" : 0,
			"byteOffset" : 6372,
			"byteLength" : 177,
			"target" : 34963
		}
	],
	"buffers" : [
		{
			"uri" : "B339411606101063C0.bin",
			"byteLength" : 6549
		}
	]
}
