{
	"asset" : {
		"generator" : "FME 2023.0.2.0",
		"version" : "2.0"
	},
	"images" : [
		{
			"uri" : "T30750390000106E10_001.jpg"
		},
		{
			"uri" : "T30750390000106E10_002.jpg"
		}
	],
	"samplers" : [
		{
			"wrapS" : 10497,
			"wrapT" : 10497,
			"magFilter" : 9729,
			"minFilter" : 9986
		},
		{
			"wrapS" : 10497,
			"wrapT" : 10497,
			"magFilter" : 9729,
			"minFilter" : 9986
		}
	],
	"textures" : [
		{
			"source" : 0,
			"sampler" : 0
		},
		{
			"source" : 1,
			"sampler" : 1
		}
	],
	"materials" : [
		{
			"name" : "T30750390000106E10_001",
			"pbrMetallicRoughness" : {
				"baseColorTexture" : {
					"index" : 0,
					"texCoord" : 0
				},
				"roughnessFactor" : 0.984375,
				"metallicFactor" : 0.5
			}
		},
		{
			"name" : "T30750390000106E10_002",
			"pbrMetallicRoughness" : {
				"baseColorTexture" : {
					"index" : 1,
					"texCoord" : 0
				},
				"roughnessFactor" : 0.984375,
				"metallicFactor" : 0.5
			}
		}
	],
	"meshes" : [
		{
			"primitives" : [
				{
					"attributes" : {
						"NORMAL" : 1,
						"POSITION" : 0,
						"TEXCOORD_0" : 2
					},
					"indices" : 3,
					"material" : 0,
					"mode" : 4
				},
				{
					"attributes" : {
						"NORMAL" : 5,
						"POSITION" : 4,
						"TEXCOORD_0" : 6
					},
					"indices" : 7,
					"material" : 1,
					"mode" : 4
				}
			]
		}
	],
	"nodes" : [
		{
			"name" : "T30750390000106E10",
			"matrix" : [ 1, 0, 0, 0, 0, 0, -1, 0, 0, 1, 0, 0, 831125, 5.839996337890625, -839300, 1 ],
			"children" : [ 1 ]
		},
		{
			"mesh" : 0
		}
	],
	"scenes" : [
		{
			"nodes" : [ 0 ]
		}
	],
	"scene" : 0,
	"accessors" : [
		{
			"bufferView" : 0,
			"byteOffset" : 0,
			"componentType" : 5126,
			"count" : 302130,
			"type" : "VEC3",
			"min" : [ -375, -300, 0 ],
			"max" : [ 375, 300.0000305175781, 29.450000762939453 ]
		},
		{
			"bufferView" : 1,
			"byteOffset" : 0,
			"componentType" : 5126,
			"count" : 302130,
			"type" : "VEC3",
			"min" : [ -0.9305436611175537, -0.9478936791419983, 0 ],
			"max" : [ 1, 0.8246589303016663, 1 ]
		},
		{
			"bufferView" : 2,
			"byteOffset" : 0,
			"componentType" : 5126,
			"count" : 302130,
			"type" : "VEC2",
			"min" : [ 0, 0 ],
			"max" : [ 1, 1 ]
		},
		{
			"bufferView" : 3,
			"byteOffset" : 0,
			"componentType" : 5125,
			"count" : 302130,
			"type" : "SCALAR",
			"min" : [ 0 ],
			"max" : [ 302129 ]
		},
		{
			"bufferView" : 4,
			"byteOffset" : 0,
			"componentType" : 5126,
			"count" : 63,
			"type" : "VEC3",
			"min" : [ -198.98306274414062, 188.48826599121094, 4.949667930603027 ],
			"max" : [ -168.28829956054688, 209.34039306640625, 8.855783462524414 ]
		},
		{
			"bufferView" : 5,
			"byteOffset" : 0,
			"componentType" : 5126,
			"count" : 63,
			"type" : "VEC3",
			"min" : [ -0.5909180045127869, -0.40354588627815247, 0.532656729221344 ],
			"max" : [ 0.7982028722763062, 0.8246589303016663, 0.9290327429771423 ]
		},
		{
			"bufferView" : 6,
			"byteOffset" : 0,
			"componentType" : 5126,
			"count" : 63,
			"type" : "VEC2",
			"min" : [ -2.5650291442871094, 0.10938847064971924 ],
			"max" : [ 3.2703857421875, 0.8906115293502808 ]
		},
		{
			"bufferView" : 7,
			"byteOffset" : 0,
			"componentType" : 5121,
			"count" : 63,
			"type" : "SCALAR",
			"min" : [ 0 ],
			"max" : [ 62 ]
		}
	],
	"bufferViews" : [
		{
			"buffer" : 0,
			"byteOffset" : 0,
			"byteLength" : 3625560,
			"target" : 34962
		},
		{
			"buffer" : 0,
			"byteOffset" : 3625560,
			"byteLength" : 3625560,
			"target" : 34962
		},
		{
			"buffer" : 0,
			"byteOffset" : 7251120,
			"byteLength" : 2417040,
			"target" : 34962
		},
		{
			"buffer" : 0,
			"byteOffset" : 9668160,
			"byteLength" : 1208520,
			"target" : 34963
		},
		{
			"buffer" : 0,
			"byteOffset" : 10876680,
			"byteLength" : 756,
			"target" : 34962
		},
		{
			"buffer" : 0,
			"byteOffset" : 10877436,
			"byteLength" : 756,
			"target" : 34962
		},
		{
			"buffer" : 0,
			"byteOffset" : 10878192,
			"byteLength" : 504,
			"target" : 34962
		},
		{
			"buffer" : 0,
			"byteOffset" : 10878696,
			"byteLength" : 63,
			"target" : 34963
		}
	],
	"buffers" : [
		{
			"uri" : "T30750390000106E10.bin",
			"byteLength" : 10878759
		}
	]
}
