{
	"asset" : {
		"generator" : "FME 2022.2.4.0",
		"version" : "2.0"
	},
	"materials" : [
		{
			"name" : "default_material",
			"pbrMetallicRoughness" : {
				"baseColorFactor" : [ 1, 1, 1, 1 ],
				"roughnessFactor" : 0.30000000000000004,
				"metallicFactor" : 0.5
			}
		}
	],
	"meshes" : [
		{
			"primitives" : [
				{
					"attributes" : {
						"NORMAL" : 1,
						"POSITION" : 0,
						"COLOR_0" : 2
					},
					"indices" : 3,
					"material" : 0,
					"mode" : 4
				}
			]
		}
	],
	"nodes" : [
		{
			"name" : "B330791648101063C0",
			"matrix" : [ 1, 0, 0, 0, 0, 0, -1, 0, 0, 1, 0, 0, 833081.625, 3.499000072479248, -816484, 1 ],
			"children" : [ 1 ]
		},
		{
			"mesh" : 0
		}
	],
	"scenes" : [
		{
			"nodes" : [ 0 ]
		}
	],
	"scene" : 0,
	"accessors" : [
		{
			"bufferView" : 0,
			"byteOffset" : 0,
			"componentType" : 5126,
			"count" : 5568,
			"type" : "VEC3",
			"min" : [ -16.880859375, -16.16015625, 0 ],
			"max" : [ 16.88134765625, 16.16015625, 61.467002868652344 ]
		},
		{
			"bufferView" : 1,
			"byteOffset" : 0,
			"componentType" : 5126,
			"count" : 5568,
			"type" : "VEC3",
			"min" : [ -0.9993628859519958, -0.999727725982666, -1 ],
			"max" : [ 0.9985217452049255, 0.9998395442962646, 1 ]
		},
		{
			"bufferView" : 2,
			"byteOffset" : 0,
			"componentType" : 5126,
			"count" : 5568,
			"type" : "VEC3"
		},
		{
			"bufferView" : 3,
			"byteOffset" : 0,
			"componentType" : 5123,
			"count" : 5568,
			"type" : "SCALAR",
			"min" : [ 0 ],
			"max" : [ 5567 ]
		}
	],
	"bufferViews" : [
		{
			"buffer" : 0,
			"byteOffset" : 0,
			"byteLength" : 66816,
			"target" : 34962
		},
		{
			"buffer" : 0,
			"byteOffset" : 66816,
			"byteLength" : 66816,
			"target" : 34962
		},
		{
			"buffer" : 0,
			"byteOffset" : 133632,
			"byteLength" : 66816,
			"target" : 34962
		},
		{
			"buffer" : 0,
			"byteOffset" : 200448,
			"byteLength" : 11136,
			"target" : 34963
		}
	],
	"buffers" : [
		{
			"uri" : "B330791648101063C0.bin",
			"byteLength" : 211584
		}
	]
}
