{
	"asset" : {
		"generator" : "FME 2022.2.4.0",
		"version" : "2.0"
	},
	"materials" : [
		{
			"name" : "default_material",
			"pbrMetallicRoughness" : {
				"baseColorFactor" : [ 1, 1, 1, 1 ],
				"roughnessFactor" : 0.30000000000000004,
				"metallicFactor" : 0.5
			}
		}
	],
	"meshes" : [
		{
			"primitives" : [
				{
					"attributes" : {
						"NORMAL" : 1,
						"POSITION" : 0,
						"COLOR_0" : 2
					},
					"indices" : 3,
					"material" : 0,
					"mode" : 4
				}
			]
		}
	],
	"nodes" : [
		{
			"name" : "B359711522602063C0",
			"matrix" : [ 1, 0, 0, 0, 0, 0, -1, 0, 0, 1, 0, 0, 835967.125, 4.170000076293945, -815226.1875, 1 ],
			"children" : [ 1 ]
		},
		{
			"mesh" : 0
		}
	],
	"scenes" : [
		{
			"nodes" : [ 0 ]
		}
	],
	"scene" : 0,
	"accessors" : [
		{
			"bufferView" : 0,
			"byteOffset" : 0,
			"componentType" : 5126,
			"count" : 675,
			"type" : "VEC3",
			"min" : [ -8.7216796875, -7.8818359375, 0 ],
			"max" : [ 8.72265625, 7.8828125, 8.571999549865723 ]
		},
		{
			"bufferView" : 1,
			"byteOffset" : 0,
			"componentType" : 5126,
			"count" : 675,
			"type" : "VEC3",
			"min" : [ -0.9956868290901184, -0.995642364025116, -1 ],
			"max" : [ 0.9996452927589417, 0.9988213777542114, 1 ]
		},
		{
			"bufferView" : 2,
			"byteOffset" : 0,
			"componentType" : 5126,
			"count" : 675,
			"type" : "VEC3"
		},
		{
			"bufferView" : 3,
			"byteOffset" : 0,
			"componentType" : 5123,
			"count" : 675,
			"type" : "SCALAR",
			"min" : [ 0 ],
			"max" : [ 674 ]
		}
	],
	"bufferViews" : [
		{
			"buffer" : 0,
			"byteOffset" : 0,
			"byteLength" : 8100,
			"target" : 34962
		},
		{
			"buffer" : 0,
			"byteOffset" : 8100,
			"byteLength" : 8100,
			"target" : 34962
		},
		{
			"buffer" : 0,
			"byteOffset" : 16200,
			"byteLength" : 8100,
			"target" : 34962
		},
		{
			"buffer" : 0,
			"byteOffset" : 24300,
			"byteLength" : 1350,
			"target" : 34963
		}
	],
	"buffers" : [
		{
			"uri" : "B359711522602063C0.bin",
			"byteLength" : 25650
		}
	]
}
