{
	"asset" : {
		"generator" : "FME 2023.1.0.0",
		"version" : "2.0"
	},
	"materials" : [
		{
			"name" : "default_material",
			"pbrMetallicRoughness" : {
				"baseColorFactor" : [ 1, 1, 1, 1 ],
				"roughnessFactor" : 0.30000000000000004,
				"metallicFactor" : 0.5
			}
		}
	],
	"meshes" : [
		{
			"primitives" : [
				{
					"attributes" : {
						"NORMAL" : 1,
						"POSITION" : 0,
						"COLOR_0" : 2
					},
					"indices" : 3,
					"material" : 0,
					"mode" : 4
				}
			]
		}
	],
	"nodes" : [
		{
			"name" : "B358461549701063C0",
			"matrix" : [ 1, 0, 0, 0, 0, 0, -1, 0, 0, 1, 0, 0, 835848.75, 3.822999954223633, -815494.9375, 1 ],
			"children" : [ 1 ]
		},
		{
			"mesh" : 0
		}
	],
	"scenes" : [
		{
			"nodes" : [ 0 ]
		}
	],
	"scene" : 0,
	"accessors" : [
		{
			"bufferView" : 0,
			"byteOffset" : 0,
			"componentType" : 5126,
			"count" : 1140,
			"type" : "VEC3",
			"min" : [ -8.5615234375, -10.216796875, 0 ],
			"max" : [ 8.5615234375, 10.216796875, 37.67900085449219 ]
		},
		{
			"bufferView" : 1,
			"byteOffset" : 0,
			"componentType" : 5126,
			"count" : 1140,
			"type" : "VEC3",
			"min" : [ -0.9949898719787598, -0.9943786859512329, -1 ],
			"max" : [ 0.9947572350502014, 0.9947460293769836, 1 ]
		},
		{
			"bufferView" : 2,
			"byteOffset" : 0,
			"componentType" : 5126,
			"count" : 1140,
			"type" : "VEC3"
		},
		{
			"bufferView" : 3,
			"byteOffset" : 0,
			"componentType" : 5123,
			"count" : 1140,
			"type" : "SCALAR",
			"min" : [ 0 ],
			"max" : [ 1139 ]
		}
	],
	"bufferViews" : [
		{
			"buffer" : 0,
			"byteOffset" : 0,
			"byteLength" : 13680,
			"target" : 34962
		},
		{
			"buffer" : 0,
			"byteOffset" : 13680,
			"byteLength" : 13680,
			"target" : 34962
		},
		{
			"buffer" : 0,
			"byteOffset" : 27360,
			"byteLength" : 13680,
			"target" : 34962
		},
		{
			"buffer" : 0,
			"byteOffset" : 41040,
			"byteLength" : 2280,
			"target" : 34963
		}
	],
	"buffers" : [
		{
			"uri" : "B358461549701063C0.bin",
			"byteLength" : 43320
		}
	]
}
