{
	"asset" : {
		"generator" : "FME 2023.2.1.0",
		"version" : "2.0"
	},
	"materials" : [
		{
			"name" : "default_material",
			"pbrMetallicRoughness" : {
				"baseColorFactor" : [ 1, 1, 1, 1 ],
				"roughnessFactor" : 0.30000000000000004,
				"metallicFactor" : 0.5
			}
		}
	],
	"meshes" : [
		{
			"primitives" : [
				{
					"attributes" : {
						"NORMAL" : 1,
						"POSITION" : 0,
						"COLOR_0" : 2
					},
					"indices" : 3,
					"material" : 0,
					"mode" : 4
				}
			]
		}
	],
	"nodes" : [
		{
			"name" : "B356081524101063C0",
			"matrix" : [ 1, 0, 0, 0, 0, 0, -1, 0, 0, 1, 0, 0, 835610.0625, 12.73900032043457, -815240.3125, 1 ],
			"children" : [ 1 ]
		},
		{
			"mesh" : 0
		}
	],
	"scenes" : [
		{
			"nodes" : [ 0 ]
		}
	],
	"scene" : 0,
	"accessors" : [
		{
			"bufferView" : 0,
			"byteOffset" : 0,
			"componentType" : 5126,
			"count" : 1080,
			"type" : "VEC3",
			"min" : [ -7.11328125, -7.3671875, 0 ],
			"max" : [ 7.11328125, 7.3681640625, 67.69200134277344 ]
		},
		{
			"bufferView" : 1,
			"byteOffset" : 0,
			"componentType" : 5126,
			"count" : 1080,
			"type" : "VEC3",
			"min" : [ -0.8240419626235962, -0.8218991756439209, -1 ],
			"max" : [ 0.8211790323257446, 0.8193441033363342, 1 ]
		},
		{
			"bufferView" : 2,
			"byteOffset" : 0,
			"componentType" : 5126,
			"count" : 1080,
			"type" : "VEC3"
		},
		{
			"bufferView" : 3,
			"byteOffset" : 0,
			"componentType" : 5123,
			"count" : 1080,
			"type" : "SCALAR",
			"min" : [ 0 ],
			"max" : [ 1079 ]
		}
	],
	"bufferViews" : [
		{
			"buffer" : 0,
			"byteOffset" : 0,
			"byteLength" : 12960,
			"target" : 34962
		},
		{
			"buffer" : 0,
			"byteOffset" : 12960,
			"byteLength" : 12960,
			"target" : 34962
		},
		{
			"buffer" : 0,
			"byteOffset" : 25920,
			"byteLength" : 12960,
			"target" : 34962
		},
		{
			"buffer" : 0,
			"byteOffset" : 38880,
			"byteLength" : 2160,
			"target" : 34963
		}
	],
	"buffers" : [
		{
			"uri" : "B356081524101063C0.bin",
			"byteLength" : 41040
		}
	]
}
