{
	"asset" : {
		"generator" : "FME 2023.1.0.0",
		"version" : "2.0"
	},
	"materials" : [
		{
			"name" : "default_material",
			"pbrMetallicRoughness" : {
				"baseColorFactor" : [ 1, 1, 1, 1 ],
				"roughnessFactor" : 0.30000000000000004,
				"metallicFactor" : 0.5
			}
		}
	],
	"meshes" : [
		{
			"primitives" : [
				{
					"attributes" : {
						"NORMAL" : 1,
						"POSITION" : 0,
						"COLOR_0" : 2
					},
					"indices" : 3,
					"material" : 0,
					"mode" : 4
				}
			]
		}
	],
	"nodes" : [
		{
			"name" : "B353641523601063C0",
			"matrix" : [ 1, 0, 0, 0, 0, 0, -1, 0, 0, 1, 0, 0, 835360.75, 16.441999435424805, -815237.375, 1 ],
			"children" : [ 1 ]
		},
		{
			"mesh" : 0
		}
	],
	"scenes" : [
		{
			"nodes" : [ 0 ]
		}
	],
	"scene" : 0,
	"accessors" : [
		{
			"bufferView" : 0,
			"byteOffset" : 0,
			"componentType" : 5126,
			"count" : 1071,
			"type" : "VEC3",
			"min" : [ -12.5791015625, -14.8857421875, 0 ],
			"max" : [ 12.5791015625, 14.88671875, 77.92399597167969 ]
		},
		{
			"bufferView" : 1,
			"byteOffset" : 0,
			"componentType" : 5126,
			"count" : 1071,
			"type" : "VEC3",
			"min" : [ -0.8316870331764221, -0.8194045424461365, -0.020285269245505333 ],
			"max" : [ 0.8328773975372314, 0.8330502510070801, 1 ]
		},
		{
			"bufferView" : 2,
			"byteOffset" : 0,
			"componentType" : 5126,
			"count" : 1071,
			"type" : "VEC3"
		},
		{
			"bufferView" : 3,
			"byteOffset" : 0,
			"componentType" : 5123,
			"count" : 1071,
			"type" : "SCALAR",
			"min" : [ 0 ],
			"max" : [ 1070 ]
		}
	],
	"bufferViews" : [
		{
			"buffer" : 0,
			"byteOffset" : 0,
			"byteLength" : 12852,
			"target" : 34962
		},
		{
			"buffer" : 0,
			"byteOffset" : 12852,
			"byteLength" : 12852,
			"target" : 34962
		},
		{
			"buffer" : 0,
			"byteOffset" : 25704,
			"byteLength" : 12852,
			"target" : 34962
		},
		{
			"buffer" : 0,
			"byteOffset" : 38556,
			"byteLength" : 2142,
			"target" : 34963
		}
	],
	"buffers" : [
		{
			"uri" : "B353641523601063C0.bin",
			"byteLength" : 40698
		}
	]
}
