{
	"asset" : {
		"generator" : "FME 2023.2.1.0",
		"version" : "2.0"
	},
	"materials" : [
		{
			"name" : "default_material",
			"pbrMetallicRoughness" : {
				"baseColorFactor" : [ 1, 1, 1, 1 ],
				"roughnessFactor" : 0.30000000000000004,
				"metallicFactor" : 0.5
			}
		}
	],
	"meshes" : [
		{
			"primitives" : [
				{
					"attributes" : {
						"NORMAL" : 1,
						"POSITION" : 0,
						"COLOR_0" : 2
					},
					"indices" : 3,
					"material" : 0,
					"mode" : 4
				}
			]
		}
	],
	"nodes" : [
		{
			"name" : "B359831503301063C0",
			"matrix" : [ 1, 0, 0, 0, 0, 0, -1, 0, 0, 1, 0, 0, 835987.875, 8.595000267028809, -815029.75, 1 ],
			"children" : [ 1 ]
		},
		{
			"mesh" : 0
		}
	],
	"scenes" : [
		{
			"nodes" : [ 0 ]
		}
	],
	"scene" : 0,
	"accessors" : [
		{
			"bufferView" : 0,
			"byteOffset" : 0,
			"componentType" : 5126,
			"count" : 1575,
			"type" : "VEC3",
			"min" : [ -9.6015625, -7.7890625, 0 ],
			"max" : [ 9.6025390625, 7.7890625, 25.368003845214844 ]
		},
		{
			"bufferView" : 1,
			"byteOffset" : 0,
			"componentType" : 5126,
			"count" : 1575,
			"type" : "VEC3",
			"min" : [ -0.9999968409538269, -1, -1 ],
			"max" : [ 1, 1, 1 ]
		},
		{
			"bufferView" : 2,
			"byteOffset" : 0,
			"componentType" : 5126,
			"count" : 1575,
			"type" : "VEC3"
		},
		{
			"bufferView" : 3,
			"byteOffset" : 0,
			"componentType" : 5123,
			"count" : 1575,
			"type" : "SCALAR",
			"min" : [ 0 ],
			"max" : [ 1574 ]
		}
	],
	"bufferViews" : [
		{
			"buffer" : 0,
			"byteOffset" : 0,
			"byteLength" : 18900,
			"target" : 34962
		},
		{
			"buffer" : 0,
			"byteOffset" : 18900,
			"byteLength" : 18900,
			"target" : 34962
		},
		{
			"buffer" : 0,
			"byteOffset" : 37800,
			"byteLength" : 18900,
			"target" : 34962
		},
		{
			"buffer" : 0,
			"byteOffset" : 56700,
			"byteLength" : 3150,
			"target" : 34963
		}
	],
	"buffers" : [
		{
			"uri" : "B359831503301063C0.bin",
			"byteLength" : 59850
		}
	]
}
