{
	"asset" : {
		"generator" : "FME 2023.1.0.0",
		"version" : "2.0"
	},
	"materials" : [
		{
			"name" : "default_material",
			"pbrMetallicRoughness" : {
				"baseColorFactor" : [ 1, 1, 1, 1 ],
				"roughnessFactor" : 0.30000000000000004,
				"metallicFactor" : 0.5
			}
		}
	],
	"meshes" : [
		{
			"primitives" : [
				{
					"attributes" : {
						"NORMAL" : 1,
						"POSITION" : 0,
						"COLOR_0" : 2
					},
					"indices" : 3,
					"material" : 0,
					"mode" : 4
				}
			]
		}
	],
	"nodes" : [
		{
			"name" : "B340601527101063C0",
			"matrix" : [ 1, 0, 0, 0, 0, 0, -1, 0, 0, 1, 0, 0, 834061.4375, 84.85900115966797, -815271, 1 ],
			"children" : [ 1 ]
		},
		{
			"mesh" : 0
		}
	],
	"scenes" : [
		{
			"nodes" : [ 0 ]
		}
	],
	"scene" : 0,
	"accessors" : [
		{
			"bufferView" : 0,
			"byteOffset" : 0,
			"componentType" : 5126,
			"count" : 318,
			"type" : "VEC3",
			"min" : [ -5.2939453125, -4.787109375, 0 ],
			"max" : [ 5.2939453125, 4.7880859375, 8.093002319335938 ]
		},
		{
			"bufferView" : 1,
			"byteOffset" : 0,
			"componentType" : 5126,
			"count" : 318,
			"type" : "VEC3",
			"min" : [ -0.9782492518424988, -0.9545964002609253, 0 ],
			"max" : [ 0.9999960064888, 0.9740322828292847, 1 ]
		},
		{
			"bufferView" : 2,
			"byteOffset" : 0,
			"componentType" : 5126,
			"count" : 318,
			"type" : "VEC3"
		},
		{
			"bufferView" : 3,
			"byteOffset" : 0,
			"componentType" : 5123,
			"count" : 318,
			"type" : "SCALAR",
			"min" : [ 0 ],
			"max" : [ 317 ]
		}
	],
	"bufferViews" : [
		{
			"buffer" : 0,
			"byteOffset" : 0,
			"byteLength" : 3816,
			"target" : 34962
		},
		{
			"buffer" : 0,
			"byteOffset" : 3816,
			"byteLength" : 3816,
			"target" : 34962
		},
		{
			"buffer" : 0,
			"byteOffset" : 7632,
			"byteLength" : 3816,
			"target" : 34962
		},
		{
			"buffer" : 0,
			"byteOffset" : 11448,
			"byteLength" : 636,
			"target" : 34963
		}
	],
	"buffers" : [
		{
			"uri" : "B340601527101063C0.bin",
			"byteLength" : 12084
		}
	]
}
