{
	"asset" : {
		"generator" : "FME 2023.1.0.0",
		"version" : "2.0"
	},
	"materials" : [
		{
			"name" : "default_material",
			"pbrMetallicRoughness" : {
				"baseColorFactor" : [ 1, 1, 1, 1 ],
				"roughnessFactor" : 0.30000000000000004,
				"metallicFactor" : 0.5
			}
		}
	],
	"meshes" : [
		{
			"primitives" : [
				{
					"attributes" : {
						"NORMAL" : 1,
						"POSITION" : 0,
						"COLOR_0" : 2
					},
					"indices" : 3,
					"material" : 0,
					"mode" : 4
				}
			]
		}
	],
	"nodes" : [
		{
			"name" : "B338301575401063C0",
			"matrix" : [ 1, 0, 0, 0, 0, 0, -1, 0, 0, 1, 0, 0, 833830.4375, 68.18099975585938, -815750.375, 1 ],
			"children" : [ 1 ]
		},
		{
			"mesh" : 0
		}
	],
	"scenes" : [
		{
			"nodes" : [ 0 ]
		}
	],
	"scene" : 0,
	"accessors" : [
		{
			"bufferView" : 0,
			"byteOffset" : 0,
			"componentType" : 5126,
			"count" : 1005,
			"type" : "VEC3",
			"min" : [ -10.181640625, -8.9716796875, 0 ],
			"max" : [ 10.1826171875, 8.97265625, 75.69099426269531 ]
		},
		{
			"bufferView" : 1,
			"byteOffset" : 0,
			"componentType" : 5126,
			"count" : 1005,
			"type" : "VEC3",
			"min" : [ -0.9015465974807739, -0.8786244988441467, -1 ],
			"max" : [ 0.9733259677886963, 0.8793227672576904, 1 ]
		},
		{
			"bufferView" : 2,
			"byteOffset" : 0,
			"componentType" : 5126,
			"count" : 1005,
			"type" : "VEC3"
		},
		{
			"bufferView" : 3,
			"byteOffset" : 0,
			"componentType" : 5123,
			"count" : 1005,
			"type" : "SCALAR",
			"min" : [ 0 ],
			"max" : [ 1004 ]
		}
	],
	"bufferViews" : [
		{
			"buffer" : 0,
			"byteOffset" : 0,
			"byteLength" : 12060,
			"target" : 34962
		},
		{
			"buffer" : 0,
			"byteOffset" : 12060,
			"byteLength" : 12060,
			"target" : 34962
		},
		{
			"buffer" : 0,
			"byteOffset" : 24120,
			"byteLength" : 12060,
			"target" : 34962
		},
		{
			"buffer" : 0,
			"byteOffset" : 36180,
			"byteLength" : 2010,
			"target" : 34963
		}
	],
	"buffers" : [
		{
			"uri" : "B338301575401063C0.bin",
			"byteLength" : 38190
		}
	]
}
