{
	"asset" : {
		"generator" : "FME 2023.1.0.0",
		"version" : "2.0"
	},
	"materials" : [
		{
			"name" : "default_material",
			"pbrMetallicRoughness" : {
				"baseColorFactor" : [ 1, 1, 1, 1 ],
				"roughnessFactor" : 0.30000000000000004,
				"metallicFactor" : 0.5
			}
		}
	],
	"meshes" : [
		{
			"primitives" : [
				{
					"attributes" : {
						"NORMAL" : 1,
						"POSITION" : 0,
						"COLOR_0" : 2
					},
					"indices" : 3,
					"material" : 0,
					"mode" : 4
				}
			]
		}
	],
	"nodes" : [
		{
			"name" : "B335941633901063C0",
			"matrix" : [ 1, 0, 0, 0, 0, 0, -1, 0, 0, 1, 0, 0, 833590.9375, 2.9040000438690186, -816330.4375, 1 ],
			"children" : [ 1 ]
		},
		{
			"mesh" : 0
		}
	],
	"scenes" : [
		{
			"nodes" : [ 0 ]
		}
	],
	"scene" : 0,
	"accessors" : [
		{
			"bufferView" : 0,
			"byteOffset" : 0,
			"componentType" : 5126,
			"count" : 618,
			"type" : "VEC3",
			"min" : [ -8.5087890625, -11.0546875, 0 ],
			"max" : [ 8.5087890625, 11.0546875, 23.527999877929688 ]
		},
		{
			"bufferView" : 1,
			"byteOffset" : 0,
			"componentType" : 5126,
			"count" : 618,
			"type" : "VEC3",
			"min" : [ -0.8635162115097046, -0.8404638171195984, -1 ],
			"max" : [ 0.8436244130134583, 0.9657548666000366, 1 ]
		},
		{
			"bufferView" : 2,
			"byteOffset" : 0,
			"componentType" : 5126,
			"count" : 618,
			"type" : "VEC3"
		},
		{
			"bufferView" : 3,
			"byteOffset" : 0,
			"componentType" : 5123,
			"count" : 618,
			"type" : "SCALAR",
			"min" : [ 0 ],
			"max" : [ 617 ]
		}
	],
	"bufferViews" : [
		{
			"buffer" : 0,
			"byteOffset" : 0,
			"byteLength" : 7416,
			"target" : 34962
		},
		{
			"buffer" : 0,
			"byteOffset" : 7416,
			"byteLength" : 7416,
			"target" : 34962
		},
		{
			"buffer" : 0,
			"byteOffset" : 14832,
			"byteLength" : 7416,
			"target" : 34962
		},
		{
			"buffer" : 0,
			"byteOffset" : 22248,
			"byteLength" : 1236,
			"target" : 34963
		}
	],
	"buffers" : [
		{
			"uri" : "B335941633901063C0.bin",
			"byteLength" : 23484
		}
	]
}
