{
	"asset" : {
		"generator" : "FME 2023.1.0.0",
		"version" : "2.0"
	},
	"materials" : [
		{
			"name" : "default_material",
			"pbrMetallicRoughness" : {
				"baseColorFactor" : [ 1, 1, 1, 1 ],
				"roughnessFactor" : 0.30000000000000004,
				"metallicFactor" : 0.5
			}
		}
	],
	"meshes" : [
		{
			"primitives" : [
				{
					"attributes" : {
						"NORMAL" : 1,
						"POSITION" : 0,
						"COLOR_0" : 2
					},
					"indices" : 3,
					"material" : 0,
					"mode" : 4
				}
			]
		}
	],
	"nodes" : [
		{
			"name" : "B344201571001063C0",
			"matrix" : [ 1, 0, 0, 0, 0, 0, -1, 0, 0, 1, 0, 0, 834427.9375, 18.786762237548828, -815729.625, 1 ],
			"children" : [ 1 ]
		},
		{
			"mesh" : 0
		}
	],
	"scenes" : [
		{
			"nodes" : [ 0 ]
		}
	],
	"scene" : 0,
	"accessors" : [
		{
			"bufferView" : 0,
			"byteOffset" : 0,
			"componentType" : 5126,
			"count" : 5226,
			"type" : "VEC3",
			"min" : [ -16.3251953125, -28.0927734375, 0 ],
			"max" : [ 16.30078125, 28.1533203125, 172.1932373046875 ]
		},
		{
			"bufferView" : 1,
			"byteOffset" : 0,
			"componentType" : 5126,
			"count" : 5226,
			"type" : "VEC3",
			"min" : [ -0.9937118887901306, -0.9741682410240173, -1 ],
			"max" : [ 1, 0.975000262260437, 1 ]
		},
		{
			"bufferView" : 2,
			"byteOffset" : 0,
			"componentType" : 5126,
			"count" : 5226,
			"type" : "VEC3"
		},
		{
			"bufferView" : 3,
			"byteOffset" : 0,
			"componentType" : 5123,
			"count" : 5226,
			"type" : "SCALAR",
			"min" : [ 0 ],
			"max" : [ 5225 ]
		}
	],
	"bufferViews" : [
		{
			"buffer" : 0,
			"byteOffset" : 0,
			"byteLength" : 62712,
			"target" : 34962
		},
		{
			"buffer" : 0,
			"byteOffset" : 62712,
			"byteLength" : 62712,
			"target" : 34962
		},
		{
			"buffer" : 0,
			"byteOffset" : 125424,
			"byteLength" : 62712,
			"target" : 34962
		},
		{
			"buffer" : 0,
			"byteOffset" : 188136,
			"byteLength" : 10452,
			"target" : 34963
		}
	],
	"buffers" : [
		{
			"uri" : "B344201571001063C0.bin",
			"byteLength" : 198588
		}
	]
}
