{
	"asset" : {
		"generator" : "FME 2023.2.1.0",
		"version" : "2.0"
	},
	"materials" : [
		{
			"name" : "default_material",
			"pbrMetallicRoughness" : {
				"baseColorFactor" : [ 1, 1, 1, 1 ],
				"roughnessFactor" : 0.30000000000000004,
				"metallicFactor" : 0.5
			}
		}
	],
	"meshes" : [
		{
			"primitives" : [
				{
					"attributes" : {
						"NORMAL" : 1,
						"POSITION" : 0,
						"COLOR_0" : 2
					},
					"indices" : 3,
					"material" : 0,
					"mode" : 4
				}
			]
		}
	],
	"nodes" : [
		{
			"name" : "B345781523901063C0",
			"matrix" : [ 1, 0, 0, 0, 0, 0, -1, 0, 0, 1, 0, 0, 834576.75, 56.821998596191406, -815234.5, 1 ],
			"children" : [ 1 ]
		},
		{
			"mesh" : 0
		}
	],
	"scenes" : [
		{
			"nodes" : [ 0 ]
		}
	],
	"scene" : 0,
	"accessors" : [
		{
			"bufferView" : 0,
			"byteOffset" : 0,
			"componentType" : 5126,
			"count" : 399,
			"type" : "VEC3",
			"min" : [ -7.095703125, -8.47265625, 0 ],
			"max" : [ 7.0966796875, 8.4716796875, 35.53300476074219 ]
		},
		{
			"bufferView" : 1,
			"byteOffset" : 0,
			"componentType" : 5126,
			"count" : 399,
			"type" : "VEC3",
			"min" : [ -0.8123770952224731, -0.8114895224571228, -1 ],
			"max" : [ 0.8115816116333008, 0.8114266991615295, 1 ]
		},
		{
			"bufferView" : 2,
			"byteOffset" : 0,
			"componentType" : 5126,
			"count" : 399,
			"type" : "VEC3"
		},
		{
			"bufferView" : 3,
			"byteOffset" : 0,
			"componentType" : 5123,
			"count" : 399,
			"type" : "SCALAR",
			"min" : [ 0 ],
			"max" : [ 398 ]
		}
	],
	"bufferViews" : [
		{
			"buffer" : 0,
			"byteOffset" : 0,
			"byteLength" : 4788,
			"target" : 34962
		},
		{
			"buffer" : 0,
			"byteOffset" : 4788,
			"byteLength" : 4788,
			"target" : 34962
		},
		{
			"buffer" : 0,
			"byteOffset" : 9576,
			"byteLength" : 4788,
			"target" : 34962
		},
		{
			"buffer" : 0,
			"byteOffset" : 14364,
			"byteLength" : 798,
			"target" : 34963
		}
	],
	"buffers" : [
		{
			"uri" : "B345781523901063C0.bin",
			"byteLength" : 15162
		}
	]
}
