{
	"asset" : {
		"generator" : "FME 2022.2.4.0",
		"version" : "2.0"
	},
	"materials" : [
		{
			"name" : "default_material",
			"pbrMetallicRoughness" : {
				"baseColorFactor" : [ 1, 1, 1, 1 ],
				"roughnessFactor" : 0.30000000000000004,
				"metallicFactor" : 0.5
			}
		}
	],
	"meshes" : [
		{
			"primitives" : [
				{
					"attributes" : {
						"NORMAL" : 1,
						"POSITION" : 0,
						"COLOR_0" : 2
					},
					"indices" : 3,
					"material" : 0,
					"mode" : 4
				}
			]
		}
	],
	"nodes" : [
		{
			"name" : "B356321518201063C0",
			"matrix" : [ 1, 0, 0, 0, 0, 0, -1, 0, 0, 1, 0, 0, 835633.375, 5.459000110626221, -815182.8125, 1 ],
			"children" : [ 1 ]
		},
		{
			"mesh" : 0
		}
	],
	"scenes" : [
		{
			"nodes" : [ 0 ]
		}
	],
	"scene" : 0,
	"accessors" : [
		{
			"bufferView" : 0,
			"byteOffset" : 0,
			"componentType" : 5126,
			"count" : 708,
			"type" : "VEC3",
			"min" : [ -7.205078125, -7.755859375, 0 ],
			"max" : [ 7.205078125, 7.755859375, 22.42300033569336 ]
		},
		{
			"bufferView" : 1,
			"byteOffset" : 0,
			"componentType" : 5126,
			"count" : 708,
			"type" : "VEC3",
			"min" : [ -0.8540530204772949, -0.8589470386505127, -1 ],
			"max" : [ 0.8682431578636169, 0.8540583848953247, 1 ]
		},
		{
			"bufferView" : 2,
			"byteOffset" : 0,
			"componentType" : 5126,
			"count" : 708,
			"type" : "VEC3"
		},
		{
			"bufferView" : 3,
			"byteOffset" : 0,
			"componentType" : 5123,
			"count" : 708,
			"type" : "SCALAR",
			"min" : [ 0 ],
			"max" : [ 707 ]
		}
	],
	"bufferViews" : [
		{
			"buffer" : 0,
			"byteOffset" : 0,
			"byteLength" : 8496,
			"target" : 34962
		},
		{
			"buffer" : 0,
			"byteOffset" : 8496,
			"byteLength" : 8496,
			"target" : 34962
		},
		{
			"buffer" : 0,
			"byteOffset" : 16992,
			"byteLength" : 8496,
			"target" : 34962
		},
		{
			"buffer" : 0,
			"byteOffset" : 25488,
			"byteLength" : 1416,
			"target" : 34963
		}
	],
	"buffers" : [
		{
			"uri" : "B356321518201063C0.bin",
			"byteLength" : 26904
		}
	]
}
