{
	"asset" : {
		"generator" : "FME 2023.2.1.0",
		"version" : "2.0"
	},
	"materials" : [
		{
			"name" : "default_material",
			"pbrMetallicRoughness" : {
				"baseColorFactor" : [ 1, 1, 1, 1 ],
				"roughnessFactor" : 0.30000000000000004,
				"metallicFactor" : 0.5
			}
		}
	],
	"meshes" : [
		{
			"primitives" : [
				{
					"attributes" : {
						"NORMAL" : 1,
						"POSITION" : 0,
						"COLOR_0" : 2
					},
					"indices" : 3,
					"material" : 0,
					"mode" : 4
				}
			]
		}
	],
	"nodes" : [
		{
			"name" : "B333301638601063C0",
			"matrix" : [ 1, 0, 0, 0, 0, 0, -1, 0, 0, 1, 0, 0, 833322.875, 20.150999069213867, -816374.875, 1 ],
			"children" : [ 1 ]
		},
		{
			"mesh" : 0
		}
	],
	"scenes" : [
		{
			"nodes" : [ 0 ]
		}
	],
	"scene" : 0,
	"accessors" : [
		{
			"bufferView" : 0,
			"byteOffset" : 0,
			"componentType" : 5126,
			"count" : 2406,
			"type" : "VEC3",
			"min" : [ -20.7138671875, -20.8271484375, 0 ],
			"max" : [ 20.71484375, 20.828125, 79.82000732421875 ]
		},
		{
			"bufferView" : 1,
			"byteOffset" : 0,
			"componentType" : 5126,
			"count" : 2406,
			"type" : "VEC3",
			"min" : [ -0.9990758299827576, -0.9699093103408813, -1 ],
			"max" : [ 0.8837879300117493, 0.9890232086181641, 1 ]
		},
		{
			"bufferView" : 2,
			"byteOffset" : 0,
			"componentType" : 5126,
			"count" : 2406,
			"type" : "VEC3"
		},
		{
			"bufferView" : 3,
			"byteOffset" : 0,
			"componentType" : 5123,
			"count" : 2406,
			"type" : "SCALAR",
			"min" : [ 0 ],
			"max" : [ 2405 ]
		}
	],
	"bufferViews" : [
		{
			"buffer" : 0,
			"byteOffset" : 0,
			"byteLength" : 28872,
			"target" : 34962
		},
		{
			"buffer" : 0,
			"byteOffset" : 28872,
			"byteLength" : 28872,
			"target" : 34962
		},
		{
			"buffer" : 0,
			"byteOffset" : 57744,
			"byteLength" : 28872,
			"target" : 34962
		},
		{
			"buffer" : 0,
			"byteOffset" : 86616,
			"byteLength" : 4812,
			"target" : 34963
		}
	],
	"buffers" : [
		{
			"uri" : "B333301638601063C0.bin",
			"byteLength" : 91428
		}
	]
}
