{
	"asset" : {
		"generator" : "FME 2023.2.1.0",
		"version" : "2.0"
	},
	"materials" : [
		{
			"name" : "default_material",
			"pbrMetallicRoughness" : {
				"baseColorFactor" : [ 1, 1, 1, 1 ],
				"roughnessFactor" : 0.30000000000000004,
				"metallicFactor" : 0.5
			}
		}
	],
	"meshes" : [
		{
			"primitives" : [
				{
					"attributes" : {
						"NORMAL" : 1,
						"POSITION" : 0,
						"COLOR_0" : 2
					},
					"indices" : 3,
					"material" : 0,
					"mode" : 4
				}
			]
		}
	],
	"nodes" : [
		{
			"name" : "B333041508601063C0",
			"matrix" : [ 1, 0, 0, 0, 0, 0, -1, 0, 0, 1, 0, 0, 833304.4375, 452.6000061035156, -815089.1875, 1 ],
			"children" : [ 1 ]
		},
		{
			"mesh" : 0
		}
	],
	"scenes" : [
		{
			"nodes" : [ 0 ]
		}
	],
	"scene" : 0,
	"accessors" : [
		{
			"bufferView" : 0,
			"byteOffset" : 0,
			"componentType" : 5126,
			"count" : 1425,
			"type" : "VEC3",
			"min" : [ -10.9482421875, -13.0556640625, 0 ],
			"max" : [ 10.9072265625, 13.0322265625, 8.6669921875 ]
		},
		{
			"bufferView" : 1,
			"byteOffset" : 0,
			"componentType" : 5126,
			"count" : 1425,
			"type" : "VEC3",
			"min" : [ -1, -0.9999659657478333, -1 ],
			"max" : [ 1, 0.9998559355735779, 1 ]
		},
		{
			"bufferView" : 2,
			"byteOffset" : 0,
			"componentType" : 5126,
			"count" : 1425,
			"type" : "VEC3"
		},
		{
			"bufferView" : 3,
			"byteOffset" : 0,
			"componentType" : 5123,
			"count" : 1425,
			"type" : "SCALAR",
			"min" : [ 0 ],
			"max" : [ 1424 ]
		}
	],
	"bufferViews" : [
		{
			"buffer" : 0,
			"byteOffset" : 0,
			"byteLength" : 17100,
			"target" : 34962
		},
		{
			"buffer" : 0,
			"byteOffset" : 17100,
			"byteLength" : 17100,
			"target" : 34962
		},
		{
			"buffer" : 0,
			"byteOffset" : 34200,
			"byteLength" : 17100,
			"target" : 34962
		},
		{
			"buffer" : 0,
			"byteOffset" : 51300,
			"byteLength" : 2850,
			"target" : 34963
		}
	],
	"buffers" : [
		{
			"uri" : "B333041508601063C0.bin",
			"byteLength" : 54150
		}
	]
}
