{
	"asset" : {
		"generator" : "FME 2022.2.4.0",
		"version" : "2.0"
	},
	"materials" : [
		{
			"name" : "default_material",
			"pbrMetallicRoughness" : {
				"baseColorFactor" : [ 1, 1, 1, 1 ],
				"roughnessFactor" : 0.30000000000000004,
				"metallicFactor" : 0.5
			}
		}
	],
	"meshes" : [
		{
			"primitives" : [
				{
					"attributes" : {
						"NORMAL" : 1,
						"POSITION" : 0,
						"COLOR_0" : 2
					},
					"indices" : 3,
					"material" : 0,
					"mode" : 4
				}
			]
		}
	],
	"nodes" : [
		{
			"name" : "B334791604001063C0",
			"matrix" : [ 1, 0, 0, 0, 0, 0, -1, 0, 0, 1, 0, 0, 833477.5625, 55.6719970703125, -816038.5, 1 ],
			"children" : [ 1 ]
		},
		{
			"mesh" : 0
		}
	],
	"scenes" : [
		{
			"nodes" : [ 0 ]
		}
	],
	"scene" : 0,
	"accessors" : [
		{
			"bufferView" : 0,
			"byteOffset" : 0,
			"componentType" : 5126,
			"count" : 81,
			"type" : "VEC3",
			"min" : [ -3.3369140625, -2.26171875, 0 ],
			"max" : [ 3.337890625, 2.2626953125, 3.8040008544921875 ]
		},
		{
			"bufferView" : 1,
			"byteOffset" : 0,
			"componentType" : 5126,
			"count" : 81,
			"type" : "VEC3",
			"min" : [ -0.9903554916381836, -0.9903457760810852, 0 ],
			"max" : [ 0.9902892708778381, 0.9903443455696106, 1 ]
		},
		{
			"bufferView" : 2,
			"byteOffset" : 0,
			"componentType" : 5126,
			"count" : 81,
			"type" : "VEC3"
		},
		{
			"bufferView" : 3,
			"byteOffset" : 0,
			"componentType" : 5121,
			"count" : 81,
			"type" : "SCALAR",
			"min" : [ 0 ],
			"max" : [ 80 ]
		}
	],
	"bufferViews" : [
		{
			"buffer" : 0,
			"byteOffset" : 0,
			"byteLength" : 972,
			"target" : 34962
		},
		{
			"buffer" : 0,
			"byteOffset" : 972,
			"byteLength" : 972,
			"target" : 34962
		},
		{
			"buffer" : 0,
			"byteOffset" : 1944,
			"byteLength" : 972,
			"target" : 34962
		},
		{
			"buffer" : 0,
			"byteOffset" : 2916,
			"byteLength" : 81,
			"target" : 34963
		}
	],
	"buffers" : [
		{
			"uri" : "B334791604001063C0.bin",
			"byteLength" : 2997
		}
	]
}
