{
	"asset" : {
		"generator" : "FME 2022.2.4.0",
		"version" : "2.0"
	},
	"materials" : [
		{
			"name" : "default_material",
			"pbrMetallicRoughness" : {
				"baseColorFactor" : [ 1, 1, 1, 1 ],
				"roughnessFactor" : 0.30000000000000004,
				"metallicFactor" : 0.5
			}
		}
	],
	"meshes" : [
		{
			"primitives" : [
				{
					"attributes" : {
						"NORMAL" : 1,
						"POSITION" : 0,
						"COLOR_0" : 2
					},
					"indices" : 3,
					"material" : 0,
					"mode" : 4
				}
			]
		}
	],
	"nodes" : [
		{
			"name" : "B331991638001063C0",
			"matrix" : [ 1, 0, 0, 0, 0, 0, -1, 0, 0, 1, 0, 0, 833206.0625, 6.389999866485596, -816376.75, 1 ],
			"children" : [ 1 ]
		},
		{
			"mesh" : 0
		}
	],
	"scenes" : [
		{
			"nodes" : [ 0 ]
		}
	],
	"scene" : 0,
	"accessors" : [
		{
			"bufferView" : 0,
			"byteOffset" : 0,
			"componentType" : 5126,
			"count" : 1269,
			"type" : "VEC3",
			"min" : [ -10.501953125, -10.201171875, 0 ],
			"max" : [ 10.501953125, 10.201171875, 23.07400131225586 ]
		},
		{
			"bufferView" : 1,
			"byteOffset" : 0,
			"componentType" : 5126,
			"count" : 1269,
			"type" : "VEC3",
			"min" : [ -1, -0.8537846207618713, -1 ],
			"max" : [ 1, 0.8545125722885132, 1 ]
		},
		{
			"bufferView" : 2,
			"byteOffset" : 0,
			"componentType" : 5126,
			"count" : 1269,
			"type" : "VEC3"
		},
		{
			"bufferView" : 3,
			"byteOffset" : 0,
			"componentType" : 5123,
			"count" : 1269,
			"type" : "SCALAR",
			"min" : [ 0 ],
			"max" : [ 1268 ]
		}
	],
	"bufferViews" : [
		{
			"buffer" : 0,
			"byteOffset" : 0,
			"byteLength" : 15228,
			"target" : 34962
		},
		{
			"buffer" : 0,
			"byteOffset" : 15228,
			"byteLength" : 15228,
			"target" : 34962
		},
		{
			"buffer" : 0,
			"byteOffset" : 30456,
			"byteLength" : 15228,
			"target" : 34962
		},
		{
			"buffer" : 0,
			"byteOffset" : 45684,
			"byteLength" : 2538,
			"target" : 34963
		}
	],
	"buffers" : [
		{
			"uri" : "B331991638001063C0.bin",
			"byteLength" : 48222
		}
	]
}
