{
	"asset" : {
		"generator" : "FME 2022.2.4.0",
		"version" : "2.0"
	},
	"materials" : [
		{
			"name" : "default_material",
			"pbrMetallicRoughness" : {
				"baseColorFactor" : [ 1, 1, 1, 1 ],
				"roughnessFactor" : 0.30000000000000004,
				"metallicFactor" : 0.5
			}
		}
	],
	"meshes" : [
		{
			"primitives" : [
				{
					"attributes" : {
						"NORMAL" : 1,
						"POSITION" : 0,
						"COLOR_0" : 2
					},
					"indices" : 3,
					"material" : 0,
					"mode" : 4
				}
			]
		}
	],
	"nodes" : [
		{
			"name" : "B341101593602063C0",
			"matrix" : [ 1, 0, 0, 0, 0, 0, -1, 0, 0, 1, 0, 0, 834109, 6.413000106811523, -815935.3125, 1 ],
			"children" : [ 1 ]
		},
		{
			"mesh" : 0
		}
	],
	"scenes" : [
		{
			"nodes" : [ 0 ]
		}
	],
	"scene" : 0,
	"accessors" : [
		{
			"bufferView" : 0,
			"byteOffset" : 0,
			"componentType" : 5126,
			"count" : 282,
			"type" : "VEC3",
			"min" : [ -10.041015625, -10.7236328125, 0 ],
			"max" : [ 10.1396484375, 10.7509765625, 19.961000442504883 ]
		},
		{
			"bufferView" : 1,
			"byteOffset" : 0,
			"componentType" : 5126,
			"count" : 282,
			"type" : "VEC3",
			"min" : [ -0.7925767302513123, -0.7990496754646301, -1 ],
			"max" : [ 0.9975813031196594, 0.7789392471313477, 1 ]
		},
		{
			"bufferView" : 2,
			"byteOffset" : 0,
			"componentType" : 5126,
			"count" : 282,
			"type" : "VEC3"
		},
		{
			"bufferView" : 3,
			"byteOffset" : 0,
			"componentType" : 5123,
			"count" : 282,
			"type" : "SCALAR",
			"min" : [ 0 ],
			"max" : [ 281 ]
		}
	],
	"bufferViews" : [
		{
			"buffer" : 0,
			"byteOffset" : 0,
			"byteLength" : 3384,
			"target" : 34962
		},
		{
			"buffer" : 0,
			"byteOffset" : 3384,
			"byteLength" : 3384,
			"target" : 34962
		},
		{
			"buffer" : 0,
			"byteOffset" : 6768,
			"byteLength" : 3384,
			"target" : 34962
		},
		{
			"buffer" : 0,
			"byteOffset" : 10152,
			"byteLength" : 564,
			"target" : 34963
		}
	],
	"buffers" : [
		{
			"uri" : "B341101593602063C0.bin",
			"byteLength" : 10716
		}
	]
}
