{
	"asset" : {
		"generator" : "FME 2023.1.0.0",
		"version" : "2.0"
	},
	"materials" : [
		{
			"name" : "default_material",
			"pbrMetallicRoughness" : {
				"baseColorFactor" : [ 1, 1, 1, 1 ],
				"roughnessFactor" : 0.30000000000000004,
				"metallicFactor" : 0.5
			}
		}
	],
	"meshes" : [
		{
			"primitives" : [
				{
					"attributes" : {
						"NORMAL" : 1,
						"POSITION" : 0,
						"COLOR_0" : 2
					},
					"indices" : 3,
					"material" : 0,
					"mode" : 4
				}
			]
		}
	],
	"nodes" : [
		{
			"name" : "B348961562202063C0",
			"matrix" : [ 1, 0, 0, 0, 0, 0, -1, 0, 0, 1, 0, 0, 834892.0625, 6.0789947509765625, -815614.25, 1 ],
			"children" : [ 1 ]
		},
		{
			"mesh" : 0
		}
	],
	"scenes" : [
		{
			"nodes" : [ 0 ]
		}
	],
	"scene" : 0,
	"accessors" : [
		{
			"bufferView" : 0,
			"byteOffset" : 0,
			"componentType" : 5126,
			"count" : 18951,
			"type" : "VEC3",
			"min" : [ -50.287109375, -53.560546875, 0 ],
			"max" : [ 50.287109375, 53.5595703125, 43.96099853515625 ]
		},
		{
			"bufferView" : 1,
			"byteOffset" : 0,
			"componentType" : 5126,
			"count" : 18951,
			"type" : "VEC3",
			"min" : [ -1, -1, -1 ],
			"max" : [ 1, 0.9999145865440369, 1 ]
		},
		{
			"bufferView" : 2,
			"byteOffset" : 0,
			"componentType" : 5126,
			"count" : 18951,
			"type" : "VEC3"
		},
		{
			"bufferView" : 3,
			"byteOffset" : 0,
			"componentType" : 5123,
			"count" : 18951,
			"type" : "SCALAR",
			"min" : [ 0 ],
			"max" : [ 18950 ]
		}
	],
	"bufferViews" : [
		{
			"buffer" : 0,
			"byteOffset" : 0,
			"byteLength" : 227412,
			"target" : 34962
		},
		{
			"buffer" : 0,
			"byteOffset" : 227412,
			"byteLength" : 227412,
			"target" : 34962
		},
		{
			"buffer" : 0,
			"byteOffset" : 454824,
			"byteLength" : 227412,
			"target" : 34962
		},
		{
			"buffer" : 0,
			"byteOffset" : 682236,
			"byteLength" : 37902,
			"target" : 34963
		}
	],
	"buffers" : [
		{
			"uri" : "B348961562202063C0.bin",
			"byteLength" : 720138
		}
	]
}
