{
	"asset" : {
		"generator" : "FME 2023.1.0.0",
		"version" : "2.0"
	},
	"materials" : [
		{
			"name" : "default_material",
			"pbrMetallicRoughness" : {
				"baseColorFactor" : [ 1, 1, 1, 1 ],
				"roughnessFactor" : 0.30000000000000004,
				"metallicFactor" : 0.5
			}
		}
	],
	"meshes" : [
		{
			"primitives" : [
				{
					"attributes" : {
						"NORMAL" : 1,
						"POSITION" : 0,
						"COLOR_0" : 2
					},
					"indices" : 3,
					"material" : 0,
					"mode" : 4
				}
			]
		}
	],
	"nodes" : [
		{
			"name" : "B357031537401063C0",
			"matrix" : [ 1, 0, 0, 0, 0, 0, -1, 0, 0, 1, 0, 0, 835702.375, 19.510000228881836, -815373.125, 1 ],
			"children" : [ 1 ]
		},
		{
			"mesh" : 0
		}
	],
	"scenes" : [
		{
			"nodes" : [ 0 ]
		}
	],
	"scene" : 0,
	"accessors" : [
		{
			"bufferView" : 0,
			"byteOffset" : 0,
			"componentType" : 5126,
			"count" : 462,
			"type" : "VEC3",
			"min" : [ -5.57421875, -4.9599609375, 0 ],
			"max" : [ 5.5732421875, 4.958984375, 55.23400115966797 ]
		},
		{
			"bufferView" : 1,
			"byteOffset" : 0,
			"componentType" : 5126,
			"count" : 462,
			"type" : "VEC3",
			"min" : [ -0.9963991045951843, -0.9962234497070312, -0.00590434530749917 ],
			"max" : [ 0.996375322341919, 0.9961399435997009, 1 ]
		},
		{
			"bufferView" : 2,
			"byteOffset" : 0,
			"componentType" : 5126,
			"count" : 462,
			"type" : "VEC3"
		},
		{
			"bufferView" : 3,
			"byteOffset" : 0,
			"componentType" : 5123,
			"count" : 462,
			"type" : "SCALAR",
			"min" : [ 0 ],
			"max" : [ 461 ]
		}
	],
	"bufferViews" : [
		{
			"buffer" : 0,
			"byteOffset" : 0,
			"byteLength" : 5544,
			"target" : 34962
		},
		{
			"buffer" : 0,
			"byteOffset" : 5544,
			"byteLength" : 5544,
			"target" : 34962
		},
		{
			"buffer" : 0,
			"byteOffset" : 11088,
			"byteLength" : 5544,
			"target" : 34962
		},
		{
			"buffer" : 0,
			"byteOffset" : 16632,
			"byteLength" : 924,
			"target" : 34963
		}
	],
	"buffers" : [
		{
			"uri" : "B357031537401063C0.bin",
			"byteLength" : 17556
		}
	]
}
