{
	"asset" : {
		"generator" : "FME 2022.2.4.0",
		"version" : "2.0"
	},
	"images" : [
		{
			"uri" : "T34500108000106E12_001.jpg"
		}
	],
	"samplers" : [
		{
			"wrapS" : 10497,
			"wrapT" : 10497,
			"magFilter" : 9729,
			"minFilter" : 9986
		}
	],
	"textures" : [
		{
			"source" : 0,
			"sampler" : 0
		}
	],
	"materials" : [
		{
			"name" : "T34500108000106E12",
			"pbrMetallicRoughness" : {
				"baseColorTexture" : {
					"index" : 0,
					"texCoord" : 0
				},
				"roughnessFactor" : 0.984375,
				"metallicFactor" : 0.5
			}
		}
	],
	"meshes" : [
		{
			"primitives" : [
				{
					"attributes" : {
						"NORMAL" : 1,
						"POSITION" : 0,
						"TEXCOORD_0" : 2
					},
					"indices" : 3,
					"material" : 0,
					"mode" : 4
				}
			]
		}
	],
	"nodes" : [
		{
			"name" : "T34500108000106E12",
			"matrix" : [ 1, 0, 0, 0, 0, 0, -1, 0, 0, 1, 0, 0, 834875, 0.8482666015625, -811100, 1 ],
			"children" : [ 1 ]
		},
		{
			"mesh" : 0
		}
	],
	"scenes" : [
		{
			"nodes" : [ 0 ]
		}
	],
	"scene" : 0,
	"accessors" : [
		{
			"bufferView" : 0,
			"byteOffset" : 0,
			"componentType" : 5126,
			"count" : 687447,
			"type" : "VEC3",
			"min" : [ -375.00390625, -300, 0 ],
			"max" : [ 375, 300.0625, 76.95882415771484 ]
		},
		{
			"bufferView" : 1,
			"byteOffset" : 0,
			"componentType" : 5126,
			"count" : 687447,
			"type" : "VEC3",
			"min" : [ -1, -1, -1 ],
			"max" : [ 1, 0.9999905824661255, 1 ]
		},
		{
			"bufferView" : 2,
			"byteOffset" : 0,
			"componentType" : 5126,
			"count" : 687447,
			"type" : "VEC2",
			"min" : [ 0.00013333559036254883, 0.00016701221466064453 ],
			"max" : [ 0.9998666048049927, 0.9998329877853394 ]
		},
		{
			"bufferView" : 3,
			"byteOffset" : 0,
			"componentType" : 5125,
			"count" : 687447,
			"type" : "SCALAR",
			"min" : [ 0 ],
			"max" : [ 687446 ]
		}
	],
	"bufferViews" : [
		{
			"buffer" : 0,
			"byteOffset" : 0,
			"byteLength" : 8249364,
			"target" : 34962
		},
		{
			"buffer" : 0,
			"byteOffset" : 8249364,
			"byteLength" : 8249364,
			"target" : 34962
		},
		{
			"buffer" : 0,
			"byteOffset" : 16498728,
			"byteLength" : 5499576,
			"target" : 34962
		},
		{
			"buffer" : 0,
			"byteOffset" : 21998304,
			"byteLength" : 2749788,
			"target" : 34963
		}
	],
	"buffers" : [
		{
			"uri" : "T34500108000106E12.bin",
			"byteLength" : 24748092
		}
	]
}
