{
	"asset" : {
		"generator" : "FME 2022.2.4.0",
		"version" : "2.0"
	},
	"materials" : [
		{
			"name" : "default_material",
			"pbrMetallicRoughness" : {
				"baseColorFactor" : [ 1, 1, 1, 1 ],
				"roughnessFactor" : 0.30000000000000004,
				"metallicFactor" : 0.5
			}
		}
	],
	"meshes" : [
		{
			"primitives" : [
				{
					"attributes" : {
						"NORMAL" : 1,
						"POSITION" : 0,
						"COLOR_0" : 2
					},
					"indices" : 3,
					"material" : 0,
					"mode" : 4
				}
			]
		}
	],
	"nodes" : [
		{
			"name" : "B338261606601063C0",
			"matrix" : [ 1, 0, 0, 0, 0, 0, -1, 0, 0, 1, 0, 0, 833825.5, 22.78499984741211, -816060.375, 1 ],
			"children" : [ 1 ]
		},
		{
			"mesh" : 0
		}
	],
	"scenes" : [
		{
			"nodes" : [ 0 ]
		}
	],
	"scene" : 0,
	"accessors" : [
		{
			"bufferView" : 0,
			"byteOffset" : 0,
			"componentType" : 5126,
			"count" : 912,
			"type" : "VEC3",
			"min" : [ -9.34765625, -11.080078125, 0 ],
			"max" : [ 9.3486328125, 11.080078125, 24.584999084472656 ]
		},
		{
			"bufferView" : 1,
			"byteOffset" : 0,
			"componentType" : 5126,
			"count" : 912,
			"type" : "VEC3",
			"min" : [ -0.8117819428443909, -0.8306882977485657, -1 ],
			"max" : [ 0.8247128129005432, 0.8184213638305664, 1 ]
		},
		{
			"bufferView" : 2,
			"byteOffset" : 0,
			"componentType" : 5126,
			"count" : 912,
			"type" : "VEC3"
		},
		{
			"bufferView" : 3,
			"byteOffset" : 0,
			"componentType" : 5123,
			"count" : 912,
			"type" : "SCALAR",
			"min" : [ 0 ],
			"max" : [ 911 ]
		}
	],
	"bufferViews" : [
		{
			"buffer" : 0,
			"byteOffset" : 0,
			"byteLength" : 10944,
			"target" : 34962
		},
		{
			"buffer" : 0,
			"byteOffset" : 10944,
			"byteLength" : 10944,
			"target" : 34962
		},
		{
			"buffer" : 0,
			"byteOffset" : 21888,
			"byteLength" : 10944,
			"target" : 34962
		},
		{
			"buffer" : 0,
			"byteOffset" : 32832,
			"byteLength" : 1824,
			"target" : 34963
		}
	],
	"buffers" : [
		{
			"uri" : "B338261606601063C0.bin",
			"byteLength" : 34656
		}
	]
}
