{
	"asset" : {
		"generator" : "FME 2023.1.0.0",
		"version" : "2.0"
	},
	"materials" : [
		{
			"name" : "default_material",
			"pbrMetallicRoughness" : {
				"baseColorFactor" : [ 1, 1, 1, 1 ],
				"roughnessFactor" : 0.30000000000000004,
				"metallicFactor" : 0.5
			}
		}
	],
	"meshes" : [
		{
			"primitives" : [
				{
					"attributes" : {
						"NORMAL" : 1,
						"POSITION" : 0,
						"COLOR_0" : 2
					},
					"indices" : 3,
					"material" : 0,
					"mode" : 4
				}
			]
		}
	],
	"nodes" : [
		{
			"name" : "B334111636602063C0",
			"matrix" : [ 1, 0, 0, 0, 0, 0, -1, 0, 0, 1, 0, 0, 833409.25, 4.352001190185547, -816364.5625, 1 ],
			"children" : [ 1 ]
		},
		{
			"mesh" : 0
		}
	],
	"scenes" : [
		{
			"nodes" : [ 0 ]
		}
	],
	"scene" : 0,
	"accessors" : [
		{
			"bufferView" : 0,
			"byteOffset" : 0,
			"componentType" : 5126,
			"count" : 633,
			"type" : "VEC3",
			"min" : [ -13.92578125, -11.373046875, 0 ],
			"max" : [ 13.92578125, 11.3720703125, 17.606998443603516 ]
		},
		{
			"bufferView" : 1,
			"byteOffset" : 0,
			"componentType" : 5126,
			"count" : 633,
			"type" : "VEC3",
			"min" : [ -0.9414236545562744, -0.9380170106887817, -1 ],
			"max" : [ 0.938754141330719, 0.9371179938316345, 1 ]
		},
		{
			"bufferView" : 2,
			"byteOffset" : 0,
			"componentType" : 5126,
			"count" : 633,
			"type" : "VEC3"
		},
		{
			"bufferView" : 3,
			"byteOffset" : 0,
			"componentType" : 5123,
			"count" : 633,
			"type" : "SCALAR",
			"min" : [ 0 ],
			"max" : [ 632 ]
		}
	],
	"bufferViews" : [
		{
			"buffer" : 0,
			"byteOffset" : 0,
			"byteLength" : 7596,
			"target" : 34962
		},
		{
			"buffer" : 0,
			"byteOffset" : 7596,
			"byteLength" : 7596,
			"target" : 34962
		},
		{
			"buffer" : 0,
			"byteOffset" : 15192,
			"byteLength" : 7596,
			"target" : 34962
		},
		{
			"buffer" : 0,
			"byteOffset" : 22788,
			"byteLength" : 1266,
			"target" : 34963
		}
	],
	"buffers" : [
		{
			"uri" : "B334111636602063C0.bin",
			"byteLength" : 24054
		}
	]
}
