{
	"asset" : {
		"generator" : "FME 2023.1.0.0",
		"version" : "2.0"
	},
	"materials" : [
		{
			"name" : "default_material",
			"pbrMetallicRoughness" : {
				"baseColorFactor" : [ 1, 1, 1, 1 ],
				"roughnessFactor" : 0.30000000000000004,
				"metallicFactor" : 0.5
			}
		}
	],
	"meshes" : [
		{
			"primitives" : [
				{
					"attributes" : {
						"NORMAL" : 1,
						"POSITION" : 0,
						"COLOR_0" : 2
					},
					"indices" : 3,
					"material" : 0,
					"mode" : 4
				}
			]
		}
	],
	"nodes" : [
		{
			"name" : "B338661586001063C0",
			"matrix" : [ 1, 0, 0, 0, 0, 0, -1, 0, 0, 1, 0, 0, 833861.0625, 43.785011291503906, -815863.1875, 1 ],
			"children" : [ 1 ]
		},
		{
			"mesh" : 0
		}
	],
	"scenes" : [
		{
			"nodes" : [ 0 ]
		}
	],
	"scene" : 0,
	"accessors" : [
		{
			"bufferView" : 0,
			"byteOffset" : 0,
			"componentType" : 5126,
			"count" : 480,
			"type" : "VEC3",
			"min" : [ -7.244140625, -5.2548828125, 0 ],
			"max" : [ 7.244140625, 5.2548828125, 22.189002990722656 ]
		},
		{
			"bufferView" : 1,
			"byteOffset" : 0,
			"componentType" : 5126,
			"count" : 480,
			"type" : "VEC3",
			"min" : [ -0.9257699251174927, -0.9126846194267273, -0.08925078809261322 ],
			"max" : [ 0.9188006520271301, 0.914535403251648, 1 ]
		},
		{
			"bufferView" : 2,
			"byteOffset" : 0,
			"componentType" : 5126,
			"count" : 480,
			"type" : "VEC3"
		},
		{
			"bufferView" : 3,
			"byteOffset" : 0,
			"componentType" : 5123,
			"count" : 480,
			"type" : "SCALAR",
			"min" : [ 0 ],
			"max" : [ 479 ]
		}
	],
	"bufferViews" : [
		{
			"buffer" : 0,
			"byteOffset" : 0,
			"byteLength" : 5760,
			"target" : 34962
		},
		{
			"buffer" : 0,
			"byteOffset" : 5760,
			"byteLength" : 5760,
			"target" : 34962
		},
		{
			"buffer" : 0,
			"byteOffset" : 11520,
			"byteLength" : 5760,
			"target" : 34962
		},
		{
			"buffer" : 0,
			"byteOffset" : 17280,
			"byteLength" : 960,
			"target" : 34963
		}
	],
	"buffers" : [
		{
			"uri" : "B338661586001063C0.bin",
			"byteLength" : 18240
		}
	]
}
