{
	"asset" : {
		"generator" : "FME 2023.1.0.0",
		"version" : "2.0"
	},
	"materials" : [
		{
			"name" : "default_material",
			"pbrMetallicRoughness" : {
				"baseColorFactor" : [ 1, 1, 1, 1 ],
				"roughnessFactor" : 0.30000000000000004,
				"metallicFactor" : 0.5
			}
		}
	],
	"meshes" : [
		{
			"primitives" : [
				{
					"attributes" : {
						"NORMAL" : 1,
						"POSITION" : 0,
						"COLOR_0" : 2
					},
					"indices" : 3,
					"material" : 0,
					"mode" : 4
				}
			]
		}
	],
	"nodes" : [
		{
			"name" : "B350561585401063C0",
			"matrix" : [ 1, 0, 0, 0, 0, 0, -1, 0, 0, 1, 0, 0, 835056.5625, 4.940000057220459, -815857.125, 1 ],
			"children" : [ 1 ]
		},
		{
			"mesh" : 0
		}
	],
	"scenes" : [
		{
			"nodes" : [ 0 ]
		}
	],
	"scene" : 0,
	"accessors" : [
		{
			"bufferView" : 0,
			"byteOffset" : 0,
			"componentType" : 5126,
			"count" : 7863,
			"type" : "VEC3",
			"min" : [ -24.669921875, -45.498046875, 0 ],
			"max" : [ 24.6689453125, 45.498046875, 34.13300704956055 ]
		},
		{
			"bufferView" : 1,
			"byteOffset" : 0,
			"componentType" : 5126,
			"count" : 7863,
			"type" : "VEC3",
			"min" : [ -0.999904453754425, -0.9996249079704285, -1 ],
			"max" : [ 0.9999951124191284, 0.9997889399528503, 1 ]
		},
		{
			"bufferView" : 2,
			"byteOffset" : 0,
			"componentType" : 5126,
			"count" : 7863,
			"type" : "VEC3"
		},
		{
			"bufferView" : 3,
			"byteOffset" : 0,
			"componentType" : 5123,
			"count" : 7863,
			"type" : "SCALAR",
			"min" : [ 0 ],
			"max" : [ 7862 ]
		}
	],
	"bufferViews" : [
		{
			"buffer" : 0,
			"byteOffset" : 0,
			"byteLength" : 94356,
			"target" : 34962
		},
		{
			"buffer" : 0,
			"byteOffset" : 94356,
			"byteLength" : 94356,
			"target" : 34962
		},
		{
			"buffer" : 0,
			"byteOffset" : 188712,
			"byteLength" : 94356,
			"target" : 34962
		},
		{
			"buffer" : 0,
			"byteOffset" : 283068,
			"byteLength" : 15726,
			"target" : 34963
		}
	],
	"buffers" : [
		{
			"uri" : "B350561585401063C0.bin",
			"byteLength" : 298794
		}
	]
}
