{
	"asset" : {
		"generator" : "FME 2023.1.0.0",
		"version" : "2.0"
	},
	"images" : [
		{
			"uri" : "T15000300000106E10_001.jpg"
		}
	],
	"samplers" : [
		{
			"wrapS" : 10497,
			"wrapT" : 10497,
			"magFilter" : 9729,
			"minFilter" : 9986
		}
	],
	"textures" : [
		{
			"source" : 0,
			"sampler" : 0
		}
	],
	"materials" : [
		{
			"name" : "T15000300000106E10",
			"pbrMetallicRoughness" : {
				"baseColorTexture" : {
					"index" : 0,
					"texCoord" : 0
				},
				"roughnessFactor" : 0.984375,
				"metallicFactor" : 0.5
			}
		}
	],
	"meshes" : [
		{
			"primitives" : [
				{
					"attributes" : {
						"NORMAL" : 1,
						"POSITION" : 0,
						"TEXCOORD_0" : 2
					},
					"indices" : 3,
					"material" : 0,
					"mode" : 4
				}
			]
		}
	],
	"nodes" : [
		{
			"name" : "T15000300000106E10",
			"matrix" : [ 1, 0, 0, 0, 0, 0, -1, 0, 0, 1, 0, 0, 815375, 3.4189987182617188, -830300, 1 ],
			"children" : [ 1 ]
		},
		{
			"mesh" : 0
		}
	],
	"scenes" : [
		{
			"nodes" : [ 0 ]
		}
	],
	"scene" : 0,
	"accessors" : [
		{
			"bufferView" : 0,
			"byteOffset" : 0,
			"componentType" : 5126,
			"count" : 257367,
			"type" : "VEC3",
			"min" : [ -374.99853515625, -300, 0 ],
			"max" : [ 375.0029296875, 300, 26.836223602294922 ]
		},
		{
			"bufferView" : 1,
			"byteOffset" : 0,
			"componentType" : 5126,
			"count" : 257367,
			"type" : "VEC3",
			"min" : [ -0.9999998211860657, -1, -1 ],
			"max" : [ 1, 1, 1 ]
		},
		{
			"bufferView" : 2,
			"byteOffset" : 0,
			"componentType" : 5126,
			"count" : 257367,
			"type" : "VEC2",
			"min" : [ 6.556510925292969e-5, 8.308887481689453e-5 ],
			"max" : [ 0.9999344348907471, 0.9999169111251831 ]
		},
		{
			"bufferView" : 3,
			"byteOffset" : 0,
			"componentType" : 5125,
			"count" : 257367,
			"type" : "SCALAR",
			"min" : [ 0 ],
			"max" : [ 257366 ]
		}
	],
	"bufferViews" : [
		{
			"buffer" : 0,
			"byteOffset" : 0,
			"byteLength" : 3088404,
			"target" : 34962
		},
		{
			"buffer" : 0,
			"byteOffset" : 3088404,
			"byteLength" : 3088404,
			"target" : 34962
		},
		{
			"buffer" : 0,
			"byteOffset" : 6176808,
			"byteLength" : 2058936,
			"target" : 34962
		},
		{
			"buffer" : 0,
			"byteOffset" : 8235744,
			"byteLength" : 1029468,
			"target" : 34963
		}
	],
	"buffers" : [
		{
			"uri" : "T15000300000106E10.bin",
			"byteLength" : 9265212
		}
	]
}