{
	"asset" : {
		"generator" : "FME 2023.1.0.0",
		"version" : "2.0"
	},
	"materials" : [
		{
			"name" : "default_material",
			"pbrMetallicRoughness" : {
				"baseColorFactor" : [ 1, 1, 1, 1 ],
				"roughnessFactor" : 0.30000000000000004,
				"metallicFactor" : 0.5
			}
		}
	],
	"meshes" : [
		{
			"primitives" : [
				{
					"attributes" : {
						"NORMAL" : 1,
						"POSITION" : 0,
						"COLOR_0" : 2
					},
					"indices" : 3,
					"material" : 0,
					"mode" : 4
				}
			]
		}
	],
	"nodes" : [
		{
			"name" : "B345241544102063C0",
			"matrix" : [ 1, 0, 0, 0, 0, 0, -1, 0, 0, 1, 0, 0, 834544.5, 18.503999710083008, -815464.625, 1 ],
			"children" : [ 1 ]
		},
		{
			"mesh" : 0
		}
	],
	"scenes" : [
		{
			"nodes" : [ 0 ]
		}
	],
	"scene" : 0,
	"accessors" : [
		{
			"bufferView" : 0,
			"byteOffset" : 0,
			"componentType" : 5126,
			"count" : 16488,
			"type" : "VEC3",
			"min" : [ -51.6884765625, -40.087890625, 0 ],
			"max" : [ 51.7666015625, 39.994140625, 17.4580020904541 ]
		},
		{
			"bufferView" : 1,
			"byteOffset" : 0,
			"componentType" : 5126,
			"count" : 16488,
			"type" : "VEC3",
			"min" : [ -1, -1, -1 ],
			"max" : [ 0.9999995827674866, 1, 1 ]
		},
		{
			"bufferView" : 2,
			"byteOffset" : 0,
			"componentType" : 5126,
			"count" : 16488,
			"type" : "VEC3"
		},
		{
			"bufferView" : 3,
			"byteOffset" : 0,
			"componentType" : 5123,
			"count" : 16488,
			"type" : "SCALAR",
			"min" : [ 0 ],
			"max" : [ 16487 ]
		}
	],
	"bufferViews" : [
		{
			"buffer" : 0,
			"byteOffset" : 0,
			"byteLength" : 197856,
			"target" : 34962
		},
		{
			"buffer" : 0,
			"byteOffset" : 197856,
			"byteLength" : 197856,
			"target" : 34962
		},
		{
			"buffer" : 0,
			"byteOffset" : 395712,
			"byteLength" : 197856,
			"target" : 34962
		},
		{
			"buffer" : 0,
			"byteOffset" : 593568,
			"byteLength" : 32976,
			"target" : 34963
		}
	],
	"buffers" : [
		{
			"uri" : "B345241544102063C0.bin",
			"byteLength" : 626544
		}
	]
}
