{
	"asset" : {
		"generator" : "FME 2022.2.4.0",
		"version" : "2.0"
	},
	"materials" : [
		{
			"name" : "default_material",
			"pbrMetallicRoughness" : {
				"baseColorFactor" : [ 1, 1, 1, 1 ],
				"roughnessFactor" : 0.30000000000000004,
				"metallicFactor" : 0.5
			}
		}
	],
	"meshes" : [
		{
			"primitives" : [
				{
					"attributes" : {
						"NORMAL" : 1,
						"POSITION" : 0,
						"COLOR_0" : 2
					},
					"indices" : 3,
					"material" : 0,
					"mode" : 4
				}
			]
		}
	],
	"nodes" : [
		{
			"name" : "B335481589701063C0",
			"matrix" : [ 1, 0, 0, 0, 0, 0, -1, 0, 0, 1, 0, 0, 833547.0625, 87.78299713134766, -815895.25, 1 ],
			"children" : [ 1 ]
		},
		{
			"mesh" : 0
		}
	],
	"scenes" : [
		{
			"nodes" : [ 0 ]
		}
	],
	"scene" : 0,
	"accessors" : [
		{
			"bufferView" : 0,
			"byteOffset" : 0,
			"componentType" : 5126,
			"count" : 615,
			"type" : "VEC3",
			"min" : [ -6.5888671875, -7.12109375, 0 ],
			"max" : [ 6.5888671875, 7.1201171875, 78.5479965209961 ]
		},
		{
			"bufferView" : 1,
			"byteOffset" : 0,
			"componentType" : 5126,
			"count" : 615,
			"type" : "VEC3",
			"min" : [ -0.9729490876197815, -0.9961298704147339, -1 ],
			"max" : [ 0.9978175163269043, 0.9910740852355957, 1 ]
		},
		{
			"bufferView" : 2,
			"byteOffset" : 0,
			"componentType" : 5126,
			"count" : 615,
			"type" : "VEC3"
		},
		{
			"bufferView" : 3,
			"byteOffset" : 0,
			"componentType" : 5123,
			"count" : 615,
			"type" : "SCALAR",
			"min" : [ 0 ],
			"max" : [ 614 ]
		}
	],
	"bufferViews" : [
		{
			"buffer" : 0,
			"byteOffset" : 0,
			"byteLength" : 7380,
			"target" : 34962
		},
		{
			"buffer" : 0,
			"byteOffset" : 7380,
			"byteLength" : 7380,
			"target" : 34962
		},
		{
			"buffer" : 0,
			"byteOffset" : 14760,
			"byteLength" : 7380,
			"target" : 34962
		},
		{
			"buffer" : 0,
			"byteOffset" : 22140,
			"byteLength" : 1230,
			"target" : 34963
		}
	],
	"buffers" : [
		{
			"uri" : "B335481589701063C0.bin",
			"byteLength" : 23370
		}
	]
}
