{
	"asset" : {
		"generator" : "FME 2023.2.1.0",
		"version" : "2.0"
	},
	"materials" : [
		{
			"name" : "default_material",
			"pbrMetallicRoughness" : {
				"baseColorFactor" : [ 1, 1, 1, 1 ],
				"roughnessFactor" : 0.30000000000000004,
				"metallicFactor" : 0.5
			}
		}
	],
	"meshes" : [
		{
			"primitives" : [
				{
					"attributes" : {
						"NORMAL" : 1,
						"POSITION" : 0,
						"COLOR_0" : 2
					},
					"indices" : 3,
					"material" : 0,
					"mode" : 4
				}
			]
		}
	],
	"nodes" : [
		{
			"name" : "B188981460101062G0",
			"matrix" : [ 1, 0, 0, 0, 0, 0, -1, 0, 0, 1, 0, 0, 818897.5, 43.62630081176758, -814599.25, 1 ],
			"children" : [ 1 ]
		},
		{
			"mesh" : 0
		}
	],
	"scenes" : [
		{
			"nodes" : [ 0 ]
		}
	],
	"scene" : 0,
	"accessors" : [
		{
			"bufferView" : 0,
			"byteOffset" : 0,
			"componentType" : 5126,
			"count" : 114,
			"type" : "VEC3",
			"min" : [ -3.5, -4.875, 0 ],
			"max" : [ 3.4375, 4.8125, 3.072998046875 ]
		},
		{
			"bufferView" : 1,
			"byteOffset" : 0,
			"componentType" : 5126,
			"count" : 114,
			"type" : "VEC3",
			"min" : [ -0.9978324770927429, -0.9978324770927429, -0.9961482286453247 ],
			"max" : [ 0.9978324770927429, 0.9978324770927429, 0.9977433681488037 ]
		},
		{
			"bufferView" : 2,
			"byteOffset" : 0,
			"componentType" : 5126,
			"count" : 114,
			"type" : "VEC3"
		},
		{
			"bufferView" : 3,
			"byteOffset" : 0,
			"componentType" : 5121,
			"count" : 114,
			"type" : "SCALAR",
			"min" : [ 0 ],
			"max" : [ 113 ]
		}
	],
	"bufferViews" : [
		{
			"buffer" : 0,
			"byteOffset" : 0,
			"byteLength" : 1368,
			"target" : 34962
		},
		{
			"buffer" : 0,
			"byteOffset" : 1368,
			"byteLength" : 1368,
			"target" : 34962
		},
		{
			"buffer" : 0,
			"byteOffset" : 2736,
			"byteLength" : 1368,
			"target" : 34962
		},
		{
			"buffer" : 0,
			"byteOffset" : 4104,
			"byteLength" : 114,
			"target" : 34963
		}
	],
	"buffers" : [
		{
			"uri" : "B188981460101062G0.bin",
			"byteLength" : 4218
		}
	]
}
