{
	"asset" : {
		"generator" : "FME 2023.2.1.0",
		"version" : "2.0"
	},
	"materials" : [
		{
			"name" : "default_material",
			"pbrMetallicRoughness" : {
				"baseColorFactor" : [ 1, 1, 1, 1 ],
				"roughnessFactor" : 0.30000000000000004,
				"metallicFactor" : 0.5
			}
		}
	],
	"meshes" : [
		{
			"primitives" : [
				{
					"attributes" : {
						"NORMAL" : 1,
						"POSITION" : 0,
						"COLOR_0" : 2
					},
					"indices" : 3,
					"material" : 0,
					"mode" : 4
				}
			]
		}
	],
	"nodes" : [
		{
			"name" : "B356481546702063C0",
			"matrix" : [ 1, 0, 0, 0, 0, 0, -1, 0, 0, 1, 0, 0, 835647.9375, 3.5829999446868896, -815461.1875, 1 ],
			"children" : [ 1 ]
		},
		{
			"mesh" : 0
		}
	],
	"scenes" : [
		{
			"nodes" : [ 0 ]
		}
	],
	"scene" : 0,
	"accessors" : [
		{
			"bufferView" : 0,
			"byteOffset" : 0,
			"componentType" : 5126,
			"count" : 183,
			"type" : "VEC3",
			"min" : [ -12.0078125, -10.6298828125, 0 ],
			"max" : [ 12.0078125, 10.630859375, 15.357999801635742 ]
		},
		{
			"bufferView" : 1,
			"byteOffset" : 0,
			"componentType" : 5126,
			"count" : 183,
			"type" : "VEC3",
			"min" : [ -0.9960463643074036, -0.9960998296737671, -1 ],
			"max" : [ 0.996168315410614, 0.9961996674537659, 1 ]
		},
		{
			"bufferView" : 2,
			"byteOffset" : 0,
			"componentType" : 5126,
			"count" : 183,
			"type" : "VEC3"
		},
		{
			"bufferView" : 3,
			"byteOffset" : 0,
			"componentType" : 5121,
			"count" : 183,
			"type" : "SCALAR",
			"min" : [ 0 ],
			"max" : [ 182 ]
		}
	],
	"bufferViews" : [
		{
			"buffer" : 0,
			"byteOffset" : 0,
			"byteLength" : 2196,
			"target" : 34962
		},
		{
			"buffer" : 0,
			"byteOffset" : 2196,
			"byteLength" : 2196,
			"target" : 34962
		},
		{
			"buffer" : 0,
			"byteOffset" : 4392,
			"byteLength" : 2196,
			"target" : 34962
		},
		{
			"buffer" : 0,
			"byteOffset" : 6588,
			"byteLength" : 183,
			"target" : 34963
		}
	],
	"buffers" : [
		{
			"uri" : "B356481546702063C0.bin",
			"byteLength" : 6771
		}
	]
}
