{
	"asset" : {
		"generator" : "FME 2023.1.0.0",
		"version" : "2.0"
	},
	"materials" : [
		{
			"name" : "default_material",
			"pbrMetallicRoughness" : {
				"baseColorFactor" : [ 1, 1, 1, 1 ],
				"roughnessFactor" : 0.30000000000000004,
				"metallicFactor" : 0.5
			}
		}
	],
	"meshes" : [
		{
			"primitives" : [
				{
					"attributes" : {
						"NORMAL" : 1,
						"POSITION" : 0,
						"COLOR_0" : 2
					},
					"indices" : 3,
					"material" : 0,
					"mode" : 4
				}
			]
		}
	],
	"nodes" : [
		{
			"name" : "B341241623101063C0",
			"matrix" : [ 1, 0, 0, 0, 0, 0, -1, 0, 0, 1, 0, 0, 834124, 18.333995819091797, -816230.1875, 1 ],
			"children" : [ 1 ]
		},
		{
			"mesh" : 0
		}
	],
	"scenes" : [
		{
			"nodes" : [ 0 ]
		}
	],
	"scene" : 0,
	"accessors" : [
		{
			"bufferView" : 0,
			"byteOffset" : 0,
			"componentType" : 5126,
			"count" : 2118,
			"type" : "VEC3",
			"min" : [ -8.486328125, -8.33984375, 0 ],
			"max" : [ 8.486328125, 8.33984375, 81.37399291992188 ]
		},
		{
			"bufferView" : 1,
			"byteOffset" : 0,
			"componentType" : 5126,
			"count" : 2118,
			"type" : "VEC3",
			"min" : [ -0.9982744455337524, -1, -1 ],
			"max" : [ 1, 0.9975751638412476, 1 ]
		},
		{
			"bufferView" : 2,
			"byteOffset" : 0,
			"componentType" : 5126,
			"count" : 2118,
			"type" : "VEC3"
		},
		{
			"bufferView" : 3,
			"byteOffset" : 0,
			"componentType" : 5123,
			"count" : 2118,
			"type" : "SCALAR",
			"min" : [ 0 ],
			"max" : [ 2117 ]
		}
	],
	"bufferViews" : [
		{
			"buffer" : 0,
			"byteOffset" : 0,
			"byteLength" : 25416,
			"target" : 34962
		},
		{
			"buffer" : 0,
			"byteOffset" : 25416,
			"byteLength" : 25416,
			"target" : 34962
		},
		{
			"buffer" : 0,
			"byteOffset" : 50832,
			"byteLength" : 25416,
			"target" : 34962
		},
		{
			"buffer" : 0,
			"byteOffset" : 76248,
			"byteLength" : 4236,
			"target" : 34963
		}
	],
	"buffers" : [
		{
			"uri" : "B341241623101063C0.bin",
			"byteLength" : 80484
		}
	]
}
