{
	"asset" : {
		"generator" : "FME 2022.2.4.0",
		"version" : "2.0"
	},
	"materials" : [
		{
			"name" : "default_material",
			"pbrMetallicRoughness" : {
				"baseColorFactor" : [ 1, 1, 1, 1 ],
				"roughnessFactor" : 0.30000000000000004,
				"metallicFactor" : 0.5
			}
		}
	],
	"meshes" : [
		{
			"primitives" : [
				{
					"attributes" : {
						"NORMAL" : 1,
						"POSITION" : 0,
						"COLOR_0" : 2
					},
					"indices" : 3,
					"material" : 0,
					"mode" : 4
				}
			]
		}
	],
	"nodes" : [
		{
			"name" : "B334641598501063C0",
			"matrix" : [ 1, 0, 0, 0, 0, 0, -1, 0, 0, 1, 0, 0, 833466.1875, 79.78299713134766, -815981.875, 1 ],
			"children" : [ 1 ]
		},
		{
			"mesh" : 0
		}
	],
	"scenes" : [
		{
			"nodes" : [ 0 ]
		}
	],
	"scene" : 0,
	"accessors" : [
		{
			"bufferView" : 0,
			"byteOffset" : 0,
			"componentType" : 5126,
			"count" : 516,
			"type" : "VEC3",
			"min" : [ -5.701171875, -4.71484375, 0 ],
			"max" : [ 5.7021484375, 4.7158203125, 70.84300994873047 ]
		},
		{
			"bufferView" : 1,
			"byteOffset" : 0,
			"componentType" : 5126,
			"count" : 516,
			"type" : "VEC3",
			"min" : [ -0.9971516728401184, -0.9969669580459595, -1 ],
			"max" : [ 0.9969212412834167, 0.9970136880874634, 1 ]
		},
		{
			"bufferView" : 2,
			"byteOffset" : 0,
			"componentType" : 5126,
			"count" : 516,
			"type" : "VEC3"
		},
		{
			"bufferView" : 3,
			"byteOffset" : 0,
			"componentType" : 5123,
			"count" : 516,
			"type" : "SCALAR",
			"min" : [ 0 ],
			"max" : [ 515 ]
		}
	],
	"bufferViews" : [
		{
			"buffer" : 0,
			"byteOffset" : 0,
			"byteLength" : 6192,
			"target" : 34962
		},
		{
			"buffer" : 0,
			"byteOffset" : 6192,
			"byteLength" : 6192,
			"target" : 34962
		},
		{
			"buffer" : 0,
			"byteOffset" : 12384,
			"byteLength" : 6192,
			"target" : 34962
		},
		{
			"buffer" : 0,
			"byteOffset" : 18576,
			"byteLength" : 1032,
			"target" : 34963
		}
	],
	"buffers" : [
		{
			"uri" : "B334641598501063C0.bin",
			"byteLength" : 19608
		}
	]
}
