{
	"asset" : {
		"generator" : "FME 2022.2.4.0",
		"version" : "2.0"
	},
	"materials" : [
		{
			"name" : "default_material",
			"pbrMetallicRoughness" : {
				"baseColorFactor" : [ 1, 1, 1, 1 ],
				"roughnessFactor" : 0.30000000000000004,
				"metallicFactor" : 0.5
			}
		}
	],
	"meshes" : [
		{
			"primitives" : [
				{
					"attributes" : {
						"NORMAL" : 1,
						"POSITION" : 0,
						"COLOR_0" : 2
					},
					"indices" : 3,
					"material" : 0,
					"mode" : 4
				}
			]
		}
	],
	"nodes" : [
		{
			"name" : "B338711608901063C0",
			"matrix" : [ 1, 0, 0, 0, 0, 0, -1, 0, 0, 1, 0, 0, 833870.3125, 16.343002319335938, -816092.3125, 1 ],
			"children" : [ 1 ]
		},
		{
			"mesh" : 0
		}
	],
	"scenes" : [
		{
			"nodes" : [ 0 ]
		}
	],
	"scene" : 0,
	"accessors" : [
		{
			"bufferView" : 0,
			"byteOffset" : 0,
			"componentType" : 5126,
			"count" : 261,
			"type" : "VEC3",
			"min" : [ -3.9248046875, -5.8623046875, 0 ],
			"max" : [ 3.9248046875, 5.861328125, 17.2239990234375 ]
		},
		{
			"bufferView" : 1,
			"byteOffset" : 0,
			"componentType" : 5126,
			"count" : 261,
			"type" : "VEC3",
			"min" : [ -0.8141554594039917, -0.8042983412742615, -0.028516311198472977 ],
			"max" : [ 0.8038305640220642, 0.8034528493881226, 1 ]
		},
		{
			"bufferView" : 2,
			"byteOffset" : 0,
			"componentType" : 5126,
			"count" : 261,
			"type" : "VEC3"
		},
		{
			"bufferView" : 3,
			"byteOffset" : 0,
			"componentType" : 5123,
			"count" : 261,
			"type" : "SCALAR",
			"min" : [ 0 ],
			"max" : [ 260 ]
		}
	],
	"bufferViews" : [
		{
			"buffer" : 0,
			"byteOffset" : 0,
			"byteLength" : 3132,
			"target" : 34962
		},
		{
			"buffer" : 0,
			"byteOffset" : 3132,
			"byteLength" : 3132,
			"target" : 34962
		},
		{
			"buffer" : 0,
			"byteOffset" : 6264,
			"byteLength" : 3132,
			"target" : 34962
		},
		{
			"buffer" : 0,
			"byteOffset" : 9396,
			"byteLength" : 522,
			"target" : 34963
		}
	],
	"buffers" : [
		{
			"uri" : "B338711608901063C0.bin",
			"byteLength" : 9918
		}
	]
}
