{
	"asset" : {
		"generator" : "FME 2024.0.0.0",
		"version" : "2.0"
	},
	"images" : [
		{
			"uri" : "T36750180000106E12_001.jpg"
		},
		{
			"uri" : "T36750180000106E12_002.jpg"
		}
	],
	"samplers" : [
		{
			"wrapS" : 10497,
			"wrapT" : 10497,
			"magFilter" : 9729,
			"minFilter" : 9986
		},
		{
			"wrapS" : 10497,
			"wrapT" : 10497,
			"magFilter" : 9729,
			"minFilter" : 9986
		}
	],
	"textures" : [
		{
			"source" : 0,
			"sampler" : 0
		},
		{
			"source" : 1,
			"sampler" : 1
		}
	],
	"materials" : [
		{
			"name" : "T36750180000106E12_001",
			"pbrMetallicRoughness" : {
				"baseColorTexture" : {
					"index" : 0,
					"texCoord" : 0
				},
				"roughnessFactor" : 0.984375,
				"metallicFactor" : 0.5
			}
		},
		{
			"name" : "T36750180000106E12_002",
			"pbrMetallicRoughness" : {
				"baseColorTexture" : {
					"index" : 1,
					"texCoord" : 0
				},
				"roughnessFactor" : 0.984375,
				"metallicFactor" : 0.5
			}
		}
	],
	"meshes" : [
		{
			"primitives" : [
				{
					"attributes" : {
						"NORMAL" : 1,
						"POSITION" : 0,
						"TEXCOORD_0" : 2
					},
					"indices" : 3,
					"material" : 0,
					"mode" : 4
				},
				{
					"attributes" : {
						"NORMAL" : 5,
						"POSITION" : 4,
						"TEXCOORD_0" : 6
					},
					"indices" : 7,
					"material" : 1,
					"mode" : 4
				}
			]
		}
	],
	"nodes" : [
		{
			"name" : "T36750180000106E12",
			"matrix" : [ 1, 0, 0, 0, 0, 0, -1, 0, 0, 1, 0, 0, 837125, -2.5682735443115234, -818300, 1 ],
			"children" : [ 1 ]
		},
		{
			"mesh" : 0
		}
	],
	"scenes" : [
		{
			"nodes" : [ 0 ]
		}
	],
	"scene" : 0,
	"accessors" : [
		{
			"bufferView" : 0,
			"byteOffset" : 0,
			"componentType" : 5126,
			"count" : 132033,
			"type" : "VEC3",
			"min" : [ -375, -300, 2.442078113555908 ],
			"max" : [ 149.4775390625, 300, 16.12430763244629 ]
		},
		{
			"bufferView" : 1,
			"byteOffset" : 0,
			"componentType" : 5126,
			"count" : 132033,
			"type" : "VEC3",
			"min" : [ -1, -0.9704803824424744, -0.9599238634109497 ],
			"max" : [ 1, 0.9956664443016052, 1 ]
		},
		{
			"bufferView" : 2,
			"byteOffset" : 0,
			"componentType" : 5126,
			"count" : 132033,
			"type" : "VEC2",
			"min" : [ 0.0005324105150066316, 0.001496732234954834 ],
			"max" : [ 0.6986262202262878, 0.9993347525596619 ]
		},
		{
			"bufferView" : 3,
			"byteOffset" : 0,
			"componentType" : 5125,
			"count" : 132033,
			"type" : "SCALAR",
			"min" : [ 0 ],
			"max" : [ 132032 ]
		},
		{
			"bufferView" : 4,
			"byteOffset" : 0,
			"componentType" : 5126,
			"count" : 67848,
			"type" : "VEC3",
			"min" : [ -317.0458984375, -300, 0 ],
			"max" : [ 375.013671875, 300.0029296875, 14.716167449951172 ]
		},
		{
			"bufferView" : 5,
			"byteOffset" : 0,
			"componentType" : 5126,
			"count" : 67848,
			"type" : "VEC3",
			"min" : [ -1, -0.9959741234779358, -1 ],
			"max" : [ 1, 0.9974675178527832, 1 ]
		},
		{
			"bufferView" : 6,
			"byteOffset" : 0,
			"componentType" : 5126,
			"count" : 67848,
			"type" : "VEC2",
			"min" : [ 0.0772620439529419, -5.364418029785156e-6 ],
			"max" : [ 1.0000088214874268, 1.0000053644180298 ]
		},
		{
			"bufferView" : 7,
			"byteOffset" : 0,
			"componentType" : 5125,
			"count" : 67848,
			"type" : "SCALAR",
			"min" : [ 0 ],
			"max" : [ 67847 ]
		}
	],
	"bufferViews" : [
		{
			"buffer" : 0,
			"byteOffset" : 0,
			"byteLength" : 1584396,
			"target" : 34962
		},
		{
			"buffer" : 0,
			"byteOffset" : 1584396,
			"byteLength" : 1584396,
			"target" : 34962
		},
		{
			"buffer" : 0,
			"byteOffset" : 3168792,
			"byteLength" : 1056264,
			"target" : 34962
		},
		{
			"buffer" : 0,
			"byteOffset" : 4225056,
			"byteLength" : 528132,
			"target" : 34963
		},
		{
			"buffer" : 0,
			"byteOffset" : 4753188,
			"byteLength" : 814176,
			"target" : 34962
		},
		{
			"buffer" : 0,
			"byteOffset" : 5567364,
			"byteLength" : 814176,
			"target" : 34962
		},
		{
			"buffer" : 0,
			"byteOffset" : 6381540,
			"byteLength" : 542784,
			"target" : 34962
		},
		{
			"buffer" : 0,
			"byteOffset" : 6924324,
			"byteLength" : 271392,
			"target" : 34963
		}
	],
	"buffers" : [
		{
			"uri" : "T36750180000106E12.bin",
			"byteLength" : 7195716
		}
	]
}