{
	"asset" : {
		"generator" : "FME 2022.2.4.0",
		"version" : "2.0"
	},
	"materials" : [
		{
			"name" : "default_material",
			"pbrMetallicRoughness" : {
				"baseColorFactor" : [ 1, 1, 1, 1 ],
				"roughnessFactor" : 0.30000000000000004,
				"metallicFactor" : 0.5
			}
		}
	],
	"meshes" : [
		{
			"primitives" : [
				{
					"attributes" : {
						"NORMAL" : 1,
						"POSITION" : 0,
						"COLOR_0" : 2
					},
					"indices" : 3,
					"material" : 0,
					"mode" : 4
				}
			]
		}
	],
	"nodes" : [
		{
			"name" : "B355861525701063C0",
			"matrix" : [ 1, 0, 0, 0, 0, 0, -1, 0, 0, 1, 0, 0, 835582.8125, 5.3379998207092285, -815257.8125, 1 ],
			"children" : [ 1 ]
		},
		{
			"mesh" : 0
		}
	],
	"scenes" : [
		{
			"nodes" : [ 0 ]
		}
	],
	"scene" : 0,
	"accessors" : [
		{
			"bufferView" : 0,
			"byteOffset" : 0,
			"componentType" : 5126,
			"count" : 879,
			"type" : "VEC3",
			"min" : [ -8.1484375, -9.8076171875, 0 ],
			"max" : [ 8.1484375, 9.806640625, 32.04299545288086 ]
		},
		{
			"bufferView" : 1,
			"byteOffset" : 0,
			"componentType" : 5126,
			"count" : 879,
			"type" : "VEC3",
			"min" : [ -1, -0.8548809289932251, -1 ],
			"max" : [ 0.8659369349479675, 0.8623407483100891, 1 ]
		},
		{
			"bufferView" : 2,
			"byteOffset" : 0,
			"componentType" : 5126,
			"count" : 879,
			"type" : "VEC3"
		},
		{
			"bufferView" : 3,
			"byteOffset" : 0,
			"componentType" : 5123,
			"count" : 879,
			"type" : "SCALAR",
			"min" : [ 0 ],
			"max" : [ 878 ]
		}
	],
	"bufferViews" : [
		{
			"buffer" : 0,
			"byteOffset" : 0,
			"byteLength" : 10548,
			"target" : 34962
		},
		{
			"buffer" : 0,
			"byteOffset" : 10548,
			"byteLength" : 10548,
			"target" : 34962
		},
		{
			"buffer" : 0,
			"byteOffset" : 21096,
			"byteLength" : 10548,
			"target" : 34962
		},
		{
			"buffer" : 0,
			"byteOffset" : 31644,
			"byteLength" : 1758,
			"target" : 34963
		}
	],
	"buffers" : [
		{
			"uri" : "B355861525701063C0.bin",
			"byteLength" : 33402
		}
	]
}
