{
	"asset" : {
		"generator" : "FME 2022.2.4.0",
		"version" : "2.0"
	},
	"materials" : [
		{
			"name" : "default_material",
			"pbrMetallicRoughness" : {
				"baseColorFactor" : [ 1, 1, 1, 1 ],
				"roughnessFactor" : 0.30000000000000004,
				"metallicFactor" : 0.5
			}
		}
	],
	"meshes" : [
		{
			"primitives" : [
				{
					"attributes" : {
						"NORMAL" : 1,
						"POSITION" : 0,
						"COLOR_0" : 2
					},
					"indices" : 3,
					"material" : 0,
					"mode" : 4
				}
			]
		}
	],
	"nodes" : [
		{
			"name" : "B336431600801063C0",
			"matrix" : [ 1, 0, 0, 0, 0, 0, -1, 0, 0, 1, 0, 0, 833643.0625, 50.13499450683594, -816007.5, 1 ],
			"children" : [ 1 ]
		},
		{
			"mesh" : 0
		}
	],
	"scenes" : [
		{
			"nodes" : [ 0 ]
		}
	],
	"scene" : 0,
	"accessors" : [
		{
			"bufferView" : 0,
			"byteOffset" : 0,
			"componentType" : 5126,
			"count" : 5556,
			"type" : "VEC3",
			"min" : [ -15.39453125, -16.0732421875, 0 ],
			"max" : [ 15.39453125, 16.0732421875, 98.9320068359375 ]
		},
		{
			"bufferView" : 1,
			"byteOffset" : 0,
			"componentType" : 5126,
			"count" : 5556,
			"type" : "VEC3",
			"min" : [ -0.9850403666496277, -0.9438583254814148, -1 ],
			"max" : [ 0.9853582978248596, 1, 1 ]
		},
		{
			"bufferView" : 2,
			"byteOffset" : 0,
			"componentType" : 5126,
			"count" : 5556,
			"type" : "VEC3"
		},
		{
			"bufferView" : 3,
			"byteOffset" : 0,
			"componentType" : 5123,
			"count" : 5556,
			"type" : "SCALAR",
			"min" : [ 0 ],
			"max" : [ 5555 ]
		}
	],
	"bufferViews" : [
		{
			"buffer" : 0,
			"byteOffset" : 0,
			"byteLength" : 66672,
			"target" : 34962
		},
		{
			"buffer" : 0,
			"byteOffset" : 66672,
			"byteLength" : 66672,
			"target" : 34962
		},
		{
			"buffer" : 0,
			"byteOffset" : 133344,
			"byteLength" : 66672,
			"target" : 34962
		},
		{
			"buffer" : 0,
			"byteOffset" : 200016,
			"byteLength" : 11112,
			"target" : 34963
		}
	],
	"buffers" : [
		{
			"uri" : "B336431600801063C0.bin",
			"byteLength" : 211128
		}
	]
}
