{
	"asset" : {
		"generator" : "FME 2023.2.1.0",
		"version" : "2.0"
	},
	"materials" : [
		{
			"name" : "default_material",
			"pbrMetallicRoughness" : {
				"baseColorFactor" : [ 1, 1, 1, 1 ],
				"roughnessFactor" : 0.30000000000000004,
				"metallicFactor" : 0.5
			}
		}
	],
	"meshes" : [
		{
			"primitives" : [
				{
					"attributes" : {
						"NORMAL" : 1,
						"POSITION" : 0,
						"COLOR_0" : 2
					},
					"indices" : 3,
					"material" : 0,
					"mode" : 4
				}
			]
		}
	],
	"nodes" : [
		{
			"name" : "B340281580901063C0",
			"matrix" : [ 1, 0, 0, 0, 0, 0, -1, 0, 0, 1, 0, 0, 834032.5625, 18.41699981689453, -815810.375, 1 ],
			"children" : [ 1 ]
		},
		{
			"mesh" : 0
		}
	],
	"scenes" : [
		{
			"nodes" : [ 0 ]
		}
	],
	"scene" : 0,
	"accessors" : [
		{
			"bufferView" : 0,
			"byteOffset" : 0,
			"componentType" : 5126,
			"count" : 396,
			"type" : "VEC3",
			"min" : [ -16.6630859375, -12.9052734375, 0 ],
			"max" : [ 16.6865234375, 12.9052734375, 10.770000457763672 ]
		},
		{
			"bufferView" : 1,
			"byteOffset" : 0,
			"componentType" : 5126,
			"count" : 396,
			"type" : "VEC3",
			"min" : [ -0.8095648884773254, -0.8146361708641052, -1 ],
			"max" : [ 0.8072022795677185, 0.9976069331169128, 1 ]
		},
		{
			"bufferView" : 2,
			"byteOffset" : 0,
			"componentType" : 5126,
			"count" : 396,
			"type" : "VEC3"
		},
		{
			"bufferView" : 3,
			"byteOffset" : 0,
			"componentType" : 5123,
			"count" : 396,
			"type" : "SCALAR",
			"min" : [ 0 ],
			"max" : [ 395 ]
		}
	],
	"bufferViews" : [
		{
			"buffer" : 0,
			"byteOffset" : 0,
			"byteLength" : 4752,
			"target" : 34962
		},
		{
			"buffer" : 0,
			"byteOffset" : 4752,
			"byteLength" : 4752,
			"target" : 34962
		},
		{
			"buffer" : 0,
			"byteOffset" : 9504,
			"byteLength" : 4752,
			"target" : 34962
		},
		{
			"buffer" : 0,
			"byteOffset" : 14256,
			"byteLength" : 792,
			"target" : 34963
		}
	],
	"buffers" : [
		{
			"uri" : "B340281580901063C0.bin",
			"byteLength" : 15048
		}
	]
}
