{
	"asset" : {
		"generator" : "FME 2023.1.0.0",
		"version" : "2.0"
	},
	"materials" : [
		{
			"name" : "default_material",
			"pbrMetallicRoughness" : {
				"baseColorFactor" : [ 1, 1, 1, 1 ],
				"roughnessFactor" : 0.30000000000000004,
				"metallicFactor" : 0.5
			}
		}
	],
	"meshes" : [
		{
			"primitives" : [
				{
					"attributes" : {
						"NORMAL" : 1,
						"POSITION" : 0,
						"COLOR_0" : 2
					},
					"indices" : 3,
					"material" : 0,
					"mode" : 4
				}
			]
		}
	],
	"nodes" : [
		{
			"name" : "B340651629801063C0",
			"matrix" : [ 1, 0, 0, 0, 0, 0, -1, 0, 0, 1, 0, 0, 834054.875, 3.2230000495910645, -816281.875, 1 ],
			"children" : [ 1 ]
		},
		{
			"mesh" : 0
		}
	],
	"scenes" : [
		{
			"nodes" : [ 0 ]
		}
	],
	"scene" : 0,
	"accessors" : [
		{
			"bufferView" : 0,
			"byteOffset" : 0,
			"componentType" : 5126,
			"count" : 1491,
			"type" : "VEC3",
			"min" : [ -23.2880859375, -22.79296875, 0 ],
			"max" : [ 23.2880859375, 22.7919921875, 102.63700103759766 ]
		},
		{
			"bufferView" : 1,
			"byteOffset" : 0,
			"componentType" : 5126,
			"count" : 1491,
			"type" : "VEC3",
			"min" : [ -0.9664556384086609, -0.9664556384086609, -1 ],
			"max" : [ 0.9659820199012756, 0.96632981300354, 1 ]
		},
		{
			"bufferView" : 2,
			"byteOffset" : 0,
			"componentType" : 5126,
			"count" : 1491,
			"type" : "VEC3"
		},
		{
			"bufferView" : 3,
			"byteOffset" : 0,
			"componentType" : 5123,
			"count" : 1491,
			"type" : "SCALAR",
			"min" : [ 0 ],
			"max" : [ 1490 ]
		}
	],
	"bufferViews" : [
		{
			"buffer" : 0,
			"byteOffset" : 0,
			"byteLength" : 17892,
			"target" : 34962
		},
		{
			"buffer" : 0,
			"byteOffset" : 17892,
			"byteLength" : 17892,
			"target" : 34962
		},
		{
			"buffer" : 0,
			"byteOffset" : 35784,
			"byteLength" : 17892,
			"target" : 34962
		},
		{
			"buffer" : 0,
			"byteOffset" : 53676,
			"byteLength" : 2982,
			"target" : 34963
		}
	],
	"buffers" : [
		{
			"uri" : "B340651629801063C0.bin",
			"byteLength" : 56658
		}
	]
}
