{
	"asset" : {
		"generator" : "FME 2023.1.0.0",
		"version" : "2.0"
	},
	"materials" : [
		{
			"name" : "default_material",
			"pbrMetallicRoughness" : {
				"baseColorFactor" : [ 1, 1, 1, 1 ],
				"roughnessFactor" : 0.30000000000000004,
				"metallicFactor" : 0.5
			}
		}
	],
	"meshes" : [
		{
			"primitives" : [
				{
					"attributes" : {
						"NORMAL" : 1,
						"POSITION" : 0,
						"COLOR_0" : 2
					},
					"indices" : 3,
					"material" : 0,
					"mode" : 4
				}
			]
		}
	],
	"nodes" : [
		{
			"name" : "B342541606501063C0",
			"matrix" : [ 1, 0, 0, 0, 0, 0, -1, 0, 0, 1, 0, 0, 834250.75, 3.5889999866485596, -816055.375, 1 ],
			"children" : [ 1 ]
		},
		{
			"mesh" : 0
		}
	],
	"scenes" : [
		{
			"nodes" : [ 0 ]
		}
	],
	"scene" : 0,
	"accessors" : [
		{
			"bufferView" : 0,
			"byteOffset" : 0,
			"componentType" : 5126,
			"count" : 2823,
			"type" : "VEC3",
			"min" : [ -14.4345703125, -15.208984375, 0 ],
			"max" : [ 14.521484375, 15.27734375, 43.37199783325195 ]
		},
		{
			"bufferView" : 1,
			"byteOffset" : 0,
			"componentType" : 5126,
			"count" : 2823,
			"type" : "VEC3",
			"min" : [ -0.991811215877533, -0.9918553829193115, -1 ],
			"max" : [ 0.9999622702598572, 0.9916004538536072, 1 ]
		},
		{
			"bufferView" : 2,
			"byteOffset" : 0,
			"componentType" : 5126,
			"count" : 2823,
			"type" : "VEC3"
		},
		{
			"bufferView" : 3,
			"byteOffset" : 0,
			"componentType" : 5123,
			"count" : 2823,
			"type" : "SCALAR",
			"min" : [ 0 ],
			"max" : [ 2822 ]
		}
	],
	"bufferViews" : [
		{
			"buffer" : 0,
			"byteOffset" : 0,
			"byteLength" : 33876,
			"target" : 34962
		},
		{
			"buffer" : 0,
			"byteOffset" : 33876,
			"byteLength" : 33876,
			"target" : 34962
		},
		{
			"buffer" : 0,
			"byteOffset" : 67752,
			"byteLength" : 33876,
			"target" : 34962
		},
		{
			"buffer" : 0,
			"byteOffset" : 101628,
			"byteLength" : 5646,
			"target" : 34963
		}
	],
	"buffers" : [
		{
			"uri" : "B342541606501063C0.bin",
			"byteLength" : 107274
		}
	]
}
