{
	"asset" : {
		"generator" : "FME 2023.1.0.0",
		"version" : "2.0"
	},
	"materials" : [
		{
			"name" : "default_material",
			"pbrMetallicRoughness" : {
				"baseColorFactor" : [ 1, 1, 1, 1 ],
				"roughnessFactor" : 0.30000000000000004,
				"metallicFactor" : 0.5
			}
		}
	],
	"meshes" : [
		{
			"primitives" : [
				{
					"attributes" : {
						"NORMAL" : 1,
						"POSITION" : 0,
						"COLOR_0" : 2
					},
					"indices" : 3,
					"material" : 0,
					"mode" : 4
				}
			]
		}
	],
	"nodes" : [
		{
			"name" : "B332501652301063C0",
			"matrix" : [ 1, 0, 0, 0, 0, 0, -1, 0, 0, 1, 0, 0, 833250.1875, 18.54199981689453, -816515.375, 1 ],
			"children" : [ 1 ]
		},
		{
			"mesh" : 0
		}
	],
	"scenes" : [
		{
			"nodes" : [ 0 ]
		}
	],
	"scene" : 0,
	"accessors" : [
		{
			"bufferView" : 0,
			"byteOffset" : 0,
			"componentType" : 5126,
			"count" : 4317,
			"type" : "VEC3",
			"min" : [ -24.193359375, -16.6416015625, 0 ],
			"max" : [ 24.193359375, 16.642578125, 125.65300750732422 ]
		},
		{
			"bufferView" : 1,
			"byteOffset" : 0,
			"componentType" : 5126,
			"count" : 4317,
			"type" : "VEC3",
			"min" : [ -0.9997918605804443, -0.9996730089187622, -1 ],
			"max" : [ 1, 0.9986914396286011, 1 ]
		},
		{
			"bufferView" : 2,
			"byteOffset" : 0,
			"componentType" : 5126,
			"count" : 4317,
			"type" : "VEC3"
		},
		{
			"bufferView" : 3,
			"byteOffset" : 0,
			"componentType" : 5123,
			"count" : 4317,
			"type" : "SCALAR",
			"min" : [ 0 ],
			"max" : [ 4316 ]
		}
	],
	"bufferViews" : [
		{
			"buffer" : 0,
			"byteOffset" : 0,
			"byteLength" : 51804,
			"target" : 34962
		},
		{
			"buffer" : 0,
			"byteOffset" : 51804,
			"byteLength" : 51804,
			"target" : 34962
		},
		{
			"buffer" : 0,
			"byteOffset" : 103608,
			"byteLength" : 51804,
			"target" : 34962
		},
		{
			"buffer" : 0,
			"byteOffset" : 155412,
			"byteLength" : 8634,
			"target" : 34963
		}
	],
	"buffers" : [
		{
			"uri" : "B332501652301063C0.bin",
			"byteLength" : 164046
		}
	]
}
