{
	"asset" : {
		"generator" : "FME 2023.1.0.0",
		"version" : "2.0"
	},
	"materials" : [
		{
			"name" : "default_material",
			"pbrMetallicRoughness" : {
				"baseColorFactor" : [ 1, 1, 1, 1 ],
				"roughnessFactor" : 0.30000000000000004,
				"metallicFactor" : 0.5
			}
		}
	],
	"meshes" : [
		{
			"primitives" : [
				{
					"attributes" : {
						"NORMAL" : 1,
						"POSITION" : 0,
						"COLOR_0" : 2
					},
					"indices" : 3,
					"material" : 0,
					"mode" : 4
				}
			]
		}
	],
	"nodes" : [
		{
			"name" : "B333121620801063C0",
			"matrix" : [ 1, 0, 0, 0, 0, 0, -1, 0, 0, 1, 0, 0, 833311.125, 27.266000747680664, -816202.375, 1 ],
			"children" : [ 1 ]
		},
		{
			"mesh" : 0
		}
	],
	"scenes" : [
		{
			"nodes" : [ 0 ]
		}
	],
	"scene" : 0,
	"accessors" : [
		{
			"bufferView" : 0,
			"byteOffset" : 0,
			"componentType" : 5126,
			"count" : 480,
			"type" : "VEC3",
			"min" : [ -9.5966796875, -8.9736328125, 0 ],
			"max" : [ 9.580078125, 9.02734375, 22.66900062561035 ]
		},
		{
			"bufferView" : 1,
			"byteOffset" : 0,
			"componentType" : 5126,
			"count" : 480,
			"type" : "VEC3",
			"min" : [ -0.7987534403800964, -0.7742281556129456, -0.006387379486113787 ],
			"max" : [ 0.8711245656013489, 1, 1 ]
		},
		{
			"bufferView" : 2,
			"byteOffset" : 0,
			"componentType" : 5126,
			"count" : 480,
			"type" : "VEC3"
		},
		{
			"bufferView" : 3,
			"byteOffset" : 0,
			"componentType" : 5123,
			"count" : 480,
			"type" : "SCALAR",
			"min" : [ 0 ],
			"max" : [ 479 ]
		}
	],
	"bufferViews" : [
		{
			"buffer" : 0,
			"byteOffset" : 0,
			"byteLength" : 5760,
			"target" : 34962
		},
		{
			"buffer" : 0,
			"byteOffset" : 5760,
			"byteLength" : 5760,
			"target" : 34962
		},
		{
			"buffer" : 0,
			"byteOffset" : 11520,
			"byteLength" : 5760,
			"target" : 34962
		},
		{
			"buffer" : 0,
			"byteOffset" : 17280,
			"byteLength" : 960,
			"target" : 34963
		}
	],
	"buffers" : [
		{
			"uri" : "B333121620801063C0.bin",
			"byteLength" : 18240
		}
	]
}
