{
	"asset" : {
		"generator" : "FME 2023.2.1.0",
		"version" : "2.0"
	},
	"materials" : [
		{
			"name" : "default_material",
			"pbrMetallicRoughness" : {
				"baseColorFactor" : [ 1, 1, 1, 1 ],
				"roughnessFactor" : 0.30000000000000004,
				"metallicFactor" : 0.5
			}
		}
	],
	"meshes" : [
		{
			"primitives" : [
				{
					"attributes" : {
						"NORMAL" : 1,
						"POSITION" : 0,
						"COLOR_0" : 2
					},
					"indices" : 3,
					"material" : 0,
					"mode" : 4
				}
			]
		}
	],
	"nodes" : [
		{
			"name" : "B358301564001063C0",
			"matrix" : [ 1, 0, 0, 0, 0, 0, -1, 0, 0, 1, 0, 0, 835828.8125, 3.9970016479492188, -815640.8125, 1 ],
			"children" : [ 1 ]
		},
		{
			"mesh" : 0
		}
	],
	"scenes" : [
		{
			"nodes" : [ 0 ]
		}
	],
	"scene" : 0,
	"accessors" : [
		{
			"bufferView" : 0,
			"byteOffset" : 0,
			"componentType" : 5126,
			"count" : 36,
			"type" : "VEC3",
			"min" : [ -5.3056640625, -1.33203125, 0 ],
			"max" : [ 5.306640625, 1.33203125, 3.11299991607666 ]
		},
		{
			"bufferView" : 1,
			"byteOffset" : 0,
			"componentType" : 5126,
			"count" : 36,
			"type" : "VEC3",
			"min" : [ -0.9967605471611023, -0.9967361688613892, -1 ],
			"max" : [ 0.9967640042304993, 0.9967286586761475, 1 ]
		},
		{
			"bufferView" : 2,
			"byteOffset" : 0,
			"componentType" : 5126,
			"count" : 36,
			"type" : "VEC3"
		},
		{
			"bufferView" : 3,
			"byteOffset" : 0,
			"componentType" : 5121,
			"count" : 36,
			"type" : "SCALAR",
			"min" : [ 0 ],
			"max" : [ 35 ]
		}
	],
	"bufferViews" : [
		{
			"buffer" : 0,
			"byteOffset" : 0,
			"byteLength" : 432,
			"target" : 34962
		},
		{
			"buffer" : 0,
			"byteOffset" : 432,
			"byteLength" : 432,
			"target" : 34962
		},
		{
			"buffer" : 0,
			"byteOffset" : 864,
			"byteLength" : 432,
			"target" : 34962
		},
		{
			"buffer" : 0,
			"byteOffset" : 1296,
			"byteLength" : 36,
			"target" : 34963
		}
	],
	"buffers" : [
		{
			"uri" : "B358301564001063C0.bin",
			"byteLength" : 1332
		}
	]
}
