{
	"asset" : {
		"generator" : "FME 2023.1.0.0",
		"version" : "2.0"
	},
	"materials" : [
		{
			"name" : "default_material",
			"pbrMetallicRoughness" : {
				"baseColorFactor" : [ 1, 1, 1, 1 ],
				"roughnessFactor" : 0.30000000000000004,
				"metallicFactor" : 0.5
			}
		}
	],
	"meshes" : [
		{
			"primitives" : [
				{
					"attributes" : {
						"NORMAL" : 1,
						"POSITION" : 0,
						"COLOR_0" : 2
					},
					"indices" : 3,
					"material" : 0,
					"mode" : 4
				}
			]
		}
	],
	"nodes" : [
		{
			"name" : "B341821633001063C0",
			"matrix" : [ 1, 0, 0, 0, 0, 0, -1, 0, 0, 1, 0, 0, 834182.125, 15.23799991607666, -816330.875, 1 ],
			"children" : [ 1 ]
		},
		{
			"mesh" : 0
		}
	],
	"scenes" : [
		{
			"nodes" : [ 0 ]
		}
	],
	"scene" : 0,
	"accessors" : [
		{
			"bufferView" : 0,
			"byteOffset" : 0,
			"componentType" : 5126,
			"count" : 897,
			"type" : "VEC3",
			"min" : [ -5.2802734375, -4.509765625, 0 ],
			"max" : [ 5.2724609375, 4.4423828125, 9.696999549865723 ]
		},
		{
			"bufferView" : 1,
			"byteOffset" : 0,
			"componentType" : 5126,
			"count" : 897,
			"type" : "VEC3",
			"min" : [ -1, -0.998769223690033, -2.5097378966165707e-5 ],
			"max" : [ 0.9999985694885254, 0.9987362027168274, 1 ]
		},
		{
			"bufferView" : 2,
			"byteOffset" : 0,
			"componentType" : 5126,
			"count" : 897,
			"type" : "VEC3"
		},
		{
			"bufferView" : 3,
			"byteOffset" : 0,
			"componentType" : 5123,
			"count" : 897,
			"type" : "SCALAR",
			"min" : [ 0 ],
			"max" : [ 896 ]
		}
	],
	"bufferViews" : [
		{
			"buffer" : 0,
			"byteOffset" : 0,
			"byteLength" : 10764,
			"target" : 34962
		},
		{
			"buffer" : 0,
			"byteOffset" : 10764,
			"byteLength" : 10764,
			"target" : 34962
		},
		{
			"buffer" : 0,
			"byteOffset" : 21528,
			"byteLength" : 10764,
			"target" : 34962
		},
		{
			"buffer" : 0,
			"byteOffset" : 32292,
			"byteLength" : 1794,
			"target" : 34963
		}
	],
	"buffers" : [
		{
			"uri" : "B341821633001063C0.bin",
			"byteLength" : 34086
		}
	]
}
