<svg xmlns="http://www.w3.org/2000/svg" width="8000" height="2200" viewBox="0 0 8000 2200">
  <path d="M 0.00 1980.00 Q 430.49 1978.38 481.32 1957.01 Q 532.14 1935.64 579.97 1884.07 Q 627.80 1832.51 666.67 1774.15 Q 705.53 1715.79 825.11 1460.35 Q 944.69 1204.91 971.60 1170.89 Q 998.51 1136.87 1028.40 1118.87 Q 1058.30 1100.86 1094.17 1097.34 Q 1130.04 1093.81 1216.74 1110.98 Q 1303.44 1128.15 1387.14 1082.03 Q 1470.85 1035.91 1500.75 1029.42 Q 1530.64 1022.94 1557.55 1031.31 Q 1584.45 1039.68 1662.18 1086.68 Q 1739.91 1133.68 1769.81 1132.33 Q 1799.70 1130.97 1862.48 1102.44 Q 1925.26 1073.91 1955.16 1070.15 Q 1985.05 1066.38 2044.84 1085.84 Q 2104.63 1105.29 2203.29 1157.55 Q 2301.94 1209.80 2346.79 1205.88 Q 2391.63 1201.96 2421.52 1176.55 Q 2451.42 1151.13 2535.13 1048.79 Q 2618.83 946.45 2702.54 867.10 Q 2786.25 787.75 2869.96 671.11 Q 2953.66 554.46 3034.38 495.05 Q 3115.10 435.63 3186.85 325.95 Q 3258.59 216.28 3288.49 198.14 Q 3318.39 180.00 3339.31 189.97 Q 3360.24 199.93 3384.16 227.69 Q 3408.07 255.45 3644.25 603.93 Q 3880.42 952.41 3925.26 1006.08 Q 3970.10 1059.75 4000.00 1081.88 Q 4029.90 1104.01 4056.80 1100.13 Q 4083.71 1096.25 4110.61 1060.17 Q 4137.52 1024.09 4251.12 676.86 Q 4364.72 329.62 4394.62 280.14 Q 4424.51 230.65 4457.40 218.27 Q 4490.28 205.89 4514.20 219.35 Q 4538.12 232.81 4624.81 313.18 Q 4711.51 393.55 4792.23 419.87 Q 4872.94 446.20 4944.69 459.36 Q 5016.44 472.53 5052.32 499.83 Q 5088.19 527.13 5130.04 606.28 Q 5171.90 685.43 5279.52 973.99 Q 5387.14 1262.54 5414.05 1310.60 Q 5440.96 1358.65 5467.86 1384.05 Q 5494.77 1409.45 5521.67 1413.66 Q 5548.58 1417.87 5578.48 1403.75 Q 5608.37 1389.63 5656.20 1346.78 Q 5704.04 1303.92 5802.69 1193.19 Q 5901.35 1082.47 5934.23 1062.08 Q 5967.12 1041.69 5997.01 1039.14 Q 6026.91 1036.58 6071.75 1072.23 Q 6116.59 1107.89 6215.25 1257.59 Q 6313.90 1407.30 6343.80 1427.89 Q 6373.69 1448.48 6448.43 1468.91 Q 6523.17 1489.35 6559.04 1510.78 Q 6594.92 1532.22 6720.48 1687.90 Q 6846.04 1843.58 6887.89 1878.56 Q 6929.75 1913.54 6956.65 1918.90 Q 6983.56 1924.26 7019.43 1914.57 Q 7055.31 1904.87 7133.03 1862.73 Q 7210.76 1820.59 7285.50 1768.44 Q 7360.24 1716.29 7396.11 1706.20 Q 7431.99 1696.11 7473.84 1715.05 Q 7515.70 1733.99 7593.42 1816.12 Q 7671.15 1898.26 7710.01 1927.05 Q 7748.88 1955.84 7787.74 1966.74 Q 7826.61 1977.65 7913.30 1978.83 T 8000.00 1980.00" fill="none" stroke="#000" stroke-width="18" stroke-linecap="round" stroke-linejoin="round"/>
</svg>
