{
	"asset" : {
		"generator" : "FME 2022.2.4.0",
		"version" : "2.0"
	},
	"materials" : [
		{
			"name" : "default_material",
			"pbrMetallicRoughness" : {
				"baseColorFactor" : [ 1, 1, 1, 1 ],
				"roughnessFactor" : 0.30000000000000004,
				"metallicFactor" : 0.5
			}
		}
	],
	"meshes" : [
		{
			"primitives" : [
				{
					"attributes" : {
						"NORMAL" : 1,
						"POSITION" : 0,
						"COLOR_0" : 2
					},
					"indices" : 3,
					"material" : 0,
					"mode" : 4
				}
			]
		}
	],
	"nodes" : [
		{
			"name" : "B337011606201063C0",
			"matrix" : [ 1, 0, 0, 0, 0, 0, -1, 0, 0, 1, 0, 0, 833694.6875, 38.86399841308594, -816069.375, 1 ],
			"children" : [ 1 ]
		},
		{
			"mesh" : 0
		}
	],
	"scenes" : [
		{
			"nodes" : [ 0 ]
		}
	],
	"scene" : 0,
	"accessors" : [
		{
			"bufferView" : 0,
			"byteOffset" : 0,
			"componentType" : 5126,
			"count" : 22755,
			"type" : "VEC3",
			"min" : [ -30.126953125, -28.8955078125, 0 ],
			"max" : [ 30.1240234375, 28.8935546875, 35.222999572753906 ]
		},
		{
			"bufferView" : 1,
			"byteOffset" : 0,
			"componentType" : 5126,
			"count" : 22755,
			"type" : "VEC3",
			"min" : [ -0.9741122126579285, -0.9907342195510864, -1 ],
			"max" : [ 0.8320503234863281, 1, 1 ]
		},
		{
			"bufferView" : 2,
			"byteOffset" : 0,
			"componentType" : 5126,
			"count" : 22755,
			"type" : "VEC3"
		},
		{
			"bufferView" : 3,
			"byteOffset" : 0,
			"componentType" : 5123,
			"count" : 22755,
			"type" : "SCALAR",
			"min" : [ 0 ],
			"max" : [ 22754 ]
		}
	],
	"bufferViews" : [
		{
			"buffer" : 0,
			"byteOffset" : 0,
			"byteLength" : 273060,
			"target" : 34962
		},
		{
			"buffer" : 0,
			"byteOffset" : 273060,
			"byteLength" : 273060,
			"target" : 34962
		},
		{
			"buffer" : 0,
			"byteOffset" : 546120,
			"byteLength" : 273060,
			"target" : 34962
		},
		{
			"buffer" : 0,
			"byteOffset" : 819180,
			"byteLength" : 45510,
			"target" : 34963
		}
	],
	"buffers" : [
		{
			"uri" : "B337011606201063C0.bin",
			"byteLength" : 864690
		}
	]
}
