{
	"asset" : {
		"generator" : "FME 2023.1.0.0",
		"version" : "2.0"
	},
	"materials" : [
		{
			"name" : "default_material",
			"pbrMetallicRoughness" : {
				"baseColorFactor" : [ 1, 1, 1, 1 ],
				"roughnessFactor" : 0.30000000000000004,
				"metallicFactor" : 0.5
			}
		}
	],
	"meshes" : [
		{
			"primitives" : [
				{
					"attributes" : {
						"NORMAL" : 1,
						"POSITION" : 0,
						"COLOR_0" : 2
					},
					"indices" : 3,
					"material" : 0,
					"mode" : 4
				}
			]
		}
	],
	"nodes" : [
		{
			"name" : "B365441959801063C0",
			"matrix" : [ 1, 0, 0, 0, 0, 0, -1, 0, 0, 1, 0, 0, 836544.375, 42.88600158691406, -819596.9375, 1 ],
			"children" : [ 1 ]
		},
		{
			"mesh" : 0
		}
	],
	"scenes" : [
		{
			"nodes" : [ 0 ]
		}
	],
	"scene" : 0,
	"accessors" : [
		{
			"bufferView" : 0,
			"byteOffset" : 0,
			"componentType" : 5126,
			"count" : 5391,
			"type" : "VEC3",
			"min" : [ -16.0703125, -19.5859375, 0 ],
			"max" : [ 16.0703125, 19.5859375, 48.900001525878906 ]
		},
		{
			"bufferView" : 1,
			"byteOffset" : 0,
			"componentType" : 5126,
			"count" : 5391,
			"type" : "VEC3",
			"min" : [ -1, -1, -1 ],
			"max" : [ 1, 1, 1 ]
		},
		{
			"bufferView" : 2,
			"byteOffset" : 0,
			"componentType" : 5126,
			"count" : 5391,
			"type" : "VEC3"
		},
		{
			"bufferView" : 3,
			"byteOffset" : 0,
			"componentType" : 5123,
			"count" : 5391,
			"type" : "SCALAR",
			"min" : [ 0 ],
			"max" : [ 5390 ]
		}
	],
	"bufferViews" : [
		{
			"buffer" : 0,
			"byteOffset" : 0,
			"byteLength" : 64692,
			"target" : 34962
		},
		{
			"buffer" : 0,
			"byteOffset" : 64692,
			"byteLength" : 64692,
			"target" : 34962
		},
		{
			"buffer" : 0,
			"byteOffset" : 129384,
			"byteLength" : 64692,
			"target" : 34962
		},
		{
			"buffer" : 0,
			"byteOffset" : 194076,
			"byteLength" : 10782,
			"target" : 34963
		}
	],
	"buffers" : [
		{
			"uri" : "B365441959801063C0.bin",
			"byteLength" : 204858
		}
	]
}
