{
	"asset" : {
		"generator" : "FME 2022.2.4.0",
		"version" : "2.0"
	},
	"materials" : [
		{
			"name" : "default_material",
			"pbrMetallicRoughness" : {
				"baseColorFactor" : [ 1, 1, 1, 1 ],
				"roughnessFactor" : 0.30000000000000004,
				"metallicFactor" : 0.5
			}
		}
	],
	"meshes" : [
		{
			"primitives" : [
				{
					"attributes" : {
						"NORMAL" : 1,
						"POSITION" : 0,
						"COLOR_0" : 2
					},
					"indices" : 3,
					"material" : 0,
					"mode" : 4
				}
			]
		}
	],
	"nodes" : [
		{
			"name" : "B343691525101063C0",
			"matrix" : [ 1, 0, 0, 0, 0, 0, -1, 0, 0, 1, 0, 0, 834367.625, 58.382999420166016, -815244.125, 1 ],
			"children" : [ 1 ]
		},
		{
			"mesh" : 0
		}
	],
	"scenes" : [
		{
			"nodes" : [ 0 ]
		}
	],
	"scene" : 0,
	"accessors" : [
		{
			"bufferView" : 0,
			"byteOffset" : 0,
			"componentType" : 5126,
			"count" : 801,
			"type" : "VEC3",
			"min" : [ -12.783203125, -9.8642578125, 0 ],
			"max" : [ 12.7841796875, 9.86328125, 45.781002044677734 ]
		},
		{
			"bufferView" : 1,
			"byteOffset" : 0,
			"componentType" : 5126,
			"count" : 801,
			"type" : "VEC3",
			"min" : [ -0.9945467114448547, -0.9951138496398926, -0.09487291425466537 ],
			"max" : [ 0.9957352876663208, 0.9961637854576111, 1 ]
		},
		{
			"bufferView" : 2,
			"byteOffset" : 0,
			"componentType" : 5126,
			"count" : 801,
			"type" : "VEC3"
		},
		{
			"bufferView" : 3,
			"byteOffset" : 0,
			"componentType" : 5123,
			"count" : 801,
			"type" : "SCALAR",
			"min" : [ 0 ],
			"max" : [ 800 ]
		}
	],
	"bufferViews" : [
		{
			"buffer" : 0,
			"byteOffset" : 0,
			"byteLength" : 9612,
			"target" : 34962
		},
		{
			"buffer" : 0,
			"byteOffset" : 9612,
			"byteLength" : 9612,
			"target" : 34962
		},
		{
			"buffer" : 0,
			"byteOffset" : 19224,
			"byteLength" : 9612,
			"target" : 34962
		},
		{
			"buffer" : 0,
			"byteOffset" : 28836,
			"byteLength" : 1602,
			"target" : 34963
		}
	],
	"buffers" : [
		{
			"uri" : "B343691525101063C0.bin",
			"byteLength" : 30438
		}
	]
}
