{
	"asset" : {
		"generator" : "FME 2023.2.2.0",
		"version" : "2.0"
	},
	"images" : [
		{
			"uri" : "T45000192000106E10_001.jpg"
		}
	],
	"samplers" : [
		{
			"wrapS" : 10497,
			"wrapT" : 10497,
			"magFilter" : 9729,
			"minFilter" : 9986
		}
	],
	"textures" : [
		{
			"source" : 0,
			"sampler" : 0
		}
	],
	"materials" : [
		{
			"name" : "T45000192000106E10_001",
			"pbrMetallicRoughness" : {
				"baseColorTexture" : {
					"index" : 0,
					"texCoord" : 0
				},
				"roughnessFactor" : 0.9843750009313226,
				"metallicFactor" : 0.5
			}
		}
	],
	"meshes" : [
		{
			"primitives" : [
				{
					"attributes" : {
						"NORMAL" : 1,
						"POSITION" : 0,
						"TEXCOORD_0" : 2
					},
					"indices" : 3,
					"material" : 0,
					"mode" : 4
				}
			]
		}
	],
	"nodes" : [
		{
			"name" : "T45000192000106E10",
			"matrix" : [ 1, 0, 0, 0, 0, 0, -1, 0, 0, 1, 0, 0, 845375, 2.899993896484375, -819500, 1 ],
			"children" : [ 1 ]
		},
		{
			"mesh" : 0
		}
	],
	"scenes" : [
		{
			"nodes" : [ 0 ]
		}
	],
	"scene" : 0,
	"accessors" : [
		{
			"bufferView" : 0,
			"byteOffset" : 0,
			"componentType" : 5126,
			"count" : 35524,
			"type" : "VEC3",
			"min" : [ -375, -300, 0 ],
			"max" : [ 375, 300, 67.36582946777344 ]
		},
		{
			"bufferView" : 1,
			"byteOffset" : 0,
			"componentType" : 5126,
			"count" : 35524,
			"type" : "VEC3",
			"min" : [ -0.9409304857254028, -0.893714427947998, 0.28372716903686523 ],
			"max" : [ 0.946039617061615, 0.9504886865615845, 1 ]
		},
		{
			"bufferView" : 2,
			"byteOffset" : 0,
			"componentType" : 5126,
			"count" : 35524,
			"type" : "VEC2",
			"min" : [ -5.960464477539063e-8, 0 ],
			"max" : [ 1, 1 ]
		},
		{
			"bufferView" : 3,
			"byteOffset" : 0,
			"componentType" : 5123,
			"count" : 208059,
			"type" : "SCALAR",
			"min" : [ 0 ],
			"max" : [ 35523 ]
		}
	],
	"bufferViews" : [
		{
			"buffer" : 0,
			"byteOffset" : 0,
			"byteLength" : 426288,
			"target" : 34962
		},
		{
			"buffer" : 0,
			"byteOffset" : 426288,
			"byteLength" : 426288,
			"target" : 34962
		},
		{
			"buffer" : 0,
			"byteOffset" : 852576,
			"byteLength" : 284192,
			"target" : 34962
		},
		{
			"buffer" : 0,
			"byteOffset" : 1136768,
			"byteLength" : 416118,
			"target" : 34963
		}
	],
	"buffers" : [
		{
			"uri" : "T45000192000106E10.bin",
			"byteLength" : 1552886
		}
	]
}
