{
	"asset" : {
		"generator" : "FME 2023.1.0.0",
		"version" : "2.0"
	},
	"materials" : [
		{
			"name" : "default_material",
			"pbrMetallicRoughness" : {
				"baseColorFactor" : [ 1, 1, 1, 1 ],
				"roughnessFactor" : 0.30000000000000004,
				"metallicFactor" : 0.5
			}
		}
	],
	"meshes" : [
		{
			"primitives" : [
				{
					"attributes" : {
						"NORMAL" : 1,
						"POSITION" : 0,
						"COLOR_0" : 2
					},
					"indices" : 3,
					"material" : 0,
					"mode" : 4
				}
			]
		}
	],
	"nodes" : [
		{
			"name" : "B332801622302063C0",
			"matrix" : [ 1, 0, 0, 0, 0, 0, -1, 0, 0, 1, 0, 0, 833280.625, 19.24799919128418, -816222.3125, 1 ],
			"children" : [ 1 ]
		},
		{
			"mesh" : 0
		}
	],
	"scenes" : [
		{
			"nodes" : [ 0 ]
		}
	],
	"scene" : 0,
	"accessors" : [
		{
			"bufferView" : 0,
			"byteOffset" : 0,
			"componentType" : 5126,
			"count" : 564,
			"type" : "VEC3",
			"min" : [ -15.447265625, -11.7314453125, 0 ],
			"max" : [ 15.404296875, 11.767578125, 17.3439998626709 ]
		},
		{
			"bufferView" : 1,
			"byteOffset" : 0,
			"componentType" : 5126,
			"count" : 564,
			"type" : "VEC3",
			"min" : [ -0.9859933257102966, -0.989253580570221, -1 ],
			"max" : [ 0.7745760083198547, 0.7669039964675903, 1 ]
		},
		{
			"bufferView" : 2,
			"byteOffset" : 0,
			"componentType" : 5126,
			"count" : 564,
			"type" : "VEC3"
		},
		{
			"bufferView" : 3,
			"byteOffset" : 0,
			"componentType" : 5123,
			"count" : 564,
			"type" : "SCALAR",
			"min" : [ 0 ],
			"max" : [ 563 ]
		}
	],
	"bufferViews" : [
		{
			"buffer" : 0,
			"byteOffset" : 0,
			"byteLength" : 6768,
			"target" : 34962
		},
		{
			"buffer" : 0,
			"byteOffset" : 6768,
			"byteLength" : 6768,
			"target" : 34962
		},
		{
			"buffer" : 0,
			"byteOffset" : 13536,
			"byteLength" : 6768,
			"target" : 34962
		},
		{
			"buffer" : 0,
			"byteOffset" : 20304,
			"byteLength" : 1128,
			"target" : 34963
		}
	],
	"buffers" : [
		{
			"uri" : "B332801622302063C0.bin",
			"byteLength" : 21432
		}
	]
}
