{
	"asset" : {
		"generator" : "FME 2023.2.1.0",
		"version" : "2.0"
	},
	"materials" : [
		{
			"name" : "default_material",
			"pbrMetallicRoughness" : {
				"baseColorFactor" : [ 1, 1, 1, 1 ],
				"roughnessFactor" : 0.30000000000000004,
				"metallicFactor" : 0.5
			}
		}
	],
	"meshes" : [
		{
			"primitives" : [
				{
					"attributes" : {
						"NORMAL" : 1,
						"POSITION" : 0,
						"COLOR_0" : 2
					},
					"indices" : 3,
					"material" : 0,
					"mode" : 4
				}
			]
		}
	],
	"nodes" : [
		{
			"name" : "B334731589602063C0",
			"matrix" : [ 1, 0, 0, 0, 0, 0, -1, 0, 0, 1, 0, 0, 833472.8125, 93.13201904296875, -815895.5, 1 ],
			"children" : [ 1 ]
		},
		{
			"mesh" : 0
		}
	],
	"scenes" : [
		{
			"nodes" : [ 0 ]
		}
	],
	"scene" : 0,
	"accessors" : [
		{
			"bufferView" : 0,
			"byteOffset" : 0,
			"componentType" : 5126,
			"count" : 3003,
			"type" : "VEC3",
			"min" : [ -23.9853515625, -27.98046875, 0 ],
			"max" : [ 23.986328125, 27.9814453125, 29.343994140625 ]
		},
		{
			"bufferView" : 1,
			"byteOffset" : 0,
			"componentType" : 5126,
			"count" : 3003,
			"type" : "VEC3",
			"min" : [ -0.9999395608901978, -0.9999424815177917, -1 ],
			"max" : [ 0.9999411106109619, 0.9998573064804077, 1 ]
		},
		{
			"bufferView" : 2,
			"byteOffset" : 0,
			"componentType" : 5126,
			"count" : 3003,
			"type" : "VEC3"
		},
		{
			"bufferView" : 3,
			"byteOffset" : 0,
			"componentType" : 5123,
			"count" : 3003,
			"type" : "SCALAR",
			"min" : [ 0 ],
			"max" : [ 3002 ]
		}
	],
	"bufferViews" : [
		{
			"buffer" : 0,
			"byteOffset" : 0,
			"byteLength" : 36036,
			"target" : 34962
		},
		{
			"buffer" : 0,
			"byteOffset" : 36036,
			"byteLength" : 36036,
			"target" : 34962
		},
		{
			"buffer" : 0,
			"byteOffset" : 72072,
			"byteLength" : 36036,
			"target" : 34962
		},
		{
			"buffer" : 0,
			"byteOffset" : 108108,
			"byteLength" : 6006,
			"target" : 34963
		}
	],
	"buffers" : [
		{
			"uri" : "B334731589602063C0.bin",
			"byteLength" : 114114
		}
	]
}
