{
	"asset" : {
		"generator" : "FME 2023.2.1.0",
		"version" : "2.0"
	},
	"materials" : [
		{
			"name" : "default_material",
			"pbrMetallicRoughness" : {
				"baseColorFactor" : [ 1, 1, 1, 1 ],
				"roughnessFactor" : 0.30000000000000004,
				"metallicFactor" : 0.5
			}
		}
	],
	"meshes" : [
		{
			"primitives" : [
				{
					"attributes" : {
						"NORMAL" : 1,
						"POSITION" : 0,
						"COLOR_0" : 2
					},
					"indices" : 3,
					"material" : 0,
					"mode" : 4
				}
			]
		}
	],
	"nodes" : [
		{
			"name" : "B354761532901063C0",
			"matrix" : [ 1, 0, 0, 0, 0, 0, -1, 0, 0, 1, 0, 0, 835483.625, 18.775999069213867, -815331.625, 1 ],
			"children" : [ 1 ]
		},
		{
			"mesh" : 0
		}
	],
	"scenes" : [
		{
			"nodes" : [ 0 ]
		}
	],
	"scene" : 0,
	"accessors" : [
		{
			"bufferView" : 0,
			"byteOffset" : 0,
			"componentType" : 5126,
			"count" : 579,
			"type" : "VEC3",
			"min" : [ -9.8173828125, -9.9443359375, 0 ],
			"max" : [ 9.8173828125, 9.9443359375, 61.49700164794922 ]
		},
		{
			"bufferView" : 1,
			"byteOffset" : 0,
			"componentType" : 5126,
			"count" : 579,
			"type" : "VEC3",
			"min" : [ -0.8312979936599731, -0.8320503234863281, -1 ],
			"max" : [ 0.8315295577049255, 0.831784188747406, 1 ]
		},
		{
			"bufferView" : 2,
			"byteOffset" : 0,
			"componentType" : 5126,
			"count" : 579,
			"type" : "VEC3"
		},
		{
			"bufferView" : 3,
			"byteOffset" : 0,
			"componentType" : 5123,
			"count" : 579,
			"type" : "SCALAR",
			"min" : [ 0 ],
			"max" : [ 578 ]
		}
	],
	"bufferViews" : [
		{
			"buffer" : 0,
			"byteOffset" : 0,
			"byteLength" : 6948,
			"target" : 34962
		},
		{
			"buffer" : 0,
			"byteOffset" : 6948,
			"byteLength" : 6948,
			"target" : 34962
		},
		{
			"buffer" : 0,
			"byteOffset" : 13896,
			"byteLength" : 6948,
			"target" : 34962
		},
		{
			"buffer" : 0,
			"byteOffset" : 20844,
			"byteLength" : 1158,
			"target" : 34963
		}
	],
	"buffers" : [
		{
			"uri" : "B354761532901063C0.bin",
			"byteLength" : 22002
		}
	]
}
