{
	"asset" : {
		"generator" : "FME 2023.2.1.0",
		"version" : "2.0"
	},
	"materials" : [
		{
			"name" : "default_material",
			"pbrMetallicRoughness" : {
				"baseColorFactor" : [ 1, 1, 1, 1 ],
				"roughnessFactor" : 0.30000000000000004,
				"metallicFactor" : 0.5
			}
		}
	],
	"meshes" : [
		{
			"primitives" : [
				{
					"attributes" : {
						"NORMAL" : 1,
						"POSITION" : 0,
						"COLOR_0" : 2
					},
					"indices" : 3,
					"material" : 0,
					"mode" : 4
				}
			]
		}
	],
	"nodes" : [
		{
			"name" : "B337301629101063C0",
			"matrix" : [ 1, 0, 0, 0, 0, 0, -1, 0, 0, 1, 0, 0, 833736, 2.631999969482422, -816282.6875, 1 ],
			"children" : [ 1 ]
		},
		{
			"mesh" : 0
		}
	],
	"scenes" : [
		{
			"nodes" : [ 0 ]
		}
	],
	"scene" : 0,
	"accessors" : [
		{
			"bufferView" : 0,
			"byteOffset" : 0,
			"componentType" : 5126,
			"count" : 2337,
			"type" : "VEC3",
			"min" : [ -10.25390625, -14.4619140625, 0 ],
			"max" : [ 10.2529296875, 14.4619140625, 57.87900161743164 ]
		},
		{
			"bufferView" : 1,
			"byteOffset" : 0,
			"componentType" : 5126,
			"count" : 2337,
			"type" : "VEC3",
			"min" : [ -0.9997153282165527, -0.9984345436096191, -1 ],
			"max" : [ 1, 0.9999992847442627, 1 ]
		},
		{
			"bufferView" : 2,
			"byteOffset" : 0,
			"componentType" : 5126,
			"count" : 2337,
			"type" : "VEC3"
		},
		{
			"bufferView" : 3,
			"byteOffset" : 0,
			"componentType" : 5123,
			"count" : 2337,
			"type" : "SCALAR",
			"min" : [ 0 ],
			"max" : [ 2336 ]
		}
	],
	"bufferViews" : [
		{
			"buffer" : 0,
			"byteOffset" : 0,
			"byteLength" : 28044,
			"target" : 34962
		},
		{
			"buffer" : 0,
			"byteOffset" : 28044,
			"byteLength" : 28044,
			"target" : 34962
		},
		{
			"buffer" : 0,
			"byteOffset" : 56088,
			"byteLength" : 28044,
			"target" : 34962
		},
		{
			"buffer" : 0,
			"byteOffset" : 84132,
			"byteLength" : 4674,
			"target" : 34963
		}
	],
	"buffers" : [
		{
			"uri" : "B337301629101063C0.bin",
			"byteLength" : 88806
		}
	]
}
