{
	"asset" : {
		"generator" : "FME 2023.1.0.0",
		"version" : "2.0"
	},
	"materials" : [
		{
			"name" : "default_material",
			"pbrMetallicRoughness" : {
				"baseColorFactor" : [ 1, 1, 1, 1 ],
				"roughnessFactor" : 0.30000000000000004,
				"metallicFactor" : 0.5
			}
		}
	],
	"meshes" : [
		{
			"primitives" : [
				{
					"attributes" : {
						"NORMAL" : 1,
						"POSITION" : 0,
						"COLOR_0" : 2
					},
					"indices" : 3,
					"material" : 0,
					"mode" : 4
				}
			]
		}
	],
	"nodes" : [
		{
			"name" : "B356791513701063C0",
			"matrix" : [ 1, 0, 0, 0, 0, 0, -1, 0, 0, 1, 0, 0, 835683.75, 16.986000061035156, -815142.1875, 1 ],
			"children" : [ 1 ]
		},
		{
			"mesh" : 0
		}
	],
	"scenes" : [
		{
			"nodes" : [ 0 ]
		}
	],
	"scene" : 0,
	"accessors" : [
		{
			"bufferView" : 0,
			"byteOffset" : 0,
			"componentType" : 5126,
			"count" : 918,
			"type" : "VEC3",
			"min" : [ -8.095703125, -9.1630859375, 0 ],
			"max" : [ 8.095703125, 9.162109375, 78.84600067138672 ]
		},
		{
			"bufferView" : 1,
			"byteOffset" : 0,
			"componentType" : 5126,
			"count" : 918,
			"type" : "VEC3",
			"min" : [ -0.95902419090271, -0.9611112475395203, -1 ],
			"max" : [ 0.9650712013244629, 0.9989305734634399, 1 ]
		},
		{
			"bufferView" : 2,
			"byteOffset" : 0,
			"componentType" : 5126,
			"count" : 918,
			"type" : "VEC3"
		},
		{
			"bufferView" : 3,
			"byteOffset" : 0,
			"componentType" : 5123,
			"count" : 918,
			"type" : "SCALAR",
			"min" : [ 0 ],
			"max" : [ 917 ]
		}
	],
	"bufferViews" : [
		{
			"buffer" : 0,
			"byteOffset" : 0,
			"byteLength" : 11016,
			"target" : 34962
		},
		{
			"buffer" : 0,
			"byteOffset" : 11016,
			"byteLength" : 11016,
			"target" : 34962
		},
		{
			"buffer" : 0,
			"byteOffset" : 22032,
			"byteLength" : 11016,
			"target" : 34962
		},
		{
			"buffer" : 0,
			"byteOffset" : 33048,
			"byteLength" : 1836,
			"target" : 34963
		}
	],
	"buffers" : [
		{
			"uri" : "B356791513701063C0.bin",
			"byteLength" : 34884
		}
	]
}
