{
	"asset" : {
		"generator" : "FME 2023.1.0.0",
		"version" : "2.0"
	},
	"materials" : [
		{
			"name" : "default_material",
			"pbrMetallicRoughness" : {
				"baseColorFactor" : [ 1, 1, 1, 1 ],
				"roughnessFactor" : 0.30000000000000004,
				"metallicFactor" : 0.5
			}
		}
	],
	"meshes" : [
		{
			"primitives" : [
				{
					"attributes" : {
						"NORMAL" : 1,
						"POSITION" : 0,
						"COLOR_0" : 2
					},
					"indices" : 3,
					"material" : 0,
					"mode" : 4
				}
			]
		}
	],
	"nodes" : [
		{
			"name" : "B332451502601063C0",
			"matrix" : [ 1, 0, 0, 0, 0, 0, -1, 0, 0, 1, 0, 0, 833245.1875, 453.20001220703125, -815027.5, 1 ],
			"children" : [ 1 ]
		},
		{
			"mesh" : 0
		}
	],
	"scenes" : [
		{
			"nodes" : [ 0 ]
		}
	],
	"scene" : 0,
	"accessors" : [
		{
			"bufferView" : 0,
			"byteOffset" : 0,
			"componentType" : 5126,
			"count" : 129,
			"type" : "VEC3",
			"min" : [ -6.810546875, -6.84375, 0 ],
			"max" : [ 6.79296875, 6.818359375, 2.9949951171875 ]
		},
		{
			"bufferView" : 1,
			"byteOffset" : 0,
			"componentType" : 5126,
			"count" : 129,
			"type" : "VEC3",
			"min" : [ -0.7129947543144226, -0.7107868194580078, -1 ],
			"max" : [ 0.7125955820083618, 0.7108060717582703, 1 ]
		},
		{
			"bufferView" : 2,
			"byteOffset" : 0,
			"componentType" : 5126,
			"count" : 129,
			"type" : "VEC3"
		},
		{
			"bufferView" : 3,
			"byteOffset" : 0,
			"componentType" : 5121,
			"count" : 129,
			"type" : "SCALAR",
			"min" : [ 0 ],
			"max" : [ 128 ]
		}
	],
	"bufferViews" : [
		{
			"buffer" : 0,
			"byteOffset" : 0,
			"byteLength" : 1548,
			"target" : 34962
		},
		{
			"buffer" : 0,
			"byteOffset" : 1548,
			"byteLength" : 1548,
			"target" : 34962
		},
		{
			"buffer" : 0,
			"byteOffset" : 3096,
			"byteLength" : 1548,
			"target" : 34962
		},
		{
			"buffer" : 0,
			"byteOffset" : 4644,
			"byteLength" : 129,
			"target" : 34963
		}
	],
	"buffers" : [
		{
			"uri" : "B332451502601063C0.bin",
			"byteLength" : 4773
		}
	]
}
