{
	"asset" : {
		"generator" : "FME 2023.1.0.0",
		"version" : "2.0"
	},
	"materials" : [
		{
			"name" : "default_material",
			"pbrMetallicRoughness" : {
				"baseColorFactor" : [ 1, 1, 1, 1 ],
				"roughnessFactor" : 0.30000000000000004,
				"metallicFactor" : 0.5
			}
		}
	],
	"meshes" : [
		{
			"primitives" : [
				{
					"attributes" : {
						"NORMAL" : 1,
						"POSITION" : 0,
						"COLOR_0" : 2
					},
					"indices" : 3,
					"material" : 0,
					"mode" : 4
				}
			]
		}
	],
	"nodes" : [
		{
			"name" : "B335711561101063C0",
			"matrix" : [ 1, 0, 0, 0, 0, 0, -1, 0, 0, 1, 0, 0, 833571.3125, 164.02301025390625, -815611.125, 1 ],
			"children" : [ 1 ]
		},
		{
			"mesh" : 0
		}
	],
	"scenes" : [
		{
			"nodes" : [ 0 ]
		}
	],
	"scene" : 0,
	"accessors" : [
		{
			"bufferView" : 0,
			"byteOffset" : 0,
			"componentType" : 5126,
			"count" : 1980,
			"type" : "VEC3",
			"min" : [ -13.7314453125, -14.0693359375, 0 ],
			"max" : [ 13.73046875, 14.0703125, 92.09002685546875 ]
		},
		{
			"bufferView" : 1,
			"byteOffset" : 0,
			"componentType" : 5126,
			"count" : 1980,
			"type" : "VEC3",
			"min" : [ -0.775711715221405, -0.7916569113731384, -1 ],
			"max" : [ 0.9833266735076904, 0.9666527509689331, 1 ]
		},
		{
			"bufferView" : 2,
			"byteOffset" : 0,
			"componentType" : 5126,
			"count" : 1980,
			"type" : "VEC3"
		},
		{
			"bufferView" : 3,
			"byteOffset" : 0,
			"componentType" : 5123,
			"count" : 1980,
			"type" : "SCALAR",
			"min" : [ 0 ],
			"max" : [ 1979 ]
		}
	],
	"bufferViews" : [
		{
			"buffer" : 0,
			"byteOffset" : 0,
			"byteLength" : 23760,
			"target" : 34962
		},
		{
			"buffer" : 0,
			"byteOffset" : 23760,
			"byteLength" : 23760,
			"target" : 34962
		},
		{
			"buffer" : 0,
			"byteOffset" : 47520,
			"byteLength" : 23760,
			"target" : 34962
		},
		{
			"buffer" : 0,
			"byteOffset" : 71280,
			"byteLength" : 3960,
			"target" : 34963
		}
	],
	"buffers" : [
		{
			"uri" : "B335711561101063C0.bin",
			"byteLength" : 75240
		}
	]
}
