{
	"asset" : {
		"generator" : "FME 2023.1.0.0",
		"version" : "2.0"
	},
	"materials" : [
		{
			"name" : "default_material",
			"pbrMetallicRoughness" : {
				"baseColorFactor" : [ 1, 1, 1, 1 ],
				"roughnessFactor" : 0.30000000000000004,
				"metallicFactor" : 0.5
			}
		}
	],
	"meshes" : [
		{
			"primitives" : [
				{
					"attributes" : {
						"NORMAL" : 1,
						"POSITION" : 0,
						"COLOR_0" : 2
					},
					"indices" : 3,
					"material" : 0,
					"mode" : 4
				}
			]
		}
	],
	"nodes" : [
		{
			"name" : "B250112338101063C0",
			"matrix" : [ 1, 0, 0, 0, 0, 0, -1, 0, 0, 1, 0, 0, 825011.3125, 6.795997619628906, -823374.6875, 1 ],
			"children" : [ 1 ]
		},
		{
			"mesh" : 0
		}
	],
	"scenes" : [
		{
			"nodes" : [ 0 ]
		}
	],
	"scene" : 0,
	"accessors" : [
		{
			"bufferView" : 0,
			"byteOffset" : 0,
			"componentType" : 5126,
			"count" : 450,
			"type" : "VEC3",
			"min" : [ -9.044921875, -12.021484375, 2.384185791015625e-6 ],
			"max" : [ 9.044921875, 12.01953125, 202.65399169921875 ]
		},
		{
			"bufferView" : 1,
			"byteOffset" : 0,
			"componentType" : 5126,
			"count" : 450,
			"type" : "VEC3",
			"min" : [ -0.959223210811615, -0.9595850706100464, -1 ],
			"max" : [ 0.9591625928878784, 0.9607338309288025, 1 ]
		},
		{
			"bufferView" : 2,
			"byteOffset" : 0,
			"componentType" : 5126,
			"count" : 450,
			"type" : "VEC3"
		},
		{
			"bufferView" : 3,
			"byteOffset" : 0,
			"componentType" : 5123,
			"count" : 450,
			"type" : "SCALAR",
			"min" : [ 0 ],
			"max" : [ 449 ]
		}
	],
	"bufferViews" : [
		{
			"buffer" : 0,
			"byteOffset" : 0,
			"byteLength" : 5400,
			"target" : 34962
		},
		{
			"buffer" : 0,
			"byteOffset" : 5400,
			"byteLength" : 5400,
			"target" : 34962
		},
		{
			"buffer" : 0,
			"byteOffset" : 10800,
			"byteLength" : 5400,
			"target" : 34962
		},
		{
			"buffer" : 0,
			"byteOffset" : 16200,
			"byteLength" : 900,
			"target" : 34963
		}
	],
	"buffers" : [
		{
			"uri" : "B250112338101063C0.bin",
			"byteLength" : 17100
		}
	]
}
