{
	"asset" : {
		"generator" : "FME 2023.2.1.0",
		"version" : "2.0"
	},
	"materials" : [
		{
			"name" : "default_material",
			"pbrMetallicRoughness" : {
				"baseColorFactor" : [ 1, 1, 1, 1 ],
				"roughnessFactor" : 0.30000000000000004,
				"metallicFactor" : 0.5
			}
		}
	],
	"meshes" : [
		{
			"primitives" : [
				{
					"attributes" : {
						"NORMAL" : 1,
						"POSITION" : 0,
						"COLOR_0" : 2
					},
					"indices" : 3,
					"material" : 0,
					"mode" : 4
				}
			]
		}
	],
	"nodes" : [
		{
			"name" : "B354851539702063C0",
			"matrix" : [ 1, 0, 0, 0, 0, 0, -1, 0, 0, 1, 0, 0, 835484.8125, 3.803999900817871, -815398.8125, 1 ],
			"children" : [ 1 ]
		},
		{
			"mesh" : 0
		}
	],
	"scenes" : [
		{
			"nodes" : [ 0 ]
		}
	],
	"scene" : 0,
	"accessors" : [
		{
			"bufferView" : 0,
			"byteOffset" : 0,
			"componentType" : 5126,
			"count" : 1674,
			"type" : "VEC3",
			"min" : [ -17.0927734375, -15.744140625, 0 ],
			"max" : [ 17.0927734375, 15.744140625, 14.891999244689941 ]
		},
		{
			"bufferView" : 1,
			"byteOffset" : 0,
			"componentType" : 5126,
			"count" : 1674,
			"type" : "VEC3",
			"min" : [ -0.9931230545043945, -0.9925864338874817, -1 ],
			"max" : [ 0.9972349405288696, 0.9969087243080139, 1 ]
		},
		{
			"bufferView" : 2,
			"byteOffset" : 0,
			"componentType" : 5126,
			"count" : 1674,
			"type" : "VEC3"
		},
		{
			"bufferView" : 3,
			"byteOffset" : 0,
			"componentType" : 5123,
			"count" : 1674,
			"type" : "SCALAR",
			"min" : [ 0 ],
			"max" : [ 1673 ]
		}
	],
	"bufferViews" : [
		{
			"buffer" : 0,
			"byteOffset" : 0,
			"byteLength" : 20088,
			"target" : 34962
		},
		{
			"buffer" : 0,
			"byteOffset" : 20088,
			"byteLength" : 20088,
			"target" : 34962
		},
		{
			"buffer" : 0,
			"byteOffset" : 40176,
			"byteLength" : 20088,
			"target" : 34962
		},
		{
			"buffer" : 0,
			"byteOffset" : 60264,
			"byteLength" : 3348,
			"target" : 34963
		}
	],
	"buffers" : [
		{
			"uri" : "B354851539702063C0.bin",
			"byteLength" : 63612
		}
	]
}
