{
	"asset" : {
		"generator" : "FME 2023.1.0.0",
		"version" : "2.0"
	},
	"materials" : [
		{
			"name" : "default_material",
			"pbrMetallicRoughness" : {
				"baseColorFactor" : [ 1, 1, 1, 1 ],
				"roughnessFactor" : 0.30000000000000004,
				"metallicFactor" : 0.5
			}
		}
	],
	"meshes" : [
		{
			"primitives" : [
				{
					"attributes" : {
						"NORMAL" : 1,
						"POSITION" : 0,
						"COLOR_0" : 2
					},
					"indices" : 3,
					"material" : 0,
					"mode" : 4
				}
			]
		}
	],
	"nodes" : [
		{
			"name" : "B341021608601063C0",
			"matrix" : [ 1, 0, 0, 0, 0, 0, -1, 0, 0, 1, 0, 0, 834094.5625, 3.8499999046325684, -816098.5, 1 ],
			"children" : [ 1 ]
		},
		{
			"mesh" : 0
		}
	],
	"scenes" : [
		{
			"nodes" : [ 0 ]
		}
	],
	"scene" : 0,
	"accessors" : [
		{
			"bufferView" : 0,
			"byteOffset" : 0,
			"componentType" : 5126,
			"count" : 3771,
			"type" : "VEC3",
			"min" : [ -16.775390625, -17.9052734375, 0 ],
			"max" : [ 16.779296875, 17.7861328125, 73.41899871826172 ]
		},
		{
			"bufferView" : 1,
			"byteOffset" : 0,
			"componentType" : 5126,
			"count" : 3771,
			"type" : "VEC3",
			"min" : [ -0.99239581823349, -1, -1 ],
			"max" : [ 0.9917025566101074, 1, 1 ]
		},
		{
			"bufferView" : 2,
			"byteOffset" : 0,
			"componentType" : 5126,
			"count" : 3771,
			"type" : "VEC3"
		},
		{
			"bufferView" : 3,
			"byteOffset" : 0,
			"componentType" : 5123,
			"count" : 3771,
			"type" : "SCALAR",
			"min" : [ 0 ],
			"max" : [ 3770 ]
		}
	],
	"bufferViews" : [
		{
			"buffer" : 0,
			"byteOffset" : 0,
			"byteLength" : 45252,
			"target" : 34962
		},
		{
			"buffer" : 0,
			"byteOffset" : 45252,
			"byteLength" : 45252,
			"target" : 34962
		},
		{
			"buffer" : 0,
			"byteOffset" : 90504,
			"byteLength" : 45252,
			"target" : 34962
		},
		{
			"buffer" : 0,
			"byteOffset" : 135756,
			"byteLength" : 7542,
			"target" : 34963
		}
	],
	"buffers" : [
		{
			"uri" : "B341021608601063C0.bin",
			"byteLength" : 143298
		}
	]
}
