{
	"asset" : {
		"generator" : "FME 2023.1.0.0",
		"version" : "2.0"
	},
	"materials" : [
		{
			"name" : "default_material",
			"pbrMetallicRoughness" : {
				"baseColorFactor" : [ 1, 1, 1, 1 ],
				"roughnessFactor" : 0.30000000000000004,
				"metallicFactor" : 0.5
			}
		}
	],
	"meshes" : [
		{
			"primitives" : [
				{
					"attributes" : {
						"NORMAL" : 1,
						"POSITION" : 0,
						"COLOR_0" : 2
					},
					"indices" : 3,
					"material" : 0,
					"mode" : 4
				}
			]
		}
	],
	"nodes" : [
		{
			"name" : "B341541600001063C0",
			"matrix" : [ 1, 0, 0, 0, 0, 0, -1, 0, 0, 1, 0, 0, 834154.5625, 20.02400016784668, -815999.875, 1 ],
			"children" : [ 1 ]
		},
		{
			"mesh" : 0
		}
	],
	"scenes" : [
		{
			"nodes" : [ 0 ]
		}
	],
	"scene" : 0,
	"accessors" : [
		{
			"bufferView" : 0,
			"byteOffset" : 0,
			"componentType" : 5126,
			"count" : 4191,
			"type" : "VEC3",
			"min" : [ -10.787109375, -9.41015625, 0 ],
			"max" : [ 10.806640625, 9.431640625, 107.73199462890625 ]
		},
		{
			"bufferView" : 1,
			"byteOffset" : 0,
			"componentType" : 5126,
			"count" : 4191,
			"type" : "VEC3",
			"min" : [ -0.9752485156059265, -0.9828878045082092, -1 ],
			"max" : [ 0.9493427872657776, 0.9984240531921387, 1 ]
		},
		{
			"bufferView" : 2,
			"byteOffset" : 0,
			"componentType" : 5126,
			"count" : 4191,
			"type" : "VEC3"
		},
		{
			"bufferView" : 3,
			"byteOffset" : 0,
			"componentType" : 5123,
			"count" : 4191,
			"type" : "SCALAR",
			"min" : [ 0 ],
			"max" : [ 4190 ]
		}
	],
	"bufferViews" : [
		{
			"buffer" : 0,
			"byteOffset" : 0,
			"byteLength" : 50292,
			"target" : 34962
		},
		{
			"buffer" : 0,
			"byteOffset" : 50292,
			"byteLength" : 50292,
			"target" : 34962
		},
		{
			"buffer" : 0,
			"byteOffset" : 100584,
			"byteLength" : 50292,
			"target" : 34962
		},
		{
			"buffer" : 0,
			"byteOffset" : 150876,
			"byteLength" : 8382,
			"target" : 34963
		}
	],
	"buffers" : [
		{
			"uri" : "B341541600001063C0.bin",
			"byteLength" : 159258
		}
	]
}
