{
	"asset" : {
		"generator" : "FME 2023.1.0.0",
		"version" : "2.0"
	},
	"materials" : [
		{
			"name" : "default_material",
			"pbrMetallicRoughness" : {
				"baseColorFactor" : [ 1, 1, 1, 1 ],
				"roughnessFactor" : 0.30000000000000004,
				"metallicFactor" : 0.5
			}
		}
	],
	"meshes" : [
		{
			"primitives" : [
				{
					"attributes" : {
						"NORMAL" : 1,
						"POSITION" : 0,
						"COLOR_0" : 2
					},
					"indices" : 3,
					"material" : 0,
					"mode" : 4
				}
			]
		}
	],
	"nodes" : [
		{
			"name" : "B335931564601063C0",
			"matrix" : [ 1, 0, 0, 0, 0, 0, -1, 0, 0, 1, 0, 0, 833605.0625, 107.7969970703125, -815658.0625, 1 ],
			"children" : [ 1 ]
		},
		{
			"mesh" : 0
		}
	],
	"scenes" : [
		{
			"nodes" : [ 0 ]
		}
	],
	"scene" : 0,
	"accessors" : [
		{
			"bufferView" : 0,
			"byteOffset" : 0,
			"componentType" : 5126,
			"count" : 4092,
			"type" : "VEC3",
			"min" : [ -25.044921875, -22.3935546875, 0 ],
			"max" : [ 25.0458984375, 22.3935546875, 42.397003173828125 ]
		},
		{
			"bufferView" : 1,
			"byteOffset" : 0,
			"componentType" : 5126,
			"count" : 4092,
			"type" : "VEC3",
			"min" : [ -0.8750429749488831, -0.9058914184570312, -1 ],
			"max" : [ 0.8717972040176392, 0.9042072296142578, 1 ]
		},
		{
			"bufferView" : 2,
			"byteOffset" : 0,
			"componentType" : 5126,
			"count" : 4092,
			"type" : "VEC3"
		},
		{
			"bufferView" : 3,
			"byteOffset" : 0,
			"componentType" : 5123,
			"count" : 4092,
			"type" : "SCALAR",
			"min" : [ 0 ],
			"max" : [ 4091 ]
		}
	],
	"bufferViews" : [
		{
			"buffer" : 0,
			"byteOffset" : 0,
			"byteLength" : 49104,
			"target" : 34962
		},
		{
			"buffer" : 0,
			"byteOffset" : 49104,
			"byteLength" : 49104,
			"target" : 34962
		},
		{
			"buffer" : 0,
			"byteOffset" : 98208,
			"byteLength" : 49104,
			"target" : 34962
		},
		{
			"buffer" : 0,
			"byteOffset" : 147312,
			"byteLength" : 8184,
			"target" : 34963
		}
	],
	"buffers" : [
		{
			"uri" : "B335931564601063C0.bin",
			"byteLength" : 155496
		}
	]
}
