{
	"asset" : {
		"generator" : "FME 2023.2.1.0",
		"version" : "2.0"
	},
	"materials" : [
		{
			"name" : "default_material",
			"pbrMetallicRoughness" : {
				"baseColorFactor" : [ 1, 1, 1, 1 ],
				"roughnessFactor" : 0.30000000000000004,
				"metallicFactor" : 0.5
			}
		}
	],
	"meshes" : [
		{
			"primitives" : [
				{
					"attributes" : {
						"NORMAL" : 1,
						"POSITION" : 0,
						"COLOR_0" : 2
					},
					"indices" : 3,
					"material" : 0,
					"mode" : 4
				}
			]
		}
	],
	"nodes" : [
		{
			"name" : "B357851502701063C0",
			"matrix" : [ 1, 0, 0, 0, 0, 0, -1, 0, 0, 1, 0, 0, 835785.1875, 26.555999755859375, -815028.375, 1 ],
			"children" : [ 1 ]
		},
		{
			"mesh" : 0
		}
	],
	"scenes" : [
		{
			"nodes" : [ 0 ]
		}
	],
	"scene" : 0,
	"accessors" : [
		{
			"bufferView" : 0,
			"byteOffset" : 0,
			"componentType" : 5126,
			"count" : 1101,
			"type" : "VEC3",
			"min" : [ -13.4453125, -13.8251953125, 0 ],
			"max" : [ 13.4453125, 13.8251953125, 51.9219970703125 ]
		},
		{
			"bufferView" : 1,
			"byteOffset" : 0,
			"componentType" : 5126,
			"count" : 1101,
			"type" : "VEC3",
			"min" : [ -0.9301370978355408, -0.9305659532546997, -1 ],
			"max" : [ 0.9305659532546997, 0.930421769618988, 1 ]
		},
		{
			"bufferView" : 2,
			"byteOffset" : 0,
			"componentType" : 5126,
			"count" : 1101,
			"type" : "VEC3"
		},
		{
			"bufferView" : 3,
			"byteOffset" : 0,
			"componentType" : 5123,
			"count" : 1101,
			"type" : "SCALAR",
			"min" : [ 0 ],
			"max" : [ 1100 ]
		}
	],
	"bufferViews" : [
		{
			"buffer" : 0,
			"byteOffset" : 0,
			"byteLength" : 13212,
			"target" : 34962
		},
		{
			"buffer" : 0,
			"byteOffset" : 13212,
			"byteLength" : 13212,
			"target" : 34962
		},
		{
			"buffer" : 0,
			"byteOffset" : 26424,
			"byteLength" : 13212,
			"target" : 34962
		},
		{
			"buffer" : 0,
			"byteOffset" : 39636,
			"byteLength" : 2202,
			"target" : 34963
		}
	],
	"buffers" : [
		{
			"uri" : "B357851502701063C0.bin",
			"byteLength" : 41838
		}
	]
}
