{
	"asset" : {
		"generator" : "FME 2023.1.0.0",
		"version" : "2.0"
	},
	"materials" : [
		{
			"name" : "default_material",
			"pbrMetallicRoughness" : {
				"baseColorFactor" : [ 1, 1, 1, 1 ],
				"roughnessFactor" : 0.30000000000000004,
				"metallicFactor" : 0.5
			}
		}
	],
	"meshes" : [
		{
			"primitives" : [
				{
					"attributes" : {
						"NORMAL" : 1,
						"POSITION" : 0,
						"COLOR_0" : 2
					},
					"indices" : 3,
					"material" : 0,
					"mode" : 4
				}
			]
		}
	],
	"nodes" : [
		{
			"name" : "B336561588301063C0",
			"matrix" : [ 1, 0, 0, 0, 0, 0, -1, 0, 0, 1, 0, 0, 833662.9375, 67.33401489257812, -815884.75, 1 ],
			"children" : [ 1 ]
		},
		{
			"mesh" : 0
		}
	],
	"scenes" : [
		{
			"nodes" : [ 0 ]
		}
	],
	"scene" : 0,
	"accessors" : [
		{
			"bufferView" : 0,
			"byteOffset" : 0,
			"componentType" : 5126,
			"count" : 603,
			"type" : "VEC3",
			"min" : [ -9.126953125, -7.443359375, 0 ],
			"max" : [ 9.126953125, 7.443359375, 26.69300079345703 ]
		},
		{
			"bufferView" : 1,
			"byteOffset" : 0,
			"componentType" : 5126,
			"count" : 603,
			"type" : "VEC3",
			"min" : [ -0.761350154876709, -0.7633466720581055, -1 ],
			"max" : [ 0.7613509893417358, 0.763227641582489, 1 ]
		},
		{
			"bufferView" : 2,
			"byteOffset" : 0,
			"componentType" : 5126,
			"count" : 603,
			"type" : "VEC3"
		},
		{
			"bufferView" : 3,
			"byteOffset" : 0,
			"componentType" : 5123,
			"count" : 603,
			"type" : "SCALAR",
			"min" : [ 0 ],
			"max" : [ 602 ]
		}
	],
	"bufferViews" : [
		{
			"buffer" : 0,
			"byteOffset" : 0,
			"byteLength" : 7236,
			"target" : 34962
		},
		{
			"buffer" : 0,
			"byteOffset" : 7236,
			"byteLength" : 7236,
			"target" : 34962
		},
		{
			"buffer" : 0,
			"byteOffset" : 14472,
			"byteLength" : 7236,
			"target" : 34962
		},
		{
			"buffer" : 0,
			"byteOffset" : 21708,
			"byteLength" : 1206,
			"target" : 34963
		}
	],
	"buffers" : [
		{
			"uri" : "B336561588301063C0.bin",
			"byteLength" : 22914
		}
	]
}
