{
	"asset" : {
		"generator" : "FME 2023.1.0.0",
		"version" : "2.0"
	},
	"materials" : [
		{
			"name" : "default_material",
			"pbrMetallicRoughness" : {
				"baseColorFactor" : [ 1, 1, 1, 1 ],
				"roughnessFactor" : 0.30000000000000004,
				"metallicFactor" : 0.5
			}
		}
	],
	"meshes" : [
		{
			"primitives" : [
				{
					"attributes" : {
						"NORMAL" : 1,
						"POSITION" : 0,
						"COLOR_0" : 2
					},
					"indices" : 3,
					"material" : 0,
					"mode" : 4
				}
			]
		}
	],
	"nodes" : [
		{
			"name" : "B336691563701063C0",
			"matrix" : [ 1, 0, 0, 0, 0, 0, -1, 0, 0, 1, 0, 0, 833676.4375, 100.81400299072266, -815639.625, 1 ],
			"children" : [ 1 ]
		},
		{
			"mesh" : 0
		}
	],
	"scenes" : [
		{
			"nodes" : [ 0 ]
		}
	],
	"scene" : 0,
	"accessors" : [
		{
			"bufferView" : 0,
			"byteOffset" : 0,
			"componentType" : 5126,
			"count" : 492,
			"type" : "VEC3",
			"min" : [ -11.11328125, -10.541015625, 0 ],
			"max" : [ 11.11328125, 10.541015625, 29.290992736816406 ]
		},
		{
			"bufferView" : 1,
			"byteOffset" : 0,
			"componentType" : 5126,
			"count" : 492,
			"type" : "VEC3",
			"min" : [ -0.7440787553787231, -0.7523614168167114, -0.2481747567653656 ],
			"max" : [ 0.7523106932640076, 0.7441240549087524, 1 ]
		},
		{
			"bufferView" : 2,
			"byteOffset" : 0,
			"componentType" : 5126,
			"count" : 492,
			"type" : "VEC3"
		},
		{
			"bufferView" : 3,
			"byteOffset" : 0,
			"componentType" : 5123,
			"count" : 492,
			"type" : "SCALAR",
			"min" : [ 0 ],
			"max" : [ 491 ]
		}
	],
	"bufferViews" : [
		{
			"buffer" : 0,
			"byteOffset" : 0,
			"byteLength" : 5904,
			"target" : 34962
		},
		{
			"buffer" : 0,
			"byteOffset" : 5904,
			"byteLength" : 5904,
			"target" : 34962
		},
		{
			"buffer" : 0,
			"byteOffset" : 11808,
			"byteLength" : 5904,
			"target" : 34962
		},
		{
			"buffer" : 0,
			"byteOffset" : 17712,
			"byteLength" : 984,
			"target" : 34963
		}
	],
	"buffers" : [
		{
			"uri" : "B336691563701063C0.bin",
			"byteLength" : 18696
		}
	]
}
