{
	"asset" : {
		"generator" : "FME 2023.2.1.0",
		"version" : "2.0"
	},
	"materials" : [
		{
			"name" : "default_material",
			"pbrMetallicRoughness" : {
				"baseColorFactor" : [ 1, 1, 1, 1 ],
				"roughnessFactor" : 0.30000000000000004,
				"metallicFactor" : 0.5
			}
		}
	],
	"meshes" : [
		{
			"primitives" : [
				{
					"attributes" : {
						"NORMAL" : 1,
						"POSITION" : 0,
						"COLOR_0" : 2
					},
					"indices" : 3,
					"material" : 0,
					"mode" : 4
				}
			]
		}
	],
	"nodes" : [
		{
			"name" : "B335461631201063C0",
			"matrix" : [ 1, 0, 0, 0, 0, 0, -1, 0, 0, 1, 0, 0, 833547.8125, 4.013999938964844, -816312.75, 1 ],
			"children" : [ 1 ]
		},
		{
			"mesh" : 0
		}
	],
	"scenes" : [
		{
			"nodes" : [ 0 ]
		}
	],
	"scene" : 0,
	"accessors" : [
		{
			"bufferView" : 0,
			"byteOffset" : 0,
			"componentType" : 5126,
			"count" : 564,
			"type" : "VEC3",
			"min" : [ -7.87890625, -10.87890625, 0 ],
			"max" : [ 7.8798828125, 10.8779296875, 22.503999710083008 ]
		},
		{
			"bufferView" : 1,
			"byteOffset" : 0,
			"componentType" : 5126,
			"count" : 564,
			"type" : "VEC3",
			"min" : [ -0.8413814306259155, -0.8436065316200256, -1 ],
			"max" : [ 0.8438004851341248, 0.8445085883140564, 1 ]
		},
		{
			"bufferView" : 2,
			"byteOffset" : 0,
			"componentType" : 5126,
			"count" : 564,
			"type" : "VEC3"
		},
		{
			"bufferView" : 3,
			"byteOffset" : 0,
			"componentType" : 5123,
			"count" : 564,
			"type" : "SCALAR",
			"min" : [ 0 ],
			"max" : [ 563 ]
		}
	],
	"bufferViews" : [
		{
			"buffer" : 0,
			"byteOffset" : 0,
			"byteLength" : 6768,
			"target" : 34962
		},
		{
			"buffer" : 0,
			"byteOffset" : 6768,
			"byteLength" : 6768,
			"target" : 34962
		},
		{
			"buffer" : 0,
			"byteOffset" : 13536,
			"byteLength" : 6768,
			"target" : 34962
		},
		{
			"buffer" : 0,
			"byteOffset" : 20304,
			"byteLength" : 1128,
			"target" : 34963
		}
	],
	"buffers" : [
		{
			"uri" : "B335461631201063C0.bin",
			"byteLength" : 21432
		}
	]
}
