{
	"asset" : {
		"generator" : "FME 2022.2.4.0",
		"version" : "2.0"
	},
	"materials" : [
		{
			"name" : "default_material",
			"pbrMetallicRoughness" : {
				"baseColorFactor" : [ 1, 1, 1, 1 ],
				"roughnessFactor" : 0.30000000000000004,
				"metallicFactor" : 0.5
			}
		}
	],
	"meshes" : [
		{
			"primitives" : [
				{
					"attributes" : {
						"NORMAL" : 1,
						"POSITION" : 0,
						"COLOR_0" : 2
					},
					"indices" : 3,
					"material" : 0,
					"mode" : 4
				}
			]
		}
	],
	"nodes" : [
		{
			"name" : "B340851578301063C0",
			"matrix" : [ 1, 0, 0, 0, 0, 0, -1, 0, 0, 1, 0, 0, 834089.625, 20.22599983215332, -815784.875, 1 ],
			"children" : [ 1 ]
		},
		{
			"mesh" : 0
		}
	],
	"scenes" : [
		{
			"nodes" : [ 0 ]
		}
	],
	"scene" : 0,
	"accessors" : [
		{
			"bufferView" : 0,
			"byteOffset" : 0,
			"componentType" : 5126,
			"count" : 519,
			"type" : "VEC3",
			"min" : [ -8.1396484375, -7.80078125, 0 ],
			"max" : [ 8.064453125, 7.8515625, 23.588998794555664 ]
		},
		{
			"bufferView" : 1,
			"byteOffset" : 0,
			"componentType" : 5126,
			"count" : 519,
			"type" : "VEC3",
			"min" : [ -0.8141010999679565, -0.8223479986190796, -0.0032404358498752117 ],
			"max" : [ 0.8126519918441772, 0.8229336142539978, 1 ]
		},
		{
			"bufferView" : 2,
			"byteOffset" : 0,
			"componentType" : 5126,
			"count" : 519,
			"type" : "VEC3"
		},
		{
			"bufferView" : 3,
			"byteOffset" : 0,
			"componentType" : 5123,
			"count" : 519,
			"type" : "SCALAR",
			"min" : [ 0 ],
			"max" : [ 518 ]
		}
	],
	"bufferViews" : [
		{
			"buffer" : 0,
			"byteOffset" : 0,
			"byteLength" : 6228,
			"target" : 34962
		},
		{
			"buffer" : 0,
			"byteOffset" : 6228,
			"byteLength" : 6228,
			"target" : 34962
		},
		{
			"buffer" : 0,
			"byteOffset" : 12456,
			"byteLength" : 6228,
			"target" : 34962
		},
		{
			"buffer" : 0,
			"byteOffset" : 18684,
			"byteLength" : 1038,
			"target" : 34963
		}
	],
	"buffers" : [
		{
			"uri" : "B340851578301063C0.bin",
			"byteLength" : 19722
		}
	]
}
