{
	"asset" : {
		"generator" : "FME 2022.2.4.0",
		"version" : "2.0"
	},
	"materials" : [
		{
			"name" : "default_material",
			"pbrMetallicRoughness" : {
				"baseColorFactor" : [ 1, 1, 1, 1 ],
				"roughnessFactor" : 0.30000000000000004,
				"metallicFactor" : 0.5
			}
		}
	],
	"meshes" : [
		{
			"primitives" : [
				{
					"attributes" : {
						"NORMAL" : 1,
						"POSITION" : 0,
						"COLOR_0" : 2
					},
					"indices" : 3,
					"material" : 0,
					"mode" : 4
				}
			]
		}
	],
	"nodes" : [
		{
			"name" : "B338301609801063C0",
			"matrix" : [ 1, 0, 0, 0, 0, 0, -1, 0, 0, 1, 0, 0, 833831, 22.32200050354004, -816098.8125, 1 ],
			"children" : [ 1 ]
		},
		{
			"mesh" : 0
		}
	],
	"scenes" : [
		{
			"nodes" : [ 0 ]
		}
	],
	"scene" : 0,
	"accessors" : [
		{
			"bufferView" : 0,
			"byteOffset" : 0,
			"componentType" : 5126,
			"count" : 963,
			"type" : "VEC3",
			"min" : [ -10.9189453125, -11.2880859375, 0 ],
			"max" : [ 10.919921875, 11.2890625, 98.572998046875 ]
		},
		{
			"bufferView" : 1,
			"byteOffset" : 0,
			"componentType" : 5126,
			"count" : 963,
			"type" : "VEC3",
			"min" : [ -0.7229821681976318, -0.8397850394248962, -1 ],
			"max" : [ 0.7247445583343506, 0.7328550815582275, 1 ]
		},
		{
			"bufferView" : 2,
			"byteOffset" : 0,
			"componentType" : 5126,
			"count" : 963,
			"type" : "VEC3"
		},
		{
			"bufferView" : 3,
			"byteOffset" : 0,
			"componentType" : 5123,
			"count" : 963,
			"type" : "SCALAR",
			"min" : [ 0 ],
			"max" : [ 962 ]
		}
	],
	"bufferViews" : [
		{
			"buffer" : 0,
			"byteOffset" : 0,
			"byteLength" : 11556,
			"target" : 34962
		},
		{
			"buffer" : 0,
			"byteOffset" : 11556,
			"byteLength" : 11556,
			"target" : 34962
		},
		{
			"buffer" : 0,
			"byteOffset" : 23112,
			"byteLength" : 11556,
			"target" : 34962
		},
		{
			"buffer" : 0,
			"byteOffset" : 34668,
			"byteLength" : 1926,
			"target" : 34963
		}
	],
	"buffers" : [
		{
			"uri" : "B338301609801063C0.bin",
			"byteLength" : 36594
		}
	]
}
