{
	"asset" : {
		"generator" : "FME 2023.2.1.0",
		"version" : "2.0"
	},
	"materials" : [
		{
			"name" : "default_material",
			"pbrMetallicRoughness" : {
				"baseColorFactor" : [ 1, 1, 1, 1 ],
				"roughnessFactor" : 0.30000000000000004,
				"metallicFactor" : 0.5
			}
		}
	],
	"meshes" : [
		{
			"primitives" : [
				{
					"attributes" : {
						"NORMAL" : 1,
						"POSITION" : 0,
						"COLOR_0" : 2
					},
					"indices" : 3,
					"material" : 0,
					"mode" : 4
				}
			]
		}
	],
	"nodes" : [
		{
			"name" : "B333531652701063C0",
			"matrix" : [ 1, 0, 0, 0, 0, 0, -1, 0, 0, 1, 0, 0, 833353.875, 2.9000048637390137, -816529.8125, 1 ],
			"children" : [ 1 ]
		},
		{
			"mesh" : 0
		}
	],
	"scenes" : [
		{
			"nodes" : [ 0 ]
		}
	],
	"scene" : 0,
	"accessors" : [
		{
			"bufferView" : 0,
			"byteOffset" : 0,
			"componentType" : 5126,
			"count" : 2175,
			"type" : "VEC3",
			"min" : [ -7.23046875, -10.8251953125, 0 ],
			"max" : [ 7.23046875, 10.826171875, 24.994998931884766 ]
		},
		{
			"bufferView" : 1,
			"byteOffset" : 0,
			"componentType" : 5126,
			"count" : 2175,
			"type" : "VEC3",
			"min" : [ -0.972930371761322, -0.9487953782081604, -1 ],
			"max" : [ 0.9728622436523438, 0.948807954788208, 1 ]
		},
		{
			"bufferView" : 2,
			"byteOffset" : 0,
			"componentType" : 5126,
			"count" : 2175,
			"type" : "VEC3"
		},
		{
			"bufferView" : 3,
			"byteOffset" : 0,
			"componentType" : 5123,
			"count" : 2175,
			"type" : "SCALAR",
			"min" : [ 0 ],
			"max" : [ 2174 ]
		}
	],
	"bufferViews" : [
		{
			"buffer" : 0,
			"byteOffset" : 0,
			"byteLength" : 26100,
			"target" : 34962
		},
		{
			"buffer" : 0,
			"byteOffset" : 26100,
			"byteLength" : 26100,
			"target" : 34962
		},
		{
			"buffer" : 0,
			"byteOffset" : 52200,
			"byteLength" : 26100,
			"target" : 34962
		},
		{
			"buffer" : 0,
			"byteOffset" : 78300,
			"byteLength" : 4350,
			"target" : 34963
		}
	],
	"buffers" : [
		{
			"uri" : "B333531652701063C0.bin",
			"byteLength" : 82650
		}
	]
}
