{
	"asset" : {
		"generator" : "FME 2023.2.1.0",
		"version" : "2.0"
	},
	"materials" : [
		{
			"name" : "default_material",
			"pbrMetallicRoughness" : {
				"baseColorFactor" : [ 1, 1, 1, 1 ],
				"roughnessFactor" : 0.30000000000000004,
				"metallicFactor" : 0.5
			}
		}
	],
	"meshes" : [
		{
			"primitives" : [
				{
					"attributes" : {
						"NORMAL" : 1,
						"POSITION" : 0,
						"COLOR_0" : 2
					},
					"indices" : 3,
					"material" : 0,
					"mode" : 4
				}
			]
		}
	],
	"nodes" : [
		{
			"name" : "B359651527202063C0",
			"matrix" : [ 1, 0, 0, 0, 0, 0, -1, 0, 0, 1, 0, 0, 835953.875, 3.503999948501587, -815271.875, 1 ],
			"children" : [ 1 ]
		},
		{
			"mesh" : 0
		}
	],
	"scenes" : [
		{
			"nodes" : [ 0 ]
		}
	],
	"scene" : 0,
	"accessors" : [
		{
			"bufferView" : 0,
			"byteOffset" : 0,
			"componentType" : 5126,
			"count" : 810,
			"type" : "VEC3",
			"min" : [ -17.525390625, -8.0068359375, 0 ],
			"max" : [ 17.525390625, 8.0068359375, 7.253000259399414 ]
		},
		{
			"bufferView" : 1,
			"byteOffset" : 0,
			"componentType" : 5126,
			"count" : 810,
			"type" : "VEC3",
			"min" : [ -0.9973658323287964, -0.9977409839630127, -1 ],
			"max" : [ 0.9976720213890076, 0.9954040050506592, 1 ]
		},
		{
			"bufferView" : 2,
			"byteOffset" : 0,
			"componentType" : 5126,
			"count" : 810,
			"type" : "VEC3"
		},
		{
			"bufferView" : 3,
			"byteOffset" : 0,
			"componentType" : 5123,
			"count" : 810,
			"type" : "SCALAR",
			"min" : [ 0 ],
			"max" : [ 809 ]
		}
	],
	"bufferViews" : [
		{
			"buffer" : 0,
			"byteOffset" : 0,
			"byteLength" : 9720,
			"target" : 34962
		},
		{
			"buffer" : 0,
			"byteOffset" : 9720,
			"byteLength" : 9720,
			"target" : 34962
		},
		{
			"buffer" : 0,
			"byteOffset" : 19440,
			"byteLength" : 9720,
			"target" : 34962
		},
		{
			"buffer" : 0,
			"byteOffset" : 29160,
			"byteLength" : 1620,
			"target" : 34963
		}
	],
	"buffers" : [
		{
			"uri" : "B359651527202063C0.bin",
			"byteLength" : 30780
		}
	]
}
