{
	"asset" : {
		"generator" : "FME 2023.1.0.0",
		"version" : "2.0"
	},
	"materials" : [
		{
			"name" : "default_material",
			"pbrMetallicRoughness" : {
				"baseColorFactor" : [ 1, 1, 1, 1 ],
				"roughnessFactor" : 0.30000000000000004,
				"metallicFactor" : 0.5
			}
		}
	],
	"meshes" : [
		{
			"primitives" : [
				{
					"attributes" : {
						"NORMAL" : 1,
						"POSITION" : 0,
						"COLOR_0" : 2
					},
					"indices" : 3,
					"material" : 0,
					"mode" : 4
				}
			]
		}
	],
	"nodes" : [
		{
			"name" : "B338521634601063C0",
			"matrix" : [ 1, 0, 0, 0, 0, 0, -1, 0, 0, 1, 0, 0, 833849.8125, 16.679000854492188, -816341.8125, 1 ],
			"children" : [ 1 ]
		},
		{
			"mesh" : 0
		}
	],
	"scenes" : [
		{
			"nodes" : [ 0 ]
		}
	],
	"scene" : 0,
	"accessors" : [
		{
			"bufferView" : 0,
			"byteOffset" : 0,
			"componentType" : 5126,
			"count" : 1194,
			"type" : "VEC3",
			"min" : [ -14.5908203125, -13.7041015625, 0 ],
			"max" : [ 14.58984375, 13.7041015625, 99.98300170898438 ]
		},
		{
			"bufferView" : 1,
			"byteOffset" : 0,
			"componentType" : 5126,
			"count" : 1194,
			"type" : "VEC3",
			"min" : [ -0.9834582209587097, -0.9956567883491516, -1 ],
			"max" : [ 0.9835749268531799, 0.9962449073791504, 1 ]
		},
		{
			"bufferView" : 2,
			"byteOffset" : 0,
			"componentType" : 5126,
			"count" : 1194,
			"type" : "VEC3"
		},
		{
			"bufferView" : 3,
			"byteOffset" : 0,
			"componentType" : 5123,
			"count" : 1194,
			"type" : "SCALAR",
			"min" : [ 0 ],
			"max" : [ 1193 ]
		}
	],
	"bufferViews" : [
		{
			"buffer" : 0,
			"byteOffset" : 0,
			"byteLength" : 14328,
			"target" : 34962
		},
		{
			"buffer" : 0,
			"byteOffset" : 14328,
			"byteLength" : 14328,
			"target" : 34962
		},
		{
			"buffer" : 0,
			"byteOffset" : 28656,
			"byteLength" : 14328,
			"target" : 34962
		},
		{
			"buffer" : 0,
			"byteOffset" : 42984,
			"byteLength" : 2388,
			"target" : 34963
		}
	],
	"buffers" : [
		{
			"uri" : "B338521634601063C0.bin",
			"byteLength" : 45372
		}
	]
}
