{
	"asset" : {
		"generator" : "FME 2022.2.4.0",
		"version" : "2.0"
	},
	"materials" : [
		{
			"name" : "default_material",
			"pbrMetallicRoughness" : {
				"baseColorFactor" : [ 1, 1, 1, 1 ],
				"roughnessFactor" : 0.30000000000000004,
				"metallicFactor" : 0.5
			}
		}
	],
	"meshes" : [
		{
			"primitives" : [
				{
					"attributes" : {
						"NORMAL" : 1,
						"POSITION" : 0,
						"COLOR_0" : 2
					},
					"indices" : 3,
					"material" : 0,
					"mode" : 4
				}
			]
		}
	],
	"nodes" : [
		{
			"name" : "B340271587901063C0",
			"matrix" : [ 1, 0, 0, 0, 0, 0, -1, 0, 0, 1, 0, 0, 834025.8125, 19.4950008392334, -815874.6875, 1 ],
			"children" : [ 1 ]
		},
		{
			"mesh" : 0
		}
	],
	"scenes" : [
		{
			"nodes" : [ 0 ]
		}
	],
	"scene" : 0,
	"accessors" : [
		{
			"bufferView" : 0,
			"byteOffset" : 0,
			"componentType" : 5126,
			"count" : 483,
			"type" : "VEC3",
			"min" : [ -7.6767578125, -7.3740234375, 0 ],
			"max" : [ 7.67578125, 7.373046875, 24.262998580932617 ]
		},
		{
			"bufferView" : 1,
			"byteOffset" : 0,
			"componentType" : 5126,
			"count" : 483,
			"type" : "VEC3",
			"min" : [ -0.8110935091972351, -0.8119519948959351, -0.017928170040249825 ],
			"max" : [ 0.8112218379974365, 0.8141211271286011, 1 ]
		},
		{
			"bufferView" : 2,
			"byteOffset" : 0,
			"componentType" : 5126,
			"count" : 483,
			"type" : "VEC3"
		},
		{
			"bufferView" : 3,
			"byteOffset" : 0,
			"componentType" : 5123,
			"count" : 483,
			"type" : "SCALAR",
			"min" : [ 0 ],
			"max" : [ 482 ]
		}
	],
	"bufferViews" : [
		{
			"buffer" : 0,
			"byteOffset" : 0,
			"byteLength" : 5796,
			"target" : 34962
		},
		{
			"buffer" : 0,
			"byteOffset" : 5796,
			"byteLength" : 5796,
			"target" : 34962
		},
		{
			"buffer" : 0,
			"byteOffset" : 11592,
			"byteLength" : 5796,
			"target" : 34962
		},
		{
			"buffer" : 0,
			"byteOffset" : 17388,
			"byteLength" : 966,
			"target" : 34963
		}
	],
	"buffers" : [
		{
			"uri" : "B340271587901063C0.bin",
			"byteLength" : 18354
		}
	]
}
