{"asset":{"generator":"FME 2020.0.0.0","version":"2.0"},"materials":[{"name":"default_material","pbrMetallicRoughness":{"baseColorFactor":[0.8,0.8,0.8,1],"roughnessFactor":0.30000000000000004,"metallicFactor":0.5}},{"name":"T26250240000106E10_001","pbrMetallicRoughness":{"roughnessFactor":0.984375,"metallicFactor":0.5}}],"meshes":[{"primitives":[{"attributes":{"NORMAL":1,"POSITION":0,"TEXCOORD_0":2},"indices":3,"material":1,"mode":4}]}],"nodes":[{"name":"T26250240000106E10","matrix":[1,0,0,0,0,0,-1,0,0,1,0,0,826625,1.3000030517578125,-824300,1],"children":[1]},{"mesh":0}],"scenes":[{"nodes":[0]}],"scene":0,"accessors":[{"bufferView":0,"byteOffset":0,"componentType":5126,"count":42543,"type":"VEC3","min":[-375,-300,1.9073486328125e-06],"max":[375,300,191.46832275390625]},{"bufferView":1,"byteOffset":0,"componentType":5126,"count":42543,"type":"VEC3","min":[-1,-0.9991095066070557,-0.9655646681785583],"max":[0.9988662600517273,0.9989056587219238,1]},{"bufferView":2,"byteOffset":0,"componentType":5126,"count":42543,"type":"VEC2","min":[6.657838821411133e-05,8.308887481689453e-05],"max":[0.9999334812164307,0.9999169111251831]},{"bufferView":3,"byteOffset":0,"componentType":5123,"count":42543,"type":"SCALAR","min":[0],"max":[42542]}],"bufferViews":[{"buffer":0,"byteOffset":0,"byteLength":510516,"target":34962},{"buffer":0,"byteOffset":510516,"byteLength":510516,"target":34962},{"buffer":0,"byteOffset":1021032,"byteLength":340344,"target":34962},{"buffer":0,"byteOffset":1361376,"byteLength":85086,"target":34963}],"buffers":[{"uri":"T26250240000106E10.bin","byteLength":1446462}]}