{
	"asset" : {
		"generator" : "FME 2023.1.0.0",
		"version" : "2.0"
	},
	"materials" : [
		{
			"name" : "default_material",
			"pbrMetallicRoughness" : {
				"baseColorFactor" : [ 1, 1, 1, 1 ],
				"roughnessFactor" : 0.30000000000000004,
				"metallicFactor" : 0.5
			}
		}
	],
	"meshes" : [
		{
			"primitives" : [
				{
					"attributes" : {
						"NORMAL" : 1,
						"POSITION" : 0,
						"COLOR_0" : 2
					},
					"indices" : 3,
					"material" : 0,
					"mode" : 4
				}
			]
		}
	],
	"nodes" : [
		{
			"name" : "B335371607801063C0",
			"matrix" : [ 1, 0, 0, 0, 0, 0, -1, 0, 0, 1, 0, 0, 833538.5625, 40.36500549316406, -816081, 1 ],
			"children" : [ 1 ]
		},
		{
			"mesh" : 0
		}
	],
	"scenes" : [
		{
			"nodes" : [ 0 ]
		}
	],
	"scene" : 0,
	"accessors" : [
		{
			"bufferView" : 0,
			"byteOffset" : 0,
			"componentType" : 5126,
			"count" : 447,
			"type" : "VEC3",
			"min" : [ -4.5556640625, -5.388671875, 0 ],
			"max" : [ 4.5556640625, 5.388671875, 18.255996704101562 ]
		},
		{
			"bufferView" : 1,
			"byteOffset" : 0,
			"componentType" : 5126,
			"count" : 447,
			"type" : "VEC3",
			"min" : [ -0.9873936176300049, -0.987289547920227, -1 ],
			"max" : [ 0.9873936176300049, 0.9865632653236389, 1 ]
		},
		{
			"bufferView" : 2,
			"byteOffset" : 0,
			"componentType" : 5126,
			"count" : 447,
			"type" : "VEC3"
		},
		{
			"bufferView" : 3,
			"byteOffset" : 0,
			"componentType" : 5123,
			"count" : 447,
			"type" : "SCALAR",
			"min" : [ 0 ],
			"max" : [ 446 ]
		}
	],
	"bufferViews" : [
		{
			"buffer" : 0,
			"byteOffset" : 0,
			"byteLength" : 5364,
			"target" : 34962
		},
		{
			"buffer" : 0,
			"byteOffset" : 5364,
			"byteLength" : 5364,
			"target" : 34962
		},
		{
			"buffer" : 0,
			"byteOffset" : 10728,
			"byteLength" : 5364,
			"target" : 34962
		},
		{
			"buffer" : 0,
			"byteOffset" : 16092,
			"byteLength" : 894,
			"target" : 34963
		}
	],
	"buffers" : [
		{
			"uri" : "B335371607801063C0.bin",
			"byteLength" : 16986
		}
	]
}
