{
	"asset" : {
		"generator" : "FME 2022.2.4.0",
		"version" : "2.0"
	},
	"materials" : [
		{
			"name" : "default_material",
			"pbrMetallicRoughness" : {
				"baseColorFactor" : [ 1, 1, 1, 1 ],
				"roughnessFactor" : 0.30000000000000004,
				"metallicFactor" : 0.5
			}
		}
	],
	"meshes" : [
		{
			"primitives" : [
				{
					"attributes" : {
						"NORMAL" : 1,
						"POSITION" : 0,
						"COLOR_0" : 2
					},
					"indices" : 3,
					"material" : 0,
					"mode" : 4
				}
			]
		}
	],
	"nodes" : [
		{
			"name" : "B181551350201062G0",
			"matrix" : [ 1, 0, 0, 0, 0, 0, -1, 0, 0, 1, 0, 0, 818159.0625, 82.12139892578125, -813504.125, 1 ],
			"children" : [ 1 ]
		},
		{
			"mesh" : 0
		}
	],
	"scenes" : [
		{
			"nodes" : [ 0 ]
		}
	],
	"scene" : 0,
	"accessors" : [
		{
			"bufferView" : 0,
			"byteOffset" : 0,
			"componentType" : 5126,
			"count" : 258,
			"type" : "VEC3",
			"min" : [ -9.6875, -7.6875, 0 ],
			"max" : [ 9.6875, 7.625, 5.8423004150390625 ]
		},
		{
			"bufferView" : 1,
			"byteOffset" : 0,
			"componentType" : 5126,
			"count" : 258,
			"type" : "VEC3",
			"min" : [ -0.9651795625686646, -0.8796752691268921, -1 ],
			"max" : [ 0.8612989783287048, 0.8772079944610596, 1 ]
		},
		{
			"bufferView" : 2,
			"byteOffset" : 0,
			"componentType" : 5126,
			"count" : 258,
			"type" : "VEC3"
		},
		{
			"bufferView" : 3,
			"byteOffset" : 0,
			"componentType" : 5123,
			"count" : 258,
			"type" : "SCALAR",
			"min" : [ 0 ],
			"max" : [ 257 ]
		}
	],
	"bufferViews" : [
		{
			"buffer" : 0,
			"byteOffset" : 0,
			"byteLength" : 3096,
			"target" : 34962
		},
		{
			"buffer" : 0,
			"byteOffset" : 3096,
			"byteLength" : 3096,
			"target" : 34962
		},
		{
			"buffer" : 0,
			"byteOffset" : 6192,
			"byteLength" : 3096,
			"target" : 34962
		},
		{
			"buffer" : 0,
			"byteOffset" : 9288,
			"byteLength" : 516,
			"target" : 34963
		}
	],
	"buffers" : [
		{
			"uri" : "B181551350201062G0.bin",
			"byteLength" : 9804
		}
	]
}
