{
	"asset" : {
		"generator" : "FME 2022.2.4.0",
		"version" : "2.0"
	},
	"materials" : [
		{
			"name" : "default_material",
			"pbrMetallicRoughness" : {
				"baseColorFactor" : [ 1, 1, 1, 1 ],
				"roughnessFactor" : 0.30000000000000004,
				"metallicFactor" : 0.5
			}
		}
	],
	"meshes" : [
		{
			"primitives" : [
				{
					"attributes" : {
						"NORMAL" : 1,
						"POSITION" : 0,
						"COLOR_0" : 2
					},
					"indices" : 3,
					"material" : 0,
					"mode" : 4
				}
			]
		}
	],
	"nodes" : [
		{
			"name" : "B336701618001063C0",
			"matrix" : [ 1, 0, 0, 0, 0, 0, -1, 0, 0, 1, 0, 0, 833669.0625, 18.281005859375, -816179.875, 1 ],
			"children" : [ 1 ]
		},
		{
			"mesh" : 0
		}
	],
	"scenes" : [
		{
			"nodes" : [ 0 ]
		}
	],
	"scene" : 0,
	"accessors" : [
		{
			"bufferView" : 0,
			"byteOffset" : 0,
			"componentType" : 5126,
			"count" : 93,
			"type" : "VEC3",
			"min" : [ -4.0263671875, -2.5263671875, 0 ],
			"max" : [ 4.02734375, 2.525390625, 5.715000152587891 ]
		},
		{
			"bufferView" : 1,
			"byteOffset" : 0,
			"componentType" : 5126,
			"count" : 93,
			"type" : "VEC3",
			"min" : [ -0.9668530225753784, -0.9932243227958679, -1 ],
			"max" : [ 0.9560912847518921, 0.9670471549034119, 1 ]
		},
		{
			"bufferView" : 2,
			"byteOffset" : 0,
			"componentType" : 5126,
			"count" : 93,
			"type" : "VEC3"
		},
		{
			"bufferView" : 3,
			"byteOffset" : 0,
			"componentType" : 5121,
			"count" : 93,
			"type" : "SCALAR",
			"min" : [ 0 ],
			"max" : [ 92 ]
		}
	],
	"bufferViews" : [
		{
			"buffer" : 0,
			"byteOffset" : 0,
			"byteLength" : 1116,
			"target" : 34962
		},
		{
			"buffer" : 0,
			"byteOffset" : 1116,
			"byteLength" : 1116,
			"target" : 34962
		},
		{
			"buffer" : 0,
			"byteOffset" : 2232,
			"byteLength" : 1116,
			"target" : 34962
		},
		{
			"buffer" : 0,
			"byteOffset" : 3348,
			"byteLength" : 93,
			"target" : 34963
		}
	],
	"buffers" : [
		{
			"uri" : "B336701618001063C0.bin",
			"byteLength" : 3441
		}
	]
}
