{
	"asset" : {
		"generator" : "FME 2022.2.4.0",
		"version" : "2.0"
	},
	"materials" : [
		{
			"name" : "default_material",
			"pbrMetallicRoughness" : {
				"baseColorFactor" : [ 1, 1, 1, 1 ],
				"roughnessFactor" : 0.30000000000000004,
				"metallicFactor" : 0.5
			}
		}
	],
	"meshes" : [
		{
			"primitives" : [
				{
					"attributes" : {
						"NORMAL" : 1,
						"POSITION" : 0,
						"COLOR_0" : 2
					},
					"indices" : 3,
					"material" : 0,
					"mode" : 4
				}
			]
		}
	],
	"nodes" : [
		{
			"name" : "B342671510101063C0",
			"matrix" : [ 1, 0, 0, 0, 0, 0, -1, 0, 0, 1, 0, 0, 834274.875, 106.66999816894531, -815105, 1 ],
			"children" : [ 1 ]
		},
		{
			"mesh" : 0
		}
	],
	"scenes" : [
		{
			"nodes" : [ 0 ]
		}
	],
	"scene" : 0,
	"accessors" : [
		{
			"bufferView" : 0,
			"byteOffset" : 0,
			"componentType" : 5126,
			"count" : 1683,
			"type" : "VEC3",
			"min" : [ -13.826171875, -9.646484375, 0 ],
			"max" : [ 13.826171875, 9.646484375, 28.8070068359375 ]
		},
		{
			"bufferView" : 1,
			"byteOffset" : 0,
			"componentType" : 5126,
			"count" : 1683,
			"type" : "VEC3",
			"min" : [ -1, -0.9998471140861511, -1 ],
			"max" : [ 0.9999977946281433, 0.9999963045120239, 1 ]
		},
		{
			"bufferView" : 2,
			"byteOffset" : 0,
			"componentType" : 5126,
			"count" : 1683,
			"type" : "VEC3"
		},
		{
			"bufferView" : 3,
			"byteOffset" : 0,
			"componentType" : 5123,
			"count" : 1683,
			"type" : "SCALAR",
			"min" : [ 0 ],
			"max" : [ 1682 ]
		}
	],
	"bufferViews" : [
		{
			"buffer" : 0,
			"byteOffset" : 0,
			"byteLength" : 20196,
			"target" : 34962
		},
		{
			"buffer" : 0,
			"byteOffset" : 20196,
			"byteLength" : 20196,
			"target" : 34962
		},
		{
			"buffer" : 0,
			"byteOffset" : 40392,
			"byteLength" : 20196,
			"target" : 34962
		},
		{
			"buffer" : 0,
			"byteOffset" : 60588,
			"byteLength" : 3366,
			"target" : 34963
		}
	],
	"buffers" : [
		{
			"uri" : "B342671510101063C0.bin",
			"byteLength" : 63954
		}
	]
}
