{
	"asset" : {
		"generator" : "FME 2023.2.1.0",
		"version" : "2.0"
	},
	"materials" : [
		{
			"name" : "default_material",
			"pbrMetallicRoughness" : {
				"baseColorFactor" : [ 1, 1, 1, 1 ],
				"roughnessFactor" : 0.30000000000000004,
				"metallicFactor" : 0.5
			}
		}
	],
	"meshes" : [
		{
			"primitives" : [
				{
					"attributes" : {
						"NORMAL" : 1,
						"POSITION" : 0,
						"COLOR_0" : 2
					},
					"indices" : 3,
					"material" : 0,
					"mode" : 4
				}
			]
		}
	],
	"nodes" : [
		{
			"name" : "B342011518702063C0",
			"matrix" : [ 1, 0, 0, 0, 0, 0, -1, 0, 0, 1, 0, 0, 834204.0625, 85.26000213623047, -815187.25, 1 ],
			"children" : [ 1 ]
		},
		{
			"mesh" : 0
		}
	],
	"scenes" : [
		{
			"nodes" : [ 0 ]
		}
	],
	"scene" : 0,
	"accessors" : [
		{
			"bufferView" : 0,
			"byteOffset" : 0,
			"componentType" : 5126,
			"count" : 1155,
			"type" : "VEC3",
			"min" : [ -13.533203125, -20.017578125, 0 ],
			"max" : [ 13.533203125, 20.0185546875, 21.836997985839844 ]
		},
		{
			"bufferView" : 1,
			"byteOffset" : 0,
			"componentType" : 5126,
			"count" : 1155,
			"type" : "VEC3",
			"min" : [ -0.9992107152938843, -0.9983596801757812, -1 ],
			"max" : [ 0.9995723366737366, 0.9912418127059937, 1 ]
		},
		{
			"bufferView" : 2,
			"byteOffset" : 0,
			"componentType" : 5126,
			"count" : 1155,
			"type" : "VEC3"
		},
		{
			"bufferView" : 3,
			"byteOffset" : 0,
			"componentType" : 5123,
			"count" : 1155,
			"type" : "SCALAR",
			"min" : [ 0 ],
			"max" : [ 1154 ]
		}
	],
	"bufferViews" : [
		{
			"buffer" : 0,
			"byteOffset" : 0,
			"byteLength" : 13860,
			"target" : 34962
		},
		{
			"buffer" : 0,
			"byteOffset" : 13860,
			"byteLength" : 13860,
			"target" : 34962
		},
		{
			"buffer" : 0,
			"byteOffset" : 27720,
			"byteLength" : 13860,
			"target" : 34962
		},
		{
			"buffer" : 0,
			"byteOffset" : 41580,
			"byteLength" : 2310,
			"target" : 34963
		}
	],
	"buffers" : [
		{
			"uri" : "B342011518702063C0.bin",
			"byteLength" : 43890
		}
	]
}
