{
	"asset" : {
		"generator" : "FME 2022.2.4.0",
		"version" : "2.0"
	},
	"materials" : [
		{
			"name" : "default_material",
			"pbrMetallicRoughness" : {
				"baseColorFactor" : [ 1, 1, 1, 1 ],
				"roughnessFactor" : 0.30000000000000004,
				"metallicFactor" : 0.5
			}
		}
	],
	"meshes" : [
		{
			"primitives" : [
				{
					"attributes" : {
						"NORMAL" : 1,
						"POSITION" : 0,
						"COLOR_0" : 2
					},
					"indices" : 3,
					"material" : 0,
					"mode" : 4
				}
			]
		}
	],
	"nodes" : [
		{
			"name" : "B340671525301063C0",
			"matrix" : [ 1, 0, 0, 0, 0, 0, -1, 0, 0, 1, 0, 0, 834068.25, 121.46800231933594, -815249.0625, 1 ],
			"children" : [ 1 ]
		},
		{
			"mesh" : 0
		}
	],
	"scenes" : [
		{
			"nodes" : [ 0 ]
		}
	],
	"scene" : 0,
	"accessors" : [
		{
			"bufferView" : 0,
			"byteOffset" : 0,
			"componentType" : 5126,
			"count" : 2502,
			"type" : "VEC3",
			"min" : [ -16.5615234375, -11.5703125, 0 ],
			"max" : [ 16.5615234375, 11.5712890625, 85.74800109863281 ]
		},
		{
			"bufferView" : 1,
			"byteOffset" : 0,
			"componentType" : 5126,
			"count" : 2502,
			"type" : "VEC3",
			"min" : [ -0.9998691082000732, -0.9998685717582703, -1 ],
			"max" : [ 0.9998611807823181, 0.9999976754188538, 1 ]
		},
		{
			"bufferView" : 2,
			"byteOffset" : 0,
			"componentType" : 5126,
			"count" : 2502,
			"type" : "VEC3"
		},
		{
			"bufferView" : 3,
			"byteOffset" : 0,
			"componentType" : 5123,
			"count" : 2502,
			"type" : "SCALAR",
			"min" : [ 0 ],
			"max" : [ 2501 ]
		}
	],
	"bufferViews" : [
		{
			"buffer" : 0,
			"byteOffset" : 0,
			"byteLength" : 30024,
			"target" : 34962
		},
		{
			"buffer" : 0,
			"byteOffset" : 30024,
			"byteLength" : 30024,
			"target" : 34962
		},
		{
			"buffer" : 0,
			"byteOffset" : 60048,
			"byteLength" : 30024,
			"target" : 34962
		},
		{
			"buffer" : 0,
			"byteOffset" : 90072,
			"byteLength" : 5004,
			"target" : 34963
		}
	],
	"buffers" : [
		{
			"uri" : "B340671525301063C0.bin",
			"byteLength" : 95076
		}
	]
}
