{
	"asset" : {
		"generator" : "FME 2023.1.0.0",
		"version" : "2.0"
	},
	"materials" : [
		{
			"name" : "default_material",
			"pbrMetallicRoughness" : {
				"baseColorFactor" : [ 1, 1, 1, 1 ],
				"roughnessFactor" : 0.30000000000000004,
				"metallicFactor" : 0.5
			}
		}
	],
	"meshes" : [
		{
			"primitives" : [
				{
					"attributes" : {
						"NORMAL" : 1,
						"POSITION" : 0,
						"COLOR_0" : 2
					},
					"indices" : 3,
					"material" : 0,
					"mode" : 4
				}
			]
		}
	],
	"nodes" : [
		{
			"name" : "B340521599202063C0",
			"matrix" : [ 1, 0, 0, 0, 0, 0, -1, 0, 0, 1, 0, 0, 834054.5, 8.581000328063965, -815988.875, 1 ],
			"children" : [ 1 ]
		},
		{
			"mesh" : 0
		}
	],
	"scenes" : [
		{
			"nodes" : [ 0 ]
		}
	],
	"scene" : 0,
	"accessors" : [
		{
			"bufferView" : 0,
			"byteOffset" : 0,
			"componentType" : 5126,
			"count" : 468,
			"type" : "VEC3",
			"min" : [ -13.0693359375, -20.15625, 0 ],
			"max" : [ 13.1484375, 20.197265625, 18.756999969482422 ]
		},
		{
			"bufferView" : 1,
			"byteOffset" : 0,
			"componentType" : 5126,
			"count" : 468,
			"type" : "VEC3",
			"min" : [ -0.8201075792312622, -0.8102366328239441, -1 ],
			"max" : [ 0.8014331459999084, 0.7840979099273682, 1 ]
		},
		{
			"bufferView" : 2,
			"byteOffset" : 0,
			"componentType" : 5126,
			"count" : 468,
			"type" : "VEC3"
		},
		{
			"bufferView" : 3,
			"byteOffset" : 0,
			"componentType" : 5123,
			"count" : 468,
			"type" : "SCALAR",
			"min" : [ 0 ],
			"max" : [ 467 ]
		}
	],
	"bufferViews" : [
		{
			"buffer" : 0,
			"byteOffset" : 0,
			"byteLength" : 5616,
			"target" : 34962
		},
		{
			"buffer" : 0,
			"byteOffset" : 5616,
			"byteLength" : 5616,
			"target" : 34962
		},
		{
			"buffer" : 0,
			"byteOffset" : 11232,
			"byteLength" : 5616,
			"target" : 34962
		},
		{
			"buffer" : 0,
			"byteOffset" : 16848,
			"byteLength" : 936,
			"target" : 34963
		}
	],
	"buffers" : [
		{
			"uri" : "B340521599202063C0.bin",
			"byteLength" : 17784
		}
	]
}
