{
	"asset" : {
		"generator" : "FME 2023.1.0.0",
		"version" : "2.0"
	},
	"materials" : [
		{
			"name" : "default_material",
			"pbrMetallicRoughness" : {
				"baseColorFactor" : [ 1, 1, 1, 1 ],
				"roughnessFactor" : 0.30000000000000004,
				"metallicFactor" : 0.5
			}
		}
	],
	"meshes" : [
		{
			"primitives" : [
				{
					"attributes" : {
						"NORMAL" : 1,
						"POSITION" : 0,
						"COLOR_0" : 2
					},
					"indices" : 3,
					"material" : 0,
					"mode" : 4
				}
			]
		}
	],
	"nodes" : [
		{
			"name" : "B334021646001063C0",
			"matrix" : [ 1, 0, 0, 0, 0, 0, -1, 0, 0, 1, 0, 0, 833400, 2.945995330810547, -816455.1875, 1 ],
			"children" : [ 1 ]
		},
		{
			"mesh" : 0
		}
	],
	"scenes" : [
		{
			"nodes" : [ 0 ]
		}
	],
	"scene" : 0,
	"accessors" : [
		{
			"bufferView" : 0,
			"byteOffset" : 0,
			"componentType" : 5126,
			"count" : 717,
			"type" : "VEC3",
			"min" : [ -5.90625, -7.0576171875, 0 ],
			"max" : [ 5.9052734375, 7.0576171875, 24.762001037597656 ]
		},
		{
			"bufferView" : 1,
			"byteOffset" : 0,
			"componentType" : 5126,
			"count" : 717,
			"type" : "VEC3",
			"min" : [ -0.8944272398948669, -0.7808688282966614, -1 ],
			"max" : [ 0.7805749177932739, 0.7827039361000061, 1 ]
		},
		{
			"bufferView" : 2,
			"byteOffset" : 0,
			"componentType" : 5126,
			"count" : 717,
			"type" : "VEC3"
		},
		{
			"bufferView" : 3,
			"byteOffset" : 0,
			"componentType" : 5123,
			"count" : 717,
			"type" : "SCALAR",
			"min" : [ 0 ],
			"max" : [ 716 ]
		}
	],
	"bufferViews" : [
		{
			"buffer" : 0,
			"byteOffset" : 0,
			"byteLength" : 8604,
			"target" : 34962
		},
		{
			"buffer" : 0,
			"byteOffset" : 8604,
			"byteLength" : 8604,
			"target" : 34962
		},
		{
			"buffer" : 0,
			"byteOffset" : 17208,
			"byteLength" : 8604,
			"target" : 34962
		},
		{
			"buffer" : 0,
			"byteOffset" : 25812,
			"byteLength" : 1434,
			"target" : 34963
		}
	],
	"buffers" : [
		{
			"uri" : "B334021646001063C0.bin",
			"byteLength" : 27246
		}
	]
}
