{
	"asset" : {
		"generator" : "FME 2023.1.0.0",
		"version" : "2.0"
	},
	"materials" : [
		{
			"name" : "default_material",
			"pbrMetallicRoughness" : {
				"baseColorFactor" : [ 1, 1, 1, 1 ],
				"roughnessFactor" : 0.30000000000000004,
				"metallicFactor" : 0.5
			}
		}
	],
	"meshes" : [
		{
			"primitives" : [
				{
					"attributes" : {
						"NORMAL" : 1,
						"POSITION" : 0,
						"COLOR_0" : 2
					},
					"indices" : 3,
					"material" : 0,
					"mode" : 4
				}
			]
		}
	],
	"nodes" : [
		{
			"name" : "B347161582601063C0",
			"matrix" : [ 1, 0, 0, 0, 0, 0, -1, 0, 0, 1, 0, 0, 834719.25, 4.158999919891357, -815826.6875, 1 ],
			"children" : [ 1 ]
		},
		{
			"mesh" : 0
		}
	],
	"scenes" : [
		{
			"nodes" : [ 0 ]
		}
	],
	"scene" : 0,
	"accessors" : [
		{
			"bufferView" : 0,
			"byteOffset" : 0,
			"componentType" : 5126,
			"count" : 8097,
			"type" : "VEC3",
			"min" : [ -26.5458984375, -25.25, 0 ],
			"max" : [ 26.544921875, 25.2509765625, 185.54600524902344 ]
		},
		{
			"bufferView" : 1,
			"byteOffset" : 0,
			"componentType" : 5126,
			"count" : 8097,
			"type" : "VEC3",
			"min" : [ -0.9888837933540344, -0.9999203681945801, -1 ],
			"max" : [ 0.9886188507080078, 0.9957253932952881, 1 ]
		},
		{
			"bufferView" : 2,
			"byteOffset" : 0,
			"componentType" : 5126,
			"count" : 8097,
			"type" : "VEC3"
		},
		{
			"bufferView" : 3,
			"byteOffset" : 0,
			"componentType" : 5123,
			"count" : 8097,
			"type" : "SCALAR",
			"min" : [ 0 ],
			"max" : [ 8096 ]
		}
	],
	"bufferViews" : [
		{
			"buffer" : 0,
			"byteOffset" : 0,
			"byteLength" : 97164,
			"target" : 34962
		},
		{
			"buffer" : 0,
			"byteOffset" : 97164,
			"byteLength" : 97164,
			"target" : 34962
		},
		{
			"buffer" : 0,
			"byteOffset" : 194328,
			"byteLength" : 97164,
			"target" : 34962
		},
		{
			"buffer" : 0,
			"byteOffset" : 291492,
			"byteLength" : 16194,
			"target" : 34963
		}
	],
	"buffers" : [
		{
			"uri" : "B347161582601063C0.bin",
			"byteLength" : 307686
		}
	]
}
