{
	"asset" : {
		"generator" : "FME 2023.2.1.0",
		"version" : "2.0"
	},
	"materials" : [
		{
			"name" : "default_material",
			"pbrMetallicRoughness" : {
				"baseColorFactor" : [ 1, 1, 1, 1 ],
				"roughnessFactor" : 0.30000000000000004,
				"metallicFactor" : 0.5
			}
		}
	],
	"meshes" : [
		{
			"primitives" : [
				{
					"attributes" : {
						"NORMAL" : 1,
						"POSITION" : 0,
						"COLOR_0" : 2
					},
					"indices" : 3,
					"material" : 0,
					"mode" : 4
				}
			]
		}
	],
	"nodes" : [
		{
			"name" : "B336391597101063C0",
			"matrix" : [ 1, 0, 0, 0, 0, 0, -1, 0, 0, 1, 0, 0, 833637.4375, 55.66900634765625, -815974.625, 1 ],
			"children" : [ 1 ]
		},
		{
			"mesh" : 0
		}
	],
	"scenes" : [
		{
			"nodes" : [ 0 ]
		}
	],
	"scene" : 0,
	"accessors" : [
		{
			"bufferView" : 0,
			"byteOffset" : 0,
			"componentType" : 5126,
			"count" : 1581,
			"type" : "VEC3",
			"min" : [ -13.830078125, -18.875, 0 ],
			"max" : [ 13.830078125, 18.875, 16.14299774169922 ]
		},
		{
			"bufferView" : 1,
			"byteOffset" : 0,
			"componentType" : 5126,
			"count" : 1581,
			"type" : "VEC3",
			"min" : [ -0.999909520149231, -0.9284766912460327, -1 ],
			"max" : [ 0.9248558878898621, 0.7419975996017456, 1 ]
		},
		{
			"bufferView" : 2,
			"byteOffset" : 0,
			"componentType" : 5126,
			"count" : 1581,
			"type" : "VEC3"
		},
		{
			"bufferView" : 3,
			"byteOffset" : 0,
			"componentType" : 5123,
			"count" : 1581,
			"type" : "SCALAR",
			"min" : [ 0 ],
			"max" : [ 1580 ]
		}
	],
	"bufferViews" : [
		{
			"buffer" : 0,
			"byteOffset" : 0,
			"byteLength" : 18972,
			"target" : 34962
		},
		{
			"buffer" : 0,
			"byteOffset" : 18972,
			"byteLength" : 18972,
			"target" : 34962
		},
		{
			"buffer" : 0,
			"byteOffset" : 37944,
			"byteLength" : 18972,
			"target" : 34962
		},
		{
			"buffer" : 0,
			"byteOffset" : 56916,
			"byteLength" : 3162,
			"target" : 34963
		}
	],
	"buffers" : [
		{
			"uri" : "B336391597101063C0.bin",
			"byteLength" : 60078
		}
	]
}
