{
	"asset" : {
		"generator" : "FME 2022.2.4.0",
		"version" : "2.0"
	},
	"materials" : [
		{
			"name" : "default_material",
			"pbrMetallicRoughness" : {
				"baseColorFactor" : [ 1, 1, 1, 1 ],
				"roughnessFactor" : 0.30000000000000004,
				"metallicFactor" : 0.5
			}
		}
	],
	"meshes" : [
		{
			"primitives" : [
				{
					"attributes" : {
						"NORMAL" : 1,
						"POSITION" : 0,
						"COLOR_0" : 2
					},
					"indices" : 3,
					"material" : 0,
					"mode" : 4
				}
			]
		}
	],
	"nodes" : [
		{
			"name" : "B332321617801063C0",
			"matrix" : [ 1, 0, 0, 0, 0, 0, -1, 0, 0, 1, 0, 0, 833230.8125, 37.05000305175781, -816174.625, 1 ],
			"children" : [ 1 ]
		},
		{
			"mesh" : 0
		}
	],
	"scenes" : [
		{
			"nodes" : [ 0 ]
		}
	],
	"scene" : 0,
	"accessors" : [
		{
			"bufferView" : 0,
			"byteOffset" : 0,
			"componentType" : 5126,
			"count" : 552,
			"type" : "VEC3",
			"min" : [ -6.177734375, -6.7294921875, 0 ],
			"max" : [ 6.1767578125, 6.7294921875, 24.88399887084961 ]
		},
		{
			"bufferView" : 1,
			"byteOffset" : 0,
			"componentType" : 5126,
			"count" : 552,
			"type" : "VEC3",
			"min" : [ -0.7646279335021973, -0.7632991075515747, -1 ],
			"max" : [ 0.7631507515907288, 0.764183521270752, 1 ]
		},
		{
			"bufferView" : 2,
			"byteOffset" : 0,
			"componentType" : 5126,
			"count" : 552,
			"type" : "VEC3"
		},
		{
			"bufferView" : 3,
			"byteOffset" : 0,
			"componentType" : 5123,
			"count" : 552,
			"type" : "SCALAR",
			"min" : [ 0 ],
			"max" : [ 551 ]
		}
	],
	"bufferViews" : [
		{
			"buffer" : 0,
			"byteOffset" : 0,
			"byteLength" : 6624,
			"target" : 34962
		},
		{
			"buffer" : 0,
			"byteOffset" : 6624,
			"byteLength" : 6624,
			"target" : 34962
		},
		{
			"buffer" : 0,
			"byteOffset" : 13248,
			"byteLength" : 6624,
			"target" : 34962
		},
		{
			"buffer" : 0,
			"byteOffset" : 19872,
			"byteLength" : 1104,
			"target" : 34963
		}
	],
	"buffers" : [
		{
			"uri" : "B332321617801063C0.bin",
			"byteLength" : 20976
		}
	]
}
