{
	"asset" : {
		"generator" : "FME 2023.2.1.0",
		"version" : "2.0"
	},
	"materials" : [
		{
			"name" : "default_material",
			"pbrMetallicRoughness" : {
				"baseColorFactor" : [ 1, 1, 1, 1 ],
				"roughnessFactor" : 0.30000000000000004,
				"metallicFactor" : 0.5
			}
		}
	],
	"meshes" : [
		{
			"primitives" : [
				{
					"attributes" : {
						"NORMAL" : 1,
						"POSITION" : 0,
						"COLOR_0" : 2
					},
					"indices" : 3,
					"material" : 0,
					"mode" : 4
				}
			]
		}
	],
	"nodes" : [
		{
			"name" : "B359021529001063C0",
			"matrix" : [ 1, 0, 0, 0, 0, 0, -1, 0, 0, 1, 0, 0, 835905.1875, 3.9140000343322754, -815285.8125, 1 ],
			"children" : [ 1 ]
		},
		{
			"mesh" : 0
		}
	],
	"scenes" : [
		{
			"nodes" : [ 0 ]
		}
	],
	"scene" : 0,
	"accessors" : [
		{
			"bufferView" : 0,
			"byteOffset" : 0,
			"componentType" : 5126,
			"count" : 756,
			"type" : "VEC3",
			"min" : [ -8.072265625, -7.08203125, 0 ],
			"max" : [ 8.0732421875, 7.08203125, 74.50899505615234 ]
		},
		{
			"bufferView" : 1,
			"byteOffset" : 0,
			"componentType" : 5126,
			"count" : 756,
			"type" : "VEC3",
			"min" : [ -0.9971157908439636, -0.9950363636016846, -1 ],
			"max" : [ 1, 1, 1 ]
		},
		{
			"bufferView" : 2,
			"byteOffset" : 0,
			"componentType" : 5126,
			"count" : 756,
			"type" : "VEC3"
		},
		{
			"bufferView" : 3,
			"byteOffset" : 0,
			"componentType" : 5123,
			"count" : 756,
			"type" : "SCALAR",
			"min" : [ 0 ],
			"max" : [ 755 ]
		}
	],
	"bufferViews" : [
		{
			"buffer" : 0,
			"byteOffset" : 0,
			"byteLength" : 9072,
			"target" : 34962
		},
		{
			"buffer" : 0,
			"byteOffset" : 9072,
			"byteLength" : 9072,
			"target" : 34962
		},
		{
			"buffer" : 0,
			"byteOffset" : 18144,
			"byteLength" : 9072,
			"target" : 34962
		},
		{
			"buffer" : 0,
			"byteOffset" : 27216,
			"byteLength" : 1512,
			"target" : 34963
		}
	],
	"buffers" : [
		{
			"uri" : "B359021529001063C0.bin",
			"byteLength" : 28728
		}
	]
}
