{
    "asset": {
        "generator": "FME 2020.0.0.0",
        "version": "2.0"
    },
    "images": [
        {
            "uri": "T15000282000106E10_001.jpg"
        }
    ],
    "samplers": [
        {
            "wrapS": 10497,
            "wrapT": 10497
        }
    ],
    "textures": [
        {
            "source": 0,
            "sampler": 0
        }
    ],
    "materials": [
        {
            "name": "default_material",
            "pbrMetallicRoughness": {
                "baseColorFactor": [
                    0.8,
                    0.8,
                    0.8,
                    1
                ],
                "roughnessFactor": 0.30000000000000004,
                "metallicFactor": 0.5
            }
        },
        {
            "name": "T15000282000106E10",
            "pbrMetallicRoughness": {
                "baseColorTexture": {
                    "index": 0,
                    "texCoord": 0
                },
                "roughnessFactor": 0.984375,
                "metallicFactor": 0.5
            }
        }
    ],
    "meshes": [
        {
            "primitives": [
                {
                    "attributes": {
                        "NORMAL": 1,
                        "POSITION": 0,
                        "TEXCOORD_0": 2
                    },
                    "indices": 3,
                    "material": 1,
                    "mode": 4
                }
            ]
        }
    ],
    "nodes": [
        {
            "name": "T15000282000106E10",
            "matrix": [
                1,
                0,
                0,
                0,
                0,
                0,
                -1,
                0,
                0,
                1,
                0,
                0,
                815375,
                0.20386886596679688,
                -828500,
                1
            ],
            "children": [
                1
            ]
        },
        {
            "mesh": 0
        }
    ],
    "scenes": [
        {
            "nodes": [
                0
            ]
        }
    ],
    "scene": 0,
    "accessors": [
        {
            "bufferView": 0,
            "byteOffset": 0,
            "componentType": 5126,
            "count": 99510,
            "type": "VEC3",
            "min": [
                -375.0009765625,
                -300,
                0
            ],
            "max": [
                375.00048828125,
                300,
                16.141111373901367
            ]
        },
        {
            "bufferView": 1,
            "byteOffset": 0,
            "componentType": 5126,
            "count": 99510,
            "type": "VEC3",
            "min": [
                -1,
                -0.9999939799308777,
                -1
            ],
            "max": [
                1,
                0.9999587535858154,
                1
            ]
        },
        {
            "bufferView": 2,
            "byteOffset": 0,
            "componentType": 5126,
            "count": 99510,
            "type": "VEC2",
            "min": [
                6.4849853515625e-05,
                8.320808410644531e-05
            ],
            "max": [
                0.999934196472168,
                0.9999170303344727
            ]
        },
        {
            "bufferView": 3,
            "byteOffset": 0,
            "componentType": 5125,
            "count": 99510,
            "type": "SCALAR",
            "min": [
                0
            ],
            "max": [
                99509
            ]
        }
    ],
    "bufferViews": [
        {
            "buffer": 0,
            "byteOffset": 0,
            "byteLength": 1194120,
            "target": 34962
        },
        {
            "buffer": 0,
            "byteOffset": 1194120,
            "byteLength": 1194120,
            "target": 34962
        },
        {
            "buffer": 0,
            "byteOffset": 2388240,
            "byteLength": 796080,
            "target": 34962
        },
        {
            "buffer": 0,
            "byteOffset": 3184320,
            "byteLength": 398040,
            "target": 34963
        }
    ],
    "buffers": [
        {
            "uri": "T15000282000106E10.bin",
            "byteLength": 3582360
        }
    ]
}