{
	"asset" : {
		"generator" : "FME 2022.2.4.0",
		"version" : "2.0"
	},
	"materials" : [
		{
			"name" : "default_material",
			"pbrMetallicRoughness" : {
				"baseColorFactor" : [ 1, 1, 1, 1 ],
				"roughnessFactor" : 0.30000000000000004,
				"metallicFactor" : 0.5
			}
		}
	],
	"meshes" : [
		{
			"primitives" : [
				{
					"attributes" : {
						"NORMAL" : 1,
						"POSITION" : 0,
						"COLOR_0" : 2
					},
					"indices" : 3,
					"material" : 0,
					"mode" : 4
				}
			]
		}
	],
	"nodes" : [
		{
			"name" : "B338131594501063C0",
			"matrix" : [ 1, 0, 0, 0, 0, 0, -1, 0, 0, 1, 0, 0, 833815.125, 33.152000427246094, -815945.8125, 1 ],
			"children" : [ 1 ]
		},
		{
			"mesh" : 0
		}
	],
	"scenes" : [
		{
			"nodes" : [ 0 ]
		}
	],
	"scene" : 0,
	"accessors" : [
		{
			"bufferView" : 0,
			"byteOffset" : 0,
			"componentType" : 5126,
			"count" : 1371,
			"type" : "VEC3",
			"min" : [ -11.759765625, -11.92578125, 0 ],
			"max" : [ 11.7587890625, 11.9267578125, 32.277000427246094 ]
		},
		{
			"bufferView" : 1,
			"byteOffset" : 0,
			"componentType" : 5126,
			"count" : 1371,
			"type" : "VEC3",
			"min" : [ -0.857492983341217, -0.9777231216430664, -1 ],
			"max" : [ 0.9999643564224243, 1, 1 ]
		},
		{
			"bufferView" : 2,
			"byteOffset" : 0,
			"componentType" : 5126,
			"count" : 1371,
			"type" : "VEC3"
		},
		{
			"bufferView" : 3,
			"byteOffset" : 0,
			"componentType" : 5123,
			"count" : 1371,
			"type" : "SCALAR",
			"min" : [ 0 ],
			"max" : [ 1370 ]
		}
	],
	"bufferViews" : [
		{
			"buffer" : 0,
			"byteOffset" : 0,
			"byteLength" : 16452,
			"target" : 34962
		},
		{
			"buffer" : 0,
			"byteOffset" : 16452,
			"byteLength" : 16452,
			"target" : 34962
		},
		{
			"buffer" : 0,
			"byteOffset" : 32904,
			"byteLength" : 16452,
			"target" : 34962
		},
		{
			"buffer" : 0,
			"byteOffset" : 49356,
			"byteLength" : 2742,
			"target" : 34963
		}
	],
	"buffers" : [
		{
			"uri" : "B338131594501063C0.bin",
			"byteLength" : 52098
		}
	]
}
