{
	"asset" : {
		"generator" : "FME 2023.1.0.0",
		"version" : "2.0"
	},
	"materials" : [
		{
			"name" : "default_material",
			"pbrMetallicRoughness" : {
				"baseColorFactor" : [ 1, 1, 1, 1 ],
				"roughnessFactor" : 0.30000000000000004,
				"metallicFactor" : 0.5
			}
		}
	],
	"meshes" : [
		{
			"primitives" : [
				{
					"attributes" : {
						"NORMAL" : 1,
						"POSITION" : 0,
						"COLOR_0" : 2
					},
					"indices" : 3,
					"material" : 0,
					"mode" : 4
				}
			]
		}
	],
	"nodes" : [
		{
			"name" : "B354831525701063C0",
			"matrix" : [ 1, 0, 0, 0, 0, 0, -1, 0, 0, 1, 0, 0, 835480.625, 18.797000885009766, -815258.5, 1 ],
			"children" : [ 1 ]
		},
		{
			"mesh" : 0
		}
	],
	"scenes" : [
		{
			"nodes" : [ 0 ]
		}
	],
	"scene" : 0,
	"accessors" : [
		{
			"bufferView" : 0,
			"byteOffset" : 0,
			"componentType" : 5126,
			"count" : 1635,
			"type" : "VEC3",
			"min" : [ -9.357421875, -8.2177734375, 0 ],
			"max" : [ 9.357421875, 8.21875, 42.92300033569336 ]
		},
		{
			"bufferView" : 1,
			"byteOffset" : 0,
			"componentType" : 5126,
			"count" : 1635,
			"type" : "VEC3",
			"min" : [ -0.8010717630386353, -0.8137335181236267, -1 ],
			"max" : [ 0.8067473769187927, 0.7988150119781494, 1 ]
		},
		{
			"bufferView" : 2,
			"byteOffset" : 0,
			"componentType" : 5126,
			"count" : 1635,
			"type" : "VEC3"
		},
		{
			"bufferView" : 3,
			"byteOffset" : 0,
			"componentType" : 5123,
			"count" : 1635,
			"type" : "SCALAR",
			"min" : [ 0 ],
			"max" : [ 1634 ]
		}
	],
	"bufferViews" : [
		{
			"buffer" : 0,
			"byteOffset" : 0,
			"byteLength" : 19620,
			"target" : 34962
		},
		{
			"buffer" : 0,
			"byteOffset" : 19620,
			"byteLength" : 19620,
			"target" : 34962
		},
		{
			"buffer" : 0,
			"byteOffset" : 39240,
			"byteLength" : 19620,
			"target" : 34962
		},
		{
			"buffer" : 0,
			"byteOffset" : 58860,
			"byteLength" : 3270,
			"target" : 34963
		}
	],
	"buffers" : [
		{
			"uri" : "B354831525701063C0.bin",
			"byteLength" : 62130
		}
	]
}
