{
	"asset" : {
		"generator" : "FME 2022.2.4.0",
		"version" : "2.0"
	},
	"materials" : [
		{
			"name" : "default_material",
			"pbrMetallicRoughness" : {
				"baseColorFactor" : [ 1, 1, 1, 1 ],
				"roughnessFactor" : 0.30000000000000004,
				"metallicFactor" : 0.5
			}
		}
	],
	"meshes" : [
		{
			"primitives" : [
				{
					"attributes" : {
						"NORMAL" : 1,
						"POSITION" : 0,
						"COLOR_0" : 2
					},
					"indices" : 3,
					"material" : 0,
					"mode" : 4
				}
			]
		}
	],
	"nodes" : [
		{
			"name" : "B357471514401063C0",
			"matrix" : [ 1, 0, 0, 0, 0, 0, -1, 0, 0, 1, 0, 0, 835748.9375, 6.309999942779541, -815146, 1 ],
			"children" : [ 1 ]
		},
		{
			"mesh" : 0
		}
	],
	"scenes" : [
		{
			"nodes" : [ 0 ]
		}
	],
	"scene" : 0,
	"accessors" : [
		{
			"bufferView" : 0,
			"byteOffset" : 0,
			"componentType" : 5126,
			"count" : 573,
			"type" : "VEC3",
			"min" : [ -5.0703125, -8.77734375, 0 ],
			"max" : [ 5.0703125, 8.77734375, 18.442001342773438 ]
		},
		{
			"bufferView" : 1,
			"byteOffset" : 0,
			"componentType" : 5126,
			"count" : 573,
			"type" : "VEC3",
			"min" : [ -0.9096254706382751, -0.9006399512290955, -1 ],
			"max" : [ 0.9044851660728455, 0.9011279344558716, 1 ]
		},
		{
			"bufferView" : 2,
			"byteOffset" : 0,
			"componentType" : 5126,
			"count" : 573,
			"type" : "VEC3"
		},
		{
			"bufferView" : 3,
			"byteOffset" : 0,
			"componentType" : 5123,
			"count" : 573,
			"type" : "SCALAR",
			"min" : [ 0 ],
			"max" : [ 572 ]
		}
	],
	"bufferViews" : [
		{
			"buffer" : 0,
			"byteOffset" : 0,
			"byteLength" : 6876,
			"target" : 34962
		},
		{
			"buffer" : 0,
			"byteOffset" : 6876,
			"byteLength" : 6876,
			"target" : 34962
		},
		{
			"buffer" : 0,
			"byteOffset" : 13752,
			"byteLength" : 6876,
			"target" : 34962
		},
		{
			"buffer" : 0,
			"byteOffset" : 20628,
			"byteLength" : 1146,
			"target" : 34963
		}
	],
	"buffers" : [
		{
			"uri" : "B357471514401063C0.bin",
			"byteLength" : 21774
		}
	]
}
