{
	"asset" : {
		"generator" : "FME 2022.2.4.0",
		"version" : "2.0"
	},
	"materials" : [
		{
			"name" : "default_material",
			"pbrMetallicRoughness" : {
				"baseColorFactor" : [ 1, 1, 1, 1 ],
				"roughnessFactor" : 0.30000000000000004,
				"metallicFactor" : 0.5
			}
		}
	],
	"meshes" : [
		{
			"primitives" : [
				{
					"attributes" : {
						"NORMAL" : 1,
						"POSITION" : 0,
						"COLOR_0" : 2
					},
					"indices" : 3,
					"material" : 0,
					"mode" : 4
				}
			]
		}
	],
	"nodes" : [
		{
			"name" : "B336811637102063C0",
			"matrix" : [ 1, 0, 0, 0, 0, 0, -1, 0, 0, 1, 0, 0, 833683, 3.9439961910247803, -816376.3125, 1 ],
			"children" : [ 1 ]
		},
		{
			"mesh" : 0
		}
	],
	"scenes" : [
		{
			"nodes" : [ 0 ]
		}
	],
	"scene" : 0,
	"accessors" : [
		{
			"bufferView" : 0,
			"byteOffset" : 0,
			"componentType" : 5126,
			"count" : 273,
			"type" : "VEC3",
			"min" : [ -7.7314453125, -7.609375, 0 ],
			"max" : [ 7.73046875, 7.6103515625, 16.178998947143555 ]
		},
		{
			"bufferView" : 1,
			"byteOffset" : 0,
			"componentType" : 5126,
			"count" : 273,
			"type" : "VEC3",
			"min" : [ -0.9650812745094299, -0.9652860760688782, -1 ],
			"max" : [ 0.965104341506958, 0.9653095006942749, 1 ]
		},
		{
			"bufferView" : 2,
			"byteOffset" : 0,
			"componentType" : 5126,
			"count" : 273,
			"type" : "VEC3"
		},
		{
			"bufferView" : 3,
			"byteOffset" : 0,
			"componentType" : 5123,
			"count" : 273,
			"type" : "SCALAR",
			"min" : [ 0 ],
			"max" : [ 272 ]
		}
	],
	"bufferViews" : [
		{
			"buffer" : 0,
			"byteOffset" : 0,
			"byteLength" : 3276,
			"target" : 34962
		},
		{
			"buffer" : 0,
			"byteOffset" : 3276,
			"byteLength" : 3276,
			"target" : 34962
		},
		{
			"buffer" : 0,
			"byteOffset" : 6552,
			"byteLength" : 3276,
			"target" : 34962
		},
		{
			"buffer" : 0,
			"byteOffset" : 9828,
			"byteLength" : 546,
			"target" : 34963
		}
	],
	"buffers" : [
		{
			"uri" : "B336811637102063C0.bin",
			"byteLength" : 10374
		}
	]
}
