{
	"asset" : {
		"generator" : "FME 2022.2.4.0",
		"version" : "2.0"
	},
	"materials" : [
		{
			"name" : "default_material",
			"pbrMetallicRoughness" : {
				"baseColorFactor" : [ 1, 1, 1, 1 ],
				"roughnessFactor" : 0.30000000000000004,
				"metallicFactor" : 0.5
			}
		}
	],
	"meshes" : [
		{
			"primitives" : [
				{
					"attributes" : {
						"NORMAL" : 1,
						"POSITION" : 0,
						"COLOR_0" : 2
					},
					"indices" : 3,
					"material" : 0,
					"mode" : 4
				}
			]
		}
	],
	"nodes" : [
		{
			"name" : "B339431605801063C0",
			"matrix" : [ 1, 0, 0, 0, 0, 0, -1, 0, 0, 1, 0, 0, 833945.5, 12.170999526977539, -816059.1875, 1 ],
			"children" : [ 1 ]
		},
		{
			"mesh" : 0
		}
	],
	"scenes" : [
		{
			"nodes" : [ 0 ]
		}
	],
	"scene" : 0,
	"accessors" : [
		{
			"bufferView" : 0,
			"byteOffset" : 0,
			"componentType" : 5126,
			"count" : 465,
			"type" : "VEC3",
			"min" : [ -5.26953125, -6.0322265625, 0 ],
			"max" : [ 5.26953125, 6.0322265625, 22.641000747680664 ]
		},
		{
			"bufferView" : 1,
			"byteOffset" : 0,
			"componentType" : 5126,
			"count" : 465,
			"type" : "VEC3",
			"min" : [ -0.8210468888282776, -0.8211603760719299, -1 ],
			"max" : [ 0.8213262557983398, 0.8211603760719299, 1 ]
		},
		{
			"bufferView" : 2,
			"byteOffset" : 0,
			"componentType" : 5126,
			"count" : 465,
			"type" : "VEC3"
		},
		{
			"bufferView" : 3,
			"byteOffset" : 0,
			"componentType" : 5123,
			"count" : 465,
			"type" : "SCALAR",
			"min" : [ 0 ],
			"max" : [ 464 ]
		}
	],
	"bufferViews" : [
		{
			"buffer" : 0,
			"byteOffset" : 0,
			"byteLength" : 5580,
			"target" : 34962
		},
		{
			"buffer" : 0,
			"byteOffset" : 5580,
			"byteLength" : 5580,
			"target" : 34962
		},
		{
			"buffer" : 0,
			"byteOffset" : 11160,
			"byteLength" : 5580,
			"target" : 34962
		},
		{
			"buffer" : 0,
			"byteOffset" : 16740,
			"byteLength" : 930,
			"target" : 34963
		}
	],
	"buffers" : [
		{
			"uri" : "B339431605801063C0.bin",
			"byteLength" : 17670
		}
	]
}
