{
	"asset" : {
		"generator" : "FME 2023.2.1.0",
		"version" : "2.0"
	},
	"materials" : [
		{
			"name" : "default_material",
			"pbrMetallicRoughness" : {
				"baseColorFactor" : [ 1, 1, 1, 1 ],
				"roughnessFactor" : 0.30000000000000004,
				"metallicFactor" : 0.5
			}
		}
	],
	"meshes" : [
		{
			"primitives" : [
				{
					"attributes" : {
						"NORMAL" : 1,
						"POSITION" : 0,
						"COLOR_0" : 2
					},
					"indices" : 3,
					"material" : 0,
					"mode" : 4
				}
			]
		}
	],
	"nodes" : [
		{
			"name" : "B359481520301063C0",
			"matrix" : [ 1, 0, 0, 0, 0, 0, -1, 0, 0, 1, 0, 0, 835950.9375, 5.166999816894531, -815205.3125, 1 ],
			"children" : [ 1 ]
		},
		{
			"mesh" : 0
		}
	],
	"scenes" : [
		{
			"nodes" : [ 0 ]
		}
	],
	"scene" : 0,
	"accessors" : [
		{
			"bufferView" : 0,
			"byteOffset" : 0,
			"componentType" : 5126,
			"count" : 297,
			"type" : "VEC3",
			"min" : [ -4.7685546875, -5.025390625, 0 ],
			"max" : [ 4.767578125, 5.025390625, 21.549999237060547 ]
		},
		{
			"bufferView" : 1,
			"byteOffset" : 0,
			"componentType" : 5126,
			"count" : 297,
			"type" : "VEC3",
			"min" : [ -0.9986023306846619, -0.9981846213340759, -1 ],
			"max" : [ 0.9986222982406616, 0.9982354640960693, 1 ]
		},
		{
			"bufferView" : 2,
			"byteOffset" : 0,
			"componentType" : 5126,
			"count" : 297,
			"type" : "VEC3"
		},
		{
			"bufferView" : 3,
			"byteOffset" : 0,
			"componentType" : 5123,
			"count" : 297,
			"type" : "SCALAR",
			"min" : [ 0 ],
			"max" : [ 296 ]
		}
	],
	"bufferViews" : [
		{
			"buffer" : 0,
			"byteOffset" : 0,
			"byteLength" : 3564,
			"target" : 34962
		},
		{
			"buffer" : 0,
			"byteOffset" : 3564,
			"byteLength" : 3564,
			"target" : 34962
		},
		{
			"buffer" : 0,
			"byteOffset" : 7128,
			"byteLength" : 3564,
			"target" : 34962
		},
		{
			"buffer" : 0,
			"byteOffset" : 10692,
			"byteLength" : 594,
			"target" : 34963
		}
	],
	"buffers" : [
		{
			"uri" : "B359481520301063C0.bin",
			"byteLength" : 11286
		}
	]
}
