{
	"asset" : {
		"generator" : "FME 2023.1.0.0",
		"version" : "2.0"
	},
	"materials" : [
		{
			"name" : "default_material",
			"pbrMetallicRoughness" : {
				"baseColorFactor" : [ 1, 1, 1, 1 ],
				"roughnessFactor" : 0.30000000000000004,
				"metallicFactor" : 0.5
			}
		}
	],
	"meshes" : [
		{
			"primitives" : [
				{
					"attributes" : {
						"NORMAL" : 1,
						"POSITION" : 0,
						"COLOR_0" : 2
					},
					"indices" : 3,
					"material" : 0,
					"mode" : 4
				}
			]
		}
	],
	"nodes" : [
		{
			"name" : "B337731607901063C0",
			"matrix" : [ 1, 0, 0, 0, 0, 0, -1, 0, 0, 1, 0, 0, 833776.25, 31.27300262451172, -816077.6875, 1 ],
			"children" : [ 1 ]
		},
		{
			"mesh" : 0
		}
	],
	"scenes" : [
		{
			"nodes" : [ 0 ]
		}
	],
	"scene" : 0,
	"accessors" : [
		{
			"bufferView" : 0,
			"byteOffset" : 0,
			"componentType" : 5126,
			"count" : 1020,
			"type" : "VEC3",
			"min" : [ -4.3017578125, -5.734375, 0 ],
			"max" : [ 4.3017578125, 5.734375, 24.73400115966797 ]
		},
		{
			"bufferView" : 1,
			"byteOffset" : 0,
			"componentType" : 5126,
			"count" : 1020,
			"type" : "VEC3",
			"min" : [ -0.838817834854126, -0.7702987790107727, -1 ],
			"max" : [ 0.831512451171875, 0.8227020502090454, 1 ]
		},
		{
			"bufferView" : 2,
			"byteOffset" : 0,
			"componentType" : 5126,
			"count" : 1020,
			"type" : "VEC3"
		},
		{
			"bufferView" : 3,
			"byteOffset" : 0,
			"componentType" : 5123,
			"count" : 1020,
			"type" : "SCALAR",
			"min" : [ 0 ],
			"max" : [ 1019 ]
		}
	],
	"bufferViews" : [
		{
			"buffer" : 0,
			"byteOffset" : 0,
			"byteLength" : 12240,
			"target" : 34962
		},
		{
			"buffer" : 0,
			"byteOffset" : 12240,
			"byteLength" : 12240,
			"target" : 34962
		},
		{
			"buffer" : 0,
			"byteOffset" : 24480,
			"byteLength" : 12240,
			"target" : 34962
		},
		{
			"buffer" : 0,
			"byteOffset" : 36720,
			"byteLength" : 2040,
			"target" : 34963
		}
	],
	"buffers" : [
		{
			"uri" : "B337731607901063C0.bin",
			"byteLength" : 38760
		}
	]
}
