{
	"asset" : {
		"generator" : "FME 2023.1.0.0",
		"version" : "2.0"
	},
	"materials" : [
		{
			"name" : "default_material",
			"pbrMetallicRoughness" : {
				"baseColorFactor" : [ 1, 1, 1, 1 ],
				"roughnessFactor" : 0.30000000000000004,
				"metallicFactor" : 0.5
			}
		}
	],
	"meshes" : [
		{
			"primitives" : [
				{
					"attributes" : {
						"NORMAL" : 1,
						"POSITION" : 0,
						"COLOR_0" : 2
					},
					"indices" : 3,
					"material" : 0,
					"mode" : 4
				}
			]
		}
	],
	"nodes" : [
		{
			"name" : "B354181525001063C0",
			"matrix" : [ 1, 0, 0, 0, 0, 0, -1, 0, 0, 1, 0, 0, 835417.875, 16.08099937438965, -815244.5625, 1 ],
			"children" : [ 1 ]
		},
		{
			"mesh" : 0
		}
	],
	"scenes" : [
		{
			"nodes" : [ 0 ]
		}
	],
	"scene" : 0,
	"accessors" : [
		{
			"bufferView" : 0,
			"byteOffset" : 0,
			"componentType" : 5126,
			"count" : 375,
			"type" : "VEC3",
			"min" : [ -7.8544921875, -8.33984375, 0 ],
			"max" : [ 7.8544921875, 8.33984375, 22.40799903869629 ]
		},
		{
			"bufferView" : 1,
			"byteOffset" : 0,
			"componentType" : 5126,
			"count" : 375,
			"type" : "VEC3",
			"min" : [ -0.8162634968757629, -0.8161001205444336, -1 ],
			"max" : [ 0.8163270950317383, 0.816332995891571, 1 ]
		},
		{
			"bufferView" : 2,
			"byteOffset" : 0,
			"componentType" : 5126,
			"count" : 375,
			"type" : "VEC3"
		},
		{
			"bufferView" : 3,
			"byteOffset" : 0,
			"componentType" : 5123,
			"count" : 375,
			"type" : "SCALAR",
			"min" : [ 0 ],
			"max" : [ 374 ]
		}
	],
	"bufferViews" : [
		{
			"buffer" : 0,
			"byteOffset" : 0,
			"byteLength" : 4500,
			"target" : 34962
		},
		{
			"buffer" : 0,
			"byteOffset" : 4500,
			"byteLength" : 4500,
			"target" : 34962
		},
		{
			"buffer" : 0,
			"byteOffset" : 9000,
			"byteLength" : 4500,
			"target" : 34962
		},
		{
			"buffer" : 0,
			"byteOffset" : 13500,
			"byteLength" : 750,
			"target" : 34963
		}
	],
	"buffers" : [
		{
			"uri" : "B354181525001063C0.bin",
			"byteLength" : 14250
		}
	]
}
