{
	"asset" : {
		"generator" : "FME 2023.1.0.0",
		"version" : "2.0"
	},
	"materials" : [
		{
			"name" : "default_material",
			"pbrMetallicRoughness" : {
				"baseColorFactor" : [ 1, 1, 1, 1 ],
				"roughnessFactor" : 0.30000000000000004,
				"metallicFactor" : 0.5
			}
		}
	],
	"meshes" : [
		{
			"primitives" : [
				{
					"attributes" : {
						"NORMAL" : 1,
						"POSITION" : 0,
						"COLOR_0" : 2
					},
					"indices" : 3,
					"material" : 0,
					"mode" : 4
				}
			]
		}
	],
	"nodes" : [
		{
			"name" : "B331891612601063C0",
			"matrix" : [ 1, 0, 0, 0, 0, 0, -1, 0, 0, 1, 0, 0, 833189.0625, 49.944000244140625, -816125.75, 1 ],
			"children" : [ 1 ]
		},
		{
			"mesh" : 0
		}
	],
	"scenes" : [
		{
			"nodes" : [ 0 ]
		}
	],
	"scene" : 0,
	"accessors" : [
		{
			"bufferView" : 0,
			"byteOffset" : 0,
			"componentType" : 5126,
			"count" : 399,
			"type" : "VEC3",
			"min" : [ -6.39794921875, -5.5380859375, 0 ],
			"max" : [ 6.3984375, 5.537109375, 13.069000244140625 ]
		},
		{
			"bufferView" : 1,
			"byteOffset" : 0,
			"componentType" : 5126,
			"count" : 399,
			"type" : "VEC3",
			"min" : [ -0.7609756588935852, -0.796678900718689, -1 ],
			"max" : [ 0.760475218296051, 0.7689047455787659, 1 ]
		},
		{
			"bufferView" : 2,
			"byteOffset" : 0,
			"componentType" : 5126,
			"count" : 399,
			"type" : "VEC3"
		},
		{
			"bufferView" : 3,
			"byteOffset" : 0,
			"componentType" : 5123,
			"count" : 399,
			"type" : "SCALAR",
			"min" : [ 0 ],
			"max" : [ 398 ]
		}
	],
	"bufferViews" : [
		{
			"buffer" : 0,
			"byteOffset" : 0,
			"byteLength" : 4788,
			"target" : 34962
		},
		{
			"buffer" : 0,
			"byteOffset" : 4788,
			"byteLength" : 4788,
			"target" : 34962
		},
		{
			"buffer" : 0,
			"byteOffset" : 9576,
			"byteLength" : 4788,
			"target" : 34962
		},
		{
			"buffer" : 0,
			"byteOffset" : 14364,
			"byteLength" : 798,
			"target" : 34963
		}
	],
	"buffers" : [
		{
			"uri" : "B331891612601063C0.bin",
			"byteLength" : 15162
		}
	]
}
