{
	"asset" : {
		"generator" : "FME 2023.1.0.0",
		"version" : "2.0"
	},
	"materials" : [
		{
			"name" : "default_material",
			"pbrMetallicRoughness" : {
				"baseColorFactor" : [ 1, 1, 1, 1 ],
				"roughnessFactor" : 0.30000000000000004,
				"metallicFactor" : 0.5
			}
		}
	],
	"meshes" : [
		{
			"primitives" : [
				{
					"attributes" : {
						"NORMAL" : 1,
						"POSITION" : 0,
						"COLOR_0" : 2
					},
					"indices" : 3,
					"material" : 0,
					"mode" : 4
				}
			]
		}
	],
	"nodes" : [
		{
			"name" : "B331671628601063C0",
			"matrix" : [ 1, 0, 0, 0, 0, 0, -1, 0, 0, 1, 0, 0, 833166.25, 20.341999053955078, -816288.875, 1 ],
			"children" : [ 1 ]
		},
		{
			"mesh" : 0
		}
	],
	"scenes" : [
		{
			"nodes" : [ 0 ]
		}
	],
	"scene" : 0,
	"accessors" : [
		{
			"bufferView" : 0,
			"byteOffset" : 0,
			"componentType" : 5126,
			"count" : 2895,
			"type" : "VEC3",
			"min" : [ -14.7978515625, -15.7529296875, 0 ],
			"max" : [ 14.7841796875, 15.8369140625, 37.43000030517578 ]
		},
		{
			"bufferView" : 1,
			"byteOffset" : 0,
			"componentType" : 5126,
			"count" : 2895,
			"type" : "VEC3",
			"min" : [ -0.9922779202461243, -1, -1 ],
			"max" : [ 0.9922779202461243, 0.9922779202461243, 1 ]
		},
		{
			"bufferView" : 2,
			"byteOffset" : 0,
			"componentType" : 5126,
			"count" : 2895,
			"type" : "VEC3"
		},
		{
			"bufferView" : 3,
			"byteOffset" : 0,
			"componentType" : 5123,
			"count" : 2895,
			"type" : "SCALAR",
			"min" : [ 0 ],
			"max" : [ 2894 ]
		}
	],
	"bufferViews" : [
		{
			"buffer" : 0,
			"byteOffset" : 0,
			"byteLength" : 34740,
			"target" : 34962
		},
		{
			"buffer" : 0,
			"byteOffset" : 34740,
			"byteLength" : 34740,
			"target" : 34962
		},
		{
			"buffer" : 0,
			"byteOffset" : 69480,
			"byteLength" : 34740,
			"target" : 34962
		},
		{
			"buffer" : 0,
			"byteOffset" : 104220,
			"byteLength" : 5790,
			"target" : 34963
		}
	],
	"buffers" : [
		{
			"uri" : "B331671628601063C0.bin",
			"byteLength" : 110010
		}
	]
}
