{
	"asset" : {
		"generator" : "FME 2023.1.0.0",
		"version" : "2.0"
	},
	"materials" : [
		{
			"name" : "default_material",
			"pbrMetallicRoughness" : {
				"baseColorFactor" : [ 1, 1, 1, 1 ],
				"roughnessFactor" : 0.30000000000000004,
				"metallicFactor" : 0.5
			}
		}
	],
	"meshes" : [
		{
			"primitives" : [
				{
					"attributes" : {
						"NORMAL" : 1,
						"POSITION" : 0,
						"COLOR_0" : 2
					},
					"indices" : 3,
					"material" : 0,
					"mode" : 4
				}
			]
		}
	],
	"nodes" : [
		{
			"name" : "B334691619001063C0",
			"matrix" : [ 1, 0, 0, 0, 0, 0, -1, 0, 0, 1, 0, 0, 833475.0625, 18.123992919921875, -816194.25, 1 ],
			"children" : [ 1 ]
		},
		{
			"mesh" : 0
		}
	],
	"scenes" : [
		{
			"nodes" : [ 0 ]
		}
	],
	"scene" : 0,
	"accessors" : [
		{
			"bufferView" : 0,
			"byteOffset" : 0,
			"componentType" : 5126,
			"count" : 843,
			"type" : "VEC3",
			"min" : [ -8.5185546875, -9.115234375, 0 ],
			"max" : [ 8.5185546875, 9.115234375, 26.618999481201172 ]
		},
		{
			"bufferView" : 1,
			"byteOffset" : 0,
			"componentType" : 5126,
			"count" : 843,
			"type" : "VEC3",
			"min" : [ -0.7516089081764221, -0.7536537647247314, -1 ],
			"max" : [ 0.7529352307319641, 0.7485305070877075, 1 ]
		},
		{
			"bufferView" : 2,
			"byteOffset" : 0,
			"componentType" : 5126,
			"count" : 843,
			"type" : "VEC3"
		},
		{
			"bufferView" : 3,
			"byteOffset" : 0,
			"componentType" : 5123,
			"count" : 843,
			"type" : "SCALAR",
			"min" : [ 0 ],
			"max" : [ 842 ]
		}
	],
	"bufferViews" : [
		{
			"buffer" : 0,
			"byteOffset" : 0,
			"byteLength" : 10116,
			"target" : 34962
		},
		{
			"buffer" : 0,
			"byteOffset" : 10116,
			"byteLength" : 10116,
			"target" : 34962
		},
		{
			"buffer" : 0,
			"byteOffset" : 20232,
			"byteLength" : 10116,
			"target" : 34962
		},
		{
			"buffer" : 0,
			"byteOffset" : 30348,
			"byteLength" : 1686,
			"target" : 34963
		}
	],
	"buffers" : [
		{
			"uri" : "B334691619001063C0.bin",
			"byteLength" : 32034
		}
	]
}
