{
	"asset" : {
		"generator" : "FME 2023.1.0.0",
		"version" : "2.0"
	},
	"materials" : [
		{
			"name" : "default_material",
			"pbrMetallicRoughness" : {
				"baseColorFactor" : [ 1, 1, 1, 1 ],
				"roughnessFactor" : 0.30000000000000004,
				"metallicFactor" : 0.5
			}
		}
	],
	"meshes" : [
		{
			"primitives" : [
				{
					"attributes" : {
						"NORMAL" : 1,
						"POSITION" : 0,
						"COLOR_0" : 2
					},
					"indices" : 3,
					"material" : 0,
					"mode" : 4
				}
			]
		}
	],
	"nodes" : [
		{
			"name" : "B359491528901063C0",
			"matrix" : [ 1, 0, 0, 0, 0, 0, -1, 0, 0, 1, 0, 0, 835948.875, 21.945999145507812, -815287.875, 1 ],
			"children" : [ 1 ]
		},
		{
			"mesh" : 0
		}
	],
	"scenes" : [
		{
			"nodes" : [ 0 ]
		}
	],
	"scene" : 0,
	"accessors" : [
		{
			"bufferView" : 0,
			"byteOffset" : 0,
			"componentType" : 5126,
			"count" : 4380,
			"type" : "VEC3",
			"min" : [ -15.5751953125, -8.75390625, 0 ],
			"max" : [ 15.5751953125, 8.75390625, 89.89900207519531 ]
		},
		{
			"bufferView" : 1,
			"byteOffset" : 0,
			"componentType" : 5126,
			"count" : 4380,
			"type" : "VEC3",
			"min" : [ -0.9980114698410034, -0.9999713897705078, -1 ],
			"max" : [ 0.997785210609436, 0.9934440851211548, 1 ]
		},
		{
			"bufferView" : 2,
			"byteOffset" : 0,
			"componentType" : 5126,
			"count" : 4380,
			"type" : "VEC3"
		},
		{
			"bufferView" : 3,
			"byteOffset" : 0,
			"componentType" : 5123,
			"count" : 4380,
			"type" : "SCALAR",
			"min" : [ 0 ],
			"max" : [ 4379 ]
		}
	],
	"bufferViews" : [
		{
			"buffer" : 0,
			"byteOffset" : 0,
			"byteLength" : 52560,
			"target" : 34962
		},
		{
			"buffer" : 0,
			"byteOffset" : 52560,
			"byteLength" : 52560,
			"target" : 34962
		},
		{
			"buffer" : 0,
			"byteOffset" : 105120,
			"byteLength" : 52560,
			"target" : 34962
		},
		{
			"buffer" : 0,
			"byteOffset" : 157680,
			"byteLength" : 8760,
			"target" : 34963
		}
	],
	"buffers" : [
		{
			"uri" : "B359491528901063C0.bin",
			"byteLength" : 166440
		}
	]
}
