{
	"asset" : {
		"generator" : "FME 2023.2.1.0",
		"version" : "2.0"
	},
	"materials" : [
		{
			"name" : "default_material",
			"pbrMetallicRoughness" : {
				"baseColorFactor" : [ 1, 1, 1, 1 ],
				"roughnessFactor" : 0.30000000000000004,
				"metallicFactor" : 0.5
			}
		}
	],
	"meshes" : [
		{
			"primitives" : [
				{
					"attributes" : {
						"NORMAL" : 1,
						"POSITION" : 0,
						"COLOR_0" : 2
					},
					"indices" : 3,
					"material" : 0,
					"mode" : 4
				}
			]
		}
	],
	"nodes" : [
		{
			"name" : "B331331632602063C0",
			"matrix" : [ 1, 0, 0, 0, 0, 0, -1, 0, 0, 1, 0, 0, 833133.0625, 10.53499984741211, -816325.5625, 1 ],
			"children" : [ 1 ]
		},
		{
			"mesh" : 0
		}
	],
	"scenes" : [
		{
			"nodes" : [ 0 ]
		}
	],
	"scene" : 0,
	"accessors" : [
		{
			"bufferView" : 0,
			"byteOffset" : 0,
			"componentType" : 5126,
			"count" : 735,
			"type" : "VEC3",
			"min" : [ -16.0673828125, -9.900390625, 0 ],
			"max" : [ 16.03369140625, 9.880859375, 4.867000579833984 ]
		},
		{
			"bufferView" : 1,
			"byteOffset" : 0,
			"componentType" : 5126,
			"count" : 735,
			"type" : "VEC3",
			"min" : [ -0.9992196559906006, -0.9978119730949402, -1 ],
			"max" : [ 0.9992218613624573, 0.9975725412368774, 1 ]
		},
		{
			"bufferView" : 2,
			"byteOffset" : 0,
			"componentType" : 5126,
			"count" : 735,
			"type" : "VEC3"
		},
		{
			"bufferView" : 3,
			"byteOffset" : 0,
			"componentType" : 5123,
			"count" : 735,
			"type" : "SCALAR",
			"min" : [ 0 ],
			"max" : [ 734 ]
		}
	],
	"bufferViews" : [
		{
			"buffer" : 0,
			"byteOffset" : 0,
			"byteLength" : 8820,
			"target" : 34962
		},
		{
			"buffer" : 0,
			"byteOffset" : 8820,
			"byteLength" : 8820,
			"target" : 34962
		},
		{
			"buffer" : 0,
			"byteOffset" : 17640,
			"byteLength" : 8820,
			"target" : 34962
		},
		{
			"buffer" : 0,
			"byteOffset" : 26460,
			"byteLength" : 1470,
			"target" : 34963
		}
	],
	"buffers" : [
		{
			"uri" : "B331331632602063C0.bin",
			"byteLength" : 27930
		}
	]
}
