{
	"asset" : {
		"generator" : "FME 2023.2.1.0",
		"version" : "2.0"
	},
	"materials" : [
		{
			"name" : "default_material",
			"pbrMetallicRoughness" : {
				"baseColorFactor" : [ 1, 1, 1, 1 ],
				"roughnessFactor" : 0.30000000000000004,
				"metallicFactor" : 0.5
			}
		}
	],
	"meshes" : [
		{
			"primitives" : [
				{
					"attributes" : {
						"NORMAL" : 1,
						"POSITION" : 0,
						"COLOR_0" : 2
					},
					"indices" : 3,
					"material" : 0,
					"mode" : 4
				}
			]
		}
	],
	"nodes" : [
		{
			"name" : "B169991470701062G0",
			"matrix" : [ 1, 0, 0, 0, 0, 0, -1, 0, 0, 1, 0, 0, 816999.375, 19.09149932861328, -814706.625, 1 ],
			"children" : [ 1 ]
		},
		{
			"mesh" : 0
		}
	],
	"scenes" : [
		{
			"nodes" : [ 0 ]
		}
	],
	"scene" : 0,
	"accessors" : [
		{
			"bufferView" : 0,
			"byteOffset" : 0,
			"componentType" : 5126,
			"count" : 222,
			"type" : "VEC3",
			"min" : [ -5.4375, -5.1875, 0 ],
			"max" : [ 5.5, 5.125, 10.659801483154297 ]
		},
		{
			"bufferView" : 1,
			"byteOffset" : 0,
			"componentType" : 5126,
			"count" : 222,
			"type" : "VEC3",
			"min" : [ -0.7575209736824036, -0.758492112159729, -0.999633252620697 ],
			"max" : [ 0.7585392594337463, 0.7611215710639954, 1 ]
		},
		{
			"bufferView" : 2,
			"byteOffset" : 0,
			"componentType" : 5126,
			"count" : 222,
			"type" : "VEC3"
		},
		{
			"bufferView" : 3,
			"byteOffset" : 0,
			"componentType" : 5121,
			"count" : 222,
			"type" : "SCALAR",
			"min" : [ 0 ],
			"max" : [ 221 ]
		}
	],
	"bufferViews" : [
		{
			"buffer" : 0,
			"byteOffset" : 0,
			"byteLength" : 2664,
			"target" : 34962
		},
		{
			"buffer" : 0,
			"byteOffset" : 2664,
			"byteLength" : 2664,
			"target" : 34962
		},
		{
			"buffer" : 0,
			"byteOffset" : 5328,
			"byteLength" : 2664,
			"target" : 34962
		},
		{
			"buffer" : 0,
			"byteOffset" : 7992,
			"byteLength" : 222,
			"target" : 34963
		}
	],
	"buffers" : [
		{
			"uri" : "B169991470701062G0.bin",
			"byteLength" : 8214
		}
	]
}
