{
	"asset" : {
		"generator" : "FME 2023.2.1.0",
		"version" : "2.0"
	},
	"materials" : [
		{
			"name" : "default_material",
			"pbrMetallicRoughness" : {
				"baseColorFactor" : [ 1, 1, 1, 1 ],
				"roughnessFactor" : 0.30000000000000004,
				"metallicFactor" : 0.5
			}
		}
	],
	"meshes" : [
		{
			"primitives" : [
				{
					"attributes" : {
						"NORMAL" : 1,
						"POSITION" : 0,
						"COLOR_0" : 2
					},
					"indices" : 3,
					"material" : 0,
					"mode" : 4
				}
			]
		}
	],
	"nodes" : [
		{
			"name" : "B334031606502063C0",
			"matrix" : [ 1, 0, 0, 0, 0, 0, -1, 0, 0, 1, 0, 0, 833403.75, 54.36799621582031, -816066.125, 1 ],
			"children" : [ 1 ]
		},
		{
			"mesh" : 0
		}
	],
	"scenes" : [
		{
			"nodes" : [ 0 ]
		}
	],
	"scene" : 0,
	"accessors" : [
		{
			"bufferView" : 0,
			"byteOffset" : 0,
			"componentType" : 5126,
			"count" : 72,
			"type" : "VEC3",
			"min" : [ -3.015625, -2.7509765625, 0 ],
			"max" : [ 3.0146484375, 2.75, 7.3339996337890625 ]
		},
		{
			"bufferView" : 1,
			"byteOffset" : 0,
			"componentType" : 5126,
			"count" : 72,
			"type" : "VEC3",
			"min" : [ -0.7432328462600708, -0.7430533766746521, -9.809547191252932e-5 ],
			"max" : [ 0.7429283261299133, 0.7430120706558228, 1 ]
		},
		{
			"bufferView" : 2,
			"byteOffset" : 0,
			"componentType" : 5126,
			"count" : 72,
			"type" : "VEC3"
		},
		{
			"bufferView" : 3,
			"byteOffset" : 0,
			"componentType" : 5121,
			"count" : 72,
			"type" : "SCALAR",
			"min" : [ 0 ],
			"max" : [ 71 ]
		}
	],
	"bufferViews" : [
		{
			"buffer" : 0,
			"byteOffset" : 0,
			"byteLength" : 864,
			"target" : 34962
		},
		{
			"buffer" : 0,
			"byteOffset" : 864,
			"byteLength" : 864,
			"target" : 34962
		},
		{
			"buffer" : 0,
			"byteOffset" : 1728,
			"byteLength" : 864,
			"target" : 34962
		},
		{
			"buffer" : 0,
			"byteOffset" : 2592,
			"byteLength" : 72,
			"target" : 34963
		}
	],
	"buffers" : [
		{
			"uri" : "B334031606502063C0.bin",
			"byteLength" : 2664
		}
	]
}
