{
	"asset" : {
		"generator" : "FME 2023.2.1.0",
		"version" : "2.0"
	},
	"materials" : [
		{
			"name" : "default_material",
			"pbrMetallicRoughness" : {
				"baseColorFactor" : [ 1, 1, 1, 1 ],
				"roughnessFactor" : 0.30000000000000004,
				"metallicFactor" : 0.5
			}
		}
	],
	"meshes" : [
		{
			"primitives" : [
				{
					"attributes" : {
						"NORMAL" : 1,
						"POSITION" : 0,
						"COLOR_0" : 2
					},
					"indices" : 3,
					"material" : 0,
					"mode" : 4
				}
			]
		}
	],
	"nodes" : [
		{
			"name" : "B334561581301063C0",
			"matrix" : [ 1, 0, 0, 0, 0, 0, -1, 0, 0, 1, 0, 0, 833461.5625, 122.25, -815816.25, 1 ],
			"children" : [ 1 ]
		},
		{
			"mesh" : 0
		}
	],
	"scenes" : [
		{
			"nodes" : [ 0 ]
		}
	],
	"scene" : 0,
	"accessors" : [
		{
			"bufferView" : 0,
			"byteOffset" : 0,
			"componentType" : 5126,
			"count" : 852,
			"type" : "VEC3",
			"min" : [ -6.693359375, -6.822265625, 0 ],
			"max" : [ 6.693359375, 6.822265625, 81.10699462890625 ]
		},
		{
			"bufferView" : 1,
			"byteOffset" : 0,
			"componentType" : 5126,
			"count" : 852,
			"type" : "VEC3",
			"min" : [ -0.9712256193161011, -0.9685456156730652, -1 ],
			"max" : [ 0.883787989616394, 0.8836141228675842, 1 ]
		},
		{
			"bufferView" : 2,
			"byteOffset" : 0,
			"componentType" : 5126,
			"count" : 852,
			"type" : "VEC3"
		},
		{
			"bufferView" : 3,
			"byteOffset" : 0,
			"componentType" : 5123,
			"count" : 852,
			"type" : "SCALAR",
			"min" : [ 0 ],
			"max" : [ 851 ]
		}
	],
	"bufferViews" : [
		{
			"buffer" : 0,
			"byteOffset" : 0,
			"byteLength" : 10224,
			"target" : 34962
		},
		{
			"buffer" : 0,
			"byteOffset" : 10224,
			"byteLength" : 10224,
			"target" : 34962
		},
		{
			"buffer" : 0,
			"byteOffset" : 20448,
			"byteLength" : 10224,
			"target" : 34962
		},
		{
			"buffer" : 0,
			"byteOffset" : 30672,
			"byteLength" : 1704,
			"target" : 34963
		}
	],
	"buffers" : [
		{
			"uri" : "B334561581301063C0.bin",
			"byteLength" : 32376
		}
	]
}
