{
	"asset" : {
		"generator" : "FME 2023.2.1.0",
		"version" : "2.0"
	},
	"materials" : [
		{
			"name" : "default_material",
			"pbrMetallicRoughness" : {
				"baseColorFactor" : [ 1, 1, 1, 1 ],
				"roughnessFactor" : 0.30000000000000004,
				"metallicFactor" : 0.5
			}
		}
	],
	"meshes" : [
		{
			"primitives" : [
				{
					"attributes" : {
						"NORMAL" : 1,
						"POSITION" : 0,
						"COLOR_0" : 2
					},
					"indices" : 3,
					"material" : 0,
					"mode" : 4
				}
			]
		}
	],
	"nodes" : [
		{
			"name" : "B350001552901063C0",
			"matrix" : [ 1, 0, 0, 0, 0, 0, -1, 0, 0, 1, 0, 0, 835004.5625, 5.6580047607421875, -815531.1875, 1 ],
			"children" : [ 1 ]
		},
		{
			"mesh" : 0
		}
	],
	"scenes" : [
		{
			"nodes" : [ 0 ]
		}
	],
	"scene" : 0,
	"accessors" : [
		{
			"bufferView" : 0,
			"byteOffset" : 0,
			"componentType" : 5126,
			"count" : 366,
			"type" : "VEC3",
			"min" : [ -6.58984375, -5.326171875, 0 ],
			"max" : [ 6.58984375, 5.326171875, 4.696999549865723 ]
		},
		{
			"bufferView" : 1,
			"byteOffset" : 0,
			"componentType" : 5126,
			"count" : 366,
			"type" : "VEC3",
			"min" : [ -0.8372179269790649, -0.9353470802307129, -0.024367976933717728 ],
			"max" : [ 0.8373791575431824, 0.9353296160697937, 1 ]
		},
		{
			"bufferView" : 2,
			"byteOffset" : 0,
			"componentType" : 5126,
			"count" : 366,
			"type" : "VEC3"
		},
		{
			"bufferView" : 3,
			"byteOffset" : 0,
			"componentType" : 5123,
			"count" : 366,
			"type" : "SCALAR",
			"min" : [ 0 ],
			"max" : [ 365 ]
		}
	],
	"bufferViews" : [
		{
			"buffer" : 0,
			"byteOffset" : 0,
			"byteLength" : 4392,
			"target" : 34962
		},
		{
			"buffer" : 0,
			"byteOffset" : 4392,
			"byteLength" : 4392,
			"target" : 34962
		},
		{
			"buffer" : 0,
			"byteOffset" : 8784,
			"byteLength" : 4392,
			"target" : 34962
		},
		{
			"buffer" : 0,
			"byteOffset" : 13176,
			"byteLength" : 732,
			"target" : 34963
		}
	],
	"buffers" : [
		{
			"uri" : "B350001552901063C0.bin",
			"byteLength" : 13908
		}
	]
}
