{
	"asset" : {
		"generator" : "FME 2022.2.4.0",
		"version" : "2.0"
	},
	"materials" : [
		{
			"name" : "default_material",
			"pbrMetallicRoughness" : {
				"baseColorFactor" : [ 1, 1, 1, 1 ],
				"roughnessFactor" : 0.30000000000000004,
				"metallicFactor" : 0.5
			}
		}
	],
	"meshes" : [
		{
			"primitives" : [
				{
					"attributes" : {
						"NORMAL" : 1,
						"POSITION" : 0,
						"COLOR_0" : 2
					},
					"indices" : 3,
					"material" : 0,
					"mode" : 4
				}
			]
		}
	],
	"nodes" : [
		{
			"name" : "B358751526601063C0",
			"matrix" : [ 1, 0, 0, 0, 0, 0, -1, 0, 0, 1, 0, 0, 835877.375, 15.5600004196167, -815263.5625, 1 ],
			"children" : [ 1 ]
		},
		{
			"mesh" : 0
		}
	],
	"scenes" : [
		{
			"nodes" : [ 0 ]
		}
	],
	"scene" : 0,
	"accessors" : [
		{
			"bufferView" : 0,
			"byteOffset" : 0,
			"componentType" : 5126,
			"count" : 570,
			"type" : "VEC3",
			"min" : [ -4.2626953125, -4.33984375, 0 ],
			"max" : [ 4.26171875, 4.3408203125, 60.354000091552734 ]
		},
		{
			"bufferView" : 1,
			"byteOffset" : 0,
			"componentType" : 5126,
			"count" : 570,
			"type" : "VEC3",
			"min" : [ -0.993357241153717, -0.993462324142456, -1 ],
			"max" : [ 0.993119478225708, 0.9933627247810364, 1 ]
		},
		{
			"bufferView" : 2,
			"byteOffset" : 0,
			"componentType" : 5126,
			"count" : 570,
			"type" : "VEC3"
		},
		{
			"bufferView" : 3,
			"byteOffset" : 0,
			"componentType" : 5123,
			"count" : 570,
			"type" : "SCALAR",
			"min" : [ 0 ],
			"max" : [ 569 ]
		}
	],
	"bufferViews" : [
		{
			"buffer" : 0,
			"byteOffset" : 0,
			"byteLength" : 6840,
			"target" : 34962
		},
		{
			"buffer" : 0,
			"byteOffset" : 6840,
			"byteLength" : 6840,
			"target" : 34962
		},
		{
			"buffer" : 0,
			"byteOffset" : 13680,
			"byteLength" : 6840,
			"target" : 34962
		},
		{
			"buffer" : 0,
			"byteOffset" : 20520,
			"byteLength" : 1140,
			"target" : 34963
		}
	],
	"buffers" : [
		{
			"uri" : "B358751526601063C0.bin",
			"byteLength" : 21660
		}
	]
}
