{
	"asset" : {
		"generator" : "FME 2023.1.0.0",
		"version" : "2.0"
	},
	"materials" : [
		{
			"name" : "default_material",
			"pbrMetallicRoughness" : {
				"baseColorFactor" : [ 1, 1, 1, 1 ],
				"roughnessFactor" : 0.30000000000000004,
				"metallicFactor" : 0.5
			}
		}
	],
	"meshes" : [
		{
			"primitives" : [
				{
					"attributes" : {
						"NORMAL" : 1,
						"POSITION" : 0,
						"COLOR_0" : 2
					},
					"indices" : 3,
					"material" : 0,
					"mode" : 4
				}
			]
		}
	],
	"nodes" : [
		{
			"name" : "B338821611401063C0",
			"matrix" : [ 1, 0, 0, 0, 0, 0, -1, 0, 0, 1, 0, 0, 833881.625, 13.257003784179688, -816113.875, 1 ],
			"children" : [ 1 ]
		},
		{
			"mesh" : 0
		}
	],
	"scenes" : [
		{
			"nodes" : [ 0 ]
		}
	],
	"scene" : 0,
	"accessors" : [
		{
			"bufferView" : 0,
			"byteOffset" : 0,
			"componentType" : 5126,
			"count" : 402,
			"type" : "VEC3",
			"min" : [ -6.0498046875, -6.4951171875, 0 ],
			"max" : [ 6.05078125, 6.4951171875, 25.358001708984375 ]
		},
		{
			"bufferView" : 1,
			"byteOffset" : 0,
			"componentType" : 5126,
			"count" : 402,
			"type" : "VEC3",
			"min" : [ -0.722506582736969, -0.8203981518745422, -1 ],
			"max" : [ 0.8225435614585876, 0.8203981518745422, 1 ]
		},
		{
			"bufferView" : 2,
			"byteOffset" : 0,
			"componentType" : 5126,
			"count" : 402,
			"type" : "VEC3"
		},
		{
			"bufferView" : 3,
			"byteOffset" : 0,
			"componentType" : 5123,
			"count" : 402,
			"type" : "SCALAR",
			"min" : [ 0 ],
			"max" : [ 401 ]
		}
	],
	"bufferViews" : [
		{
			"buffer" : 0,
			"byteOffset" : 0,
			"byteLength" : 4824,
			"target" : 34962
		},
		{
			"buffer" : 0,
			"byteOffset" : 4824,
			"byteLength" : 4824,
			"target" : 34962
		},
		{
			"buffer" : 0,
			"byteOffset" : 9648,
			"byteLength" : 4824,
			"target" : 34962
		},
		{
			"buffer" : 0,
			"byteOffset" : 14472,
			"byteLength" : 804,
			"target" : 34963
		}
	],
	"buffers" : [
		{
			"uri" : "B338821611401063C0.bin",
			"byteLength" : 15276
		}
	]
}
