{
	"asset" : {
		"generator" : "FME 2022.2.4.0",
		"version" : "2.0"
	},
	"materials" : [
		{
			"name" : "default_material",
			"pbrMetallicRoughness" : {
				"baseColorFactor" : [ 1, 1, 1, 1 ],
				"roughnessFactor" : 0.30000000000000004,
				"metallicFactor" : 0.5
			}
		}
	],
	"meshes" : [
		{
			"primitives" : [
				{
					"attributes" : {
						"NORMAL" : 1,
						"POSITION" : 0,
						"COLOR_0" : 2
					},
					"indices" : 3,
					"material" : 0,
					"mode" : 4
				}
			]
		}
	],
	"nodes" : [
		{
			"name" : "B354921545701063C0",
			"matrix" : [ 1, 0, 0, 0, 0, 0, -1, 0, 0, 1, 0, 0, 835492.1875, 20.485000610351562, -815462.75, 1 ],
			"children" : [ 1 ]
		},
		{
			"mesh" : 0
		}
	],
	"scenes" : [
		{
			"nodes" : [ 0 ]
		}
	],
	"scene" : 0,
	"accessors" : [
		{
			"bufferView" : 0,
			"byteOffset" : 0,
			"componentType" : 5126,
			"count" : 834,
			"type" : "VEC3",
			"min" : [ -17.3447265625, -18.0224609375, 0 ],
			"max" : [ 17.345703125, 18.0234375, 69.2490005493164 ]
		},
		{
			"bufferView" : 1,
			"byteOffset" : 0,
			"componentType" : 5126,
			"count" : 834,
			"type" : "VEC3",
			"min" : [ -0.9965233206748962, -0.9965457320213318, -1 ],
			"max" : [ 0.9964407682418823, 0.9964897036552429, 1 ]
		},
		{
			"bufferView" : 2,
			"byteOffset" : 0,
			"componentType" : 5126,
			"count" : 834,
			"type" : "VEC3"
		},
		{
			"bufferView" : 3,
			"byteOffset" : 0,
			"componentType" : 5123,
			"count" : 834,
			"type" : "SCALAR",
			"min" : [ 0 ],
			"max" : [ 833 ]
		}
	],
	"bufferViews" : [
		{
			"buffer" : 0,
			"byteOffset" : 0,
			"byteLength" : 10008,
			"target" : 34962
		},
		{
			"buffer" : 0,
			"byteOffset" : 10008,
			"byteLength" : 10008,
			"target" : 34962
		},
		{
			"buffer" : 0,
			"byteOffset" : 20016,
			"byteLength" : 10008,
			"target" : 34962
		},
		{
			"buffer" : 0,
			"byteOffset" : 30024,
			"byteLength" : 1668,
			"target" : 34963
		}
	],
	"buffers" : [
		{
			"uri" : "B354921545701063C0.bin",
			"byteLength" : 31692
		}
	]
}
