{
	"asset" : {
		"generator" : "FME 2023.1.0.0",
		"version" : "2.0"
	},
	"materials" : [
		{
			"name" : "default_material",
			"pbrMetallicRoughness" : {
				"baseColorFactor" : [ 1, 1, 1, 1 ],
				"roughnessFactor" : 0.30000000000000004,
				"metallicFactor" : 0.5
			}
		}
	],
	"meshes" : [
		{
			"primitives" : [
				{
					"attributes" : {
						"NORMAL" : 1,
						"POSITION" : 0,
						"COLOR_0" : 2
					},
					"indices" : 3,
					"material" : 0,
					"mode" : 4
				}
			]
		}
	],
	"nodes" : [
		{
			"name" : "B337431628301063C0",
			"matrix" : [ 1, 0, 0, 0, 0, 0, -1, 0, 0, 1, 0, 0, 833744.25, 3.6959991455078125, -816280.75, 1 ],
			"children" : [ 1 ]
		},
		{
			"mesh" : 0
		}
	],
	"scenes" : [
		{
			"nodes" : [ 0 ]
		}
	],
	"scene" : 0,
	"accessors" : [
		{
			"bufferView" : 0,
			"byteOffset" : 0,
			"componentType" : 5126,
			"count" : 663,
			"type" : "VEC3",
			"min" : [ -3.404296875, -5.5849609375, 0 ],
			"max" : [ 3.404296875, 5.5859375, 24.9739990234375 ]
		},
		{
			"bufferView" : 1,
			"byteOffset" : 0,
			"componentType" : 5126,
			"count" : 663,
			"type" : "VEC3",
			"min" : [ -0.997329592704773, -0.9974761009216309, -1 ],
			"max" : [ 0.9974071383476257, 0.9973756670951843, 1 ]
		},
		{
			"bufferView" : 2,
			"byteOffset" : 0,
			"componentType" : 5126,
			"count" : 663,
			"type" : "VEC3"
		},
		{
			"bufferView" : 3,
			"byteOffset" : 0,
			"componentType" : 5123,
			"count" : 663,
			"type" : "SCALAR",
			"min" : [ 0 ],
			"max" : [ 662 ]
		}
	],
	"bufferViews" : [
		{
			"buffer" : 0,
			"byteOffset" : 0,
			"byteLength" : 7956,
			"target" : 34962
		},
		{
			"buffer" : 0,
			"byteOffset" : 7956,
			"byteLength" : 7956,
			"target" : 34962
		},
		{
			"buffer" : 0,
			"byteOffset" : 15912,
			"byteLength" : 7956,
			"target" : 34962
		},
		{
			"buffer" : 0,
			"byteOffset" : 23868,
			"byteLength" : 1326,
			"target" : 34963
		}
	],
	"buffers" : [
		{
			"uri" : "B337431628301063C0.bin",
			"byteLength" : 25194
		}
	]
}
