{
	"asset" : {
		"generator" : "FME 2023.2.2.0",
		"version" : "2.0"
	},
	"materials" : [
		{
			"name" : "default_material",
			"pbrMetallicRoughness" : {
				"baseColorFactor" : [ 1, 1, 1, 1 ],
				"roughnessFactor" : 0.30000000000000004,
				"metallicFactor" : 0.5
			}
		}
	],
	"meshes" : [
		{
			"primitives" : [
				{
					"attributes" : {
						"NORMAL" : 1,
						"POSITION" : 0,
						"COLOR_0" : 2
					},
					"indices" : 3,
					"material" : 0,
					"mode" : 4
				}
			]
		}
	],
	"nodes" : [
		{
			"name" : "B336901655802063C1",
			"matrix" : [ 1, 0, 0, 0, 0, 0, -1, 0, 0, 1, 0, 0, 833690.8125, -3.133999824523926, -816558.875, 1 ],
			"children" : [ 1 ]
		},
		{
			"mesh" : 0
		}
	],
	"scenes" : [
		{
			"nodes" : [ 0 ]
		}
	],
	"scene" : 0,
	"accessors" : [
		{
			"bufferView" : 0,
			"byteOffset" : 0,
			"componentType" : 5126,
			"count" : 58653,
			"type" : "VEC3",
			"min" : [ -122.83203125, -57.017578125, 0 ],
			"max" : [ 122.833984375, 57.091796875, 30.44300079345703 ]
		},
		{
			"bufferView" : 1,
			"byteOffset" : 0,
			"componentType" : 5126,
			"count" : 58653,
			"type" : "VEC3",
			"min" : [ -1, -1, -1 ],
			"max" : [ 1, 1, 1 ]
		},
		{
			"bufferView" : 2,
			"byteOffset" : 0,
			"componentType" : 5126,
			"count" : 58653,
			"type" : "VEC3"
		},
		{
			"bufferView" : 3,
			"byteOffset" : 0,
			"componentType" : 5123,
			"count" : 58653,
			"type" : "SCALAR",
			"min" : [ 0 ],
			"max" : [ 58652 ]
		}
	],
	"bufferViews" : [
		{
			"buffer" : 0,
			"byteOffset" : 0,
			"byteLength" : 703836,
			"target" : 34962
		},
		{
			"buffer" : 0,
			"byteOffset" : 703836,
			"byteLength" : 703836,
			"target" : 34962
		},
		{
			"buffer" : 0,
			"byteOffset" : 1407672,
			"byteLength" : 703836,
			"target" : 34962
		},
		{
			"buffer" : 0,
			"byteOffset" : 2111508,
			"byteLength" : 117306,
			"target" : 34963
		}
	],
	"buffers" : [
		{
			"uri" : "B336901655802063C1.bin",
			"byteLength" : 2228814
		}
	]
}
