{
	"asset" : {
		"generator" : "FME 2022.2.4.0",
		"version" : "2.0"
	},
	"materials" : [
		{
			"name" : "default_material",
			"pbrMetallicRoughness" : {
				"baseColorFactor" : [ 1, 1, 1, 1 ],
				"roughnessFactor" : 0.30000000000000004,
				"metallicFactor" : 0.5
			}
		}
	],
	"meshes" : [
		{
			"primitives" : [
				{
					"attributes" : {
						"NORMAL" : 1,
						"POSITION" : 0,
						"COLOR_0" : 2
					},
					"indices" : 3,
					"material" : 0,
					"mode" : 4
				}
			]
		}
	],
	"nodes" : [
		{
			"name" : "B149721157701062G0",
			"matrix" : [ 1, 0, 0, 0, 0, 0, -1, 0, 0, 1, 0, 0, 814971, 65.43900299072266, -811575.125, 1 ],
			"children" : [ 1 ]
		},
		{
			"mesh" : 0
		}
	],
	"scenes" : [
		{
			"nodes" : [ 0 ]
		}
	],
	"scene" : 0,
	"accessors" : [
		{
			"bufferView" : 0,
			"byteOffset" : 0,
			"componentType" : 5126,
			"count" : 96,
			"type" : "VEC3",
			"min" : [ -5.875, -4.8125, 0 ],
			"max" : [ 5.9375, 4.875, 2.6252975463867188 ]
		},
		{
			"bufferView" : 1,
			"byteOffset" : 0,
			"componentType" : 5126,
			"count" : 96,
			"type" : "VEC3",
			"min" : [ -0.9917741417884827, -0.9917338490486145, -1 ],
			"max" : [ 0.9918129444122314, 0.9917461276054382, 1 ]
		},
		{
			"bufferView" : 2,
			"byteOffset" : 0,
			"componentType" : 5126,
			"count" : 96,
			"type" : "VEC3"
		},
		{
			"bufferView" : 3,
			"byteOffset" : 0,
			"componentType" : 5121,
			"count" : 96,
			"type" : "SCALAR",
			"min" : [ 0 ],
			"max" : [ 95 ]
		}
	],
	"bufferViews" : [
		{
			"buffer" : 0,
			"byteOffset" : 0,
			"byteLength" : 1152,
			"target" : 34962
		},
		{
			"buffer" : 0,
			"byteOffset" : 1152,
			"byteLength" : 1152,
			"target" : 34962
		},
		{
			"buffer" : 0,
			"byteOffset" : 2304,
			"byteLength" : 1152,
			"target" : 34962
		},
		{
			"buffer" : 0,
			"byteOffset" : 3456,
			"byteLength" : 96,
			"target" : 34963
		}
	],
	"buffers" : [
		{
			"uri" : "B149721157701062G0.bin",
			"byteLength" : 3552
		}
	]
}
