{
	"asset" : {
		"generator" : "FME 2023.2.1.0",
		"version" : "2.0"
	},
	"materials" : [
		{
			"name" : "default_material",
			"pbrMetallicRoughness" : {
				"baseColorFactor" : [ 1, 1, 1, 1 ],
				"roughnessFactor" : 0.30000000000000004,
				"metallicFactor" : 0.5
			}
		}
	],
	"meshes" : [
		{
			"primitives" : [
				{
					"attributes" : {
						"NORMAL" : 1,
						"POSITION" : 0,
						"COLOR_0" : 2
					},
					"indices" : 3,
					"material" : 0,
					"mode" : 4
				}
			]
		}
	],
	"nodes" : [
		{
			"name" : "B334031633801063C0",
			"matrix" : [ 1, 0, 0, 0, 0, 0, -1, 0, 0, 1, 0, 0, 833406.875, 5.427999973297119, -816329.375, 1 ],
			"children" : [ 1 ]
		},
		{
			"mesh" : 0
		}
	],
	"scenes" : [
		{
			"nodes" : [ 0 ]
		}
	],
	"scene" : 0,
	"accessors" : [
		{
			"bufferView" : 0,
			"byteOffset" : 0,
			"componentType" : 5126,
			"count" : 4026,
			"type" : "VEC3",
			"min" : [ -21.0478515625, -20.525390625, 0 ],
			"max" : [ 21.1513671875, 20.5498046875, 73.17599487304688 ]
		},
		{
			"bufferView" : 1,
			"byteOffset" : 0,
			"componentType" : 5126,
			"count" : 4026,
			"type" : "VEC3",
			"min" : [ -0.9473685026168823, -0.9778024554252625, -1 ],
			"max" : [ 0.944080650806427, 1, 1 ]
		},
		{
			"bufferView" : 2,
			"byteOffset" : 0,
			"componentType" : 5126,
			"count" : 4026,
			"type" : "VEC3"
		},
		{
			"bufferView" : 3,
			"byteOffset" : 0,
			"componentType" : 5123,
			"count" : 4026,
			"type" : "SCALAR",
			"min" : [ 0 ],
			"max" : [ 4025 ]
		}
	],
	"bufferViews" : [
		{
			"buffer" : 0,
			"byteOffset" : 0,
			"byteLength" : 48312,
			"target" : 34962
		},
		{
			"buffer" : 0,
			"byteOffset" : 48312,
			"byteLength" : 48312,
			"target" : 34962
		},
		{
			"buffer" : 0,
			"byteOffset" : 96624,
			"byteLength" : 48312,
			"target" : 34962
		},
		{
			"buffer" : 0,
			"byteOffset" : 144936,
			"byteLength" : 8052,
			"target" : 34963
		}
	],
	"buffers" : [
		{
			"uri" : "B334031633801063C0.bin",
			"byteLength" : 152988
		}
	]
}
