{
	"asset" : {
		"generator" : "FME 2022.2.4.0",
		"version" : "2.0"
	},
	"materials" : [
		{
			"name" : "default_material",
			"pbrMetallicRoughness" : {
				"baseColorFactor" : [ 1, 1, 1, 1 ],
				"roughnessFactor" : 0.30000000000000004,
				"metallicFactor" : 0.5
			}
		}
	],
	"meshes" : [
		{
			"primitives" : [
				{
					"attributes" : {
						"NORMAL" : 1,
						"POSITION" : 0,
						"COLOR_0" : 2
					},
					"indices" : 3,
					"material" : 0,
					"mode" : 4
				}
			]
		}
	],
	"nodes" : [
		{
			"name" : "B339901542602063C0",
			"matrix" : [ 1, 0, 0, 0, 0, 0, -1, 0, 0, 1, 0, 0, 833984.6875, 96.83899688720703, -815428.5625, 1 ],
			"children" : [ 1 ]
		},
		{
			"mesh" : 0
		}
	],
	"scenes" : [
		{
			"nodes" : [ 0 ]
		}
	],
	"scene" : 0,
	"accessors" : [
		{
			"bufferView" : 0,
			"byteOffset" : 0,
			"componentType" : 5126,
			"count" : 6879,
			"type" : "VEC3",
			"min" : [ -31.470703125, -31.3408203125, 0 ],
			"max" : [ 31.470703125, 31.3408203125, 18.71601104736328 ]
		},
		{
			"bufferView" : 1,
			"byteOffset" : 0,
			"componentType" : 5126,
			"count" : 6879,
			"type" : "VEC3",
			"min" : [ -0.9999917149543762, -0.9997326731681824, -1 ],
			"max" : [ 0.9999898076057434, 0.9999935030937195, 1 ]
		},
		{
			"bufferView" : 2,
			"byteOffset" : 0,
			"componentType" : 5126,
			"count" : 6879,
			"type" : "VEC3"
		},
		{
			"bufferView" : 3,
			"byteOffset" : 0,
			"componentType" : 5123,
			"count" : 6879,
			"type" : "SCALAR",
			"min" : [ 0 ],
			"max" : [ 6878 ]
		}
	],
	"bufferViews" : [
		{
			"buffer" : 0,
			"byteOffset" : 0,
			"byteLength" : 82548,
			"target" : 34962
		},
		{
			"buffer" : 0,
			"byteOffset" : 82548,
			"byteLength" : 82548,
			"target" : 34962
		},
		{
			"buffer" : 0,
			"byteOffset" : 165096,
			"byteLength" : 82548,
			"target" : 34962
		},
		{
			"buffer" : 0,
			"byteOffset" : 247644,
			"byteLength" : 13758,
			"target" : 34963
		}
	],
	"buffers" : [
		{
			"uri" : "B339901542602063C0.bin",
			"byteLength" : 261402
		}
	]
}
