{
	"asset" : {
		"generator" : "FME 2022.2.4.0",
		"version" : "2.0"
	},
	"materials" : [
		{
			"name" : "default_material",
			"pbrMetallicRoughness" : {
				"baseColorFactor" : [ 1, 1, 1, 1 ],
				"roughnessFactor" : 0.30000000000000004,
				"metallicFactor" : 0.5
			}
		}
	],
	"meshes" : [
		{
			"primitives" : [
				{
					"attributes" : {
						"NORMAL" : 1,
						"POSITION" : 0,
						"COLOR_0" : 2
					},
					"indices" : 3,
					"material" : 0,
					"mode" : 4
				}
			]
		}
	],
	"nodes" : [
		{
			"name" : "B349581546901063C0",
			"matrix" : [ 1, 0, 0, 0, 0, 0, -1, 0, 0, 1, 0, 0, 834934.25, 6.533999919891357, -815428.625, 1 ],
			"children" : [ 1 ]
		},
		{
			"mesh" : 0
		}
	],
	"scenes" : [
		{
			"nodes" : [ 0 ]
		}
	],
	"scene" : 0,
	"accessors" : [
		{
			"bufferView" : 0,
			"byteOffset" : 0,
			"componentType" : 5126,
			"count" : 13815,
			"type" : "VEC3",
			"min" : [ -38.96875, -31.3134765625, 0 ],
			"max" : [ 39.0927734375, 31.3125, 221.281005859375 ]
		},
		{
			"bufferView" : 1,
			"byteOffset" : 0,
			"componentType" : 5126,
			"count" : 13815,
			"type" : "VEC3",
			"min" : [ -0.9973611235618591, -1, -1 ],
			"max" : [ 0.9995172023773193, 0.9996991157531738, 1 ]
		},
		{
			"bufferView" : 2,
			"byteOffset" : 0,
			"componentType" : 5126,
			"count" : 13815,
			"type" : "VEC3"
		},
		{
			"bufferView" : 3,
			"byteOffset" : 0,
			"componentType" : 5123,
			"count" : 13815,
			"type" : "SCALAR",
			"min" : [ 0 ],
			"max" : [ 13814 ]
		}
	],
	"bufferViews" : [
		{
			"buffer" : 0,
			"byteOffset" : 0,
			"byteLength" : 165780,
			"target" : 34962
		},
		{
			"buffer" : 0,
			"byteOffset" : 165780,
			"byteLength" : 165780,
			"target" : 34962
		},
		{
			"buffer" : 0,
			"byteOffset" : 331560,
			"byteLength" : 165780,
			"target" : 34962
		},
		{
			"buffer" : 0,
			"byteOffset" : 497340,
			"byteLength" : 27630,
			"target" : 34963
		}
	],
	"buffers" : [
		{
			"uri" : "B349581546901063C0.bin",
			"byteLength" : 524970
		}
	]
}
