{
	"asset" : {
		"generator" : "FME 2022.2.4.0",
		"version" : "2.0"
	},
	"materials" : [
		{
			"name" : "default_material",
			"pbrMetallicRoughness" : {
				"baseColorFactor" : [ 1, 1, 1, 1 ],
				"roughnessFactor" : 0.30000000000000004,
				"metallicFactor" : 0.5
			}
		}
	],
	"meshes" : [
		{
			"primitives" : [
				{
					"attributes" : {
						"NORMAL" : 1,
						"POSITION" : 0,
						"COLOR_0" : 2
					},
					"indices" : 3,
					"material" : 0,
					"mode" : 4
				}
			]
		}
	],
	"nodes" : [
		{
			"name" : "B334051584901063C0",
			"matrix" : [ 1, 0, 0, 0, 0, 0, -1, 0, 0, 1, 0, 0, 833405.1875, 124.6449966430664, -815849.125, 1 ],
			"children" : [ 1 ]
		},
		{
			"mesh" : 0
		}
	],
	"scenes" : [
		{
			"nodes" : [ 0 ]
		}
	],
	"scene" : 0,
	"accessors" : [
		{
			"bufferView" : 0,
			"byteOffset" : 0,
			"componentType" : 5126,
			"count" : 267,
			"type" : "VEC3",
			"min" : [ -1.2646484375, -1.458984375, 0 ],
			"max" : [ 1.265625, 1.4599609375, 3.2170028686523438 ]
		},
		{
			"bufferView" : 1,
			"byteOffset" : 0,
			"componentType" : 5126,
			"count" : 267,
			"type" : "VEC3",
			"min" : [ -1, -0.998401939868927, 0 ],
			"max" : [ 1, 0.9986045360565186, 1 ]
		},
		{
			"bufferView" : 2,
			"byteOffset" : 0,
			"componentType" : 5126,
			"count" : 267,
			"type" : "VEC3"
		},
		{
			"bufferView" : 3,
			"byteOffset" : 0,
			"componentType" : 5123,
			"count" : 267,
			"type" : "SCALAR",
			"min" : [ 0 ],
			"max" : [ 266 ]
		}
	],
	"bufferViews" : [
		{
			"buffer" : 0,
			"byteOffset" : 0,
			"byteLength" : 3204,
			"target" : 34962
		},
		{
			"buffer" : 0,
			"byteOffset" : 3204,
			"byteLength" : 3204,
			"target" : 34962
		},
		{
			"buffer" : 0,
			"byteOffset" : 6408,
			"byteLength" : 3204,
			"target" : 34962
		},
		{
			"buffer" : 0,
			"byteOffset" : 9612,
			"byteLength" : 534,
			"target" : 34963
		}
	],
	"buffers" : [
		{
			"uri" : "B334051584901063C0.bin",
			"byteLength" : 10146
		}
	]
}
