{
	"asset" : {
		"generator" : "FME 2022.2.4.0",
		"version" : "2.0"
	},
	"materials" : [
		{
			"name" : "default_material",
			"pbrMetallicRoughness" : {
				"baseColorFactor" : [ 1, 1, 1, 1 ],
				"roughnessFactor" : 0.30000000000000004,
				"metallicFactor" : 0.5
			}
		}
	],
	"meshes" : [
		{
			"primitives" : [
				{
					"attributes" : {
						"NORMAL" : 1,
						"POSITION" : 0,
						"COLOR_0" : 2
					},
					"indices" : 3,
					"material" : 0,
					"mode" : 4
				}
			]
		}
	],
	"nodes" : [
		{
			"name" : "B171621442301062G0",
			"matrix" : [ 1, 0, 0, 0, 0, 0, -1, 0, 0, 1, 0, 0, 817161.625, 10.168100357055664, -814421.75, 1 ],
			"children" : [ 1 ]
		},
		{
			"mesh" : 0
		}
	],
	"scenes" : [
		{
			"nodes" : [ 0 ]
		}
	],
	"scene" : 0,
	"accessors" : [
		{
			"bufferView" : 0,
			"byteOffset" : 0,
			"componentType" : 5126,
			"count" : 450,
			"type" : "VEC3",
			"min" : [ -5.5625, -5.9375, 0 ],
			"max" : [ 5.625, 5.875, 10.498600006103516 ]
		},
		{
			"bufferView" : 1,
			"byteOffset" : 0,
			"componentType" : 5126,
			"count" : 450,
			"type" : "VEC3",
			"min" : [ -0.7559831738471985, -0.7571898698806763, -1 ],
			"max" : [ 0.7687991261482239, 0.7559855580329895, 1 ]
		},
		{
			"bufferView" : 2,
			"byteOffset" : 0,
			"componentType" : 5126,
			"count" : 450,
			"type" : "VEC3"
		},
		{
			"bufferView" : 3,
			"byteOffset" : 0,
			"componentType" : 5123,
			"count" : 450,
			"type" : "SCALAR",
			"min" : [ 0 ],
			"max" : [ 449 ]
		}
	],
	"bufferViews" : [
		{
			"buffer" : 0,
			"byteOffset" : 0,
			"byteLength" : 5400,
			"target" : 34962
		},
		{
			"buffer" : 0,
			"byteOffset" : 5400,
			"byteLength" : 5400,
			"target" : 34962
		},
		{
			"buffer" : 0,
			"byteOffset" : 10800,
			"byteLength" : 5400,
			"target" : 34962
		},
		{
			"buffer" : 0,
			"byteOffset" : 16200,
			"byteLength" : 900,
			"target" : 34963
		}
	],
	"buffers" : [
		{
			"uri" : "B171621442301062G0.bin",
			"byteLength" : 17100
		}
	]
}
