{
	"asset" : {
		"generator" : "FME 2022.2.4.0",
		"version" : "2.0"
	},
	"materials" : [
		{
			"name" : "default_material",
			"pbrMetallicRoughness" : {
				"baseColorFactor" : [ 1, 1, 1, 1 ],
				"roughnessFactor" : 0.30000000000000004,
				"metallicFactor" : 0.5
			}
		}
	],
	"meshes" : [
		{
			"primitives" : [
				{
					"attributes" : {
						"NORMAL" : 1,
						"POSITION" : 0,
						"COLOR_0" : 2
					},
					"indices" : 3,
					"material" : 0,
					"mode" : 4
				}
			]
		}
	],
	"nodes" : [
		{
			"name" : "B331011646901063C0",
			"matrix" : [ 1, 0, 0, 0, 0, 0, -1, 0, 0, 1, 0, 0, 833104.8125, 3.499000072479248, -816480.25, 1 ],
			"children" : [ 1 ]
		},
		{
			"mesh" : 0
		}
	],
	"scenes" : [
		{
			"nodes" : [ 0 ]
		}
	],
	"scene" : 0,
	"accessors" : [
		{
			"bufferView" : 0,
			"byteOffset" : 0,
			"componentType" : 5126,
			"count" : 3195,
			"type" : "VEC3",
			"min" : [ -8.75439453125, -15.9169921875, 0 ],
			"max" : [ 8.75439453125, 15.916015625, 57.32687759399414 ]
		},
		{
			"bufferView" : 1,
			"byteOffset" : 0,
			"componentType" : 5126,
			"count" : 3195,
			"type" : "VEC3",
			"min" : [ -0.9999784231185913, -0.9999949336051941, -1 ],
			"max" : [ 0.999142587184906, 0.9989528059959412, 1 ]
		},
		{
			"bufferView" : 2,
			"byteOffset" : 0,
			"componentType" : 5126,
			"count" : 3195,
			"type" : "VEC3"
		},
		{
			"bufferView" : 3,
			"byteOffset" : 0,
			"componentType" : 5123,
			"count" : 3195,
			"type" : "SCALAR",
			"min" : [ 0 ],
			"max" : [ 3194 ]
		}
	],
	"bufferViews" : [
		{
			"buffer" : 0,
			"byteOffset" : 0,
			"byteLength" : 38340,
			"target" : 34962
		},
		{
			"buffer" : 0,
			"byteOffset" : 38340,
			"byteLength" : 38340,
			"target" : 34962
		},
		{
			"buffer" : 0,
			"byteOffset" : 76680,
			"byteLength" : 38340,
			"target" : 34962
		},
		{
			"buffer" : 0,
			"byteOffset" : 115020,
			"byteLength" : 6390,
			"target" : 34963
		}
	],
	"buffers" : [
		{
			"uri" : "B331011646901063C0.bin",
			"byteLength" : 121410
		}
	]
}
