{
	"asset" : {
		"generator" : "FME 2023.2.1.0",
		"version" : "2.0"
	},
	"materials" : [
		{
			"name" : "default_material",
			"pbrMetallicRoughness" : {
				"baseColorFactor" : [ 1, 1, 1, 1 ],
				"roughnessFactor" : 0.30000000000000004,
				"metallicFactor" : 0.5
			}
		}
	],
	"meshes" : [
		{
			"primitives" : [
				{
					"attributes" : {
						"NORMAL" : 1,
						"POSITION" : 0,
						"COLOR_0" : 2
					},
					"indices" : 3,
					"material" : 0,
					"mode" : 4
				}
			]
		}
	],
	"nodes" : [
		{
			"name" : "B341771576501063C0",
			"matrix" : [ 1, 0, 0, 0, 0, 0, -1, 0, 0, 1, 0, 0, 834175.25, 15.152999877929688, -815759.875, 1 ],
			"children" : [ 1 ]
		},
		{
			"mesh" : 0
		}
	],
	"scenes" : [
		{
			"nodes" : [ 0 ]
		}
	],
	"scene" : 0,
	"accessors" : [
		{
			"bufferView" : 0,
			"byteOffset" : 0,
			"componentType" : 5126,
			"count" : 327,
			"type" : "VEC3",
			"min" : [ -8.75, -8.1298828125, 0 ],
			"max" : [ 8.68359375, 8.16015625, 38.143001556396484 ]
		},
		{
			"bufferView" : 1,
			"byteOffset" : 0,
			"componentType" : 5126,
			"count" : 327,
			"type" : "VEC3",
			"min" : [ -0.7295831441879272, -0.7383420467376709, -0.000697957118973136 ],
			"max" : [ 0.7298087477684021, 0.7296342253684998, 1 ]
		},
		{
			"bufferView" : 2,
			"byteOffset" : 0,
			"componentType" : 5126,
			"count" : 327,
			"type" : "VEC3"
		},
		{
			"bufferView" : 3,
			"byteOffset" : 0,
			"componentType" : 5123,
			"count" : 327,
			"type" : "SCALAR",
			"min" : [ 0 ],
			"max" : [ 326 ]
		}
	],
	"bufferViews" : [
		{
			"buffer" : 0,
			"byteOffset" : 0,
			"byteLength" : 3924,
			"target" : 34962
		},
		{
			"buffer" : 0,
			"byteOffset" : 3924,
			"byteLength" : 3924,
			"target" : 34962
		},
		{
			"buffer" : 0,
			"byteOffset" : 7848,
			"byteLength" : 3924,
			"target" : 34962
		},
		{
			"buffer" : 0,
			"byteOffset" : 11772,
			"byteLength" : 654,
			"target" : 34963
		}
	],
	"buffers" : [
		{
			"uri" : "B341771576501063C0.bin",
			"byteLength" : 12426
		}
	]
}
