{
	"asset" : {
		"generator" : "FME 2023.1.0.0",
		"version" : "2.0"
	},
	"materials" : [
		{
			"name" : "default_material",
			"pbrMetallicRoughness" : {
				"baseColorFactor" : [ 1, 1, 1, 1 ],
				"roughnessFactor" : 0.30000000000000004,
				"metallicFactor" : 0.5
			}
		}
	],
	"meshes" : [
		{
			"primitives" : [
				{
					"attributes" : {
						"NORMAL" : 1,
						"POSITION" : 0,
						"COLOR_0" : 2
					},
					"indices" : 3,
					"material" : 0,
					"mode" : 4
				}
			]
		}
	],
	"nodes" : [
		{
			"name" : "B336461625001063C0",
			"matrix" : [ 1, 0, 0, 0, 0, 0, -1, 0, 0, 1, 0, 0, 833648.5, 3.0969998836517334, -816251.5, 1 ],
			"children" : [ 1 ]
		},
		{
			"mesh" : 0
		}
	],
	"scenes" : [
		{
			"nodes" : [ 0 ]
		}
	],
	"scene" : 0,
	"accessors" : [
		{
			"bufferView" : 0,
			"byteOffset" : 0,
			"componentType" : 5126,
			"count" : 663,
			"type" : "VEC3",
			"min" : [ -5.125, -5.3505859375, 0 ],
			"max" : [ 5.1259765625, 5.349609375, 23.905000686645508 ]
		},
		{
			"bufferView" : 1,
			"byteOffset" : 0,
			"componentType" : 5126,
			"count" : 663,
			"type" : "VEC3",
			"min" : [ -0.9965875148773193, -0.9955785870552063, -1 ],
			"max" : [ 0.9996177554130554, 0.9964436888694763, 1 ]
		},
		{
			"bufferView" : 2,
			"byteOffset" : 0,
			"componentType" : 5126,
			"count" : 663,
			"type" : "VEC3"
		},
		{
			"bufferView" : 3,
			"byteOffset" : 0,
			"componentType" : 5123,
			"count" : 663,
			"type" : "SCALAR",
			"min" : [ 0 ],
			"max" : [ 662 ]
		}
	],
	"bufferViews" : [
		{
			"buffer" : 0,
			"byteOffset" : 0,
			"byteLength" : 7956,
			"target" : 34962
		},
		{
			"buffer" : 0,
			"byteOffset" : 7956,
			"byteLength" : 7956,
			"target" : 34962
		},
		{
			"buffer" : 0,
			"byteOffset" : 15912,
			"byteLength" : 7956,
			"target" : 34962
		},
		{
			"buffer" : 0,
			"byteOffset" : 23868,
			"byteLength" : 1326,
			"target" : 34963
		}
	],
	"buffers" : [
		{
			"uri" : "B336461625001063C0.bin",
			"byteLength" : 25194
		}
	]
}
