{
	"asset" : {
		"generator" : "FME 2023.2.1.0",
		"version" : "2.0"
	},
	"materials" : [
		{
			"name" : "default_material",
			"pbrMetallicRoughness" : {
				"baseColorFactor" : [ 1, 1, 1, 1 ],
				"roughnessFactor" : 0.30000000000000004,
				"metallicFactor" : 0.5
			}
		}
	],
	"meshes" : [
		{
			"primitives" : [
				{
					"attributes" : {
						"NORMAL" : 1,
						"POSITION" : 0,
						"COLOR_0" : 2
					},
					"indices" : 3,
					"material" : 0,
					"mode" : 4
				}
			]
		}
	],
	"nodes" : [
		{
			"name" : "B333491572501063C0",
			"matrix" : [ 1, 0, 0, 0, 0, 0, -1, 0, 0, 1, 0, 0, 833352.5625, 169.02001953125, -815716.875, 1 ],
			"children" : [ 1 ]
		},
		{
			"mesh" : 0
		}
	],
	"scenes" : [
		{
			"nodes" : [ 0 ]
		}
	],
	"scene" : 0,
	"accessors" : [
		{
			"bufferView" : 0,
			"byteOffset" : 0,
			"componentType" : 5126,
			"count" : 4863,
			"type" : "VEC3",
			"min" : [ -13.6845703125, -14.5693359375, 0 ],
			"max" : [ 13.6845703125, 14.568359375, 111.30999755859375 ]
		},
		{
			"bufferView" : 1,
			"byteOffset" : 0,
			"componentType" : 5126,
			"count" : 4863,
			"type" : "VEC3",
			"min" : [ -0.9997088313102722, -0.9998040199279785, -1 ],
			"max" : [ 0.9992454648017883, 0.9993054866790771, 1 ]
		},
		{
			"bufferView" : 2,
			"byteOffset" : 0,
			"componentType" : 5126,
			"count" : 4863,
			"type" : "VEC3"
		},
		{
			"bufferView" : 3,
			"byteOffset" : 0,
			"componentType" : 5123,
			"count" : 4863,
			"type" : "SCALAR",
			"min" : [ 0 ],
			"max" : [ 4862 ]
		}
	],
	"bufferViews" : [
		{
			"buffer" : 0,
			"byteOffset" : 0,
			"byteLength" : 58356,
			"target" : 34962
		},
		{
			"buffer" : 0,
			"byteOffset" : 58356,
			"byteLength" : 58356,
			"target" : 34962
		},
		{
			"buffer" : 0,
			"byteOffset" : 116712,
			"byteLength" : 58356,
			"target" : 34962
		},
		{
			"buffer" : 0,
			"byteOffset" : 175068,
			"byteLength" : 9726,
			"target" : 34963
		}
	],
	"buffers" : [
		{
			"uri" : "B333491572501063C0.bin",
			"byteLength" : 184794
		}
	]
}
