{
	"asset" : {
		"generator" : "FME 2023.2.2.0",
		"version" : "2.0"
	},
	"materials" : [
		{
			"name" : "default_material",
			"pbrMetallicRoughness" : {
				"baseColorFactor" : [ 1, 1, 1, 1 ],
				"roughnessFactor" : 0.30000000000000004,
				"metallicFactor" : 0.5
			}
		}
	],
	"meshes" : [
		{
			"primitives" : [
				{
					"attributes" : {
						"NORMAL" : 1,
						"POSITION" : 0,
						"COLOR_0" : 2
					},
					"indices" : 3,
					"material" : 0,
					"mode" : 4
				}
			]
		}
	],
	"nodes" : [
		{
			"name" : "B170741472601062G0",
			"matrix" : [ 1, 0, 0, 0, 0, 0, -1, 0, 0, 1, 0, 0, 817072.5625, 16.87070083618164, -814723.9375, 1 ],
			"children" : [ 1 ]
		},
		{
			"mesh" : 0
		}
	],
	"scenes" : [
		{
			"nodes" : [ 0 ]
		}
	],
	"scene" : 0,
	"accessors" : [
		{
			"bufferView" : 0,
			"byteOffset" : 0,
			"componentType" : 5126,
			"count" : 357,
			"type" : "VEC3",
			"min" : [ -6.375, -6.3125, 0 ],
			"max" : [ 6.375, 6.3125, 10.375099182128906 ]
		},
		{
			"bufferView" : 1,
			"byteOffset" : 0,
			"componentType" : 5126,
			"count" : 357,
			"type" : "VEC3",
			"min" : [ -0.7913153171539307, -0.791610062122345, -1 ],
			"max" : [ 0.7913175225257874, 0.8000795841217041, 1 ]
		},
		{
			"bufferView" : 2,
			"byteOffset" : 0,
			"componentType" : 5126,
			"count" : 357,
			"type" : "VEC3"
		},
		{
			"bufferView" : 3,
			"byteOffset" : 0,
			"componentType" : 5123,
			"count" : 357,
			"type" : "SCALAR",
			"min" : [ 0 ],
			"max" : [ 356 ]
		}
	],
	"bufferViews" : [
		{
			"buffer" : 0,
			"byteOffset" : 0,
			"byteLength" : 4284,
			"target" : 34962
		},
		{
			"buffer" : 0,
			"byteOffset" : 4284,
			"byteLength" : 4284,
			"target" : 34962
		},
		{
			"buffer" : 0,
			"byteOffset" : 8568,
			"byteLength" : 4284,
			"target" : 34962
		},
		{
			"buffer" : 0,
			"byteOffset" : 12852,
			"byteLength" : 714,
			"target" : 34963
		}
	],
	"buffers" : [
		{
			"uri" : "B170741472601062G0.bin",
			"byteLength" : 13566
		}
	]
}
