{
	"asset" : {
		"generator" : "FME 2022.2.4.0",
		"version" : "2.0"
	},
	"materials" : [
		{
			"name" : "default_material",
			"pbrMetallicRoughness" : {
				"baseColorFactor" : [ 1, 1, 1, 1 ],
				"roughnessFactor" : 0.30000000000000004,
				"metallicFactor" : 0.5
			}
		}
	],
	"meshes" : [
		{
			"primitives" : [
				{
					"attributes" : {
						"NORMAL" : 1,
						"POSITION" : 0,
						"COLOR_0" : 2
					},
					"indices" : 3,
					"material" : 0,
					"mode" : 4
				}
			]
		}
	],
	"nodes" : [
		{
			"name" : "B331511626401063C0",
			"matrix" : [ 1, 0, 0, 0, 0, 0, -1, 0, 0, 1, 0, 0, 833154.25, 20.719999313354492, -816263.875, 1 ],
			"children" : [ 1 ]
		},
		{
			"mesh" : 0
		}
	],
	"scenes" : [
		{
			"nodes" : [ 0 ]
		}
	],
	"scene" : 0,
	"accessors" : [
		{
			"bufferView" : 0,
			"byteOffset" : 0,
			"componentType" : 5126,
			"count" : 1485,
			"type" : "VEC3",
			"min" : [ -15.7529296875, -17.349609375, 0 ],
			"max" : [ 15.6669921875, 17.3056640625, 40.861000061035156 ]
		},
		{
			"bufferView" : 1,
			"byteOffset" : 0,
			"componentType" : 5126,
			"count" : 1485,
			"type" : "VEC3",
			"min" : [ -0.8300715088844299, -0.7813480496406555, -1 ],
			"max" : [ 0.7882654666900635, 0.7937556505203247, 1 ]
		},
		{
			"bufferView" : 2,
			"byteOffset" : 0,
			"componentType" : 5126,
			"count" : 1485,
			"type" : "VEC3"
		},
		{
			"bufferView" : 3,
			"byteOffset" : 0,
			"componentType" : 5123,
			"count" : 1485,
			"type" : "SCALAR",
			"min" : [ 0 ],
			"max" : [ 1484 ]
		}
	],
	"bufferViews" : [
		{
			"buffer" : 0,
			"byteOffset" : 0,
			"byteLength" : 17820,
			"target" : 34962
		},
		{
			"buffer" : 0,
			"byteOffset" : 17820,
			"byteLength" : 17820,
			"target" : 34962
		},
		{
			"buffer" : 0,
			"byteOffset" : 35640,
			"byteLength" : 17820,
			"target" : 34962
		},
		{
			"buffer" : 0,
			"byteOffset" : 53460,
			"byteLength" : 2970,
			"target" : 34963
		}
	],
	"buffers" : [
		{
			"uri" : "B331511626401063C0.bin",
			"byteLength" : 56430
		}
	]
}
