{
	"asset" : {
		"generator" : "FME 2023.1.0.0",
		"version" : "2.0"
	},
	"materials" : [
		{
			"name" : "default_material",
			"pbrMetallicRoughness" : {
				"baseColorFactor" : [ 1, 1, 1, 1 ],
				"roughnessFactor" : 0.30000000000000004,
				"metallicFactor" : 0.5
			}
		}
	],
	"meshes" : [
		{
			"primitives" : [
				{
					"attributes" : {
						"NORMAL" : 1,
						"POSITION" : 0,
						"COLOR_0" : 2
					},
					"indices" : 3,
					"material" : 0,
					"mode" : 4
				}
			]
		}
	],
	"nodes" : [
		{
			"name" : "B359471523901063C0",
			"matrix" : [ 1, 0, 0, 0, 0, 0, -1, 0, 0, 1, 0, 0, 835948.125, 10.12399959564209, -815237.8125, 1 ],
			"children" : [ 1 ]
		},
		{
			"mesh" : 0
		}
	],
	"scenes" : [
		{
			"nodes" : [ 0 ]
		}
	],
	"scene" : 0,
	"accessors" : [
		{
			"bufferView" : 0,
			"byteOffset" : 0,
			"componentType" : 5126,
			"count" : 849,
			"type" : "VEC3",
			"min" : [ -6.4306640625, -10.845703125, 0 ],
			"max" : [ 6.431640625, 10.8447265625, 51.15800094604492 ]
		},
		{
			"bufferView" : 1,
			"byteOffset" : 0,
			"componentType" : 5126,
			"count" : 849,
			"type" : "VEC3",
			"min" : [ -0.9957844018936157, -0.9981293082237244, -1 ],
			"max" : [ 0.9957268238067627, 0.9960302114486694, 1 ]
		},
		{
			"bufferView" : 2,
			"byteOffset" : 0,
			"componentType" : 5126,
			"count" : 849,
			"type" : "VEC3"
		},
		{
			"bufferView" : 3,
			"byteOffset" : 0,
			"componentType" : 5123,
			"count" : 849,
			"type" : "SCALAR",
			"min" : [ 0 ],
			"max" : [ 848 ]
		}
	],
	"bufferViews" : [
		{
			"buffer" : 0,
			"byteOffset" : 0,
			"byteLength" : 10188,
			"target" : 34962
		},
		{
			"buffer" : 0,
			"byteOffset" : 10188,
			"byteLength" : 10188,
			"target" : 34962
		},
		{
			"buffer" : 0,
			"byteOffset" : 20376,
			"byteLength" : 10188,
			"target" : 34962
		},
		{
			"buffer" : 0,
			"byteOffset" : 30564,
			"byteLength" : 1698,
			"target" : 34963
		}
	],
	"buffers" : [
		{
			"uri" : "B359471523901063C0.bin",
			"byteLength" : 32262
		}
	]
}
