{
	"asset" : {
		"generator" : "FME 2023.1.0.0",
		"version" : "2.0"
	},
	"materials" : [
		{
			"name" : "default_material",
			"pbrMetallicRoughness" : {
				"baseColorFactor" : [ 1, 1, 1, 1 ],
				"roughnessFactor" : 0.30000000000000004,
				"metallicFactor" : 0.5
			}
		}
	],
	"meshes" : [
		{
			"primitives" : [
				{
					"attributes" : {
						"NORMAL" : 1,
						"POSITION" : 0,
						"COLOR_0" : 2
					},
					"indices" : 3,
					"material" : 0,
					"mode" : 4
				}
			]
		}
	],
	"nodes" : [
		{
			"name" : "B338991594901063C0",
			"matrix" : [ 1, 0, 0, 0, 0, 0, -1, 0, 0, 1, 0, 0, 833898.75, 27.28700065612793, -815949.5, 1 ],
			"children" : [ 1 ]
		},
		{
			"mesh" : 0
		}
	],
	"scenes" : [
		{
			"nodes" : [ 0 ]
		}
	],
	"scene" : 0,
	"accessors" : [
		{
			"bufferView" : 0,
			"byteOffset" : 0,
			"componentType" : 5126,
			"count" : 33,
			"type" : "VEC3",
			"min" : [ -1.783203125, -1.728515625, 0 ],
			"max" : [ 1.875, 1.755859375, 13.518999099731445 ]
		},
		{
			"bufferView" : 1,
			"byteOffset" : 0,
			"componentType" : 5126,
			"count" : 33,
			"type" : "VEC3",
			"min" : [ -0.9917234182357788, -0.9917536377906799, -0.0005823824321851134 ],
			"max" : [ 0.9922779202461243, 0.991748571395874, 1 ]
		},
		{
			"bufferView" : 2,
			"byteOffset" : 0,
			"componentType" : 5126,
			"count" : 33,
			"type" : "VEC3"
		},
		{
			"bufferView" : 3,
			"byteOffset" : 0,
			"componentType" : 5121,
			"count" : 33,
			"type" : "SCALAR",
			"min" : [ 0 ],
			"max" : [ 32 ]
		}
	],
	"bufferViews" : [
		{
			"buffer" : 0,
			"byteOffset" : 0,
			"byteLength" : 396,
			"target" : 34962
		},
		{
			"buffer" : 0,
			"byteOffset" : 396,
			"byteLength" : 396,
			"target" : 34962
		},
		{
			"buffer" : 0,
			"byteOffset" : 792,
			"byteLength" : 396,
			"target" : 34962
		},
		{
			"buffer" : 0,
			"byteOffset" : 1188,
			"byteLength" : 33,
			"target" : 34963
		}
	],
	"buffers" : [
		{
			"uri" : "B338991594901063C0.bin",
			"byteLength" : 1221
		}
	]
}
