{
	"asset" : {
		"generator" : "FME 2023.1.0.0",
		"version" : "2.0"
	},
	"materials" : [
		{
			"name" : "default_material",
			"pbrMetallicRoughness" : {
				"baseColorFactor" : [ 1, 1, 1, 1 ],
				"roughnessFactor" : 0.30000000000000004,
				"metallicFactor" : 0.5
			}
		}
	],
	"meshes" : [
		{
			"primitives" : [
				{
					"attributes" : {
						"NORMAL" : 1,
						"POSITION" : 0,
						"COLOR_0" : 2
					},
					"indices" : 3,
					"material" : 0,
					"mode" : 4
				}
			]
		}
	],
	"nodes" : [
		{
			"name" : "B343951571502063C0",
			"matrix" : [ 1, 0, 0, 0, 0, 0, -1, 0, 0, 1, 0, 0, 834395.25, 5.474999904632568, -815714.75, 1 ],
			"children" : [ 1 ]
		},
		{
			"mesh" : 0
		}
	],
	"scenes" : [
		{
			"nodes" : [ 0 ]
		}
	],
	"scene" : 0,
	"accessors" : [
		{
			"bufferView" : 0,
			"byteOffset" : 0,
			"componentType" : 5126,
			"count" : 333,
			"type" : "VEC3",
			"min" : [ -18.8330078125, -21.962890625, 0 ],
			"max" : [ 18.82421875, 21.9921875, 13.041000366210938 ]
		},
		{
			"bufferView" : 1,
			"byteOffset" : 0,
			"componentType" : 5126,
			"count" : 333,
			"type" : "VEC3",
			"min" : [ -0.9661042094230652, -0.9656414985656738, -0.7533190250396729 ],
			"max" : [ 0.9650407433509827, 0.9638561010360718, 1 ]
		},
		{
			"bufferView" : 2,
			"byteOffset" : 0,
			"componentType" : 5126,
			"count" : 333,
			"type" : "VEC3"
		},
		{
			"bufferView" : 3,
			"byteOffset" : 0,
			"componentType" : 5123,
			"count" : 333,
			"type" : "SCALAR",
			"min" : [ 0 ],
			"max" : [ 332 ]
		}
	],
	"bufferViews" : [
		{
			"buffer" : 0,
			"byteOffset" : 0,
			"byteLength" : 3996,
			"target" : 34962
		},
		{
			"buffer" : 0,
			"byteOffset" : 3996,
			"byteLength" : 3996,
			"target" : 34962
		},
		{
			"buffer" : 0,
			"byteOffset" : 7992,
			"byteLength" : 3996,
			"target" : 34962
		},
		{
			"buffer" : 0,
			"byteOffset" : 11988,
			"byteLength" : 666,
			"target" : 34963
		}
	],
	"buffers" : [
		{
			"uri" : "B343951571502063C0.bin",
			"byteLength" : 12654
		}
	]
}
