{
	"asset" : {
		"generator" : "FME 2022.2.4.0",
		"version" : "2.0"
	},
	"materials" : [
		{
			"name" : "default_material",
			"pbrMetallicRoughness" : {
				"baseColorFactor" : [ 1, 1, 1, 1 ],
				"roughnessFactor" : 0.30000000000000004,
				"metallicFactor" : 0.5
			}
		}
	],
	"meshes" : [
		{
			"primitives" : [
				{
					"attributes" : {
						"NORMAL" : 1,
						"POSITION" : 0,
						"COLOR_0" : 2
					},
					"indices" : 3,
					"material" : 0,
					"mode" : 4
				}
			]
		}
	],
	"nodes" : [
		{
			"name" : "B334961627002063C0",
			"matrix" : [ 1, 0, 0, 0, 0, 0, -1, 0, 0, 1, 0, 0, 833490.125, 6.145999908447266, -816267.25, 1 ],
			"children" : [ 1 ]
		},
		{
			"mesh" : 0
		}
	],
	"scenes" : [
		{
			"nodes" : [ 0 ]
		}
	],
	"scene" : 0,
	"accessors" : [
		{
			"bufferView" : 0,
			"byteOffset" : 0,
			"componentType" : 5126,
			"count" : 5112,
			"type" : "VEC3",
			"min" : [ -32.154296875, -35.455078125, 0 ],
			"max" : [ 32.0380859375, 35.3994140625, 23.9689998626709 ]
		},
		{
			"bufferView" : 1,
			"byteOffset" : 0,
			"componentType" : 5126,
			"count" : 5112,
			"type" : "VEC3",
			"min" : [ -0.9644536375999451, -0.9281656742095947, -1 ],
			"max" : [ 0.995941162109375, 1, 1 ]
		},
		{
			"bufferView" : 2,
			"byteOffset" : 0,
			"componentType" : 5126,
			"count" : 5112,
			"type" : "VEC3"
		},
		{
			"bufferView" : 3,
			"byteOffset" : 0,
			"componentType" : 5123,
			"count" : 5112,
			"type" : "SCALAR",
			"min" : [ 0 ],
			"max" : [ 5111 ]
		}
	],
	"bufferViews" : [
		{
			"buffer" : 0,
			"byteOffset" : 0,
			"byteLength" : 61344,
			"target" : 34962
		},
		{
			"buffer" : 0,
			"byteOffset" : 61344,
			"byteLength" : 61344,
			"target" : 34962
		},
		{
			"buffer" : 0,
			"byteOffset" : 122688,
			"byteLength" : 61344,
			"target" : 34962
		},
		{
			"buffer" : 0,
			"byteOffset" : 184032,
			"byteLength" : 10224,
			"target" : 34963
		}
	],
	"buffers" : [
		{
			"uri" : "B334961627002063C0.bin",
			"byteLength" : 194256
		}
	]
}
