{
	"asset" : {
		"generator" : "FME 2022.2.4.0",
		"version" : "2.0"
	},
	"materials" : [
		{
			"name" : "default_material",
			"pbrMetallicRoughness" : {
				"baseColorFactor" : [ 1, 1, 1, 1 ],
				"roughnessFactor" : 0.30000000000000004,
				"metallicFactor" : 0.5
			}
		}
	],
	"meshes" : [
		{
			"primitives" : [
				{
					"attributes" : {
						"NORMAL" : 1,
						"POSITION" : 0,
						"COLOR_0" : 2
					},
					"indices" : 3,
					"material" : 0,
					"mode" : 4
				}
			]
		}
	],
	"nodes" : [
		{
			"name" : "B348401575701063C0",
			"matrix" : [ 1, 0, 0, 0, 0, 0, -1, 0, 0, 1, 0, 0, 834841.125, 20.82000732421875, -815748.3125, 1 ],
			"children" : [ 1 ]
		},
		{
			"mesh" : 0
		}
	],
	"scenes" : [
		{
			"nodes" : [ 0 ]
		}
	],
	"scene" : 0,
	"accessors" : [
		{
			"bufferView" : 0,
			"byteOffset" : 0,
			"componentType" : 5126,
			"count" : 7248,
			"type" : "VEC3",
			"min" : [ -25.126953125, -21.80078125, 0 ],
			"max" : [ 25.126953125, 21.80078125, 122.19699096679688 ]
		},
		{
			"bufferView" : 1,
			"byteOffset" : 0,
			"componentType" : 5126,
			"count" : 7248,
			"type" : "VEC3",
			"min" : [ -1, -1, -1 ],
			"max" : [ 1, 1, 1 ]
		},
		{
			"bufferView" : 2,
			"byteOffset" : 0,
			"componentType" : 5126,
			"count" : 7248,
			"type" : "VEC3"
		},
		{
			"bufferView" : 3,
			"byteOffset" : 0,
			"componentType" : 5123,
			"count" : 7248,
			"type" : "SCALAR",
			"min" : [ 0 ],
			"max" : [ 7247 ]
		}
	],
	"bufferViews" : [
		{
			"buffer" : 0,
			"byteOffset" : 0,
			"byteLength" : 86976,
			"target" : 34962
		},
		{
			"buffer" : 0,
			"byteOffset" : 86976,
			"byteLength" : 86976,
			"target" : 34962
		},
		{
			"buffer" : 0,
			"byteOffset" : 173952,
			"byteLength" : 86976,
			"target" : 34962
		},
		{
			"buffer" : 0,
			"byteOffset" : 260928,
			"byteLength" : 14496,
			"target" : 34963
		}
	],
	"buffers" : [
		{
			"uri" : "B348401575701063C0.bin",
			"byteLength" : 275424
		}
	]
}
