{
	"asset" : {
		"generator" : "FME 2022.2.4.0",
		"version" : "2.0"
	},
	"materials" : [
		{
			"name" : "default_material",
			"pbrMetallicRoughness" : {
				"baseColorFactor" : [ 1, 1, 1, 1 ],
				"roughnessFactor" : 0.30000000000000004,
				"metallicFactor" : 0.5
			}
		}
	],
	"meshes" : [
		{
			"primitives" : [
				{
					"attributes" : {
						"NORMAL" : 1,
						"POSITION" : 0,
						"COLOR_0" : 2
					},
					"indices" : 3,
					"material" : 0,
					"mode" : 4
				}
			]
		}
	],
	"nodes" : [
		{
			"name" : "B344491531001063C0",
			"matrix" : [ 1, 0, 0, 0, 0, 0, -1, 0, 0, 1, 0, 0, 834456.5625, 41.6879997253418, -815310.0625, 1 ],
			"children" : [ 1 ]
		},
		{
			"mesh" : 0
		}
	],
	"scenes" : [
		{
			"nodes" : [ 0 ]
		}
	],
	"scene" : 0,
	"accessors" : [
		{
			"bufferView" : 0,
			"byteOffset" : 0,
			"componentType" : 5126,
			"count" : 1953,
			"type" : "VEC3",
			"min" : [ -18.0458984375, -23.931640625, 0 ],
			"max" : [ 18.0458984375, 23.931640625, 24.326000213623047 ]
		},
		{
			"bufferView" : 1,
			"byteOffset" : 0,
			"componentType" : 5126,
			"count" : 1953,
			"type" : "VEC3",
			"min" : [ -0.9980050325393677, -0.999985933303833, -1 ],
			"max" : [ 1, 0.9998887181282043, 1 ]
		},
		{
			"bufferView" : 2,
			"byteOffset" : 0,
			"componentType" : 5126,
			"count" : 1953,
			"type" : "VEC3"
		},
		{
			"bufferView" : 3,
			"byteOffset" : 0,
			"componentType" : 5123,
			"count" : 1953,
			"type" : "SCALAR",
			"min" : [ 0 ],
			"max" : [ 1952 ]
		}
	],
	"bufferViews" : [
		{
			"buffer" : 0,
			"byteOffset" : 0,
			"byteLength" : 23436,
			"target" : 34962
		},
		{
			"buffer" : 0,
			"byteOffset" : 23436,
			"byteLength" : 23436,
			"target" : 34962
		},
		{
			"buffer" : 0,
			"byteOffset" : 46872,
			"byteLength" : 23436,
			"target" : 34962
		},
		{
			"buffer" : 0,
			"byteOffset" : 70308,
			"byteLength" : 3906,
			"target" : 34963
		}
	],
	"buffers" : [
		{
			"uri" : "B344491531001063C0.bin",
			"byteLength" : 74214
		}
	]
}
