{
	"asset" : {
		"generator" : "FME 2023.1.0.0",
		"version" : "2.0"
	},
	"materials" : [
		{
			"name" : "default_material",
			"pbrMetallicRoughness" : {
				"baseColorFactor" : [ 1, 1, 1, 1 ],
				"roughnessFactor" : 0.30000000000000004,
				"metallicFactor" : 0.5
			}
		}
	],
	"meshes" : [
		{
			"primitives" : [
				{
					"attributes" : {
						"NORMAL" : 1,
						"POSITION" : 0,
						"COLOR_0" : 2
					},
					"indices" : 3,
					"material" : 0,
					"mode" : 4
				}
			]
		}
	],
	"nodes" : [
		{
			"name" : "B342981503901063C0",
			"matrix" : [ 1, 0, 0, 0, 0, 0, -1, 0, 0, 1, 0, 0, 834296.375, 143.43699645996094, -815036, 1 ],
			"children" : [ 1 ]
		},
		{
			"mesh" : 0
		}
	],
	"scenes" : [
		{
			"nodes" : [ 0 ]
		}
	],
	"scene" : 0,
	"accessors" : [
		{
			"bufferView" : 0,
			"byteOffset" : 0,
			"componentType" : 5126,
			"count" : 3048,
			"type" : "VEC3",
			"min" : [ -13.208984375, -16.041015625, 0 ],
			"max" : [ 13.2099609375, 16.0400390625, 51.13800048828125 ]
		},
		{
			"bufferView" : 1,
			"byteOffset" : 0,
			"componentType" : 5126,
			"count" : 3048,
			"type" : "VEC3",
			"min" : [ -0.9860101342201233, -0.8711010813713074, -1 ],
			"max" : [ 0.9560409188270569, 0.9981234073638916, 1 ]
		},
		{
			"bufferView" : 2,
			"byteOffset" : 0,
			"componentType" : 5126,
			"count" : 3048,
			"type" : "VEC3"
		},
		{
			"bufferView" : 3,
			"byteOffset" : 0,
			"componentType" : 5123,
			"count" : 3048,
			"type" : "SCALAR",
			"min" : [ 0 ],
			"max" : [ 3047 ]
		}
	],
	"bufferViews" : [
		{
			"buffer" : 0,
			"byteOffset" : 0,
			"byteLength" : 36576,
			"target" : 34962
		},
		{
			"buffer" : 0,
			"byteOffset" : 36576,
			"byteLength" : 36576,
			"target" : 34962
		},
		{
			"buffer" : 0,
			"byteOffset" : 73152,
			"byteLength" : 36576,
			"target" : 34962
		},
		{
			"buffer" : 0,
			"byteOffset" : 109728,
			"byteLength" : 6096,
			"target" : 34963
		}
	],
	"buffers" : [
		{
			"uri" : "B342981503901063C0.bin",
			"byteLength" : 115824
		}
	]
}
