{
	"asset" : {
		"generator" : "FME 2022.2.4.0",
		"version" : "2.0"
	},
	"materials" : [
		{
			"name" : "default_material",
			"pbrMetallicRoughness" : {
				"baseColorFactor" : [ 1, 1, 1, 1 ],
				"roughnessFactor" : 0.30000000000000004,
				"metallicFactor" : 0.5
			}
		}
	],
	"meshes" : [
		{
			"primitives" : [
				{
					"attributes" : {
						"NORMAL" : 1,
						"POSITION" : 0,
						"COLOR_0" : 2
					},
					"indices" : 3,
					"material" : 0,
					"mode" : 4
				}
			]
		}
	],
	"nodes" : [
		{
			"name" : "B345301513301063C0",
			"matrix" : [ 1, 0, 0, 0, 0, 0, -1, 0, 0, 1, 0, 0, 834534.5, 91.95899963378906, -815125.3125, 1 ],
			"children" : [ 1 ]
		},
		{
			"mesh" : 0
		}
	],
	"scenes" : [
		{
			"nodes" : [ 0 ]
		}
	],
	"scene" : 0,
	"accessors" : [
		{
			"bufferView" : 0,
			"byteOffset" : 0,
			"componentType" : 5126,
			"count" : 3627,
			"type" : "VEC3",
			"min" : [ -19.7275390625, -16.3544921875, 0 ],
			"max" : [ 19.7275390625, 16.3544921875, 41.57000732421875 ]
		},
		{
			"bufferView" : 1,
			"byteOffset" : 0,
			"componentType" : 5126,
			"count" : 3627,
			"type" : "VEC3",
			"min" : [ -0.9678837656974792, -0.9679970145225525, -1 ],
			"max" : [ 0.970088541507721, 0.9686639308929443, 1 ]
		},
		{
			"bufferView" : 2,
			"byteOffset" : 0,
			"componentType" : 5126,
			"count" : 3627,
			"type" : "VEC3"
		},
		{
			"bufferView" : 3,
			"byteOffset" : 0,
			"componentType" : 5123,
			"count" : 3627,
			"type" : "SCALAR",
			"min" : [ 0 ],
			"max" : [ 3626 ]
		}
	],
	"bufferViews" : [
		{
			"buffer" : 0,
			"byteOffset" : 0,
			"byteLength" : 43524,
			"target" : 34962
		},
		{
			"buffer" : 0,
			"byteOffset" : 43524,
			"byteLength" : 43524,
			"target" : 34962
		},
		{
			"buffer" : 0,
			"byteOffset" : 87048,
			"byteLength" : 43524,
			"target" : 34962
		},
		{
			"buffer" : 0,
			"byteOffset" : 130572,
			"byteLength" : 7254,
			"target" : 34963
		}
	],
	"buffers" : [
		{
			"uri" : "B345301513301063C0.bin",
			"byteLength" : 137826
		}
	]
}
