{
	"asset" : {
		"generator" : "FME 2022.2.4.0",
		"version" : "2.0"
	},
	"materials" : [
		{
			"name" : "default_material",
			"pbrMetallicRoughness" : {
				"baseColorFactor" : [ 1, 1, 1, 1 ],
				"roughnessFactor" : 0.30000000000000004,
				"metallicFactor" : 0.5
			}
		}
	],
	"meshes" : [
		{
			"primitives" : [
				{
					"attributes" : {
						"NORMAL" : 1,
						"POSITION" : 0,
						"COLOR_0" : 2
					},
					"indices" : 3,
					"material" : 0,
					"mode" : 4
				}
			]
		}
	],
	"nodes" : [
		{
			"name" : "B337041633801063C0",
			"matrix" : [ 1, 0, 0, 0, 0, 0, -1, 0, 0, 1, 0, 0, 833704.6875, 19.035999298095703, -816338.75, 1 ],
			"children" : [ 1 ]
		},
		{
			"mesh" : 0
		}
	],
	"scenes" : [
		{
			"nodes" : [ 0 ]
		}
	],
	"scene" : 0,
	"accessors" : [
		{
			"bufferView" : 0,
			"byteOffset" : 0,
			"componentType" : 5126,
			"count" : 2604,
			"type" : "VEC3",
			"min" : [ -6.2568359375, -11.736328125, 0 ],
			"max" : [ 6.2568359375, 11.736328125, 71.99299621582031 ]
		},
		{
			"bufferView" : 1,
			"byteOffset" : 0,
			"componentType" : 5126,
			"count" : 2604,
			"type" : "VEC3",
			"min" : [ -1, -1, -1 ],
			"max" : [ 0.9972188472747803, 0.995701253414154, 1 ]
		},
		{
			"bufferView" : 2,
			"byteOffset" : 0,
			"componentType" : 5126,
			"count" : 2604,
			"type" : "VEC3"
		},
		{
			"bufferView" : 3,
			"byteOffset" : 0,
			"componentType" : 5123,
			"count" : 2604,
			"type" : "SCALAR",
			"min" : [ 0 ],
			"max" : [ 2603 ]
		}
	],
	"bufferViews" : [
		{
			"buffer" : 0,
			"byteOffset" : 0,
			"byteLength" : 31248,
			"target" : 34962
		},
		{
			"buffer" : 0,
			"byteOffset" : 31248,
			"byteLength" : 31248,
			"target" : 34962
		},
		{
			"buffer" : 0,
			"byteOffset" : 62496,
			"byteLength" : 31248,
			"target" : 34962
		},
		{
			"buffer" : 0,
			"byteOffset" : 93744,
			"byteLength" : 5208,
			"target" : 34963
		}
	],
	"buffers" : [
		{
			"uri" : "B337041633801063C0.bin",
			"byteLength" : 98952
		}
	]
}
