{
	"asset" : {
		"generator" : "FME 2023.2.1.0",
		"version" : "2.0"
	},
	"materials" : [
		{
			"name" : "default_material",
			"pbrMetallicRoughness" : {
				"baseColorFactor" : [ 1, 1, 1, 1 ],
				"roughnessFactor" : 0.30000000000000004,
				"metallicFactor" : 0.5
			}
		}
	],
	"meshes" : [
		{
			"primitives" : [
				{
					"attributes" : {
						"NORMAL" : 1,
						"POSITION" : 0,
						"COLOR_0" : 2
					},
					"indices" : 3,
					"material" : 0,
					"mode" : 4
				}
			]
		}
	],
	"nodes" : [
		{
			"name" : "B359051526401063C0",
			"matrix" : [ 1, 0, 0, 0, 0, 0, -1, 0, 0, 1, 0, 0, 835900.75, 15.86299991607666, -815261.25, 1 ],
			"children" : [ 1 ]
		},
		{
			"mesh" : 0
		}
	],
	"scenes" : [
		{
			"nodes" : [ 0 ]
		}
	],
	"scene" : 0,
	"accessors" : [
		{
			"bufferView" : 0,
			"byteOffset" : 0,
			"componentType" : 5126,
			"count" : 2100,
			"type" : "VEC3",
			"min" : [ -6.9287109375, -10.4365234375, 0 ],
			"max" : [ 6.9287109375, 10.435546875, 69.7229995727539 ]
		},
		{
			"bufferView" : 1,
			"byteOffset" : 0,
			"componentType" : 5126,
			"count" : 2100,
			"type" : "VEC3",
			"min" : [ -0.9949660897254944, -0.9965457916259766, -1 ],
			"max" : [ 0.9983141422271729, 0.9950372576713562, 1 ]
		},
		{
			"bufferView" : 2,
			"byteOffset" : 0,
			"componentType" : 5126,
			"count" : 2100,
			"type" : "VEC3"
		},
		{
			"bufferView" : 3,
			"byteOffset" : 0,
			"componentType" : 5123,
			"count" : 2100,
			"type" : "SCALAR",
			"min" : [ 0 ],
			"max" : [ 2099 ]
		}
	],
	"bufferViews" : [
		{
			"buffer" : 0,
			"byteOffset" : 0,
			"byteLength" : 25200,
			"target" : 34962
		},
		{
			"buffer" : 0,
			"byteOffset" : 25200,
			"byteLength" : 25200,
			"target" : 34962
		},
		{
			"buffer" : 0,
			"byteOffset" : 50400,
			"byteLength" : 25200,
			"target" : 34962
		},
		{
			"buffer" : 0,
			"byteOffset" : 75600,
			"byteLength" : 4200,
			"target" : 34963
		}
	],
	"buffers" : [
		{
			"uri" : "B359051526401063C0.bin",
			"byteLength" : 79800
		}
	]
}
