{
	"asset" : {
		"generator" : "FME 2023.2.1.0",
		"version" : "2.0"
	},
	"materials" : [
		{
			"name" : "default_material",
			"pbrMetallicRoughness" : {
				"baseColorFactor" : [ 1, 1, 1, 1 ],
				"roughnessFactor" : 0.30000000000000004,
				"metallicFactor" : 0.5
			}
		}
	],
	"meshes" : [
		{
			"primitives" : [
				{
					"attributes" : {
						"NORMAL" : 1,
						"POSITION" : 0,
						"COLOR_0" : 2
					},
					"indices" : 3,
					"material" : 0,
					"mode" : 4
				}
			]
		}
	],
	"nodes" : [
		{
			"name" : "B343921514801063C0",
			"matrix" : [ 1, 0, 0, 0, 0, 0, -1, 0, 0, 1, 0, 0, 834389.0625, 81.83300018310547, -815136.75, 1 ],
			"children" : [ 1 ]
		},
		{
			"mesh" : 0
		}
	],
	"scenes" : [
		{
			"nodes" : [ 0 ]
		}
	],
	"scene" : 0,
	"accessors" : [
		{
			"bufferView" : 0,
			"byteOffset" : 0,
			"componentType" : 5126,
			"count" : 813,
			"type" : "VEC3",
			"min" : [ -5.5849609375, -14.8173828125, 0 ],
			"max" : [ 5.5849609375, 14.8173828125, 33.7239990234375 ]
		},
		{
			"bufferView" : 1,
			"byteOffset" : 0,
			"componentType" : 5126,
			"count" : 813,
			"type" : "VEC3",
			"min" : [ -0.9960973858833313, -0.9990442991256714, -1 ],
			"max" : [ 0.9955470561981201, 0.9962406158447266, 1 ]
		},
		{
			"bufferView" : 2,
			"byteOffset" : 0,
			"componentType" : 5126,
			"count" : 813,
			"type" : "VEC3"
		},
		{
			"bufferView" : 3,
			"byteOffset" : 0,
			"componentType" : 5123,
			"count" : 813,
			"type" : "SCALAR",
			"min" : [ 0 ],
			"max" : [ 812 ]
		}
	],
	"bufferViews" : [
		{
			"buffer" : 0,
			"byteOffset" : 0,
			"byteLength" : 9756,
			"target" : 34962
		},
		{
			"buffer" : 0,
			"byteOffset" : 9756,
			"byteLength" : 9756,
			"target" : 34962
		},
		{
			"buffer" : 0,
			"byteOffset" : 19512,
			"byteLength" : 9756,
			"target" : 34962
		},
		{
			"buffer" : 0,
			"byteOffset" : 29268,
			"byteLength" : 1626,
			"target" : 34963
		}
	],
	"buffers" : [
		{
			"uri" : "B343921514801063C0.bin",
			"byteLength" : 30894
		}
	]
}
