{
	"asset" : {
		"generator" : "FME 2023.1.0.0",
		"version" : "2.0"
	},
	"materials" : [
		{
			"name" : "default_material",
			"pbrMetallicRoughness" : {
				"baseColorFactor" : [ 1, 1, 1, 1 ],
				"roughnessFactor" : 0.30000000000000004,
				"metallicFactor" : 0.5
			}
		}
	],
	"meshes" : [
		{
			"primitives" : [
				{
					"attributes" : {
						"NORMAL" : 1,
						"POSITION" : 0,
						"COLOR_0" : 2
					},
					"indices" : 3,
					"material" : 0,
					"mode" : 4
				}
			]
		}
	],
	"nodes" : [
		{
			"name" : "B338071584501063C0",
			"matrix" : [ 1, 0, 0, 0, 0, 0, -1, 0, 0, 1, 0, 0, 833806.8125, 49.74999237060547, -815844.3125, 1 ],
			"children" : [ 1 ]
		},
		{
			"mesh" : 0
		}
	],
	"scenes" : [
		{
			"nodes" : [ 0 ]
		}
	],
	"scene" : 0,
	"accessors" : [
		{
			"bufferView" : 0,
			"byteOffset" : 0,
			"componentType" : 5126,
			"count" : 1374,
			"type" : "VEC3",
			"min" : [ -5.6875, -5.5869140625, 0 ],
			"max" : [ 5.6884765625, 5.5869140625, 66.99418640136719 ]
		},
		{
			"bufferView" : 1,
			"byteOffset" : 0,
			"componentType" : 5126,
			"count" : 1374,
			"type" : "VEC3",
			"min" : [ -0.9999968409538269, -0.9997907876968384, -0.02398589625954628 ],
			"max" : [ 0.9999975562095642, 0.9998344779014587, 1 ]
		},
		{
			"bufferView" : 2,
			"byteOffset" : 0,
			"componentType" : 5126,
			"count" : 1374,
			"type" : "VEC3"
		},
		{
			"bufferView" : 3,
			"byteOffset" : 0,
			"componentType" : 5123,
			"count" : 1374,
			"type" : "SCALAR",
			"min" : [ 0 ],
			"max" : [ 1373 ]
		}
	],
	"bufferViews" : [
		{
			"buffer" : 0,
			"byteOffset" : 0,
			"byteLength" : 16488,
			"target" : 34962
		},
		{
			"buffer" : 0,
			"byteOffset" : 16488,
			"byteLength" : 16488,
			"target" : 34962
		},
		{
			"buffer" : 0,
			"byteOffset" : 32976,
			"byteLength" : 16488,
			"target" : 34962
		},
		{
			"buffer" : 0,
			"byteOffset" : 49464,
			"byteLength" : 2748,
			"target" : 34963
		}
	],
	"buffers" : [
		{
			"uri" : "B338071584501063C0.bin",
			"byteLength" : 52212
		}
	]
}
