{"asset":{"generator":"FME 2023.2.2.0","version":"2.0"},"materials":[{"name":"T17250156000106E10","pbrMetallicRoughness":{"roughnessFactor":0.984375,"metallicFactor":0.5}}],"meshes":[{"primitives":[{"attributes":{"NORMAL":1,"POSITION":0,"TEXCOORD_0":2},"indices":3,"material":0,"mode":4}]}],"nodes":[{"name":"T17250156000106E10","matrix":[1,0,0,0,0,0,-1,0,0,1,0,0,817625,46.23016357421875,-815900,1],"children":[1]},{"mesh":0}],"scenes":[{"nodes":[0]}],"scene":0,"accessors":[{"bufferView":0,"byteOffset":0,"componentType":5126,"count":232611,"type":"VEC3","min":[-375,-299.9951171875,0],"max":[375,299.9951171875,199.21316528320312]},{"bufferView":1,"byteOffset":0,"componentType":5126,"count":232611,"type":"VEC3","min":[-0.7568690180778503,-0.8275054097175598,0.5051042437553406],"max":[0.7743114233016968,0.6984878182411194,1]},{"bufferView":2,"byteOffset":0,"componentType":5126,"count":232611,"type":"VEC2","min":[0.00013000000035390258,0.00016999244689941406],"max":[0.9998700022697449,0.9998300075531006]},{"bufferView":3,"byteOffset":0,"componentType":5125,"count":232611,"type":"SCALAR","min":[0],"max":[232610]}],"bufferViews":[{"buffer":0,"byteOffset":0,"byteLength":2791332,"target":34962},{"buffer":0,"byteOffset":2791332,"byteLength":2791332,"target":34962},{"buffer":0,"byteOffset":5582664,"byteLength":1860888,"target":34962},{"buffer":0,"byteOffset":7443552,"byteLength":930444,"target":34963}],"buffers":[{"uri":"T17250156000106E10.bin","byteLength":8373996}]}