{
	"asset" : {
		"generator" : "FME 2023.1.0.0",
		"version" : "2.0"
	},
	"materials" : [
		{
			"name" : "default_material",
			"pbrMetallicRoughness" : {
				"baseColorFactor" : [ 1, 1, 1, 1 ],
				"roughnessFactor" : 0.30000000000000004,
				"metallicFactor" : 0.5
			}
		}
	],
	"meshes" : [
		{
			"primitives" : [
				{
					"attributes" : {
						"NORMAL" : 1,
						"POSITION" : 0,
						"COLOR_0" : 2
					},
					"indices" : 3,
					"material" : 0,
					"mode" : 4
				}
			]
		}
	],
	"nodes" : [
		{
			"name" : "B356831507602063C0",
			"matrix" : [ 1, 0, 0, 0, 0, 0, -1, 0, 0, 1, 0, 0, 835726.75, 5.607999801635742, -815085.0625, 1 ],
			"children" : [ 1 ]
		},
		{
			"mesh" : 0
		}
	],
	"scenes" : [
		{
			"nodes" : [ 0 ]
		}
	],
	"scene" : 0,
	"accessors" : [
		{
			"bufferView" : 0,
			"byteOffset" : 0,
			"componentType" : 5126,
			"count" : 45372,
			"type" : "VEC3",
			"min" : [ -57.25, -36.708984375, 0 ],
			"max" : [ 57.25, 36.708984375, 59.152000427246094 ]
		},
		{
			"bufferView" : 1,
			"byteOffset" : 0,
			"componentType" : 5126,
			"count" : 45372,
			"type" : "VEC3",
			"min" : [ -1, -1, -1 ],
			"max" : [ 1, 1, 1 ]
		},
		{
			"bufferView" : 2,
			"byteOffset" : 0,
			"componentType" : 5126,
			"count" : 45372,
			"type" : "VEC3"
		},
		{
			"bufferView" : 3,
			"byteOffset" : 0,
			"componentType" : 5123,
			"count" : 45372,
			"type" : "SCALAR",
			"min" : [ 0 ],
			"max" : [ 45371 ]
		}
	],
	"bufferViews" : [
		{
			"buffer" : 0,
			"byteOffset" : 0,
			"byteLength" : 544464,
			"target" : 34962
		},
		{
			"buffer" : 0,
			"byteOffset" : 544464,
			"byteLength" : 544464,
			"target" : 34962
		},
		{
			"buffer" : 0,
			"byteOffset" : 1088928,
			"byteLength" : 544464,
			"target" : 34962
		},
		{
			"buffer" : 0,
			"byteOffset" : 1633392,
			"byteLength" : 90744,
			"target" : 34963
		}
	],
	"buffers" : [
		{
			"uri" : "B356831507602063C0.bin",
			"byteLength" : 1724136
		}
	]
}
