{
	"asset" : {
		"generator" : "FME 2022.2.4.0",
		"version" : "2.0"
	},
	"materials" : [
		{
			"name" : "default_material",
			"pbrMetallicRoughness" : {
				"baseColorFactor" : [ 1, 1, 1, 1 ],
				"roughnessFactor" : 0.30000000000000004,
				"metallicFactor" : 0.5
			}
		}
	],
	"meshes" : [
		{
			"primitives" : [
				{
					"attributes" : {
						"NORMAL" : 1,
						"POSITION" : 0,
						"COLOR_0" : 2
					},
					"indices" : 3,
					"material" : 0,
					"mode" : 4
				}
			]
		}
	],
	"nodes" : [
		{
			"name" : "B338501599201063C0",
			"matrix" : [ 1, 0, 0, 0, 0, 0, -1, 0, 0, 1, 0, 0, 833854.125, 25.659000396728516, -815990.75, 1 ],
			"children" : [ 1 ]
		},
		{
			"mesh" : 0
		}
	],
	"scenes" : [
		{
			"nodes" : [ 0 ]
		}
	],
	"scene" : 0,
	"accessors" : [
		{
			"bufferView" : 0,
			"byteOffset" : 0,
			"componentType" : 5126,
			"count" : 297,
			"type" : "VEC3",
			"min" : [ -6.521484375, -6.8388671875, 0 ],
			"max" : [ 6.529296875, 6.8564453125, 18.137001037597656 ]
		},
		{
			"bufferView" : 1,
			"byteOffset" : 0,
			"componentType" : 5126,
			"count" : 297,
			"type" : "VEC3",
			"min" : [ -0.7957170605659485, -0.8007665872573853, -0.9912348985671997 ],
			"max" : [ 0.9999704360961914, 0.7766641974449158, 1 ]
		},
		{
			"bufferView" : 2,
			"byteOffset" : 0,
			"componentType" : 5126,
			"count" : 297,
			"type" : "VEC3"
		},
		{
			"bufferView" : 3,
			"byteOffset" : 0,
			"componentType" : 5123,
			"count" : 297,
			"type" : "SCALAR",
			"min" : [ 0 ],
			"max" : [ 296 ]
		}
	],
	"bufferViews" : [
		{
			"buffer" : 0,
			"byteOffset" : 0,
			"byteLength" : 3564,
			"target" : 34962
		},
		{
			"buffer" : 0,
			"byteOffset" : 3564,
			"byteLength" : 3564,
			"target" : 34962
		},
		{
			"buffer" : 0,
			"byteOffset" : 7128,
			"byteLength" : 3564,
			"target" : 34962
		},
		{
			"buffer" : 0,
			"byteOffset" : 10692,
			"byteLength" : 594,
			"target" : 34963
		}
	],
	"buffers" : [
		{
			"uri" : "B338501599201063C0.bin",
			"byteLength" : 11286
		}
	]
}
