{
	"asset" : {
		"generator" : "FME 2023.2.1.0",
		"version" : "2.0"
	},
	"images" : [
		{
			"uri" : "T29250252000106E11_001.jpg"
		}
	],
	"samplers" : [
		{
			"wrapS" : 10497,
			"wrapT" : 10497,
			"magFilter" : 9729,
			"minFilter" : 9986
		}
	],
	"textures" : [
		{
			"source" : 0,
			"sampler" : 0
		}
	],
	"materials" : [
		{
			"name" : "T29250252000106E11",
			"pbrMetallicRoughness" : {
				"baseColorTexture" : {
					"index" : 0,
					"texCoord" : 0
				},
				"roughnessFactor" : 0.984375,
				"metallicFactor" : 0.5
			}
		}
	],
	"meshes" : [
		{
			"primitives" : [
				{
					"attributes" : {
						"NORMAL" : 1,
						"POSITION" : 0,
						"TEXCOORD_0" : 2
					},
					"indices" : 3,
					"material" : 0,
					"mode" : 4
				}
			]
		}
	],
	"nodes" : [
		{
			"name" : "T29250252000106E11",
			"matrix" : [ 1, 0, 0, 0, 0, 0, -1, 0, 0, 1, 0, 0, 829625, -0.209991455078125, -825500, 1 ],
			"children" : [ 1 ]
		},
		{
			"mesh" : 0
		}
	],
	"scenes" : [
		{
			"nodes" : [ 0 ]
		}
	],
	"scene" : 0,
	"accessors" : [
		{
			"bufferView" : 0,
			"byteOffset" : 0,
			"componentType" : 5126,
			"count" : 45710,
			"type" : "VEC3",
			"min" : [ -375.021484375, -300, 0 ],
			"max" : [ 375, 300, 8.208990097045898 ]
		},
		{
			"bufferView" : 1,
			"byteOffset" : 0,
			"componentType" : 5126,
			"count" : 45710,
			"type" : "VEC3",
			"min" : [ -0.9986355304718018, -0.9924778938293457, -1 ],
			"max" : [ 0.99726402759552, 0.9829789400100708, 1 ]
		},
		{
			"bufferView" : 2,
			"byteOffset" : 0,
			"componentType" : 5126,
			"count" : 45710,
			"type" : "VEC2",
			"min" : [ 6.67572021484375e-5, 8.344650268554688e-5 ],
			"max" : [ 0.9999332427978516, 0.9999165534973145 ]
		},
		{
			"bufferView" : 3,
			"byteOffset" : 0,
			"componentType" : 5123,
			"count" : 55977,
			"type" : "SCALAR",
			"min" : [ 0 ],
			"max" : [ 45709 ]
		}
	],
	"bufferViews" : [
		{
			"buffer" : 0,
			"byteOffset" : 0,
			"byteLength" : 548520,
			"target" : 34962
		},
		{
			"buffer" : 0,
			"byteOffset" : 548520,
			"byteLength" : 548520,
			"target" : 34962
		},
		{
			"buffer" : 0,
			"byteOffset" : 1097040,
			"byteLength" : 365680,
			"target" : 34962
		},
		{
			"buffer" : 0,
			"byteOffset" : 1462720,
			"byteLength" : 111954,
			"target" : 34963
		}
	],
	"buffers" : [
		{
			"uri" : "T29250252000106E11.bin",
			"byteLength" : 1574674
		}
	]
}
