{
	"asset" : {
		"generator" : "FME 2022.2.4.0",
		"version" : "2.0"
	},
	"materials" : [
		{
			"name" : "default_material",
			"pbrMetallicRoughness" : {
				"baseColorFactor" : [ 1, 1, 1, 1 ],
				"roughnessFactor" : 0.30000000000000004,
				"metallicFactor" : 0.5
			}
		}
	],
	"meshes" : [
		{
			"primitives" : [
				{
					"attributes" : {
						"NORMAL" : 1,
						"POSITION" : 0,
						"COLOR_0" : 2
					},
					"indices" : 3,
					"material" : 0,
					"mode" : 4
				}
			]
		}
	],
	"nodes" : [
		{
			"name" : "B333661610002063C0",
			"matrix" : [ 1, 0, 0, 0, 0, 0, -1, 0, 0, 1, 0, 0, 833367.3125, 33.81300354003906, -816101.125, 1 ],
			"children" : [ 1 ]
		},
		{
			"mesh" : 0
		}
	],
	"scenes" : [
		{
			"nodes" : [ 0 ]
		}
	],
	"scene" : 0,
	"accessors" : [
		{
			"bufferView" : 0,
			"byteOffset" : 0,
			"componentType" : 5126,
			"count" : 672,
			"type" : "VEC3",
			"min" : [ -16.6201171875, -16.3046875, 0 ],
			"max" : [ 16.62109375, 16.3056640625, 22.580001831054688 ]
		},
		{
			"bufferView" : 1,
			"byteOffset" : 0,
			"componentType" : 5126,
			"count" : 672,
			"type" : "VEC3",
			"min" : [ -0.7744568586349487, -0.7739424705505371, -1 ],
			"max" : [ 0.7755054235458374, 0.7739450335502625, 1 ]
		},
		{
			"bufferView" : 2,
			"byteOffset" : 0,
			"componentType" : 5126,
			"count" : 672,
			"type" : "VEC3"
		},
		{
			"bufferView" : 3,
			"byteOffset" : 0,
			"componentType" : 5123,
			"count" : 672,
			"type" : "SCALAR",
			"min" : [ 0 ],
			"max" : [ 671 ]
		}
	],
	"bufferViews" : [
		{
			"buffer" : 0,
			"byteOffset" : 0,
			"byteLength" : 8064,
			"target" : 34962
		},
		{
			"buffer" : 0,
			"byteOffset" : 8064,
			"byteLength" : 8064,
			"target" : 34962
		},
		{
			"buffer" : 0,
			"byteOffset" : 16128,
			"byteLength" : 8064,
			"target" : 34962
		},
		{
			"buffer" : 0,
			"byteOffset" : 24192,
			"byteLength" : 1344,
			"target" : 34963
		}
	],
	"buffers" : [
		{
			"uri" : "B333661610002063C0.bin",
			"byteLength" : 25536
		}
	]
}
