{
	"asset" : {
		"generator" : "FME 2022.2.4.0",
		"version" : "2.0"
	},
	"materials" : [
		{
			"name" : "default_material",
			"pbrMetallicRoughness" : {
				"baseColorFactor" : [ 1, 1, 1, 1 ],
				"roughnessFactor" : 0.30000000000000004,
				"metallicFactor" : 0.5
			}
		}
	],
	"meshes" : [
		{
			"primitives" : [
				{
					"attributes" : {
						"NORMAL" : 1,
						"POSITION" : 0,
						"COLOR_0" : 2
					},
					"indices" : 3,
					"material" : 0,
					"mode" : 4
				}
			]
		}
	],
	"nodes" : [
		{
			"name" : "B336211614702063C0",
			"matrix" : [ 1, 0, 0, 0, 0, 0, -1, 0, 0, 1, 0, 0, 833618.9375, 5.417998313903809, -816149.25, 1 ],
			"children" : [ 1 ]
		},
		{
			"mesh" : 0
		}
	],
	"scenes" : [
		{
			"nodes" : [ 0 ]
		}
	],
	"scene" : 0,
	"accessors" : [
		{
			"bufferView" : 0,
			"byteOffset" : 0,
			"componentType" : 5126,
			"count" : 8004,
			"type" : "VEC3",
			"min" : [ -49.576171875, -29.1083984375, 0 ],
			"max" : [ 49.576171875, 29.1083984375, 33.63099670410156 ]
		},
		{
			"bufferView" : 1,
			"byteOffset" : 0,
			"componentType" : 5126,
			"count" : 8004,
			"type" : "VEC3",
			"min" : [ -1, -1, -1 ],
			"max" : [ 1, 1, 1 ]
		},
		{
			"bufferView" : 2,
			"byteOffset" : 0,
			"componentType" : 5126,
			"count" : 8004,
			"type" : "VEC3"
		},
		{
			"bufferView" : 3,
			"byteOffset" : 0,
			"componentType" : 5123,
			"count" : 8004,
			"type" : "SCALAR",
			"min" : [ 0 ],
			"max" : [ 8003 ]
		}
	],
	"bufferViews" : [
		{
			"buffer" : 0,
			"byteOffset" : 0,
			"byteLength" : 96048,
			"target" : 34962
		},
		{
			"buffer" : 0,
			"byteOffset" : 96048,
			"byteLength" : 96048,
			"target" : 34962
		},
		{
			"buffer" : 0,
			"byteOffset" : 192096,
			"byteLength" : 96048,
			"target" : 34962
		},
		{
			"buffer" : 0,
			"byteOffset" : 288144,
			"byteLength" : 16008,
			"target" : 34963
		}
	],
	"buffers" : [
		{
			"uri" : "B336211614702063C0.bin",
			"byteLength" : 304152
		}
	]
}
