{
	"asset" : {
		"generator" : "FME 2022.2.4.0",
		"version" : "2.0"
	},
	"materials" : [
		{
			"name" : "default_material",
			"pbrMetallicRoughness" : {
				"baseColorFactor" : [ 1, 1, 1, 1 ],
				"roughnessFactor" : 0.30000000000000004,
				"metallicFactor" : 0.5
			}
		}
	],
	"meshes" : [
		{
			"primitives" : [
				{
					"attributes" : {
						"NORMAL" : 1,
						"POSITION" : 0,
						"COLOR_0" : 2
					},
					"indices" : 3,
					"material" : 0,
					"mode" : 4
				}
			]
		}
	],
	"nodes" : [
		{
			"name" : "B339911588701063C0",
			"matrix" : [ 1, 0, 0, 0, 0, 0, -1, 0, 0, 1, 0, 0, 833991.1875, 28.968000411987305, -815886.75, 1 ],
			"children" : [ 1 ]
		},
		{
			"mesh" : 0
		}
	],
	"scenes" : [
		{
			"nodes" : [ 0 ]
		}
	],
	"scene" : 0,
	"accessors" : [
		{
			"bufferView" : 0,
			"byteOffset" : 0,
			"componentType" : 5126,
			"count" : 798,
			"type" : "VEC3",
			"min" : [ -8.853515625, -8.7294921875, 0 ],
			"max" : [ 8.853515625, 8.73046875, 76.23699951171875 ]
		},
		{
			"bufferView" : 1,
			"byteOffset" : 0,
			"componentType" : 5126,
			"count" : 798,
			"type" : "VEC3",
			"min" : [ -0.7182353138923645, -0.7287321090698242, -0.0018675727769732475 ],
			"max" : [ 0.7256237864494324, 0.7358694076538086, 1 ]
		},
		{
			"bufferView" : 2,
			"byteOffset" : 0,
			"componentType" : 5126,
			"count" : 798,
			"type" : "VEC3"
		},
		{
			"bufferView" : 3,
			"byteOffset" : 0,
			"componentType" : 5123,
			"count" : 798,
			"type" : "SCALAR",
			"min" : [ 0 ],
			"max" : [ 797 ]
		}
	],
	"bufferViews" : [
		{
			"buffer" : 0,
			"byteOffset" : 0,
			"byteLength" : 9576,
			"target" : 34962
		},
		{
			"buffer" : 0,
			"byteOffset" : 9576,
			"byteLength" : 9576,
			"target" : 34962
		},
		{
			"buffer" : 0,
			"byteOffset" : 19152,
			"byteLength" : 9576,
			"target" : 34962
		},
		{
			"buffer" : 0,
			"byteOffset" : 28728,
			"byteLength" : 1596,
			"target" : 34963
		}
	],
	"buffers" : [
		{
			"uri" : "B339911588701063C0.bin",
			"byteLength" : 30324
		}
	]
}
