{
	"asset" : {
		"generator" : "FME 2023.1.0.0",
		"version" : "2.0"
	},
	"materials" : [
		{
			"name" : "default_material",
			"pbrMetallicRoughness" : {
				"baseColorFactor" : [ 1, 1, 1, 1 ],
				"roughnessFactor" : 0.30000000000000004,
				"metallicFactor" : 0.5
			}
		}
	],
	"meshes" : [
		{
			"primitives" : [
				{
					"attributes" : {
						"NORMAL" : 1,
						"POSITION" : 0,
						"COLOR_0" : 2
					},
					"indices" : 3,
					"material" : 0,
					"mode" : 4
				}
			]
		}
	],
	"nodes" : [
		{
			"name" : "B335041633101063C0",
			"matrix" : [ 1, 0, 0, 0, 0, 0, -1, 0, 0, 1, 0, 0, 833504.9375, 4.797999858856201, -816328.9375, 1 ],
			"children" : [ 1 ]
		},
		{
			"mesh" : 0
		}
	],
	"scenes" : [
		{
			"nodes" : [ 0 ]
		}
	],
	"scene" : 0,
	"accessors" : [
		{
			"bufferView" : 0,
			"byteOffset" : 0,
			"componentType" : 5126,
			"count" : 339,
			"type" : "VEC3",
			"min" : [ -5.3984375, -6.068359375, 0 ],
			"max" : [ 5.3994140625, 6.068359375, 22.281002044677734 ]
		},
		{
			"bufferView" : 1,
			"byteOffset" : 0,
			"componentType" : 5126,
			"count" : 339,
			"type" : "VEC3",
			"min" : [ -0.8815374374389648, -0.8215871453285217, -1 ],
			"max" : [ 0.8173344731330872, 0.9830628037452698, 1 ]
		},
		{
			"bufferView" : 2,
			"byteOffset" : 0,
			"componentType" : 5126,
			"count" : 339,
			"type" : "VEC3"
		},
		{
			"bufferView" : 3,
			"byteOffset" : 0,
			"componentType" : 5123,
			"count" : 339,
			"type" : "SCALAR",
			"min" : [ 0 ],
			"max" : [ 338 ]
		}
	],
	"bufferViews" : [
		{
			"buffer" : 0,
			"byteOffset" : 0,
			"byteLength" : 4068,
			"target" : 34962
		},
		{
			"buffer" : 0,
			"byteOffset" : 4068,
			"byteLength" : 4068,
			"target" : 34962
		},
		{
			"buffer" : 0,
			"byteOffset" : 8136,
			"byteLength" : 4068,
			"target" : 34962
		},
		{
			"buffer" : 0,
			"byteOffset" : 12204,
			"byteLength" : 678,
			"target" : 34963
		}
	],
	"buffers" : [
		{
			"uri" : "B335041633101063C0.bin",
			"byteLength" : 12882
		}
	]
}
