{
	"asset" : {
		"generator" : "FME 2023.1.0.0",
		"version" : "2.0"
	},
	"materials" : [
		{
			"name" : "default_material",
			"pbrMetallicRoughness" : {
				"baseColorFactor" : [ 1, 1, 1, 1 ],
				"roughnessFactor" : 0.30000000000000004,
				"metallicFactor" : 0.5
			}
		}
	],
	"meshes" : [
		{
			"primitives" : [
				{
					"attributes" : {
						"NORMAL" : 1,
						"POSITION" : 0,
						"COLOR_0" : 2
					},
					"indices" : 3,
					"material" : 0,
					"mode" : 4
				}
			]
		}
	],
	"nodes" : [
		{
			"name" : "B340281621201063C0",
			"matrix" : [ 1, 0, 0, 0, 0, 0, -1, 0, 0, 1, 0, 0, 834028.3125, 1.0900038480758667, -816210.4375, 1 ],
			"children" : [ 1 ]
		},
		{
			"mesh" : 0
		}
	],
	"scenes" : [
		{
			"nodes" : [ 0 ]
		}
	],
	"scene" : 0,
	"accessors" : [
		{
			"bufferView" : 0,
			"byteOffset" : 0,
			"componentType" : 5126,
			"count" : 378,
			"type" : "VEC3",
			"min" : [ -5.9599609375, -5.75390625, 0 ],
			"max" : [ 5.9609375, 5.75390625, 24.034000396728516 ]
		},
		{
			"bufferView" : 1,
			"byteOffset" : 0,
			"componentType" : 5126,
			"count" : 378,
			"type" : "VEC3",
			"min" : [ -0.8444826602935791, -0.8561118841171265, -1 ],
			"max" : [ 0.8441259860992432, 0.8562986850738525, 1 ]
		},
		{
			"bufferView" : 2,
			"byteOffset" : 0,
			"componentType" : 5126,
			"count" : 378,
			"type" : "VEC3"
		},
		{
			"bufferView" : 3,
			"byteOffset" : 0,
			"componentType" : 5123,
			"count" : 378,
			"type" : "SCALAR",
			"min" : [ 0 ],
			"max" : [ 377 ]
		}
	],
	"bufferViews" : [
		{
			"buffer" : 0,
			"byteOffset" : 0,
			"byteLength" : 4536,
			"target" : 34962
		},
		{
			"buffer" : 0,
			"byteOffset" : 4536,
			"byteLength" : 4536,
			"target" : 34962
		},
		{
			"buffer" : 0,
			"byteOffset" : 9072,
			"byteLength" : 4536,
			"target" : 34962
		},
		{
			"buffer" : 0,
			"byteOffset" : 13608,
			"byteLength" : 756,
			"target" : 34963
		}
	],
	"buffers" : [
		{
			"uri" : "B340281621201063C0.bin",
			"byteLength" : 14364
		}
	]
}
