{
	"asset" : {
		"generator" : "FME 2023.1.0.0",
		"version" : "2.0"
	},
	"materials" : [
		{
			"name" : "default_material",
			"pbrMetallicRoughness" : {
				"baseColorFactor" : [ 1, 1, 1, 1 ],
				"roughnessFactor" : 0.30000000000000004,
				"metallicFactor" : 0.5
			}
		}
	],
	"meshes" : [
		{
			"primitives" : [
				{
					"attributes" : {
						"NORMAL" : 1,
						"POSITION" : 0,
						"COLOR_0" : 2
					},
					"indices" : 3,
					"material" : 0,
					"mode" : 4
				}
			]
		}
	],
	"nodes" : [
		{
			"name" : "B333281626801063C0",
			"matrix" : [ 1, 0, 0, 0, 0, 0, -1, 0, 0, 1, 0, 0, 833332.5, 16.486000061035156, -816259.875, 1 ],
			"children" : [ 1 ]
		},
		{
			"mesh" : 0
		}
	],
	"scenes" : [
		{
			"nodes" : [ 0 ]
		}
	],
	"scene" : 0,
	"accessors" : [
		{
			"bufferView" : 0,
			"byteOffset" : 0,
			"componentType" : 5126,
			"count" : 3171,
			"type" : "VEC3",
			"min" : [ -19.306640625, -13.478515625, 0 ],
			"max" : [ 19.236328125, 13.5322265625, 28.176998138427734 ]
		},
		{
			"bufferView" : 1,
			"byteOffset" : 0,
			"componentType" : 5126,
			"count" : 3171,
			"type" : "VEC3",
			"min" : [ -1, -1, -1 ],
			"max" : [ 0.9993240237236023, 0.9999526143074036, 1 ]
		},
		{
			"bufferView" : 2,
			"byteOffset" : 0,
			"componentType" : 5126,
			"count" : 3171,
			"type" : "VEC3"
		},
		{
			"bufferView" : 3,
			"byteOffset" : 0,
			"componentType" : 5123,
			"count" : 3171,
			"type" : "SCALAR",
			"min" : [ 0 ],
			"max" : [ 3170 ]
		}
	],
	"bufferViews" : [
		{
			"buffer" : 0,
			"byteOffset" : 0,
			"byteLength" : 38052,
			"target" : 34962
		},
		{
			"buffer" : 0,
			"byteOffset" : 38052,
			"byteLength" : 38052,
			"target" : 34962
		},
		{
			"buffer" : 0,
			"byteOffset" : 76104,
			"byteLength" : 38052,
			"target" : 34962
		},
		{
			"buffer" : 0,
			"byteOffset" : 114156,
			"byteLength" : 6342,
			"target" : 34963
		}
	],
	"buffers" : [
		{
			"uri" : "B333281626801063C0.bin",
			"byteLength" : 120498
		}
	]
}
