{
	"asset" : {
		"generator" : "FME 2023.2.1.0",
		"version" : "2.0"
	},
	"materials" : [
		{
			"name" : "default_material",
			"pbrMetallicRoughness" : {
				"baseColorFactor" : [ 1, 1, 1, 1 ],
				"roughnessFactor" : 0.30000000000000004,
				"metallicFactor" : 0.5
			}
		}
	],
	"meshes" : [
		{
			"primitives" : [
				{
					"attributes" : {
						"NORMAL" : 1,
						"POSITION" : 0,
						"COLOR_0" : 2
					},
					"indices" : 3,
					"material" : 0,
					"mode" : 4
				}
			]
		}
	],
	"nodes" : [
		{
			"name" : "B346811583602063C0",
			"matrix" : [ 1, 0, 0, 0, 0, 0, -1, 0, 0, 1, 0, 0, 834680.8125, 4.330994129180908, -815836.625, 1 ],
			"children" : [ 1 ]
		},
		{
			"mesh" : 0
		}
	],
	"scenes" : [
		{
			"nodes" : [ 0 ]
		}
	],
	"scene" : 0,
	"accessors" : [
		{
			"bufferView" : 0,
			"byteOffset" : 0,
			"componentType" : 5126,
			"count" : 255,
			"type" : "VEC3",
			"min" : [ -18.25390625, -24.9775390625, 0 ],
			"max" : [ 18.25390625, 24.9775390625, 42.08599853515625 ]
		},
		{
			"bufferView" : 1,
			"byteOffset" : 0,
			"componentType" : 5126,
			"count" : 255,
			"type" : "VEC3",
			"min" : [ -0.9636950492858887, -0.9630098938941956, -1 ],
			"max" : [ 0.9629195928573608, 0.9626156091690063, 1 ]
		},
		{
			"bufferView" : 2,
			"byteOffset" : 0,
			"componentType" : 5126,
			"count" : 255,
			"type" : "VEC3"
		},
		{
			"bufferView" : 3,
			"byteOffset" : 0,
			"componentType" : 5121,
			"count" : 255,
			"type" : "SCALAR",
			"min" : [ 0 ],
			"max" : [ 254 ]
		}
	],
	"bufferViews" : [
		{
			"buffer" : 0,
			"byteOffset" : 0,
			"byteLength" : 3060,
			"target" : 34962
		},
		{
			"buffer" : 0,
			"byteOffset" : 3060,
			"byteLength" : 3060,
			"target" : 34962
		},
		{
			"buffer" : 0,
			"byteOffset" : 6120,
			"byteLength" : 3060,
			"target" : 34962
		},
		{
			"buffer" : 0,
			"byteOffset" : 9180,
			"byteLength" : 255,
			"target" : 34963
		}
	],
	"buffers" : [
		{
			"uri" : "B346811583602063C0.bin",
			"byteLength" : 9435
		}
	]
}
