{
	"asset" : {
		"generator" : "FME 2023.2.1.0",
		"version" : "2.0"
	},
	"materials" : [
		{
			"name" : "default_material",
			"pbrMetallicRoughness" : {
				"baseColorFactor" : [ 1, 1, 1, 1 ],
				"roughnessFactor" : 0.30000000000000004,
				"metallicFactor" : 0.5
			}
		}
	],
	"meshes" : [
		{
			"primitives" : [
				{
					"attributes" : {
						"NORMAL" : 1,
						"POSITION" : 0,
						"COLOR_0" : 2
					},
					"indices" : 3,
					"material" : 0,
					"mode" : 4
				}
			]
		}
	],
	"nodes" : [
		{
			"name" : "B330391612101063C0",
			"matrix" : [ 1, 0, 0, 0, 0, 0, -1, 0, 0, 1, 0, 0, 833041, 110.53600311279297, -816121, 1 ],
			"children" : [ 1 ]
		},
		{
			"mesh" : 0
		}
	],
	"scenes" : [
		{
			"nodes" : [ 0 ]
		}
	],
	"scene" : 0,
	"accessors" : [
		{
			"bufferView" : 0,
			"byteOffset" : 0,
			"componentType" : 5126,
			"count" : 4347,
			"type" : "VEC3",
			"min" : [ -13.39599609375, -15.5478515625, 0 ],
			"max" : [ 13.39599609375, 15.5478515625, 129.343994140625 ]
		},
		{
			"bufferView" : 1,
			"byteOffset" : 0,
			"componentType" : 5126,
			"count" : 4347,
			"type" : "VEC3",
			"min" : [ -0.998351514339447, -0.9923755526542664, -1 ],
			"max" : [ 0.9910430908203125, 0.9983345866203308, 1 ]
		},
		{
			"bufferView" : 2,
			"byteOffset" : 0,
			"componentType" : 5126,
			"count" : 4347,
			"type" : "VEC3"
		},
		{
			"bufferView" : 3,
			"byteOffset" : 0,
			"componentType" : 5123,
			"count" : 4347,
			"type" : "SCALAR",
			"min" : [ 0 ],
			"max" : [ 4346 ]
		}
	],
	"bufferViews" : [
		{
			"buffer" : 0,
			"byteOffset" : 0,
			"byteLength" : 52164,
			"target" : 34962
		},
		{
			"buffer" : 0,
			"byteOffset" : 52164,
			"byteLength" : 52164,
			"target" : 34962
		},
		{
			"buffer" : 0,
			"byteOffset" : 104328,
			"byteLength" : 52164,
			"target" : 34962
		},
		{
			"buffer" : 0,
			"byteOffset" : 156492,
			"byteLength" : 8694,
			"target" : 34963
		}
	],
	"buffers" : [
		{
			"uri" : "B330391612101063C0.bin",
			"byteLength" : 165186
		}
	]
}
