{
	"asset" : {
		"generator" : "FME 2023.1.0.0",
		"version" : "2.0"
	},
	"materials" : [
		{
			"name" : "default_material",
			"pbrMetallicRoughness" : {
				"baseColorFactor" : [ 1, 1, 1, 1 ],
				"roughnessFactor" : 0.30000000000000004,
				"metallicFactor" : 0.5
			}
		}
	],
	"meshes" : [
		{
			"primitives" : [
				{
					"attributes" : {
						"NORMAL" : 1,
						"POSITION" : 0,
						"COLOR_0" : 2
					},
					"indices" : 3,
					"material" : 0,
					"mode" : 4
				}
			]
		}
	],
	"nodes" : [
		{
			"name" : "B359081550701063C0",
			"matrix" : [ 1, 0, 0, 0, 0, 0, -1, 0, 0, 1, 0, 0, 835909.4375, 17.83300018310547, -815503.375, 1 ],
			"children" : [ 1 ]
		},
		{
			"mesh" : 0
		}
	],
	"scenes" : [
		{
			"nodes" : [ 0 ]
		}
	],
	"scene" : 0,
	"accessors" : [
		{
			"bufferView" : 0,
			"byteOffset" : 0,
			"componentType" : 5126,
			"count" : 5046,
			"type" : "VEC3",
			"min" : [ -9.16015625, -5.2119140625, 0 ],
			"max" : [ 9.1611328125, 5.2119140625, 63.65299987792969 ]
		},
		{
			"bufferView" : 1,
			"byteOffset" : 0,
			"componentType" : 5126,
			"count" : 5046,
			"type" : "VEC3",
			"min" : [ -0.9944170117378235, -0.9935199022293091, -1 ],
			"max" : [ 0.9939764738082886, 0.9940100312232971, 1 ]
		},
		{
			"bufferView" : 2,
			"byteOffset" : 0,
			"componentType" : 5126,
			"count" : 5046,
			"type" : "VEC3"
		},
		{
			"bufferView" : 3,
			"byteOffset" : 0,
			"componentType" : 5123,
			"count" : 5046,
			"type" : "SCALAR",
			"min" : [ 0 ],
			"max" : [ 5045 ]
		}
	],
	"bufferViews" : [
		{
			"buffer" : 0,
			"byteOffset" : 0,
			"byteLength" : 60552,
			"target" : 34962
		},
		{
			"buffer" : 0,
			"byteOffset" : 60552,
			"byteLength" : 60552,
			"target" : 34962
		},
		{
			"buffer" : 0,
			"byteOffset" : 121104,
			"byteLength" : 60552,
			"target" : 34962
		},
		{
			"buffer" : 0,
			"byteOffset" : 181656,
			"byteLength" : 10092,
			"target" : 34963
		}
	],
	"buffers" : [
		{
			"uri" : "B359081550701063C0.bin",
			"byteLength" : 191748
		}
	]
}
