{
	"asset" : {
		"generator" : "FME 2023.1.0.0",
		"version" : "2.0"
	},
	"materials" : [
		{
			"name" : "default_material",
			"pbrMetallicRoughness" : {
				"baseColorFactor" : [ 1, 1, 1, 1 ],
				"roughnessFactor" : 0.30000000000000004,
				"metallicFactor" : 0.5
			}
		}
	],
	"meshes" : [
		{
			"primitives" : [
				{
					"attributes" : {
						"NORMAL" : 1,
						"POSITION" : 0,
						"COLOR_0" : 2
					},
					"indices" : 3,
					"material" : 0,
					"mode" : 4
				}
			]
		}
	],
	"nodes" : [
		{
			"name" : "B337241503102063C0",
			"matrix" : [ 1, 0, 0, 0, 0, 0, -1, 0, 0, 1, 0, 0, 833728.8125, 177.97198486328125, -815031.125, 1 ],
			"children" : [ 1 ]
		},
		{
			"mesh" : 0
		}
	],
	"scenes" : [
		{
			"nodes" : [ 0 ]
		}
	],
	"scene" : 0,
	"accessors" : [
		{
			"bufferView" : 0,
			"byteOffset" : 0,
			"componentType" : 5126,
			"count" : 5709,
			"type" : "VEC3",
			"min" : [ -26.998046875, -48.5341796875, 0 ],
			"max" : [ 26.9970703125, 48.5341796875, 23.800003051757812 ]
		},
		{
			"bufferView" : 1,
			"byteOffset" : 0,
			"componentType" : 5126,
			"count" : 5709,
			"type" : "VEC3",
			"min" : [ -0.9999938607215881, -0.9998932480812073, -1 ],
			"max" : [ 0.9999589920043945, 0.9999040365219116, 1 ]
		},
		{
			"bufferView" : 2,
			"byteOffset" : 0,
			"componentType" : 5126,
			"count" : 5709,
			"type" : "VEC3"
		},
		{
			"bufferView" : 3,
			"byteOffset" : 0,
			"componentType" : 5123,
			"count" : 5709,
			"type" : "SCALAR",
			"min" : [ 0 ],
			"max" : [ 5708 ]
		}
	],
	"bufferViews" : [
		{
			"buffer" : 0,
			"byteOffset" : 0,
			"byteLength" : 68508,
			"target" : 34962
		},
		{
			"buffer" : 0,
			"byteOffset" : 68508,
			"byteLength" : 68508,
			"target" : 34962
		},
		{
			"buffer" : 0,
			"byteOffset" : 137016,
			"byteLength" : 68508,
			"target" : 34962
		},
		{
			"buffer" : 0,
			"byteOffset" : 205524,
			"byteLength" : 11418,
			"target" : 34963
		}
	],
	"buffers" : [
		{
			"uri" : "B337241503102063C0.bin",
			"byteLength" : 216942
		}
	]
}
