{
	"asset" : {
		"generator" : "FME 2023.2.1.0",
		"version" : "2.0"
	},
	"materials" : [
		{
			"name" : "default_material",
			"pbrMetallicRoughness" : {
				"baseColorFactor" : [ 1, 1, 1, 1 ],
				"roughnessFactor" : 0.30000000000000004,
				"metallicFactor" : 0.5
			}
		}
	],
	"meshes" : [
		{
			"primitives" : [
				{
					"attributes" : {
						"NORMAL" : 1,
						"POSITION" : 0,
						"COLOR_0" : 2
					},
					"indices" : 3,
					"material" : 0,
					"mode" : 4
				}
			]
		}
	],
	"nodes" : [
		{
			"name" : "B169101445501062G0",
			"matrix" : [ 1, 0, 0, 0, 0, 0, -1, 0, 0, 1, 0, 0, 816909.125, 16.854299545288086, -814453.4375, 1 ],
			"children" : [ 1 ]
		},
		{
			"mesh" : 0
		}
	],
	"scenes" : [
		{
			"nodes" : [ 0 ]
		}
	],
	"scene" : 0,
	"accessors" : [
		{
			"bufferView" : 0,
			"byteOffset" : 0,
			"componentType" : 5126,
			"count" : 510,
			"type" : "VEC3",
			"min" : [ -5.3125, -5.25, 0 ],
			"max" : [ 5.25, 5.25, 4.118200302124023 ]
		},
		{
			"bufferView" : 1,
			"byteOffset" : 0,
			"componentType" : 5126,
			"count" : 510,
			"type" : "VEC3",
			"min" : [ -1, -0.9899540543556213, -0.9972640872001648 ],
			"max" : [ 1, 0.9965487122535706, 1 ]
		},
		{
			"bufferView" : 2,
			"byteOffset" : 0,
			"componentType" : 5126,
			"count" : 510,
			"type" : "VEC3"
		},
		{
			"bufferView" : 3,
			"byteOffset" : 0,
			"componentType" : 5123,
			"count" : 510,
			"type" : "SCALAR",
			"min" : [ 0 ],
			"max" : [ 509 ]
		}
	],
	"bufferViews" : [
		{
			"buffer" : 0,
			"byteOffset" : 0,
			"byteLength" : 6120,
			"target" : 34962
		},
		{
			"buffer" : 0,
			"byteOffset" : 6120,
			"byteLength" : 6120,
			"target" : 34962
		},
		{
			"buffer" : 0,
			"byteOffset" : 12240,
			"byteLength" : 6120,
			"target" : 34962
		},
		{
			"buffer" : 0,
			"byteOffset" : 18360,
			"byteLength" : 1020,
			"target" : 34963
		}
	],
	"buffers" : [
		{
			"uri" : "B169101445501062G0.bin",
			"byteLength" : 19380
		}
	]
}
