{
	"asset" : {
		"generator" : "FME 2023.1.0.0",
		"version" : "2.0"
	},
	"materials" : [
		{
			"name" : "default_material",
			"pbrMetallicRoughness" : {
				"baseColorFactor" : [ 1, 1, 1, 1 ],
				"roughnessFactor" : 0.30000000000000004,
				"metallicFactor" : 0.5
			}
		}
	],
	"meshes" : [
		{
			"primitives" : [
				{
					"attributes" : {
						"NORMAL" : 1,
						"POSITION" : 0,
						"COLOR_0" : 2
					},
					"indices" : 3,
					"material" : 0,
					"mode" : 4
				}
			]
		}
	],
	"nodes" : [
		{
			"name" : "B345671504302063C0",
			"matrix" : [ 1, 0, 0, 0, 0, 0, -1, 0, 0, 1, 0, 0, 834579.9375, 119.6760025024414, -815035, 1 ],
			"children" : [ 1 ]
		},
		{
			"mesh" : 0
		}
	],
	"scenes" : [
		{
			"nodes" : [ 0 ]
		}
	],
	"scene" : 0,
	"accessors" : [
		{
			"bufferView" : 0,
			"byteOffset" : 0,
			"componentType" : 5126,
			"count" : 2847,
			"type" : "VEC3",
			"min" : [ -23.1298828125, -16.34375, 0 ],
			"max" : [ 23.12890625, 16.34375, 42.402000427246094 ]
		},
		{
			"bufferView" : 1,
			"byteOffset" : 0,
			"componentType" : 5126,
			"count" : 2847,
			"type" : "VEC3",
			"min" : [ -0.996748149394989, -0.9998064637184143, -1 ],
			"max" : [ 0.9962024092674255, 0.9998067617416382, 1 ]
		},
		{
			"bufferView" : 2,
			"byteOffset" : 0,
			"componentType" : 5126,
			"count" : 2847,
			"type" : "VEC3"
		},
		{
			"bufferView" : 3,
			"byteOffset" : 0,
			"componentType" : 5123,
			"count" : 2847,
			"type" : "SCALAR",
			"min" : [ 0 ],
			"max" : [ 2846 ]
		}
	],
	"bufferViews" : [
		{
			"buffer" : 0,
			"byteOffset" : 0,
			"byteLength" : 34164,
			"target" : 34962
		},
		{
			"buffer" : 0,
			"byteOffset" : 34164,
			"byteLength" : 34164,
			"target" : 34962
		},
		{
			"buffer" : 0,
			"byteOffset" : 68328,
			"byteLength" : 34164,
			"target" : 34962
		},
		{
			"buffer" : 0,
			"byteOffset" : 102492,
			"byteLength" : 5694,
			"target" : 34963
		}
	],
	"buffers" : [
		{
			"uri" : "B345671504302063C0.bin",
			"byteLength" : 108186
		}
	]
}
