{
	"asset" : {
		"generator" : "FME 2023.2.1.0",
		"version" : "2.0"
	},
	"materials" : [
		{
			"name" : "default_material",
			"pbrMetallicRoughness" : {
				"baseColorFactor" : [ 1, 1, 1, 1 ],
				"roughnessFactor" : 0.30000000000000004,
				"metallicFactor" : 0.5
			}
		}
	],
	"meshes" : [
		{
			"primitives" : [
				{
					"attributes" : {
						"NORMAL" : 1,
						"POSITION" : 0,
						"COLOR_0" : 2
					},
					"indices" : 3,
					"material" : 0,
					"mode" : 4
				}
			]
		}
	],
	"nodes" : [
		{
			"name" : "B336621647801063C0",
			"matrix" : [ 1, 0, 0, 0, 0, 0, -1, 0, 0, 1, 0, 0, 833662.25, 3.752000093460083, -816472.375, 1 ],
			"children" : [ 1 ]
		},
		{
			"mesh" : 0
		}
	],
	"scenes" : [
		{
			"nodes" : [ 0 ]
		}
	],
	"scene" : 0,
	"accessors" : [
		{
			"bufferView" : 0,
			"byteOffset" : 0,
			"componentType" : 5126,
			"count" : 1623,
			"type" : "VEC3",
			"min" : [ -10.6416015625, -10.9541015625, 0 ],
			"max" : [ 10.6416015625, 10.955078125, 116.08900451660156 ]
		},
		{
			"bufferView" : 1,
			"byteOffset" : 0,
			"componentType" : 5126,
			"count" : 1623,
			"type" : "VEC3",
			"min" : [ -0.9735034108161926, -0.9670745730400085, -1 ],
			"max" : [ 0.9734935164451599, 0.9989012479782104, 1 ]
		},
		{
			"bufferView" : 2,
			"byteOffset" : 0,
			"componentType" : 5126,
			"count" : 1623,
			"type" : "VEC3"
		},
		{
			"bufferView" : 3,
			"byteOffset" : 0,
			"componentType" : 5123,
			"count" : 1623,
			"type" : "SCALAR",
			"min" : [ 0 ],
			"max" : [ 1622 ]
		}
	],
	"bufferViews" : [
		{
			"buffer" : 0,
			"byteOffset" : 0,
			"byteLength" : 19476,
			"target" : 34962
		},
		{
			"buffer" : 0,
			"byteOffset" : 19476,
			"byteLength" : 19476,
			"target" : 34962
		},
		{
			"buffer" : 0,
			"byteOffset" : 38952,
			"byteLength" : 19476,
			"target" : 34962
		},
		{
			"buffer" : 0,
			"byteOffset" : 58428,
			"byteLength" : 3246,
			"target" : 34963
		}
	],
	"buffers" : [
		{
			"uri" : "B336621647801063C0.bin",
			"byteLength" : 61674
		}
	]
}
