{
	"asset" : {
		"generator" : "FME 2022.2.4.0",
		"version" : "2.0"
	},
	"materials" : [
		{
			"name" : "default_material",
			"pbrMetallicRoughness" : {
				"baseColorFactor" : [ 1, 1, 1, 1 ],
				"roughnessFactor" : 0.30000000000000004,
				"metallicFactor" : 0.5
			}
		}
	],
	"meshes" : [
		{
			"primitives" : [
				{
					"attributes" : {
						"NORMAL" : 1,
						"POSITION" : 0,
						"COLOR_0" : 2
					},
					"indices" : 3,
					"material" : 0,
					"mode" : 4
				}
			]
		}
	],
	"nodes" : [
		{
			"name" : "B347311500701063C0",
			"matrix" : [ 1, 0, 0, 0, 0, 0, -1, 0, 0, 1, 0, 0, 834732.5, 134.0659942626953, -815006, 1 ],
			"children" : [ 1 ]
		},
		{
			"mesh" : 0
		}
	],
	"scenes" : [
		{
			"nodes" : [ 0 ]
		}
	],
	"scene" : 0,
	"accessors" : [
		{
			"bufferView" : 0,
			"byteOffset" : 0,
			"componentType" : 5126,
			"count" : 660,
			"type" : "VEC3",
			"min" : [ -6.3828125, -3.67578125, 0 ],
			"max" : [ 6.3818359375, 3.6767578125, 69.52900695800781 ]
		},
		{
			"bufferView" : 1,
			"byteOffset" : 0,
			"componentType" : 5126,
			"count" : 660,
			"type" : "VEC3",
			"min" : [ -0.9523435831069946, -0.9523394703865051, -1 ],
			"max" : [ 0.952389121055603, 0.9523503184318542, 1 ]
		},
		{
			"bufferView" : 2,
			"byteOffset" : 0,
			"componentType" : 5126,
			"count" : 660,
			"type" : "VEC3"
		},
		{
			"bufferView" : 3,
			"byteOffset" : 0,
			"componentType" : 5123,
			"count" : 660,
			"type" : "SCALAR",
			"min" : [ 0 ],
			"max" : [ 659 ]
		}
	],
	"bufferViews" : [
		{
			"buffer" : 0,
			"byteOffset" : 0,
			"byteLength" : 7920,
			"target" : 34962
		},
		{
			"buffer" : 0,
			"byteOffset" : 7920,
			"byteLength" : 7920,
			"target" : 34962
		},
		{
			"buffer" : 0,
			"byteOffset" : 15840,
			"byteLength" : 7920,
			"target" : 34962
		},
		{
			"buffer" : 0,
			"byteOffset" : 23760,
			"byteLength" : 1320,
			"target" : 34963
		}
	],
	"buffers" : [
		{
			"uri" : "B347311500701063C0.bin",
			"byteLength" : 25080
		}
	]
}
