{
	"asset" : {
		"generator" : "FME 2023.1.0.0",
		"version" : "2.0"
	},
	"materials" : [
		{
			"name" : "default_material",
			"pbrMetallicRoughness" : {
				"baseColorFactor" : [ 1, 1, 1, 1 ],
				"roughnessFactor" : 0.30000000000000004,
				"metallicFactor" : 0.5
			}
		}
	],
	"meshes" : [
		{
			"primitives" : [
				{
					"attributes" : {
						"NORMAL" : 1,
						"POSITION" : 0,
						"COLOR_0" : 2
					},
					"indices" : 3,
					"material" : 0,
					"mode" : 4
				}
			]
		}
	],
	"nodes" : [
		{
			"name" : "B335541627001063C0",
			"matrix" : [ 1, 0, 0, 0, 0, 0, -1, 0, 0, 1, 0, 0, 833554.25, 3.6670000553131104, -816268.375, 1 ],
			"children" : [ 1 ]
		},
		{
			"mesh" : 0
		}
	],
	"scenes" : [
		{
			"nodes" : [ 0 ]
		}
	],
	"scene" : 0,
	"accessors" : [
		{
			"bufferView" : 0,
			"byteOffset" : 0,
			"componentType" : 5126,
			"count" : 327,
			"type" : "VEC3",
			"min" : [ -7.0537109375, -7.8017578125, 0 ],
			"max" : [ 7.0537109375, 7.802734375, 23.732999801635742 ]
		},
		{
			"bufferView" : 1,
			"byteOffset" : 0,
			"componentType" : 5126,
			"count" : 327,
			"type" : "VEC3",
			"min" : [ -0.7252691388130188, -0.7255392074584961, -0.00036420454853214324 ],
			"max" : [ 0.7264684438705444, 0.7251999974250793, 1 ]
		},
		{
			"bufferView" : 2,
			"byteOffset" : 0,
			"componentType" : 5126,
			"count" : 327,
			"type" : "VEC3"
		},
		{
			"bufferView" : 3,
			"byteOffset" : 0,
			"componentType" : 5123,
			"count" : 327,
			"type" : "SCALAR",
			"min" : [ 0 ],
			"max" : [ 326 ]
		}
	],
	"bufferViews" : [
		{
			"buffer" : 0,
			"byteOffset" : 0,
			"byteLength" : 3924,
			"target" : 34962
		},
		{
			"buffer" : 0,
			"byteOffset" : 3924,
			"byteLength" : 3924,
			"target" : 34962
		},
		{
			"buffer" : 0,
			"byteOffset" : 7848,
			"byteLength" : 3924,
			"target" : 34962
		},
		{
			"buffer" : 0,
			"byteOffset" : 11772,
			"byteLength" : 654,
			"target" : 34963
		}
	],
	"buffers" : [
		{
			"uri" : "B335541627001063C0.bin",
			"byteLength" : 12426
		}
	]
}
