{
	"asset" : {
		"generator" : "FME 2022.2.4.0",
		"version" : "2.0"
	},
	"materials" : [
		{
			"name" : "default_material",
			"pbrMetallicRoughness" : {
				"baseColorFactor" : [ 1, 1, 1, 1 ],
				"roughnessFactor" : 0.30000000000000004,
				"metallicFactor" : 0.5
			}
		}
	],
	"meshes" : [
		{
			"primitives" : [
				{
					"attributes" : {
						"NORMAL" : 1,
						"POSITION" : 0,
						"COLOR_0" : 2
					},
					"indices" : 3,
					"material" : 0,
					"mode" : 4
				}
			]
		}
	],
	"nodes" : [
		{
			"name" : "B352341553101063C0",
			"matrix" : [ 1, 0, 0, 0, 0, 0, -1, 0, 0, 1, 0, 0, 835234.5, 6.013999938964844, -815530.75, 1 ],
			"children" : [ 1 ]
		},
		{
			"mesh" : 0
		}
	],
	"scenes" : [
		{
			"nodes" : [ 0 ]
		}
	],
	"scene" : 0,
	"accessors" : [
		{
			"bufferView" : 0,
			"byteOffset" : 0,
			"componentType" : 5126,
			"count" : 420,
			"type" : "VEC3",
			"min" : [ -1.09375, -1.09375, 0 ],
			"max" : [ 1.2177734375, 1.2177734375, 3.8909997940063477 ]
		},
		{
			"bufferView" : 1,
			"byteOffset" : 0,
			"componentType" : 5126,
			"count" : 420,
			"type" : "VEC3",
			"min" : [ -0.9976986050605774, -0.9973594546318054, -1 ],
			"max" : [ 0.9976761937141418, 0.9976986050605774, 1 ]
		},
		{
			"bufferView" : 2,
			"byteOffset" : 0,
			"componentType" : 5126,
			"count" : 420,
			"type" : "VEC3"
		},
		{
			"bufferView" : 3,
			"byteOffset" : 0,
			"componentType" : 5123,
			"count" : 420,
			"type" : "SCALAR",
			"min" : [ 0 ],
			"max" : [ 419 ]
		}
	],
	"bufferViews" : [
		{
			"buffer" : 0,
			"byteOffset" : 0,
			"byteLength" : 5040,
			"target" : 34962
		},
		{
			"buffer" : 0,
			"byteOffset" : 5040,
			"byteLength" : 5040,
			"target" : 34962
		},
		{
			"buffer" : 0,
			"byteOffset" : 10080,
			"byteLength" : 5040,
			"target" : 34962
		},
		{
			"buffer" : 0,
			"byteOffset" : 15120,
			"byteLength" : 840,
			"target" : 34963
		}
	],
	"buffers" : [
		{
			"uri" : "B352341553101063C0.bin",
			"byteLength" : 15960
		}
	]
}
