{
	"asset" : {
		"generator" : "FME 2023.1.0.0",
		"version" : "2.0"
	},
	"materials" : [
		{
			"name" : "default_material",
			"pbrMetallicRoughness" : {
				"baseColorFactor" : [ 1, 1, 1, 1 ],
				"roughnessFactor" : 0.30000000000000004,
				"metallicFactor" : 0.5
			}
		}
	],
	"meshes" : [
		{
			"primitives" : [
				{
					"attributes" : {
						"NORMAL" : 1,
						"POSITION" : 0,
						"COLOR_0" : 2
					},
					"indices" : 3,
					"material" : 0,
					"mode" : 4
				}
			]
		}
	],
	"nodes" : [
		{
			"name" : "B356781534801063C0",
			"matrix" : [ 1, 0, 0, 0, 0, 0, -1, 0, 0, 1, 0, 0, 835683.5, 19.56999969482422, -815341.1875, 1 ],
			"children" : [ 1 ]
		},
		{
			"mesh" : 0
		}
	],
	"scenes" : [
		{
			"nodes" : [ 0 ]
		}
	],
	"scene" : 0,
	"accessors" : [
		{
			"bufferView" : 0,
			"byteOffset" : 0,
			"componentType" : 5126,
			"count" : 645,
			"type" : "VEC3",
			"min" : [ -8.8447265625, -7.576171875, 0 ],
			"max" : [ 8.84375, 7.576171875, 59.13999938964844 ]
		},
		{
			"bufferView" : 1,
			"byteOffset" : 0,
			"componentType" : 5126,
			"count" : 645,
			"type" : "VEC3",
			"min" : [ -0.9987631440162659, -0.9960483908653259, -0.0199459008872509 ],
			"max" : [ 0.9990776777267456, 0.9965457916259766, 1 ]
		},
		{
			"bufferView" : 2,
			"byteOffset" : 0,
			"componentType" : 5126,
			"count" : 645,
			"type" : "VEC3"
		},
		{
			"bufferView" : 3,
			"byteOffset" : 0,
			"componentType" : 5123,
			"count" : 645,
			"type" : "SCALAR",
			"min" : [ 0 ],
			"max" : [ 644 ]
		}
	],
	"bufferViews" : [
		{
			"buffer" : 0,
			"byteOffset" : 0,
			"byteLength" : 7740,
			"target" : 34962
		},
		{
			"buffer" : 0,
			"byteOffset" : 7740,
			"byteLength" : 7740,
			"target" : 34962
		},
		{
			"buffer" : 0,
			"byteOffset" : 15480,
			"byteLength" : 7740,
			"target" : 34962
		},
		{
			"buffer" : 0,
			"byteOffset" : 23220,
			"byteLength" : 1290,
			"target" : 34963
		}
	],
	"buffers" : [
		{
			"uri" : "B356781534801063C0.bin",
			"byteLength" : 24510
		}
	]
}
