{
	"asset" : {
		"generator" : "FME 2023.1.0.0",
		"version" : "2.0"
	},
	"materials" : [
		{
			"name" : "default_material",
			"pbrMetallicRoughness" : {
				"baseColorFactor" : [ 1, 1, 1, 1 ],
				"roughnessFactor" : 0.30000000000000004,
				"metallicFactor" : 0.5
			}
		}
	],
	"meshes" : [
		{
			"primitives" : [
				{
					"attributes" : {
						"NORMAL" : 1,
						"POSITION" : 0,
						"COLOR_0" : 2
					},
					"indices" : 3,
					"material" : 0,
					"mode" : 4
				}
			]
		}
	],
	"nodes" : [
		{
			"name" : "B335971642001063C0",
			"matrix" : [ 1, 0, 0, 0, 0, 0, -1, 0, 0, 1, 0, 0, 833598.625, 3.7900047302246094, -816418.25, 1 ],
			"children" : [ 1 ]
		},
		{
			"mesh" : 0
		}
	],
	"scenes" : [
		{
			"nodes" : [ 0 ]
		}
	],
	"scene" : 0,
	"accessors" : [
		{
			"bufferView" : 0,
			"byteOffset" : 0,
			"componentType" : 5126,
			"count" : 192,
			"type" : "VEC3",
			"min" : [ -4.1513671875, -8.333984375, 0 ],
			"max" : [ 4.15234375, 8.333984375, 23.854000091552734 ]
		},
		{
			"bufferView" : 1,
			"byteOffset" : 0,
			"componentType" : 5126,
			"count" : 192,
			"type" : "VEC3",
			"min" : [ -0.9727521538734436, -0.9691532850265503, -1 ],
			"max" : [ 0.969543993473053, 0.9690839648246765, 1 ]
		},
		{
			"bufferView" : 2,
			"byteOffset" : 0,
			"componentType" : 5126,
			"count" : 192,
			"type" : "VEC3"
		},
		{
			"bufferView" : 3,
			"byteOffset" : 0,
			"componentType" : 5121,
			"count" : 192,
			"type" : "SCALAR",
			"min" : [ 0 ],
			"max" : [ 191 ]
		}
	],
	"bufferViews" : [
		{
			"buffer" : 0,
			"byteOffset" : 0,
			"byteLength" : 2304,
			"target" : 34962
		},
		{
			"buffer" : 0,
			"byteOffset" : 2304,
			"byteLength" : 2304,
			"target" : 34962
		},
		{
			"buffer" : 0,
			"byteOffset" : 4608,
			"byteLength" : 2304,
			"target" : 34962
		},
		{
			"buffer" : 0,
			"byteOffset" : 6912,
			"byteLength" : 192,
			"target" : 34963
		}
	],
	"buffers" : [
		{
			"uri" : "B335971642001063C0.bin",
			"byteLength" : 7104
		}
	]
}
