{
	"asset" : {
		"generator" : "FME 2023.1.0.0",
		"version" : "2.0"
	},
	"materials" : [
		{
			"name" : "default_material",
			"pbrMetallicRoughness" : {
				"baseColorFactor" : [ 1, 1, 1, 1 ],
				"roughnessFactor" : 0.30000000000000004,
				"metallicFactor" : 0.5
			}
		}
	],
	"meshes" : [
		{
			"primitives" : [
				{
					"attributes" : {
						"NORMAL" : 1,
						"POSITION" : 0,
						"COLOR_0" : 2
					},
					"indices" : 3,
					"material" : 0,
					"mode" : 4
				}
			]
		}
	],
	"nodes" : [
		{
			"name" : "B333581620901063C0",
			"matrix" : [ 1, 0, 0, 0, 0, 0, -1, 0, 0, 1, 0, 0, 833362.875, 24.323999404907227, -816208.375, 1 ],
			"children" : [ 1 ]
		},
		{
			"mesh" : 0
		}
	],
	"scenes" : [
		{
			"nodes" : [ 0 ]
		}
	],
	"scene" : 0,
	"accessors" : [
		{
			"bufferView" : 0,
			"byteOffset" : 0,
			"componentType" : 5126,
			"count" : 546,
			"type" : "VEC3",
			"min" : [ -8.0869140625, -8.1142578125, 0 ],
			"max" : [ 8.1201171875, 8.0849609375, 23.588998794555664 ]
		},
		{
			"bufferView" : 1,
			"byteOffset" : 0,
			"componentType" : 5126,
			"count" : 546,
			"type" : "VEC3",
			"min" : [ -0.7661328315734863, -0.7808356285095215, -1 ],
			"max" : [ 0.7720220685005188, 0.8239920139312744, 1 ]
		},
		{
			"bufferView" : 2,
			"byteOffset" : 0,
			"componentType" : 5126,
			"count" : 546,
			"type" : "VEC3"
		},
		{
			"bufferView" : 3,
			"byteOffset" : 0,
			"componentType" : 5123,
			"count" : 546,
			"type" : "SCALAR",
			"min" : [ 0 ],
			"max" : [ 545 ]
		}
	],
	"bufferViews" : [
		{
			"buffer" : 0,
			"byteOffset" : 0,
			"byteLength" : 6552,
			"target" : 34962
		},
		{
			"buffer" : 0,
			"byteOffset" : 6552,
			"byteLength" : 6552,
			"target" : 34962
		},
		{
			"buffer" : 0,
			"byteOffset" : 13104,
			"byteLength" : 6552,
			"target" : 34962
		},
		{
			"buffer" : 0,
			"byteOffset" : 19656,
			"byteLength" : 1092,
			"target" : 34963
		}
	],
	"buffers" : [
		{
			"uri" : "B333581620901063C0.bin",
			"byteLength" : 20748
		}
	]
}
