{
	"asset" : {
		"generator" : "FME 2023.1.0.0",
		"version" : "2.0"
	},
	"materials" : [
		{
			"name" : "default_material",
			"pbrMetallicRoughness" : {
				"baseColorFactor" : [ 1, 1, 1, 1 ],
				"roughnessFactor" : 0.30000000000000004,
				"metallicFactor" : 0.5
			}
		}
	],
	"meshes" : [
		{
			"primitives" : [
				{
					"attributes" : {
						"NORMAL" : 1,
						"POSITION" : 0,
						"COLOR_0" : 2
					},
					"indices" : 3,
					"material" : 0,
					"mode" : 4
				}
			]
		}
	],
	"nodes" : [
		{
			"name" : "B338391537801063C0",
			"matrix" : [ 1, 0, 0, 0, 0, 0, -1, 0, 0, 1, 0, 0, 833839.75, 130.8760223388672, -815376.9375, 1 ],
			"children" : [ 1 ]
		},
		{
			"mesh" : 0
		}
	],
	"scenes" : [
		{
			"nodes" : [ 0 ]
		}
	],
	"scene" : 0,
	"accessors" : [
		{
			"bufferView" : 0,
			"byteOffset" : 0,
			"componentType" : 5126,
			"count" : 786,
			"type" : "VEC3",
			"min" : [ -11.5498046875, -10.544921875, 0 ],
			"max" : [ 11.55078125, 10.5439453125, 23.327987670898438 ]
		},
		{
			"bufferView" : 1,
			"byteOffset" : 0,
			"componentType" : 5126,
			"count" : 786,
			"type" : "VEC3",
			"min" : [ -0.8966301679611206, -0.8878161907196045, -1 ],
			"max" : [ 0.8891669511795044, 0.887893795967102, 1 ]
		},
		{
			"bufferView" : 2,
			"byteOffset" : 0,
			"componentType" : 5126,
			"count" : 786,
			"type" : "VEC3"
		},
		{
			"bufferView" : 3,
			"byteOffset" : 0,
			"componentType" : 5123,
			"count" : 786,
			"type" : "SCALAR",
			"min" : [ 0 ],
			"max" : [ 785 ]
		}
	],
	"bufferViews" : [
		{
			"buffer" : 0,
			"byteOffset" : 0,
			"byteLength" : 9432,
			"target" : 34962
		},
		{
			"buffer" : 0,
			"byteOffset" : 9432,
			"byteLength" : 9432,
			"target" : 34962
		},
		{
			"buffer" : 0,
			"byteOffset" : 18864,
			"byteLength" : 9432,
			"target" : 34962
		},
		{
			"buffer" : 0,
			"byteOffset" : 28296,
			"byteLength" : 1572,
			"target" : 34963
		}
	],
	"buffers" : [
		{
			"uri" : "B338391537801063C0.bin",
			"byteLength" : 29868
		}
	]
}
