{
	"asset" : {
		"generator" : "FME 2023.1.0.0",
		"version" : "2.0"
	},
	"materials" : [
		{
			"name" : "default_material",
			"pbrMetallicRoughness" : {
				"baseColorFactor" : [ 1, 1, 1, 1 ],
				"roughnessFactor" : 0.30000000000000004,
				"metallicFactor" : 0.5
			}
		}
	],
	"meshes" : [
		{
			"primitives" : [
				{
					"attributes" : {
						"NORMAL" : 1,
						"POSITION" : 0,
						"COLOR_0" : 2
					},
					"indices" : 3,
					"material" : 0,
					"mode" : 4
				}
			]
		}
	],
	"nodes" : [
		{
			"name" : "B338001587302063C0",
			"matrix" : [ 1, 0, 0, 0, 0, 0, -1, 0, 0, 1, 0, 0, 833801, 44.76801300048828, -815873.125, 1 ],
			"children" : [ 1 ]
		},
		{
			"mesh" : 0
		}
	],
	"scenes" : [
		{
			"nodes" : [ 0 ]
		}
	],
	"scene" : 0,
	"accessors" : [
		{
			"bufferView" : 0,
			"byteOffset" : 0,
			"componentType" : 5126,
			"count" : 111,
			"type" : "VEC3",
			"min" : [ -8.787109375, -8.90234375, 0 ],
			"max" : [ 8.787109375, 8.90234375, 6.118000030517578 ]
		},
		{
			"bufferView" : 1,
			"byteOffset" : 0,
			"componentType" : 5126,
			"count" : 111,
			"type" : "VEC3",
			"min" : [ -0.7664031386375427, -0.7893823385238647, -0.03628784045577049 ],
			"max" : [ 0.7394953966140747, 0.7330119013786316, 1 ]
		},
		{
			"bufferView" : 2,
			"byteOffset" : 0,
			"componentType" : 5126,
			"count" : 111,
			"type" : "VEC3"
		},
		{
			"bufferView" : 3,
			"byteOffset" : 0,
			"componentType" : 5121,
			"count" : 111,
			"type" : "SCALAR",
			"min" : [ 0 ],
			"max" : [ 110 ]
		}
	],
	"bufferViews" : [
		{
			"buffer" : 0,
			"byteOffset" : 0,
			"byteLength" : 1332,
			"target" : 34962
		},
		{
			"buffer" : 0,
			"byteOffset" : 1332,
			"byteLength" : 1332,
			"target" : 34962
		},
		{
			"buffer" : 0,
			"byteOffset" : 2664,
			"byteLength" : 1332,
			"target" : 34962
		},
		{
			"buffer" : 0,
			"byteOffset" : 3996,
			"byteLength" : 111,
			"target" : 34963
		}
	],
	"buffers" : [
		{
			"uri" : "B338001587302063C0.bin",
			"byteLength" : 4107
		}
	]
}
