{
	"asset" : {
		"generator" : "FME 2022.2.4.0",
		"version" : "2.0"
	},
	"materials" : [
		{
			"name" : "default_material",
			"pbrMetallicRoughness" : {
				"baseColorFactor" : [ 1, 1, 1, 1 ],
				"roughnessFactor" : 0.30000000000000004,
				"metallicFactor" : 0.5
			}
		}
	],
	"meshes" : [
		{
			"primitives" : [
				{
					"attributes" : {
						"NORMAL" : 1,
						"POSITION" : 0,
						"COLOR_0" : 2
					},
					"indices" : 3,
					"material" : 0,
					"mode" : 4
				}
			]
		}
	],
	"nodes" : [
		{
			"name" : "B356461530402063C0",
			"matrix" : [ 1, 0, 0, 0, 0, 0, -1, 0, 0, 1, 0, 0, 835640.25, 3.947000026702881, -815304.625, 1 ],
			"children" : [ 1 ]
		},
		{
			"mesh" : 0
		}
	],
	"scenes" : [
		{
			"nodes" : [ 0 ]
		}
	],
	"scene" : 0,
	"accessors" : [
		{
			"bufferView" : 0,
			"byteOffset" : 0,
			"componentType" : 5126,
			"count" : 717,
			"type" : "VEC3",
			"min" : [ -13.341796875, -13.208984375, 0 ],
			"max" : [ 13.3427734375, 13.208984375, 11.142000198364258 ]
		},
		{
			"bufferView" : 1,
			"byteOffset" : 0,
			"componentType" : 5126,
			"count" : 717,
			"type" : "VEC3",
			"min" : [ -0.8526791334152222, -0.9891809821128845, -1 ],
			"max" : [ 1, 0.8528653979301453, 1 ]
		},
		{
			"bufferView" : 2,
			"byteOffset" : 0,
			"componentType" : 5126,
			"count" : 717,
			"type" : "VEC3"
		},
		{
			"bufferView" : 3,
			"byteOffset" : 0,
			"componentType" : 5123,
			"count" : 717,
			"type" : "SCALAR",
			"min" : [ 0 ],
			"max" : [ 716 ]
		}
	],
	"bufferViews" : [
		{
			"buffer" : 0,
			"byteOffset" : 0,
			"byteLength" : 8604,
			"target" : 34962
		},
		{
			"buffer" : 0,
			"byteOffset" : 8604,
			"byteLength" : 8604,
			"target" : 34962
		},
		{
			"buffer" : 0,
			"byteOffset" : 17208,
			"byteLength" : 8604,
			"target" : 34962
		},
		{
			"buffer" : 0,
			"byteOffset" : 25812,
			"byteLength" : 1434,
			"target" : 34963
		}
	],
	"buffers" : [
		{
			"uri" : "B356461530402063C0.bin",
			"byteLength" : 27246
		}
	]
}
