{
    "asset": {
        "generator": "FME 2020.0.0.0",
        "version": "2.0"
    },
    "images": [
        {
            "uri": "T37500180000106E10_001.jpg"
        }
    ],
    "samplers": [
        {
            "wrapS": 10497,
            "wrapT": 10497
        }
    ],
    "textures": [
        {
            "source": 0,
            "sampler": 0
        }
    ],
    "materials": [
        {
            "name": "T37500180000106E10_001",
            "pbrMetallicRoughness": {
                "baseColorTexture": {
                    "index": 0,
                    "texCoord": 0
                },
                "roughnessFactor": 0.984375,
                "metallicFactor": 0.5
            }
        },
        {
            "name": "default_material",
            "pbrMetallicRoughness": {
                "baseColorFactor": [
                    0.8,
                    0.8,
                    0.8,
                    1
                ],
                "roughnessFactor": 0.30000000000000004,
                "metallicFactor": 0.5
            }
        }
    ],
    "meshes": [
        {
            "primitives": [
                {
                    "attributes": {
                        "NORMAL": 1,
                        "POSITION": 0,
                        "TEXCOORD_0": 2
                    },
                    "indices": 3,
                    "material": 0,
                    "mode": 4
                }
            ]
        }
    ],
    "nodes": [
        {
            "name": "T37500180000106E10",
            "matrix": [
                1,
                0,
                0,
                0,
                0,
                0,
                -1,
                0,
                0,
                1,
                0,
                0,
                837875,
                1.1515874862670898,
                -818300,
                1
            ],
            "children": [
                1
            ]
        },
        {
            "mesh": 0
        }
    ],
    "scenes": [
        {
            "nodes": [
                0
            ]
        }
    ],
    "scene": 0,
    "accessors": [
        {
            "bufferView": 0,
            "byteOffset": 0,
            "componentType": 5126,
            "count": 30615,
            "type": "VEC3",
            "min": [
                -374.999267578125,
                -299.9996337890625,
                0
            ],
            "max": [
                375.000732421875,
                300.0018310546875,
                7.109651565551758
            ]
        },
        {
            "bufferView": 1,
            "byteOffset": 0,
            "componentType": 5126,
            "count": 30615,
            "type": "VEC3",
            "min": [
                -0.9877985119819641,
                -0.9992884993553162,
                -0.999661922454834
            ],
            "max": [
                0.9976840615272522,
                0.9974526762962341,
                1
            ]
        },
        {
            "bufferView": 2,
            "byteOffset": 0,
            "componentType": 5126,
            "count": 30615,
            "type": "VEC2",
            "min": [
                -5.960464477539063e-08,
                -1.430511474609375e-06
            ],
            "max": [
                1.0000001192092896,
                1.000001311302185
            ]
        },
        {
            "bufferView": 3,
            "byteOffset": 0,
            "componentType": 5123,
            "count": 30615,
            "type": "SCALAR",
            "min": [
                0
            ],
            "max": [
                30614
            ]
        }
    ],
    "bufferViews": [
        {
            "buffer": 0,
            "byteOffset": 0,
            "byteLength": 367380,
            "target": 34962
        },
        {
            "buffer": 0,
            "byteOffset": 367380,
            "byteLength": 367380,
            "target": 34962
        },
        {
            "buffer": 0,
            "byteOffset": 734760,
            "byteLength": 244920,
            "target": 34962
        },
        {
            "buffer": 0,
            "byteOffset": 979680,
            "byteLength": 61230,
            "target": 34963
        }
    ],
    "buffers": [
        {
            "uri": "T37500180000106E10.bin",
            "byteLength": 1040910
        }
    ]
}