{
	"asset" : {
		"generator" : "FME 2023.1.0.0",
		"version" : "2.0"
	},
	"materials" : [
		{
			"name" : "default_material",
			"pbrMetallicRoughness" : {
				"baseColorFactor" : [ 1, 1, 1, 1 ],
				"roughnessFactor" : 0.30000000000000004,
				"metallicFactor" : 0.5
			}
		}
	],
	"meshes" : [
		{
			"primitives" : [
				{
					"attributes" : {
						"NORMAL" : 1,
						"POSITION" : 0,
						"COLOR_0" : 2
					},
					"indices" : 3,
					"material" : 0,
					"mode" : 4
				}
			]
		}
	],
	"nodes" : [
		{
			"name" : "B335111619601063C0",
			"matrix" : [ 1, 0, 0, 0, 0, 0, -1, 0, 0, 1, 0, 0, 833511.8125, 22.511018753051758, -816196.875, 1 ],
			"children" : [ 1 ]
		},
		{
			"mesh" : 0
		}
	],
	"scenes" : [
		{
			"nodes" : [ 0 ]
		}
	],
	"scene" : 0,
	"accessors" : [
		{
			"bufferView" : 0,
			"byteOffset" : 0,
			"componentType" : 5126,
			"count" : 1707,
			"type" : "VEC3",
			"min" : [ -11.630859375, -11.220703125, 0 ],
			"max" : [ 11.630859375, 11.220703125, 66.18400573730469 ]
		},
		{
			"bufferView" : 1,
			"byteOffset" : 0,
			"componentType" : 5126,
			"count" : 1707,
			"type" : "VEC3",
			"min" : [ -0.7765225768089294, -0.7633587121963501, -1 ],
			"max" : [ 0.7603211998939514, 0.7702667117118835, 1 ]
		},
		{
			"bufferView" : 2,
			"byteOffset" : 0,
			"componentType" : 5126,
			"count" : 1707,
			"type" : "VEC3"
		},
		{
			"bufferView" : 3,
			"byteOffset" : 0,
			"componentType" : 5123,
			"count" : 1707,
			"type" : "SCALAR",
			"min" : [ 0 ],
			"max" : [ 1706 ]
		}
	],
	"bufferViews" : [
		{
			"buffer" : 0,
			"byteOffset" : 0,
			"byteLength" : 20484,
			"target" : 34962
		},
		{
			"buffer" : 0,
			"byteOffset" : 20484,
			"byteLength" : 20484,
			"target" : 34962
		},
		{
			"buffer" : 0,
			"byteOffset" : 40968,
			"byteLength" : 20484,
			"target" : 34962
		},
		{
			"buffer" : 0,
			"byteOffset" : 61452,
			"byteLength" : 3414,
			"target" : 34963
		}
	],
	"buffers" : [
		{
			"uri" : "B335111619601063C0.bin",
			"byteLength" : 64866
		}
	]
}
