{
	"asset" : {
		"generator" : "FME 2023.1.0.0",
		"version" : "2.0"
	},
	"materials" : [
		{
			"name" : "default_material",
			"pbrMetallicRoughness" : {
				"baseColorFactor" : [ 1, 1, 1, 1 ],
				"roughnessFactor" : 0.30000000000000004,
				"metallicFactor" : 0.5
			}
		}
	],
	"meshes" : [
		{
			"primitives" : [
				{
					"attributes" : {
						"NORMAL" : 1,
						"POSITION" : 0,
						"COLOR_0" : 2
					},
					"indices" : 3,
					"material" : 0,
					"mode" : 4
				}
			]
		}
	],
	"nodes" : [
		{
			"name" : "B339451605401063C0",
			"matrix" : [ 1, 0, 0, 0, 0, 0, -1, 0, 0, 1, 0, 0, 833948.25, 12.170999526977539, -816054.9375, 1 ],
			"children" : [ 1 ]
		},
		{
			"mesh" : 0
		}
	],
	"scenes" : [
		{
			"nodes" : [ 0 ]
		}
	],
	"scene" : 0,
	"accessors" : [
		{
			"bufferView" : 0,
			"byteOffset" : 0,
			"componentType" : 5126,
			"count" : 459,
			"type" : "VEC3",
			"min" : [ -5.5166015625, -5.3125, 0 ],
			"max" : [ 5.5166015625, 5.3125, 22.049001693725586 ]
		},
		{
			"bufferView" : 1,
			"byteOffset" : 0,
			"componentType" : 5126,
			"count" : 459,
			"type" : "VEC3",
			"min" : [ -0.8315256237983704, -0.7320831418037415, -0.004154995549470186 ],
			"max" : [ 0.8301999568939209, 0.800000011920929, 1 ]
		},
		{
			"bufferView" : 2,
			"byteOffset" : 0,
			"componentType" : 5126,
			"count" : 459,
			"type" : "VEC3"
		},
		{
			"bufferView" : 3,
			"byteOffset" : 0,
			"componentType" : 5123,
			"count" : 459,
			"type" : "SCALAR",
			"min" : [ 0 ],
			"max" : [ 458 ]
		}
	],
	"bufferViews" : [
		{
			"buffer" : 0,
			"byteOffset" : 0,
			"byteLength" : 5508,
			"target" : 34962
		},
		{
			"buffer" : 0,
			"byteOffset" : 5508,
			"byteLength" : 5508,
			"target" : 34962
		},
		{
			"buffer" : 0,
			"byteOffset" : 11016,
			"byteLength" : 5508,
			"target" : 34962
		},
		{
			"buffer" : 0,
			"byteOffset" : 16524,
			"byteLength" : 918,
			"target" : 34963
		}
	],
	"buffers" : [
		{
			"uri" : "B339451605401063C0.bin",
			"byteLength" : 17442
		}
	]
}
