{
	"asset" : {
		"generator" : "FME 2023.1.0.0",
		"version" : "2.0"
	},
	"materials" : [
		{
			"name" : "default_material",
			"pbrMetallicRoughness" : {
				"baseColorFactor" : [ 1, 1, 1, 1 ],
				"roughnessFactor" : 0.30000000000000004,
				"metallicFactor" : 0.5
			}
		}
	],
	"meshes" : [
		{
			"primitives" : [
				{
					"attributes" : {
						"NORMAL" : 1,
						"POSITION" : 0,
						"COLOR_0" : 2
					},
					"indices" : 3,
					"material" : 0,
					"mode" : 4
				}
			]
		}
	],
	"nodes" : [
		{
			"name" : "B333151650702063C0",
			"matrix" : [ 1, 0, 0, 0, 0, 0, -1, 0, 0, 1, 0, 0, 833320.5, 3.0169942378997803, -816506, 1 ],
			"children" : [ 1 ]
		},
		{
			"mesh" : 0
		}
	],
	"scenes" : [
		{
			"nodes" : [ 0 ]
		}
	],
	"scene" : 0,
	"accessors" : [
		{
			"bufferView" : 0,
			"byteOffset" : 0,
			"componentType" : 5126,
			"count" : 966,
			"type" : "VEC3",
			"min" : [ -20.2060546875, -16.9443359375, 0 ],
			"max" : [ 20.20703125, 16.943359375, 10.512999534606934 ]
		},
		{
			"bufferView" : 1,
			"byteOffset" : 0,
			"componentType" : 5126,
			"count" : 966,
			"type" : "VEC3",
			"min" : [ -0.9820360541343689, -0.9255589246749878, -0.9999995827674866 ],
			"max" : [ 0.7709383964538574, 0.774214506149292, 1 ]
		},
		{
			"bufferView" : 2,
			"byteOffset" : 0,
			"componentType" : 5126,
			"count" : 966,
			"type" : "VEC3"
		},
		{
			"bufferView" : 3,
			"byteOffset" : 0,
			"componentType" : 5123,
			"count" : 966,
			"type" : "SCALAR",
			"min" : [ 0 ],
			"max" : [ 965 ]
		}
	],
	"bufferViews" : [
		{
			"buffer" : 0,
			"byteOffset" : 0,
			"byteLength" : 11592,
			"target" : 34962
		},
		{
			"buffer" : 0,
			"byteOffset" : 11592,
			"byteLength" : 11592,
			"target" : 34962
		},
		{
			"buffer" : 0,
			"byteOffset" : 23184,
			"byteLength" : 11592,
			"target" : 34962
		},
		{
			"buffer" : 0,
			"byteOffset" : 34776,
			"byteLength" : 1932,
			"target" : 34963
		}
	],
	"buffers" : [
		{
			"uri" : "B333151650702063C0.bin",
			"byteLength" : 36708
		}
	]
}
