{
	"asset" : {
		"generator" : "FME 2023.1.0.0",
		"version" : "2.0"
	},
	"materials" : [
		{
			"name" : "default_material",
			"pbrMetallicRoughness" : {
				"baseColorFactor" : [ 1, 1, 1, 1 ],
				"roughnessFactor" : 0.30000000000000004,
				"metallicFactor" : 0.5
			}
		}
	],
	"meshes" : [
		{
			"primitives" : [
				{
					"attributes" : {
						"NORMAL" : 1,
						"POSITION" : 0,
						"COLOR_0" : 2
					},
					"indices" : 3,
					"material" : 0,
					"mode" : 4
				}
			]
		}
	],
	"nodes" : [
		{
			"name" : "B351881553801063C0",
			"matrix" : [ 1, 0, 0, 0, 0, 0, -1, 0, 0, 1, 0, 0, 835189.25, 16.759002685546875, -815540.3125, 1 ],
			"children" : [ 1 ]
		},
		{
			"mesh" : 0
		}
	],
	"scenes" : [
		{
			"nodes" : [ 0 ]
		}
	],
	"scene" : 0,
	"accessors" : [
		{
			"bufferView" : 0,
			"byteOffset" : 0,
			"componentType" : 5126,
			"count" : 36,
			"type" : "VEC3",
			"min" : [ -2.787109375, -2.32421875, 0 ],
			"max" : [ 2.7861328125, 2.3232421875, 2.6889991760253906 ]
		},
		{
			"bufferView" : 1,
			"byteOffset" : 0,
			"componentType" : 5126,
			"count" : 36,
			"type" : "VEC3",
			"min" : [ -0.8986818790435791, -0.8988754749298096, -1 ],
			"max" : [ 0.8986818790435791, 0.8988754749298096, 1 ]
		},
		{
			"bufferView" : 2,
			"byteOffset" : 0,
			"componentType" : 5126,
			"count" : 36,
			"type" : "VEC3"
		},
		{
			"bufferView" : 3,
			"byteOffset" : 0,
			"componentType" : 5121,
			"count" : 36,
			"type" : "SCALAR",
			"min" : [ 0 ],
			"max" : [ 35 ]
		}
	],
	"bufferViews" : [
		{
			"buffer" : 0,
			"byteOffset" : 0,
			"byteLength" : 432,
			"target" : 34962
		},
		{
			"buffer" : 0,
			"byteOffset" : 432,
			"byteLength" : 432,
			"target" : 34962
		},
		{
			"buffer" : 0,
			"byteOffset" : 864,
			"byteLength" : 432,
			"target" : 34962
		},
		{
			"buffer" : 0,
			"byteOffset" : 1296,
			"byteLength" : 36,
			"target" : 34963
		}
	],
	"buffers" : [
		{
			"uri" : "B351881553801063C0.bin",
			"byteLength" : 1332
		}
	]
}
