{
	"asset" : {
		"generator" : "FME 2023.2.1.0",
		"version" : "2.0"
	},
	"materials" : [
		{
			"name" : "default_material",
			"pbrMetallicRoughness" : {
				"baseColorFactor" : [ 1, 1, 1, 1 ],
				"roughnessFactor" : 0.30000000000000004,
				"metallicFactor" : 0.5
			}
		}
	],
	"meshes" : [
		{
			"primitives" : [
				{
					"attributes" : {
						"NORMAL" : 1,
						"POSITION" : 0,
						"COLOR_0" : 2
					},
					"indices" : 3,
					"material" : 0,
					"mode" : 4
				}
			]
		}
	],
	"nodes" : [
		{
			"name" : "B160011207901063C0",
			"matrix" : [ 1, 0, 0, 0, 0, 0, -1, 0, 0, 1, 0, 0, 816001.25, 21.164600372314453, -812078.125, 1 ],
			"children" : [ 1 ]
		},
		{
			"mesh" : 0
		}
	],
	"scenes" : [
		{
			"nodes" : [ 0 ]
		}
	],
	"scene" : 0,
	"accessors" : [
		{
			"bufferView" : 0,
			"byteOffset" : 0,
			"componentType" : 5126,
			"count" : 312,
			"type" : "VEC3",
			"min" : [ -7.1875, -7.25, 0 ],
			"max" : [ 7.125, 7.25, 15.735298156738281 ]
		},
		{
			"bufferView" : 1,
			"byteOffset" : 0,
			"componentType" : 5126,
			"count" : 312,
			"type" : "VEC3",
			"min" : [ -0.743277907371521, -0.7415239810943604, -0.9989379644393921 ],
			"max" : [ 0.7432752251625061, 0.7415239810943604, 1 ]
		},
		{
			"bufferView" : 2,
			"byteOffset" : 0,
			"componentType" : 5126,
			"count" : 312,
			"type" : "VEC3"
		},
		{
			"bufferView" : 3,
			"byteOffset" : 0,
			"componentType" : 5123,
			"count" : 312,
			"type" : "SCALAR",
			"min" : [ 0 ],
			"max" : [ 311 ]
		}
	],
	"bufferViews" : [
		{
			"buffer" : 0,
			"byteOffset" : 0,
			"byteLength" : 3744,
			"target" : 34962
		},
		{
			"buffer" : 0,
			"byteOffset" : 3744,
			"byteLength" : 3744,
			"target" : 34962
		},
		{
			"buffer" : 0,
			"byteOffset" : 7488,
			"byteLength" : 3744,
			"target" : 34962
		},
		{
			"buffer" : 0,
			"byteOffset" : 11232,
			"byteLength" : 624,
			"target" : 34963
		}
	],
	"buffers" : [
		{
			"uri" : "B160011207901063C0.bin",
			"byteLength" : 11856
		}
	]
}
