{
	"asset" : {
		"generator" : "FME 2022.2.4.0",
		"version" : "2.0"
	},
	"materials" : [
		{
			"name" : "default_material",
			"pbrMetallicRoughness" : {
				"baseColorFactor" : [ 1, 1, 1, 1 ],
				"roughnessFactor" : 0.30000000000000004,
				"metallicFactor" : 0.5
			}
		}
	],
	"meshes" : [
		{
			"primitives" : [
				{
					"attributes" : {
						"NORMAL" : 1,
						"POSITION" : 0,
						"COLOR_0" : 2
					},
					"indices" : 3,
					"material" : 0,
					"mode" : 4
				}
			]
		}
	],
	"nodes" : [
		{
			"name" : "B343071510802063C0",
			"matrix" : [ 1, 0, 0, 0, 0, 0, -1, 0, 0, 1, 0, 0, 834310.9375, 114.48100280761719, -815106.5625, 1 ],
			"children" : [ 1 ]
		},
		{
			"mesh" : 0
		}
	],
	"scenes" : [
		{
			"nodes" : [ 0 ]
		}
	],
	"scene" : 0,
	"accessors" : [
		{
			"bufferView" : 0,
			"byteOffset" : 0,
			"componentType" : 5126,
			"count" : 438,
			"type" : "VEC3",
			"min" : [ -14.8994140625, -11.7119140625, 0 ],
			"max" : [ 14.8984375, 11.7109375, 3.5469970703125 ]
		},
		{
			"bufferView" : 1,
			"byteOffset" : 0,
			"componentType" : 5126,
			"count" : 438,
			"type" : "VEC3",
			"min" : [ -0.942422091960907, -0.9424749612808228, -1 ],
			"max" : [ 0.9441194534301758, 0.9643053412437439, 1 ]
		},
		{
			"bufferView" : 2,
			"byteOffset" : 0,
			"componentType" : 5126,
			"count" : 438,
			"type" : "VEC3"
		},
		{
			"bufferView" : 3,
			"byteOffset" : 0,
			"componentType" : 5123,
			"count" : 438,
			"type" : "SCALAR",
			"min" : [ 0 ],
			"max" : [ 437 ]
		}
	],
	"bufferViews" : [
		{
			"buffer" : 0,
			"byteOffset" : 0,
			"byteLength" : 5256,
			"target" : 34962
		},
		{
			"buffer" : 0,
			"byteOffset" : 5256,
			"byteLength" : 5256,
			"target" : 34962
		},
		{
			"buffer" : 0,
			"byteOffset" : 10512,
			"byteLength" : 5256,
			"target" : 34962
		},
		{
			"buffer" : 0,
			"byteOffset" : 15768,
			"byteLength" : 876,
			"target" : 34963
		}
	],
	"buffers" : [
		{
			"uri" : "B343071510802063C0.bin",
			"byteLength" : 16644
		}
	]
}
