{
	"asset" : {
		"generator" : "FME 2023.2.1.0",
		"version" : "2.0"
	},
	"materials" : [
		{
			"name" : "default_material",
			"pbrMetallicRoughness" : {
				"baseColorFactor" : [ 1, 1, 1, 1 ],
				"roughnessFactor" : 0.30000000000000004,
				"metallicFactor" : 0.5
			}
		}
	],
	"meshes" : [
		{
			"primitives" : [
				{
					"attributes" : {
						"NORMAL" : 1,
						"POSITION" : 0,
						"COLOR_0" : 2
					},
					"indices" : 3,
					"material" : 0,
					"mode" : 4
				}
			]
		}
	],
	"nodes" : [
		{
			"name" : "B353061519002063C0",
			"matrix" : [ 1, 0, 0, 0, 0, 0, -1, 0, 0, 1, 0, 0, 835305.6875, 54.0099983215332, -815191.3125, 1 ],
			"children" : [ 1 ]
		},
		{
			"mesh" : 0
		}
	],
	"scenes" : [
		{
			"nodes" : [ 0 ]
		}
	],
	"scene" : 0,
	"accessors" : [
		{
			"bufferView" : 0,
			"byteOffset" : 0,
			"componentType" : 5126,
			"count" : 291,
			"type" : "VEC3",
			"min" : [ -6.875, -7.6826171875, 0 ],
			"max" : [ 6.875, 7.6826171875, 11.525005340576172 ]
		},
		{
			"bufferView" : 1,
			"byteOffset" : 0,
			"componentType" : 5126,
			"count" : 291,
			"type" : "VEC3",
			"min" : [ -0.9124900698661804, -0.9192619919776917, -8.585596515331417e-5 ],
			"max" : [ 0.9993260502815247, 0.9273368716239929, 1 ]
		},
		{
			"bufferView" : 2,
			"byteOffset" : 0,
			"componentType" : 5126,
			"count" : 291,
			"type" : "VEC3"
		},
		{
			"bufferView" : 3,
			"byteOffset" : 0,
			"componentType" : 5123,
			"count" : 291,
			"type" : "SCALAR",
			"min" : [ 0 ],
			"max" : [ 290 ]
		}
	],
	"bufferViews" : [
		{
			"buffer" : 0,
			"byteOffset" : 0,
			"byteLength" : 3492,
			"target" : 34962
		},
		{
			"buffer" : 0,
			"byteOffset" : 3492,
			"byteLength" : 3492,
			"target" : 34962
		},
		{
			"buffer" : 0,
			"byteOffset" : 6984,
			"byteLength" : 3492,
			"target" : 34962
		},
		{
			"buffer" : 0,
			"byteOffset" : 10476,
			"byteLength" : 582,
			"target" : 34963
		}
	],
	"buffers" : [
		{
			"uri" : "B353061519002063C0.bin",
			"byteLength" : 11058
		}
	]
}
