{
	"asset" : {
		"generator" : "FME 2023.1.0.0",
		"version" : "2.0"
	},
	"materials" : [
		{
			"name" : "default_material",
			"pbrMetallicRoughness" : {
				"baseColorFactor" : [ 1, 1, 1, 1 ],
				"roughnessFactor" : 0.30000000000000004,
				"metallicFactor" : 0.5
			}
		}
	],
	"meshes" : [
		{
			"primitives" : [
				{
					"attributes" : {
						"NORMAL" : 1,
						"POSITION" : 0,
						"COLOR_0" : 2
					},
					"indices" : 3,
					"material" : 0,
					"mode" : 4
				}
			]
		}
	],
	"nodes" : [
		{
			"name" : "B348491500001063C0",
			"matrix" : [ 1, 0, 0, 0, 0, 0, -1, 0, 0, 1, 0, 0, 834869.8125, 149.00999450683594, -814983.375, 1 ],
			"children" : [ 1 ]
		},
		{
			"mesh" : 0
		}
	],
	"scenes" : [
		{
			"nodes" : [ 0 ]
		}
	],
	"scene" : 0,
	"accessors" : [
		{
			"bufferView" : 0,
			"byteOffset" : 0,
			"componentType" : 5126,
			"count" : 9258,
			"type" : "VEC3",
			"min" : [ -40.6357421875, -39.8564453125, 0 ],
			"max" : [ 40.634765625, 39.85546875, 28.010009765625 ]
		},
		{
			"bufferView" : 1,
			"byteOffset" : 0,
			"componentType" : 5126,
			"count" : 9258,
			"type" : "VEC3",
			"min" : [ -0.996900737285614, -1, -1 ],
			"max" : [ 0.9974269866943359, 1, 1 ]
		},
		{
			"bufferView" : 2,
			"byteOffset" : 0,
			"componentType" : 5126,
			"count" : 9258,
			"type" : "VEC3"
		},
		{
			"bufferView" : 3,
			"byteOffset" : 0,
			"componentType" : 5123,
			"count" : 9258,
			"type" : "SCALAR",
			"min" : [ 0 ],
			"max" : [ 9257 ]
		}
	],
	"bufferViews" : [
		{
			"buffer" : 0,
			"byteOffset" : 0,
			"byteLength" : 111096,
			"target" : 34962
		},
		{
			"buffer" : 0,
			"byteOffset" : 111096,
			"byteLength" : 111096,
			"target" : 34962
		},
		{
			"buffer" : 0,
			"byteOffset" : 222192,
			"byteLength" : 111096,
			"target" : 34962
		},
		{
			"buffer" : 0,
			"byteOffset" : 333288,
			"byteLength" : 18516,
			"target" : 34963
		}
	],
	"buffers" : [
		{
			"uri" : "B348491500001063C0.bin",
			"byteLength" : 351804
		}
	]
}
