{
	"asset" : {
		"generator" : "FME 2023.1.0.0",
		"version" : "2.0"
	},
	"materials" : [
		{
			"name" : "default_material",
			"pbrMetallicRoughness" : {
				"baseColorFactor" : [ 1, 1, 1, 1 ],
				"roughnessFactor" : 0.30000000000000004,
				"metallicFactor" : 0.5
			}
		}
	],
	"meshes" : [
		{
			"primitives" : [
				{
					"attributes" : {
						"NORMAL" : 1,
						"POSITION" : 0,
						"COLOR_0" : 2
					},
					"indices" : 3,
					"material" : 0,
					"mode" : 4
				}
			]
		}
	],
	"nodes" : [
		{
			"name" : "B356611516001063C0",
			"matrix" : [ 1, 0, 0, 0, 0, 0, -1, 0, 0, 1, 0, 0, 835662.1875, 5.886000156402588, -815161.5625, 1 ],
			"children" : [ 1 ]
		},
		{
			"mesh" : 0
		}
	],
	"scenes" : [
		{
			"nodes" : [ 0 ]
		}
	],
	"scene" : 0,
	"accessors" : [
		{
			"bufferView" : 0,
			"byteOffset" : 0,
			"componentType" : 5126,
			"count" : 777,
			"type" : "VEC3",
			"min" : [ -8.1337890625, -9.890625, 0 ],
			"max" : [ 8.1337890625, 9.890625, 40.933998107910156 ]
		},
		{
			"bufferView" : 1,
			"byteOffset" : 0,
			"componentType" : 5126,
			"count" : 777,
			"type" : "VEC3",
			"min" : [ -0.911317765712738, -0.8823529481887817, -1 ],
			"max" : [ 0.8755777478218079, 0.8781397342681885, 1 ]
		},
		{
			"bufferView" : 2,
			"byteOffset" : 0,
			"componentType" : 5126,
			"count" : 777,
			"type" : "VEC3"
		},
		{
			"bufferView" : 3,
			"byteOffset" : 0,
			"componentType" : 5123,
			"count" : 777,
			"type" : "SCALAR",
			"min" : [ 0 ],
			"max" : [ 776 ]
		}
	],
	"bufferViews" : [
		{
			"buffer" : 0,
			"byteOffset" : 0,
			"byteLength" : 9324,
			"target" : 34962
		},
		{
			"buffer" : 0,
			"byteOffset" : 9324,
			"byteLength" : 9324,
			"target" : 34962
		},
		{
			"buffer" : 0,
			"byteOffset" : 18648,
			"byteLength" : 9324,
			"target" : 34962
		},
		{
			"buffer" : 0,
			"byteOffset" : 27972,
			"byteLength" : 1554,
			"target" : 34963
		}
	],
	"buffers" : [
		{
			"uri" : "B356611516001063C0.bin",
			"byteLength" : 29526
		}
	]
}
