{
	"asset" : {
		"generator" : "FME 2023.1.0.0",
		"version" : "2.0"
	},
	"materials" : [
		{
			"name" : "default_material",
			"pbrMetallicRoughness" : {
				"baseColorFactor" : [ 1, 1, 1, 1 ],
				"roughnessFactor" : 0.30000000000000004,
				"metallicFactor" : 0.5
			}
		}
	],
	"meshes" : [
		{
			"primitives" : [
				{
					"attributes" : {
						"NORMAL" : 1,
						"POSITION" : 0,
						"COLOR_0" : 2
					},
					"indices" : 3,
					"material" : 0,
					"mode" : 4
				}
			]
		}
	],
	"nodes" : [
		{
			"name" : "B355561551901063C0",
			"matrix" : [ 1, 0, 0, 0, 0, 0, -1, 0, 0, 1, 0, 0, 835557.125, 20.884000778198242, -815518.0625, 1 ],
			"children" : [ 1 ]
		},
		{
			"mesh" : 0
		}
	],
	"scenes" : [
		{
			"nodes" : [ 0 ]
		}
	],
	"scene" : 0,
	"accessors" : [
		{
			"bufferView" : 0,
			"byteOffset" : 0,
			"componentType" : 5126,
			"count" : 2274,
			"type" : "VEC3",
			"min" : [ -15.7451171875, -18.8544921875, 0 ],
			"max" : [ 15.74609375, 18.8544921875, 106.21199798583984 ]
		},
		{
			"bufferView" : 1,
			"byteOffset" : 0,
			"componentType" : 5126,
			"count" : 2274,
			"type" : "VEC3",
			"min" : [ -0.9999648928642273, -0.9996333718299866, -1 ],
			"max" : [ 0.999952495098114, 0.9999639391899109, 1 ]
		},
		{
			"bufferView" : 2,
			"byteOffset" : 0,
			"componentType" : 5126,
			"count" : 2274,
			"type" : "VEC3"
		},
		{
			"bufferView" : 3,
			"byteOffset" : 0,
			"componentType" : 5123,
			"count" : 2274,
			"type" : "SCALAR",
			"min" : [ 0 ],
			"max" : [ 2273 ]
		}
	],
	"bufferViews" : [
		{
			"buffer" : 0,
			"byteOffset" : 0,
			"byteLength" : 27288,
			"target" : 34962
		},
		{
			"buffer" : 0,
			"byteOffset" : 27288,
			"byteLength" : 27288,
			"target" : 34962
		},
		{
			"buffer" : 0,
			"byteOffset" : 54576,
			"byteLength" : 27288,
			"target" : 34962
		},
		{
			"buffer" : 0,
			"byteOffset" : 81864,
			"byteLength" : 4548,
			"target" : 34963
		}
	],
	"buffers" : [
		{
			"uri" : "B355561551901063C0.bin",
			"byteLength" : 86412
		}
	]
}
