{
	"asset" : {
		"generator" : "FME 2023.1.0.0",
		"version" : "2.0"
	},
	"materials" : [
		{
			"name" : "default_material",
			"pbrMetallicRoughness" : {
				"baseColorFactor" : [ 1, 1, 1, 1 ],
				"roughnessFactor" : 0.30000000000000004,
				"metallicFactor" : 0.5
			}
		}
	],
	"meshes" : [
		{
			"primitives" : [
				{
					"attributes" : {
						"NORMAL" : 1,
						"POSITION" : 0,
						"COLOR_0" : 2
					},
					"indices" : 3,
					"material" : 0,
					"mode" : 4
				}
			]
		}
	],
	"nodes" : [
		{
			"name" : "B356751722601063C0",
			"matrix" : [ 1, 0, 0, 0, 0, 0, -1, 0, 0, 1, 0, 0, 835677.9375, 2.3411731719970703, -817231.0625, 1 ],
			"children" : [ 1 ]
		},
		{
			"mesh" : 0
		}
	],
	"scenes" : [
		{
			"nodes" : [ 0 ]
		}
	],
	"scene" : 0,
	"accessors" : [
		{
			"bufferView" : 0,
			"byteOffset" : 0,
			"componentType" : 5126,
			"count" : 12210,
			"type" : "VEC3",
			"min" : [ -29.4169921875, -30.2109375, 0 ],
			"max" : [ 29.40625, 30.1572265625, 17.644922256469727 ]
		},
		{
			"bufferView" : 1,
			"byteOffset" : 0,
			"componentType" : 5126,
			"count" : 12210,
			"type" : "VEC3",
			"min" : [ -1, -1, -1 ],
			"max" : [ 1, 1, 1 ]
		},
		{
			"bufferView" : 2,
			"byteOffset" : 0,
			"componentType" : 5126,
			"count" : 12210,
			"type" : "VEC3"
		},
		{
			"bufferView" : 3,
			"byteOffset" : 0,
			"componentType" : 5123,
			"count" : 12210,
			"type" : "SCALAR",
			"min" : [ 0 ],
			"max" : [ 12209 ]
		}
	],
	"bufferViews" : [
		{
			"buffer" : 0,
			"byteOffset" : 0,
			"byteLength" : 146520,
			"target" : 34962
		},
		{
			"buffer" : 0,
			"byteOffset" : 146520,
			"byteLength" : 146520,
			"target" : 34962
		},
		{
			"buffer" : 0,
			"byteOffset" : 293040,
			"byteLength" : 146520,
			"target" : 34962
		},
		{
			"buffer" : 0,
			"byteOffset" : 439560,
			"byteLength" : 24420,
			"target" : 34963
		}
	],
	"buffers" : [
		{
			"uri" : "B356751722601063C0.bin",
			"byteLength" : 463980
		}
	]
}
