{
	"asset" : {
		"generator" : "FME 2022.2.4.0",
		"version" : "2.0"
	},
	"materials" : [
		{
			"name" : "default_material",
			"pbrMetallicRoughness" : {
				"baseColorFactor" : [ 1, 1, 1, 1 ],
				"roughnessFactor" : 0.30000000000000004,
				"metallicFactor" : 0.5
			}
		}
	],
	"meshes" : [
		{
			"primitives" : [
				{
					"attributes" : {
						"NORMAL" : 1,
						"POSITION" : 0,
						"COLOR_0" : 2
					},
					"indices" : 3,
					"material" : 0,
					"mode" : 4
				}
			]
		}
	],
	"nodes" : [
		{
			"name" : "B338881566501063C0",
			"matrix" : [ 1, 0, 0, 0, 0, 0, -1, 0, 0, 1, 0, 0, 833887.875, 80.88201141357422, -815663.6875, 1 ],
			"children" : [ 1 ]
		},
		{
			"mesh" : 0
		}
	],
	"scenes" : [
		{
			"nodes" : [ 0 ]
		}
	],
	"scene" : 0,
	"accessors" : [
		{
			"bufferView" : 0,
			"byteOffset" : 0,
			"componentType" : 5126,
			"count" : 22326,
			"type" : "VEC3",
			"min" : [ -21.9453125, -22.341796875, 0 ],
			"max" : [ 21.9443359375, 22.3408203125, 103.31900787353516 ]
		},
		{
			"bufferView" : 1,
			"byteOffset" : 0,
			"componentType" : 5126,
			"count" : 22326,
			"type" : "VEC3",
			"min" : [ -0.9999904632568359, -0.9999973177909851, -1 ],
			"max" : [ 0.9999935626983643, 0.9999926090240479, 1 ]
		},
		{
			"bufferView" : 2,
			"byteOffset" : 0,
			"componentType" : 5126,
			"count" : 22326,
			"type" : "VEC3"
		},
		{
			"bufferView" : 3,
			"byteOffset" : 0,
			"componentType" : 5123,
			"count" : 22326,
			"type" : "SCALAR",
			"min" : [ 0 ],
			"max" : [ 22325 ]
		}
	],
	"bufferViews" : [
		{
			"buffer" : 0,
			"byteOffset" : 0,
			"byteLength" : 267912,
			"target" : 34962
		},
		{
			"buffer" : 0,
			"byteOffset" : 267912,
			"byteLength" : 267912,
			"target" : 34962
		},
		{
			"buffer" : 0,
			"byteOffset" : 535824,
			"byteLength" : 267912,
			"target" : 34962
		},
		{
			"buffer" : 0,
			"byteOffset" : 803736,
			"byteLength" : 44652,
			"target" : 34963
		}
	],
	"buffers" : [
		{
			"uri" : "B338881566501063C0.bin",
			"byteLength" : 848388
		}
	]
}
