{
	"asset" : {
		"generator" : "FME 2023.1.0.0",
		"version" : "2.0"
	},
	"materials" : [
		{
			"name" : "default_material",
			"pbrMetallicRoughness" : {
				"baseColorFactor" : [ 1, 1, 1, 1 ],
				"roughnessFactor" : 0.30000000000000004,
				"metallicFactor" : 0.5
			}
		}
	],
	"meshes" : [
		{
			"primitives" : [
				{
					"attributes" : {
						"NORMAL" : 1,
						"POSITION" : 0,
						"COLOR_0" : 2
					},
					"indices" : 3,
					"material" : 0,
					"mode" : 4
				}
			]
		}
	],
	"nodes" : [
		{
			"name" : "B340651564201063C0",
			"matrix" : [ 1, 0, 0, 0, 0, 0, -1, 0, 0, 1, 0, 0, 834072.375, 34.87200164794922, -815641.375, 1 ],
			"children" : [ 1 ]
		},
		{
			"mesh" : 0
		}
	],
	"scenes" : [
		{
			"nodes" : [ 0 ]
		}
	],
	"scene" : 0,
	"accessors" : [
		{
			"bufferView" : 0,
			"byteOffset" : 0,
			"componentType" : 5126,
			"count" : 165,
			"type" : "VEC3",
			"min" : [ -16.66015625, -12.05859375, 0 ],
			"max" : [ 16.6123046875, 12.103515625, 10.790996551513672 ]
		},
		{
			"bufferView" : 1,
			"byteOffset" : 0,
			"componentType" : 5126,
			"count" : 165,
			"type" : "VEC3",
			"min" : [ -0.8321568965911865, -0.8046196699142456, -0.006485028192400932 ],
			"max" : [ 0.8554554581642151, 0.7914557456970215, 1 ]
		},
		{
			"bufferView" : 2,
			"byteOffset" : 0,
			"componentType" : 5126,
			"count" : 165,
			"type" : "VEC3"
		},
		{
			"bufferView" : 3,
			"byteOffset" : 0,
			"componentType" : 5121,
			"count" : 165,
			"type" : "SCALAR",
			"min" : [ 0 ],
			"max" : [ 164 ]
		}
	],
	"bufferViews" : [
		{
			"buffer" : 0,
			"byteOffset" : 0,
			"byteLength" : 1980,
			"target" : 34962
		},
		{
			"buffer" : 0,
			"byteOffset" : 1980,
			"byteLength" : 1980,
			"target" : 34962
		},
		{
			"buffer" : 0,
			"byteOffset" : 3960,
			"byteLength" : 1980,
			"target" : 34962
		},
		{
			"buffer" : 0,
			"byteOffset" : 5940,
			"byteLength" : 165,
			"target" : 34963
		}
	],
	"buffers" : [
		{
			"uri" : "B340651564201063C0.bin",
			"byteLength" : 6105
		}
	]
}
