{
	"asset" : {
		"generator" : "FME 2023.1.0.0",
		"version" : "2.0"
	},
	"materials" : [
		{
			"name" : "default_material",
			"pbrMetallicRoughness" : {
				"baseColorFactor" : [ 1, 1, 1, 1 ],
				"roughnessFactor" : 0.30000000000000004,
				"metallicFactor" : 0.5
			}
		}
	],
	"meshes" : [
		{
			"primitives" : [
				{
					"attributes" : {
						"NORMAL" : 1,
						"POSITION" : 0,
						"COLOR_0" : 2
					},
					"indices" : 3,
					"material" : 0,
					"mode" : 4
				}
			]
		}
	],
	"nodes" : [
		{
			"name" : "B339551600602063C0",
			"matrix" : [ 1, 0, 0, 0, 0, 0, -1, 0, 0, 1, 0, 0, 833956.0625, 16.875, -816007.1875, 1 ],
			"children" : [ 1 ]
		},
		{
			"mesh" : 0
		}
	],
	"scenes" : [
		{
			"nodes" : [ 0 ]
		}
	],
	"scene" : 0,
	"accessors" : [
		{
			"bufferView" : 0,
			"byteOffset" : 0,
			"componentType" : 5126,
			"count" : 816,
			"type" : "VEC3",
			"min" : [ -11.3115234375, -11.8740234375, 0 ],
			"max" : [ 11.3115234375, 11.873046875, 16.529998779296875 ]
		},
		{
			"bufferView" : 1,
			"byteOffset" : 0,
			"componentType" : 5126,
			"count" : 816,
			"type" : "VEC3",
			"min" : [ -0.8095566630363464, -0.8097056746482849, -1 ],
			"max" : [ 0.9044981598854065, 0.9995802044868469, 1 ]
		},
		{
			"bufferView" : 2,
			"byteOffset" : 0,
			"componentType" : 5126,
			"count" : 816,
			"type" : "VEC3"
		},
		{
			"bufferView" : 3,
			"byteOffset" : 0,
			"componentType" : 5123,
			"count" : 816,
			"type" : "SCALAR",
			"min" : [ 0 ],
			"max" : [ 815 ]
		}
	],
	"bufferViews" : [
		{
			"buffer" : 0,
			"byteOffset" : 0,
			"byteLength" : 9792,
			"target" : 34962
		},
		{
			"buffer" : 0,
			"byteOffset" : 9792,
			"byteLength" : 9792,
			"target" : 34962
		},
		{
			"buffer" : 0,
			"byteOffset" : 19584,
			"byteLength" : 9792,
			"target" : 34962
		},
		{
			"buffer" : 0,
			"byteOffset" : 29376,
			"byteLength" : 1632,
			"target" : 34963
		}
	],
	"buffers" : [
		{
			"uri" : "B339551600602063C0.bin",
			"byteLength" : 31008
		}
	]
}
