{
	"asset" : {
		"generator" : "FME 2023.1.0.0",
		"version" : "2.0"
	},
	"images" : [
		{
			"uri" : "T36750150000106E12_001.jpg"
		}
	],
	"samplers" : [
		{
			"wrapS" : 10497,
			"wrapT" : 10497,
			"magFilter" : 9729,
			"minFilter" : 9986
		}
	],
	"textures" : [
		{
			"source" : 0,
			"sampler" : 0
		}
	],
	"materials" : [
		{
			"name" : "T36750150000106E12_001",
			"pbrMetallicRoughness" : {
				"baseColorTexture" : {
					"index" : 0,
					"texCoord" : 0
				},
				"roughnessFactor" : 0.984375,
				"metallicFactor" : 0.5
			}
		}
	],
	"meshes" : [
		{
			"primitives" : [
				{
					"attributes" : {
						"NORMAL" : 1,
						"POSITION" : 0,
						"TEXCOORD_0" : 2
					},
					"indices" : 3,
					"material" : 0,
					"mode" : 4
				}
			]
		}
	],
	"nodes" : [
		{
			"name" : "T36750150000106E12",
			"matrix" : [ 1, 0, 0, 0, 0, 0, -1, 0, 0, 1, 0, 0, 837125, 0.8560295104980469, -815300, 1 ],
			"children" : [ 1 ]
		},
		{
			"mesh" : 0
		}
	],
	"scenes" : [
		{
			"nodes" : [ 0 ]
		}
	],
	"scene" : 0,
	"accessors" : [
		{
			"bufferView" : 0,
			"byteOffset" : 0,
			"componentType" : 5126,
			"count" : 527702,
			"type" : "VEC3",
			"min" : [ -375.0517578125, -300.125, 0 ],
			"max" : [ 375.0000305175781, 300.0361328125, 66.8708267211914 ]
		},
		{
			"bufferView" : 1,
			"byteOffset" : 0,
			"componentType" : 5126,
			"count" : 527702,
			"type" : "VEC3",
			"min" : [ -0.9999999403953552, -0.999965488910675, -1 ],
			"max" : [ 0.9998968839645386, 0.9999996423721313, 1 ]
		},
		{
			"bufferView" : 2,
			"byteOffset" : 0,
			"componentType" : 5126,
			"count" : 527702,
			"type" : "VEC2",
			"min" : [ 0.00013339519500732422, 8.320808410644531e-5 ],
			"max" : [ 0.9998666048049927, 0.9999167919158936 ]
		},
		{
			"bufferView" : 3,
			"byteOffset" : 0,
			"componentType" : 5125,
			"count" : 577038,
			"type" : "SCALAR",
			"min" : [ 0 ],
			"max" : [ 527701 ]
		}
	],
	"bufferViews" : [
		{
			"buffer" : 0,
			"byteOffset" : 0,
			"byteLength" : 6332424,
			"target" : 34962
		},
		{
			"buffer" : 0,
			"byteOffset" : 6332424,
			"byteLength" : 6332424,
			"target" : 34962
		},
		{
			"buffer" : 0,
			"byteOffset" : 12664848,
			"byteLength" : 4221616,
			"target" : 34962
		},
		{
			"buffer" : 0,
			"byteOffset" : 16886464,
			"byteLength" : 2308152,
			"target" : 34963
		}
	],
	"buffers" : [
		{
			"uri" : "T36750150000106E12.bin",
			"byteLength" : 19194616
		}
	]
}
