{
	"asset" : {
		"generator" : "FME 2023.1.0.0",
		"version" : "2.0"
	},
	"materials" : [
		{
			"name" : "default_material",
			"pbrMetallicRoughness" : {
				"baseColorFactor" : [ 1, 1, 1, 1 ],
				"roughnessFactor" : 0.30000000000000004,
				"metallicFactor" : 0.5
			}
		}
	],
	"meshes" : [
		{
			"primitives" : [
				{
					"attributes" : {
						"NORMAL" : 1,
						"POSITION" : 0,
						"COLOR_0" : 2
					},
					"indices" : 3,
					"material" : 0,
					"mode" : 4
				}
			]
		}
	],
	"nodes" : [
		{
			"name" : "B357061533801063C0",
			"matrix" : [ 1, 0, 0, 0, 0, 0, -1, 0, 0, 1, 0, 0, 835702, 3.9820001125335693, -815339.1875, 1 ],
			"children" : [ 1 ]
		},
		{
			"mesh" : 0
		}
	],
	"scenes" : [
		{
			"nodes" : [ 0 ]
		}
	],
	"scene" : 0,
	"accessors" : [
		{
			"bufferView" : 0,
			"byteOffset" : 0,
			"componentType" : 5126,
			"count" : 2619,
			"type" : "VEC3",
			"min" : [ -9.9150390625, -10.240234375, 0 ],
			"max" : [ 9.9140625, 10.240234375, 45.6150016784668 ]
		},
		{
			"bufferView" : 1,
			"byteOffset" : 0,
			"componentType" : 5126,
			"count" : 2619,
			"type" : "VEC3",
			"min" : [ -0.9965457916259766, -0.9972066879272461, -1 ],
			"max" : [ 0.9968730211257935, 0.9974098205566406, 1 ]
		},
		{
			"bufferView" : 2,
			"byteOffset" : 0,
			"componentType" : 5126,
			"count" : 2619,
			"type" : "VEC3"
		},
		{
			"bufferView" : 3,
			"byteOffset" : 0,
			"componentType" : 5123,
			"count" : 2619,
			"type" : "SCALAR",
			"min" : [ 0 ],
			"max" : [ 2618 ]
		}
	],
	"bufferViews" : [
		{
			"buffer" : 0,
			"byteOffset" : 0,
			"byteLength" : 31428,
			"target" : 34962
		},
		{
			"buffer" : 0,
			"byteOffset" : 31428,
			"byteLength" : 31428,
			"target" : 34962
		},
		{
			"buffer" : 0,
			"byteOffset" : 62856,
			"byteLength" : 31428,
			"target" : 34962
		},
		{
			"buffer" : 0,
			"byteOffset" : 94284,
			"byteLength" : 5238,
			"target" : 34963
		}
	],
	"buffers" : [
		{
			"uri" : "B357061533801063C0.bin",
			"byteLength" : 99522
		}
	]
}
