{
	"asset" : {
		"generator" : "FME 2023.2.1.0",
		"version" : "2.0"
	},
	"materials" : [
		{
			"name" : "default_material",
			"pbrMetallicRoughness" : {
				"baseColorFactor" : [ 1, 1, 1, 1 ],
				"roughnessFactor" : 0.30000000000000004,
				"metallicFactor" : 0.5
			}
		}
	],
	"meshes" : [
		{
			"primitives" : [
				{
					"attributes" : {
						"NORMAL" : 1,
						"POSITION" : 0,
						"COLOR_0" : 2
					},
					"indices" : 3,
					"material" : 0,
					"mode" : 4
				}
			]
		}
	],
	"nodes" : [
		{
			"name" : "B169211446001062G0",
			"matrix" : [ 1, 0, 0, 0, 0, 0, -1, 0, 0, 1, 0, 0, 816921.125, 16.580799102783203, -814460.0625, 1 ],
			"children" : [ 1 ]
		},
		{
			"mesh" : 0
		}
	],
	"scenes" : [
		{
			"nodes" : [ 0 ]
		}
	],
	"scene" : 0,
	"accessors" : [
		{
			"bufferView" : 0,
			"byteOffset" : 0,
			"componentType" : 5126,
			"count" : 96,
			"type" : "VEC3",
			"min" : [ -2.4375, -2.5, 0 ],
			"max" : [ 2.375, 2.5, 3.747701644897461 ]
		},
		{
			"bufferView" : 1,
			"byteOffset" : 0,
			"componentType" : 5126,
			"count" : 96,
			"type" : "VEC3",
			"min" : [ -0.7454076409339905, -0.745976448059082, -0.0014067073352634907 ],
			"max" : [ 0.7455980181694031, 0.7519792318344116, 0.9999980330467224 ]
		},
		{
			"bufferView" : 2,
			"byteOffset" : 0,
			"componentType" : 5126,
			"count" : 96,
			"type" : "VEC3"
		},
		{
			"bufferView" : 3,
			"byteOffset" : 0,
			"componentType" : 5121,
			"count" : 96,
			"type" : "SCALAR",
			"min" : [ 0 ],
			"max" : [ 95 ]
		}
	],
	"bufferViews" : [
		{
			"buffer" : 0,
			"byteOffset" : 0,
			"byteLength" : 1152,
			"target" : 34962
		},
		{
			"buffer" : 0,
			"byteOffset" : 1152,
			"byteLength" : 1152,
			"target" : 34962
		},
		{
			"buffer" : 0,
			"byteOffset" : 2304,
			"byteLength" : 1152,
			"target" : 34962
		},
		{
			"buffer" : 0,
			"byteOffset" : 3456,
			"byteLength" : 96,
			"target" : 34963
		}
	],
	"buffers" : [
		{
			"uri" : "B169211446001062G0.bin",
			"byteLength" : 3552
		}
	]
}
