{
	"asset" : {
		"generator" : "FME 2023.1.0.0",
		"version" : "2.0"
	},
	"materials" : [
		{
			"name" : "default_material",
			"pbrMetallicRoughness" : {
				"baseColorFactor" : [ 1, 1, 1, 1 ],
				"roughnessFactor" : 0.30000000000000004,
				"metallicFactor" : 0.5
			}
		}
	],
	"meshes" : [
		{
			"primitives" : [
				{
					"attributes" : {
						"NORMAL" : 1,
						"POSITION" : 0,
						"COLOR_0" : 2
					},
					"indices" : 3,
					"material" : 0,
					"mode" : 4
				}
			]
		}
	],
	"nodes" : [
		{
			"name" : "B356701519601063C0",
			"matrix" : [ 1, 0, 0, 0, 0, 0, -1, 0, 0, 1, 0, 0, 835663.3125, 4.8379998207092285, -815196.375, 1 ],
			"children" : [ 1 ]
		},
		{
			"mesh" : 0
		}
	],
	"scenes" : [
		{
			"nodes" : [ 0 ]
		}
	],
	"scene" : 0,
	"accessors" : [
		{
			"bufferView" : 0,
			"byteOffset" : 0,
			"componentType" : 5126,
			"count" : 936,
			"type" : "VEC3",
			"min" : [ -11.9130859375, -10.771484375, 0 ],
			"max" : [ 11.9130859375, 10.7724609375, 41.236995697021484 ]
		},
		{
			"bufferView" : 1,
			"byteOffset" : 0,
			"componentType" : 5126,
			"count" : 936,
			"type" : "VEC3",
			"min" : [ -0.8894774317741394, -0.8607673645019531, -1 ],
			"max" : [ 0.8598244786262512, 0.8620758056640625, 1 ]
		},
		{
			"bufferView" : 2,
			"byteOffset" : 0,
			"componentType" : 5126,
			"count" : 936,
			"type" : "VEC3"
		},
		{
			"bufferView" : 3,
			"byteOffset" : 0,
			"componentType" : 5123,
			"count" : 936,
			"type" : "SCALAR",
			"min" : [ 0 ],
			"max" : [ 935 ]
		}
	],
	"bufferViews" : [
		{
			"buffer" : 0,
			"byteOffset" : 0,
			"byteLength" : 11232,
			"target" : 34962
		},
		{
			"buffer" : 0,
			"byteOffset" : 11232,
			"byteLength" : 11232,
			"target" : 34962
		},
		{
			"buffer" : 0,
			"byteOffset" : 22464,
			"byteLength" : 11232,
			"target" : 34962
		},
		{
			"buffer" : 0,
			"byteOffset" : 33696,
			"byteLength" : 1872,
			"target" : 34963
		}
	],
	"buffers" : [
		{
			"uri" : "B356701519601063C0.bin",
			"byteLength" : 35568
		}
	]
}
