{
	"asset" : {
		"generator" : "FME 2023.1.0.0",
		"version" : "2.0"
	},
	"materials" : [
		{
			"name" : "default_material",
			"pbrMetallicRoughness" : {
				"baseColorFactor" : [ 1, 1, 1, 1 ],
				"roughnessFactor" : 0.30000000000000004,
				"metallicFactor" : 0.5
			}
		}
	],
	"meshes" : [
		{
			"primitives" : [
				{
					"attributes" : {
						"NORMAL" : 1,
						"POSITION" : 0,
						"COLOR_0" : 2
					},
					"indices" : 3,
					"material" : 0,
					"mode" : 4
				}
			]
		}
	],
	"nodes" : [
		{
			"name" : "B351361549301063C0",
			"matrix" : [ 1, 0, 0, 0, 0, 0, -1, 0, 0, 1, 0, 0, 835136.25, 6.0709991455078125, -815492.8125, 1 ],
			"children" : [ 1 ]
		},
		{
			"mesh" : 0
		}
	],
	"scenes" : [
		{
			"nodes" : [ 0 ]
		}
	],
	"scene" : 0,
	"accessors" : [
		{
			"bufferView" : 0,
			"byteOffset" : 0,
			"componentType" : 5126,
			"count" : 210,
			"type" : "VEC3",
			"min" : [ -1.5224609375, -1.5224609375, 0 ],
			"max" : [ 1.5224609375, 1.5224609375, 5.289999961853027 ]
		},
		{
			"bufferView" : 1,
			"byteOffset" : 0,
			"componentType" : 5126,
			"count" : 210,
			"type" : "VEC3",
			"min" : [ -0.9915043711662292, -0.9920873641967773, 0 ],
			"max" : [ 0.9914627075195312, 0.9915043711662292, 1 ]
		},
		{
			"bufferView" : 2,
			"byteOffset" : 0,
			"componentType" : 5126,
			"count" : 210,
			"type" : "VEC3"
		},
		{
			"bufferView" : 3,
			"byteOffset" : 0,
			"componentType" : 5121,
			"count" : 210,
			"type" : "SCALAR",
			"min" : [ 0 ],
			"max" : [ 209 ]
		}
	],
	"bufferViews" : [
		{
			"buffer" : 0,
			"byteOffset" : 0,
			"byteLength" : 2520,
			"target" : 34962
		},
		{
			"buffer" : 0,
			"byteOffset" : 2520,
			"byteLength" : 2520,
			"target" : 34962
		},
		{
			"buffer" : 0,
			"byteOffset" : 5040,
			"byteLength" : 2520,
			"target" : 34962
		},
		{
			"buffer" : 0,
			"byteOffset" : 7560,
			"byteLength" : 210,
			"target" : 34963
		}
	],
	"buffers" : [
		{
			"uri" : "B351361549301063C0.bin",
			"byteLength" : 7770
		}
	]
}
