{
	"asset" : {
		"generator" : "FME 2023.2.2.0",
		"version" : "2.0"
	},
	"materials" : [
		{
			"name" : "default_material",
			"pbrMetallicRoughness" : {
				"baseColorFactor" : [ 1, 1, 1, 1 ],
				"roughnessFactor" : 0.30000000000000004,
				"metallicFactor" : 0.5
			}
		}
	],
	"meshes" : [
		{
			"primitives" : [
				{
					"attributes" : {
						"NORMAL" : 1,
						"POSITION" : 0,
						"COLOR_0" : 2
					},
					"indices" : 3,
					"material" : 0,
					"mode" : 4
				}
			]
		}
	],
	"nodes" : [
		{
			"name" : "B178761297701062G0",
			"matrix" : [ 1, 0, 0, 0, 0, 0, -1, 0, 0, 1, 0, 0, 817875.875, 86.45079803466797, -812976.5, 1 ],
			"children" : [ 1 ]
		},
		{
			"mesh" : 0
		}
	],
	"scenes" : [
		{
			"nodes" : [ 0 ]
		}
	],
	"scene" : 0,
	"accessors" : [
		{
			"bufferView" : 0,
			"byteOffset" : 0,
			"componentType" : 5126,
			"count" : 48,
			"type" : "VEC3",
			"min" : [ -3.875, -3.4375, 0 ],
			"max" : [ 3.8125, 3.5, 2.3889007568359375 ]
		},
		{
			"bufferView" : 1,
			"byteOffset" : 0,
			"componentType" : 5126,
			"count" : 48,
			"type" : "VEC3",
			"min" : [ -0.8921767473220825, -0.892173707485199, 0 ],
			"max" : [ 0.8921764492988586, 0.8921739459037781, 1 ]
		},
		{
			"bufferView" : 2,
			"byteOffset" : 0,
			"componentType" : 5126,
			"count" : 48,
			"type" : "VEC3"
		},
		{
			"bufferView" : 3,
			"byteOffset" : 0,
			"componentType" : 5121,
			"count" : 48,
			"type" : "SCALAR",
			"min" : [ 0 ],
			"max" : [ 47 ]
		}
	],
	"bufferViews" : [
		{
			"buffer" : 0,
			"byteOffset" : 0,
			"byteLength" : 576,
			"target" : 34962
		},
		{
			"buffer" : 0,
			"byteOffset" : 576,
			"byteLength" : 576,
			"target" : 34962
		},
		{
			"buffer" : 0,
			"byteOffset" : 1152,
			"byteLength" : 576,
			"target" : 34962
		},
		{
			"buffer" : 0,
			"byteOffset" : 1728,
			"byteLength" : 48,
			"target" : 34963
		}
	],
	"buffers" : [
		{
			"uri" : "B178761297701062G0.bin",
			"byteLength" : 1776
		}
	]
}
