{
	"asset" : {
		"generator" : "FME 2023.2.1.0",
		"version" : "2.0"
	},
	"materials" : [
		{
			"name" : "default_material",
			"pbrMetallicRoughness" : {
				"baseColorFactor" : [ 1, 1, 1, 1 ],
				"roughnessFactor" : 0.30000000000000004,
				"metallicFactor" : 0.5
			}
		}
	],
	"meshes" : [
		{
			"primitives" : [
				{
					"attributes" : {
						"NORMAL" : 1,
						"POSITION" : 0,
						"COLOR_0" : 2
					},
					"indices" : 3,
					"material" : 0,
					"mode" : 4
				}
			]
		}
	],
	"nodes" : [
		{
			"name" : "B337231601402063C0",
			"matrix" : [ 1, 0, 0, 0, 0, 0, -1, 0, 0, 1, 0, 0, 833721.9375, 57.75799560546875, -816015.25, 1 ],
			"children" : [ 1 ]
		},
		{
			"mesh" : 0
		}
	],
	"scenes" : [
		{
			"nodes" : [ 0 ]
		}
	],
	"scene" : 0,
	"accessors" : [
		{
			"bufferView" : 0,
			"byteOffset" : 0,
			"componentType" : 5126,
			"count" : 1386,
			"type" : "VEC3",
			"min" : [ -7.0576171875, -7.0361328125, 0 ],
			"max" : [ 7.033203125, 7.046875, 73.36300659179688 ]
		},
		{
			"bufferView" : 1,
			"byteOffset" : 0,
			"componentType" : 5126,
			"count" : 1386,
			"type" : "VEC3",
			"min" : [ -0.999964714050293, -0.9996107220649719, -1 ],
			"max" : [ 0.9971300363540649, 0.999811589717865, 1 ]
		},
		{
			"bufferView" : 2,
			"byteOffset" : 0,
			"componentType" : 5126,
			"count" : 1386,
			"type" : "VEC3"
		},
		{
			"bufferView" : 3,
			"byteOffset" : 0,
			"componentType" : 5123,
			"count" : 1386,
			"type" : "SCALAR",
			"min" : [ 0 ],
			"max" : [ 1385 ]
		}
	],
	"bufferViews" : [
		{
			"buffer" : 0,
			"byteOffset" : 0,
			"byteLength" : 16632,
			"target" : 34962
		},
		{
			"buffer" : 0,
			"byteOffset" : 16632,
			"byteLength" : 16632,
			"target" : 34962
		},
		{
			"buffer" : 0,
			"byteOffset" : 33264,
			"byteLength" : 16632,
			"target" : 34962
		},
		{
			"buffer" : 0,
			"byteOffset" : 49896,
			"byteLength" : 2772,
			"target" : 34963
		}
	],
	"buffers" : [
		{
			"uri" : "B337231601402063C0.bin",
			"byteLength" : 52668
		}
	]
}
