{
	"asset" : {
		"generator" : "FME 2023.1.0.0",
		"version" : "2.0"
	},
	"materials" : [
		{
			"name" : "default_material",
			"pbrMetallicRoughness" : {
				"baseColorFactor" : [ 1, 1, 1, 1 ],
				"roughnessFactor" : 0.30000000000000004,
				"metallicFactor" : 0.5
			}
		}
	],
	"meshes" : [
		{
			"primitives" : [
				{
					"attributes" : {
						"NORMAL" : 1,
						"POSITION" : 0,
						"COLOR_0" : 2
					},
					"indices" : 3,
					"material" : 0,
					"mode" : 4
				}
			]
		}
	],
	"nodes" : [
		{
			"name" : "B335971632701063C0",
			"matrix" : [ 1, 0, 0, 0, 0, 0, -1, 0, 0, 1, 0, 0, 833597.75, 11.093999862670898, -816328.6875, 1 ],
			"children" : [ 1 ]
		},
		{
			"mesh" : 0
		}
	],
	"scenes" : [
		{
			"nodes" : [ 0 ]
		}
	],
	"scene" : 0,
	"accessors" : [
		{
			"bufferView" : 0,
			"byteOffset" : 0,
			"componentType" : 5126,
			"count" : 768,
			"type" : "VEC3",
			"min" : [ -8.5244140625, -9.4765625, 0 ],
			"max" : [ 8.5244140625, 9.4765625, 25.48200035095215 ]
		},
		{
			"bufferView" : 1,
			"byteOffset" : 0,
			"componentType" : 5126,
			"count" : 768,
			"type" : "VEC3",
			"min" : [ -0.840243935585022, -0.8404591679573059, -1 ],
			"max" : [ 0.840243935585022, 0.8404396176338196, 1 ]
		},
		{
			"bufferView" : 2,
			"byteOffset" : 0,
			"componentType" : 5126,
			"count" : 768,
			"type" : "VEC3"
		},
		{
			"bufferView" : 3,
			"byteOffset" : 0,
			"componentType" : 5123,
			"count" : 768,
			"type" : "SCALAR",
			"min" : [ 0 ],
			"max" : [ 767 ]
		}
	],
	"bufferViews" : [
		{
			"buffer" : 0,
			"byteOffset" : 0,
			"byteLength" : 9216,
			"target" : 34962
		},
		{
			"buffer" : 0,
			"byteOffset" : 9216,
			"byteLength" : 9216,
			"target" : 34962
		},
		{
			"buffer" : 0,
			"byteOffset" : 18432,
			"byteLength" : 9216,
			"target" : 34962
		},
		{
			"buffer" : 0,
			"byteOffset" : 27648,
			"byteLength" : 1536,
			"target" : 34963
		}
	],
	"buffers" : [
		{
			"uri" : "B335971632701063C0.bin",
			"byteLength" : 29184
		}
	]
}
