{
	"asset" : {
		"generator" : "FME 2023.2.1.0",
		"version" : "2.0"
	},
	"materials" : [
		{
			"name" : "default_material",
			"pbrMetallicRoughness" : {
				"baseColorFactor" : [ 1, 1, 1, 1 ],
				"roughnessFactor" : 0.30000000000000004,
				"metallicFactor" : 0.5
			}
		}
	],
	"meshes" : [
		{
			"primitives" : [
				{
					"attributes" : {
						"NORMAL" : 1,
						"POSITION" : 0,
						"COLOR_0" : 2
					},
					"indices" : 3,
					"material" : 0,
					"mode" : 4
				}
			]
		}
	],
	"nodes" : [
		{
			"name" : "B341151584801063C0",
			"matrix" : [ 1, 0, 0, 0, 0, 0, -1, 0, 0, 1, 0, 0, 834111.5625, 9.329999923706055, -815854.375, 1 ],
			"children" : [ 1 ]
		},
		{
			"mesh" : 0
		}
	],
	"scenes" : [
		{
			"nodes" : [ 0 ]
		}
	],
	"scene" : 0,
	"accessors" : [
		{
			"bufferView" : 0,
			"byteOffset" : 0,
			"componentType" : 5126,
			"count" : 3840,
			"type" : "VEC3",
			"min" : [ -20.4423828125, -17.38671875, 0 ],
			"max" : [ 20.4423828125, 17.38671875, 84.57896423339844 ]
		},
		{
			"bufferView" : 1,
			"byteOffset" : 0,
			"componentType" : 5126,
			"count" : 3840,
			"type" : "VEC3",
			"min" : [ -0.9996342658996582, -0.9999856948852539, -1 ],
			"max" : [ 0.9999997615814209, 0.9995573163032532, 1 ]
		},
		{
			"bufferView" : 2,
			"byteOffset" : 0,
			"componentType" : 5126,
			"count" : 3840,
			"type" : "VEC3"
		},
		{
			"bufferView" : 3,
			"byteOffset" : 0,
			"componentType" : 5123,
			"count" : 3840,
			"type" : "SCALAR",
			"min" : [ 0 ],
			"max" : [ 3839 ]
		}
	],
	"bufferViews" : [
		{
			"buffer" : 0,
			"byteOffset" : 0,
			"byteLength" : 46080,
			"target" : 34962
		},
		{
			"buffer" : 0,
			"byteOffset" : 46080,
			"byteLength" : 46080,
			"target" : 34962
		},
		{
			"buffer" : 0,
			"byteOffset" : 92160,
			"byteLength" : 46080,
			"target" : 34962
		},
		{
			"buffer" : 0,
			"byteOffset" : 138240,
			"byteLength" : 7680,
			"target" : 34963
		}
	],
	"buffers" : [
		{
			"uri" : "B341151584801063C0.bin",
			"byteLength" : 145920
		}
	]
}
