{
	"asset" : {
		"generator" : "FME 2023.2.1.0",
		"version" : "2.0"
	},
	"materials" : [
		{
			"name" : "default_material",
			"pbrMetallicRoughness" : {
				"baseColorFactor" : [ 1, 1, 1, 1 ],
				"roughnessFactor" : 0.30000000000000004,
				"metallicFactor" : 0.5
			}
		}
	],
	"meshes" : [
		{
			"primitives" : [
				{
					"attributes" : {
						"NORMAL" : 1,
						"POSITION" : 0,
						"COLOR_0" : 2
					},
					"indices" : 3,
					"material" : 0,
					"mode" : 4
				}
			]
		}
	],
	"nodes" : [
		{
			"name" : "B172451451301062G1",
			"matrix" : [ 1, 0, 0, 0, 0, 0, -1, 0, 0, 1, 0, 0, 817244.625, 8.914299964904785, -814513.6875, 1 ],
			"children" : [ 1 ]
		},
		{
			"mesh" : 0
		}
	],
	"scenes" : [
		{
			"nodes" : [ 0 ]
		}
	],
	"scene" : 0,
	"accessors" : [
		{
			"bufferView" : 0,
			"byteOffset" : 0,
			"componentType" : 5126,
			"count" : 84,
			"type" : "VEC3",
			"min" : [ -2.5625, -11.875, 0 ],
			"max" : [ 2.5, 11.875, 3.7817001342773438 ]
		},
		{
			"bufferView" : 1,
			"byteOffset" : 0,
			"componentType" : 5126,
			"count" : 84,
			"type" : "VEC3",
			"min" : [ -0.9999334216117859, -0.9999156594276428, -0.9810968637466431 ],
			"max" : [ 0.9999312162399292, 0.9999128580093384, 0.9969441890716553 ]
		},
		{
			"bufferView" : 2,
			"byteOffset" : 0,
			"componentType" : 5126,
			"count" : 84,
			"type" : "VEC3"
		},
		{
			"bufferView" : 3,
			"byteOffset" : 0,
			"componentType" : 5121,
			"count" : 84,
			"type" : "SCALAR",
			"min" : [ 0 ],
			"max" : [ 83 ]
		}
	],
	"bufferViews" : [
		{
			"buffer" : 0,
			"byteOffset" : 0,
			"byteLength" : 1008,
			"target" : 34962
		},
		{
			"buffer" : 0,
			"byteOffset" : 1008,
			"byteLength" : 1008,
			"target" : 34962
		},
		{
			"buffer" : 0,
			"byteOffset" : 2016,
			"byteLength" : 1008,
			"target" : 34962
		},
		{
			"buffer" : 0,
			"byteOffset" : 3024,
			"byteLength" : 84,
			"target" : 34963
		}
	],
	"buffers" : [
		{
			"uri" : "B172451451301062G1.bin",
			"byteLength" : 3108
		}
	]
}
