{
	"asset" : {
		"generator" : "FME 2022.2.4.0",
		"version" : "2.0"
	},
	"materials" : [
		{
			"name" : "default_material",
			"pbrMetallicRoughness" : {
				"baseColorFactor" : [ 1, 1, 1, 1 ],
				"roughnessFactor" : 0.30000000000000004,
				"metallicFactor" : 0.5
			}
		}
	],
	"meshes" : [
		{
			"primitives" : [
				{
					"attributes" : {
						"NORMAL" : 1,
						"POSITION" : 0,
						"COLOR_0" : 2
					},
					"indices" : 3,
					"material" : 0,
					"mode" : 4
				}
			]
		}
	],
	"nodes" : [
		{
			"name" : "B346201582201063C0",
			"matrix" : [ 1, 0, 0, 0, 0, 0, -1, 0, 0, 1, 0, 0, 834620.25, 4.324999809265137, -815822.375, 1 ],
			"children" : [ 1 ]
		},
		{
			"mesh" : 0
		}
	],
	"scenes" : [
		{
			"nodes" : [ 0 ]
		}
	],
	"scene" : 0,
	"accessors" : [
		{
			"bufferView" : 0,
			"byteOffset" : 0,
			"componentType" : 5126,
			"count" : 132,
			"type" : "VEC3",
			"min" : [ -8.125, -4, 0 ],
			"max" : [ 8.125, 4, 4.666999816894531 ]
		},
		{
			"bufferView" : 1,
			"byteOffset" : 0,
			"componentType" : 5126,
			"count" : 132,
			"type" : "VEC3",
			"min" : [ -0.9668150544166565, -0.9622749090194702, -1 ],
			"max" : [ 0.9665952920913696, 0.9622865915298462, 1 ]
		},
		{
			"bufferView" : 2,
			"byteOffset" : 0,
			"componentType" : 5126,
			"count" : 132,
			"type" : "VEC3"
		},
		{
			"bufferView" : 3,
			"byteOffset" : 0,
			"componentType" : 5121,
			"count" : 132,
			"type" : "SCALAR",
			"min" : [ 0 ],
			"max" : [ 131 ]
		}
	],
	"bufferViews" : [
		{
			"buffer" : 0,
			"byteOffset" : 0,
			"byteLength" : 1584,
			"target" : 34962
		},
		{
			"buffer" : 0,
			"byteOffset" : 1584,
			"byteLength" : 1584,
			"target" : 34962
		},
		{
			"buffer" : 0,
			"byteOffset" : 3168,
			"byteLength" : 1584,
			"target" : 34962
		},
		{
			"buffer" : 0,
			"byteOffset" : 4752,
			"byteLength" : 132,
			"target" : 34963
		}
	],
	"buffers" : [
		{
			"uri" : "B346201582201063C0.bin",
			"byteLength" : 4884
		}
	]
}
