{
	"asset" : {
		"generator" : "FME 2023.2.1.0",
		"version" : "2.0"
	},
	"materials" : [
		{
			"name" : "default_material",
			"pbrMetallicRoughness" : {
				"baseColorFactor" : [ 1, 1, 1, 1 ],
				"roughnessFactor" : 0.30000000000000004,
				"metallicFactor" : 0.5
			}
		}
	],
	"meshes" : [
		{
			"primitives" : [
				{
					"attributes" : {
						"NORMAL" : 1,
						"POSITION" : 0,
						"COLOR_0" : 2
					},
					"indices" : 3,
					"material" : 0,
					"mode" : 4
				}
			]
		}
	],
	"nodes" : [
		{
			"name" : "B337471625301063C0",
			"matrix" : [ 1, 0, 0, 0, 0, 0, -1, 0, 0, 1, 0, 0, 833754.3125, 2.596000909805298, -816256.625, 1 ],
			"children" : [ 1 ]
		},
		{
			"mesh" : 0
		}
	],
	"scenes" : [
		{
			"nodes" : [ 0 ]
		}
	],
	"scene" : 0,
	"accessors" : [
		{
			"bufferView" : 0,
			"byteOffset" : 0,
			"componentType" : 5126,
			"count" : 1008,
			"type" : "VEC3",
			"min" : [ -11.998046875, -10.5458984375, 0 ],
			"max" : [ 11.9970703125, 10.5458984375, 28.23699951171875 ]
		},
		{
			"bufferView" : 1,
			"byteOffset" : 0,
			"componentType" : 5126,
			"count" : 1008,
			"type" : "VEC3",
			"min" : [ -0.9906812310218811, -0.911644697189331, -1 ],
			"max" : [ 0.9905685782432556, 0.9112752676010132, 1 ]
		},
		{
			"bufferView" : 2,
			"byteOffset" : 0,
			"componentType" : 5126,
			"count" : 1008,
			"type" : "VEC3"
		},
		{
			"bufferView" : 3,
			"byteOffset" : 0,
			"componentType" : 5123,
			"count" : 1008,
			"type" : "SCALAR",
			"min" : [ 0 ],
			"max" : [ 1007 ]
		}
	],
	"bufferViews" : [
		{
			"buffer" : 0,
			"byteOffset" : 0,
			"byteLength" : 12096,
			"target" : 34962
		},
		{
			"buffer" : 0,
			"byteOffset" : 12096,
			"byteLength" : 12096,
			"target" : 34962
		},
		{
			"buffer" : 0,
			"byteOffset" : 24192,
			"byteLength" : 12096,
			"target" : 34962
		},
		{
			"buffer" : 0,
			"byteOffset" : 36288,
			"byteLength" : 2016,
			"target" : 34963
		}
	],
	"buffers" : [
		{
			"uri" : "B337471625301063C0.bin",
			"byteLength" : 38304
		}
	]
}
