{
	"asset" : {
		"generator" : "FME 2023.2.1.0",
		"version" : "2.0"
	},
	"materials" : [
		{
			"name" : "default_material",
			"pbrMetallicRoughness" : {
				"baseColorFactor" : [ 1, 1, 1, 1 ],
				"roughnessFactor" : 0.30000000000000004,
				"metallicFactor" : 0.5
			}
		}
	],
	"meshes" : [
		{
			"primitives" : [
				{
					"attributes" : {
						"NORMAL" : 1,
						"POSITION" : 0,
						"COLOR_0" : 2
					},
					"indices" : 3,
					"material" : 0,
					"mode" : 4
				}
			]
		}
	],
	"nodes" : [
		{
			"name" : "B339391570101063C0",
			"matrix" : [ 1, 0, 0, 0, 0, 0, -1, 0, 0, 1, 0, 0, 833936.9375, 67.8280029296875, -815700.25, 1 ],
			"children" : [ 1 ]
		},
		{
			"mesh" : 0
		}
	],
	"scenes" : [
		{
			"nodes" : [ 0 ]
		}
	],
	"scene" : 0,
	"accessors" : [
		{
			"bufferView" : 0,
			"byteOffset" : 0,
			"componentType" : 5126,
			"count" : 1734,
			"type" : "VEC3",
			"min" : [ -18.9140625, -18.2275390625, 0 ],
			"max" : [ 18.9140625, 18.2265625, 97.30099487304688 ]
		},
		{
			"bufferView" : 1,
			"byteOffset" : 0,
			"componentType" : 5126,
			"count" : 1734,
			"type" : "VEC3",
			"min" : [ -0.893054723739624, -0.986393928527832, -1 ],
			"max" : [ 0.889817476272583, 0.8837381601333618, 1 ]
		},
		{
			"bufferView" : 2,
			"byteOffset" : 0,
			"componentType" : 5126,
			"count" : 1734,
			"type" : "VEC3"
		},
		{
			"bufferView" : 3,
			"byteOffset" : 0,
			"componentType" : 5123,
			"count" : 1734,
			"type" : "SCALAR",
			"min" : [ 0 ],
			"max" : [ 1733 ]
		}
	],
	"bufferViews" : [
		{
			"buffer" : 0,
			"byteOffset" : 0,
			"byteLength" : 20808,
			"target" : 34962
		},
		{
			"buffer" : 0,
			"byteOffset" : 20808,
			"byteLength" : 20808,
			"target" : 34962
		},
		{
			"buffer" : 0,
			"byteOffset" : 41616,
			"byteLength" : 20808,
			"target" : 34962
		},
		{
			"buffer" : 0,
			"byteOffset" : 62424,
			"byteLength" : 3468,
			"target" : 34963
		}
	],
	"buffers" : [
		{
			"uri" : "B339391570101063C0.bin",
			"byteLength" : 65892
		}
	]
}
