{
	"asset" : {
		"generator" : "FME 2023.1.0.0",
		"version" : "2.0"
	},
	"materials" : [
		{
			"name" : "default_material",
			"pbrMetallicRoughness" : {
				"baseColorFactor" : [ 1, 1, 1, 1 ],
				"roughnessFactor" : 0.30000000000000004,
				"metallicFactor" : 0.5
			}
		}
	],
	"meshes" : [
		{
			"primitives" : [
				{
					"attributes" : {
						"NORMAL" : 1,
						"POSITION" : 0,
						"COLOR_0" : 2
					},
					"indices" : 3,
					"material" : 0,
					"mode" : 4
				}
			]
		}
	],
	"nodes" : [
		{
			"name" : "B334431597402063C0",
			"matrix" : [ 1, 0, 0, 0, 0, 0, -1, 0, 0, 1, 0, 0, 833441.3125, 72.6920166015625, -815977.625, 1 ],
			"children" : [ 1 ]
		},
		{
			"mesh" : 0
		}
	],
	"scenes" : [
		{
			"nodes" : [ 0 ]
		}
	],
	"scene" : 0,
	"accessors" : [
		{
			"bufferView" : 0,
			"byteOffset" : 0,
			"componentType" : 5126,
			"count" : 1020,
			"type" : "VEC3",
			"min" : [ -18.447265625, -19, 0 ],
			"max" : [ 18.4462890625, 19.0009765625, 6.586997985839844 ]
		},
		{
			"bufferView" : 1,
			"byteOffset" : 0,
			"componentType" : 5126,
			"count" : 1020,
			"type" : "VEC3",
			"min" : [ -0.9998275637626648, -0.9903678297996521, -0.40412822365760803 ],
			"max" : [ 0.9998413324356079, 0.9903619289398193, 1 ]
		},
		{
			"bufferView" : 2,
			"byteOffset" : 0,
			"componentType" : 5126,
			"count" : 1020,
			"type" : "VEC3"
		},
		{
			"bufferView" : 3,
			"byteOffset" : 0,
			"componentType" : 5123,
			"count" : 1020,
			"type" : "SCALAR",
			"min" : [ 0 ],
			"max" : [ 1019 ]
		}
	],
	"bufferViews" : [
		{
			"buffer" : 0,
			"byteOffset" : 0,
			"byteLength" : 12240,
			"target" : 34962
		},
		{
			"buffer" : 0,
			"byteOffset" : 12240,
			"byteLength" : 12240,
			"target" : 34962
		},
		{
			"buffer" : 0,
			"byteOffset" : 24480,
			"byteLength" : 12240,
			"target" : 34962
		},
		{
			"buffer" : 0,
			"byteOffset" : 36720,
			"byteLength" : 2040,
			"target" : 34963
		}
	],
	"buffers" : [
		{
			"uri" : "B334431597402063C0.bin",
			"byteLength" : 38760
		}
	]
}
