{
	"asset" : {
		"generator" : "FME 2022.2.4.0",
		"version" : "2.0"
	},
	"materials" : [
		{
			"name" : "default_material",
			"pbrMetallicRoughness" : {
				"baseColorFactor" : [ 1, 1, 1, 1 ],
				"roughnessFactor" : 0.30000000000000004,
				"metallicFactor" : 0.5
			}
		}
	],
	"meshes" : [
		{
			"primitives" : [
				{
					"attributes" : {
						"NORMAL" : 1,
						"POSITION" : 0,
						"COLOR_0" : 2
					},
					"indices" : 3,
					"material" : 0,
					"mode" : 4
				}
			]
		}
	],
	"nodes" : [
		{
			"name" : "B346401525201063C0",
			"matrix" : [ 1, 0, 0, 0, 0, 0, -1, 0, 0, 1, 0, 0, 834640.625, 47.49599838256836, -815252.0625, 1 ],
			"children" : [ 1 ]
		},
		{
			"mesh" : 0
		}
	],
	"scenes" : [
		{
			"nodes" : [ 0 ]
		}
	],
	"scene" : 0,
	"accessors" : [
		{
			"bufferView" : 0,
			"byteOffset" : 0,
			"componentType" : 5126,
			"count" : 228,
			"type" : "VEC3",
			"min" : [ -5.10546875, -1.6220703125, 0 ],
			"max" : [ 5.10546875, 1.6220703125, 5.381000518798828 ]
		},
		{
			"bufferView" : 1,
			"byteOffset" : 0,
			"componentType" : 5126,
			"count" : 228,
			"type" : "VEC3",
			"min" : [ -0.8577448129653931, -0.9999423623085022, 0 ],
			"max" : [ 0.767093300819397, 0.9992371201515198, 1 ]
		},
		{
			"bufferView" : 2,
			"byteOffset" : 0,
			"componentType" : 5126,
			"count" : 228,
			"type" : "VEC3"
		},
		{
			"bufferView" : 3,
			"byteOffset" : 0,
			"componentType" : 5121,
			"count" : 228,
			"type" : "SCALAR",
			"min" : [ 0 ],
			"max" : [ 227 ]
		}
	],
	"bufferViews" : [
		{
			"buffer" : 0,
			"byteOffset" : 0,
			"byteLength" : 2736,
			"target" : 34962
		},
		{
			"buffer" : 0,
			"byteOffset" : 2736,
			"byteLength" : 2736,
			"target" : 34962
		},
		{
			"buffer" : 0,
			"byteOffset" : 5472,
			"byteLength" : 2736,
			"target" : 34962
		},
		{
			"buffer" : 0,
			"byteOffset" : 8208,
			"byteLength" : 228,
			"target" : 34963
		}
	],
	"buffers" : [
		{
			"uri" : "B346401525201063C0.bin",
			"byteLength" : 8436
		}
	]
}
