{
	"asset" : {
		"generator" : "FME 2023.1.0.0",
		"version" : "2.0"
	},
	"materials" : [
		{
			"name" : "default_material",
			"pbrMetallicRoughness" : {
				"baseColorFactor" : [ 1, 1, 1, 1 ],
				"roughnessFactor" : 0.30000000000000004,
				"metallicFactor" : 0.5
			}
		}
	],
	"meshes" : [
		{
			"primitives" : [
				{
					"attributes" : {
						"NORMAL" : 1,
						"POSITION" : 0,
						"COLOR_0" : 2
					},
					"indices" : 3,
					"material" : 0,
					"mode" : 4
				}
			]
		}
	],
	"nodes" : [
		{
			"name" : "B339461506401063C0",
			"matrix" : [ 1, 0, 0, 0, 0, 0, -1, 0, 0, 1, 0, 0, 833946.4375, 121.25401306152344, -815068.75, 1 ],
			"children" : [ 1 ]
		},
		{
			"mesh" : 0
		}
	],
	"scenes" : [
		{
			"nodes" : [ 0 ]
		}
	],
	"scene" : 0,
	"accessors" : [
		{
			"bufferView" : 0,
			"byteOffset" : 0,
			"componentType" : 5126,
			"count" : 348,
			"type" : "VEC3",
			"min" : [ -11.2294921875, -12.75, 0 ],
			"max" : [ 11.228515625, 12.75, 14.268997192382812 ]
		},
		{
			"bufferView" : 1,
			"byteOffset" : 0,
			"componentType" : 5126,
			"count" : 348,
			"type" : "VEC3",
			"min" : [ -0.8136149048805237, -0.8159841299057007, -1 ],
			"max" : [ 0.8128759860992432, 0.8134486079216003, 1 ]
		},
		{
			"bufferView" : 2,
			"byteOffset" : 0,
			"componentType" : 5126,
			"count" : 348,
			"type" : "VEC3"
		},
		{
			"bufferView" : 3,
			"byteOffset" : 0,
			"componentType" : 5123,
			"count" : 348,
			"type" : "SCALAR",
			"min" : [ 0 ],
			"max" : [ 347 ]
		}
	],
	"bufferViews" : [
		{
			"buffer" : 0,
			"byteOffset" : 0,
			"byteLength" : 4176,
			"target" : 34962
		},
		{
			"buffer" : 0,
			"byteOffset" : 4176,
			"byteLength" : 4176,
			"target" : 34962
		},
		{
			"buffer" : 0,
			"byteOffset" : 8352,
			"byteLength" : 4176,
			"target" : 34962
		},
		{
			"buffer" : 0,
			"byteOffset" : 12528,
			"byteLength" : 696,
			"target" : 34963
		}
	],
	"buffers" : [
		{
			"uri" : "B339461506401063C0.bin",
			"byteLength" : 13224
		}
	]
}
