{
	"asset" : {
		"generator" : "FME 2022.2.4.0",
		"version" : "2.0"
	},
	"materials" : [
		{
			"name" : "default_material",
			"pbrMetallicRoughness" : {
				"baseColorFactor" : [ 1, 1, 1, 1 ],
				"roughnessFactor" : 0.30000000000000004,
				"metallicFactor" : 0.5
			}
		}
	],
	"meshes" : [
		{
			"primitives" : [
				{
					"attributes" : {
						"NORMAL" : 1,
						"POSITION" : 0,
						"COLOR_0" : 2
					},
					"indices" : 3,
					"material" : 0,
					"mode" : 4
				}
			]
		}
	],
	"nodes" : [
		{
			"name" : "B340611581301063C0",
			"matrix" : [ 1, 0, 0, 0, 0, 0, -1, 0, 0, 1, 0, 0, 834061.875, 33.19999694824219, -815812.5, 1 ],
			"children" : [ 1 ]
		},
		{
			"mesh" : 0
		}
	],
	"scenes" : [
		{
			"nodes" : [ 0 ]
		}
	],
	"scene" : 0,
	"accessors" : [
		{
			"bufferView" : 0,
			"byteOffset" : 0,
			"componentType" : 5126,
			"count" : 2739,
			"type" : "VEC3",
			"min" : [ -7.0126953125, -7.75, 0 ],
			"max" : [ 7.013671875, 7.7490234375, 63.34199523925781 ]
		},
		{
			"bufferView" : 1,
			"byteOffset" : 0,
			"componentType" : 5126,
			"count" : 2739,
			"type" : "VEC3",
			"min" : [ -0.9998648166656494, -0.9917906522750854, -1 ],
			"max" : [ 0.9989075064659119, 0.9930593371391296, 1 ]
		},
		{
			"bufferView" : 2,
			"byteOffset" : 0,
			"componentType" : 5126,
			"count" : 2739,
			"type" : "VEC3"
		},
		{
			"bufferView" : 3,
			"byteOffset" : 0,
			"componentType" : 5123,
			"count" : 2739,
			"type" : "SCALAR",
			"min" : [ 0 ],
			"max" : [ 2738 ]
		}
	],
	"bufferViews" : [
		{
			"buffer" : 0,
			"byteOffset" : 0,
			"byteLength" : 32868,
			"target" : 34962
		},
		{
			"buffer" : 0,
			"byteOffset" : 32868,
			"byteLength" : 32868,
			"target" : 34962
		},
		{
			"buffer" : 0,
			"byteOffset" : 65736,
			"byteLength" : 32868,
			"target" : 34962
		},
		{
			"buffer" : 0,
			"byteOffset" : 98604,
			"byteLength" : 5478,
			"target" : 34963
		}
	],
	"buffers" : [
		{
			"uri" : "B340611581301063C0.bin",
			"byteLength" : 104082
		}
	]
}
