{
	"asset" : {
		"generator" : "FME 2023.2.1.0",
		"version" : "2.0"
	},
	"materials" : [
		{
			"name" : "default_material",
			"pbrMetallicRoughness" : {
				"baseColorFactor" : [ 1, 1, 1, 1 ],
				"roughnessFactor" : 0.30000000000000004,
				"metallicFactor" : 0.5
			}
		}
	],
	"meshes" : [
		{
			"primitives" : [
				{
					"attributes" : {
						"NORMAL" : 1,
						"POSITION" : 0,
						"COLOR_0" : 2
					},
					"indices" : 3,
					"material" : 0,
					"mode" : 4
				}
			]
		}
	],
	"nodes" : [
		{
			"name" : "B337761601201063C0",
			"matrix" : [ 1, 0, 0, 0, 0, 0, -1, 0, 0, 1, 0, 0, 833774.625, 34.707000732421875, -816009.5625, 1 ],
			"children" : [ 1 ]
		},
		{
			"mesh" : 0
		}
	],
	"scenes" : [
		{
			"nodes" : [ 0 ]
		}
	],
	"scene" : 0,
	"accessors" : [
		{
			"bufferView" : 0,
			"byteOffset" : 0,
			"componentType" : 5126,
			"count" : 411,
			"type" : "VEC3",
			"min" : [ -6.7138671875, -7.3115234375, 0 ],
			"max" : [ 6.646484375, 7.291015625, 24.792999267578125 ]
		},
		{
			"bufferView" : 1,
			"byteOffset" : 0,
			"componentType" : 5126,
			"count" : 411,
			"type" : "VEC3",
			"min" : [ -0.8610939979553223, -0.9659829139709473, -1 ],
			"max" : [ 0.8608925342559814, 0.8484126329421997, 1 ]
		},
		{
			"bufferView" : 2,
			"byteOffset" : 0,
			"componentType" : 5126,
			"count" : 411,
			"type" : "VEC3"
		},
		{
			"bufferView" : 3,
			"byteOffset" : 0,
			"componentType" : 5123,
			"count" : 411,
			"type" : "SCALAR",
			"min" : [ 0 ],
			"max" : [ 410 ]
		}
	],
	"bufferViews" : [
		{
			"buffer" : 0,
			"byteOffset" : 0,
			"byteLength" : 4932,
			"target" : 34962
		},
		{
			"buffer" : 0,
			"byteOffset" : 4932,
			"byteLength" : 4932,
			"target" : 34962
		},
		{
			"buffer" : 0,
			"byteOffset" : 9864,
			"byteLength" : 4932,
			"target" : 34962
		},
		{
			"buffer" : 0,
			"byteOffset" : 14796,
			"byteLength" : 822,
			"target" : 34963
		}
	],
	"buffers" : [
		{
			"uri" : "B337761601201063C0.bin",
			"byteLength" : 15618
		}
	]
}
