{
	"asset" : {
		"generator" : "FME 2023.2.2.0",
		"version" : "2.0"
	},
	"materials" : [
		{
			"name" : "default_material",
			"pbrMetallicRoughness" : {
				"baseColorFactor" : [ 1, 1, 1, 1 ],
				"roughnessFactor" : 0.30000000000000004,
				"metallicFactor" : 0.5
			}
		}
	],
	"meshes" : [
		{
			"primitives" : [
				{
					"attributes" : {
						"NORMAL" : 1,
						"POSITION" : 0,
						"COLOR_0" : 2
					},
					"indices" : 3,
					"material" : 0,
					"mode" : 4
				}
			]
		}
	],
	"nodes" : [
		{
			"name" : "B167631447301062G0",
			"matrix" : [ 1, 0, 0, 0, 0, 0, -1, 0, 0, 1, 0, 0, 816762.75, 20.04949951171875, -814471.25, 1 ],
			"children" : [ 1 ]
		},
		{
			"mesh" : 0
		}
	],
	"scenes" : [
		{
			"nodes" : [ 0 ]
		}
	],
	"scene" : 0,
	"accessors" : [
		{
			"bufferView" : 0,
			"byteOffset" : 0,
			"componentType" : 5126,
			"count" : 153,
			"type" : "VEC3",
			"min" : [ -5.0625, -5.0625, 0 ],
			"max" : [ 5, 5.125, 4.067100524902344 ]
		},
		{
			"bufferView" : 1,
			"byteOffset" : 0,
			"componentType" : 5126,
			"count" : 153,
			"type" : "VEC3",
			"min" : [ -0.996712863445282, -0.99671471118927, -1 ],
			"max" : [ 0.9967129230499268, 0.9967142343521118, 1 ]
		},
		{
			"bufferView" : 2,
			"byteOffset" : 0,
			"componentType" : 5126,
			"count" : 153,
			"type" : "VEC3"
		},
		{
			"bufferView" : 3,
			"byteOffset" : 0,
			"componentType" : 5121,
			"count" : 153,
			"type" : "SCALAR",
			"min" : [ 0 ],
			"max" : [ 152 ]
		}
	],
	"bufferViews" : [
		{
			"buffer" : 0,
			"byteOffset" : 0,
			"byteLength" : 1836,
			"target" : 34962
		},
		{
			"buffer" : 0,
			"byteOffset" : 1836,
			"byteLength" : 1836,
			"target" : 34962
		},
		{
			"buffer" : 0,
			"byteOffset" : 3672,
			"byteLength" : 1836,
			"target" : 34962
		},
		{
			"buffer" : 0,
			"byteOffset" : 5508,
			"byteLength" : 153,
			"target" : 34963
		}
	],
	"buffers" : [
		{
			"uri" : "B167631447301062G0.bin",
			"byteLength" : 5661
		}
	]
}
