{"asset":{"generator":"FME 2023.2.1.0","version":"2.0"},"materials":[{"name":"T26250228000106E11_001","pbrMetallicRoughness":{"roughnessFactor":0.984375,"metallicFactor":0.5}}],"meshes":[{"primitives":[{"attributes":{"NORMAL":1,"POSITION":0,"TEXCOORD_0":2},"indices":3,"material":0,"mode":4}]}],"nodes":[{"name":"T26250228000106E11","matrix":[1,0,0,0,0,0,-1,0,0,1,0,0,826625,2.720989227294922,-823100,1],"children":[1]},{"mesh":0}],"scenes":[{"nodes":[0]}],"scene":0,"accessors":[{"bufferView":0,"byteOffset":0,"componentType":5126,"count":12569,"type":"VEC3","min":[-375,-300,0],"max":[375,300,58.81779098510742]},{"bufferView":1,"byteOffset":0,"componentType":5126,"count":12569,"type":"VEC3","min":[-0.9885944724082947,-0.9889164566993713,-1],"max":[0.9914799332618713,0.9955587983131409,1]},{"bufferView":2,"byteOffset":0,"componentType":5126,"count":12569,"type":"VEC2","min":[6.654858589172363e-05,8.314847946166992e-05],"max":[0.9999334812164307,0.9999168515205383]},{"bufferView":3,"byteOffset":0,"componentType":5123,"count":12852,"type":"SCALAR","min":[0],"max":[12568]}],"bufferViews":[{"buffer":0,"byteOffset":0,"byteLength":150828,"target":34962},{"buffer":0,"byteOffset":150828,"byteLength":150828,"target":34962},{"buffer":0,"byteOffset":301656,"byteLength":100552,"target":34962},{"buffer":0,"byteOffset":402208,"byteLength":25704,"target":34963}],"buffers":[{"uri":"T26250228000106E11.bin","byteLength":427912}]}