{
	"asset" : {
		"generator" : "FME 2023.1.0.0",
		"version" : "2.0"
	},
	"materials" : [
		{
			"name" : "default_material",
			"pbrMetallicRoughness" : {
				"baseColorFactor" : [ 1, 1, 1, 1 ],
				"roughnessFactor" : 0.30000000000000004,
				"metallicFactor" : 0.5
			}
		}
	],
	"meshes" : [
		{
			"primitives" : [
				{
					"attributes" : {
						"NORMAL" : 1,
						"POSITION" : 0,
						"COLOR_0" : 2
					},
					"indices" : 3,
					"material" : 0,
					"mode" : 4
				}
			]
		}
	],
	"nodes" : [
		{
			"name" : "B353341537101063C0",
			"matrix" : [ 1, 0, 0, 0, 0, 0, -1, 0, 0, 1, 0, 0, 835334.1875, 6.831999778747559, -815371.0625, 1 ],
			"children" : [ 1 ]
		},
		{
			"mesh" : 0
		}
	],
	"scenes" : [
		{
			"nodes" : [ 0 ]
		}
	],
	"scene" : 0,
	"accessors" : [
		{
			"bufferView" : 0,
			"byteOffset" : 0,
			"componentType" : 5126,
			"count" : 63,
			"type" : "VEC3",
			"min" : [ -2.033203125, -1.982421875, 0 ],
			"max" : [ 2.0322265625, 1.9814453125, 15.45300006866455 ]
		},
		{
			"bufferView" : 1,
			"byteOffset" : 0,
			"componentType" : 5126,
			"count" : 63,
			"type" : "VEC3",
			"min" : [ -0.8126673698425293, -0.8263937830924988, -0.0005989857600070536 ],
			"max" : [ 0.8246110081672668, 0.8133776187896729, 1 ]
		},
		{
			"bufferView" : 2,
			"byteOffset" : 0,
			"componentType" : 5126,
			"count" : 63,
			"type" : "VEC3"
		},
		{
			"bufferView" : 3,
			"byteOffset" : 0,
			"componentType" : 5121,
			"count" : 63,
			"type" : "SCALAR",
			"min" : [ 0 ],
			"max" : [ 62 ]
		}
	],
	"bufferViews" : [
		{
			"buffer" : 0,
			"byteOffset" : 0,
			"byteLength" : 756,
			"target" : 34962
		},
		{
			"buffer" : 0,
			"byteOffset" : 756,
			"byteLength" : 756,
			"target" : 34962
		},
		{
			"buffer" : 0,
			"byteOffset" : 1512,
			"byteLength" : 756,
			"target" : 34962
		},
		{
			"buffer" : 0,
			"byteOffset" : 2268,
			"byteLength" : 63,
			"target" : 34963
		}
	],
	"buffers" : [
		{
			"uri" : "B353341537101063C0.bin",
			"byteLength" : 2331
		}
	]
}
