{
	"asset" : {
		"generator" : "FME 2023.2.1.0",
		"version" : "2.0"
	},
	"materials" : [
		{
			"name" : "default_material",
			"pbrMetallicRoughness" : {
				"baseColorFactor" : [ 1, 1, 1, 1 ],
				"roughnessFactor" : 0.30000000000000004,
				"metallicFactor" : 0.5
			}
		}
	],
	"meshes" : [
		{
			"primitives" : [
				{
					"attributes" : {
						"NORMAL" : 1,
						"POSITION" : 0,
						"COLOR_0" : 2
					},
					"indices" : 3,
					"material" : 0,
					"mode" : 4
				}
			]
		}
	],
	"nodes" : [
		{
			"name" : "B184061503801062G0",
			"matrix" : [ 1, 0, 0, 0, 0, 0, -1, 0, 0, 1, 0, 0, 818407.625, 18.325000762939453, -815037.75, 1 ],
			"children" : [ 1 ]
		},
		{
			"mesh" : 0
		}
	],
	"scenes" : [
		{
			"nodes" : [ 0 ]
		}
	],
	"scene" : 0,
	"accessors" : [
		{
			"bufferView" : 0,
			"byteOffset" : 0,
			"componentType" : 5126,
			"count" : 117,
			"type" : "VEC3",
			"min" : [ -1.75, -1.875, 0 ],
			"max" : [ 1.8125, 1.9375, 5.141698837280273 ]
		},
		{
			"bufferView" : 1,
			"byteOffset" : 0,
			"componentType" : 5126,
			"count" : 117,
			"type" : "VEC3",
			"min" : [ -0.9584718942642212, -0.9532505869865417, -1 ],
			"max" : [ 0.9391924738883972, 0.958471417427063, 1 ]
		},
		{
			"bufferView" : 2,
			"byteOffset" : 0,
			"componentType" : 5126,
			"count" : 117,
			"type" : "VEC3"
		},
		{
			"bufferView" : 3,
			"byteOffset" : 0,
			"componentType" : 5121,
			"count" : 117,
			"type" : "SCALAR",
			"min" : [ 0 ],
			"max" : [ 116 ]
		}
	],
	"bufferViews" : [
		{
			"buffer" : 0,
			"byteOffset" : 0,
			"byteLength" : 1404,
			"target" : 34962
		},
		{
			"buffer" : 0,
			"byteOffset" : 1404,
			"byteLength" : 1404,
			"target" : 34962
		},
		{
			"buffer" : 0,
			"byteOffset" : 2808,
			"byteLength" : 1404,
			"target" : 34962
		},
		{
			"buffer" : 0,
			"byteOffset" : 4212,
			"byteLength" : 117,
			"target" : 34963
		}
	],
	"buffers" : [
		{
			"uri" : "B184061503801062G0.bin",
			"byteLength" : 4329
		}
	]
}
