{
	"asset" : {
		"generator" : "FME 2023.1.0.0",
		"version" : "2.0"
	},
	"materials" : [
		{
			"name" : "default_material",
			"pbrMetallicRoughness" : {
				"baseColorFactor" : [ 1, 1, 1, 1 ],
				"roughnessFactor" : 0.30000000000000004,
				"metallicFactor" : 0.5
			}
		}
	],
	"meshes" : [
		{
			"primitives" : [
				{
					"attributes" : {
						"NORMAL" : 1,
						"POSITION" : 0,
						"COLOR_0" : 2
					},
					"indices" : 3,
					"material" : 0,
					"mode" : 4
				}
			]
		}
	],
	"nodes" : [
		{
			"name" : "B332491657602063C0",
			"matrix" : [ 1, 0, 0, 0, 0, 0, -1, 0, 0, 1, 0, 0, 833248.5625, 3.5439999103546143, -816572.375, 1 ],
			"children" : [ 1 ]
		},
		{
			"mesh" : 0
		}
	],
	"scenes" : [
		{
			"nodes" : [ 0 ]
		}
	],
	"scene" : 0,
	"accessors" : [
		{
			"bufferView" : 0,
			"byteOffset" : 0,
			"componentType" : 5126,
			"count" : 1206,
			"type" : "VEC3",
			"min" : [ -6.3046875, -15.04296875, 0 ],
			"max" : [ 6.3046875, 15.04296875, 16.10999870300293 ]
		},
		{
			"bufferView" : 1,
			"byteOffset" : 0,
			"componentType" : 5126,
			"count" : 1206,
			"type" : "VEC3",
			"min" : [ -0.9997689127922058, -0.998423159122467, -1 ],
			"max" : [ 0.9997481107711792, 0.9985334277153015, 1 ]
		},
		{
			"bufferView" : 2,
			"byteOffset" : 0,
			"componentType" : 5126,
			"count" : 1206,
			"type" : "VEC3"
		},
		{
			"bufferView" : 3,
			"byteOffset" : 0,
			"componentType" : 5123,
			"count" : 1206,
			"type" : "SCALAR",
			"min" : [ 0 ],
			"max" : [ 1205 ]
		}
	],
	"bufferViews" : [
		{
			"buffer" : 0,
			"byteOffset" : 0,
			"byteLength" : 14472,
			"target" : 34962
		},
		{
			"buffer" : 0,
			"byteOffset" : 14472,
			"byteLength" : 14472,
			"target" : 34962
		},
		{
			"buffer" : 0,
			"byteOffset" : 28944,
			"byteLength" : 14472,
			"target" : 34962
		},
		{
			"buffer" : 0,
			"byteOffset" : 43416,
			"byteLength" : 2412,
			"target" : 34963
		}
	],
	"buffers" : [
		{
			"uri" : "B332491657602063C0.bin",
			"byteLength" : 45828
		}
	]
}
