{
	"asset" : {
		"generator" : "FME 2023.1.0.0",
		"version" : "2.0"
	},
	"materials" : [
		{
			"name" : "default_material",
			"pbrMetallicRoughness" : {
				"baseColorFactor" : [ 1, 1, 1, 1 ],
				"roughnessFactor" : 0.30000000000000004,
				"metallicFactor" : 0.5
			}
		}
	],
	"meshes" : [
		{
			"primitives" : [
				{
					"attributes" : {
						"NORMAL" : 1,
						"POSITION" : 0,
						"COLOR_0" : 2
					},
					"indices" : 3,
					"material" : 0,
					"mode" : 4
				}
			]
		}
	],
	"nodes" : [
		{
			"name" : "B340071585501063C0",
			"matrix" : [ 1, 0, 0, 0, 0, 0, -1, 0, 0, 1, 0, 0, 834010.9375, 33.52299880981445, -815853.25, 1 ],
			"children" : [ 1 ]
		},
		{
			"mesh" : 0
		}
	],
	"scenes" : [
		{
			"nodes" : [ 0 ]
		}
	],
	"scene" : 0,
	"accessors" : [
		{
			"bufferView" : 0,
			"byteOffset" : 0,
			"componentType" : 5126,
			"count" : 480,
			"type" : "VEC3",
			"min" : [ -6.580078125, -4.8818359375, 0 ],
			"max" : [ 6.5791015625, 4.8818359375, 46.599002838134766 ]
		},
		{
			"bufferView" : 1,
			"byteOffset" : 0,
			"componentType" : 5126,
			"count" : 480,
			"type" : "VEC3",
			"min" : [ -0.9922779202461243, -0.9999797940254211, -1 ],
			"max" : [ 0.9918355345726013, 0.9999954700469971, 1 ]
		},
		{
			"bufferView" : 2,
			"byteOffset" : 0,
			"componentType" : 5126,
			"count" : 480,
			"type" : "VEC3"
		},
		{
			"bufferView" : 3,
			"byteOffset" : 0,
			"componentType" : 5123,
			"count" : 480,
			"type" : "SCALAR",
			"min" : [ 0 ],
			"max" : [ 479 ]
		}
	],
	"bufferViews" : [
		{
			"buffer" : 0,
			"byteOffset" : 0,
			"byteLength" : 5760,
			"target" : 34962
		},
		{
			"buffer" : 0,
			"byteOffset" : 5760,
			"byteLength" : 5760,
			"target" : 34962
		},
		{
			"buffer" : 0,
			"byteOffset" : 11520,
			"byteLength" : 5760,
			"target" : 34962
		},
		{
			"buffer" : 0,
			"byteOffset" : 17280,
			"byteLength" : 960,
			"target" : 34963
		}
	],
	"buffers" : [
		{
			"uri" : "B340071585501063C0.bin",
			"byteLength" : 18240
		}
	]
}
