{
	"asset" : {
		"generator" : "FME 2023.2.2.0",
		"version" : "2.0"
	},
	"materials" : [
		{
			"name" : "default_material",
			"pbrMetallicRoughness" : {
				"baseColorFactor" : [ 1, 1, 1, 1 ],
				"roughnessFactor" : 0.30000000000000004,
				"metallicFactor" : 0.5
			}
		}
	],
	"meshes" : [
		{
			"primitives" : [
				{
					"attributes" : {
						"NORMAL" : 1,
						"POSITION" : 0,
						"COLOR_0" : 2
					},
					"indices" : 3,
					"material" : 0,
					"mode" : 4
				}
			]
		}
	],
	"nodes" : [
		{
			"name" : "B164061266101062G0",
			"matrix" : [ 1, 0, 0, 0, 0, 0, -1, 0, 0, 1, 0, 0, 816406.125, 58.179500579833984, -812660.5625, 1 ],
			"children" : [ 1 ]
		},
		{
			"mesh" : 0
		}
	],
	"scenes" : [
		{
			"nodes" : [ 0 ]
		}
	],
	"scene" : 0,
	"accessors" : [
		{
			"bufferView" : 0,
			"byteOffset" : 0,
			"componentType" : 5126,
			"count" : 513,
			"type" : "VEC3",
			"min" : [ -6.3125, -5.1875, 0 ],
			"max" : [ 6.375, 5.1875, 8.449298858642578 ]
		},
		{
			"bufferView" : 1,
			"byteOffset" : 0,
			"componentType" : 5126,
			"count" : 513,
			"type" : "VEC3",
			"min" : [ -0.9720193147659302, -0.9723303318023682, -1 ],
			"max" : [ 0.9680677056312561, 0.9750447273254395, 1 ]
		},
		{
			"bufferView" : 2,
			"byteOffset" : 0,
			"componentType" : 5126,
			"count" : 513,
			"type" : "VEC3"
		},
		{
			"bufferView" : 3,
			"byteOffset" : 0,
			"componentType" : 5123,
			"count" : 513,
			"type" : "SCALAR",
			"min" : [ 0 ],
			"max" : [ 512 ]
		}
	],
	"bufferViews" : [
		{
			"buffer" : 0,
			"byteOffset" : 0,
			"byteLength" : 6156,
			"target" : 34962
		},
		{
			"buffer" : 0,
			"byteOffset" : 6156,
			"byteLength" : 6156,
			"target" : 34962
		},
		{
			"buffer" : 0,
			"byteOffset" : 12312,
			"byteLength" : 6156,
			"target" : 34962
		},
		{
			"buffer" : 0,
			"byteOffset" : 18468,
			"byteLength" : 1026,
			"target" : 34963
		}
	],
	"buffers" : [
		{
			"uri" : "B164061266101062G0.bin",
			"byteLength" : 19494
		}
	]
}
