{
	"asset" : {
		"generator" : "FME 2023.2.2.0",
		"version" : "2.0"
	},
	"materials" : [
		{
			"name" : "default_material",
			"pbrMetallicRoughness" : {
				"baseColorFactor" : [ 1, 1, 1, 1 ],
				"roughnessFactor" : 0.30000000000000004,
				"metallicFactor" : 0.5
			}
		}
	],
	"meshes" : [
		{
			"primitives" : [
				{
					"attributes" : {
						"NORMAL" : 1,
						"POSITION" : 0,
						"COLOR_0" : 2
					},
					"indices" : 3,
					"material" : 0,
					"mode" : 4
				}
			]
		}
	],
	"nodes" : [
		{
			"name" : "B179881318401062G0",
			"matrix" : [ 1, 0, 0, 0, 0, 0, -1, 0, 0, 1, 0, 0, 817988.25, 113.81449890136719, -813183.125, 1 ],
			"children" : [ 1 ]
		},
		{
			"mesh" : 0
		}
	],
	"scenes" : [
		{
			"nodes" : [ 0 ]
		}
	],
	"scene" : 0,
	"accessors" : [
		{
			"bufferView" : 0,
			"byteOffset" : 0,
			"componentType" : 5126,
			"count" : 195,
			"type" : "VEC3",
			"min" : [ -6.3125, -6.0625, 0 ],
			"max" : [ 6.3125, 6.0625, 4.596397399902344 ]
		},
		{
			"bufferView" : 1,
			"byteOffset" : 0,
			"componentType" : 5126,
			"count" : 195,
			"type" : "VEC3",
			"min" : [ -0.8491172194480896, -0.8491156101226807, -0.9805817604064941 ],
			"max" : [ 0.8491180539131165, 0.8491157293319702, 1 ]
		},
		{
			"bufferView" : 2,
			"byteOffset" : 0,
			"componentType" : 5126,
			"count" : 195,
			"type" : "VEC3"
		},
		{
			"bufferView" : 3,
			"byteOffset" : 0,
			"componentType" : 5121,
			"count" : 195,
			"type" : "SCALAR",
			"min" : [ 0 ],
			"max" : [ 194 ]
		}
	],
	"bufferViews" : [
		{
			"buffer" : 0,
			"byteOffset" : 0,
			"byteLength" : 2340,
			"target" : 34962
		},
		{
			"buffer" : 0,
			"byteOffset" : 2340,
			"byteLength" : 2340,
			"target" : 34962
		},
		{
			"buffer" : 0,
			"byteOffset" : 4680,
			"byteLength" : 2340,
			"target" : 34962
		},
		{
			"buffer" : 0,
			"byteOffset" : 7020,
			"byteLength" : 195,
			"target" : 34963
		}
	],
	"buffers" : [
		{
			"uri" : "B179881318401062G0.bin",
			"byteLength" : 7215
		}
	]
}
