{
	"asset" : {
		"generator" : "FME 2023.2.1.0",
		"version" : "2.0"
	},
	"materials" : [
		{
			"name" : "default_material",
			"pbrMetallicRoughness" : {
				"baseColorFactor" : [ 1, 1, 1, 1 ],
				"roughnessFactor" : 0.30000000000000004,
				"metallicFactor" : 0.5
			}
		}
	],
	"meshes" : [
		{
			"primitives" : [
				{
					"attributes" : {
						"NORMAL" : 1,
						"POSITION" : 0,
						"COLOR_0" : 2
					},
					"indices" : 3,
					"material" : 0,
					"mode" : 4
				}
			]
		}
	],
	"nodes" : [
		{
			"name" : "B341441598801063C0",
			"matrix" : [ 1, 0, 0, 0, 0, 0, -1, 0, 0, 1, 0, 0, 834140.6875, 5.769000053405762, -815993.0625, 1 ],
			"children" : [ 1 ]
		},
		{
			"mesh" : 0
		}
	],
	"scenes" : [
		{
			"nodes" : [ 0 ]
		}
	],
	"scene" : 0,
	"accessors" : [
		{
			"bufferView" : 0,
			"byteOffset" : 0,
			"componentType" : 5126,
			"count" : 285,
			"type" : "VEC3",
			"min" : [ -5.4384765625, -6.19140625, 0 ],
			"max" : [ 5.42578125, 6.16796875, 23.319000244140625 ]
		},
		{
			"bufferView" : 1,
			"byteOffset" : 0,
			"componentType" : 5126,
			"count" : 285,
			"type" : "VEC3",
			"min" : [ -0.8102791905403137, -0.821750819683075, -0.11120667308568954 ],
			"max" : [ 0.8944272398948669, 0.8347132802009583, 1 ]
		},
		{
			"bufferView" : 2,
			"byteOffset" : 0,
			"componentType" : 5126,
			"count" : 285,
			"type" : "VEC3"
		},
		{
			"bufferView" : 3,
			"byteOffset" : 0,
			"componentType" : 5123,
			"count" : 285,
			"type" : "SCALAR",
			"min" : [ 0 ],
			"max" : [ 284 ]
		}
	],
	"bufferViews" : [
		{
			"buffer" : 0,
			"byteOffset" : 0,
			"byteLength" : 3420,
			"target" : 34962
		},
		{
			"buffer" : 0,
			"byteOffset" : 3420,
			"byteLength" : 3420,
			"target" : 34962
		},
		{
			"buffer" : 0,
			"byteOffset" : 6840,
			"byteLength" : 3420,
			"target" : 34962
		},
		{
			"buffer" : 0,
			"byteOffset" : 10260,
			"byteLength" : 570,
			"target" : 34963
		}
	],
	"buffers" : [
		{
			"uri" : "B341441598801063C0.bin",
			"byteLength" : 10830
		}
	]
}
