{
	"asset" : {
		"generator" : "FME 2022.2.4.0",
		"version" : "2.0"
	},
	"materials" : [
		{
			"name" : "default_material",
			"pbrMetallicRoughness" : {
				"baseColorFactor" : [ 1, 1, 1, 1 ],
				"roughnessFactor" : 0.30000000000000004,
				"metallicFactor" : 0.5
			}
		}
	],
	"meshes" : [
		{
			"primitives" : [
				{
					"attributes" : {
						"NORMAL" : 1,
						"POSITION" : 0,
						"COLOR_0" : 2
					},
					"indices" : 3,
					"material" : 0,
					"mode" : 4
				}
			]
		}
	],
	"nodes" : [
		{
			"name" : "B334401608701063C0",
			"matrix" : [ 1, 0, 0, 0, 0, 0, -1, 0, 0, 1, 0, 0, 833438.0625, 49.03199768066406, -816084.4375, 1 ],
			"children" : [ 1 ]
		},
		{
			"mesh" : 0
		}
	],
	"scenes" : [
		{
			"nodes" : [ 0 ]
		}
	],
	"scene" : 0,
	"accessors" : [
		{
			"bufferView" : 0,
			"byteOffset" : 0,
			"componentType" : 5126,
			"count" : 1137,
			"type" : "VEC3",
			"min" : [ -10.638671875, -11.9716796875, 0 ],
			"max" : [ 10.638671875, 11.97265625, 24.841995239257812 ]
		},
		{
			"bufferView" : 1,
			"byteOffset" : 0,
			"componentType" : 5126,
			"count" : 1137,
			"type" : "VEC3",
			"min" : [ -0.7498319745063782, -0.7479398846626282, -1 ],
			"max" : [ 0.7491470575332642, 0.7482045888900757, 1 ]
		},
		{
			"bufferView" : 2,
			"byteOffset" : 0,
			"componentType" : 5126,
			"count" : 1137,
			"type" : "VEC3"
		},
		{
			"bufferView" : 3,
			"byteOffset" : 0,
			"componentType" : 5123,
			"count" : 1137,
			"type" : "SCALAR",
			"min" : [ 0 ],
			"max" : [ 1136 ]
		}
	],
	"bufferViews" : [
		{
			"buffer" : 0,
			"byteOffset" : 0,
			"byteLength" : 13644,
			"target" : 34962
		},
		{
			"buffer" : 0,
			"byteOffset" : 13644,
			"byteLength" : 13644,
			"target" : 34962
		},
		{
			"buffer" : 0,
			"byteOffset" : 27288,
			"byteLength" : 13644,
			"target" : 34962
		},
		{
			"buffer" : 0,
			"byteOffset" : 40932,
			"byteLength" : 2274,
			"target" : 34963
		}
	],
	"buffers" : [
		{
			"uri" : "B334401608701063C0.bin",
			"byteLength" : 43206
		}
	]
}
