{
	"asset" : {
		"generator" : "FME 2023.1.0.0",
		"version" : "2.0"
	},
	"materials" : [
		{
			"name" : "default_material",
			"pbrMetallicRoughness" : {
				"baseColorFactor" : [ 1, 1, 1, 1 ],
				"roughnessFactor" : 0.30000000000000004,
				"metallicFactor" : 0.5
			}
		}
	],
	"meshes" : [
		{
			"primitives" : [
				{
					"attributes" : {
						"NORMAL" : 1,
						"POSITION" : 0,
						"COLOR_0" : 2
					},
					"indices" : 3,
					"material" : 0,
					"mode" : 4
				}
			]
		}
	],
	"nodes" : [
		{
			"name" : "B331161590502063C0",
			"matrix" : [ 1, 0, 0, 0, 0, 0, -1, 0, 0, 1, 0, 0, 833111.5625, 140.52499389648438, -815891.125, 1 ],
			"children" : [ 1 ]
		},
		{
			"mesh" : 0
		}
	],
	"scenes" : [
		{
			"nodes" : [ 0 ]
		}
	],
	"scene" : 0,
	"accessors" : [
		{
			"bufferView" : 0,
			"byteOffset" : 0,
			"componentType" : 5126,
			"count" : 4422,
			"type" : "VEC3",
			"min" : [ -38.70068359375, -38.34765625, 0 ],
			"max" : [ 38.70068359375, 38.34765625, 22.495010375976562 ]
		},
		{
			"bufferView" : 1,
			"byteOffset" : 0,
			"componentType" : 5126,
			"count" : 4422,
			"type" : "VEC3",
			"min" : [ -0.9916004538536072, -0.9999901056289673, -1 ],
			"max" : [ 0.9925864338874817, 1, 1 ]
		},
		{
			"bufferView" : 2,
			"byteOffset" : 0,
			"componentType" : 5126,
			"count" : 4422,
			"type" : "VEC3"
		},
		{
			"bufferView" : 3,
			"byteOffset" : 0,
			"componentType" : 5123,
			"count" : 4422,
			"type" : "SCALAR",
			"min" : [ 0 ],
			"max" : [ 4421 ]
		}
	],
	"bufferViews" : [
		{
			"buffer" : 0,
			"byteOffset" : 0,
			"byteLength" : 53064,
			"target" : 34962
		},
		{
			"buffer" : 0,
			"byteOffset" : 53064,
			"byteLength" : 53064,
			"target" : 34962
		},
		{
			"buffer" : 0,
			"byteOffset" : 106128,
			"byteLength" : 53064,
			"target" : 34962
		},
		{
			"buffer" : 0,
			"byteOffset" : 159192,
			"byteLength" : 8844,
			"target" : 34963
		}
	],
	"buffers" : [
		{
			"uri" : "B331161590502063C0.bin",
			"byteLength" : 168036
		}
	]
}
