{
	"asset" : {
		"generator" : "FME 2023.2.1.0",
		"version" : "2.0"
	},
	"materials" : [
		{
			"name" : "default_material",
			"pbrMetallicRoughness" : {
				"baseColorFactor" : [ 1, 1, 1, 1 ],
				"roughnessFactor" : 0.30000000000000004,
				"metallicFactor" : 0.5
			}
		}
	],
	"meshes" : [
		{
			"primitives" : [
				{
					"attributes" : {
						"NORMAL" : 1,
						"POSITION" : 0,
						"COLOR_0" : 2
					},
					"indices" : 3,
					"material" : 0,
					"mode" : 4
				}
			]
		}
	],
	"nodes" : [
		{
			"name" : "B344871514801063C0",
			"matrix" : [ 1, 0, 0, 0, 0, 0, -1, 0, 0, 1, 0, 0, 834492.6875, 80.74700164794922, -815137, 1 ],
			"children" : [ 1 ]
		},
		{
			"mesh" : 0
		}
	],
	"scenes" : [
		{
			"nodes" : [ 0 ]
		}
	],
	"scene" : 0,
	"accessors" : [
		{
			"bufferView" : 0,
			"byteOffset" : 0,
			"componentType" : 5126,
			"count" : 2124,
			"type" : "VEC3",
			"min" : [ -14.693359375, -27.947265625, 0 ],
			"max" : [ 14.6923828125, 27.947265625, 51.59600067138672 ]
		},
		{
			"bufferView" : 1,
			"byteOffset" : 0,
			"componentType" : 5126,
			"count" : 2124,
			"type" : "VEC3",
			"min" : [ -0.966644823551178, -0.9647638201713562, -1 ],
			"max" : [ 0.9643354415893555, 0.9662349820137024, 1 ]
		},
		{
			"bufferView" : 2,
			"byteOffset" : 0,
			"componentType" : 5126,
			"count" : 2124,
			"type" : "VEC3"
		},
		{
			"bufferView" : 3,
			"byteOffset" : 0,
			"componentType" : 5123,
			"count" : 2124,
			"type" : "SCALAR",
			"min" : [ 0 ],
			"max" : [ 2123 ]
		}
	],
	"bufferViews" : [
		{
			"buffer" : 0,
			"byteOffset" : 0,
			"byteLength" : 25488,
			"target" : 34962
		},
		{
			"buffer" : 0,
			"byteOffset" : 25488,
			"byteLength" : 25488,
			"target" : 34962
		},
		{
			"buffer" : 0,
			"byteOffset" : 50976,
			"byteLength" : 25488,
			"target" : 34962
		},
		{
			"buffer" : 0,
			"byteOffset" : 76464,
			"byteLength" : 4248,
			"target" : 34963
		}
	],
	"buffers" : [
		{
			"uri" : "B344871514801063C0.bin",
			"byteLength" : 80712
		}
	]
}
