{
	"asset" : {
		"generator" : "FME 2023.2.2.0",
		"version" : "2.0"
	},
	"materials" : [
		{
			"name" : "default_material",
			"pbrMetallicRoughness" : {
				"baseColorFactor" : [ 1, 1, 1, 1 ],
				"roughnessFactor" : 0.30000000000000004,
				"metallicFactor" : 0.5
			}
		}
	],
	"meshes" : [
		{
			"primitives" : [
				{
					"attributes" : {
						"NORMAL" : 1,
						"POSITION" : 0,
						"COLOR_0" : 2
					},
					"indices" : 3,
					"material" : 0,
					"mode" : 4
				}
			]
		}
	],
	"nodes" : [
		{
			"name" : "B167781508401062G0",
			"matrix" : [ 1, 0, 0, 0, 0, 0, -1, 0, 0, 1, 0, 0, 816778.75, 58.83089828491211, -815083.625, 1 ],
			"children" : [ 1 ]
		},
		{
			"mesh" : 0
		}
	],
	"scenes" : [
		{
			"nodes" : [ 0 ]
		}
	],
	"scene" : 0,
	"accessors" : [
		{
			"bufferView" : 0,
			"byteOffset" : 0,
			"componentType" : 5126,
			"count" : 87,
			"type" : "VEC3",
			"min" : [ -4.875, -5.75, 0 ],
			"max" : [ 4.9375, 5.8125, 5.390201568603516 ]
		},
		{
			"bufferView" : 1,
			"byteOffset" : 0,
			"componentType" : 5126,
			"count" : 87,
			"type" : "VEC3",
			"min" : [ -0.9435957670211792, -0.9436700940132141, 0 ],
			"max" : [ 0.9435960650444031, 0.9435925483703613, 1 ]
		},
		{
			"bufferView" : 2,
			"byteOffset" : 0,
			"componentType" : 5126,
			"count" : 87,
			"type" : "VEC3"
		},
		{
			"bufferView" : 3,
			"byteOffset" : 0,
			"componentType" : 5121,
			"count" : 87,
			"type" : "SCALAR",
			"min" : [ 0 ],
			"max" : [ 86 ]
		}
	],
	"bufferViews" : [
		{
			"buffer" : 0,
			"byteOffset" : 0,
			"byteLength" : 1044,
			"target" : 34962
		},
		{
			"buffer" : 0,
			"byteOffset" : 1044,
			"byteLength" : 1044,
			"target" : 34962
		},
		{
			"buffer" : 0,
			"byteOffset" : 2088,
			"byteLength" : 1044,
			"target" : 34962
		},
		{
			"buffer" : 0,
			"byteOffset" : 3132,
			"byteLength" : 87,
			"target" : 34963
		}
	],
	"buffers" : [
		{
			"uri" : "B167781508401062G0.bin",
			"byteLength" : 3219
		}
	]
}
