{
	"asset" : {
		"generator" : "FME 2022.2.4.0",
		"version" : "2.0"
	},
	"materials" : [
		{
			"name" : "default_material",
			"pbrMetallicRoughness" : {
				"baseColorFactor" : [ 1, 1, 1, 1 ],
				"roughnessFactor" : 0.30000000000000004,
				"metallicFactor" : 0.5
			}
		}
	],
	"meshes" : [
		{
			"primitives" : [
				{
					"attributes" : {
						"NORMAL" : 1,
						"POSITION" : 0,
						"COLOR_0" : 2
					},
					"indices" : 3,
					"material" : 0,
					"mode" : 4
				}
			]
		}
	],
	"nodes" : [
		{
			"name" : "B343391589901063C0",
			"matrix" : [ 1, 0, 0, 0, 0, 0, -1, 0, 0, 1, 0, 0, 834343.9375, 4.368000030517578, -815899.875, 1 ],
			"children" : [ 1 ]
		},
		{
			"mesh" : 0
		}
	],
	"scenes" : [
		{
			"nodes" : [ 0 ]
		}
	],
	"scene" : 0,
	"accessors" : [
		{
			"bufferView" : 0,
			"byteOffset" : 0,
			"componentType" : 5126,
			"count" : 162,
			"type" : "VEC3",
			"min" : [ -12.7275390625, -5.50390625, 0 ],
			"max" : [ 12.7578125, 5.51953125, 3.9169998168945312 ]
		},
		{
			"bufferView" : 1,
			"byteOffset" : 0,
			"componentType" : 5126,
			"count" : 162,
			"type" : "VEC3",
			"min" : [ -0.9624043703079224, -0.9978343844413757, -1 ],
			"max" : [ 0.962416410446167, 0.9624379277229309, 1 ]
		},
		{
			"bufferView" : 2,
			"byteOffset" : 0,
			"componentType" : 5126,
			"count" : 162,
			"type" : "VEC3"
		},
		{
			"bufferView" : 3,
			"byteOffset" : 0,
			"componentType" : 5121,
			"count" : 162,
			"type" : "SCALAR",
			"min" : [ 0 ],
			"max" : [ 161 ]
		}
	],
	"bufferViews" : [
		{
			"buffer" : 0,
			"byteOffset" : 0,
			"byteLength" : 1944,
			"target" : 34962
		},
		{
			"buffer" : 0,
			"byteOffset" : 1944,
			"byteLength" : 1944,
			"target" : 34962
		},
		{
			"buffer" : 0,
			"byteOffset" : 3888,
			"byteLength" : 1944,
			"target" : 34962
		},
		{
			"buffer" : 0,
			"byteOffset" : 5832,
			"byteLength" : 162,
			"target" : 34963
		}
	],
	"buffers" : [
		{
			"uri" : "B343391589901063C0.bin",
			"byteLength" : 5994
		}
	]
}
