{
	"asset" : {
		"generator" : "FME 2022.2.4.0",
		"version" : "2.0"
	},
	"materials" : [
		{
			"name" : "default_material",
			"pbrMetallicRoughness" : {
				"baseColorFactor" : [ 1, 1, 1, 1 ],
				"roughnessFactor" : 0.30000000000000004,
				"metallicFactor" : 0.5
			}
		}
	],
	"meshes" : [
		{
			"primitives" : [
				{
					"attributes" : {
						"NORMAL" : 1,
						"POSITION" : 0,
						"COLOR_0" : 2
					},
					"indices" : 3,
					"material" : 0,
					"mode" : 4
				}
			]
		}
	],
	"nodes" : [
		{
			"name" : "B356721546302063C0",
			"matrix" : [ 1, 0, 0, 0, 0, 0, -1, 0, 0, 1, 0, 0, 835672.75, 3.5829999446868896, -815459.125, 1 ],
			"children" : [ 1 ]
		},
		{
			"mesh" : 0
		}
	],
	"scenes" : [
		{
			"nodes" : [ 0 ]
		}
	],
	"scene" : 0,
	"accessors" : [
		{
			"bufferView" : 0,
			"byteOffset" : 0,
			"componentType" : 5126,
			"count" : 171,
			"type" : "VEC3",
			"min" : [ -5.302734375, -10.2119140625, 0 ],
			"max" : [ 5.302734375, 10.2109375, 14.07699966430664 ]
		},
		{
			"bufferView" : 1,
			"byteOffset" : 0,
			"componentType" : 5126,
			"count" : 171,
			"type" : "VEC3",
			"min" : [ -0.9969398975372314, -0.9964636564254761, -1 ],
			"max" : [ 0.996472179889679, 0.9961298704147339, 1 ]
		},
		{
			"bufferView" : 2,
			"byteOffset" : 0,
			"componentType" : 5126,
			"count" : 171,
			"type" : "VEC3"
		},
		{
			"bufferView" : 3,
			"byteOffset" : 0,
			"componentType" : 5121,
			"count" : 171,
			"type" : "SCALAR",
			"min" : [ 0 ],
			"max" : [ 170 ]
		}
	],
	"bufferViews" : [
		{
			"buffer" : 0,
			"byteOffset" : 0,
			"byteLength" : 2052,
			"target" : 34962
		},
		{
			"buffer" : 0,
			"byteOffset" : 2052,
			"byteLength" : 2052,
			"target" : 34962
		},
		{
			"buffer" : 0,
			"byteOffset" : 4104,
			"byteLength" : 2052,
			"target" : 34962
		},
		{
			"buffer" : 0,
			"byteOffset" : 6156,
			"byteLength" : 171,
			"target" : 34963
		}
	],
	"buffers" : [
		{
			"uri" : "B356721546302063C0.bin",
			"byteLength" : 6327
		}
	]
}
