{
	"asset" : {
		"generator" : "FME 2023.1.0.0",
		"version" : "2.0"
	},
	"materials" : [
		{
			"name" : "default_material",
			"pbrMetallicRoughness" : {
				"baseColorFactor" : [ 1, 1, 1, 1 ],
				"roughnessFactor" : 0.30000000000000004,
				"metallicFactor" : 0.5
			}
		}
	],
	"meshes" : [
		{
			"primitives" : [
				{
					"attributes" : {
						"NORMAL" : 1,
						"POSITION" : 0,
						"COLOR_0" : 2
					},
					"indices" : 3,
					"material" : 0,
					"mode" : 4
				}
			]
		}
	],
	"nodes" : [
		{
			"name" : "B340811560601063C0",
			"matrix" : [ 1, 0, 0, 0, 0, 0, -1, 0, 0, 1, 0, 0, 834081.25, 57.24399948120117, -815617.25, 1 ],
			"children" : [ 1 ]
		},
		{
			"mesh" : 0
		}
	],
	"scenes" : [
		{
			"nodes" : [ 0 ]
		}
	],
	"scene" : 0,
	"accessors" : [
		{
			"bufferView" : 0,
			"byteOffset" : 0,
			"componentType" : 5126,
			"count" : 1845,
			"type" : "VEC3",
			"min" : [ -12.1318359375, -14.3466796875, 0 ],
			"max" : [ 12.095703125, 14.2900390625, 25.104999542236328 ]
		},
		{
			"bufferView" : 1,
			"byteOffset" : 0,
			"componentType" : 5126,
			"count" : 1845,
			"type" : "VEC3",
			"min" : [ -1, -0.9978761672973633, -1 ],
			"max" : [ 0.9981174468994141, 1, 1 ]
		},
		{
			"bufferView" : 2,
			"byteOffset" : 0,
			"componentType" : 5126,
			"count" : 1845,
			"type" : "VEC3"
		},
		{
			"bufferView" : 3,
			"byteOffset" : 0,
			"componentType" : 5123,
			"count" : 1845,
			"type" : "SCALAR",
			"min" : [ 0 ],
			"max" : [ 1844 ]
		}
	],
	"bufferViews" : [
		{
			"buffer" : 0,
			"byteOffset" : 0,
			"byteLength" : 22140,
			"target" : 34962
		},
		{
			"buffer" : 0,
			"byteOffset" : 22140,
			"byteLength" : 22140,
			"target" : 34962
		},
		{
			"buffer" : 0,
			"byteOffset" : 44280,
			"byteLength" : 22140,
			"target" : 34962
		},
		{
			"buffer" : 0,
			"byteOffset" : 66420,
			"byteLength" : 3690,
			"target" : 34963
		}
	],
	"buffers" : [
		{
			"uri" : "B340811560601063C0.bin",
			"byteLength" : 70110
		}
	]
}
