{
	"asset" : {
		"generator" : "FME 2022.2.4.0",
		"version" : "2.0"
	},
	"materials" : [
		{
			"name" : "default_material",
			"pbrMetallicRoughness" : {
				"baseColorFactor" : [ 1, 1, 1, 1 ],
				"roughnessFactor" : 0.30000000000000004,
				"metallicFactor" : 0.5
			}
		}
	],
	"meshes" : [
		{
			"primitives" : [
				{
					"attributes" : {
						"NORMAL" : 1,
						"POSITION" : 0,
						"COLOR_0" : 2
					},
					"indices" : 3,
					"material" : 0,
					"mode" : 4
				}
			]
		}
	],
	"nodes" : [
		{
			"name" : "B341841577601063C0",
			"matrix" : [ 1, 0, 0, 0, 0, 0, -1, 0, 0, 1, 0, 0, 834188.6875, 11.019000053405762, -815778.9375, 1 ],
			"children" : [ 1 ]
		},
		{
			"mesh" : 0
		}
	],
	"scenes" : [
		{
			"nodes" : [ 0 ]
		}
	],
	"scene" : 0,
	"accessors" : [
		{
			"bufferView" : 0,
			"byteOffset" : 0,
			"componentType" : 5126,
			"count" : 243,
			"type" : "VEC3",
			"min" : [ -6.728515625, -6.4365234375, 0 ],
			"max" : [ 6.720703125, 6.4423828125, 30.270000457763672 ]
		},
		{
			"bufferView" : 1,
			"byteOffset" : 0,
			"componentType" : 5126,
			"count" : 243,
			"type" : "VEC3",
			"min" : [ -0.7365949153900146, -0.7388690114021301, -0.002069068606942892 ],
			"max" : [ 0.7356255054473877, 0.7354161143302917, 1 ]
		},
		{
			"bufferView" : 2,
			"byteOffset" : 0,
			"componentType" : 5126,
			"count" : 243,
			"type" : "VEC3"
		},
		{
			"bufferView" : 3,
			"byteOffset" : 0,
			"componentType" : 5121,
			"count" : 243,
			"type" : "SCALAR",
			"min" : [ 0 ],
			"max" : [ 242 ]
		}
	],
	"bufferViews" : [
		{
			"buffer" : 0,
			"byteOffset" : 0,
			"byteLength" : 2916,
			"target" : 34962
		},
		{
			"buffer" : 0,
			"byteOffset" : 2916,
			"byteLength" : 2916,
			"target" : 34962
		},
		{
			"buffer" : 0,
			"byteOffset" : 5832,
			"byteLength" : 2916,
			"target" : 34962
		},
		{
			"buffer" : 0,
			"byteOffset" : 8748,
			"byteLength" : 243,
			"target" : 34963
		}
	],
	"buffers" : [
		{
			"uri" : "B341841577601063C0.bin",
			"byteLength" : 8991
		}
	]
}
