{
	"asset" : {
		"generator" : "FME 2022.2.4.0",
		"version" : "2.0"
	},
	"materials" : [
		{
			"name" : "default_material",
			"pbrMetallicRoughness" : {
				"baseColorFactor" : [ 1, 1, 1, 1 ],
				"roughnessFactor" : 0.30000000000000004,
				"metallicFactor" : 0.5
			}
		}
	],
	"meshes" : [
		{
			"primitives" : [
				{
					"attributes" : {
						"NORMAL" : 1,
						"POSITION" : 0,
						"COLOR_0" : 2
					},
					"indices" : 3,
					"material" : 0,
					"mode" : 4
				}
			]
		}
	],
	"nodes" : [
		{
			"name" : "B359071740001063C0",
			"matrix" : [ 1, 0, 0, 0, 0, 0, -1, 0, 0, 1, 0, 0, 835907.5625, 39.805816650390625, -817400.125, 1 ],
			"children" : [ 1 ]
		},
		{
			"mesh" : 0
		}
	],
	"scenes" : [
		{
			"nodes" : [ 0 ]
		}
	],
	"scene" : 0,
	"accessors" : [
		{
			"bufferView" : 0,
			"byteOffset" : 0,
			"componentType" : 5126,
			"count" : 606,
			"type" : "VEC3",
			"min" : [ -6.9375, -5.0361328125, 0 ],
			"max" : [ 6.958984375, 4.9921875, 41.276885986328125 ]
		},
		{
			"bufferView" : 1,
			"byteOffset" : 0,
			"componentType" : 5126,
			"count" : 606,
			"type" : "VEC3",
			"min" : [ -0.9976374506950378, -0.9975144863128662, -1 ],
			"max" : [ 0.9974721074104309, 0.9975789785385132, 1 ]
		},
		{
			"bufferView" : 2,
			"byteOffset" : 0,
			"componentType" : 5126,
			"count" : 606,
			"type" : "VEC3"
		},
		{
			"bufferView" : 3,
			"byteOffset" : 0,
			"componentType" : 5123,
			"count" : 606,
			"type" : "SCALAR",
			"min" : [ 0 ],
			"max" : [ 605 ]
		}
	],
	"bufferViews" : [
		{
			"buffer" : 0,
			"byteOffset" : 0,
			"byteLength" : 7272,
			"target" : 34962
		},
		{
			"buffer" : 0,
			"byteOffset" : 7272,
			"byteLength" : 7272,
			"target" : 34962
		},
		{
			"buffer" : 0,
			"byteOffset" : 14544,
			"byteLength" : 7272,
			"target" : 34962
		},
		{
			"buffer" : 0,
			"byteOffset" : 21816,
			"byteLength" : 1212,
			"target" : 34963
		}
	],
	"buffers" : [
		{
			"uri" : "B359071740001063C0.bin",
			"byteLength" : 23028
		}
	]
}
