{
	"asset" : {
		"generator" : "FME 2023.1.0.0",
		"version" : "2.0"
	},
	"materials" : [
		{
			"name" : "default_material",
			"pbrMetallicRoughness" : {
				"baseColorFactor" : [ 1, 1, 1, 1 ],
				"roughnessFactor" : 0.30000000000000004,
				"metallicFactor" : 0.5
			}
		}
	],
	"meshes" : [
		{
			"primitives" : [
				{
					"attributes" : {
						"NORMAL" : 1,
						"POSITION" : 0,
						"COLOR_0" : 2
					},
					"indices" : 3,
					"material" : 0,
					"mode" : 4
				}
			]
		}
	],
	"nodes" : [
		{
			"name" : "B338941570901063C0",
			"matrix" : [ 1, 0, 0, 0, 0, 0, -1, 0, 0, 1, 0, 0, 833900, 61.96699905395508, -815714.1875, 1 ],
			"children" : [ 1 ]
		},
		{
			"mesh" : 0
		}
	],
	"scenes" : [
		{
			"nodes" : [ 0 ]
		}
	],
	"scene" : 0,
	"accessors" : [
		{
			"bufferView" : 0,
			"byteOffset" : 0,
			"componentType" : 5126,
			"count" : 1011,
			"type" : "VEC3",
			"min" : [ -10.404296875, -12.9462890625, 0 ],
			"max" : [ 10.404296875, 12.947265625, 30.045001983642578 ]
		},
		{
			"bufferView" : 1,
			"byteOffset" : 0,
			"componentType" : 5126,
			"count" : 1011,
			"type" : "VEC3",
			"min" : [ -0.9270792603492737, -0.9154015779495239, -1 ],
			"max" : [ 0.9220975041389465, 0.9163500666618347, 1 ]
		},
		{
			"bufferView" : 2,
			"byteOffset" : 0,
			"componentType" : 5126,
			"count" : 1011,
			"type" : "VEC3"
		},
		{
			"bufferView" : 3,
			"byteOffset" : 0,
			"componentType" : 5123,
			"count" : 1011,
			"type" : "SCALAR",
			"min" : [ 0 ],
			"max" : [ 1010 ]
		}
	],
	"bufferViews" : [
		{
			"buffer" : 0,
			"byteOffset" : 0,
			"byteLength" : 12132,
			"target" : 34962
		},
		{
			"buffer" : 0,
			"byteOffset" : 12132,
			"byteLength" : 12132,
			"target" : 34962
		},
		{
			"buffer" : 0,
			"byteOffset" : 24264,
			"byteLength" : 12132,
			"target" : 34962
		},
		{
			"buffer" : 0,
			"byteOffset" : 36396,
			"byteLength" : 2022,
			"target" : 34963
		}
	],
	"buffers" : [
		{
			"uri" : "B338941570901063C0.bin",
			"byteLength" : 38418
		}
	]
}
