{
	"asset" : {
		"generator" : "FME 2023.2.1.0",
		"version" : "2.0"
	},
	"materials" : [
		{
			"name" : "default_material",
			"pbrMetallicRoughness" : {
				"baseColorFactor" : [ 1, 1, 1, 1 ],
				"roughnessFactor" : 0.30000000000000004,
				"metallicFactor" : 0.5
			}
		}
	],
	"meshes" : [
		{
			"primitives" : [
				{
					"attributes" : {
						"NORMAL" : 1,
						"POSITION" : 0,
						"COLOR_0" : 2
					},
					"indices" : 3,
					"material" : 0,
					"mode" : 4
				}
			]
		}
	],
	"nodes" : [
		{
			"name" : "B358431525901063C0",
			"matrix" : [ 1, 0, 0, 0, 0, 0, -1, 0, 0, 1, 0, 0, 835839.625, 11.902000427246094, -815254.4375, 1 ],
			"children" : [ 1 ]
		},
		{
			"mesh" : 0
		}
	],
	"scenes" : [
		{
			"nodes" : [ 0 ]
		}
	],
	"scene" : 0,
	"accessors" : [
		{
			"bufferView" : 0,
			"byteOffset" : 0,
			"componentType" : 5126,
			"count" : 603,
			"type" : "VEC3",
			"min" : [ -5.14453125, -8.791015625, 0 ],
			"max" : [ 5.1435546875, 8.7919921875, 52.07600021362305 ]
		},
		{
			"bufferView" : 1,
			"byteOffset" : 0,
			"componentType" : 5126,
			"count" : 603,
			"type" : "VEC3",
			"min" : [ -0.9945487976074219, -0.9952150583267212, -0.9742054343223572 ],
			"max" : [ 0.9945408701896667, 0.995182454586029, 1 ]
		},
		{
			"bufferView" : 2,
			"byteOffset" : 0,
			"componentType" : 5126,
			"count" : 603,
			"type" : "VEC3"
		},
		{
			"bufferView" : 3,
			"byteOffset" : 0,
			"componentType" : 5123,
			"count" : 603,
			"type" : "SCALAR",
			"min" : [ 0 ],
			"max" : [ 602 ]
		}
	],
	"bufferViews" : [
		{
			"buffer" : 0,
			"byteOffset" : 0,
			"byteLength" : 7236,
			"target" : 34962
		},
		{
			"buffer" : 0,
			"byteOffset" : 7236,
			"byteLength" : 7236,
			"target" : 34962
		},
		{
			"buffer" : 0,
			"byteOffset" : 14472,
			"byteLength" : 7236,
			"target" : 34962
		},
		{
			"buffer" : 0,
			"byteOffset" : 21708,
			"byteLength" : 1206,
			"target" : 34963
		}
	],
	"buffers" : [
		{
			"uri" : "B358431525901063C0.bin",
			"byteLength" : 22914
		}
	]
}
