{
	"asset" : {
		"generator" : "FME 2022.2.4.0",
		"version" : "2.0"
	},
	"images" : [
		{
			"uri" : "T33750216000106E14_001.jpg"
		}
	],
	"samplers" : [
		{
			"wrapS" : 10497,
			"wrapT" : 10497,
			"magFilter" : 9729,
			"minFilter" : 9986
		}
	],
	"textures" : [
		{
			"source" : 0,
			"sampler" : 0
		}
	],
	"materials" : [
		{
			"name" : "T33750216000106E14",
			"pbrMetallicRoughness" : {
				"baseColorTexture" : {
					"index" : 0,
					"texCoord" : 0
				},
				"roughnessFactor" : 0.9375,
				"metallicFactor" : 0.5
			}
		}
	],
	"meshes" : [
		{
			"primitives" : [
				{
					"attributes" : {
						"NORMAL" : 1,
						"POSITION" : 0,
						"TEXCOORD_0" : 2
					},
					"indices" : 3,
					"material" : 0,
					"mode" : 4
				}
			]
		}
	],
	"nodes" : [
		{
			"name" : "T33750216000106E14",
			"matrix" : [ 1, 0, 0, 0, 0, 0, -1, 0, 0, 1, 0, 0, 834125, -1.314605712890625, -821900, 1 ],
			"children" : [ 1 ]
		},
		{
			"mesh" : 0
		}
	],
	"scenes" : [
		{
			"nodes" : [ 0 ]
		}
	],
	"scene" : 0,
	"accessors" : [
		{
			"bufferView" : 0,
			"byteOffset" : 0,
			"componentType" : 5126,
			"count" : 115445,
			"type" : "VEC3",
			"min" : [ -375.00390625, -300, 0 ],
			"max" : [ 375, 300.001953125, 12.933799743652344 ]
		},
		{
			"bufferView" : 1,
			"byteOffset" : 0,
			"componentType" : 5126,
			"count" : 115445,
			"type" : "VEC3",
			"min" : [ -0.9979335069656372, -0.9891684651374817, -0.999394416809082 ],
			"max" : [ 0.9930185675621033, 0.9671284556388855, 1 ]
		},
		{
			"bufferView" : 2,
			"byteOffset" : 0,
			"componentType" : 5126,
			"count" : 115445,
			"type" : "VEC2",
			"min" : [ 0.0001310110092163086, 0.00016504526138305664 ],
			"max" : [ 0.9998689889907837, 0.9998349547386169 ]
		},
		{
			"bufferView" : 3,
			"byteOffset" : 0,
			"componentType" : 5125,
			"count" : 124044,
			"type" : "SCALAR",
			"min" : [ 0 ],
			"max" : [ 115444 ]
		}
	],
	"bufferViews" : [
		{
			"buffer" : 0,
			"byteOffset" : 0,
			"byteLength" : 1385340,
			"target" : 34962
		},
		{
			"buffer" : 0,
			"byteOffset" : 1385340,
			"byteLength" : 1385340,
			"target" : 34962
		},
		{
			"buffer" : 0,
			"byteOffset" : 2770680,
			"byteLength" : 923560,
			"target" : 34962
		},
		{
			"buffer" : 0,
			"byteOffset" : 3694240,
			"byteLength" : 496176,
			"target" : 34963
		}
	],
	"buffers" : [
		{
			"uri" : "T33750216000106E14.bin",
			"byteLength" : 4190416
		}
	]
}
