{
	"asset" : {
		"generator" : "FME 2023.1.0.0",
		"version" : "2.0"
	},
	"materials" : [
		{
			"name" : "default_material",
			"pbrMetallicRoughness" : {
				"baseColorFactor" : [ 1, 1, 1, 1 ],
				"roughnessFactor" : 0.30000000000000004,
				"metallicFactor" : 0.5
			}
		}
	],
	"meshes" : [
		{
			"primitives" : [
				{
					"attributes" : {
						"NORMAL" : 1,
						"POSITION" : 0,
						"COLOR_0" : 2
					},
					"indices" : 3,
					"material" : 0,
					"mode" : 4
				}
			]
		}
	],
	"nodes" : [
		{
			"name" : "B332471517601063C0",
			"matrix" : [ 1, 0, 0, 0, 0, 0, -1, 0, 0, 1, 0, 0, 833247.25, 481.28900146484375, -815176.5625, 1 ],
			"children" : [ 1 ]
		},
		{
			"mesh" : 0
		}
	],
	"scenes" : [
		{
			"nodes" : [ 0 ]
		}
	],
	"scene" : 0,
	"accessors" : [
		{
			"bufferView" : 0,
			"byteOffset" : 0,
			"componentType" : 5126,
			"count" : 156,
			"type" : "VEC3",
			"min" : [ -4.2841796875, -3.765625, 0 ],
			"max" : [ 4.396484375, 3.73046875, 2.9110107421875 ]
		},
		{
			"bufferView" : 1,
			"byteOffset" : 0,
			"componentType" : 5126,
			"count" : 156,
			"type" : "VEC3",
			"min" : [ -0.9859074354171753, -0.9030730724334717, 0 ],
			"max" : [ 0.5508313775062561, 0.8346165418624878, 1 ]
		},
		{
			"bufferView" : 2,
			"byteOffset" : 0,
			"componentType" : 5126,
			"count" : 156,
			"type" : "VEC3"
		},
		{
			"bufferView" : 3,
			"byteOffset" : 0,
			"componentType" : 5121,
			"count" : 156,
			"type" : "SCALAR",
			"min" : [ 0 ],
			"max" : [ 155 ]
		}
	],
	"bufferViews" : [
		{
			"buffer" : 0,
			"byteOffset" : 0,
			"byteLength" : 1872,
			"target" : 34962
		},
		{
			"buffer" : 0,
			"byteOffset" : 1872,
			"byteLength" : 1872,
			"target" : 34962
		},
		{
			"buffer" : 0,
			"byteOffset" : 3744,
			"byteLength" : 1872,
			"target" : 34962
		},
		{
			"buffer" : 0,
			"byteOffset" : 5616,
			"byteLength" : 156,
			"target" : 34963
		}
	],
	"buffers" : [
		{
			"uri" : "B332471517601063C0.bin",
			"byteLength" : 5772
		}
	]
}
