{
	"asset" : {
		"generator" : "FME 2022.2.4.0",
		"version" : "2.0"
	},
	"materials" : [
		{
			"name" : "default_material",
			"pbrMetallicRoughness" : {
				"baseColorFactor" : [ 1, 1, 1, 1 ],
				"roughnessFactor" : 0.30000000000000004,
				"metallicFactor" : 0.5
			}
		}
	],
	"meshes" : [
		{
			"primitives" : [
				{
					"attributes" : {
						"NORMAL" : 1,
						"POSITION" : 0,
						"COLOR_0" : 2
					},
					"indices" : 3,
					"material" : 0,
					"mode" : 4
				}
			]
		}
	],
	"nodes" : [
		{
			"name" : "B337441559001063C0",
			"matrix" : [ 1, 0, 0, 0, 0, 0, -1, 0, 0, 1, 0, 0, 833745.4375, 111.80899810791016, -815583.8125, 1 ],
			"children" : [ 1 ]
		},
		{
			"mesh" : 0
		}
	],
	"scenes" : [
		{
			"nodes" : [ 0 ]
		}
	],
	"scene" : 0,
	"accessors" : [
		{
			"bufferView" : 0,
			"byteOffset" : 0,
			"componentType" : 5126,
			"count" : 270,
			"type" : "VEC3",
			"min" : [ -8.900390625, -8.4404296875, 0 ],
			"max" : [ 8.900390625, 8.4404296875, 45.483009338378906 ]
		},
		{
			"bufferView" : 1,
			"byteOffset" : 0,
			"componentType" : 5126,
			"count" : 270,
			"type" : "VEC3",
			"min" : [ -0.7707087993621826, -0.7736601233482361, -1 ],
			"max" : [ 0.7710353136062622, 0.7707937955856323, 1 ]
		},
		{
			"bufferView" : 2,
			"byteOffset" : 0,
			"componentType" : 5126,
			"count" : 270,
			"type" : "VEC3"
		},
		{
			"bufferView" : 3,
			"byteOffset" : 0,
			"componentType" : 5123,
			"count" : 270,
			"type" : "SCALAR",
			"min" : [ 0 ],
			"max" : [ 269 ]
		}
	],
	"bufferViews" : [
		{
			"buffer" : 0,
			"byteOffset" : 0,
			"byteLength" : 3240,
			"target" : 34962
		},
		{
			"buffer" : 0,
			"byteOffset" : 3240,
			"byteLength" : 3240,
			"target" : 34962
		},
		{
			"buffer" : 0,
			"byteOffset" : 6480,
			"byteLength" : 3240,
			"target" : 34962
		},
		{
			"buffer" : 0,
			"byteOffset" : 9720,
			"byteLength" : 540,
			"target" : 34963
		}
	],
	"buffers" : [
		{
			"uri" : "B337441559001063C0.bin",
			"byteLength" : 10260
		}
	]
}
