{
	"asset" : {
		"generator" : "FME 2022.2.4.0",
		"version" : "2.0"
	},
	"materials" : [
		{
			"name" : "default_material",
			"pbrMetallicRoughness" : {
				"baseColorFactor" : [ 1, 1, 1, 1 ],
				"roughnessFactor" : 0.30000000000000004,
				"metallicFactor" : 0.5
			}
		}
	],
	"meshes" : [
		{
			"primitives" : [
				{
					"attributes" : {
						"NORMAL" : 1,
						"POSITION" : 0,
						"COLOR_0" : 2
					},
					"indices" : 3,
					"material" : 0,
					"mode" : 4
				}
			]
		}
	],
	"nodes" : [
		{
			"name" : "B336471632401063C0",
			"matrix" : [ 1, 0, 0, 0, 0, 0, -1, 0, 0, 1, 0, 0, 833639.6875, 2.703000068664551, -816309.9375, 1 ],
			"children" : [ 1 ]
		},
		{
			"mesh" : 0
		}
	],
	"scenes" : [
		{
			"nodes" : [ 0 ]
		}
	],
	"scene" : 0,
	"accessors" : [
		{
			"bufferView" : 0,
			"byteOffset" : 0,
			"componentType" : 5126,
			"count" : 372,
			"type" : "VEC3",
			"min" : [ -12.5556640625, -16.2255859375, 0 ],
			"max" : [ 12.5556640625, 16.2265625, 24.648998260498047 ]
		},
		{
			"bufferView" : 1,
			"byteOffset" : 0,
			"componentType" : 5126,
			"count" : 372,
			"type" : "VEC3",
			"min" : [ -0.9615239500999451, -0.960760772228241, -1 ],
			"max" : [ 0.9621267318725586, 0.9610148668289185, 1 ]
		},
		{
			"bufferView" : 2,
			"byteOffset" : 0,
			"componentType" : 5126,
			"count" : 372,
			"type" : "VEC3"
		},
		{
			"bufferView" : 3,
			"byteOffset" : 0,
			"componentType" : 5123,
			"count" : 372,
			"type" : "SCALAR",
			"min" : [ 0 ],
			"max" : [ 371 ]
		}
	],
	"bufferViews" : [
		{
			"buffer" : 0,
			"byteOffset" : 0,
			"byteLength" : 4464,
			"target" : 34962
		},
		{
			"buffer" : 0,
			"byteOffset" : 4464,
			"byteLength" : 4464,
			"target" : 34962
		},
		{
			"buffer" : 0,
			"byteOffset" : 8928,
			"byteLength" : 4464,
			"target" : 34962
		},
		{
			"buffer" : 0,
			"byteOffset" : 13392,
			"byteLength" : 744,
			"target" : 34963
		}
	],
	"buffers" : [
		{
			"uri" : "B336471632401063C0.bin",
			"byteLength" : 14136
		}
	]
}
