{
	"asset" : {
		"generator" : "FME 2023.2.2.0",
		"version" : "2.0"
	},
	"materials" : [
		{
			"name" : "default_material",
			"pbrMetallicRoughness" : {
				"baseColorFactor" : [ 1, 1, 1, 1 ],
				"roughnessFactor" : 0.30000000000000004,
				"metallicFactor" : 0.5
			}
		}
	],
	"meshes" : [
		{
			"primitives" : [
				{
					"attributes" : {
						"NORMAL" : 1,
						"POSITION" : 0,
						"COLOR_0" : 2
					},
					"indices" : 3,
					"material" : 0,
					"mode" : 4
				}
			]
		}
	],
	"nodes" : [
		{
			"name" : "B169041495601062G0",
			"matrix" : [ 1, 0, 0, 0, 0, 0, -1, 0, 0, 1, 0, 0, 816902.625, 54.42530059814453, -814955.5, 1 ],
			"children" : [ 1 ]
		},
		{
			"mesh" : 0
		}
	],
	"scenes" : [
		{
			"nodes" : [ 0 ]
		}
	],
	"scene" : 0,
	"accessors" : [
		{
			"bufferView" : 0,
			"byteOffset" : 0,
			"componentType" : 5126,
			"count" : 48,
			"type" : "VEC3",
			"min" : [ -4.0625, -4, 0 ],
			"max" : [ 4.0625, 4.0625, 3.5787010192871094 ]
		},
		{
			"bufferView" : 1,
			"byteOffset" : 0,
			"componentType" : 5126,
			"count" : 48,
			"type" : "VEC3",
			"min" : [ -0.7115835547447205, -0.7115414142608643, -0.00019669310131575912 ],
			"max" : [ 0.7112923860549927, 0.7114396095275879, 0.9523614048957825 ]
		},
		{
			"bufferView" : 2,
			"byteOffset" : 0,
			"componentType" : 5126,
			"count" : 48,
			"type" : "VEC3"
		},
		{
			"bufferView" : 3,
			"byteOffset" : 0,
			"componentType" : 5121,
			"count" : 48,
			"type" : "SCALAR",
			"min" : [ 0 ],
			"max" : [ 47 ]
		}
	],
	"bufferViews" : [
		{
			"buffer" : 0,
			"byteOffset" : 0,
			"byteLength" : 576,
			"target" : 34962
		},
		{
			"buffer" : 0,
			"byteOffset" : 576,
			"byteLength" : 576,
			"target" : 34962
		},
		{
			"buffer" : 0,
			"byteOffset" : 1152,
			"byteLength" : 576,
			"target" : 34962
		},
		{
			"buffer" : 0,
			"byteOffset" : 1728,
			"byteLength" : 48,
			"target" : 34963
		}
	],
	"buffers" : [
		{
			"uri" : "B169041495601062G0.bin",
			"byteLength" : 1776
		}
	]
}
