{
	"asset" : {
		"generator" : "FME 2022.2.4.0",
		"version" : "2.0"
	},
	"materials" : [
		{
			"name" : "default_material",
			"pbrMetallicRoughness" : {
				"baseColorFactor" : [ 1, 1, 1, 1 ],
				"roughnessFactor" : 0.30000000000000004,
				"metallicFactor" : 0.5
			}
		}
	],
	"meshes" : [
		{
			"primitives" : [
				{
					"attributes" : {
						"NORMAL" : 1,
						"POSITION" : 0,
						"COLOR_0" : 2
					},
					"indices" : 3,
					"material" : 0,
					"mode" : 4
				}
			]
		}
	],
	"nodes" : [
		{
			"name" : "B332841512701063C0",
			"matrix" : [ 1, 0, 0, 0, 0, 0, -1, 0, 0, 1, 0, 0, 833295.25, 458.3999938964844, -815133, 1 ],
			"children" : [ 1 ]
		},
		{
			"mesh" : 0
		}
	],
	"scenes" : [
		{
			"nodes" : [ 0 ]
		}
	],
	"scene" : 0,
	"accessors" : [
		{
			"bufferView" : 0,
			"byteOffset" : 0,
			"componentType" : 5126,
			"count" : 1296,
			"type" : "VEC3",
			"min" : [ -18.5537109375, -14.9248046875, 0 ],
			"max" : [ 18.5439453125, 14.96875, 22.20599365234375 ]
		},
		{
			"bufferView" : 1,
			"byteOffset" : 0,
			"componentType" : 5126,
			"count" : 1296,
			"type" : "VEC3",
			"min" : [ -0.8903000950813293, -0.9894410967826843, -1 ],
			"max" : [ 1, 0.8938226103782654, 1 ]
		},
		{
			"bufferView" : 2,
			"byteOffset" : 0,
			"componentType" : 5126,
			"count" : 1296,
			"type" : "VEC3"
		},
		{
			"bufferView" : 3,
			"byteOffset" : 0,
			"componentType" : 5123,
			"count" : 1296,
			"type" : "SCALAR",
			"min" : [ 0 ],
			"max" : [ 1295 ]
		}
	],
	"bufferViews" : [
		{
			"buffer" : 0,
			"byteOffset" : 0,
			"byteLength" : 15552,
			"target" : 34962
		},
		{
			"buffer" : 0,
			"byteOffset" : 15552,
			"byteLength" : 15552,
			"target" : 34962
		},
		{
			"buffer" : 0,
			"byteOffset" : 31104,
			"byteLength" : 15552,
			"target" : 34962
		},
		{
			"buffer" : 0,
			"byteOffset" : 46656,
			"byteLength" : 2592,
			"target" : 34963
		}
	],
	"buffers" : [
		{
			"uri" : "B332841512701063C0.bin",
			"byteLength" : 49248
		}
	]
}
