{
	"asset" : {
		"generator" : "FME 2023.1.0.0",
		"version" : "2.0"
	},
	"materials" : [
		{
			"name" : "default_material",
			"pbrMetallicRoughness" : {
				"baseColorFactor" : [ 1, 1, 1, 1 ],
				"roughnessFactor" : 0.30000000000000004,
				"metallicFactor" : 0.5
			}
		}
	],
	"meshes" : [
		{
			"primitives" : [
				{
					"attributes" : {
						"NORMAL" : 1,
						"POSITION" : 0,
						"COLOR_0" : 2
					},
					"indices" : 3,
					"material" : 0,
					"mode" : 4
				}
			]
		}
	],
	"nodes" : [
		{
			"name" : "B340351590601063C0",
			"matrix" : [ 1, 0, 0, 0, 0, 0, -1, 0, 0, 1, 0, 0, 834032.6875, 19.871999740600586, -815902.8125, 1 ],
			"children" : [ 1 ]
		},
		{
			"mesh" : 0
		}
	],
	"scenes" : [
		{
			"nodes" : [ 0 ]
		}
	],
	"scene" : 0,
	"accessors" : [
		{
			"bufferView" : 0,
			"byteOffset" : 0,
			"componentType" : 5126,
			"count" : 744,
			"type" : "VEC3",
			"min" : [ -7.0146484375, -6.75390625, 0 ],
			"max" : [ 7.0146484375, 6.75390625, 47.61000061035156 ]
		},
		{
			"bufferView" : 1,
			"byteOffset" : 0,
			"componentType" : 5126,
			"count" : 744,
			"type" : "VEC3",
			"min" : [ -0.8158688545227051, -1, -1 ],
			"max" : [ 0.8297361731529236, 0.8169254660606384, 1 ]
		},
		{
			"bufferView" : 2,
			"byteOffset" : 0,
			"componentType" : 5126,
			"count" : 744,
			"type" : "VEC3"
		},
		{
			"bufferView" : 3,
			"byteOffset" : 0,
			"componentType" : 5123,
			"count" : 744,
			"type" : "SCALAR",
			"min" : [ 0 ],
			"max" : [ 743 ]
		}
	],
	"bufferViews" : [
		{
			"buffer" : 0,
			"byteOffset" : 0,
			"byteLength" : 8928,
			"target" : 34962
		},
		{
			"buffer" : 0,
			"byteOffset" : 8928,
			"byteLength" : 8928,
			"target" : 34962
		},
		{
			"buffer" : 0,
			"byteOffset" : 17856,
			"byteLength" : 8928,
			"target" : 34962
		},
		{
			"buffer" : 0,
			"byteOffset" : 26784,
			"byteLength" : 1488,
			"target" : 34963
		}
	],
	"buffers" : [
		{
			"uri" : "B340351590601063C0.bin",
			"byteLength" : 28272
		}
	]
}
