{
	"asset" : {
		"generator" : "FME 2023.1.0.0",
		"version" : "2.0"
	},
	"materials" : [
		{
			"name" : "default_material",
			"pbrMetallicRoughness" : {
				"baseColorFactor" : [ 1, 1, 1, 1 ],
				"roughnessFactor" : 0.30000000000000004,
				"metallicFactor" : 0.5
			}
		}
	],
	"meshes" : [
		{
			"primitives" : [
				{
					"attributes" : {
						"NORMAL" : 1,
						"POSITION" : 0,
						"COLOR_0" : 2
					},
					"indices" : 3,
					"material" : 0,
					"mode" : 4
				}
			]
		}
	],
	"nodes" : [
		{
			"name" : "B340581586502063C0",
			"matrix" : [ 1, 0, 0, 0, 0, 0, -1, 0, 0, 1, 0, 0, 834059.125, 14.529000282287598, -815865.1875, 1 ],
			"children" : [ 1 ]
		},
		{
			"mesh" : 0
		}
	],
	"scenes" : [
		{
			"nodes" : [ 0 ]
		}
	],
	"scene" : 0,
	"accessors" : [
		{
			"bufferView" : 0,
			"byteOffset" : 0,
			"componentType" : 5126,
			"count" : 951,
			"type" : "VEC3",
			"min" : [ -13.689453125, -14.7294921875, 0 ],
			"max" : [ 13.689453125, 14.728515625, 18.93000030517578 ]
		},
		{
			"bufferView" : 1,
			"byteOffset" : 0,
			"componentType" : 5126,
			"count" : 951,
			"type" : "VEC3",
			"min" : [ -0.8156693577766418, -0.8154743909835815, -1 ],
			"max" : [ 0.9825944304466248, 0.8172062039375305, 1 ]
		},
		{
			"bufferView" : 2,
			"byteOffset" : 0,
			"componentType" : 5126,
			"count" : 951,
			"type" : "VEC3"
		},
		{
			"bufferView" : 3,
			"byteOffset" : 0,
			"componentType" : 5123,
			"count" : 951,
			"type" : "SCALAR",
			"min" : [ 0 ],
			"max" : [ 950 ]
		}
	],
	"bufferViews" : [
		{
			"buffer" : 0,
			"byteOffset" : 0,
			"byteLength" : 11412,
			"target" : 34962
		},
		{
			"buffer" : 0,
			"byteOffset" : 11412,
			"byteLength" : 11412,
			"target" : 34962
		},
		{
			"buffer" : 0,
			"byteOffset" : 22824,
			"byteLength" : 11412,
			"target" : 34962
		},
		{
			"buffer" : 0,
			"byteOffset" : 34236,
			"byteLength" : 1902,
			"target" : 34963
		}
	],
	"buffers" : [
		{
			"uri" : "B340581586502063C0.bin",
			"byteLength" : 36138
		}
	]
}
