{"asset":{"generator":"FME 2024.0.0.0","version":"2.0"},"materials":[{"name":"T34500168000106E10_001","pbrMetallicRoughness":{"roughnessFactor":0.984375,"metallicFactor":0.5}}],"meshes":[{"primitives":[{"attributes":{"NORMAL":1,"POSITION":0,"TEXCOORD_0":2},"indices":3,"material":0,"mode":4}]}],"nodes":[{"name":"T34500168000106E10","matrix":[1,0,0,0,0,0,-1,0,0,1,0,0,834875,1.2999999523162842,-817100,1],"children":[1]},{"mesh":0}],"scenes":[{"nodes":[0]}],"scene":0,"accessors":[{"bufferView":0,"byteOffset":0,"componentType":5126,"count":6498,"type":"VEC3","min":[-375,-300,0],"max":[375,300,3.5131070613861084]},{"bufferView":1,"byteOffset":0,"componentType":5126,"count":6498,"type":"VEC3","min":[-0.9754775762557983,-1,0],"max":[0.2063547968864441,1,1]},{"bufferView":2,"byteOffset":0,"componentType":5126,"count":6498,"type":"VEC2","min":[0.0005324105150066316,0.0014963150024414062],"max":[0.9988024234771729,0.9993347525596619]},{"bufferView":3,"byteOffset":0,"componentType":5123,"count":6498,"type":"SCALAR","min":[0],"max":[6497]}],"bufferViews":[{"buffer":0,"byteOffset":0,"byteLength":77976,"target":34962},{"buffer":0,"byteOffset":77976,"byteLength":77976,"target":34962},{"buffer":0,"byteOffset":155952,"byteLength":51984,"target":34962},{"buffer":0,"byteOffset":207936,"byteLength":12996,"target":34963}],"buffers":[{"uri":"T34500168000106E10.bin","byteLength":220932}]}