{
	"asset" : {
		"generator" : "FME 2022.2.4.0",
		"version" : "2.0"
	},
	"materials" : [
		{
			"name" : "default_material",
			"pbrMetallicRoughness" : {
				"baseColorFactor" : [ 1, 1, 1, 1 ],
				"roughnessFactor" : 0.30000000000000004,
				"metallicFactor" : 0.5
			}
		}
	],
	"meshes" : [
		{
			"primitives" : [
				{
					"attributes" : {
						"NORMAL" : 1,
						"POSITION" : 0,
						"COLOR_0" : 2
					},
					"indices" : 3,
					"material" : 0,
					"mode" : 4
				}
			]
		}
	],
	"nodes" : [
		{
			"name" : "B340491621301063C0",
			"matrix" : [ 1, 0, 0, 0, 0, 0, -1, 0, 0, 1, 0, 0, 834048.125, 1.9279942512512207, -816212.1875, 1 ],
			"children" : [ 1 ]
		},
		{
			"mesh" : 0
		}
	],
	"scenes" : [
		{
			"nodes" : [ 0 ]
		}
	],
	"scene" : 0,
	"accessors" : [
		{
			"bufferView" : 0,
			"byteOffset" : 0,
			"componentType" : 5126,
			"count" : 405,
			"type" : "VEC3",
			"min" : [ -7.1787109375, -6.349609375, 0 ],
			"max" : [ 7.1796875, 6.349609375, 40.954002380371094 ]
		},
		{
			"bufferView" : 1,
			"byteOffset" : 0,
			"componentType" : 5126,
			"count" : 405,
			"type" : "VEC3",
			"min" : [ -0.7953431010246277, -0.7910005450248718, -1 ],
			"max" : [ 0.7968805432319641, 0.837413489818573, 1 ]
		},
		{
			"bufferView" : 2,
			"byteOffset" : 0,
			"componentType" : 5126,
			"count" : 405,
			"type" : "VEC3"
		},
		{
			"bufferView" : 3,
			"byteOffset" : 0,
			"componentType" : 5123,
			"count" : 405,
			"type" : "SCALAR",
			"min" : [ 0 ],
			"max" : [ 404 ]
		}
	],
	"bufferViews" : [
		{
			"buffer" : 0,
			"byteOffset" : 0,
			"byteLength" : 4860,
			"target" : 34962
		},
		{
			"buffer" : 0,
			"byteOffset" : 4860,
			"byteLength" : 4860,
			"target" : 34962
		},
		{
			"buffer" : 0,
			"byteOffset" : 9720,
			"byteLength" : 4860,
			"target" : 34962
		},
		{
			"buffer" : 0,
			"byteOffset" : 14580,
			"byteLength" : 810,
			"target" : 34963
		}
	],
	"buffers" : [
		{
			"uri" : "B340491621301063C0.bin",
			"byteLength" : 15390
		}
	]
}
