{
	"asset" : {
		"generator" : "FME 2022.2.4.0",
		"version" : "2.0"
	},
	"materials" : [
		{
			"name" : "default_material",
			"pbrMetallicRoughness" : {
				"baseColorFactor" : [ 1, 1, 1, 1 ],
				"roughnessFactor" : 0.30000000000000004,
				"metallicFactor" : 0.5
			}
		}
	],
	"meshes" : [
		{
			"primitives" : [
				{
					"attributes" : {
						"NORMAL" : 1,
						"POSITION" : 0,
						"COLOR_0" : 2
					},
					"indices" : 3,
					"material" : 0,
					"mode" : 4
				}
			]
		}
	],
	"nodes" : [
		{
			"name" : "B343791650001063C0",
			"matrix" : [ 1, 0, 0, 0, 0, 0, -1, 0, 0, 1, 0, 0, 834379.4375, 5.96099853515625, -816499.8125, 1 ],
			"children" : [ 1 ]
		},
		{
			"mesh" : 0
		}
	],
	"scenes" : [
		{
			"nodes" : [ 0 ]
		}
	],
	"scene" : 0,
	"accessors" : [
		{
			"bufferView" : 0,
			"byteOffset" : 0,
			"componentType" : 5126,
			"count" : 1884,
			"type" : "VEC3",
			"min" : [ -0.8720703125, -1.205078125, 0 ],
			"max" : [ 0.8720703125, 1.2041015625, 0.379000186920166 ]
		},
		{
			"bufferView" : 1,
			"byteOffset" : 0,
			"componentType" : 5126,
			"count" : 1884,
			"type" : "VEC3",
			"min" : [ -0.999811589717865, -0.999818742275238, -1 ],
			"max" : [ 0.999811589717865, 1, 1 ]
		},
		{
			"bufferView" : 2,
			"byteOffset" : 0,
			"componentType" : 5126,
			"count" : 1884,
			"type" : "VEC3"
		},
		{
			"bufferView" : 3,
			"byteOffset" : 0,
			"componentType" : 5123,
			"count" : 1884,
			"type" : "SCALAR",
			"min" : [ 0 ],
			"max" : [ 1883 ]
		}
	],
	"bufferViews" : [
		{
			"buffer" : 0,
			"byteOffset" : 0,
			"byteLength" : 22608,
			"target" : 34962
		},
		{
			"buffer" : 0,
			"byteOffset" : 22608,
			"byteLength" : 22608,
			"target" : 34962
		},
		{
			"buffer" : 0,
			"byteOffset" : 45216,
			"byteLength" : 22608,
			"target" : 34962
		},
		{
			"buffer" : 0,
			"byteOffset" : 67824,
			"byteLength" : 3768,
			"target" : 34963
		}
	],
	"buffers" : [
		{
			"uri" : "B343791650001063C0.bin",
			"byteLength" : 71592
		}
	]
}
