{
	"asset" : {
		"generator" : "FME 2023.1.0.0",
		"version" : "2.0"
	},
	"materials" : [
		{
			"name" : "default_material",
			"pbrMetallicRoughness" : {
				"baseColorFactor" : [ 1, 1, 1, 1 ],
				"roughnessFactor" : 0.30000000000000004,
				"metallicFactor" : 0.5
			}
		}
	],
	"meshes" : [
		{
			"primitives" : [
				{
					"attributes" : {
						"NORMAL" : 1,
						"POSITION" : 0,
						"COLOR_0" : 2
					},
					"indices" : 3,
					"material" : 0,
					"mode" : 4
				}
			]
		}
	],
	"nodes" : [
		{
			"name" : "B340531570501063C0",
			"matrix" : [ 1, 0, 0, 0, 0, 0, -1, 0, 0, 1, 0, 0, 834050, 48.69599914550781, -815707.6875, 1 ],
			"children" : [ 1 ]
		},
		{
			"mesh" : 0
		}
	],
	"scenes" : [
		{
			"nodes" : [ 0 ]
		}
	],
	"scene" : 0,
	"accessors" : [
		{
			"bufferView" : 0,
			"byteOffset" : 0,
			"componentType" : 5126,
			"count" : 477,
			"type" : "VEC3",
			"min" : [ -5.6220703125, -5.77734375, 0 ],
			"max" : [ 5.623046875, 5.77734375, 29.516998291015625 ]
		},
		{
			"bufferView" : 1,
			"byteOffset" : 0,
			"componentType" : 5126,
			"count" : 477,
			"type" : "VEC3",
			"min" : [ -0.8083108067512512, -0.8106745481491089, -0.00019845161295961589 ],
			"max" : [ 0.8088306784629822, 0.8106077909469604, 1 ]
		},
		{
			"bufferView" : 2,
			"byteOffset" : 0,
			"componentType" : 5126,
			"count" : 477,
			"type" : "VEC3"
		},
		{
			"bufferView" : 3,
			"byteOffset" : 0,
			"componentType" : 5123,
			"count" : 477,
			"type" : "SCALAR",
			"min" : [ 0 ],
			"max" : [ 476 ]
		}
	],
	"bufferViews" : [
		{
			"buffer" : 0,
			"byteOffset" : 0,
			"byteLength" : 5724,
			"target" : 34962
		},
		{
			"buffer" : 0,
			"byteOffset" : 5724,
			"byteLength" : 5724,
			"target" : 34962
		},
		{
			"buffer" : 0,
			"byteOffset" : 11448,
			"byteLength" : 5724,
			"target" : 34962
		},
		{
			"buffer" : 0,
			"byteOffset" : 17172,
			"byteLength" : 954,
			"target" : 34963
		}
	],
	"buffers" : [
		{
			"uri" : "B340531570501063C0.bin",
			"byteLength" : 18126
		}
	]
}
