{
	"asset" : {
		"generator" : "FME 2023.2.1.0",
		"version" : "2.0"
	},
	"materials" : [
		{
			"name" : "default_material",
			"pbrMetallicRoughness" : {
				"baseColorFactor" : [ 1, 1, 1, 1 ],
				"roughnessFactor" : 0.30000000000000004,
				"metallicFactor" : 0.5
			}
		}
	],
	"meshes" : [
		{
			"primitives" : [
				{
					"attributes" : {
						"NORMAL" : 1,
						"POSITION" : 0,
						"COLOR_0" : 2
					},
					"indices" : 3,
					"material" : 0,
					"mode" : 4
				}
			]
		}
	],
	"nodes" : [
		{
			"name" : "B332321614901063C0",
			"matrix" : [ 1, 0, 0, 0, 0, 0, -1, 0, 0, 1, 0, 0, 833229.375, 45.62699890136719, -816145.125, 1 ],
			"children" : [ 1 ]
		},
		{
			"mesh" : 0
		}
	],
	"scenes" : [
		{
			"nodes" : [ 0 ]
		}
	],
	"scene" : 0,
	"accessors" : [
		{
			"bufferView" : 0,
			"byteOffset" : 0,
			"componentType" : 5126,
			"count" : 966,
			"type" : "VEC3",
			"min" : [ -11.509765625, -10.455078125, 0 ],
			"max" : [ 11.5087890625, 10.455078125, 22.89099884033203 ]
		},
		{
			"bufferView" : 1,
			"byteOffset" : 0,
			"componentType" : 5126,
			"count" : 966,
			"type" : "VEC3",
			"min" : [ -0.7691904306411743, -0.7682212591171265, -1 ],
			"max" : [ 0.7671871185302734, 0.7675482630729675, 1 ]
		},
		{
			"bufferView" : 2,
			"byteOffset" : 0,
			"componentType" : 5126,
			"count" : 966,
			"type" : "VEC3"
		},
		{
			"bufferView" : 3,
			"byteOffset" : 0,
			"componentType" : 5123,
			"count" : 966,
			"type" : "SCALAR",
			"min" : [ 0 ],
			"max" : [ 965 ]
		}
	],
	"bufferViews" : [
		{
			"buffer" : 0,
			"byteOffset" : 0,
			"byteLength" : 11592,
			"target" : 34962
		},
		{
			"buffer" : 0,
			"byteOffset" : 11592,
			"byteLength" : 11592,
			"target" : 34962
		},
		{
			"buffer" : 0,
			"byteOffset" : 23184,
			"byteLength" : 11592,
			"target" : 34962
		},
		{
			"buffer" : 0,
			"byteOffset" : 34776,
			"byteLength" : 1932,
			"target" : 34963
		}
	],
	"buffers" : [
		{
			"uri" : "B332321614901063C0.bin",
			"byteLength" : 36708
		}
	]
}
