{
	"asset" : {
		"generator" : "FME 2022.2.4.0",
		"version" : "2.0"
	},
	"materials" : [
		{
			"name" : "default_material",
			"pbrMetallicRoughness" : {
				"baseColorFactor" : [ 1, 1, 1, 1 ],
				"roughnessFactor" : 0.30000000000000004,
				"metallicFactor" : 0.5
			}
		}
	],
	"meshes" : [
		{
			"primitives" : [
				{
					"attributes" : {
						"NORMAL" : 1,
						"POSITION" : 0,
						"COLOR_0" : 2
					},
					"indices" : 3,
					"material" : 0,
					"mode" : 4
				}
			]
		}
	],
	"nodes" : [
		{
			"name" : "B338751567601063C0",
			"matrix" : [ 1, 0, 0, 0, 0, 0, -1, 0, 0, 1, 0, 0, 833873.6875, 69.1760025024414, -815678.1875, 1 ],
			"children" : [ 1 ]
		},
		{
			"mesh" : 0
		}
	],
	"scenes" : [
		{
			"nodes" : [ 0 ]
		}
	],
	"scene" : 0,
	"accessors" : [
		{
			"bufferView" : 0,
			"byteOffset" : 0,
			"componentType" : 5126,
			"count" : 1296,
			"type" : "VEC3",
			"min" : [ -11.90625, -19.7939453125, 0 ],
			"max" : [ 11.90625, 19.79296875, 91.91027069091797 ]
		},
		{
			"bufferView" : 1,
			"byteOffset" : 0,
			"componentType" : 5126,
			"count" : 1296,
			"type" : "VEC3",
			"min" : [ -0.8944272398948669, -0.8942429423332214, -1 ],
			"max" : [ 0.9968153238296509, 0.8940582275390625, 1 ]
		},
		{
			"bufferView" : 2,
			"byteOffset" : 0,
			"componentType" : 5126,
			"count" : 1296,
			"type" : "VEC3"
		},
		{
			"bufferView" : 3,
			"byteOffset" : 0,
			"componentType" : 5123,
			"count" : 1296,
			"type" : "SCALAR",
			"min" : [ 0 ],
			"max" : [ 1295 ]
		}
	],
	"bufferViews" : [
		{
			"buffer" : 0,
			"byteOffset" : 0,
			"byteLength" : 15552,
			"target" : 34962
		},
		{
			"buffer" : 0,
			"byteOffset" : 15552,
			"byteLength" : 15552,
			"target" : 34962
		},
		{
			"buffer" : 0,
			"byteOffset" : 31104,
			"byteLength" : 15552,
			"target" : 34962
		},
		{
			"buffer" : 0,
			"byteOffset" : 46656,
			"byteLength" : 2592,
			"target" : 34963
		}
	],
	"buffers" : [
		{
			"uri" : "B338751567601063C0.bin",
			"byteLength" : 49248
		}
	]
}
