{
	"asset" : {
		"generator" : "FME 2023.1.0.0",
		"version" : "2.0"
	},
	"materials" : [
		{
			"name" : "default_material",
			"pbrMetallicRoughness" : {
				"baseColorFactor" : [ 1, 1, 1, 1 ],
				"roughnessFactor" : 0.30000000000000004,
				"metallicFactor" : 0.5
			}
		}
	],
	"meshes" : [
		{
			"primitives" : [
				{
					"attributes" : {
						"NORMAL" : 1,
						"POSITION" : 0,
						"COLOR_0" : 2
					},
					"indices" : 3,
					"material" : 0,
					"mode" : 4
				}
			]
		}
	],
	"nodes" : [
		{
			"name" : "B354521507502063C0",
			"matrix" : [ 1, 0, 0, 0, 0, 0, -1, 0, 0, 1, 0, 0, 835451.6875, 63.41600036621094, -815063.1875, 1 ],
			"children" : [ 1 ]
		},
		{
			"mesh" : 0
		}
	],
	"scenes" : [
		{
			"nodes" : [ 0 ]
		}
	],
	"scene" : 0,
	"accessors" : [
		{
			"bufferView" : 0,
			"byteOffset" : 0,
			"componentType" : 5126,
			"count" : 1800,
			"type" : "VEC3",
			"min" : [ -20.2109375, -15.509765625, 0 ],
			"max" : [ 20.2109375, 15.509765625, 22.108001708984375 ]
		},
		{
			"bufferView" : 1,
			"byteOffset" : 0,
			"componentType" : 5126,
			"count" : 1800,
			"type" : "VEC3",
			"min" : [ -0.9987474083900452, -0.99994957447052, -1 ],
			"max" : [ 1, 0.9999291896820068, 1 ]
		},
		{
			"bufferView" : 2,
			"byteOffset" : 0,
			"componentType" : 5126,
			"count" : 1800,
			"type" : "VEC3"
		},
		{
			"bufferView" : 3,
			"byteOffset" : 0,
			"componentType" : 5123,
			"count" : 1800,
			"type" : "SCALAR",
			"min" : [ 0 ],
			"max" : [ 1799 ]
		}
	],
	"bufferViews" : [
		{
			"buffer" : 0,
			"byteOffset" : 0,
			"byteLength" : 21600,
			"target" : 34962
		},
		{
			"buffer" : 0,
			"byteOffset" : 21600,
			"byteLength" : 21600,
			"target" : 34962
		},
		{
			"buffer" : 0,
			"byteOffset" : 43200,
			"byteLength" : 21600,
			"target" : 34962
		},
		{
			"buffer" : 0,
			"byteOffset" : 64800,
			"byteLength" : 3600,
			"target" : 34963
		}
	],
	"buffers" : [
		{
			"uri" : "B354521507502063C0.bin",
			"byteLength" : 68400
		}
	]
}
