{
	"asset" : {
		"generator" : "FME 2022.2.4.0",
		"version" : "2.0"
	},
	"materials" : [
		{
			"name" : "default_material",
			"pbrMetallicRoughness" : {
				"baseColorFactor" : [ 1, 1, 1, 1 ],
				"roughnessFactor" : 0.30000000000000004,
				"metallicFactor" : 0.5
			}
		}
	],
	"meshes" : [
		{
			"primitives" : [
				{
					"attributes" : {
						"NORMAL" : 1,
						"POSITION" : 0,
						"COLOR_0" : 2
					},
					"indices" : 3,
					"material" : 0,
					"mode" : 4
				}
			]
		}
	],
	"nodes" : [
		{
			"name" : "B344961507901063C0",
			"matrix" : [ 1, 0, 0, 0, 0, 0, -1, 0, 0, 1, 0, 0, 834496.1875, 110.24099731445312, -815083.4375, 1 ],
			"children" : [ 1 ]
		},
		{
			"mesh" : 0
		}
	],
	"scenes" : [
		{
			"nodes" : [ 0 ]
		}
	],
	"scene" : 0,
	"accessors" : [
		{
			"bufferView" : 0,
			"byteOffset" : 0,
			"componentType" : 5126,
			"count" : 17214,
			"type" : "VEC3",
			"min" : [ -22.015625, -14.345703125, 0 ],
			"max" : [ 22.015625, 14.345703125, 59.78800964355469 ]
		},
		{
			"bufferView" : 1,
			"byteOffset" : 0,
			"componentType" : 5126,
			"count" : 17214,
			"type" : "VEC3",
			"min" : [ -0.9967970848083496, -0.9996883869171143, -1 ],
			"max" : [ 0.9994041919708252, 0.9997674822807312, 1 ]
		},
		{
			"bufferView" : 2,
			"byteOffset" : 0,
			"componentType" : 5126,
			"count" : 17214,
			"type" : "VEC3"
		},
		{
			"bufferView" : 3,
			"byteOffset" : 0,
			"componentType" : 5123,
			"count" : 17214,
			"type" : "SCALAR",
			"min" : [ 0 ],
			"max" : [ 17213 ]
		}
	],
	"bufferViews" : [
		{
			"buffer" : 0,
			"byteOffset" : 0,
			"byteLength" : 206568,
			"target" : 34962
		},
		{
			"buffer" : 0,
			"byteOffset" : 206568,
			"byteLength" : 206568,
			"target" : 34962
		},
		{
			"buffer" : 0,
			"byteOffset" : 413136,
			"byteLength" : 206568,
			"target" : 34962
		},
		{
			"buffer" : 0,
			"byteOffset" : 619704,
			"byteLength" : 34428,
			"target" : 34963
		}
	],
	"buffers" : [
		{
			"uri" : "B344961507901063C0.bin",
			"byteLength" : 654132
		}
	]
}
