{
	"asset" : {
		"generator" : "FME 2023.1.0.0",
		"version" : "2.0"
	},
	"materials" : [
		{
			"name" : "default_material",
			"pbrMetallicRoughness" : {
				"baseColorFactor" : [ 1, 1, 1, 1 ],
				"roughnessFactor" : 0.30000000000000004,
				"metallicFactor" : 0.5
			}
		}
	],
	"meshes" : [
		{
			"primitives" : [
				{
					"attributes" : {
						"NORMAL" : 1,
						"POSITION" : 0,
						"COLOR_0" : 2
					},
					"indices" : 3,
					"material" : 0,
					"mode" : 4
				}
			]
		}
	],
	"nodes" : [
		{
			"name" : "B336711629001063C0",
			"matrix" : [ 1, 0, 0, 0, 0, 0, -1, 0, 0, 1, 0, 0, 833675.125, 2.9420008659362793, -816286.9375, 1 ],
			"children" : [ 1 ]
		},
		{
			"mesh" : 0
		}
	],
	"scenes" : [
		{
			"nodes" : [ 0 ]
		}
	],
	"scene" : 0,
	"accessors" : [
		{
			"bufferView" : 0,
			"byteOffset" : 0,
			"componentType" : 5126,
			"count" : 525,
			"type" : "VEC3",
			"min" : [ -6.45703125, -6.3046875, 0 ],
			"max" : [ 6.4560546875, 6.3046875, 21.02899932861328 ]
		},
		{
			"bufferView" : 1,
			"byteOffset" : 0,
			"componentType" : 5126,
			"count" : 525,
			"type" : "VEC3",
			"min" : [ -0.9917430281639099, -0.853264331817627, -1 ],
			"max" : [ 0.9919423460960388, 0.8550094962120056, 1 ]
		},
		{
			"bufferView" : 2,
			"byteOffset" : 0,
			"componentType" : 5126,
			"count" : 525,
			"type" : "VEC3"
		},
		{
			"bufferView" : 3,
			"byteOffset" : 0,
			"componentType" : 5123,
			"count" : 525,
			"type" : "SCALAR",
			"min" : [ 0 ],
			"max" : [ 524 ]
		}
	],
	"bufferViews" : [
		{
			"buffer" : 0,
			"byteOffset" : 0,
			"byteLength" : 6300,
			"target" : 34962
		},
		{
			"buffer" : 0,
			"byteOffset" : 6300,
			"byteLength" : 6300,
			"target" : 34962
		},
		{
			"buffer" : 0,
			"byteOffset" : 12600,
			"byteLength" : 6300,
			"target" : 34962
		},
		{
			"buffer" : 0,
			"byteOffset" : 18900,
			"byteLength" : 1050,
			"target" : 34963
		}
	],
	"buffers" : [
		{
			"uri" : "B336711629001063C0.bin",
			"byteLength" : 19950
		}
	]
}
