{
	"asset" : {
		"generator" : "FME 2022.2.4.0",
		"version" : "2.0"
	},
	"materials" : [
		{
			"name" : "default_material",
			"pbrMetallicRoughness" : {
				"baseColorFactor" : [ 1, 1, 1, 1 ],
				"roughnessFactor" : 0.30000000000000004,
				"metallicFactor" : 0.5
			}
		}
	],
	"meshes" : [
		{
			"primitives" : [
				{
					"attributes" : {
						"NORMAL" : 1,
						"POSITION" : 0,
						"COLOR_0" : 2
					},
					"indices" : 3,
					"material" : 0,
					"mode" : 4
				}
			]
		}
	],
	"nodes" : [
		{
			"name" : "B356701722402063C0",
			"matrix" : [ 1, 0, 0, 0, 0, 0, -1, 0, 0, 1, 0, 0, 835711.25, 2.3411731719970703, -817215.5, 1 ],
			"children" : [ 1 ]
		},
		{
			"mesh" : 0
		}
	],
	"scenes" : [
		{
			"nodes" : [ 0 ]
		}
	],
	"scene" : 0,
	"accessors" : [
		{
			"bufferView" : 0,
			"byteOffset" : 0,
			"componentType" : 5126,
			"count" : 18372,
			"type" : "VEC3",
			"min" : [ -76.666015625, -64.5625, 0 ],
			"max" : [ 76.734375, 64.6435546875, 6.8250932693481445 ]
		},
		{
			"bufferView" : 1,
			"byteOffset" : 0,
			"componentType" : 5126,
			"count" : 18372,
			"type" : "VEC3",
			"min" : [ -0.9989957213401794, -1, -1 ],
			"max" : [ 1, 1, 1 ]
		},
		{
			"bufferView" : 2,
			"byteOffset" : 0,
			"componentType" : 5126,
			"count" : 18372,
			"type" : "VEC3"
		},
		{
			"bufferView" : 3,
			"byteOffset" : 0,
			"componentType" : 5123,
			"count" : 18372,
			"type" : "SCALAR",
			"min" : [ 0 ],
			"max" : [ 18371 ]
		}
	],
	"bufferViews" : [
		{
			"buffer" : 0,
			"byteOffset" : 0,
			"byteLength" : 220464,
			"target" : 34962
		},
		{
			"buffer" : 0,
			"byteOffset" : 220464,
			"byteLength" : 220464,
			"target" : 34962
		},
		{
			"buffer" : 0,
			"byteOffset" : 440928,
			"byteLength" : 220464,
			"target" : 34962
		},
		{
			"buffer" : 0,
			"byteOffset" : 661392,
			"byteLength" : 36744,
			"target" : 34963
		}
	],
	"buffers" : [
		{
			"uri" : "B356701722402063C0.bin",
			"byteLength" : 698136
		}
	]
}
