{
	"asset" : {
		"generator" : "FME 2023.2.1.0",
		"version" : "2.0"
	},
	"materials" : [
		{
			"name" : "default_material",
			"pbrMetallicRoughness" : {
				"baseColorFactor" : [ 1, 1, 1, 1 ],
				"roughnessFactor" : 0.30000000000000004,
				"metallicFactor" : 0.5
			}
		}
	],
	"meshes" : [
		{
			"primitives" : [
				{
					"attributes" : {
						"NORMAL" : 1,
						"POSITION" : 0,
						"COLOR_0" : 2
					},
					"indices" : 3,
					"material" : 0,
					"mode" : 4
				}
			]
		}
	],
	"nodes" : [
		{
			"name" : "B337641606401063C0",
			"matrix" : [ 1, 0, 0, 0, 0, 0, -1, 0, 0, 1, 0, 0, 833768, 33.1619987487793, -816064.4375, 1 ],
			"children" : [ 1 ]
		},
		{
			"mesh" : 0
		}
	],
	"scenes" : [
		{
			"nodes" : [ 0 ]
		}
	],
	"scene" : 0,
	"accessors" : [
		{
			"bufferView" : 0,
			"byteOffset" : 0,
			"componentType" : 5126,
			"count" : 1434,
			"type" : "VEC3",
			"min" : [ -8.99609375, -11.1826171875, 0 ],
			"max" : [ 8.99609375, 11.1826171875, 27.9010009765625 ]
		},
		{
			"bufferView" : 1,
			"byteOffset" : 0,
			"componentType" : 5126,
			"count" : 1434,
			"type" : "VEC3",
			"min" : [ -0.8498295545578003, -0.8500978946685791, -1 ],
			"max" : [ 0.8510360717773438, 0.8501597046852112, 1 ]
		},
		{
			"bufferView" : 2,
			"byteOffset" : 0,
			"componentType" : 5126,
			"count" : 1434,
			"type" : "VEC3"
		},
		{
			"bufferView" : 3,
			"byteOffset" : 0,
			"componentType" : 5123,
			"count" : 1434,
			"type" : "SCALAR",
			"min" : [ 0 ],
			"max" : [ 1433 ]
		}
	],
	"bufferViews" : [
		{
			"buffer" : 0,
			"byteOffset" : 0,
			"byteLength" : 17208,
			"target" : 34962
		},
		{
			"buffer" : 0,
			"byteOffset" : 17208,
			"byteLength" : 17208,
			"target" : 34962
		},
		{
			"buffer" : 0,
			"byteOffset" : 34416,
			"byteLength" : 17208,
			"target" : 34962
		},
		{
			"buffer" : 0,
			"byteOffset" : 51624,
			"byteLength" : 2868,
			"target" : 34963
		}
	],
	"buffers" : [
		{
			"uri" : "B337641606401063C0.bin",
			"byteLength" : 54492
		}
	]
}
