{
	"asset" : {
		"generator" : "FME 2023.1.0.0",
		"version" : "2.0"
	},
	"materials" : [
		{
			"name" : "default_material",
			"pbrMetallicRoughness" : {
				"baseColorFactor" : [ 1, 1, 1, 1 ],
				"roughnessFactor" : 0.30000000000000004,
				"metallicFactor" : 0.5
			}
		}
	],
	"meshes" : [
		{
			"primitives" : [
				{
					"attributes" : {
						"NORMAL" : 1,
						"POSITION" : 0,
						"COLOR_0" : 2
					},
					"indices" : 3,
					"material" : 0,
					"mode" : 4
				}
			]
		}
	],
	"nodes" : [
		{
			"name" : "B339421529801063C0",
			"matrix" : [ 1, 0, 0, 0, 0, 0, -1, 0, 0, 1, 0, 0, 833952.125, 127.12601470947266, -815302.25, 1 ],
			"children" : [ 1 ]
		},
		{
			"mesh" : 0
		}
	],
	"scenes" : [
		{
			"nodes" : [ 0 ]
		}
	],
	"scene" : 0,
	"accessors" : [
		{
			"bufferView" : 0,
			"byteOffset" : 0,
			"componentType" : 5126,
			"count" : 16260,
			"type" : "VEC3",
			"min" : [ -13.359375, -18.5439453125, 0 ],
			"max" : [ 13.359375, 18.54296875, 67.2459945678711 ]
		},
		{
			"bufferView" : 1,
			"byteOffset" : 0,
			"componentType" : 5126,
			"count" : 16260,
			"type" : "VEC3",
			"min" : [ -0.9991909861564636, -0.9962612986564636, -1 ],
			"max" : [ 1, 0.999997615814209, 1 ]
		},
		{
			"bufferView" : 2,
			"byteOffset" : 0,
			"componentType" : 5126,
			"count" : 16260,
			"type" : "VEC3"
		},
		{
			"bufferView" : 3,
			"byteOffset" : 0,
			"componentType" : 5123,
			"count" : 16260,
			"type" : "SCALAR",
			"min" : [ 0 ],
			"max" : [ 16259 ]
		}
	],
	"bufferViews" : [
		{
			"buffer" : 0,
			"byteOffset" : 0,
			"byteLength" : 195120,
			"target" : 34962
		},
		{
			"buffer" : 0,
			"byteOffset" : 195120,
			"byteLength" : 195120,
			"target" : 34962
		},
		{
			"buffer" : 0,
			"byteOffset" : 390240,
			"byteLength" : 195120,
			"target" : 34962
		},
		{
			"buffer" : 0,
			"byteOffset" : 585360,
			"byteLength" : 32520,
			"target" : 34963
		}
	],
	"buffers" : [
		{
			"uri" : "B339421529801063C0.bin",
			"byteLength" : 617880
		}
	]
}
