{
	"asset" : {
		"generator" : "FME 2023.1.0.0",
		"version" : "2.0"
	},
	"materials" : [
		{
			"name" : "default_material",
			"pbrMetallicRoughness" : {
				"baseColorFactor" : [ 1, 1, 1, 1 ],
				"roughnessFactor" : 0.30000000000000004,
				"metallicFactor" : 0.5
			}
		}
	],
	"meshes" : [
		{
			"primitives" : [
				{
					"attributes" : {
						"NORMAL" : 1,
						"POSITION" : 0,
						"COLOR_0" : 2
					},
					"indices" : 3,
					"material" : 0,
					"mode" : 4
				}
			]
		}
	],
	"nodes" : [
		{
			"name" : "B345831563001063C0",
			"matrix" : [ 1, 0, 0, 0, 0, 0, -1, 0, 0, 1, 0, 0, 834584.4375, 7.3249969482421875, -815630.3125, 1 ],
			"children" : [ 1 ]
		},
		{
			"mesh" : 0
		}
	],
	"scenes" : [
		{
			"nodes" : [ 0 ]
		}
	],
	"scene" : 0,
	"accessors" : [
		{
			"bufferView" : 0,
			"byteOffset" : 0,
			"componentType" : 5126,
			"count" : 4503,
			"type" : "VEC3",
			"min" : [ -33.251953125, -33.08984375, 0 ],
			"max" : [ 33.251953125, 33.08984375, 284.9429931640625 ]
		},
		{
			"bufferView" : 1,
			"byteOffset" : 0,
			"componentType" : 5126,
			"count" : 4503,
			"type" : "VEC3",
			"min" : [ -0.9999980926513672, -0.999998927116394, -1 ],
			"max" : [ 0.9998294115066528, 1, 1 ]
		},
		{
			"bufferView" : 2,
			"byteOffset" : 0,
			"componentType" : 5126,
			"count" : 4503,
			"type" : "VEC3"
		},
		{
			"bufferView" : 3,
			"byteOffset" : 0,
			"componentType" : 5123,
			"count" : 4503,
			"type" : "SCALAR",
			"min" : [ 0 ],
			"max" : [ 4502 ]
		}
	],
	"bufferViews" : [
		{
			"buffer" : 0,
			"byteOffset" : 0,
			"byteLength" : 54036,
			"target" : 34962
		},
		{
			"buffer" : 0,
			"byteOffset" : 54036,
			"byteLength" : 54036,
			"target" : 34962
		},
		{
			"buffer" : 0,
			"byteOffset" : 108072,
			"byteLength" : 54036,
			"target" : 34962
		},
		{
			"buffer" : 0,
			"byteOffset" : 162108,
			"byteLength" : 9006,
			"target" : 34963
		}
	],
	"buffers" : [
		{
			"uri" : "B345831563001063C0.bin",
			"byteLength" : 171114
		}
	]
}
