{
	"asset" : {
		"generator" : "FME 2022.2.4.0",
		"version" : "2.0"
	},
	"materials" : [
		{
			"name" : "default_material",
			"pbrMetallicRoughness" : {
				"baseColorFactor" : [ 1, 1, 1, 1 ],
				"roughnessFactor" : 0.30000000000000004,
				"metallicFactor" : 0.5
			}
		}
	],
	"meshes" : [
		{
			"primitives" : [
				{
					"attributes" : {
						"NORMAL" : 1,
						"POSITION" : 0,
						"COLOR_0" : 2
					},
					"indices" : 3,
					"material" : 0,
					"mode" : 4
				}
			]
		}
	],
	"nodes" : [
		{
			"name" : "B340291575901063C0",
			"matrix" : [ 1, 0, 0, 0, 0, 0, -1, 0, 0, 1, 0, 0, 834030.5, 22.174999237060547, -815760.9375, 1 ],
			"children" : [ 1 ]
		},
		{
			"mesh" : 0
		}
	],
	"scenes" : [
		{
			"nodes" : [ 0 ]
		}
	],
	"scene" : 0,
	"accessors" : [
		{
			"bufferView" : 0,
			"byteOffset" : 0,
			"componentType" : 5126,
			"count" : 753,
			"type" : "VEC3",
			"min" : [ -6.275390625, -8.3671875, 0 ],
			"max" : [ 6.275390625, 8.3671875, 41.69200134277344 ]
		},
		{
			"bufferView" : 1,
			"byteOffset" : 0,
			"componentType" : 5126,
			"count" : 753,
			"type" : "VEC3",
			"min" : [ -0.9987273216247559, -0.8050559163093567, -0.03336901590228081 ],
			"max" : [ 0.8056057095527649, 0.8733803033828735, 1 ]
		},
		{
			"bufferView" : 2,
			"byteOffset" : 0,
			"componentType" : 5126,
			"count" : 753,
			"type" : "VEC3"
		},
		{
			"bufferView" : 3,
			"byteOffset" : 0,
			"componentType" : 5123,
			"count" : 753,
			"type" : "SCALAR",
			"min" : [ 0 ],
			"max" : [ 752 ]
		}
	],
	"bufferViews" : [
		{
			"buffer" : 0,
			"byteOffset" : 0,
			"byteLength" : 9036,
			"target" : 34962
		},
		{
			"buffer" : 0,
			"byteOffset" : 9036,
			"byteLength" : 9036,
			"target" : 34962
		},
		{
			"buffer" : 0,
			"byteOffset" : 18072,
			"byteLength" : 9036,
			"target" : 34962
		},
		{
			"buffer" : 0,
			"byteOffset" : 27108,
			"byteLength" : 1506,
			"target" : 34963
		}
	],
	"buffers" : [
		{
			"uri" : "B340291575901063C0.bin",
			"byteLength" : 28614
		}
	]
}
