{
	"asset" : {
		"generator" : "FME 2022.2.4.0",
		"version" : "2.0"
	},
	"materials" : [
		{
			"name" : "default_material",
			"pbrMetallicRoughness" : {
				"baseColorFactor" : [ 1, 1, 1, 1 ],
				"roughnessFactor" : 0.30000000000000004,
				"metallicFactor" : 0.5
			}
		}
	],
	"meshes" : [
		{
			"primitives" : [
				{
					"attributes" : {
						"NORMAL" : 1,
						"POSITION" : 0,
						"COLOR_0" : 2
					},
					"indices" : 3,
					"material" : 0,
					"mode" : 4
				}
			]
		}
	],
	"nodes" : [
		{
			"name" : "B336881629201063C0",
			"matrix" : [ 1, 0, 0, 0, 0, 0, -1, 0, 0, 1, 0, 0, 833687.625, 2.8250010013580322, -816290.75, 1 ],
			"children" : [ 1 ]
		},
		{
			"mesh" : 0
		}
	],
	"scenes" : [
		{
			"nodes" : [ 0 ]
		}
	],
	"scene" : 0,
	"accessors" : [
		{
			"bufferView" : 0,
			"byteOffset" : 0,
			"componentType" : 5126,
			"count" : 408,
			"type" : "VEC3",
			"min" : [ -4.76953125, -2.10546875, 0 ],
			"max" : [ 4.7685546875, 2.10546875, 20.512001037597656 ]
		},
		{
			"bufferView" : 1,
			"byteOffset" : 0,
			"componentType" : 5126,
			"count" : 408,
			"type" : "VEC3",
			"min" : [ -0.9997625350952148, -0.9997559785842896, -1 ],
			"max" : [ 1, 0.999790370464325, 1 ]
		},
		{
			"bufferView" : 2,
			"byteOffset" : 0,
			"componentType" : 5126,
			"count" : 408,
			"type" : "VEC3"
		},
		{
			"bufferView" : 3,
			"byteOffset" : 0,
			"componentType" : 5123,
			"count" : 408,
			"type" : "SCALAR",
			"min" : [ 0 ],
			"max" : [ 407 ]
		}
	],
	"bufferViews" : [
		{
			"buffer" : 0,
			"byteOffset" : 0,
			"byteLength" : 4896,
			"target" : 34962
		},
		{
			"buffer" : 0,
			"byteOffset" : 4896,
			"byteLength" : 4896,
			"target" : 34962
		},
		{
			"buffer" : 0,
			"byteOffset" : 9792,
			"byteLength" : 4896,
			"target" : 34962
		},
		{
			"buffer" : 0,
			"byteOffset" : 14688,
			"byteLength" : 816,
			"target" : 34963
		}
	],
	"buffers" : [
		{
			"uri" : "B336881629201063C0.bin",
			"byteLength" : 15504
		}
	]
}
