{
	"asset" : {
		"generator" : "FME 2022.2.4.0",
		"version" : "2.0"
	},
	"images" : [
		{
			"uri" : "T34500114000106E12_001.jpg"
		}
	],
	"samplers" : [
		{
			"wrapS" : 10497,
			"wrapT" : 10497,
			"magFilter" : 9729,
			"minFilter" : 9986
		}
	],
	"textures" : [
		{
			"source" : 0,
			"sampler" : 0
		}
	],
	"materials" : [
		{
			"name" : "T34500114000106E12_001",
			"pbrMetallicRoughness" : {
				"baseColorTexture" : {
					"index" : 0,
					"texCoord" : 0
				},
				"roughnessFactor" : 0.984375,
				"metallicFactor" : 0.5
			}
		}
	],
	"meshes" : [
		{
			"primitives" : [
				{
					"attributes" : {
						"NORMAL" : 1,
						"POSITION" : 0,
						"TEXCOORD_0" : 2
					},
					"indices" : 3,
					"material" : 0,
					"mode" : 4
				}
			]
		}
	],
	"nodes" : [
		{
			"name" : "T34500114000106E12",
			"matrix" : [ 1, 0, 0, 0, 0, 0, -1, 0, 0, 1, 0, 0, 834875, -0.5813789367675781, -811700, 1 ],
			"children" : [ 1 ]
		},
		{
			"mesh" : 0
		}
	],
	"scenes" : [
		{
			"nodes" : [ 0 ]
		}
	],
	"scene" : 0,
	"accessors" : [
		{
			"bufferView" : 0,
			"byteOffset" : 0,
			"componentType" : 5126,
			"count" : 555966,
			"type" : "VEC3",
			"min" : [ -375.5, -300.5, 0 ],
			"max" : [ 375.5, 300.5, 88.80437469482422 ]
		},
		{
			"bufferView" : 1,
			"byteOffset" : 0,
			"componentType" : 5126,
			"count" : 555966,
			"type" : "VEC3",
			"min" : [ -0.9984115362167358, -0.9988823533058167, -1 ],
			"max" : [ 0.9989393949508667, 0.9978678226470947, 1 ]
		},
		{
			"bufferView" : 2,
			"byteOffset" : 0,
			"componentType" : 5126,
			"count" : 555966,
			"type" : "VEC2",
			"min" : [ 0.0010622759582474828, 0.0021555423736572266 ],
			"max" : [ 0.9982737898826599, 0.9986734986305237 ]
		},
		{
			"bufferView" : 3,
			"byteOffset" : 0,
			"componentType" : 5125,
			"count" : 555966,
			"type" : "SCALAR",
			"min" : [ 0 ],
			"max" : [ 555965 ]
		}
	],
	"bufferViews" : [
		{
			"buffer" : 0,
			"byteOffset" : 0,
			"byteLength" : 6671592,
			"target" : 34962
		},
		{
			"buffer" : 0,
			"byteOffset" : 6671592,
			"byteLength" : 6671592,
			"target" : 34962
		},
		{
			"buffer" : 0,
			"byteOffset" : 13343184,
			"byteLength" : 4447728,
			"target" : 34962
		},
		{
			"buffer" : 0,
			"byteOffset" : 17790912,
			"byteLength" : 2223864,
			"target" : 34963
		}
	],
	"buffers" : [
		{
			"uri" : "T34500114000106E12.bin",
			"byteLength" : 20014776
		}
	]
}
