{
	"asset" : {
		"generator" : "FME 2023.1.0.0",
		"version" : "2.0"
	},
	"materials" : [
		{
			"name" : "default_material",
			"pbrMetallicRoughness" : {
				"baseColorFactor" : [ 1, 1, 1, 1 ],
				"roughnessFactor" : 0.30000000000000004,
				"metallicFactor" : 0.5
			}
		}
	],
	"meshes" : [
		{
			"primitives" : [
				{
					"attributes" : {
						"NORMAL" : 1,
						"POSITION" : 0,
						"COLOR_0" : 2
					},
					"indices" : 3,
					"material" : 0,
					"mode" : 4
				}
			]
		}
	],
	"nodes" : [
		{
			"name" : "B344841563401063C0",
			"matrix" : [ 1, 0, 0, 0, 0, 0, -1, 0, 0, 1, 0, 0, 834495.5, 19.743999481201172, -815618.75, 1 ],
			"children" : [ 1 ]
		},
		{
			"mesh" : 0
		}
	],
	"scenes" : [
		{
			"nodes" : [ 0 ]
		}
	],
	"scene" : 0,
	"accessors" : [
		{
			"bufferView" : 0,
			"byteOffset" : 0,
			"componentType" : 5126,
			"count" : 9825,
			"type" : "VEC3",
			"min" : [ -20.3837890625, -22.705078125, 0 ],
			"max" : [ 20.4326171875, 22.7265625, 26.554000854492188 ]
		},
		{
			"bufferView" : 1,
			"byteOffset" : 0,
			"componentType" : 5126,
			"count" : 9825,
			"type" : "VEC3",
			"min" : [ -1, -0.9981993436813354, -1 ],
			"max" : [ 1, 0.9994801878929138, 1 ]
		},
		{
			"bufferView" : 2,
			"byteOffset" : 0,
			"componentType" : 5126,
			"count" : 9825,
			"type" : "VEC3"
		},
		{
			"bufferView" : 3,
			"byteOffset" : 0,
			"componentType" : 5123,
			"count" : 9825,
			"type" : "SCALAR",
			"min" : [ 0 ],
			"max" : [ 9824 ]
		}
	],
	"bufferViews" : [
		{
			"buffer" : 0,
			"byteOffset" : 0,
			"byteLength" : 117900,
			"target" : 34962
		},
		{
			"buffer" : 0,
			"byteOffset" : 117900,
			"byteLength" : 117900,
			"target" : 34962
		},
		{
			"buffer" : 0,
			"byteOffset" : 235800,
			"byteLength" : 117900,
			"target" : 34962
		},
		{
			"buffer" : 0,
			"byteOffset" : 353700,
			"byteLength" : 19650,
			"target" : 34963
		}
	],
	"buffers" : [
		{
			"uri" : "B344841563401063C0.bin",
			"byteLength" : 373350
		}
	]
}
