{
	"asset" : {
		"generator" : "FME 2022.2.4.0",
		"version" : "2.0"
	},
	"materials" : [
		{
			"name" : "default_material",
			"pbrMetallicRoughness" : {
				"baseColorFactor" : [ 1, 1, 1, 1 ],
				"roughnessFactor" : 0.30000000000000004,
				"metallicFactor" : 0.5
			}
		}
	],
	"meshes" : [
		{
			"primitives" : [
				{
					"attributes" : {
						"NORMAL" : 1,
						"POSITION" : 0,
						"COLOR_0" : 2
					},
					"indices" : 3,
					"material" : 0,
					"mode" : 4
				}
			]
		}
	],
	"nodes" : [
		{
			"name" : "B170521444401062G0",
			"matrix" : [ 1, 0, 0, 0, 0, 0, -1, 0, 0, 1, 0, 0, 817052.875, 12.749099731445312, -814443, 1 ],
			"children" : [ 1 ]
		},
		{
			"mesh" : 0
		}
	],
	"scenes" : [
		{
			"nodes" : [ 0 ]
		}
	],
	"scene" : 0,
	"accessors" : [
		{
			"bufferView" : 0,
			"byteOffset" : 0,
			"componentType" : 5126,
			"count" : 402,
			"type" : "VEC3",
			"min" : [ -7.5, -7.1875, 0 ],
			"max" : [ 7.5625, 7.1875, 3.134500503540039 ]
		},
		{
			"bufferView" : 1,
			"byteOffset" : 0,
			"componentType" : 5126,
			"count" : 402,
			"type" : "VEC3",
			"min" : [ -0.9403231739997864, -0.8222025036811829, -1 ],
			"max" : [ 0.8235101103782654, 0.9618396162986755, 1 ]
		},
		{
			"bufferView" : 2,
			"byteOffset" : 0,
			"componentType" : 5126,
			"count" : 402,
			"type" : "VEC3"
		},
		{
			"bufferView" : 3,
			"byteOffset" : 0,
			"componentType" : 5123,
			"count" : 402,
			"type" : "SCALAR",
			"min" : [ 0 ],
			"max" : [ 401 ]
		}
	],
	"bufferViews" : [
		{
			"buffer" : 0,
			"byteOffset" : 0,
			"byteLength" : 4824,
			"target" : 34962
		},
		{
			"buffer" : 0,
			"byteOffset" : 4824,
			"byteLength" : 4824,
			"target" : 34962
		},
		{
			"buffer" : 0,
			"byteOffset" : 9648,
			"byteLength" : 4824,
			"target" : 34962
		},
		{
			"buffer" : 0,
			"byteOffset" : 14472,
			"byteLength" : 804,
			"target" : 34963
		}
	],
	"buffers" : [
		{
			"uri" : "B170521444401062G0.bin",
			"byteLength" : 15276
		}
	]
}
