{
	"asset" : {
		"generator" : "FME 2023.2.1.0",
		"version" : "2.0"
	},
	"materials" : [
		{
			"name" : "default_material",
			"pbrMetallicRoughness" : {
				"baseColorFactor" : [ 1, 1, 1, 1 ],
				"roughnessFactor" : 0.30000000000000004,
				"metallicFactor" : 0.5
			}
		}
	],
	"meshes" : [
		{
			"primitives" : [
				{
					"attributes" : {
						"NORMAL" : 1,
						"POSITION" : 0,
						"COLOR_0" : 2
					},
					"indices" : 3,
					"material" : 0,
					"mode" : 4
				}
			]
		}
	],
	"nodes" : [
		{
			"name" : "B346531646401063C0",
			"matrix" : [ 1, 0, 0, 0, 0, 0, -1, 0, 0, 1, 0, 0, 834650.5, 1.2510000467300415, -816461.125, 1 ],
			"children" : [ 1 ]
		},
		{
			"mesh" : 0
		}
	],
	"scenes" : [
		{
			"nodes" : [ 0 ]
		}
	],
	"scene" : 0,
	"accessors" : [
		{
			"bufferView" : 0,
			"byteOffset" : 0,
			"componentType" : 5126,
			"count" : 53787,
			"type" : "VEC3",
			"min" : [ -30.646484375, -44.36328125, 0 ],
			"max" : [ 30.646484375, 44.36328125, 19.619001388549805 ]
		},
		{
			"bufferView" : 1,
			"byteOffset" : 0,
			"componentType" : 5126,
			"count" : 53787,
			"type" : "VEC3",
			"min" : [ -1, -1, -1 ],
			"max" : [ 1, 0.999964714050293, 1 ]
		},
		{
			"bufferView" : 2,
			"byteOffset" : 0,
			"componentType" : 5126,
			"count" : 53787,
			"type" : "VEC3"
		},
		{
			"bufferView" : 3,
			"byteOffset" : 0,
			"componentType" : 5123,
			"count" : 53787,
			"type" : "SCALAR",
			"min" : [ 0 ],
			"max" : [ 53786 ]
		}
	],
	"bufferViews" : [
		{
			"buffer" : 0,
			"byteOffset" : 0,
			"byteLength" : 645444,
			"target" : 34962
		},
		{
			"buffer" : 0,
			"byteOffset" : 645444,
			"byteLength" : 645444,
			"target" : 34962
		},
		{
			"buffer" : 0,
			"byteOffset" : 1290888,
			"byteLength" : 645444,
			"target" : 34962
		},
		{
			"buffer" : 0,
			"byteOffset" : 1936332,
			"byteLength" : 107574,
			"target" : 34963
		}
	],
	"buffers" : [
		{
			"uri" : "B346531646401063C0.bin",
			"byteLength" : 2043906
		}
	]
}
