{
	"asset" : {
		"generator" : "FME 2023.1.0.0",
		"version" : "2.0"
	},
	"materials" : [
		{
			"name" : "default_material",
			"pbrMetallicRoughness" : {
				"baseColorFactor" : [ 1, 1, 1, 1 ],
				"roughnessFactor" : 0.30000000000000004,
				"metallicFactor" : 0.5
			}
		}
	],
	"meshes" : [
		{
			"primitives" : [
				{
					"attributes" : {
						"NORMAL" : 1,
						"POSITION" : 0,
						"COLOR_0" : 2
					},
					"indices" : 3,
					"material" : 0,
					"mode" : 4
				}
			]
		}
	],
	"nodes" : [
		{
			"name" : "B359051522301063C0",
			"matrix" : [ 1, 0, 0, 0, 0, 0, -1, 0, 0, 1, 0, 0, 835908.8125, 12.413000106811523, -815221.625, 1 ],
			"children" : [ 1 ]
		},
		{
			"mesh" : 0
		}
	],
	"scenes" : [
		{
			"nodes" : [ 0 ]
		}
	],
	"scene" : 0,
	"accessors" : [
		{
			"bufferView" : 0,
			"byteOffset" : 0,
			"componentType" : 5126,
			"count" : 1002,
			"type" : "VEC3",
			"min" : [ -5.1318359375, -7.9912109375, 0 ],
			"max" : [ 5.1328125, 7.9912109375, 63.508995056152344 ]
		},
		{
			"bufferView" : 1,
			"byteOffset" : 0,
			"componentType" : 5126,
			"count" : 1002,
			"type" : "VEC3",
			"min" : [ -0.9950879216194153, -0.9948688745498657, -0.005121398251503706 ],
			"max" : [ 0.9947196841239929, 0.9950053691864014, 1 ]
		},
		{
			"bufferView" : 2,
			"byteOffset" : 0,
			"componentType" : 5126,
			"count" : 1002,
			"type" : "VEC3"
		},
		{
			"bufferView" : 3,
			"byteOffset" : 0,
			"componentType" : 5123,
			"count" : 1002,
			"type" : "SCALAR",
			"min" : [ 0 ],
			"max" : [ 1001 ]
		}
	],
	"bufferViews" : [
		{
			"buffer" : 0,
			"byteOffset" : 0,
			"byteLength" : 12024,
			"target" : 34962
		},
		{
			"buffer" : 0,
			"byteOffset" : 12024,
			"byteLength" : 12024,
			"target" : 34962
		},
		{
			"buffer" : 0,
			"byteOffset" : 24048,
			"byteLength" : 12024,
			"target" : 34962
		},
		{
			"buffer" : 0,
			"byteOffset" : 36072,
			"byteLength" : 2004,
			"target" : 34963
		}
	],
	"buffers" : [
		{
			"uri" : "B359051522301063C0.bin",
			"byteLength" : 38076
		}
	]
}
