{
	"asset" : {
		"generator" : "FME 2022.2.4.0",
		"version" : "2.0"
	},
	"materials" : [
		{
			"name" : "default_material",
			"pbrMetallicRoughness" : {
				"baseColorFactor" : [ 1, 1, 1, 1 ],
				"roughnessFactor" : 0.30000000000000004,
				"metallicFactor" : 0.5
			}
		}
	],
	"meshes" : [
		{
			"primitives" : [
				{
					"attributes" : {
						"NORMAL" : 1,
						"POSITION" : 0,
						"COLOR_0" : 2
					},
					"indices" : 3,
					"material" : 0,
					"mode" : 4
				}
			]
		}
	],
	"nodes" : [
		{
			"name" : "B343121574501063C0",
			"matrix" : [ 1, 0, 0, 0, 0, 0, -1, 0, 0, 1, 0, 0, 834312.9375, 24.006999969482422, -815742.625, 1 ],
			"children" : [ 1 ]
		},
		{
			"mesh" : 0
		}
	],
	"scenes" : [
		{
			"nodes" : [ 0 ]
		}
	],
	"scene" : 0,
	"accessors" : [
		{
			"bufferView" : 0,
			"byteOffset" : 0,
			"componentType" : 5126,
			"count" : 975,
			"type" : "VEC3",
			"min" : [ -22.224609375, -22.73828125, 0 ],
			"max" : [ 22.2607421875, 22.724609375, 93.76800537109375 ]
		},
		{
			"bufferView" : 1,
			"byteOffset" : 0,
			"componentType" : 5126,
			"count" : 975,
			"type" : "VEC3",
			"min" : [ -0.9982516765594482, -0.8763665556907654, -1 ],
			"max" : [ 0.998292863368988, 0.9158191084861755, 1 ]
		},
		{
			"bufferView" : 2,
			"byteOffset" : 0,
			"componentType" : 5126,
			"count" : 975,
			"type" : "VEC3"
		},
		{
			"bufferView" : 3,
			"byteOffset" : 0,
			"componentType" : 5123,
			"count" : 975,
			"type" : "SCALAR",
			"min" : [ 0 ],
			"max" : [ 974 ]
		}
	],
	"bufferViews" : [
		{
			"buffer" : 0,
			"byteOffset" : 0,
			"byteLength" : 11700,
			"target" : 34962
		},
		{
			"buffer" : 0,
			"byteOffset" : 11700,
			"byteLength" : 11700,
			"target" : 34962
		},
		{
			"buffer" : 0,
			"byteOffset" : 23400,
			"byteLength" : 11700,
			"target" : 34962
		},
		{
			"buffer" : 0,
			"byteOffset" : 35100,
			"byteLength" : 1950,
			"target" : 34963
		}
	],
	"buffers" : [
		{
			"uri" : "B343121574501063C0.bin",
			"byteLength" : 37050
		}
	]
}
