{
	"asset" : {
		"generator" : "FME 2022.2.4.0",
		"version" : "2.0"
	},
	"materials" : [
		{
			"name" : "default_material",
			"pbrMetallicRoughness" : {
				"baseColorFactor" : [ 1, 1, 1, 1 ],
				"roughnessFactor" : 0.30000000000000004,
				"metallicFactor" : 0.5
			}
		}
	],
	"meshes" : [
		{
			"primitives" : [
				{
					"attributes" : {
						"NORMAL" : 1,
						"POSITION" : 0,
						"COLOR_0" : 2
					},
					"indices" : 3,
					"material" : 0,
					"mode" : 4
				}
			]
		}
	],
	"nodes" : [
		{
			"name" : "B332071611202063C0",
			"matrix" : [ 1, 0, 0, 0, 0, 0, -1, 0, 0, 1, 0, 0, 833209, 55.59700012207031, -816113.25, 1 ],
			"children" : [ 1 ]
		},
		{
			"mesh" : 0
		}
	],
	"scenes" : [
		{
			"nodes" : [ 0 ]
		}
	],
	"scene" : 0,
	"accessors" : [
		{
			"bufferView" : 0,
			"byteOffset" : 0,
			"componentType" : 5126,
			"count" : 87,
			"type" : "VEC3",
			"min" : [ -5.861328125, -3.8818359375, 0 ],
			"max" : [ 5.861328125, 3.8828125, 6.632999420166016 ]
		},
		{
			"bufferView" : 1,
			"byteOffset" : 0,
			"componentType" : 5126,
			"count" : 87,
			"type" : "VEC3",
			"min" : [ -0.9992736577987671, -0.9992715120315552, -1 ],
			"max" : [ 0.7116860747337341, 0.9992612600326538, 1 ]
		},
		{
			"bufferView" : 2,
			"byteOffset" : 0,
			"componentType" : 5126,
			"count" : 87,
			"type" : "VEC3"
		},
		{
			"bufferView" : 3,
			"byteOffset" : 0,
			"componentType" : 5121,
			"count" : 87,
			"type" : "SCALAR",
			"min" : [ 0 ],
			"max" : [ 86 ]
		}
	],
	"bufferViews" : [
		{
			"buffer" : 0,
			"byteOffset" : 0,
			"byteLength" : 1044,
			"target" : 34962
		},
		{
			"buffer" : 0,
			"byteOffset" : 1044,
			"byteLength" : 1044,
			"target" : 34962
		},
		{
			"buffer" : 0,
			"byteOffset" : 2088,
			"byteLength" : 1044,
			"target" : 34962
		},
		{
			"buffer" : 0,
			"byteOffset" : 3132,
			"byteLength" : 87,
			"target" : 34963
		}
	],
	"buffers" : [
		{
			"uri" : "B332071611202063C0.bin",
			"byteLength" : 3219
		}
	]
}
