{
	"asset" : {
		"generator" : "FME 2022.2.4.0",
		"version" : "2.0"
	},
	"materials" : [
		{
			"name" : "default_material",
			"pbrMetallicRoughness" : {
				"baseColorFactor" : [ 1, 1, 1, 1 ],
				"roughnessFactor" : 0.30000000000000004,
				"metallicFactor" : 0.5
			}
		}
	],
	"meshes" : [
		{
			"primitives" : [
				{
					"attributes" : {
						"NORMAL" : 1,
						"POSITION" : 0,
						"COLOR_0" : 2
					},
					"indices" : 3,
					"material" : 0,
					"mode" : 4
				}
			]
		}
	],
	"nodes" : [
		{
			"name" : "B336491638702063C0",
			"matrix" : [ 1, 0, 0, 0, 0, 0, -1, 0, 0, 1, 0, 0, 833649.5, 2.762004852294922, -816385.75, 1 ],
			"children" : [ 1 ]
		},
		{
			"mesh" : 0
		}
	],
	"scenes" : [
		{
			"nodes" : [ 0 ]
		}
	],
	"scene" : 0,
	"accessors" : [
		{
			"bufferView" : 0,
			"byteOffset" : 0,
			"componentType" : 5126,
			"count" : 855,
			"type" : "VEC3",
			"min" : [ -21.4140625, -11.5439453125, 0 ],
			"max" : [ 21.4150390625, 11.544921875, 14.615001678466797 ]
		},
		{
			"bufferView" : 1,
			"byteOffset" : 0,
			"componentType" : 5126,
			"count" : 855,
			"type" : "VEC3",
			"min" : [ -0.9683762788772583, -0.9641689658164978, -1 ],
			"max" : [ 0.9638351202011108, 0.9738943576812744, 1 ]
		},
		{
			"bufferView" : 2,
			"byteOffset" : 0,
			"componentType" : 5126,
			"count" : 855,
			"type" : "VEC3"
		},
		{
			"bufferView" : 3,
			"byteOffset" : 0,
			"componentType" : 5123,
			"count" : 855,
			"type" : "SCALAR",
			"min" : [ 0 ],
			"max" : [ 854 ]
		}
	],
	"bufferViews" : [
		{
			"buffer" : 0,
			"byteOffset" : 0,
			"byteLength" : 10260,
			"target" : 34962
		},
		{
			"buffer" : 0,
			"byteOffset" : 10260,
			"byteLength" : 10260,
			"target" : 34962
		},
		{
			"buffer" : 0,
			"byteOffset" : 20520,
			"byteLength" : 10260,
			"target" : 34962
		},
		{
			"buffer" : 0,
			"byteOffset" : 30780,
			"byteLength" : 1710,
			"target" : 34963
		}
	],
	"buffers" : [
		{
			"uri" : "B336491638702063C0.bin",
			"byteLength" : 32490
		}
	]
}
