{
	"asset" : {
		"generator" : "FME 2022.2.4.0",
		"version" : "2.0"
	},
	"materials" : [
		{
			"name" : "default_material",
			"pbrMetallicRoughness" : {
				"baseColorFactor" : [ 1, 1, 1, 1 ],
				"roughnessFactor" : 0.30000000000000004,
				"metallicFactor" : 0.5
			}
		}
	],
	"meshes" : [
		{
			"primitives" : [
				{
					"attributes" : {
						"NORMAL" : 1,
						"POSITION" : 0,
						"COLOR_0" : 2
					},
					"indices" : 3,
					"material" : 0,
					"mode" : 4
				}
			]
		}
	],
	"nodes" : [
		{
			"name" : "B337311633601063C0",
			"matrix" : [ 1, 0, 0, 0, 0, 0, -1, 0, 0, 1, 0, 0, 833731.875, 2.884000062942505, -816337.25, 1 ],
			"children" : [ 1 ]
		},
		{
			"mesh" : 0
		}
	],
	"scenes" : [
		{
			"nodes" : [ 0 ]
		}
	],
	"scene" : 0,
	"accessors" : [
		{
			"bufferView" : 0,
			"byteOffset" : 0,
			"componentType" : 5126,
			"count" : 1653,
			"type" : "VEC3",
			"min" : [ -10.310546875, -9.462890625, 0 ],
			"max" : [ 10.310546875, 9.4638671875, 98.91400146484375 ]
		},
		{
			"bufferView" : 1,
			"byteOffset" : 0,
			"componentType" : 5126,
			"count" : 1653,
			"type" : "VEC3",
			"min" : [ -0.9960141777992249, -0.9891125559806824, -1 ],
			"max" : [ 0.9998215436935425, 1, 1 ]
		},
		{
			"bufferView" : 2,
			"byteOffset" : 0,
			"componentType" : 5126,
			"count" : 1653,
			"type" : "VEC3"
		},
		{
			"bufferView" : 3,
			"byteOffset" : 0,
			"componentType" : 5123,
			"count" : 1653,
			"type" : "SCALAR",
			"min" : [ 0 ],
			"max" : [ 1652 ]
		}
	],
	"bufferViews" : [
		{
			"buffer" : 0,
			"byteOffset" : 0,
			"byteLength" : 19836,
			"target" : 34962
		},
		{
			"buffer" : 0,
			"byteOffset" : 19836,
			"byteLength" : 19836,
			"target" : 34962
		},
		{
			"buffer" : 0,
			"byteOffset" : 39672,
			"byteLength" : 19836,
			"target" : 34962
		},
		{
			"buffer" : 0,
			"byteOffset" : 59508,
			"byteLength" : 3306,
			"target" : 34963
		}
	],
	"buffers" : [
		{
			"uri" : "B337311633601063C0.bin",
			"byteLength" : 62814
		}
	]
}
