{
	"asset" : {
		"generator" : "FME 2023.1.0.0",
		"version" : "2.0"
	},
	"materials" : [
		{
			"name" : "default_material",
			"pbrMetallicRoughness" : {
				"baseColorFactor" : [ 1, 1, 1, 1 ],
				"roughnessFactor" : 0.30000000000000004,
				"metallicFactor" : 0.5
			}
		}
	],
	"meshes" : [
		{
			"primitives" : [
				{
					"attributes" : {
						"NORMAL" : 1,
						"POSITION" : 0,
						"COLOR_0" : 2
					},
					"indices" : 3,
					"material" : 0,
					"mode" : 4
				}
			]
		}
	],
	"nodes" : [
		{
			"name" : "B330271656401063C0",
			"matrix" : [ 1, 0, 0, 0, 0, 0, -1, 0, 0, 1, 0, 0, 833027.3125, 18.131000518798828, -816565.6875, 1 ],
			"children" : [ 1 ]
		},
		{
			"mesh" : 0
		}
	],
	"scenes" : [
		{
			"nodes" : [ 0 ]
		}
	],
	"scene" : 0,
	"accessors" : [
		{
			"bufferView" : 0,
			"byteOffset" : 0,
			"componentType" : 5126,
			"count" : 705,
			"type" : "VEC3",
			"min" : [ -5.48095703125, -8.4248046875, 0 ],
			"max" : [ 5.48095703125, 8.4248046875, 99.03799438476562 ]
		},
		{
			"bufferView" : 1,
			"byteOffset" : 0,
			"componentType" : 5126,
			"count" : 705,
			"type" : "VEC3",
			"min" : [ -0.9955256581306458, -0.9954044222831726, -1 ],
			"max" : [ 0.996192991733551, 0.9953436255455017, 1 ]
		},
		{
			"bufferView" : 2,
			"byteOffset" : 0,
			"componentType" : 5126,
			"count" : 705,
			"type" : "VEC3"
		},
		{
			"bufferView" : 3,
			"byteOffset" : 0,
			"componentType" : 5123,
			"count" : 705,
			"type" : "SCALAR",
			"min" : [ 0 ],
			"max" : [ 704 ]
		}
	],
	"bufferViews" : [
		{
			"buffer" : 0,
			"byteOffset" : 0,
			"byteLength" : 8460,
			"target" : 34962
		},
		{
			"buffer" : 0,
			"byteOffset" : 8460,
			"byteLength" : 8460,
			"target" : 34962
		},
		{
			"buffer" : 0,
			"byteOffset" : 16920,
			"byteLength" : 8460,
			"target" : 34962
		},
		{
			"buffer" : 0,
			"byteOffset" : 25380,
			"byteLength" : 1410,
			"target" : 34963
		}
	],
	"buffers" : [
		{
			"uri" : "B330271656401063C0.bin",
			"byteLength" : 26790
		}
	]
}
