{
	"asset" : {
		"generator" : "FME 2022.2.4.0",
		"version" : "2.0"
	},
	"materials" : [
		{
			"name" : "default_material",
			"pbrMetallicRoughness" : {
				"baseColorFactor" : [ 1, 1, 1, 1 ],
				"roughnessFactor" : 0.30000000000000004,
				"metallicFactor" : 0.5
			}
		}
	],
	"meshes" : [
		{
			"primitives" : [
				{
					"attributes" : {
						"NORMAL" : 1,
						"POSITION" : 0,
						"COLOR_0" : 2
					},
					"indices" : 3,
					"material" : 0,
					"mode" : 4
				}
			]
		}
	],
	"nodes" : [
		{
			"name" : "B335921627201063C0",
			"matrix" : [ 1, 0, 0, 0, 0, 0, -1, 0, 0, 1, 0, 0, 833591.75, 33.52000045776367, -816272.5, 1 ],
			"children" : [ 1 ]
		},
		{
			"mesh" : 0
		}
	],
	"scenes" : [
		{
			"nodes" : [ 0 ]
		}
	],
	"scene" : 0,
	"accessors" : [
		{
			"bufferView" : 0,
			"byteOffset" : 0,
			"componentType" : 5126,
			"count" : 1110,
			"type" : "VEC3",
			"min" : [ -12.9150390625, -12.994140625, 0 ],
			"max" : [ 12.9140625, 12.9951171875, 113.50698852539062 ]
		},
		{
			"bufferView" : 1,
			"byteOffset" : 0,
			"componentType" : 5126,
			"count" : 1110,
			"type" : "VEC3",
			"min" : [ -0.83427494764328, -0.8291880488395691, -1 ],
			"max" : [ 0.8597201108932495, 0.8342191576957703, 1 ]
		},
		{
			"bufferView" : 2,
			"byteOffset" : 0,
			"componentType" : 5126,
			"count" : 1110,
			"type" : "VEC3"
		},
		{
			"bufferView" : 3,
			"byteOffset" : 0,
			"componentType" : 5123,
			"count" : 1110,
			"type" : "SCALAR",
			"min" : [ 0 ],
			"max" : [ 1109 ]
		}
	],
	"bufferViews" : [
		{
			"buffer" : 0,
			"byteOffset" : 0,
			"byteLength" : 13320,
			"target" : 34962
		},
		{
			"buffer" : 0,
			"byteOffset" : 13320,
			"byteLength" : 13320,
			"target" : 34962
		},
		{
			"buffer" : 0,
			"byteOffset" : 26640,
			"byteLength" : 13320,
			"target" : 34962
		},
		{
			"buffer" : 0,
			"byteOffset" : 39960,
			"byteLength" : 2220,
			"target" : 34963
		}
	],
	"buffers" : [
		{
			"uri" : "B335921627201063C0.bin",
			"byteLength" : 42180
		}
	]
}
