{
	"asset" : {
		"generator" : "FME 2022.2.4.0",
		"version" : "2.0"
	},
	"materials" : [
		{
			"name" : "default_material",
			"pbrMetallicRoughness" : {
				"baseColorFactor" : [ 1, 1, 1, 1 ],
				"roughnessFactor" : 0.30000000000000004,
				"metallicFactor" : 0.5
			}
		}
	],
	"meshes" : [
		{
			"primitives" : [
				{
					"attributes" : {
						"NORMAL" : 1,
						"POSITION" : 0,
						"COLOR_0" : 2
					},
					"indices" : 3,
					"material" : 0,
					"mode" : 4
				}
			]
		}
	],
	"nodes" : [
		{
			"name" : "B334071621101063C0",
			"matrix" : [ 1, 0, 0, 0, 0, 0, -1, 0, 0, 1, 0, 0, 833410.3125, 22.154998779296875, -816209.125, 1 ],
			"children" : [ 1 ]
		},
		{
			"mesh" : 0
		}
	],
	"scenes" : [
		{
			"nodes" : [ 0 ]
		}
	],
	"scene" : 0,
	"accessors" : [
		{
			"bufferView" : 0,
			"byteOffset" : 0,
			"componentType" : 5126,
			"count" : 912,
			"type" : "VEC3",
			"min" : [ -6.25, -6.2919921875, 0 ],
			"max" : [ 6.25, 6.29296875, 24.717002868652344 ]
		},
		{
			"bufferView" : 1,
			"byteOffset" : 0,
			"componentType" : 5126,
			"count" : 912,
			"type" : "VEC3",
			"min" : [ -0.9998726844787598, -0.9999687671661377, -1 ],
			"max" : [ 0.9977501630783081, 0.7628955841064453, 1 ]
		},
		{
			"bufferView" : 2,
			"byteOffset" : 0,
			"componentType" : 5126,
			"count" : 912,
			"type" : "VEC3"
		},
		{
			"bufferView" : 3,
			"byteOffset" : 0,
			"componentType" : 5123,
			"count" : 912,
			"type" : "SCALAR",
			"min" : [ 0 ],
			"max" : [ 911 ]
		}
	],
	"bufferViews" : [
		{
			"buffer" : 0,
			"byteOffset" : 0,
			"byteLength" : 10944,
			"target" : 34962
		},
		{
			"buffer" : 0,
			"byteOffset" : 10944,
			"byteLength" : 10944,
			"target" : 34962
		},
		{
			"buffer" : 0,
			"byteOffset" : 21888,
			"byteLength" : 10944,
			"target" : 34962
		},
		{
			"buffer" : 0,
			"byteOffset" : 32832,
			"byteLength" : 1824,
			"target" : 34963
		}
	],
	"buffers" : [
		{
			"uri" : "B334071621101063C0.bin",
			"byteLength" : 34656
		}
	]
}
