{
	"asset" : {
		"generator" : "FME 2023.1.0.0",
		"version" : "2.0"
	},
	"materials" : [
		{
			"name" : "default_material",
			"pbrMetallicRoughness" : {
				"baseColorFactor" : [ 1, 1, 1, 1 ],
				"roughnessFactor" : 0.30000000000000004,
				"metallicFactor" : 0.5
			}
		}
	],
	"meshes" : [
		{
			"primitives" : [
				{
					"attributes" : {
						"NORMAL" : 1,
						"POSITION" : 0,
						"COLOR_0" : 2
					},
					"indices" : 3,
					"material" : 0,
					"mode" : 4
				}
			]
		}
	],
	"nodes" : [
		{
			"name" : "B342201611001063C0",
			"matrix" : [ 1, 0, 0, 0, 0, 0, -1, 0, 0, 1, 0, 0, 834218.8125, 3.6010000705718994, -816103.75, 1 ],
			"children" : [ 1 ]
		},
		{
			"mesh" : 0
		}
	],
	"scenes" : [
		{
			"nodes" : [ 0 ]
		}
	],
	"scene" : 0,
	"accessors" : [
		{
			"bufferView" : 0,
			"byteOffset" : 0,
			"componentType" : 5126,
			"count" : 4032,
			"type" : "VEC3",
			"min" : [ -15.7021484375, -14.873046875, 0 ],
			"max" : [ 15.7001953125, 14.900390625, 77.83200073242188 ]
		},
		{
			"bufferView" : 1,
			"byteOffset" : 0,
			"componentType" : 5126,
			"count" : 4032,
			"type" : "VEC3",
			"min" : [ -0.9925434589385986, -0.9988681674003601, -1 ],
			"max" : [ 0.9924123883247375, 0.9992887377738953, 1 ]
		},
		{
			"bufferView" : 2,
			"byteOffset" : 0,
			"componentType" : 5126,
			"count" : 4032,
			"type" : "VEC3"
		},
		{
			"bufferView" : 3,
			"byteOffset" : 0,
			"componentType" : 5123,
			"count" : 4032,
			"type" : "SCALAR",
			"min" : [ 0 ],
			"max" : [ 4031 ]
		}
	],
	"bufferViews" : [
		{
			"buffer" : 0,
			"byteOffset" : 0,
			"byteLength" : 48384,
			"target" : 34962
		},
		{
			"buffer" : 0,
			"byteOffset" : 48384,
			"byteLength" : 48384,
			"target" : 34962
		},
		{
			"buffer" : 0,
			"byteOffset" : 96768,
			"byteLength" : 48384,
			"target" : 34962
		},
		{
			"buffer" : 0,
			"byteOffset" : 145152,
			"byteLength" : 8064,
			"target" : 34963
		}
	],
	"buffers" : [
		{
			"uri" : "B342201611001063C0.bin",
			"byteLength" : 153216
		}
	]
}
