{
	"asset" : {
		"generator" : "FME 2022.2.4.0",
		"version" : "2.0"
	},
	"materials" : [
		{
			"name" : "default_material",
			"pbrMetallicRoughness" : {
				"baseColorFactor" : [ 1, 1, 1, 1 ],
				"roughnessFactor" : 0.30000000000000004,
				"metallicFactor" : 0.5
			}
		}
	],
	"meshes" : [
		{
			"primitives" : [
				{
					"attributes" : {
						"NORMAL" : 1,
						"POSITION" : 0,
						"COLOR_0" : 2
					},
					"indices" : 3,
					"material" : 0,
					"mode" : 4
				}
			]
		}
	],
	"nodes" : [
		{
			"name" : "B336261667301063C0",
			"matrix" : [ 1, 0, 0, 0, 0, 0, -1, 0, 0, 1, 0, 0, 833626.6875, 4, -816673.5625, 1 ],
			"children" : [ 1 ]
		},
		{
			"mesh" : 0
		}
	],
	"scenes" : [
		{
			"nodes" : [ 0 ]
		}
	],
	"scene" : 0,
	"accessors" : [
		{
			"bufferView" : 0,
			"byteOffset" : 0,
			"componentType" : 5126,
			"count" : 270,
			"type" : "VEC3",
			"min" : [ -6.7734375, -6.962890625, 0 ],
			"max" : [ 6.7744140625, 6.9638671875, 3.434999942779541 ]
		},
		{
			"bufferView" : 1,
			"byteOffset" : 0,
			"componentType" : 5126,
			"count" : 270,
			"type" : "VEC3",
			"min" : [ -0.9663889408111572, -0.9664430618286133, -1 ],
			"max" : [ 0.9664106965065002, 0.966400146484375, 1 ]
		},
		{
			"bufferView" : 2,
			"byteOffset" : 0,
			"componentType" : 5126,
			"count" : 270,
			"type" : "VEC3"
		},
		{
			"bufferView" : 3,
			"byteOffset" : 0,
			"componentType" : 5123,
			"count" : 270,
			"type" : "SCALAR",
			"min" : [ 0 ],
			"max" : [ 269 ]
		}
	],
	"bufferViews" : [
		{
			"buffer" : 0,
			"byteOffset" : 0,
			"byteLength" : 3240,
			"target" : 34962
		},
		{
			"buffer" : 0,
			"byteOffset" : 3240,
			"byteLength" : 3240,
			"target" : 34962
		},
		{
			"buffer" : 0,
			"byteOffset" : 6480,
			"byteLength" : 3240,
			"target" : 34962
		},
		{
			"buffer" : 0,
			"byteOffset" : 9720,
			"byteLength" : 540,
			"target" : 34963
		}
	],
	"buffers" : [
		{
			"uri" : "B336261667301063C0.bin",
			"byteLength" : 10260
		}
	]
}
