{
	"asset" : {
		"generator" : "FME 2023.2.1.0",
		"version" : "2.0"
	},
	"materials" : [
		{
			"name" : "default_material",
			"pbrMetallicRoughness" : {
				"baseColorFactor" : [ 1, 1, 1, 1 ],
				"roughnessFactor" : 0.30000000000000004,
				"metallicFactor" : 0.5
			}
		}
	],
	"meshes" : [
		{
			"primitives" : [
				{
					"attributes" : {
						"NORMAL" : 1,
						"POSITION" : 0,
						"COLOR_0" : 2
					},
					"indices" : 3,
					"material" : 0,
					"mode" : 4
				}
			]
		}
	],
	"nodes" : [
		{
			"name" : "B340381601102063C0",
			"matrix" : [ 1, 0, 0, 0, 0, 0, -1, 0, 0, 1, 0, 0, 834038.5, 9.574999809265137, -816012.5, 1 ],
			"children" : [ 1 ]
		},
		{
			"mesh" : 0
		}
	],
	"scenes" : [
		{
			"nodes" : [ 0 ]
		}
	],
	"scene" : 0,
	"accessors" : [
		{
			"bufferView" : 0,
			"byteOffset" : 0,
			"componentType" : 5126,
			"count" : 741,
			"type" : "VEC3",
			"min" : [ -16.1259765625, -21.2265625, 0 ],
			"max" : [ 16.126953125, 21.2255859375, 18.520000457763672 ]
		},
		{
			"bufferView" : 1,
			"byteOffset" : 0,
			"componentType" : 5126,
			"count" : 741,
			"type" : "VEC3",
			"min" : [ -0.8101110458374023, -0.9600331783294678, -1 ],
			"max" : [ 0.8920020461082458, 0.8748960494995117, 1 ]
		},
		{
			"bufferView" : 2,
			"byteOffset" : 0,
			"componentType" : 5126,
			"count" : 741,
			"type" : "VEC3"
		},
		{
			"bufferView" : 3,
			"byteOffset" : 0,
			"componentType" : 5123,
			"count" : 741,
			"type" : "SCALAR",
			"min" : [ 0 ],
			"max" : [ 740 ]
		}
	],
	"bufferViews" : [
		{
			"buffer" : 0,
			"byteOffset" : 0,
			"byteLength" : 8892,
			"target" : 34962
		},
		{
			"buffer" : 0,
			"byteOffset" : 8892,
			"byteLength" : 8892,
			"target" : 34962
		},
		{
			"buffer" : 0,
			"byteOffset" : 17784,
			"byteLength" : 8892,
			"target" : 34962
		},
		{
			"buffer" : 0,
			"byteOffset" : 26676,
			"byteLength" : 1482,
			"target" : 34963
		}
	],
	"buffers" : [
		{
			"uri" : "B340381601102063C0.bin",
			"byteLength" : 28158
		}
	]
}
