{
	"asset" : {
		"generator" : "FME 2022.2.4.0",
		"version" : "2.0"
	},
	"materials" : [
		{
			"name" : "default_material",
			"pbrMetallicRoughness" : {
				"baseColorFactor" : [ 1, 1, 1, 1 ],
				"roughnessFactor" : 0.30000000000000004,
				"metallicFactor" : 0.5
			}
		}
	],
	"meshes" : [
		{
			"primitives" : [
				{
					"attributes" : {
						"NORMAL" : 1,
						"POSITION" : 0,
						"COLOR_0" : 2
					},
					"indices" : 3,
					"material" : 0,
					"mode" : 4
				}
			]
		}
	],
	"nodes" : [
		{
			"name" : "B334861598101063C0",
			"matrix" : [ 1, 0, 0, 0, 0, 0, -1, 0, 0, 1, 0, 0, 833487.5625, 79.156982421875, -815978.375, 1 ],
			"children" : [ 1 ]
		},
		{
			"mesh" : 0
		}
	],
	"scenes" : [
		{
			"nodes" : [ 0 ]
		}
	],
	"scene" : 0,
	"accessors" : [
		{
			"bufferView" : 0,
			"byteOffset" : 0,
			"componentType" : 5126,
			"count" : 933,
			"type" : "VEC3",
			"min" : [ -8.10546875, -5.0888671875, 0 ],
			"max" : [ 8.10546875, 5.0888671875, 76.29299926757812 ]
		},
		{
			"bufferView" : 1,
			"byteOffset" : 0,
			"componentType" : 5126,
			"count" : 933,
			"type" : "VEC3",
			"min" : [ -0.9969516396522522, -0.9971641898155212, -1 ],
			"max" : [ 0.9972319006919861, 0.997199296951294, 1 ]
		},
		{
			"bufferView" : 2,
			"byteOffset" : 0,
			"componentType" : 5126,
			"count" : 933,
			"type" : "VEC3"
		},
		{
			"bufferView" : 3,
			"byteOffset" : 0,
			"componentType" : 5123,
			"count" : 933,
			"type" : "SCALAR",
			"min" : [ 0 ],
			"max" : [ 932 ]
		}
	],
	"bufferViews" : [
		{
			"buffer" : 0,
			"byteOffset" : 0,
			"byteLength" : 11196,
			"target" : 34962
		},
		{
			"buffer" : 0,
			"byteOffset" : 11196,
			"byteLength" : 11196,
			"target" : 34962
		},
		{
			"buffer" : 0,
			"byteOffset" : 22392,
			"byteLength" : 11196,
			"target" : 34962
		},
		{
			"buffer" : 0,
			"byteOffset" : 33588,
			"byteLength" : 1866,
			"target" : 34963
		}
	],
	"buffers" : [
		{
			"uri" : "B334861598101063C0.bin",
			"byteLength" : 35454
		}
	]
}
