{
	"asset" : {
		"generator" : "FME 2022.2.4.0",
		"version" : "2.0"
	},
	"materials" : [
		{
			"name" : "default_material",
			"pbrMetallicRoughness" : {
				"baseColorFactor" : [ 1, 1, 1, 1 ],
				"roughnessFactor" : 0.30000000000000004,
				"metallicFactor" : 0.5
			}
		}
	],
	"meshes" : [
		{
			"primitives" : [
				{
					"attributes" : {
						"NORMAL" : 1,
						"POSITION" : 0,
						"COLOR_0" : 2
					},
					"indices" : 3,
					"material" : 0,
					"mode" : 4
				}
			]
		}
	],
	"nodes" : [
		{
			"name" : "B337061577301063C0",
			"matrix" : [ 1, 0, 0, 0, 0, 0, -1, 0, 0, 1, 0, 0, 833710.3125, 72.50701904296875, -815775.25, 1 ],
			"children" : [ 1 ]
		},
		{
			"mesh" : 0
		}
	],
	"scenes" : [
		{
			"nodes" : [ 0 ]
		}
	],
	"scene" : 0,
	"accessors" : [
		{
			"bufferView" : 0,
			"byteOffset" : 0,
			"componentType" : 5126,
			"count" : 792,
			"type" : "VEC3",
			"min" : [ -7.896484375, -7.240234375, 0 ],
			"max" : [ 7.896484375, 7.240234375, 24.582992553710938 ]
		},
		{
			"bufferView" : 1,
			"byteOffset" : 0,
			"componentType" : 5126,
			"count" : 792,
			"type" : "VEC3",
			"min" : [ -0.7474093437194824, -0.9259865880012512, -1 ],
			"max" : [ 0.7396125197410583, 0.7547827959060669, 1 ]
		},
		{
			"bufferView" : 2,
			"byteOffset" : 0,
			"componentType" : 5126,
			"count" : 792,
			"type" : "VEC3"
		},
		{
			"bufferView" : 3,
			"byteOffset" : 0,
			"componentType" : 5123,
			"count" : 792,
			"type" : "SCALAR",
			"min" : [ 0 ],
			"max" : [ 791 ]
		}
	],
	"bufferViews" : [
		{
			"buffer" : 0,
			"byteOffset" : 0,
			"byteLength" : 9504,
			"target" : 34962
		},
		{
			"buffer" : 0,
			"byteOffset" : 9504,
			"byteLength" : 9504,
			"target" : 34962
		},
		{
			"buffer" : 0,
			"byteOffset" : 19008,
			"byteLength" : 9504,
			"target" : 34962
		},
		{
			"buffer" : 0,
			"byteOffset" : 28512,
			"byteLength" : 1584,
			"target" : 34963
		}
	],
	"buffers" : [
		{
			"uri" : "B337061577301063C0.bin",
			"byteLength" : 30096
		}
	]
}
