{
	"asset" : {
		"generator" : "FME 2023.1.0.0",
		"version" : "2.0"
	},
	"materials" : [
		{
			"name" : "default_material",
			"pbrMetallicRoughness" : {
				"baseColorFactor" : [ 1, 1, 1, 1 ],
				"roughnessFactor" : 0.30000000000000004,
				"metallicFactor" : 0.5
			}
		}
	],
	"meshes" : [
		{
			"primitives" : [
				{
					"attributes" : {
						"NORMAL" : 1,
						"POSITION" : 0,
						"COLOR_0" : 2
					},
					"indices" : 3,
					"material" : 0,
					"mode" : 4
				}
			]
		}
	],
	"nodes" : [
		{
			"name" : "B355821522201063C0",
			"matrix" : [ 1, 0, 0, 0, 0, 0, -1, 0, 0, 1, 0, 0, 835580.5, 5.5879998207092285, -815220.5625, 1 ],
			"children" : [ 1 ]
		},
		{
			"mesh" : 0
		}
	],
	"scenes" : [
		{
			"nodes" : [ 0 ]
		}
	],
	"scene" : 0,
	"accessors" : [
		{
			"bufferView" : 0,
			"byteOffset" : 0,
			"componentType" : 5126,
			"count" : 861,
			"type" : "VEC3",
			"min" : [ -9.5048828125, -9.40625, 0 ],
			"max" : [ 9.5048828125, 9.40625, 33.291996002197266 ]
		},
		{
			"bufferView" : 1,
			"byteOffset" : 0,
			"componentType" : 5126,
			"count" : 861,
			"type" : "VEC3",
			"min" : [ -0.763125479221344, -0.7988339066505432, -1 ],
			"max" : [ 0.7630184292793274, 0.7703943252563477, 1 ]
		},
		{
			"bufferView" : 2,
			"byteOffset" : 0,
			"componentType" : 5126,
			"count" : 861,
			"type" : "VEC3"
		},
		{
			"bufferView" : 3,
			"byteOffset" : 0,
			"componentType" : 5123,
			"count" : 861,
			"type" : "SCALAR",
			"min" : [ 0 ],
			"max" : [ 860 ]
		}
	],
	"bufferViews" : [
		{
			"buffer" : 0,
			"byteOffset" : 0,
			"byteLength" : 10332,
			"target" : 34962
		},
		{
			"buffer" : 0,
			"byteOffset" : 10332,
			"byteLength" : 10332,
			"target" : 34962
		},
		{
			"buffer" : 0,
			"byteOffset" : 20664,
			"byteLength" : 10332,
			"target" : 34962
		},
		{
			"buffer" : 0,
			"byteOffset" : 30996,
			"byteLength" : 1722,
			"target" : 34963
		}
	],
	"buffers" : [
		{
			"uri" : "B355821522201063C0.bin",
			"byteLength" : 32718
		}
	]
}
