{
	"asset" : {
		"generator" : "FME 2022.2.4.0",
		"version" : "2.0"
	},
	"images" : [
		{
			"uri" : "T30750258000106E12_001.jpg"
		}
	],
	"samplers" : [
		{
			"wrapS" : 10497,
			"wrapT" : 10497,
			"magFilter" : 9729,
			"minFilter" : 9986
		}
	],
	"textures" : [
		{
			"source" : 0,
			"sampler" : 0
		}
	],
	"materials" : [
		{
			"name" : "T30750258000106E12",
			"pbrMetallicRoughness" : {
				"baseColorTexture" : {
					"index" : 0,
					"texCoord" : 0
				},
				"roughnessFactor" : 0.984375,
				"metallicFactor" : 0.5
			}
		}
	],
	"meshes" : [
		{
			"primitives" : [
				{
					"attributes" : {
						"NORMAL" : 1,
						"POSITION" : 0,
						"TEXCOORD_0" : 2
					},
					"indices" : 3,
					"material" : 0,
					"mode" : 4
				}
			]
		}
	],
	"nodes" : [
		{
			"name" : "T30750258000106E12",
			"matrix" : [ 1, 0, 0, 0, 0, 0, -1, 0, 0, 1, 0, 0, 831125, 10.410369873046875, -826099.875, 1 ],
			"children" : [ 1 ]
		},
		{
			"mesh" : 0
		}
	],
	"scenes" : [
		{
			"nodes" : [ 0 ]
		}
	],
	"scene" : 0,
	"accessors" : [
		{
			"bufferView" : 0,
			"byteOffset" : 0,
			"componentType" : 5126,
			"count" : 75378,
			"type" : "VEC3",
			"min" : [ -375, -300.041015625, 0 ],
			"max" : [ 375, 300.125, 109.07525634765625 ]
		},
		{
			"bufferView" : 1,
			"byteOffset" : 0,
			"componentType" : 5126,
			"count" : 75378,
			"type" : "VEC3",
			"min" : [ -0.9964653849601746, -0.9987074732780457, -1 ],
			"max" : [ 0.9996516704559326, 0.9961797595024109, 1 ]
		},
		{
			"bufferView" : 2,
			"byteOffset" : 0,
			"componentType" : 5126,
			"count" : 75378,
			"type" : "VEC2",
			"min" : [ 0.00013318657875061035, 4.208087921142578e-5 ],
			"max" : [ 0.9998668432235718, 0.9999579191207886 ]
		},
		{
			"bufferView" : 3,
			"byteOffset" : 0,
			"componentType" : 5125,
			"count" : 75378,
			"type" : "SCALAR",
			"min" : [ 0 ],
			"max" : [ 75377 ]
		}
	],
	"bufferViews" : [
		{
			"buffer" : 0,
			"byteOffset" : 0,
			"byteLength" : 904536,
			"target" : 34962
		},
		{
			"buffer" : 0,
			"byteOffset" : 904536,
			"byteLength" : 904536,
			"target" : 34962
		},
		{
			"buffer" : 0,
			"byteOffset" : 1809072,
			"byteLength" : 603024,
			"target" : 34962
		},
		{
			"buffer" : 0,
			"byteOffset" : 2412096,
			"byteLength" : 301512,
			"target" : 34963
		}
	],
	"buffers" : [
		{
			"uri" : "T30750258000106E12.bin",
			"byteLength" : 2713608
		}
	]
}
