{
	"asset" : {
		"generator" : "FME 2023.2.1.0",
		"version" : "2.0"
	},
	"materials" : [
		{
			"name" : "default_material",
			"pbrMetallicRoughness" : {
				"baseColorFactor" : [ 1, 1, 1, 1 ],
				"roughnessFactor" : 0.30000000000000004,
				"metallicFactor" : 0.5
			}
		}
	],
	"meshes" : [
		{
			"primitives" : [
				{
					"attributes" : {
						"NORMAL" : 1,
						"POSITION" : 0,
						"COLOR_0" : 2
					},
					"indices" : 3,
					"material" : 0,
					"mode" : 4
				}
			]
		}
	],
	"nodes" : [
		{
			"name" : "B334011625901063C0",
			"matrix" : [ 1, 0, 0, 0, 0, 0, -1, 0, 0, 1, 0, 0, 833406.25, 16.607999801635742, -816258.8125, 1 ],
			"children" : [ 1 ]
		},
		{
			"mesh" : 0
		}
	],
	"scenes" : [
		{
			"nodes" : [ 0 ]
		}
	],
	"scene" : 0,
	"accessors" : [
		{
			"bufferView" : 0,
			"byteOffset" : 0,
			"componentType" : 5126,
			"count" : 1083,
			"type" : "VEC3",
			"min" : [ -9.126953125, -9.2685546875, 0 ],
			"max" : [ 9.189453125, 9.2353515625, 23.302000045776367 ]
		},
		{
			"bufferView" : 1,
			"byteOffset" : 0,
			"componentType" : 5126,
			"count" : 1083,
			"type" : "VEC3",
			"min" : [ -0.761658787727356, -0.7808647751808167, -1 ],
			"max" : [ 0.7603120803833008, 0.8320503234863281, 1 ]
		},
		{
			"bufferView" : 2,
			"byteOffset" : 0,
			"componentType" : 5126,
			"count" : 1083,
			"type" : "VEC3"
		},
		{
			"bufferView" : 3,
			"byteOffset" : 0,
			"componentType" : 5123,
			"count" : 1083,
			"type" : "SCALAR",
			"min" : [ 0 ],
			"max" : [ 1082 ]
		}
	],
	"bufferViews" : [
		{
			"buffer" : 0,
			"byteOffset" : 0,
			"byteLength" : 12996,
			"target" : 34962
		},
		{
			"buffer" : 0,
			"byteOffset" : 12996,
			"byteLength" : 12996,
			"target" : 34962
		},
		{
			"buffer" : 0,
			"byteOffset" : 25992,
			"byteLength" : 12996,
			"target" : 34962
		},
		{
			"buffer" : 0,
			"byteOffset" : 38988,
			"byteLength" : 2166,
			"target" : 34963
		}
	],
	"buffers" : [
		{
			"uri" : "B334011625901063C0.bin",
			"byteLength" : 41154
		}
	]
}
