{
	"asset" : {
		"generator" : "FME 2023.1.0.0",
		"version" : "2.0"
	},
	"materials" : [
		{
			"name" : "default_material",
			"pbrMetallicRoughness" : {
				"baseColorFactor" : [ 1, 1, 1, 1 ],
				"roughnessFactor" : 0.30000000000000004,
				"metallicFactor" : 0.5
			}
		}
	],
	"meshes" : [
		{
			"primitives" : [
				{
					"attributes" : {
						"NORMAL" : 1,
						"POSITION" : 0,
						"COLOR_0" : 2
					},
					"indices" : 3,
					"material" : 0,
					"mode" : 4
				}
			]
		}
	],
	"nodes" : [
		{
			"name" : "B338951609201063C0",
			"matrix" : [ 1, 0, 0, 0, 0, 0, -1, 0, 0, 1, 0, 0, 833896.0625, 29.422000885009766, -816088.6875, 1 ],
			"children" : [ 1 ]
		},
		{
			"mesh" : 0
		}
	],
	"scenes" : [
		{
			"nodes" : [ 0 ]
		}
	],
	"scene" : 0,
	"accessors" : [
		{
			"bufferView" : 0,
			"byteOffset" : 0,
			"componentType" : 5126,
			"count" : 858,
			"type" : "VEC3",
			"min" : [ -9.033203125, -10.150390625, 0 ],
			"max" : [ 9.0322265625, 10.150390625, 66.05299377441406 ]
		},
		{
			"bufferView" : 1,
			"byteOffset" : 0,
			"componentType" : 5126,
			"count" : 858,
			"type" : "VEC3",
			"min" : [ -0.8143655061721802, -0.8112080097198486, -0.013556024059653282 ],
			"max" : [ 0.8320503830909729, 0.8137334585189819, 1 ]
		},
		{
			"bufferView" : 2,
			"byteOffset" : 0,
			"componentType" : 5126,
			"count" : 858,
			"type" : "VEC3"
		},
		{
			"bufferView" : 3,
			"byteOffset" : 0,
			"componentType" : 5123,
			"count" : 858,
			"type" : "SCALAR",
			"min" : [ 0 ],
			"max" : [ 857 ]
		}
	],
	"bufferViews" : [
		{
			"buffer" : 0,
			"byteOffset" : 0,
			"byteLength" : 10296,
			"target" : 34962
		},
		{
			"buffer" : 0,
			"byteOffset" : 10296,
			"byteLength" : 10296,
			"target" : 34962
		},
		{
			"buffer" : 0,
			"byteOffset" : 20592,
			"byteLength" : 10296,
			"target" : 34962
		},
		{
			"buffer" : 0,
			"byteOffset" : 30888,
			"byteLength" : 1716,
			"target" : 34963
		}
	],
	"buffers" : [
		{
			"uri" : "B338951609201063C0.bin",
			"byteLength" : 32604
		}
	]
}
