{
	"asset" : {
		"generator" : "FME 2022.2.4.0",
		"version" : "2.0"
	},
	"materials" : [
		{
			"name" : "default_material",
			"pbrMetallicRoughness" : {
				"baseColorFactor" : [ 1, 1, 1, 1 ],
				"roughnessFactor" : 0.30000000000000004,
				"metallicFactor" : 0.5
			}
		}
	],
	"meshes" : [
		{
			"primitives" : [
				{
					"attributes" : {
						"NORMAL" : 1,
						"POSITION" : 0,
						"COLOR_0" : 2
					},
					"indices" : 3,
					"material" : 0,
					"mode" : 4
				}
			]
		}
	],
	"nodes" : [
		{
			"name" : "B335021579601063C0",
			"matrix" : [ 1, 0, 0, 0, 0, 0, -1, 0, 0, 1, 0, 0, 833501.5625, 119.40599822998047, -815796.5, 1 ],
			"children" : [ 1 ]
		},
		{
			"mesh" : 0
		}
	],
	"scenes" : [
		{
			"nodes" : [ 0 ]
		}
	],
	"scene" : 0,
	"accessors" : [
		{
			"bufferView" : 0,
			"byteOffset" : 0,
			"componentType" : 5126,
			"count" : 2289,
			"type" : "VEC3",
			"min" : [ -8.2431640625, -8.97265625, 0 ],
			"max" : [ 8.2431640625, 8.9736328125, 103.70999908447266 ]
		},
		{
			"bufferView" : 1,
			"byteOffset" : 0,
			"componentType" : 5126,
			"count" : 2289,
			"type" : "VEC3",
			"min" : [ -0.9935387372970581, -0.9921644330024719, -1 ],
			"max" : [ 0.9838039875030518, 0.9844474792480469, 1 ]
		},
		{
			"bufferView" : 2,
			"byteOffset" : 0,
			"componentType" : 5126,
			"count" : 2289,
			"type" : "VEC3"
		},
		{
			"bufferView" : 3,
			"byteOffset" : 0,
			"componentType" : 5123,
			"count" : 2289,
			"type" : "SCALAR",
			"min" : [ 0 ],
			"max" : [ 2288 ]
		}
	],
	"bufferViews" : [
		{
			"buffer" : 0,
			"byteOffset" : 0,
			"byteLength" : 27468,
			"target" : 34962
		},
		{
			"buffer" : 0,
			"byteOffset" : 27468,
			"byteLength" : 27468,
			"target" : 34962
		},
		{
			"buffer" : 0,
			"byteOffset" : 54936,
			"byteLength" : 27468,
			"target" : 34962
		},
		{
			"buffer" : 0,
			"byteOffset" : 82404,
			"byteLength" : 4578,
			"target" : 34963
		}
	],
	"buffers" : [
		{
			"uri" : "B335021579601063C0.bin",
			"byteLength" : 86982
		}
	]
}
