{
	"asset" : {
		"generator" : "FME 2023.1.0.0",
		"version" : "2.0"
	},
	"materials" : [
		{
			"name" : "default_material",
			"pbrMetallicRoughness" : {
				"baseColorFactor" : [ 1, 1, 1, 1 ],
				"roughnessFactor" : 0.30000000000000004,
				"metallicFactor" : 0.5
			}
		}
	],
	"meshes" : [
		{
			"primitives" : [
				{
					"attributes" : {
						"NORMAL" : 1,
						"POSITION" : 0,
						"COLOR_0" : 2
					},
					"indices" : 3,
					"material" : 0,
					"mode" : 4
				}
			]
		}
	],
	"nodes" : [
		{
			"name" : "B337701556201063C0",
			"matrix" : [ 1, 0, 0, 0, 0, 0, -1, 0, 0, 1, 0, 0, 833772.3125, 117.03500366210938, -815558.625, 1 ],
			"children" : [ 1 ]
		},
		{
			"mesh" : 0
		}
	],
	"scenes" : [
		{
			"nodes" : [ 0 ]
		}
	],
	"scene" : 0,
	"accessors" : [
		{
			"bufferView" : 0,
			"byteOffset" : 0,
			"componentType" : 5126,
			"count" : 1344,
			"type" : "VEC3",
			"min" : [ -6.5546875, -12.2001953125, 0 ],
			"max" : [ 6.5537109375, 12.19921875, 79.84700012207031 ]
		},
		{
			"bufferView" : 1,
			"byteOffset" : 0,
			"componentType" : 5126,
			"count" : 1344,
			"type" : "VEC3",
			"min" : [ -0.9992770552635193, -0.99928879737854, -1 ],
			"max" : [ 0.9999873042106628, 0.9993008375167847, 1 ]
		},
		{
			"bufferView" : 2,
			"byteOffset" : 0,
			"componentType" : 5126,
			"count" : 1344,
			"type" : "VEC3"
		},
		{
			"bufferView" : 3,
			"byteOffset" : 0,
			"componentType" : 5123,
			"count" : 1344,
			"type" : "SCALAR",
			"min" : [ 0 ],
			"max" : [ 1343 ]
		}
	],
	"bufferViews" : [
		{
			"buffer" : 0,
			"byteOffset" : 0,
			"byteLength" : 16128,
			"target" : 34962
		},
		{
			"buffer" : 0,
			"byteOffset" : 16128,
			"byteLength" : 16128,
			"target" : 34962
		},
		{
			"buffer" : 0,
			"byteOffset" : 32256,
			"byteLength" : 16128,
			"target" : 34962
		},
		{
			"buffer" : 0,
			"byteOffset" : 48384,
			"byteLength" : 2688,
			"target" : 34963
		}
	],
	"buffers" : [
		{
			"uri" : "B337701556201063C0.bin",
			"byteLength" : 51072
		}
	]
}
