{
	"asset" : {
		"generator" : "FME 2023.2.1.0",
		"version" : "2.0"
	},
	"materials" : [
		{
			"name" : "default_material",
			"pbrMetallicRoughness" : {
				"baseColorFactor" : [ 1, 1, 1, 1 ],
				"roughnessFactor" : 0.30000000000000004,
				"metallicFactor" : 0.5
			}
		}
	],
	"meshes" : [
		{
			"primitives" : [
				{
					"attributes" : {
						"NORMAL" : 1,
						"POSITION" : 0,
						"COLOR_0" : 2
					},
					"indices" : 3,
					"material" : 0,
					"mode" : 4
				}
			]
		}
	],
	"nodes" : [
		{
			"name" : "B359261522301063C0",
			"matrix" : [ 1, 0, 0, 0, 0, 0, -1, 0, 0, 1, 0, 0, 835926.25, 4.436999797821045, -815220.25, 1 ],
			"children" : [ 1 ]
		},
		{
			"mesh" : 0
		}
	],
	"scenes" : [
		{
			"nodes" : [ 0 ]
		}
	],
	"scene" : 0,
	"accessors" : [
		{
			"bufferView" : 0,
			"byteOffset" : 0,
			"componentType" : 5126,
			"count" : 522,
			"type" : "VEC3",
			"min" : [ -8.2548828125, -5.654296875, 0 ],
			"max" : [ 8.255859375, 5.654296875, 22.69499969482422 ]
		},
		{
			"bufferView" : 1,
			"byteOffset" : 0,
			"componentType" : 5126,
			"count" : 522,
			"type" : "VEC3",
			"min" : [ -0.9957766532897949, -0.9957311749458313, -0.0020581206772476435 ],
			"max" : [ 0.9956710338592529, 0.9956721663475037, 1 ]
		},
		{
			"bufferView" : 2,
			"byteOffset" : 0,
			"componentType" : 5126,
			"count" : 522,
			"type" : "VEC3"
		},
		{
			"bufferView" : 3,
			"byteOffset" : 0,
			"componentType" : 5123,
			"count" : 522,
			"type" : "SCALAR",
			"min" : [ 0 ],
			"max" : [ 521 ]
		}
	],
	"bufferViews" : [
		{
			"buffer" : 0,
			"byteOffset" : 0,
			"byteLength" : 6264,
			"target" : 34962
		},
		{
			"buffer" : 0,
			"byteOffset" : 6264,
			"byteLength" : 6264,
			"target" : 34962
		},
		{
			"buffer" : 0,
			"byteOffset" : 12528,
			"byteLength" : 6264,
			"target" : 34962
		},
		{
			"buffer" : 0,
			"byteOffset" : 18792,
			"byteLength" : 1044,
			"target" : 34963
		}
	],
	"buffers" : [
		{
			"uri" : "B359261522301063C0.bin",
			"byteLength" : 19836
		}
	]
}
