{
	"asset" : {
		"generator" : "FME 2023.2.1.0",
		"version" : "2.0"
	},
	"materials" : [
		{
			"name" : "default_material",
			"pbrMetallicRoughness" : {
				"baseColorFactor" : [ 1, 1, 1, 1 ],
				"roughnessFactor" : 0.30000000000000004,
				"metallicFactor" : 0.5
			}
		}
	],
	"meshes" : [
		{
			"primitives" : [
				{
					"attributes" : {
						"NORMAL" : 1,
						"POSITION" : 0,
						"COLOR_0" : 2
					},
					"indices" : 3,
					"material" : 0,
					"mode" : 4
				}
			]
		}
	],
	"nodes" : [
		{
			"name" : "B357361520101063C0",
			"matrix" : [ 1, 0, 0, 0, 0, 0, -1, 0, 0, 1, 0, 0, 835736.9375, 15.27400016784668, -815199.6875, 1 ],
			"children" : [ 1 ]
		},
		{
			"mesh" : 0
		}
	],
	"scenes" : [
		{
			"nodes" : [ 0 ]
		}
	],
	"scene" : 0,
	"accessors" : [
		{
			"bufferView" : 0,
			"byteOffset" : 0,
			"componentType" : 5126,
			"count" : 1782,
			"type" : "VEC3",
			"min" : [ -5.0986328125, -5.2431640625, 0 ],
			"max" : [ 5.0986328125, 5.2431640625, 66.47100830078125 ]
		},
		{
			"bufferView" : 1,
			"byteOffset" : 0,
			"componentType" : 5126,
			"count" : 1782,
			"type" : "VEC3",
			"min" : [ -0.998799741268158, -1, -1 ],
			"max" : [ 0.99882972240448, 1, 1 ]
		},
		{
			"bufferView" : 2,
			"byteOffset" : 0,
			"componentType" : 5126,
			"count" : 1782,
			"type" : "VEC3"
		},
		{
			"bufferView" : 3,
			"byteOffset" : 0,
			"componentType" : 5123,
			"count" : 1782,
			"type" : "SCALAR",
			"min" : [ 0 ],
			"max" : [ 1781 ]
		}
	],
	"bufferViews" : [
		{
			"buffer" : 0,
			"byteOffset" : 0,
			"byteLength" : 21384,
			"target" : 34962
		},
		{
			"buffer" : 0,
			"byteOffset" : 21384,
			"byteLength" : 21384,
			"target" : 34962
		},
		{
			"buffer" : 0,
			"byteOffset" : 42768,
			"byteLength" : 21384,
			"target" : 34962
		},
		{
			"buffer" : 0,
			"byteOffset" : 64152,
			"byteLength" : 3564,
			"target" : 34963
		}
	],
	"buffers" : [
		{
			"uri" : "B357361520101063C0.bin",
			"byteLength" : 67716
		}
	]
}
