{
	"asset" : {
		"generator" : "FME 2023.2.1.0",
		"version" : "2.0"
	},
	"materials" : [
		{
			"name" : "default_material",
			"pbrMetallicRoughness" : {
				"baseColorFactor" : [ 1, 1, 1, 1 ],
				"roughnessFactor" : 0.30000000000000004,
				"metallicFactor" : 0.5
			}
		}
	],
	"meshes" : [
		{
			"primitives" : [
				{
					"attributes" : {
						"NORMAL" : 1,
						"POSITION" : 0,
						"COLOR_0" : 2
					},
					"indices" : 3,
					"material" : 0,
					"mode" : 4
				}
			]
		}
	],
	"nodes" : [
		{
			"name" : "B335151619302063C0",
			"matrix" : [ 1, 0, 0, 0, 0, 0, -1, 0, 0, 1, 0, 0, 833515.3125, 7.704009532928467, -816192.875, 1 ],
			"children" : [ 1 ]
		},
		{
			"mesh" : 0
		}
	],
	"scenes" : [
		{
			"nodes" : [ 0 ]
		}
	],
	"scene" : 0,
	"accessors" : [
		{
			"bufferView" : 0,
			"byteOffset" : 0,
			"componentType" : 5126,
			"count" : 1011,
			"type" : "VEC3",
			"min" : [ -18.9912109375, -18.7900390625, 0 ],
			"max" : [ 18.990234375, 18.7890625, 17.743000030517578 ]
		},
		{
			"bufferView" : 1,
			"byteOffset" : 0,
			"componentType" : 5126,
			"count" : 1011,
			"type" : "VEC3",
			"min" : [ -0.8348969221115112, -0.7541291117668152, -1 ],
			"max" : [ 0.8348641991615295, 0.7538936734199524, 1 ]
		},
		{
			"bufferView" : 2,
			"byteOffset" : 0,
			"componentType" : 5126,
			"count" : 1011,
			"type" : "VEC3"
		},
		{
			"bufferView" : 3,
			"byteOffset" : 0,
			"componentType" : 5123,
			"count" : 1011,
			"type" : "SCALAR",
			"min" : [ 0 ],
			"max" : [ 1010 ]
		}
	],
	"bufferViews" : [
		{
			"buffer" : 0,
			"byteOffset" : 0,
			"byteLength" : 12132,
			"target" : 34962
		},
		{
			"buffer" : 0,
			"byteOffset" : 12132,
			"byteLength" : 12132,
			"target" : 34962
		},
		{
			"buffer" : 0,
			"byteOffset" : 24264,
			"byteLength" : 12132,
			"target" : 34962
		},
		{
			"buffer" : 0,
			"byteOffset" : 36396,
			"byteLength" : 2022,
			"target" : 34963
		}
	],
	"buffers" : [
		{
			"uri" : "B335151619302063C0.bin",
			"byteLength" : 38418
		}
	]
}
