{
	"asset" : {
		"generator" : "FME 2023.2.1.0",
		"version" : "2.0"
	},
	"materials" : [
		{
			"name" : "default_material",
			"pbrMetallicRoughness" : {
				"baseColorFactor" : [ 1, 1, 1, 1 ],
				"roughnessFactor" : 0.30000000000000004,
				"metallicFactor" : 0.5
			}
		}
	],
	"meshes" : [
		{
			"primitives" : [
				{
					"attributes" : {
						"NORMAL" : 1,
						"POSITION" : 0,
						"COLOR_0" : 2
					},
					"indices" : 3,
					"material" : 0,
					"mode" : 4
				}
			]
		}
	],
	"nodes" : [
		{
			"name" : "B344601505102063C0",
			"matrix" : [ 1, 0, 0, 0, 0, 0, -1, 0, 0, 1, 0, 0, 834460.5625, 119.50599670410156, -815056, 1 ],
			"children" : [ 1 ]
		},
		{
			"mesh" : 0
		}
	],
	"scenes" : [
		{
			"nodes" : [ 0 ]
		}
	],
	"scene" : 0,
	"accessors" : [
		{
			"bufferView" : 0,
			"byteOffset" : 0,
			"componentType" : 5126,
			"count" : 10344,
			"type" : "VEC3",
			"min" : [ -45.30859375, -25.7998046875, 0 ],
			"max" : [ 45.30859375, 25.7998046875, 43.77400207519531 ]
		},
		{
			"bufferView" : 1,
			"byteOffset" : 0,
			"componentType" : 5126,
			"count" : 10344,
			"type" : "VEC3",
			"min" : [ -1, -0.9999997019767761, -1 ],
			"max" : [ 1, 0.9996223449707031, 1 ]
		},
		{
			"bufferView" : 2,
			"byteOffset" : 0,
			"componentType" : 5126,
			"count" : 10344,
			"type" : "VEC3"
		},
		{
			"bufferView" : 3,
			"byteOffset" : 0,
			"componentType" : 5123,
			"count" : 10344,
			"type" : "SCALAR",
			"min" : [ 0 ],
			"max" : [ 10343 ]
		}
	],
	"bufferViews" : [
		{
			"buffer" : 0,
			"byteOffset" : 0,
			"byteLength" : 124128,
			"target" : 34962
		},
		{
			"buffer" : 0,
			"byteOffset" : 124128,
			"byteLength" : 124128,
			"target" : 34962
		},
		{
			"buffer" : 0,
			"byteOffset" : 248256,
			"byteLength" : 124128,
			"target" : 34962
		},
		{
			"buffer" : 0,
			"byteOffset" : 372384,
			"byteLength" : 20688,
			"target" : 34963
		}
	],
	"buffers" : [
		{
			"uri" : "B344601505102063C0.bin",
			"byteLength" : 393072
		}
	]
}
