{
	"asset" : {
		"generator" : "FME 2023.1.0.0",
		"version" : "2.0"
	},
	"materials" : [
		{
			"name" : "default_material",
			"pbrMetallicRoughness" : {
				"baseColorFactor" : [ 1, 1, 1, 1 ],
				"roughnessFactor" : 0.30000000000000004,
				"metallicFactor" : 0.5
			}
		}
	],
	"meshes" : [
		{
			"primitives" : [
				{
					"attributes" : {
						"NORMAL" : 1,
						"POSITION" : 0,
						"COLOR_0" : 2
					},
					"indices" : 3,
					"material" : 0,
					"mode" : 4
				}
			]
		}
	],
	"nodes" : [
		{
			"name" : "B331141647001063C0",
			"matrix" : [ 1, 0, 0, 0, 0, 0, -1, 0, 0, 1, 0, 0, 833117.25, 3.499000072479248, -816479.875, 1 ],
			"children" : [ 1 ]
		},
		{
			"mesh" : 0
		}
	],
	"scenes" : [
		{
			"nodes" : [ 0 ]
		}
	],
	"scene" : 0,
	"accessors" : [
		{
			"bufferView" : 0,
			"byteOffset" : 0,
			"componentType" : 5126,
			"count" : 5271,
			"type" : "VEC3",
			"min" : [ -5.99853515625, -15.3173828125, 0 ],
			"max" : [ 5.99853515625, 15.3173828125, 74.75800323486328 ]
		},
		{
			"bufferView" : 1,
			"byteOffset" : 0,
			"componentType" : 5126,
			"count" : 5271,
			"type" : "VEC3",
			"min" : [ -0.999079167842865, -0.9989762902259827, -1 ],
			"max" : [ 0.9990772604942322, 0.9998169541358948, 1 ]
		},
		{
			"bufferView" : 2,
			"byteOffset" : 0,
			"componentType" : 5126,
			"count" : 5271,
			"type" : "VEC3"
		},
		{
			"bufferView" : 3,
			"byteOffset" : 0,
			"componentType" : 5123,
			"count" : 5271,
			"type" : "SCALAR",
			"min" : [ 0 ],
			"max" : [ 5270 ]
		}
	],
	"bufferViews" : [
		{
			"buffer" : 0,
			"byteOffset" : 0,
			"byteLength" : 63252,
			"target" : 34962
		},
		{
			"buffer" : 0,
			"byteOffset" : 63252,
			"byteLength" : 63252,
			"target" : 34962
		},
		{
			"buffer" : 0,
			"byteOffset" : 126504,
			"byteLength" : 63252,
			"target" : 34962
		},
		{
			"buffer" : 0,
			"byteOffset" : 189756,
			"byteLength" : 10542,
			"target" : 34963
		}
	],
	"buffers" : [
		{
			"uri" : "B331141647001063C0.bin",
			"byteLength" : 200298
		}
	]
}
