{
	"asset" : {
		"generator" : "FME 2023.1.0.0",
		"version" : "2.0"
	},
	"materials" : [
		{
			"name" : "default_material",
			"pbrMetallicRoughness" : {
				"baseColorFactor" : [ 1, 1, 1, 1 ],
				"roughnessFactor" : 0.30000000000000004,
				"metallicFactor" : 0.5
			}
		}
	],
	"meshes" : [
		{
			"primitives" : [
				{
					"attributes" : {
						"NORMAL" : 1,
						"POSITION" : 0,
						"COLOR_0" : 2
					},
					"indices" : 3,
					"material" : 0,
					"mode" : 4
				}
			]
		}
	],
	"nodes" : [
		{
			"name" : "B344691597701063C0",
			"matrix" : [ 1, 0, 0, 0, 0, 0, -1, 0, 0, 1, 0, 0, 834469.625, 4.4730000495910645, -815977.4375, 1 ],
			"children" : [ 1 ]
		},
		{
			"mesh" : 0
		}
	],
	"scenes" : [
		{
			"nodes" : [ 0 ]
		}
	],
	"scene" : 0,
	"accessors" : [
		{
			"bufferView" : 0,
			"byteOffset" : 0,
			"componentType" : 5126,
			"count" : 30,
			"type" : "VEC3",
			"min" : [ -1.7666015625, -1.6494140625, 0 ],
			"max" : [ 1.734375, 1.6044921875, 4.474999904632568 ]
		},
		{
			"bufferView" : 1,
			"byteOffset" : 0,
			"componentType" : 5126,
			"count" : 30,
			"type" : "VEC3",
			"min" : [ -0.8463122248649597, -0.8461984992027283, 0 ],
			"max" : [ 0.8462328910827637, 0.8464508056640625, 1 ]
		},
		{
			"bufferView" : 2,
			"byteOffset" : 0,
			"componentType" : 5126,
			"count" : 30,
			"type" : "VEC3"
		},
		{
			"bufferView" : 3,
			"byteOffset" : 0,
			"componentType" : 5121,
			"count" : 30,
			"type" : "SCALAR",
			"min" : [ 0 ],
			"max" : [ 29 ]
		}
	],
	"bufferViews" : [
		{
			"buffer" : 0,
			"byteOffset" : 0,
			"byteLength" : 360,
			"target" : 34962
		},
		{
			"buffer" : 0,
			"byteOffset" : 360,
			"byteLength" : 360,
			"target" : 34962
		},
		{
			"buffer" : 0,
			"byteOffset" : 720,
			"byteLength" : 360,
			"target" : 34962
		},
		{
			"buffer" : 0,
			"byteOffset" : 1080,
			"byteLength" : 30,
			"target" : 34963
		}
	],
	"buffers" : [
		{
			"uri" : "B344691597701063C0.bin",
			"byteLength" : 1110
		}
	]
}
