{
	"asset" : {
		"generator" : "FME 2022.2.4.0",
		"version" : "2.0"
	},
	"materials" : [
		{
			"name" : "default_material",
			"pbrMetallicRoughness" : {
				"baseColorFactor" : [ 1, 1, 1, 1 ],
				"roughnessFactor" : 0.30000000000000004,
				"metallicFactor" : 0.5
			}
		}
	],
	"meshes" : [
		{
			"primitives" : [
				{
					"attributes" : {
						"NORMAL" : 1,
						"POSITION" : 0,
						"COLOR_0" : 2
					},
					"indices" : 3,
					"material" : 0,
					"mode" : 4
				}
			]
		}
	],
	"nodes" : [
		{
			"name" : "B359481578101063C0",
			"matrix" : [ 1, 0, 0, 0, 0, 0, -1, 0, 0, 1, 0, 0, 835947.8125, 54.94499969482422, -815787.625, 1 ],
			"children" : [ 1 ]
		},
		{
			"mesh" : 0
		}
	],
	"scenes" : [
		{
			"nodes" : [ 0 ]
		}
	],
	"scene" : 0,
	"accessors" : [
		{
			"bufferView" : 0,
			"byteOffset" : 0,
			"componentType" : 5126,
			"count" : 6861,
			"type" : "VEC3",
			"min" : [ -20.3955078125, -26.021484375, 0 ],
			"max" : [ 20.3955078125, 26.021484375, 132.90301513671875 ]
		},
		{
			"bufferView" : 1,
			"byteOffset" : 0,
			"componentType" : 5126,
			"count" : 6861,
			"type" : "VEC3",
			"min" : [ -0.9999074935913086, -1, -1 ],
			"max" : [ 0.9999479651451111, 1, 1 ]
		},
		{
			"bufferView" : 2,
			"byteOffset" : 0,
			"componentType" : 5126,
			"count" : 6861,
			"type" : "VEC3"
		},
		{
			"bufferView" : 3,
			"byteOffset" : 0,
			"componentType" : 5123,
			"count" : 6861,
			"type" : "SCALAR",
			"min" : [ 0 ],
			"max" : [ 6860 ]
		}
	],
	"bufferViews" : [
		{
			"buffer" : 0,
			"byteOffset" : 0,
			"byteLength" : 82332,
			"target" : 34962
		},
		{
			"buffer" : 0,
			"byteOffset" : 82332,
			"byteLength" : 82332,
			"target" : 34962
		},
		{
			"buffer" : 0,
			"byteOffset" : 164664,
			"byteLength" : 82332,
			"target" : 34962
		},
		{
			"buffer" : 0,
			"byteOffset" : 246996,
			"byteLength" : 13722,
			"target" : 34963
		}
	],
	"buffers" : [
		{
			"uri" : "B359481578101063C0.bin",
			"byteLength" : 260718
		}
	]
}
