{
	"asset" : {
		"generator" : "FME 2022.2.4.0",
		"version" : "2.0"
	},
	"materials" : [
		{
			"name" : "default_material",
			"pbrMetallicRoughness" : {
				"baseColorFactor" : [ 1, 1, 1, 1 ],
				"roughnessFactor" : 0.30000000000000004,
				"metallicFactor" : 0.5
			}
		}
	],
	"meshes" : [
		{
			"primitives" : [
				{
					"attributes" : {
						"NORMAL" : 1,
						"POSITION" : 0,
						"COLOR_0" : 2
					},
					"indices" : 3,
					"material" : 0,
					"mode" : 4
				}
			]
		}
	],
	"nodes" : [
		{
			"name" : "B164921266901062G0",
			"matrix" : [ 1, 0, 0, 0, 0, 0, -1, 0, 0, 1, 0, 0, 816492, 66.76319885253906, -812658.25, 1 ],
			"children" : [ 1 ]
		},
		{
			"mesh" : 0
		}
	],
	"scenes" : [
		{
			"nodes" : [ 0 ]
		}
	],
	"scene" : 0,
	"accessors" : [
		{
			"bufferView" : 0,
			"byteOffset" : 0,
			"componentType" : 5126,
			"count" : 2802,
			"type" : "VEC3",
			"min" : [ -28.5, -14.625, 0 ],
			"max" : [ 28.5, 14.5625, 8.746101379394531 ]
		},
		{
			"bufferView" : 1,
			"byteOffset" : 0,
			"componentType" : 5126,
			"count" : 2802,
			"type" : "VEC3",
			"min" : [ -0.9995686411857605, -0.9998307228088379, -1 ],
			"max" : [ 0.9995741844177246, 0.9998344779014587, 1 ]
		},
		{
			"bufferView" : 2,
			"byteOffset" : 0,
			"componentType" : 5126,
			"count" : 2802,
			"type" : "VEC3"
		},
		{
			"bufferView" : 3,
			"byteOffset" : 0,
			"componentType" : 5123,
			"count" : 2802,
			"type" : "SCALAR",
			"min" : [ 0 ],
			"max" : [ 2801 ]
		}
	],
	"bufferViews" : [
		{
			"buffer" : 0,
			"byteOffset" : 0,
			"byteLength" : 33624,
			"target" : 34962
		},
		{
			"buffer" : 0,
			"byteOffset" : 33624,
			"byteLength" : 33624,
			"target" : 34962
		},
		{
			"buffer" : 0,
			"byteOffset" : 67248,
			"byteLength" : 33624,
			"target" : 34962
		},
		{
			"buffer" : 0,
			"byteOffset" : 100872,
			"byteLength" : 5604,
			"target" : 34963
		}
	],
	"buffers" : [
		{
			"uri" : "B164921266901062G0.bin",
			"byteLength" : 106476
		}
	]
}
