{
	"asset" : {
		"generator" : "FME 2023.1.0.0",
		"version" : "2.0"
	},
	"materials" : [
		{
			"name" : "default_material",
			"pbrMetallicRoughness" : {
				"baseColorFactor" : [ 1, 1, 1, 1 ],
				"roughnessFactor" : 0.30000000000000004,
				"metallicFactor" : 0.5
			}
		}
	],
	"meshes" : [
		{
			"primitives" : [
				{
					"attributes" : {
						"NORMAL" : 1,
						"POSITION" : 0,
						"COLOR_0" : 2
					},
					"indices" : 3,
					"material" : 0,
					"mode" : 4
				}
			]
		}
	],
	"nodes" : [
		{
			"name" : "B342771513801063C0",
			"matrix" : [ 1, 0, 0, 0, 0, 0, -1, 0, 0, 1, 0, 0, 834279.625, 89.7760009765625, -815129.375, 1 ],
			"children" : [ 1 ]
		},
		{
			"mesh" : 0
		}
	],
	"scenes" : [
		{
			"nodes" : [ 0 ]
		}
	],
	"scene" : 0,
	"accessors" : [
		{
			"bufferView" : 0,
			"byteOffset" : 0,
			"componentType" : 5126,
			"count" : 2022,
			"type" : "VEC3",
			"min" : [ -17.916015625, -15.97265625, 0 ],
			"max" : [ 17.9169921875, 15.9736328125, 25.696998596191406 ]
		},
		{
			"bufferView" : 1,
			"byteOffset" : 0,
			"componentType" : 5126,
			"count" : 2022,
			"type" : "VEC3",
			"min" : [ -0.9987877011299133, -0.9987651109695435, -1 ],
			"max" : [ 0.9986667633056641, 0.9441543221473694, 1 ]
		},
		{
			"bufferView" : 2,
			"byteOffset" : 0,
			"componentType" : 5126,
			"count" : 2022,
			"type" : "VEC3"
		},
		{
			"bufferView" : 3,
			"byteOffset" : 0,
			"componentType" : 5123,
			"count" : 2022,
			"type" : "SCALAR",
			"min" : [ 0 ],
			"max" : [ 2021 ]
		}
	],
	"bufferViews" : [
		{
			"buffer" : 0,
			"byteOffset" : 0,
			"byteLength" : 24264,
			"target" : 34962
		},
		{
			"buffer" : 0,
			"byteOffset" : 24264,
			"byteLength" : 24264,
			"target" : 34962
		},
		{
			"buffer" : 0,
			"byteOffset" : 48528,
			"byteLength" : 24264,
			"target" : 34962
		},
		{
			"buffer" : 0,
			"byteOffset" : 72792,
			"byteLength" : 4044,
			"target" : 34963
		}
	],
	"buffers" : [
		{
			"uri" : "B342771513801063C0.bin",
			"byteLength" : 76836
		}
	]
}
