{
	"asset" : {
		"generator" : "FME 2023.2.1.0",
		"version" : "2.0"
	},
	"materials" : [
		{
			"name" : "default_material",
			"pbrMetallicRoughness" : {
				"baseColorFactor" : [ 1, 1, 1, 1 ],
				"roughnessFactor" : 0.30000000000000004,
				"metallicFactor" : 0.5
			}
		}
	],
	"meshes" : [
		{
			"primitives" : [
				{
					"attributes" : {
						"NORMAL" : 1,
						"POSITION" : 0,
						"COLOR_0" : 2
					},
					"indices" : 3,
					"material" : 0,
					"mode" : 4
				}
			]
		}
	],
	"nodes" : [
		{
			"name" : "B338211622301063C0",
			"matrix" : [ 1, 0, 0, 0, 0, 0, -1, 0, 0, 1, 0, 0, 833824.3125, 7.880003929138184, -816220.25, 1 ],
			"children" : [ 1 ]
		},
		{
			"mesh" : 0
		}
	],
	"scenes" : [
		{
			"nodes" : [ 0 ]
		}
	],
	"scene" : 0,
	"accessors" : [
		{
			"bufferView" : 0,
			"byteOffset" : 0,
			"componentType" : 5126,
			"count" : 2316,
			"type" : "VEC3",
			"min" : [ -14.9384765625, -17.1328125, 0 ],
			"max" : [ 14.9384765625, 17.1328125, 32.11199951171875 ]
		},
		{
			"bufferView" : 1,
			"byteOffset" : 0,
			"componentType" : 5126,
			"count" : 2316,
			"type" : "VEC3",
			"min" : [ -0.9663641452789307, -0.9994356036186218, -1 ],
			"max" : [ 0.9663641452789307, 0.999396800994873, 1 ]
		},
		{
			"bufferView" : 2,
			"byteOffset" : 0,
			"componentType" : 5126,
			"count" : 2316,
			"type" : "VEC3"
		},
		{
			"bufferView" : 3,
			"byteOffset" : 0,
			"componentType" : 5123,
			"count" : 2316,
			"type" : "SCALAR",
			"min" : [ 0 ],
			"max" : [ 2315 ]
		}
	],
	"bufferViews" : [
		{
			"buffer" : 0,
			"byteOffset" : 0,
			"byteLength" : 27792,
			"target" : 34962
		},
		{
			"buffer" : 0,
			"byteOffset" : 27792,
			"byteLength" : 27792,
			"target" : 34962
		},
		{
			"buffer" : 0,
			"byteOffset" : 55584,
			"byteLength" : 27792,
			"target" : 34962
		},
		{
			"buffer" : 0,
			"byteOffset" : 83376,
			"byteLength" : 4632,
			"target" : 34963
		}
	],
	"buffers" : [
		{
			"uri" : "B338211622301063C0.bin",
			"byteLength" : 88008
		}
	]
}
