{
	"asset" : {
		"generator" : "FME 2022.2.4.0",
		"version" : "2.0"
	},
	"materials" : [
		{
			"name" : "default_material",
			"pbrMetallicRoughness" : {
				"baseColorFactor" : [ 1, 1, 1, 1 ],
				"roughnessFactor" : 0.30000000000000004,
				"metallicFactor" : 0.5
			}
		}
	],
	"meshes" : [
		{
			"primitives" : [
				{
					"attributes" : {
						"NORMAL" : 1,
						"POSITION" : 0,
						"COLOR_0" : 2
					},
					"indices" : 3,
					"material" : 0,
					"mode" : 4
				}
			]
		}
	],
	"nodes" : [
		{
			"name" : "B331011636401063C0",
			"matrix" : [ 1, 0, 0, 0, 0, 0, -1, 0, 0, 1, 0, 0, 833102.25, 8.210000038146973, -816359.75, 1 ],
			"children" : [ 1 ]
		},
		{
			"mesh" : 0
		}
	],
	"scenes" : [
		{
			"nodes" : [ 0 ]
		}
	],
	"scene" : 0,
	"accessors" : [
		{
			"bufferView" : 0,
			"byteOffset" : 0,
			"componentType" : 5126,
			"count" : 669,
			"type" : "VEC3",
			"min" : [ -2.634765625, -6.9765625, 0 ],
			"max" : [ 2.69287109375, 6.95703125, 23.992000579833984 ]
		},
		{
			"bufferView" : 1,
			"byteOffset" : 0,
			"componentType" : 5126,
			"count" : 669,
			"type" : "VEC3",
			"min" : [ -0.9991400837898254, -0.9990749955177307, -1 ],
			"max" : [ 1, 0.9992479681968689, 1 ]
		},
		{
			"bufferView" : 2,
			"byteOffset" : 0,
			"componentType" : 5126,
			"count" : 669,
			"type" : "VEC3"
		},
		{
			"bufferView" : 3,
			"byteOffset" : 0,
			"componentType" : 5123,
			"count" : 669,
			"type" : "SCALAR",
			"min" : [ 0 ],
			"max" : [ 668 ]
		}
	],
	"bufferViews" : [
		{
			"buffer" : 0,
			"byteOffset" : 0,
			"byteLength" : 8028,
			"target" : 34962
		},
		{
			"buffer" : 0,
			"byteOffset" : 8028,
			"byteLength" : 8028,
			"target" : 34962
		},
		{
			"buffer" : 0,
			"byteOffset" : 16056,
			"byteLength" : 8028,
			"target" : 34962
		},
		{
			"buffer" : 0,
			"byteOffset" : 24084,
			"byteLength" : 1338,
			"target" : 34963
		}
	],
	"buffers" : [
		{
			"uri" : "B331011636401063C0.bin",
			"byteLength" : 25422
		}
	]
}
