{
	"asset" : {
		"generator" : "FME 2022.2.4.0",
		"version" : "2.0"
	},
	"materials" : [
		{
			"name" : "default_material",
			"pbrMetallicRoughness" : {
				"baseColorFactor" : [ 1, 1, 1, 1 ],
				"roughnessFactor" : 0.30000000000000004,
				"metallicFactor" : 0.5
			}
		}
	],
	"meshes" : [
		{
			"primitives" : [
				{
					"attributes" : {
						"NORMAL" : 1,
						"POSITION" : 0,
						"COLOR_0" : 2
					},
					"indices" : 3,
					"material" : 0,
					"mode" : 4
				}
			]
		}
	],
	"nodes" : [
		{
			"name" : "B335021593901063C0",
			"matrix" : [ 1, 0, 0, 0, 0, 0, -1, 0, 0, 1, 0, 0, 833502.1875, 106.91899871826172, -815941.5, 1 ],
			"children" : [ 1 ]
		},
		{
			"mesh" : 0
		}
	],
	"scenes" : [
		{
			"nodes" : [ 0 ]
		}
	],
	"scene" : 0,
	"accessors" : [
		{
			"bufferView" : 0,
			"byteOffset" : 0,
			"componentType" : 5126,
			"count" : 4185,
			"type" : "VEC3",
			"min" : [ -14.8642578125, -16.4736328125, 0 ],
			"max" : [ 14.86328125, 16.4736328125, 158.73098754882812 ]
		},
		{
			"bufferView" : 1,
			"byteOffset" : 0,
			"componentType" : 5126,
			"count" : 4185,
			"type" : "VEC3",
			"min" : [ -0.9998169541358948, -0.9999146461486816, -1 ],
			"max" : [ 0.9998016953468323, 1, 1 ]
		},
		{
			"bufferView" : 2,
			"byteOffset" : 0,
			"componentType" : 5126,
			"count" : 4185,
			"type" : "VEC3"
		},
		{
			"bufferView" : 3,
			"byteOffset" : 0,
			"componentType" : 5123,
			"count" : 4185,
			"type" : "SCALAR",
			"min" : [ 0 ],
			"max" : [ 4184 ]
		}
	],
	"bufferViews" : [
		{
			"buffer" : 0,
			"byteOffset" : 0,
			"byteLength" : 50220,
			"target" : 34962
		},
		{
			"buffer" : 0,
			"byteOffset" : 50220,
			"byteLength" : 50220,
			"target" : 34962
		},
		{
			"buffer" : 0,
			"byteOffset" : 100440,
			"byteLength" : 50220,
			"target" : 34962
		},
		{
			"buffer" : 0,
			"byteOffset" : 150660,
			"byteLength" : 8370,
			"target" : 34963
		}
	],
	"buffers" : [
		{
			"uri" : "B335021593901063C0.bin",
			"byteLength" : 159030
		}
	]
}
