{
	"asset" : {
		"generator" : "FME 2022.2.4.0",
		"version" : "2.0"
	},
	"materials" : [
		{
			"name" : "default_material",
			"pbrMetallicRoughness" : {
				"baseColorFactor" : [ 1, 1, 1, 1 ],
				"roughnessFactor" : 0.30000000000000004,
				"metallicFactor" : 0.5
			}
		}
	],
	"meshes" : [
		{
			"primitives" : [
				{
					"attributes" : {
						"NORMAL" : 1,
						"POSITION" : 0,
						"COLOR_0" : 2
					},
					"indices" : 3,
					"material" : 0,
					"mode" : 4
				}
			]
		}
	],
	"nodes" : [
		{
			"name" : "B343251620701063C0",
			"matrix" : [ 1, 0, 0, 0, 0, 0, -1, 0, 0, 1, 0, 0, 834352.75, 3.951996088027954, -816217.375, 1 ],
			"children" : [ 1 ]
		},
		{
			"mesh" : 0
		}
	],
	"scenes" : [
		{
			"nodes" : [ 0 ]
		}
	],
	"scene" : 0,
	"accessors" : [
		{
			"bufferView" : 0,
			"byteOffset" : 0,
			"componentType" : 5126,
			"count" : 108915,
			"type" : "VEC3",
			"min" : [ -115.591796875, -103.3125, 0 ],
			"max" : [ 115.5927734375, 103.3134765625, 32.632999420166016 ]
		},
		{
			"bufferView" : 1,
			"byteOffset" : 0,
			"componentType" : 5126,
			"count" : 108915,
			"type" : "VEC3",
			"min" : [ -1, -1, -1 ],
			"max" : [ 1, 1, 1 ]
		},
		{
			"bufferView" : 2,
			"byteOffset" : 0,
			"componentType" : 5126,
			"count" : 108915,
			"type" : "VEC3"
		},
		{
			"bufferView" : 3,
			"byteOffset" : 0,
			"componentType" : 5125,
			"count" : 108915,
			"type" : "SCALAR",
			"min" : [ 0 ],
			"max" : [ 108914 ]
		}
	],
	"bufferViews" : [
		{
			"buffer" : 0,
			"byteOffset" : 0,
			"byteLength" : 1306980,
			"target" : 34962
		},
		{
			"buffer" : 0,
			"byteOffset" : 1306980,
			"byteLength" : 1306980,
			"target" : 34962
		},
		{
			"buffer" : 0,
			"byteOffset" : 2613960,
			"byteLength" : 1306980,
			"target" : 34962
		},
		{
			"buffer" : 0,
			"byteOffset" : 3920940,
			"byteLength" : 435660,
			"target" : 34963
		}
	],
	"buffers" : [
		{
			"uri" : "B343251620701063C0.bin",
			"byteLength" : 4356600
		}
	]
}
