{
	"asset" : {
		"generator" : "FME 2023.2.2.0",
		"version" : "2.0"
	},
	"materials" : [
		{
			"name" : "default_material",
			"pbrMetallicRoughness" : {
				"baseColorFactor" : [ 1, 1, 1, 1 ],
				"roughnessFactor" : 0.30000000000000004,
				"metallicFactor" : 0.5
			}
		}
	],
	"meshes" : [
		{
			"primitives" : [
				{
					"attributes" : {
						"NORMAL" : 1,
						"POSITION" : 0,
						"COLOR_0" : 2
					},
					"indices" : 3,
					"material" : 0,
					"mode" : 4
				}
			]
		}
	],
	"nodes" : [
		{
			"name" : "B199111581201062G0",
			"matrix" : [ 1, 0, 0, 0, 0, 0, -1, 0, 0, 1, 0, 0, 819909.9375, 102.79969787597656, -815813.125, 1 ],
			"children" : [ 1 ]
		},
		{
			"mesh" : 0
		}
	],
	"scenes" : [
		{
			"nodes" : [ 0 ]
		}
	],
	"scene" : 0,
	"accessors" : [
		{
			"bufferView" : 0,
			"byteOffset" : 0,
			"componentType" : 5126,
			"count" : 516,
			"type" : "VEC3",
			"min" : [ -8.8125, -7.5, 0 ],
			"max" : [ 8.8125, 7.4375, 9.596305847167969 ]
		},
		{
			"bufferView" : 1,
			"byteOffset" : 0,
			"componentType" : 5126,
			"count" : 516,
			"type" : "VEC3",
			"min" : [ -0.8536917567253113, -0.8536853194236755, -1 ],
			"max" : [ 0.8536917567253113, 0.8536853194236755, 1 ]
		},
		{
			"bufferView" : 2,
			"byteOffset" : 0,
			"componentType" : 5126,
			"count" : 516,
			"type" : "VEC3"
		},
		{
			"bufferView" : 3,
			"byteOffset" : 0,
			"componentType" : 5123,
			"count" : 516,
			"type" : "SCALAR",
			"min" : [ 0 ],
			"max" : [ 515 ]
		}
	],
	"bufferViews" : [
		{
			"buffer" : 0,
			"byteOffset" : 0,
			"byteLength" : 6192,
			"target" : 34962
		},
		{
			"buffer" : 0,
			"byteOffset" : 6192,
			"byteLength" : 6192,
			"target" : 34962
		},
		{
			"buffer" : 0,
			"byteOffset" : 12384,
			"byteLength" : 6192,
			"target" : 34962
		},
		{
			"buffer" : 0,
			"byteOffset" : 18576,
			"byteLength" : 1032,
			"target" : 34963
		}
	],
	"buffers" : [
		{
			"uri" : "B199111581201062G0.bin",
			"byteLength" : 19608
		}
	]
}
