{
	"asset" : {
		"generator" : "FME 2023.1.0.0",
		"version" : "2.0"
	},
	"materials" : [
		{
			"name" : "default_material",
			"pbrMetallicRoughness" : {
				"baseColorFactor" : [ 1, 1, 1, 1 ],
				"roughnessFactor" : 0.30000000000000004,
				"metallicFactor" : 0.5
			}
		}
	],
	"meshes" : [
		{
			"primitives" : [
				{
					"attributes" : {
						"NORMAL" : 1,
						"POSITION" : 0,
						"COLOR_0" : 2
					},
					"indices" : 3,
					"material" : 0,
					"mode" : 4
				}
			]
		}
	],
	"nodes" : [
		{
			"name" : "B334691607701063C0",
			"matrix" : [ 1, 0, 0, 0, 0, 0, -1, 0, 0, 1, 0, 0, 833468.0625, 42.36700439453125, -816070.875, 1 ],
			"children" : [ 1 ]
		},
		{
			"mesh" : 0
		}
	],
	"scenes" : [
		{
			"nodes" : [ 0 ]
		}
	],
	"scene" : 0,
	"accessors" : [
		{
			"bufferView" : 0,
			"byteOffset" : 0,
			"componentType" : 5126,
			"count" : 498,
			"type" : "VEC3",
			"min" : [ -10.69140625, -8.955078125, 0 ],
			"max" : [ 10.6923828125, 8.955078125, 17.78799819946289 ]
		},
		{
			"bufferView" : 1,
			"byteOffset" : 0,
			"componentType" : 5126,
			"count" : 498,
			"type" : "VEC3",
			"min" : [ -0.9851880669593811, -0.9861798882484436, -1 ],
			"max" : [ 0.9856070280075073, 0.9862351417541504, 1 ]
		},
		{
			"bufferView" : 2,
			"byteOffset" : 0,
			"componentType" : 5126,
			"count" : 498,
			"type" : "VEC3"
		},
		{
			"bufferView" : 3,
			"byteOffset" : 0,
			"componentType" : 5123,
			"count" : 498,
			"type" : "SCALAR",
			"min" : [ 0 ],
			"max" : [ 497 ]
		}
	],
	"bufferViews" : [
		{
			"buffer" : 0,
			"byteOffset" : 0,
			"byteLength" : 5976,
			"target" : 34962
		},
		{
			"buffer" : 0,
			"byteOffset" : 5976,
			"byteLength" : 5976,
			"target" : 34962
		},
		{
			"buffer" : 0,
			"byteOffset" : 11952,
			"byteLength" : 5976,
			"target" : 34962
		},
		{
			"buffer" : 0,
			"byteOffset" : 17928,
			"byteLength" : 996,
			"target" : 34963
		}
	],
	"buffers" : [
		{
			"uri" : "B334691607701063C0.bin",
			"byteLength" : 18924
		}
	]
}
