{
	"asset" : {
		"generator" : "FME 2022.2.4.0",
		"version" : "2.0"
	},
	"materials" : [
		{
			"name" : "default_material",
			"pbrMetallicRoughness" : {
				"baseColorFactor" : [ 1, 1, 1, 1 ],
				"roughnessFactor" : 0.30000000000000004,
				"metallicFactor" : 0.5
			}
		}
	],
	"meshes" : [
		{
			"primitives" : [
				{
					"attributes" : {
						"NORMAL" : 1,
						"POSITION" : 0,
						"COLOR_0" : 2
					},
					"indices" : 3,
					"material" : 0,
					"mode" : 4
				}
			]
		}
	],
	"nodes" : [
		{
			"name" : "B336551622301063C0",
			"matrix" : [ 1, 0, 0, 0, 0, 0, -1, 0, 0, 1, 0, 0, 833656.5625, 3.3069989681243896, -816220.3125, 1 ],
			"children" : [ 1 ]
		},
		{
			"mesh" : 0
		}
	],
	"scenes" : [
		{
			"nodes" : [ 0 ]
		}
	],
	"scene" : 0,
	"accessors" : [
		{
			"bufferView" : 0,
			"byteOffset" : 0,
			"componentType" : 5126,
			"count" : 474,
			"type" : "VEC3",
			"min" : [ -2.267578125, -4.828125, 0 ],
			"max" : [ 2.267578125, 4.828125, 23.814998626708984 ]
		},
		{
			"bufferView" : 1,
			"byteOffset" : 0,
			"componentType" : 5126,
			"count" : 474,
			"type" : "VEC3",
			"min" : [ -0.9997380375862122, -0.9997380971908569, -1 ],
			"max" : [ 1, 0.9997509121894836, 1 ]
		},
		{
			"bufferView" : 2,
			"byteOffset" : 0,
			"componentType" : 5126,
			"count" : 474,
			"type" : "VEC3"
		},
		{
			"bufferView" : 3,
			"byteOffset" : 0,
			"componentType" : 5123,
			"count" : 474,
			"type" : "SCALAR",
			"min" : [ 0 ],
			"max" : [ 473 ]
		}
	],
	"bufferViews" : [
		{
			"buffer" : 0,
			"byteOffset" : 0,
			"byteLength" : 5688,
			"target" : 34962
		},
		{
			"buffer" : 0,
			"byteOffset" : 5688,
			"byteLength" : 5688,
			"target" : 34962
		},
		{
			"buffer" : 0,
			"byteOffset" : 11376,
			"byteLength" : 5688,
			"target" : 34962
		},
		{
			"buffer" : 0,
			"byteOffset" : 17064,
			"byteLength" : 948,
			"target" : 34963
		}
	],
	"buffers" : [
		{
			"uri" : "B336551622301063C0.bin",
			"byteLength" : 18012
		}
	]
}
