{
	"asset" : {
		"generator" : "FME 2023.2.1.0",
		"version" : "2.0"
	},
	"materials" : [
		{
			"name" : "default_material",
			"pbrMetallicRoughness" : {
				"baseColorFactor" : [ 1, 1, 1, 1 ],
				"roughnessFactor" : 0.30000000000000004,
				"metallicFactor" : 0.5
			}
		}
	],
	"meshes" : [
		{
			"primitives" : [
				{
					"attributes" : {
						"NORMAL" : 1,
						"POSITION" : 0,
						"COLOR_0" : 2
					},
					"indices" : 3,
					"material" : 0,
					"mode" : 4
				}
			]
		}
	],
	"nodes" : [
		{
			"name" : "B345661524101063C0",
			"matrix" : [ 1, 0, 0, 0, 0, 0, -1, 0, 0, 1, 0, 0, 834567.375, 56.143001556396484, -815239.75, 1 ],
			"children" : [ 1 ]
		},
		{
			"mesh" : 0
		}
	],
	"scenes" : [
		{
			"nodes" : [ 0 ]
		}
	],
	"scene" : 0,
	"accessors" : [
		{
			"bufferView" : 0,
			"byteOffset" : 0,
			"componentType" : 5126,
			"count" : 651,
			"type" : "VEC3",
			"min" : [ -7.578125, -9.271484375, 0 ],
			"max" : [ 7.5771484375, 9.271484375, 36.65199661254883 ]
		},
		{
			"bufferView" : 1,
			"byteOffset" : 0,
			"componentType" : 5126,
			"count" : 651,
			"type" : "VEC3",
			"min" : [ -0.9074306488037109, -0.9031813144683838, -1 ],
			"max" : [ 0.9043241739273071, 0.9045838713645935, 1 ]
		},
		{
			"bufferView" : 2,
			"byteOffset" : 0,
			"componentType" : 5126,
			"count" : 651,
			"type" : "VEC3"
		},
		{
			"bufferView" : 3,
			"byteOffset" : 0,
			"componentType" : 5123,
			"count" : 651,
			"type" : "SCALAR",
			"min" : [ 0 ],
			"max" : [ 650 ]
		}
	],
	"bufferViews" : [
		{
			"buffer" : 0,
			"byteOffset" : 0,
			"byteLength" : 7812,
			"target" : 34962
		},
		{
			"buffer" : 0,
			"byteOffset" : 7812,
			"byteLength" : 7812,
			"target" : 34962
		},
		{
			"buffer" : 0,
			"byteOffset" : 15624,
			"byteLength" : 7812,
			"target" : 34962
		},
		{
			"buffer" : 0,
			"byteOffset" : 23436,
			"byteLength" : 1302,
			"target" : 34963
		}
	],
	"buffers" : [
		{
			"uri" : "B345661524101063C0.bin",
			"byteLength" : 24738
		}
	]
}
