{
	"asset" : {
		"generator" : "FME 2023.1.0.0",
		"version" : "2.0"
	},
	"materials" : [
		{
			"name" : "default_material",
			"pbrMetallicRoughness" : {
				"baseColorFactor" : [ 1, 1, 1, 1 ],
				"roughnessFactor" : 0.30000000000000004,
				"metallicFactor" : 0.5
			}
		}
	],
	"meshes" : [
		{
			"primitives" : [
				{
					"attributes" : {
						"NORMAL" : 1,
						"POSITION" : 0,
						"COLOR_0" : 2
					},
					"indices" : 3,
					"material" : 0,
					"mode" : 4
				}
			]
		}
	],
	"nodes" : [
		{
			"name" : "B331161679101063C0",
			"matrix" : [ 1, 0, 0, 0, 0, 0, -1, 0, 0, 1, 0, 0, 833119, 3.8910000324249268, -816785.625, 1 ],
			"children" : [ 1 ]
		},
		{
			"mesh" : 0
		}
	],
	"scenes" : [
		{
			"nodes" : [ 0 ]
		}
	],
	"scene" : 0,
	"accessors" : [
		{
			"bufferView" : 0,
			"byteOffset" : 0,
			"componentType" : 5126,
			"count" : 9483,
			"type" : "VEC3",
			"min" : [ -25.1162109375, -25.7177734375, 0 ],
			"max" : [ 25.11572265625, 25.59375, 33.7969970703125 ]
		},
		{
			"bufferView" : 1,
			"byteOffset" : 0,
			"componentType" : 5126,
			"count" : 9483,
			"type" : "VEC3",
			"min" : [ -0.9999802112579346, -1, -1 ],
			"max" : [ 0.9999932646751404, 1, 1 ]
		},
		{
			"bufferView" : 2,
			"byteOffset" : 0,
			"componentType" : 5126,
			"count" : 9483,
			"type" : "VEC3"
		},
		{
			"bufferView" : 3,
			"byteOffset" : 0,
			"componentType" : 5123,
			"count" : 9483,
			"type" : "SCALAR",
			"min" : [ 0 ],
			"max" : [ 9482 ]
		}
	],
	"bufferViews" : [
		{
			"buffer" : 0,
			"byteOffset" : 0,
			"byteLength" : 113796,
			"target" : 34962
		},
		{
			"buffer" : 0,
			"byteOffset" : 113796,
			"byteLength" : 113796,
			"target" : 34962
		},
		{
			"buffer" : 0,
			"byteOffset" : 227592,
			"byteLength" : 113796,
			"target" : 34962
		},
		{
			"buffer" : 0,
			"byteOffset" : 341388,
			"byteLength" : 18966,
			"target" : 34963
		}
	],
	"buffers" : [
		{
			"uri" : "B331161679101063C0.bin",
			"byteLength" : 360354
		}
	]
}
