{"accessors":[{"bufferView":0,"componentType":5126,"count":2663,"type":"VEC3"},{"bufferView":1,"componentType":5126,"count":2663,"type":"VEC3"},{"bufferView":2,"componentType":5126,"count":2663,"max":[16.0703125,19.5859375,48.900001525878906],"min":[-16.0703125,-19.5859375,0.0],"type":"VEC3"},{"bufferView":3,"componentType":5123,"count":5391,"max":[2662],"min":[0],"type":"SCALAR"}],"asset":{"generator":"FME 2023.1.0.0","version":"2.0"},"bufferViews":[{"buffer":0,"byteLength":31956,"byteOffset":0,"target":34962},{"buffer":0,"byteLength":31956,"byteOffset":31956,"target":34962},{"buffer":0,"byteLength":31956,"byteOffset":63912,"target":34962},{"buffer":0,"byteLength":10782,"byteOffset":95868,"target":34963}],"buffers":[{"byteLength":106652,"uri":"buffer.bin"}],"materials":[{"name":"default_material","pbrMetallicRoughness":{"baseColorFactor":[1,1,1,1],"metallicFactor":0.5,"roughnessFactor":0.30000000000000004}}],"meshes":[{"primitives":[{"attributes":{"COLOR_0":0,"NORMAL":1,"POSITION":2},"indices":3,"material":0,"mode":4}]}],"nodes":[{"children":[1],"matrix":[1,0,0,0,0,0,-1,0,0,1,0,0,836544.375,42.88600158691406,-819596.9375,1],"name":"B365441959801063C0"},{"mesh":0}],"scene":0,"scenes":[{"nodes":[0]}]}
