{
	"asset" : {
		"generator" : "FME 2022.2.4.0",
		"version" : "2.0"
	},
	"materials" : [
		{
			"name" : "default_material",
			"pbrMetallicRoughness" : {
				"baseColorFactor" : [ 1, 1, 1, 1 ],
				"roughnessFactor" : 0.30000000000000004,
				"metallicFactor" : 0.5
			}
		}
	],
	"meshes" : [
		{
			"primitives" : [
				{
					"attributes" : {
						"NORMAL" : 1,
						"POSITION" : 0,
						"COLOR_0" : 2
					},
					"indices" : 3,
					"material" : 0,
					"mode" : 4
				}
			]
		}
	],
	"nodes" : [
		{
			"name" : "B342011575901063C0",
			"matrix" : [ 1, 0, 0, 0, 0, 0, -1, 0, 0, 1, 0, 0, 834205.75, 11.026000022888184, -815759.625, 1 ],
			"children" : [ 1 ]
		},
		{
			"mesh" : 0
		}
	],
	"scenes" : [
		{
			"nodes" : [ 0 ]
		}
	],
	"scene" : 0,
	"accessors" : [
		{
			"bufferView" : 0,
			"byteOffset" : 0,
			"componentType" : 5126,
			"count" : 174,
			"type" : "VEC3",
			"min" : [ -7.287109375, -7.3173828125, 0 ],
			"max" : [ 7.2919921875, 7.2763671875, 36.071998596191406 ]
		},
		{
			"bufferView" : 1,
			"byteOffset" : 0,
			"componentType" : 5126,
			"count" : 174,
			"type" : "VEC3",
			"min" : [ -0.7329329252243042, -0.7948612570762634, -4.236823951941915e-5 ],
			"max" : [ 0.811486005783081, 0.732890784740448, 1 ]
		},
		{
			"bufferView" : 2,
			"byteOffset" : 0,
			"componentType" : 5126,
			"count" : 174,
			"type" : "VEC3"
		},
		{
			"bufferView" : 3,
			"byteOffset" : 0,
			"componentType" : 5121,
			"count" : 174,
			"type" : "SCALAR",
			"min" : [ 0 ],
			"max" : [ 173 ]
		}
	],
	"bufferViews" : [
		{
			"buffer" : 0,
			"byteOffset" : 0,
			"byteLength" : 2088,
			"target" : 34962
		},
		{
			"buffer" : 0,
			"byteOffset" : 2088,
			"byteLength" : 2088,
			"target" : 34962
		},
		{
			"buffer" : 0,
			"byteOffset" : 4176,
			"byteLength" : 2088,
			"target" : 34962
		},
		{
			"buffer" : 0,
			"byteOffset" : 6264,
			"byteLength" : 174,
			"target" : 34963
		}
	],
	"buffers" : [
		{
			"uri" : "B342011575901063C0.bin",
			"byteLength" : 6438
		}
	]
}
