{
	"asset" : {
		"generator" : "FME 2022.2.4.0",
		"version" : "2.0"
	},
	"materials" : [
		{
			"name" : "default_material",
			"pbrMetallicRoughness" : {
				"baseColorFactor" : [ 1, 1, 1, 1 ],
				"roughnessFactor" : 0.30000000000000004,
				"metallicFactor" : 0.5
			}
		}
	],
	"meshes" : [
		{
			"primitives" : [
				{
					"attributes" : {
						"NORMAL" : 1,
						"POSITION" : 0,
						"COLOR_0" : 2
					},
					"indices" : 3,
					"material" : 0,
					"mode" : 4
				}
			]
		}
	],
	"nodes" : [
		{
			"name" : "B335531553601063C0",
			"matrix" : [ 1, 0, 0, 0, 0, 0, -1, 0, 0, 1, 0, 0, 833545.3125, 158.62399291992188, -815532.125, 1 ],
			"children" : [ 1 ]
		},
		{
			"mesh" : 0
		}
	],
	"scenes" : [
		{
			"nodes" : [ 0 ]
		}
	],
	"scene" : 0,
	"accessors" : [
		{
			"bufferView" : 0,
			"byteOffset" : 0,
			"componentType" : 5126,
			"count" : 1023,
			"type" : "VEC3",
			"min" : [ -10.2724609375, -13.533203125, 0 ],
			"max" : [ 10.2734375, 13.533203125, 69.31201171875 ]
		},
		{
			"bufferView" : 1,
			"byteOffset" : 0,
			"componentType" : 5126,
			"count" : 1023,
			"type" : "VEC3",
			"min" : [ -0.8462855219841003, -0.844986617565155, -1 ],
			"max" : [ 0.845614492893219, 0.8463916778564453, 1 ]
		},
		{
			"bufferView" : 2,
			"byteOffset" : 0,
			"componentType" : 5126,
			"count" : 1023,
			"type" : "VEC3"
		},
		{
			"bufferView" : 3,
			"byteOffset" : 0,
			"componentType" : 5123,
			"count" : 1023,
			"type" : "SCALAR",
			"min" : [ 0 ],
			"max" : [ 1022 ]
		}
	],
	"bufferViews" : [
		{
			"buffer" : 0,
			"byteOffset" : 0,
			"byteLength" : 12276,
			"target" : 34962
		},
		{
			"buffer" : 0,
			"byteOffset" : 12276,
			"byteLength" : 12276,
			"target" : 34962
		},
		{
			"buffer" : 0,
			"byteOffset" : 24552,
			"byteLength" : 12276,
			"target" : 34962
		},
		{
			"buffer" : 0,
			"byteOffset" : 36828,
			"byteLength" : 2046,
			"target" : 34963
		}
	],
	"buffers" : [
		{
			"uri" : "B335531553601063C0.bin",
			"byteLength" : 38874
		}
	]
}
