{
	"asset" : {
		"generator" : "FME 2022.2.4.0",
		"version" : "2.0"
	},
	"materials" : [
		{
			"name" : "default_material",
			"pbrMetallicRoughness" : {
				"baseColorFactor" : [ 1, 1, 1, 1 ],
				"roughnessFactor" : 0.30000000000000004,
				"metallicFactor" : 0.5
			}
		}
	],
	"meshes" : [
		{
			"primitives" : [
				{
					"attributes" : {
						"NORMAL" : 1,
						"POSITION" : 0,
						"COLOR_0" : 2
					},
					"indices" : 3,
					"material" : 0,
					"mode" : 4
				}
			]
		}
	],
	"nodes" : [
		{
			"name" : "B338381599701063C0",
			"matrix" : [ 1, 0, 0, 0, 0, 0, -1, 0, 0, 1, 0, 0, 833836.3125, 24.18899917602539, -816003.9375, 1 ],
			"children" : [ 1 ]
		},
		{
			"mesh" : 0
		}
	],
	"scenes" : [
		{
			"nodes" : [ 0 ]
		}
	],
	"scene" : 0,
	"accessors" : [
		{
			"bufferView" : 0,
			"byteOffset" : 0,
			"componentType" : 5126,
			"count" : 1173,
			"type" : "VEC3",
			"min" : [ -9.1962890625, -11.6591796875, 0 ],
			"max" : [ 9.181640625, 11.7060546875, 61.1150016784668 ]
		},
		{
			"bufferView" : 1,
			"byteOffset" : 0,
			"componentType" : 5126,
			"count" : 1173,
			"type" : "VEC3",
			"min" : [ -1, -0.7716189622879028, -1 ],
			"max" : [ 0.9394496083259583, 0.7800973653793335, 1 ]
		},
		{
			"bufferView" : 2,
			"byteOffset" : 0,
			"componentType" : 5126,
			"count" : 1173,
			"type" : "VEC3"
		},
		{
			"bufferView" : 3,
			"byteOffset" : 0,
			"componentType" : 5123,
			"count" : 1173,
			"type" : "SCALAR",
			"min" : [ 0 ],
			"max" : [ 1172 ]
		}
	],
	"bufferViews" : [
		{
			"buffer" : 0,
			"byteOffset" : 0,
			"byteLength" : 14076,
			"target" : 34962
		},
		{
			"buffer" : 0,
			"byteOffset" : 14076,
			"byteLength" : 14076,
			"target" : 34962
		},
		{
			"buffer" : 0,
			"byteOffset" : 28152,
			"byteLength" : 14076,
			"target" : 34962
		},
		{
			"buffer" : 0,
			"byteOffset" : 42228,
			"byteLength" : 2346,
			"target" : 34963
		}
	],
	"buffers" : [
		{
			"uri" : "B338381599701063C0.bin",
			"byteLength" : 44574
		}
	]
}
