{
	"asset" : {
		"generator" : "FME 2023.2.1.0",
		"version" : "2.0"
	},
	"materials" : [
		{
			"name" : "default_material",
			"pbrMetallicRoughness" : {
				"baseColorFactor" : [ 1, 1, 1, 1 ],
				"roughnessFactor" : 0.30000000000000004,
				"metallicFactor" : 0.5
			}
		}
	],
	"meshes" : [
		{
			"primitives" : [
				{
					"attributes" : {
						"NORMAL" : 1,
						"POSITION" : 0,
						"COLOR_0" : 2
					},
					"indices" : 3,
					"material" : 0,
					"mode" : 4
				}
			]
		}
	],
	"nodes" : [
		{
			"name" : "B338851616001063C0",
			"matrix" : [ 1, 0, 0, 0, 0, 0, -1, 0, 0, 1, 0, 0, 833884.875, 24.246000289916992, -816158.6875, 1 ],
			"children" : [ 1 ]
		},
		{
			"mesh" : 0
		}
	],
	"scenes" : [
		{
			"nodes" : [ 0 ]
		}
	],
	"scene" : 0,
	"accessors" : [
		{
			"bufferView" : 0,
			"byteOffset" : 0,
			"componentType" : 5126,
			"count" : 2613,
			"type" : "VEC3",
			"min" : [ -11.666015625, -10.3935546875, 0 ],
			"max" : [ 11.666015625, 10.392578125, 110.96099853515625 ]
		},
		{
			"bufferView" : 1,
			"byteOffset" : 0,
			"componentType" : 5126,
			"count" : 2613,
			"type" : "VEC3",
			"min" : [ -0.9963193535804749, -1, -1 ],
			"max" : [ 0.996346652507782, 1, 1 ]
		},
		{
			"bufferView" : 2,
			"byteOffset" : 0,
			"componentType" : 5126,
			"count" : 2613,
			"type" : "VEC3"
		},
		{
			"bufferView" : 3,
			"byteOffset" : 0,
			"componentType" : 5123,
			"count" : 2613,
			"type" : "SCALAR",
			"min" : [ 0 ],
			"max" : [ 2612 ]
		}
	],
	"bufferViews" : [
		{
			"buffer" : 0,
			"byteOffset" : 0,
			"byteLength" : 31356,
			"target" : 34962
		},
		{
			"buffer" : 0,
			"byteOffset" : 31356,
			"byteLength" : 31356,
			"target" : 34962
		},
		{
			"buffer" : 0,
			"byteOffset" : 62712,
			"byteLength" : 31356,
			"target" : 34962
		},
		{
			"buffer" : 0,
			"byteOffset" : 94068,
			"byteLength" : 5226,
			"target" : 34963
		}
	],
	"buffers" : [
		{
			"uri" : "B338851616001063C0.bin",
			"byteLength" : 99294
		}
	]
}
