{
	"asset" : {
		"generator" : "FME 2023.1.0.0",
		"version" : "2.0"
	},
	"materials" : [
		{
			"name" : "default_material",
			"pbrMetallicRoughness" : {
				"baseColorFactor" : [ 1, 1, 1, 1 ],
				"roughnessFactor" : 0.30000000000000004,
				"metallicFactor" : 0.5
			}
		}
	],
	"meshes" : [
		{
			"primitives" : [
				{
					"attributes" : {
						"NORMAL" : 1,
						"POSITION" : 0,
						"COLOR_0" : 2
					},
					"indices" : 3,
					"material" : 0,
					"mode" : 4
				}
			]
		}
	],
	"nodes" : [
		{
			"name" : "B333281597002063C0",
			"matrix" : [ 1, 0, 0, 0, 0, 0, -1, 0, 0, 1, 0, 0, 833328.3125, 81.177001953125, -815969.9375, 1 ],
			"children" : [ 1 ]
		},
		{
			"mesh" : 0
		}
	],
	"scenes" : [
		{
			"nodes" : [ 0 ]
		}
	],
	"scene" : 0,
	"accessors" : [
		{
			"bufferView" : 0,
			"byteOffset" : 0,
			"componentType" : 5126,
			"count" : 327,
			"type" : "VEC3",
			"min" : [ -6.3935546875, -1.7314453125, 0 ],
			"max" : [ 6.3935546875, 1.732421875, 1.375 ]
		},
		{
			"bufferView" : 1,
			"byteOffset" : 0,
			"componentType" : 5126,
			"count" : 327,
			"type" : "VEC3",
			"min" : [ -0.9998788237571716, -0.9996902942657471, -1 ],
			"max" : [ 0.9996314644813538, 0.9996389150619507, 1 ]
		},
		{
			"bufferView" : 2,
			"byteOffset" : 0,
			"componentType" : 5126,
			"count" : 327,
			"type" : "VEC3"
		},
		{
			"bufferView" : 3,
			"byteOffset" : 0,
			"componentType" : 5123,
			"count" : 327,
			"type" : "SCALAR",
			"min" : [ 0 ],
			"max" : [ 326 ]
		}
	],
	"bufferViews" : [
		{
			"buffer" : 0,
			"byteOffset" : 0,
			"byteLength" : 3924,
			"target" : 34962
		},
		{
			"buffer" : 0,
			"byteOffset" : 3924,
			"byteLength" : 3924,
			"target" : 34962
		},
		{
			"buffer" : 0,
			"byteOffset" : 7848,
			"byteLength" : 3924,
			"target" : 34962
		},
		{
			"buffer" : 0,
			"byteOffset" : 11772,
			"byteLength" : 654,
			"target" : 34963
		}
	],
	"buffers" : [
		{
			"uri" : "B333281597002063C0.bin",
			"byteLength" : 12426
		}
	]
}
