{
	"asset" : {
		"generator" : "FME 2023.1.0.0",
		"version" : "2.0"
	},
	"materials" : [
		{
			"name" : "default_material",
			"pbrMetallicRoughness" : {
				"baseColorFactor" : [ 1, 1, 1, 1 ],
				"roughnessFactor" : 0.30000000000000004,
				"metallicFactor" : 0.5
			}
		}
	],
	"meshes" : [
		{
			"primitives" : [
				{
					"attributes" : {
						"NORMAL" : 1,
						"POSITION" : 0,
						"COLOR_0" : 2
					},
					"indices" : 3,
					"material" : 0,
					"mode" : 4
				}
			]
		}
	],
	"nodes" : [
		{
			"name" : "B338591568101063C0",
			"matrix" : [ 1, 0, 0, 0, 0, 0, -1, 0, 0, 1, 0, 0, 833857.0625, 69.1360092163086, -815668.3125, 1 ],
			"children" : [ 1 ]
		},
		{
			"mesh" : 0
		}
	],
	"scenes" : [
		{
			"nodes" : [ 0 ]
		}
	],
	"scene" : 0,
	"accessors" : [
		{
			"bufferView" : 0,
			"byteOffset" : 0,
			"componentType" : 5126,
			"count" : 1185,
			"type" : "VEC3",
			"min" : [ -12.521484375, -16.6435546875, 0 ],
			"max" : [ 12.521484375, 16.642578125, 47.97100067138672 ]
		},
		{
			"bufferView" : 1,
			"byteOffset" : 0,
			"componentType" : 5126,
			"count" : 1185,
			"type" : "VEC3",
			"min" : [ -0.891532838344574, -0.9086984992027283, -1 ],
			"max" : [ 0.8916077017784119, 0.9118789434432983, 1 ]
		},
		{
			"bufferView" : 2,
			"byteOffset" : 0,
			"componentType" : 5126,
			"count" : 1185,
			"type" : "VEC3"
		},
		{
			"bufferView" : 3,
			"byteOffset" : 0,
			"componentType" : 5123,
			"count" : 1185,
			"type" : "SCALAR",
			"min" : [ 0 ],
			"max" : [ 1184 ]
		}
	],
	"bufferViews" : [
		{
			"buffer" : 0,
			"byteOffset" : 0,
			"byteLength" : 14220,
			"target" : 34962
		},
		{
			"buffer" : 0,
			"byteOffset" : 14220,
			"byteLength" : 14220,
			"target" : 34962
		},
		{
			"buffer" : 0,
			"byteOffset" : 28440,
			"byteLength" : 14220,
			"target" : 34962
		},
		{
			"buffer" : 0,
			"byteOffset" : 42660,
			"byteLength" : 2370,
			"target" : 34963
		}
	],
	"buffers" : [
		{
			"uri" : "B338591568101063C0.bin",
			"byteLength" : 45030
		}
	]
}
