{
	"asset" : {
		"generator" : "FME 2022.2.4.0",
		"version" : "2.0"
	},
	"materials" : [
		{
			"name" : "default_material",
			"pbrMetallicRoughness" : {
				"baseColorFactor" : [ 1, 1, 1, 1 ],
				"roughnessFactor" : 0.30000000000000004,
				"metallicFactor" : 0.5
			}
		}
	],
	"meshes" : [
		{
			"primitives" : [
				{
					"attributes" : {
						"NORMAL" : 1,
						"POSITION" : 0,
						"COLOR_0" : 2
					},
					"indices" : 3,
					"material" : 0,
					"mode" : 4
				}
			]
		}
	],
	"nodes" : [
		{
			"name" : "B337661597801063C0",
			"matrix" : [ 1, 0, 0, 0, 0, 0, -1, 0, 0, 1, 0, 0, 833763.125, 36.388999938964844, -815982.875, 1 ],
			"children" : [ 1 ]
		},
		{
			"mesh" : 0
		}
	],
	"scenes" : [
		{
			"nodes" : [ 0 ]
		}
	],
	"scene" : 0,
	"accessors" : [
		{
			"bufferView" : 0,
			"byteOffset" : 0,
			"componentType" : 5126,
			"count" : 477,
			"type" : "VEC3",
			"min" : [ -6.3896484375, -6.8974609375, 0 ],
			"max" : [ 6.2880859375, 6.9638671875, 27.591999053955078 ]
		},
		{
			"bufferView" : 1,
			"byteOffset" : 0,
			"componentType" : 5126,
			"count" : 477,
			"type" : "VEC3",
			"min" : [ -0.9761871695518494, -0.9725114703178406, -1 ],
			"max" : [ 0.9755361676216125, 0.9805227518081665, 1 ]
		},
		{
			"bufferView" : 2,
			"byteOffset" : 0,
			"componentType" : 5126,
			"count" : 477,
			"type" : "VEC3"
		},
		{
			"bufferView" : 3,
			"byteOffset" : 0,
			"componentType" : 5123,
			"count" : 477,
			"type" : "SCALAR",
			"min" : [ 0 ],
			"max" : [ 476 ]
		}
	],
	"bufferViews" : [
		{
			"buffer" : 0,
			"byteOffset" : 0,
			"byteLength" : 5724,
			"target" : 34962
		},
		{
			"buffer" : 0,
			"byteOffset" : 5724,
			"byteLength" : 5724,
			"target" : 34962
		},
		{
			"buffer" : 0,
			"byteOffset" : 11448,
			"byteLength" : 5724,
			"target" : 34962
		},
		{
			"buffer" : 0,
			"byteOffset" : 17172,
			"byteLength" : 954,
			"target" : 34963
		}
	],
	"buffers" : [
		{
			"uri" : "B337661597801063C0.bin",
			"byteLength" : 18126
		}
	]
}
