{
	"asset" : {
		"generator" : "FME 2023.1.0.0",
		"version" : "2.0"
	},
	"materials" : [
		{
			"name" : "default_material",
			"pbrMetallicRoughness" : {
				"baseColorFactor" : [ 1, 1, 1, 1 ],
				"roughnessFactor" : 0.30000000000000004,
				"metallicFactor" : 0.5
			}
		}
	],
	"meshes" : [
		{
			"primitives" : [
				{
					"attributes" : {
						"NORMAL" : 1,
						"POSITION" : 0,
						"COLOR_0" : 2
					},
					"indices" : 3,
					"material" : 0,
					"mode" : 4
				}
			]
		}
	],
	"nodes" : [
		{
			"name" : "B342041519701063C0",
			"matrix" : [ 1, 0, 0, 0, 0, 0, -1, 0, 0, 1, 0, 0, 834204.9375, 105.99500274658203, -815193.0625, 1 ],
			"children" : [ 1 ]
		},
		{
			"mesh" : 0
		}
	],
	"scenes" : [
		{
			"nodes" : [ 0 ]
		}
	],
	"scene" : 0,
	"accessors" : [
		{
			"bufferView" : 0,
			"byteOffset" : 0,
			"componentType" : 5126,
			"count" : 2070,
			"type" : "VEC3",
			"min" : [ -11.7626953125, -10.587890625, 0 ],
			"max" : [ 11.76171875, 10.5869140625, 91.98400115966797 ]
		},
		{
			"bufferView" : 1,
			"byteOffset" : 0,
			"componentType" : 5126,
			"count" : 2070,
			"type" : "VEC3",
			"min" : [ -0.9985995292663574, -0.97254478931427, -1 ],
			"max" : [ 0.9985571503639221, 0.9946619272232056, 1 ]
		},
		{
			"bufferView" : 2,
			"byteOffset" : 0,
			"componentType" : 5126,
			"count" : 2070,
			"type" : "VEC3"
		},
		{
			"bufferView" : 3,
			"byteOffset" : 0,
			"componentType" : 5123,
			"count" : 2070,
			"type" : "SCALAR",
			"min" : [ 0 ],
			"max" : [ 2069 ]
		}
	],
	"bufferViews" : [
		{
			"buffer" : 0,
			"byteOffset" : 0,
			"byteLength" : 24840,
			"target" : 34962
		},
		{
			"buffer" : 0,
			"byteOffset" : 24840,
			"byteLength" : 24840,
			"target" : 34962
		},
		{
			"buffer" : 0,
			"byteOffset" : 49680,
			"byteLength" : 24840,
			"target" : 34962
		},
		{
			"buffer" : 0,
			"byteOffset" : 74520,
			"byteLength" : 4140,
			"target" : 34963
		}
	],
	"buffers" : [
		{
			"uri" : "B342041519701063C0.bin",
			"byteLength" : 78660
		}
	]
}
