{
	"asset" : {
		"generator" : "FME 2023.2.1.0",
		"version" : "2.0"
	},
	"materials" : [
		{
			"name" : "default_material",
			"pbrMetallicRoughness" : {
				"baseColorFactor" : [ 1, 1, 1, 1 ],
				"roughnessFactor" : 0.30000000000000004,
				"metallicFactor" : 0.5
			}
		}
	],
	"meshes" : [
		{
			"primitives" : [
				{
					"attributes" : {
						"NORMAL" : 1,
						"POSITION" : 0,
						"COLOR_0" : 2
					},
					"indices" : 3,
					"material" : 0,
					"mode" : 4
				}
			]
		}
	],
	"nodes" : [
		{
			"name" : "B338891508001063C0",
			"matrix" : [ 1, 0, 0, 0, 0, 0, -1, 0, 0, 1, 0, 0, 833889.25, 131.63999938964844, -815079.9375, 1 ],
			"children" : [ 1 ]
		},
		{
			"mesh" : 0
		}
	],
	"scenes" : [
		{
			"nodes" : [ 0 ]
		}
	],
	"scene" : 0,
	"accessors" : [
		{
			"bufferView" : 0,
			"byteOffset" : 0,
			"componentType" : 5126,
			"count" : 1224,
			"type" : "VEC3",
			"min" : [ -17.859375, -9.673828125, 0 ],
			"max" : [ 17.8583984375, 9.673828125, 19.555007934570312 ]
		},
		{
			"bufferView" : 1,
			"byteOffset" : 0,
			"componentType" : 5126,
			"count" : 1224,
			"type" : "VEC3",
			"min" : [ -0.9880433678627014, -0.9916974306106567, -1 ],
			"max" : [ 0.9878389835357666, 0.9887322783470154, 1 ]
		},
		{
			"bufferView" : 2,
			"byteOffset" : 0,
			"componentType" : 5126,
			"count" : 1224,
			"type" : "VEC3"
		},
		{
			"bufferView" : 3,
			"byteOffset" : 0,
			"componentType" : 5123,
			"count" : 1224,
			"type" : "SCALAR",
			"min" : [ 0 ],
			"max" : [ 1223 ]
		}
	],
	"bufferViews" : [
		{
			"buffer" : 0,
			"byteOffset" : 0,
			"byteLength" : 14688,
			"target" : 34962
		},
		{
			"buffer" : 0,
			"byteOffset" : 14688,
			"byteLength" : 14688,
			"target" : 34962
		},
		{
			"buffer" : 0,
			"byteOffset" : 29376,
			"byteLength" : 14688,
			"target" : 34962
		},
		{
			"buffer" : 0,
			"byteOffset" : 44064,
			"byteLength" : 2448,
			"target" : 34963
		}
	],
	"buffers" : [
		{
			"uri" : "B338891508001063C0.bin",
			"byteLength" : 46512
		}
	]
}
