{
	"asset" : {
		"generator" : "FME 2023.2.1.0",
		"version" : "2.0"
	},
	"materials" : [
		{
			"name" : "default_material",
			"pbrMetallicRoughness" : {
				"baseColorFactor" : [ 1, 1, 1, 1 ],
				"roughnessFactor" : 0.30000000000000004,
				"metallicFactor" : 0.5
			}
		}
	],
	"meshes" : [
		{
			"primitives" : [
				{
					"attributes" : {
						"NORMAL" : 1,
						"POSITION" : 0,
						"COLOR_0" : 2
					},
					"indices" : 3,
					"material" : 0,
					"mode" : 4
				}
			]
		}
	],
	"nodes" : [
		{
			"name" : "B335071572201063C0",
			"matrix" : [ 1, 0, 0, 0, 0, 0, -1, 0, 0, 1, 0, 0, 833509.8125, 139.84500122070312, -815712.875, 1 ],
			"children" : [ 1 ]
		},
		{
			"mesh" : 0
		}
	],
	"scenes" : [
		{
			"nodes" : [ 0 ]
		}
	],
	"scene" : 0,
	"accessors" : [
		{
			"bufferView" : 0,
			"byteOffset" : 0,
			"componentType" : 5126,
			"count" : 7074,
			"type" : "VEC3",
			"min" : [ -12.7919921875, -15.1298828125, 0 ],
			"max" : [ 12.791015625, 15.1298828125, 109.2969970703125 ]
		},
		{
			"bufferView" : 1,
			"byteOffset" : 0,
			"componentType" : 5126,
			"count" : 7074,
			"type" : "VEC3",
			"min" : [ -1, -0.999426007270813, -1 ],
			"max" : [ 0.9985809326171875, 0.9999916553497314, 1 ]
		},
		{
			"bufferView" : 2,
			"byteOffset" : 0,
			"componentType" : 5126,
			"count" : 7074,
			"type" : "VEC3"
		},
		{
			"bufferView" : 3,
			"byteOffset" : 0,
			"componentType" : 5123,
			"count" : 7074,
			"type" : "SCALAR",
			"min" : [ 0 ],
			"max" : [ 7073 ]
		}
	],
	"bufferViews" : [
		{
			"buffer" : 0,
			"byteOffset" : 0,
			"byteLength" : 84888,
			"target" : 34962
		},
		{
			"buffer" : 0,
			"byteOffset" : 84888,
			"byteLength" : 84888,
			"target" : 34962
		},
		{
			"buffer" : 0,
			"byteOffset" : 169776,
			"byteLength" : 84888,
			"target" : 34962
		},
		{
			"buffer" : 0,
			"byteOffset" : 254664,
			"byteLength" : 14148,
			"target" : 34963
		}
	],
	"buffers" : [
		{
			"uri" : "B335071572201063C0.bin",
			"byteLength" : 268812
		}
	]
}
