{
	"asset" : {
		"generator" : "FME 2023.1.0.0",
		"version" : "2.0"
	},
	"materials" : [
		{
			"name" : "default_material",
			"pbrMetallicRoughness" : {
				"baseColorFactor" : [ 1, 1, 1, 1 ],
				"roughnessFactor" : 0.30000000000000004,
				"metallicFactor" : 0.5
			}
		}
	],
	"meshes" : [
		{
			"primitives" : [
				{
					"attributes" : {
						"NORMAL" : 1,
						"POSITION" : 0,
						"COLOR_0" : 2
					},
					"indices" : 3,
					"material" : 0,
					"mode" : 4
				}
			]
		}
	],
	"nodes" : [
		{
			"name" : "B353221553902063C0",
			"matrix" : [ 1, 0, 0, 0, 0, 0, -1, 0, 0, 1, 0, 0, 835367.6875, 4.197000026702881, -815547.5625, 1 ],
			"children" : [ 1 ]
		},
		{
			"mesh" : 0
		}
	],
	"scenes" : [
		{
			"nodes" : [ 0 ]
		}
	],
	"scene" : 0,
	"accessors" : [
		{
			"bufferView" : 0,
			"byteOffset" : 0,
			"componentType" : 5126,
			"count" : 3132,
			"type" : "VEC3",
			"min" : [ -67.2412109375, -26.5517578125, 0 ],
			"max" : [ 67.2412109375, 26.5517578125, 20.66899871826172 ]
		},
		{
			"bufferView" : 1,
			"byteOffset" : 0,
			"componentType" : 5126,
			"count" : 3132,
			"type" : "VEC3",
			"min" : [ -1, -0.9998564720153809, -1 ],
			"max" : [ 0.9995214939117432, 0.9996995329856873, 1 ]
		},
		{
			"bufferView" : 2,
			"byteOffset" : 0,
			"componentType" : 5126,
			"count" : 3132,
			"type" : "VEC3"
		},
		{
			"bufferView" : 3,
			"byteOffset" : 0,
			"componentType" : 5123,
			"count" : 3132,
			"type" : "SCALAR",
			"min" : [ 0 ],
			"max" : [ 3131 ]
		}
	],
	"bufferViews" : [
		{
			"buffer" : 0,
			"byteOffset" : 0,
			"byteLength" : 37584,
			"target" : 34962
		},
		{
			"buffer" : 0,
			"byteOffset" : 37584,
			"byteLength" : 37584,
			"target" : 34962
		},
		{
			"buffer" : 0,
			"byteOffset" : 75168,
			"byteLength" : 37584,
			"target" : 34962
		},
		{
			"buffer" : 0,
			"byteOffset" : 112752,
			"byteLength" : 6264,
			"target" : 34963
		}
	],
	"buffers" : [
		{
			"uri" : "B353221553902063C0.bin",
			"byteLength" : 119016
		}
	]
}
