{
	"asset" : {
		"generator" : "FME 2023.1.0.0",
		"version" : "2.0"
	},
	"materials" : [
		{
			"name" : "default_material",
			"pbrMetallicRoughness" : {
				"baseColorFactor" : [ 1, 1, 1, 1 ],
				"roughnessFactor" : 0.30000000000000004,
				"metallicFactor" : 0.5
			}
		}
	],
	"meshes" : [
		{
			"primitives" : [
				{
					"attributes" : {
						"NORMAL" : 1,
						"POSITION" : 0,
						"COLOR_0" : 2
					},
					"indices" : 3,
					"material" : 0,
					"mode" : 4
				}
			]
		}
	],
	"nodes" : [
		{
			"name" : "B335901587501063C0",
			"matrix" : [ 1, 0, 0, 0, 0, 0, -1, 0, 0, 1, 0, 0, 833587.5625, 83.91000366210938, -815869.75, 1 ],
			"children" : [ 1 ]
		},
		{
			"mesh" : 0
		}
	],
	"scenes" : [
		{
			"nodes" : [ 0 ]
		}
	],
	"scene" : 0,
	"accessors" : [
		{
			"bufferView" : 0,
			"byteOffset" : 0,
			"componentType" : 5126,
			"count" : 627,
			"type" : "VEC3",
			"min" : [ -10.865234375, -11.01953125, 0 ],
			"max" : [ 10.8642578125, 11.0205078125, 17.972000122070312 ]
		},
		{
			"bufferView" : 1,
			"byteOffset" : 0,
			"componentType" : 5126,
			"count" : 627,
			"type" : "VEC3",
			"min" : [ -0.728943943977356, -0.7255861163139343, -1 ],
			"max" : [ 0.7290923595428467, 0.725829005241394, 1 ]
		},
		{
			"bufferView" : 2,
			"byteOffset" : 0,
			"componentType" : 5126,
			"count" : 627,
			"type" : "VEC3"
		},
		{
			"bufferView" : 3,
			"byteOffset" : 0,
			"componentType" : 5123,
			"count" : 627,
			"type" : "SCALAR",
			"min" : [ 0 ],
			"max" : [ 626 ]
		}
	],
	"bufferViews" : [
		{
			"buffer" : 0,
			"byteOffset" : 0,
			"byteLength" : 7524,
			"target" : 34962
		},
		{
			"buffer" : 0,
			"byteOffset" : 7524,
			"byteLength" : 7524,
			"target" : 34962
		},
		{
			"buffer" : 0,
			"byteOffset" : 15048,
			"byteLength" : 7524,
			"target" : 34962
		},
		{
			"buffer" : 0,
			"byteOffset" : 22572,
			"byteLength" : 1254,
			"target" : 34963
		}
	],
	"buffers" : [
		{
			"uri" : "B335901587501063C0.bin",
			"byteLength" : 23826
		}
	]
}
