{
	"asset" : {
		"generator" : "FME 2022.2.4.0",
		"version" : "2.0"
	},
	"materials" : [
		{
			"name" : "default_material",
			"pbrMetallicRoughness" : {
				"baseColorFactor" : [ 1, 1, 1, 1 ],
				"roughnessFactor" : 0.30000000000000004,
				"metallicFactor" : 0.5
			}
		}
	],
	"meshes" : [
		{
			"primitives" : [
				{
					"attributes" : {
						"NORMAL" : 1,
						"POSITION" : 0,
						"COLOR_0" : 2
					},
					"indices" : 3,
					"material" : 0,
					"mode" : 4
				}
			]
		}
	],
	"nodes" : [
		{
			"name" : "B332701663401063C0",
			"matrix" : [ 1, 0, 0, 0, 0, 0, -1, 0, 0, 1, 0, 0, 833270.4375, 3.694999933242798, -816637.0625, 1 ],
			"children" : [ 1 ]
		},
		{
			"mesh" : 0
		}
	],
	"scenes" : [
		{
			"nodes" : [ 0 ]
		}
	],
	"scene" : 0,
	"accessors" : [
		{
			"bufferView" : 0,
			"byteOffset" : 0,
			"componentType" : 5126,
			"count" : 75,
			"type" : "VEC3",
			"min" : [ -7.01171875, -4.3408203125, 0 ],
			"max" : [ 7.0126953125, 4.3408203125, 3.6510002613067627 ]
		},
		{
			"bufferView" : 1,
			"byteOffset" : 0,
			"componentType" : 5126,
			"count" : 75,
			"type" : "VEC3",
			"min" : [ -0.9933537840843201, -0.9929780960083008, 0 ],
			"max" : [ 0.9933983087539673, 0.9929616451263428, 1 ]
		},
		{
			"bufferView" : 2,
			"byteOffset" : 0,
			"componentType" : 5126,
			"count" : 75,
			"type" : "VEC3"
		},
		{
			"bufferView" : 3,
			"byteOffset" : 0,
			"componentType" : 5121,
			"count" : 75,
			"type" : "SCALAR",
			"min" : [ 0 ],
			"max" : [ 74 ]
		}
	],
	"bufferViews" : [
		{
			"buffer" : 0,
			"byteOffset" : 0,
			"byteLength" : 900,
			"target" : 34962
		},
		{
			"buffer" : 0,
			"byteOffset" : 900,
			"byteLength" : 900,
			"target" : 34962
		},
		{
			"buffer" : 0,
			"byteOffset" : 1800,
			"byteLength" : 900,
			"target" : 34962
		},
		{
			"buffer" : 0,
			"byteOffset" : 2700,
			"byteLength" : 75,
			"target" : 34963
		}
	],
	"buffers" : [
		{
			"uri" : "B332701663401063C0.bin",
			"byteLength" : 2775
		}
	]
}
