{
	"asset" : {
		"generator" : "FME 2022.2.4.0",
		"version" : "2.0"
	},
	"materials" : [
		{
			"name" : "default_material",
			"pbrMetallicRoughness" : {
				"baseColorFactor" : [ 1, 1, 1, 1 ],
				"roughnessFactor" : 0.30000000000000004,
				"metallicFactor" : 0.5
			}
		}
	],
	"meshes" : [
		{
			"primitives" : [
				{
					"attributes" : {
						"NORMAL" : 1,
						"POSITION" : 0,
						"COLOR_0" : 2
					},
					"indices" : 3,
					"material" : 0,
					"mode" : 4
				}
			]
		}
	],
	"nodes" : [
		{
			"name" : "B333031581802063C0",
			"matrix" : [ 1, 0, 0, 0, 0, 0, -1, 0, 0, 1, 0, 0, 833303.8125, 119.90599822998047, -815817.125, 1 ],
			"children" : [ 1 ]
		},
		{
			"mesh" : 0
		}
	],
	"scenes" : [
		{
			"nodes" : [ 0 ]
		}
	],
	"scene" : 0,
	"accessors" : [
		{
			"bufferView" : 0,
			"byteOffset" : 0,
			"componentType" : 5126,
			"count" : 3834,
			"type" : "VEC3",
			"min" : [ -26.861328125, -26.9296875, 0 ],
			"max" : [ 26.8603515625, 26.9296875, 36.092994689941406 ]
		},
		{
			"bufferView" : 1,
			"byteOffset" : 0,
			"componentType" : 5126,
			"count" : 3834,
			"type" : "VEC3",
			"min" : [ -0.9998919367790222, -0.999294102191925, -1 ],
			"max" : [ 0.9973714351654053, 0.9999786615371704, 1 ]
		},
		{
			"bufferView" : 2,
			"byteOffset" : 0,
			"componentType" : 5126,
			"count" : 3834,
			"type" : "VEC3"
		},
		{
			"bufferView" : 3,
			"byteOffset" : 0,
			"componentType" : 5123,
			"count" : 3834,
			"type" : "SCALAR",
			"min" : [ 0 ],
			"max" : [ 3833 ]
		}
	],
	"bufferViews" : [
		{
			"buffer" : 0,
			"byteOffset" : 0,
			"byteLength" : 46008,
			"target" : 34962
		},
		{
			"buffer" : 0,
			"byteOffset" : 46008,
			"byteLength" : 46008,
			"target" : 34962
		},
		{
			"buffer" : 0,
			"byteOffset" : 92016,
			"byteLength" : 46008,
			"target" : 34962
		},
		{
			"buffer" : 0,
			"byteOffset" : 138024,
			"byteLength" : 7668,
			"target" : 34963
		}
	],
	"buffers" : [
		{
			"uri" : "B333031581802063C0.bin",
			"byteLength" : 145692
		}
	]
}
