{
	"asset" : {
		"generator" : "FME 2023.1.0.0",
		"version" : "2.0"
	},
	"materials" : [
		{
			"name" : "default_material",
			"pbrMetallicRoughness" : {
				"baseColorFactor" : [ 1, 1, 1, 1 ],
				"roughnessFactor" : 0.30000000000000004,
				"metallicFactor" : 0.5
			}
		}
	],
	"meshes" : [
		{
			"primitives" : [
				{
					"attributes" : {
						"NORMAL" : 1,
						"POSITION" : 0,
						"COLOR_0" : 2
					},
					"indices" : 3,
					"material" : 0,
					"mode" : 4
				}
			]
		}
	],
	"nodes" : [
		{
			"name" : "B337671525301063C0",
			"matrix" : [ 1, 0, 0, 0, 0, 0, -1, 0, 0, 1, 0, 0, 833762, 176.87100219726562, -815252, 1 ],
			"children" : [ 1 ]
		},
		{
			"mesh" : 0
		}
	],
	"scenes" : [
		{
			"nodes" : [ 0 ]
		}
	],
	"scene" : 0,
	"accessors" : [
		{
			"bufferView" : 0,
			"byteOffset" : 0,
			"componentType" : 5126,
			"count" : 3255,
			"type" : "VEC3",
			"min" : [ -22.8251953125, -14.1533203125, 0 ],
			"max" : [ 22.826171875, 14.15234375, 143.9010009765625 ]
		},
		{
			"bufferView" : 1,
			"byteOffset" : 0,
			"componentType" : 5126,
			"count" : 3255,
			"type" : "VEC3",
			"min" : [ -0.9999515414237976, -0.9999973773956299, -1 ],
			"max" : [ 0.9998456239700317, 0.9998083114624023, 1 ]
		},
		{
			"bufferView" : 2,
			"byteOffset" : 0,
			"componentType" : 5126,
			"count" : 3255,
			"type" : "VEC3"
		},
		{
			"bufferView" : 3,
			"byteOffset" : 0,
			"componentType" : 5123,
			"count" : 3255,
			"type" : "SCALAR",
			"min" : [ 0 ],
			"max" : [ 3254 ]
		}
	],
	"bufferViews" : [
		{
			"buffer" : 0,
			"byteOffset" : 0,
			"byteLength" : 39060,
			"target" : 34962
		},
		{
			"buffer" : 0,
			"byteOffset" : 39060,
			"byteLength" : 39060,
			"target" : 34962
		},
		{
			"buffer" : 0,
			"byteOffset" : 78120,
			"byteLength" : 39060,
			"target" : 34962
		},
		{
			"buffer" : 0,
			"byteOffset" : 117180,
			"byteLength" : 6510,
			"target" : 34963
		}
	],
	"buffers" : [
		{
			"uri" : "B337671525301063C0.bin",
			"byteLength" : 123690
		}
	]
}
