{
	"asset" : {
		"generator" : "FME 2023.2.1.0",
		"version" : "2.0"
	},
	"materials" : [
		{
			"name" : "default_material",
			"pbrMetallicRoughness" : {
				"baseColorFactor" : [ 1, 1, 1, 1 ],
				"roughnessFactor" : 0.30000000000000004,
				"metallicFactor" : 0.5
			}
		}
	],
	"meshes" : [
		{
			"primitives" : [
				{
					"attributes" : {
						"NORMAL" : 1,
						"POSITION" : 0,
						"COLOR_0" : 2
					},
					"indices" : 3,
					"material" : 0,
					"mode" : 4
				}
			]
		}
	],
	"nodes" : [
		{
			"name" : "B330861651401063C0",
			"matrix" : [ 1, 0, 0, 0, 0, 0, -1, 0, 0, 1, 0, 0, 833087.6875, 8.75, -816515.5625, 1 ],
			"children" : [ 1 ]
		},
		{
			"mesh" : 0
		}
	],
	"scenes" : [
		{
			"nodes" : [ 0 ]
		}
	],
	"scene" : 0,
	"accessors" : [
		{
			"bufferView" : 0,
			"byteOffset" : 0,
			"componentType" : 5126,
			"count" : 9315,
			"type" : "VEC3",
			"min" : [ -12.6923828125, -12.0283203125, 0 ],
			"max" : [ 12.6923828125, 12.0283203125, 133.48902893066406 ]
		},
		{
			"bufferView" : 1,
			"byteOffset" : 0,
			"componentType" : 5126,
			"count" : 9315,
			"type" : "VEC3",
			"min" : [ -0.9081990122795105, -0.8778955936431885, -1 ],
			"max" : [ 0.8770171999931335, 0.970284640789032, 1 ]
		},
		{
			"bufferView" : 2,
			"byteOffset" : 0,
			"componentType" : 5126,
			"count" : 9315,
			"type" : "VEC3"
		},
		{
			"bufferView" : 3,
			"byteOffset" : 0,
			"componentType" : 5123,
			"count" : 9315,
			"type" : "SCALAR",
			"min" : [ 0 ],
			"max" : [ 9314 ]
		}
	],
	"bufferViews" : [
		{
			"buffer" : 0,
			"byteOffset" : 0,
			"byteLength" : 111780,
			"target" : 34962
		},
		{
			"buffer" : 0,
			"byteOffset" : 111780,
			"byteLength" : 111780,
			"target" : 34962
		},
		{
			"buffer" : 0,
			"byteOffset" : 223560,
			"byteLength" : 111780,
			"target" : 34962
		},
		{
			"buffer" : 0,
			"byteOffset" : 335340,
			"byteLength" : 18630,
			"target" : 34963
		}
	],
	"buffers" : [
		{
			"uri" : "B330861651401063C0.bin",
			"byteLength" : 353970
		}
	]
}
