{
	"asset" : {
		"generator" : "FME 2022.2.4.0",
		"version" : "2.0"
	},
	"materials" : [
		{
			"name" : "default_material",
			"pbrMetallicRoughness" : {
				"baseColorFactor" : [ 1, 1, 1, 1 ],
				"roughnessFactor" : 0.30000000000000004,
				"metallicFactor" : 0.5
			}
		}
	],
	"meshes" : [
		{
			"primitives" : [
				{
					"attributes" : {
						"NORMAL" : 1,
						"POSITION" : 0,
						"COLOR_0" : 2
					},
					"indices" : 3,
					"material" : 0,
					"mode" : 4
				}
			]
		}
	],
	"nodes" : [
		{
			"name" : "B334981641901063C0",
			"matrix" : [ 1, 0, 0, 0, 0, 0, -1, 0, 0, 1, 0, 0, 833502.4375, 18.90499496459961, -816430.5625, 1 ],
			"children" : [ 1 ]
		},
		{
			"mesh" : 0
		}
	],
	"scenes" : [
		{
			"nodes" : [ 0 ]
		}
	],
	"scene" : 0,
	"accessors" : [
		{
			"bufferView" : 0,
			"byteOffset" : 0,
			"componentType" : 5126,
			"count" : 558,
			"type" : "VEC3",
			"min" : [ -4.8203125, -11.7373046875, 0 ],
			"max" : [ 4.8212890625, 11.73828125, 27.560001373291016 ]
		},
		{
			"bufferView" : 1,
			"byteOffset" : 0,
			"componentType" : 5126,
			"count" : 558,
			"type" : "VEC3",
			"min" : [ -0.9811822175979614, -0.9831300973892212, -1 ],
			"max" : [ 0.9814815521240234, 0.9810613989830017, 1 ]
		},
		{
			"bufferView" : 2,
			"byteOffset" : 0,
			"componentType" : 5126,
			"count" : 558,
			"type" : "VEC3"
		},
		{
			"bufferView" : 3,
			"byteOffset" : 0,
			"componentType" : 5123,
			"count" : 558,
			"type" : "SCALAR",
			"min" : [ 0 ],
			"max" : [ 557 ]
		}
	],
	"bufferViews" : [
		{
			"buffer" : 0,
			"byteOffset" : 0,
			"byteLength" : 6696,
			"target" : 34962
		},
		{
			"buffer" : 0,
			"byteOffset" : 6696,
			"byteLength" : 6696,
			"target" : 34962
		},
		{
			"buffer" : 0,
			"byteOffset" : 13392,
			"byteLength" : 6696,
			"target" : 34962
		},
		{
			"buffer" : 0,
			"byteOffset" : 20088,
			"byteLength" : 1116,
			"target" : 34963
		}
	],
	"buffers" : [
		{
			"uri" : "B334981641901063C0.bin",
			"byteLength" : 21204
		}
	]
}
