{
	"asset" : {
		"generator" : "FME 2023.1.0.0",
		"version" : "2.0"
	},
	"materials" : [
		{
			"name" : "default_material",
			"pbrMetallicRoughness" : {
				"baseColorFactor" : [ 1, 1, 1, 1 ],
				"roughnessFactor" : 0.30000000000000004,
				"metallicFactor" : 0.5
			}
		}
	],
	"meshes" : [
		{
			"primitives" : [
				{
					"attributes" : {
						"NORMAL" : 1,
						"POSITION" : 0,
						"COLOR_0" : 2
					},
					"indices" : 3,
					"material" : 0,
					"mode" : 4
				}
			]
		}
	],
	"nodes" : [
		{
			"name" : "B168991495901062G0",
			"matrix" : [ 1, 0, 0, 0, 0, 0, -1, 0, 0, 1, 0, 0, 816901, 54.42530059814453, -814961.375, 1 ],
			"children" : [ 1 ]
		},
		{
			"mesh" : 0
		}
	],
	"scenes" : [
		{
			"nodes" : [ 0 ]
		}
	],
	"scene" : 0,
	"accessors" : [
		{
			"bufferView" : 0,
			"byteOffset" : 0,
			"componentType" : 5126,
			"count" : 123,
			"type" : "VEC3",
			"min" : [ -5.875, -5.875, 0 ],
			"max" : [ 5.875, 5.875, 4.0709991455078125 ]
		},
		{
			"bufferView" : 1,
			"byteOffset" : 0,
			"componentType" : 5126,
			"count" : 123,
			"type" : "VEC3",
			"min" : [ -0.711341142654419, -0.7114900946617126, -1 ],
			"max" : [ 0.7114447951316833, 0.7114889025688171, 1 ]
		},
		{
			"bufferView" : 2,
			"byteOffset" : 0,
			"componentType" : 5126,
			"count" : 123,
			"type" : "VEC3"
		},
		{
			"bufferView" : 3,
			"byteOffset" : 0,
			"componentType" : 5121,
			"count" : 123,
			"type" : "SCALAR",
			"min" : [ 0 ],
			"max" : [ 122 ]
		}
	],
	"bufferViews" : [
		{
			"buffer" : 0,
			"byteOffset" : 0,
			"byteLength" : 1476,
			"target" : 34962
		},
		{
			"buffer" : 0,
			"byteOffset" : 1476,
			"byteLength" : 1476,
			"target" : 34962
		},
		{
			"buffer" : 0,
			"byteOffset" : 2952,
			"byteLength" : 1476,
			"target" : 34962
		},
		{
			"buffer" : 0,
			"byteOffset" : 4428,
			"byteLength" : 123,
			"target" : 34963
		}
	],
	"buffers" : [
		{
			"uri" : "B168991495901062G0.bin",
			"byteLength" : 4551
		}
	]
}
