{
	"asset" : {
		"generator" : "FME 2022.2.4.0",
		"version" : "2.0"
	},
	"images" : [
		{
			"uri" : "T33000108000106E11_001.jpg"
		}
	],
	"samplers" : [
		{
			"wrapS" : 10497,
			"wrapT" : 10497,
			"magFilter" : 9729,
			"minFilter" : 9986
		}
	],
	"textures" : [
		{
			"source" : 0,
			"sampler" : 0
		}
	],
	"materials" : [
		{
			"name" : "T33000108000106E11",
			"pbrMetallicRoughness" : {
				"baseColorTexture" : {
					"index" : 0,
					"texCoord" : 0
				},
				"roughnessFactor" : 0.984375,
				"metallicFactor" : 0.5
			}
		}
	],
	"meshes" : [
		{
			"primitives" : [
				{
					"attributes" : {
						"NORMAL" : 1,
						"POSITION" : 0,
						"TEXCOORD_0" : 2
					},
					"indices" : 3,
					"material" : 0,
					"mode" : 4
				}
			]
		}
	],
	"nodes" : [
		{
			"name" : "T33000108000106E11",
			"matrix" : [ 1, 0, 0, 0, 0, 0, -1, 0, 0, 1, 0, 0, 833375, -0.23626708984375, -811100, 1 ],
			"children" : [ 1 ]
		},
		{
			"mesh" : 0
		}
	],
	"scenes" : [
		{
			"nodes" : [ 0 ]
		}
	],
	"scene" : 0,
	"accessors" : [
		{
			"bufferView" : 0,
			"byteOffset" : 0,
			"componentType" : 5126,
			"count" : 344847,
			"type" : "VEC3",
			"min" : [ -375, -300, -2.1457672119140625e-6 ],
			"max" : [ 375.0000305175781, 300.0009765625, 142.67965698242188 ]
		},
		{
			"bufferView" : 1,
			"byteOffset" : 0,
			"componentType" : 5126,
			"count" : 344847,
			"type" : "VEC3",
			"min" : [ -0.9994587898254395, -0.9994931221008301, -0.9174574017524719 ],
			"max" : [ 1, 0.999966025352478, 1 ]
		},
		{
			"bufferView" : 2,
			"byteOffset" : 0,
			"componentType" : 5126,
			"count" : 344847,
			"type" : "VEC2",
			"min" : [ 0.00013324618339538574, 0.00016582012176513672 ],
			"max" : [ 0.999866783618927, 0.9998341798782349 ]
		},
		{
			"bufferView" : 3,
			"byteOffset" : 0,
			"componentType" : 5125,
			"count" : 344847,
			"type" : "SCALAR",
			"min" : [ 0 ],
			"max" : [ 344846 ]
		}
	],
	"bufferViews" : [
		{
			"buffer" : 0,
			"byteOffset" : 0,
			"byteLength" : 4138164,
			"target" : 34962
		},
		{
			"buffer" : 0,
			"byteOffset" : 4138164,
			"byteLength" : 4138164,
			"target" : 34962
		},
		{
			"buffer" : 0,
			"byteOffset" : 8276328,
			"byteLength" : 2758776,
			"target" : 34962
		},
		{
			"buffer" : 0,
			"byteOffset" : 11035104,
			"byteLength" : 1379388,
			"target" : 34963
		}
	],
	"buffers" : [
		{
			"uri" : "T33000108000106E11.bin",
			"byteLength" : 12414492
		}
	]
}
