{
	"asset" : {
		"generator" : "FME 2023.1.0.0",
		"version" : "2.0"
	},
	"materials" : [
		{
			"name" : "default_material",
			"pbrMetallicRoughness" : {
				"baseColorFactor" : [ 1, 1, 1, 1 ],
				"roughnessFactor" : 0.30000000000000004,
				"metallicFactor" : 0.5
			}
		}
	],
	"meshes" : [
		{
			"primitives" : [
				{
					"attributes" : {
						"NORMAL" : 1,
						"POSITION" : 0,
						"COLOR_0" : 2
					},
					"indices" : 3,
					"material" : 0,
					"mode" : 4
				}
			]
		}
	],
	"nodes" : [
		{
			"name" : "B350651522201063C0",
			"matrix" : [ 1, 0, 0, 0, 0, 0, -1, 0, 0, 1, 0, 0, 835065.375, 39.215999603271484, -815234.8125, 1 ],
			"children" : [ 1 ]
		},
		{
			"mesh" : 0
		}
	],
	"scenes" : [
		{
			"nodes" : [ 0 ]
		}
	],
	"scene" : 0,
	"accessors" : [
		{
			"bufferView" : 0,
			"byteOffset" : 0,
			"componentType" : 5126,
			"count" : 288,
			"type" : "VEC3",
			"min" : [ -10.5615234375, -18.064453125, 0 ],
			"max" : [ 10.5625, 18.064453125, 5.08599853515625 ]
		},
		{
			"bufferView" : 1,
			"byteOffset" : 0,
			"componentType" : 5126,
			"count" : 288,
			"type" : "VEC3",
			"min" : [ -0.9475947618484497, -0.947212278842926, -0.0018223264487460256 ],
			"max" : [ 0.9473953247070312, 0.9463087320327759, 1 ]
		},
		{
			"bufferView" : 2,
			"byteOffset" : 0,
			"componentType" : 5126,
			"count" : 288,
			"type" : "VEC3"
		},
		{
			"bufferView" : 3,
			"byteOffset" : 0,
			"componentType" : 5123,
			"count" : 288,
			"type" : "SCALAR",
			"min" : [ 0 ],
			"max" : [ 287 ]
		}
	],
	"bufferViews" : [
		{
			"buffer" : 0,
			"byteOffset" : 0,
			"byteLength" : 3456,
			"target" : 34962
		},
		{
			"buffer" : 0,
			"byteOffset" : 3456,
			"byteLength" : 3456,
			"target" : 34962
		},
		{
			"buffer" : 0,
			"byteOffset" : 6912,
			"byteLength" : 3456,
			"target" : 34962
		},
		{
			"buffer" : 0,
			"byteOffset" : 10368,
			"byteLength" : 576,
			"target" : 34963
		}
	],
	"buffers" : [
		{
			"uri" : "B350651522201063C0.bin",
			"byteLength" : 10944
		}
	]
}
