{
	"asset" : {
		"generator" : "FME 2022.2.4.0",
		"version" : "2.0"
	},
	"materials" : [
		{
			"name" : "default_material",
			"pbrMetallicRoughness" : {
				"baseColorFactor" : [ 1, 1, 1, 1 ],
				"roughnessFactor" : 0.30000000000000004,
				"metallicFactor" : 0.5
			}
		}
	],
	"meshes" : [
		{
			"primitives" : [
				{
					"attributes" : {
						"NORMAL" : 1,
						"POSITION" : 0,
						"COLOR_0" : 2
					},
					"indices" : 3,
					"material" : 0,
					"mode" : 4
				}
			]
		}
	],
	"nodes" : [
		{
			"name" : "B351061509301063C0",
			"matrix" : [ 1, 0, 0, 0, 0, 0, -1, 0, 0, 1, 0, 0, 835108.875, 53.79800033569336, -815092, 1 ],
			"children" : [ 1 ]
		},
		{
			"mesh" : 0
		}
	],
	"scenes" : [
		{
			"nodes" : [ 0 ]
		}
	],
	"scene" : 0,
	"accessors" : [
		{
			"bufferView" : 0,
			"byteOffset" : 0,
			"componentType" : 5126,
			"count" : 360,
			"type" : "VEC3",
			"min" : [ -17.27734375, -10.392578125, 0 ],
			"max" : [ 17.2783203125, 10.3916015625, 5.915000915527344 ]
		},
		{
			"bufferView" : 1,
			"byteOffset" : 0,
			"componentType" : 5126,
			"count" : 360,
			"type" : "VEC3",
			"min" : [ -0.9765901565551758, -0.977350115776062, -0.5533685684204102 ],
			"max" : [ 0.9798345565795898, 0.976365864276886, 1 ]
		},
		{
			"bufferView" : 2,
			"byteOffset" : 0,
			"componentType" : 5126,
			"count" : 360,
			"type" : "VEC3"
		},
		{
			"bufferView" : 3,
			"byteOffset" : 0,
			"componentType" : 5123,
			"count" : 360,
			"type" : "SCALAR",
			"min" : [ 0 ],
			"max" : [ 359 ]
		}
	],
	"bufferViews" : [
		{
			"buffer" : 0,
			"byteOffset" : 0,
			"byteLength" : 4320,
			"target" : 34962
		},
		{
			"buffer" : 0,
			"byteOffset" : 4320,
			"byteLength" : 4320,
			"target" : 34962
		},
		{
			"buffer" : 0,
			"byteOffset" : 8640,
			"byteLength" : 4320,
			"target" : 34962
		},
		{
			"buffer" : 0,
			"byteOffset" : 12960,
			"byteLength" : 720,
			"target" : 34963
		}
	],
	"buffers" : [
		{
			"uri" : "B351061509301063C0.bin",
			"byteLength" : 13680
		}
	]
}
