{
	"asset" : {
		"generator" : "FME 2023.2.1.0",
		"version" : "2.0"
	},
	"materials" : [
		{
			"name" : "default_material",
			"pbrMetallicRoughness" : {
				"baseColorFactor" : [ 1, 1, 1, 1 ],
				"roughnessFactor" : 0.30000000000000004,
				"metallicFactor" : 0.5
			}
		}
	],
	"meshes" : [
		{
			"primitives" : [
				{
					"attributes" : {
						"NORMAL" : 1,
						"POSITION" : 0,
						"COLOR_0" : 2
					},
					"indices" : 3,
					"material" : 0,
					"mode" : 4
				}
			]
		}
	],
	"nodes" : [
		{
			"name" : "B336871629901063C0",
			"matrix" : [ 1, 0, 0, 0, 0, 0, -1, 0, 0, 1, 0, 0, 833686.625, 2.7729990482330322, -816296.75, 1 ],
			"children" : [ 1 ]
		},
		{
			"mesh" : 0
		}
	],
	"scenes" : [
		{
			"nodes" : [ 0 ]
		}
	],
	"scene" : 0,
	"accessors" : [
		{
			"bufferView" : 0,
			"byteOffset" : 0,
			"componentType" : 5126,
			"count" : 627,
			"type" : "VEC3",
			"min" : [ -4.8251953125, -4.1806640625, 0 ],
			"max" : [ 4.8251953125, 4.1806640625, 26.102001190185547 ]
		},
		{
			"bufferView" : 1,
			"byteOffset" : 0,
			"componentType" : 5126,
			"count" : 627,
			"type" : "VEC3",
			"min" : [ -0.9912751913070679, -0.9999790787696838, -1 ],
			"max" : [ 0.9983604550361633, 0.9999885559082031, 1 ]
		},
		{
			"bufferView" : 2,
			"byteOffset" : 0,
			"componentType" : 5126,
			"count" : 627,
			"type" : "VEC3"
		},
		{
			"bufferView" : 3,
			"byteOffset" : 0,
			"componentType" : 5123,
			"count" : 627,
			"type" : "SCALAR",
			"min" : [ 0 ],
			"max" : [ 626 ]
		}
	],
	"bufferViews" : [
		{
			"buffer" : 0,
			"byteOffset" : 0,
			"byteLength" : 7524,
			"target" : 34962
		},
		{
			"buffer" : 0,
			"byteOffset" : 7524,
			"byteLength" : 7524,
			"target" : 34962
		},
		{
			"buffer" : 0,
			"byteOffset" : 15048,
			"byteLength" : 7524,
			"target" : 34962
		},
		{
			"buffer" : 0,
			"byteOffset" : 22572,
			"byteLength" : 1254,
			"target" : 34963
		}
	],
	"buffers" : [
		{
			"uri" : "B336871629901063C0.bin",
			"byteLength" : 23826
		}
	]
}
