{
	"asset" : {
		"generator" : "FME 2023.1.0.0",
		"version" : "2.0"
	},
	"materials" : [
		{
			"name" : "default_material",
			"pbrMetallicRoughness" : {
				"baseColorFactor" : [ 1, 1, 1, 1 ],
				"roughnessFactor" : 0.30000000000000004,
				"metallicFactor" : 0.5
			}
		}
	],
	"meshes" : [
		{
			"primitives" : [
				{
					"attributes" : {
						"NORMAL" : 1,
						"POSITION" : 0,
						"COLOR_0" : 2
					},
					"indices" : 3,
					"material" : 0,
					"mode" : 4
				}
			]
		}
	],
	"nodes" : [
		{
			"name" : "B337801591501063C0",
			"matrix" : [ 1, 0, 0, 0, 0, 0, -1, 0, 0, 1, 0, 0, 833784.1875, 42.50701141357422, -815916.875, 1 ],
			"children" : [ 1 ]
		},
		{
			"mesh" : 0
		}
	],
	"scenes" : [
		{
			"nodes" : [ 0 ]
		}
	],
	"scene" : 0,
	"accessors" : [
		{
			"bufferView" : 0,
			"byteOffset" : 0,
			"componentType" : 5126,
			"count" : 585,
			"type" : "VEC3",
			"min" : [ -7.4462890625, -7.48828125, 0 ],
			"max" : [ 7.4462890625, 7.4892578125, 21.404998779296875 ]
		},
		{
			"bufferView" : 1,
			"byteOffset" : 0,
			"componentType" : 5126,
			"count" : 585,
			"type" : "VEC3",
			"min" : [ -0.7324078679084778, -0.7271155714988708, -1 ],
			"max" : [ 0.949225664138794, 0.9668636918067932, 1 ]
		},
		{
			"bufferView" : 2,
			"byteOffset" : 0,
			"componentType" : 5126,
			"count" : 585,
			"type" : "VEC3"
		},
		{
			"bufferView" : 3,
			"byteOffset" : 0,
			"componentType" : 5123,
			"count" : 585,
			"type" : "SCALAR",
			"min" : [ 0 ],
			"max" : [ 584 ]
		}
	],
	"bufferViews" : [
		{
			"buffer" : 0,
			"byteOffset" : 0,
			"byteLength" : 7020,
			"target" : 34962
		},
		{
			"buffer" : 0,
			"byteOffset" : 7020,
			"byteLength" : 7020,
			"target" : 34962
		},
		{
			"buffer" : 0,
			"byteOffset" : 14040,
			"byteLength" : 7020,
			"target" : 34962
		},
		{
			"buffer" : 0,
			"byteOffset" : 21060,
			"byteLength" : 1170,
			"target" : 34963
		}
	],
	"buffers" : [
		{
			"uri" : "B337801591501063C0.bin",
			"byteLength" : 22230
		}
	]
}
