{
	"asset" : {
		"generator" : "FME 2023.2.1.0",
		"version" : "2.0"
	},
	"materials" : [
		{
			"name" : "default_material",
			"pbrMetallicRoughness" : {
				"baseColorFactor" : [ 1, 1, 1, 1 ],
				"roughnessFactor" : 0.30000000000000004,
				"metallicFactor" : 0.5
			}
		}
	],
	"meshes" : [
		{
			"primitives" : [
				{
					"attributes" : {
						"NORMAL" : 1,
						"POSITION" : 0,
						"COLOR_0" : 2
					},
					"indices" : 3,
					"material" : 0,
					"mode" : 4
				}
			]
		}
	],
	"nodes" : [
		{
			"name" : "B339421567401063C0",
			"matrix" : [ 1, 0, 0, 0, 0, 0, -1, 0, 0, 1, 0, 0, 833949.5625, 51.03799819946289, -815675.5625, 1 ],
			"children" : [ 1 ]
		},
		{
			"mesh" : 0
		}
	],
	"scenes" : [
		{
			"nodes" : [ 0 ]
		}
	],
	"scene" : 0,
	"accessors" : [
		{
			"bufferView" : 0,
			"byteOffset" : 0,
			"componentType" : 5126,
			"count" : 1809,
			"type" : "VEC3",
			"min" : [ -13.396484375, -12.693359375, 0 ],
			"max" : [ 13.3974609375, 12.693359375, 82.87699890136719 ]
		},
		{
			"bufferView" : 1,
			"byteOffset" : 0,
			"componentType" : 5126,
			"count" : 1809,
			"type" : "VEC3",
			"min" : [ -0.997187077999115, -0.9906055927276611, -1 ],
			"max" : [ 0.9973461031913757, 0.9779477715492249, 1 ]
		},
		{
			"bufferView" : 2,
			"byteOffset" : 0,
			"componentType" : 5126,
			"count" : 1809,
			"type" : "VEC3"
		},
		{
			"bufferView" : 3,
			"byteOffset" : 0,
			"componentType" : 5123,
			"count" : 1809,
			"type" : "SCALAR",
			"min" : [ 0 ],
			"max" : [ 1808 ]
		}
	],
	"bufferViews" : [
		{
			"buffer" : 0,
			"byteOffset" : 0,
			"byteLength" : 21708,
			"target" : 34962
		},
		{
			"buffer" : 0,
			"byteOffset" : 21708,
			"byteLength" : 21708,
			"target" : 34962
		},
		{
			"buffer" : 0,
			"byteOffset" : 43416,
			"byteLength" : 21708,
			"target" : 34962
		},
		{
			"buffer" : 0,
			"byteOffset" : 65124,
			"byteLength" : 3618,
			"target" : 34963
		}
	],
	"buffers" : [
		{
			"uri" : "B339421567401063C0.bin",
			"byteLength" : 68742
		}
	]
}
