{
	"asset" : {
		"generator" : "FME 2023.1.0.0",
		"version" : "2.0"
	},
	"materials" : [
		{
			"name" : "default_material",
			"pbrMetallicRoughness" : {
				"baseColorFactor" : [ 1, 1, 1, 1 ],
				"roughnessFactor" : 0.30000000000000004,
				"metallicFactor" : 0.5
			}
		}
	],
	"meshes" : [
		{
			"primitives" : [
				{
					"attributes" : {
						"NORMAL" : 1,
						"POSITION" : 0,
						"COLOR_0" : 2
					},
					"indices" : 3,
					"material" : 0,
					"mode" : 4
				}
			]
		}
	],
	"nodes" : [
		{
			"name" : "B170761468401062G0",
			"matrix" : [ 1, 0, 0, 0, 0, 0, -1, 0, 0, 1, 0, 0, 817077.75, 15.115300178527832, -814684.375, 1 ],
			"children" : [ 1 ]
		},
		{
			"mesh" : 0
		}
	],
	"scenes" : [
		{
			"nodes" : [ 0 ]
		}
	],
	"scene" : 0,
	"accessors" : [
		{
			"bufferView" : 0,
			"byteOffset" : 0,
			"componentType" : 5126,
			"count" : 372,
			"type" : "VEC3",
			"min" : [ -7.1875, -5.4375, 0 ],
			"max" : [ 7.25, 5.5, 10.41369915008545 ]
		},
		{
			"bufferView" : 1,
			"byteOffset" : 0,
			"componentType" : 5126,
			"count" : 372,
			"type" : "VEC3",
			"min" : [ -0.817020058631897, -0.8165979385375977, -1 ],
			"max" : [ 0.8167223334312439, 0.8168948292732239, 1 ]
		},
		{
			"bufferView" : 2,
			"byteOffset" : 0,
			"componentType" : 5126,
			"count" : 372,
			"type" : "VEC3"
		},
		{
			"bufferView" : 3,
			"byteOffset" : 0,
			"componentType" : 5123,
			"count" : 372,
			"type" : "SCALAR",
			"min" : [ 0 ],
			"max" : [ 371 ]
		}
	],
	"bufferViews" : [
		{
			"buffer" : 0,
			"byteOffset" : 0,
			"byteLength" : 4464,
			"target" : 34962
		},
		{
			"buffer" : 0,
			"byteOffset" : 4464,
			"byteLength" : 4464,
			"target" : 34962
		},
		{
			"buffer" : 0,
			"byteOffset" : 8928,
			"byteLength" : 4464,
			"target" : 34962
		},
		{
			"buffer" : 0,
			"byteOffset" : 13392,
			"byteLength" : 744,
			"target" : 34963
		}
	],
	"buffers" : [
		{
			"uri" : "B170761468401062G0.bin",
			"byteLength" : 14136
		}
	]
}
