{
	"asset" : {
		"generator" : "FME 2022.2.4.0",
		"version" : "2.0"
	},
	"materials" : [
		{
			"name" : "default_material",
			"pbrMetallicRoughness" : {
				"baseColorFactor" : [ 1, 1, 1, 1 ],
				"roughnessFactor" : 0.30000000000000004,
				"metallicFactor" : 0.5
			}
		}
	],
	"meshes" : [
		{
			"primitives" : [
				{
					"attributes" : {
						"NORMAL" : 1,
						"POSITION" : 0,
						"COLOR_0" : 2
					},
					"indices" : 3,
					"material" : 0,
					"mode" : 4
				}
			]
		}
	],
	"nodes" : [
		{
			"name" : "B341561600402063C0",
			"matrix" : [ 1, 0, 0, 0, 0, 0, -1, 0, 0, 1, 0, 0, 834155.875, 4.2829999923706055, -816003, 1 ],
			"children" : [ 1 ]
		},
		{
			"mesh" : 0
		}
	],
	"scenes" : [
		{
			"nodes" : [ 0 ]
		}
	],
	"scene" : 0,
	"accessors" : [
		{
			"bufferView" : 0,
			"byteOffset" : 0,
			"componentType" : 5126,
			"count" : 234,
			"type" : "VEC3",
			"min" : [ -14.1611328125, -12.5380859375, 0 ],
			"max" : [ 14.162109375, 12.654296875, 19.391998291015625 ]
		},
		{
			"bufferView" : 1,
			"byteOffset" : 0,
			"componentType" : 5126,
			"count" : 234,
			"type" : "VEC3",
			"min" : [ -0.8309223651885986, -0.8494042754173279, -0.0019033566350117326 ],
			"max" : [ 0.9754786491394043, 0.8500906825065613, 1 ]
		},
		{
			"bufferView" : 2,
			"byteOffset" : 0,
			"componentType" : 5126,
			"count" : 234,
			"type" : "VEC3"
		},
		{
			"bufferView" : 3,
			"byteOffset" : 0,
			"componentType" : 5121,
			"count" : 234,
			"type" : "SCALAR",
			"min" : [ 0 ],
			"max" : [ 233 ]
		}
	],
	"bufferViews" : [
		{
			"buffer" : 0,
			"byteOffset" : 0,
			"byteLength" : 2808,
			"target" : 34962
		},
		{
			"buffer" : 0,
			"byteOffset" : 2808,
			"byteLength" : 2808,
			"target" : 34962
		},
		{
			"buffer" : 0,
			"byteOffset" : 5616,
			"byteLength" : 2808,
			"target" : 34962
		},
		{
			"buffer" : 0,
			"byteOffset" : 8424,
			"byteLength" : 234,
			"target" : 34963
		}
	],
	"buffers" : [
		{
			"uri" : "B341561600402063C0.bin",
			"byteLength" : 8658
		}
	]
}
