{
	"asset" : {
		"generator" : "FME 2023.2.1.0",
		"version" : "2.0"
	},
	"materials" : [
		{
			"name" : "default_material",
			"pbrMetallicRoughness" : {
				"baseColorFactor" : [ 1, 1, 1, 1 ],
				"roughnessFactor" : 0.30000000000000004,
				"metallicFactor" : 0.5
			}
		}
	],
	"meshes" : [
		{
			"primitives" : [
				{
					"attributes" : {
						"NORMAL" : 1,
						"POSITION" : 0,
						"COLOR_0" : 2
					},
					"indices" : 3,
					"material" : 0,
					"mode" : 4
				}
			]
		}
	],
	"nodes" : [
		{
			"name" : "B343251611802063C0",
			"matrix" : [ 1, 0, 0, 0, 0, 0, -1, 0, 0, 1, 0, 0, 834322.1875, 3.6719970703125, -816127.5, 1 ],
			"children" : [ 1 ]
		},
		{
			"mesh" : 0
		}
	],
	"scenes" : [
		{
			"nodes" : [ 0 ]
		}
	],
	"scene" : 0,
	"accessors" : [
		{
			"bufferView" : 0,
			"byteOffset" : 0,
			"componentType" : 5126,
			"count" : 67062,
			"type" : "VEC3",
			"min" : [ -94.3896484375, -92.96875, 0 ],
			"max" : [ 94.3603515625, 93.0673828125, 22.148998260498047 ]
		},
		{
			"bufferView" : 1,
			"byteOffset" : 0,
			"componentType" : 5126,
			"count" : 67062,
			"type" : "VEC3",
			"min" : [ -1, -1, -1 ],
			"max" : [ 1, 1, 1 ]
		},
		{
			"bufferView" : 2,
			"byteOffset" : 0,
			"componentType" : 5126,
			"count" : 67062,
			"type" : "VEC3"
		},
		{
			"bufferView" : 3,
			"byteOffset" : 0,
			"componentType" : 5125,
			"count" : 67062,
			"type" : "SCALAR",
			"min" : [ 0 ],
			"max" : [ 67061 ]
		}
	],
	"bufferViews" : [
		{
			"buffer" : 0,
			"byteOffset" : 0,
			"byteLength" : 804744,
			"target" : 34962
		},
		{
			"buffer" : 0,
			"byteOffset" : 804744,
			"byteLength" : 804744,
			"target" : 34962
		},
		{
			"buffer" : 0,
			"byteOffset" : 1609488,
			"byteLength" : 804744,
			"target" : 34962
		},
		{
			"buffer" : 0,
			"byteOffset" : 2414232,
			"byteLength" : 268248,
			"target" : 34963
		}
	],
	"buffers" : [
		{
			"uri" : "B343251611802063C0.bin",
			"byteLength" : 2682480
		}
	]
}
