{
	"asset" : {
		"generator" : "FME 2022.2.4.0",
		"version" : "2.0"
	},
	"materials" : [
		{
			"name" : "default_material",
			"pbrMetallicRoughness" : {
				"baseColorFactor" : [ 1, 1, 1, 1 ],
				"roughnessFactor" : 0.30000000000000004,
				"metallicFactor" : 0.5
			}
		}
	],
	"meshes" : [
		{
			"primitives" : [
				{
					"attributes" : {
						"NORMAL" : 1,
						"POSITION" : 0,
						"COLOR_0" : 2
					},
					"indices" : 3,
					"material" : 0,
					"mode" : 4
				}
			]
		}
	],
	"nodes" : [
		{
			"name" : "B330921659801063C0",
			"matrix" : [ 1, 0, 0, 0, 0, 0, -1, 0, 0, 1, 0, 0, 833093.375, 3.4040000438690186, -816590, 1 ],
			"children" : [ 1 ]
		},
		{
			"mesh" : 0
		}
	],
	"scenes" : [
		{
			"nodes" : [ 0 ]
		}
	],
	"scene" : 0,
	"accessors" : [
		{
			"bufferView" : 0,
			"byteOffset" : 0,
			"componentType" : 5126,
			"count" : 3081,
			"type" : "VEC3",
			"min" : [ -15.05078125, -13.037109375, 0 ],
			"max" : [ 15.05078125, 13.037109375, 75.87899780273438 ]
		},
		{
			"bufferView" : 1,
			"byteOffset" : 0,
			"componentType" : 5126,
			"count" : 3081,
			"type" : "VEC3",
			"min" : [ -0.9958584904670715, -0.9973794221878052, -1 ],
			"max" : [ 0.9962186813354492, 1, 1 ]
		},
		{
			"bufferView" : 2,
			"byteOffset" : 0,
			"componentType" : 5126,
			"count" : 3081,
			"type" : "VEC3"
		},
		{
			"bufferView" : 3,
			"byteOffset" : 0,
			"componentType" : 5123,
			"count" : 3081,
			"type" : "SCALAR",
			"min" : [ 0 ],
			"max" : [ 3080 ]
		}
	],
	"bufferViews" : [
		{
			"buffer" : 0,
			"byteOffset" : 0,
			"byteLength" : 36972,
			"target" : 34962
		},
		{
			"buffer" : 0,
			"byteOffset" : 36972,
			"byteLength" : 36972,
			"target" : 34962
		},
		{
			"buffer" : 0,
			"byteOffset" : 73944,
			"byteLength" : 36972,
			"target" : 34962
		},
		{
			"buffer" : 0,
			"byteOffset" : 110916,
			"byteLength" : 6162,
			"target" : 34963
		}
	],
	"buffers" : [
		{
			"uri" : "B330921659801063C0.bin",
			"byteLength" : 117078
		}
	]
}
