{
	"asset" : {
		"generator" : "FME 2023.1.0.0",
		"version" : "2.0"
	},
	"materials" : [
		{
			"name" : "default_material",
			"pbrMetallicRoughness" : {
				"baseColorFactor" : [ 1, 1, 1, 1 ],
				"roughnessFactor" : 0.30000000000000004,
				"metallicFactor" : 0.5
			}
		}
	],
	"meshes" : [
		{
			"primitives" : [
				{
					"attributes" : {
						"NORMAL" : 1,
						"POSITION" : 0,
						"COLOR_0" : 2
					},
					"indices" : 3,
					"material" : 0,
					"mode" : 4
				}
			]
		}
	],
	"nodes" : [
		{
			"name" : "B355001532502063C0",
			"matrix" : [ 1, 0, 0, 0, 0, 0, -1, 0, 0, 1, 0, 0, 835497.3125, 5.822999954223633, -815322, 1 ],
			"children" : [ 1 ]
		},
		{
			"mesh" : 0
		}
	],
	"scenes" : [
		{
			"nodes" : [ 0 ]
		}
	],
	"scene" : 0,
	"accessors" : [
		{
			"bufferView" : 0,
			"byteOffset" : 0,
			"componentType" : 5126,
			"count" : 129,
			"type" : "VEC3",
			"min" : [ -5.9931640625, -7.2763671875, 0 ],
			"max" : [ 5.994140625, 7.2763671875, 7.414999961853027 ]
		},
		{
			"bufferView" : 1,
			"byteOffset" : 0,
			"componentType" : 5126,
			"count" : 129,
			"type" : "VEC3",
			"min" : [ -0.82390296459198, -0.8235569596290588, -1 ],
			"max" : [ 0.8246010541915894, 0.8228800296783447, 1 ]
		},
		{
			"bufferView" : 2,
			"byteOffset" : 0,
			"componentType" : 5126,
			"count" : 129,
			"type" : "VEC3"
		},
		{
			"bufferView" : 3,
			"byteOffset" : 0,
			"componentType" : 5121,
			"count" : 129,
			"type" : "SCALAR",
			"min" : [ 0 ],
			"max" : [ 128 ]
		}
	],
	"bufferViews" : [
		{
			"buffer" : 0,
			"byteOffset" : 0,
			"byteLength" : 1548,
			"target" : 34962
		},
		{
			"buffer" : 0,
			"byteOffset" : 1548,
			"byteLength" : 1548,
			"target" : 34962
		},
		{
			"buffer" : 0,
			"byteOffset" : 3096,
			"byteLength" : 1548,
			"target" : 34962
		},
		{
			"buffer" : 0,
			"byteOffset" : 4644,
			"byteLength" : 129,
			"target" : 34963
		}
	],
	"buffers" : [
		{
			"uri" : "B355001532502063C0.bin",
			"byteLength" : 4773
		}
	]
}
