{
	"asset" : {
		"generator" : "FME 2023.2.2.0",
		"version" : "2.0"
	},
	"materials" : [
		{
			"name" : "default_material",
			"pbrMetallicRoughness" : {
				"baseColorFactor" : [ 1, 1, 1, 1 ],
				"roughnessFactor" : 0.30000000000000004,
				"metallicFactor" : 0.5
			}
		}
	],
	"meshes" : [
		{
			"primitives" : [
				{
					"attributes" : {
						"NORMAL" : 1,
						"POSITION" : 0,
						"COLOR_0" : 2
					},
					"indices" : 3,
					"material" : 0,
					"mode" : 4
				}
			]
		}
	],
	"nodes" : [
		{
			"name" : "B184911365201062G0",
			"matrix" : [ 1, 0, 0, 0, 0, 0, -1, 0, 0, 1, 0, 0, 818491.5, 10.493200302124023, -813651.625, 1 ],
			"children" : [ 1 ]
		},
		{
			"mesh" : 0
		}
	],
	"scenes" : [
		{
			"nodes" : [ 0 ]
		}
	],
	"scene" : 0,
	"accessors" : [
		{
			"bufferView" : 0,
			"byteOffset" : 0,
			"componentType" : 5126,
			"count" : 210,
			"type" : "VEC3",
			"min" : [ -9.625, -10.1875, 0 ],
			"max" : [ 9.5625, 10.1875, 5.859399795532227 ]
		},
		{
			"bufferView" : 1,
			"byteOffset" : 0,
			"componentType" : 5126,
			"count" : 210,
			"type" : "VEC3",
			"min" : [ -0.7998666763305664, -0.7998684644699097, -1 ],
			"max" : [ 0.7998684048652649, 0.7999227643013, 1 ]
		},
		{
			"bufferView" : 2,
			"byteOffset" : 0,
			"componentType" : 5126,
			"count" : 210,
			"type" : "VEC3"
		},
		{
			"bufferView" : 3,
			"byteOffset" : 0,
			"componentType" : 5121,
			"count" : 210,
			"type" : "SCALAR",
			"min" : [ 0 ],
			"max" : [ 209 ]
		}
	],
	"bufferViews" : [
		{
			"buffer" : 0,
			"byteOffset" : 0,
			"byteLength" : 2520,
			"target" : 34962
		},
		{
			"buffer" : 0,
			"byteOffset" : 2520,
			"byteLength" : 2520,
			"target" : 34962
		},
		{
			"buffer" : 0,
			"byteOffset" : 5040,
			"byteLength" : 2520,
			"target" : 34962
		},
		{
			"buffer" : 0,
			"byteOffset" : 7560,
			"byteLength" : 210,
			"target" : 34963
		}
	],
	"buffers" : [
		{
			"uri" : "B184911365201062G0.bin",
			"byteLength" : 7770
		}
	]
}
