{
	"asset" : {
		"generator" : "FME 2023.1.0.0",
		"version" : "2.0"
	},
	"materials" : [
		{
			"name" : "default_material",
			"pbrMetallicRoughness" : {
				"baseColorFactor" : [ 1, 1, 1, 1 ],
				"roughnessFactor" : 0.30000000000000004,
				"metallicFactor" : 0.5
			}
		}
	],
	"meshes" : [
		{
			"primitives" : [
				{
					"attributes" : {
						"NORMAL" : 1,
						"POSITION" : 0,
						"COLOR_0" : 2
					},
					"indices" : 3,
					"material" : 0,
					"mode" : 4
				}
			]
		}
	],
	"nodes" : [
		{
			"name" : "B334261620501063C0",
			"matrix" : [ 1, 0, 0, 0, 0, 0, -1, 0, 0, 1, 0, 0, 833425.75, 21.194000244140625, -816204.375, 1 ],
			"children" : [ 1 ]
		},
		{
			"mesh" : 0
		}
	],
	"scenes" : [
		{
			"nodes" : [ 0 ]
		}
	],
	"scene" : 0,
	"accessors" : [
		{
			"bufferView" : 0,
			"byteOffset" : 0,
			"componentType" : 5126,
			"count" : 270,
			"type" : "VEC3",
			"min" : [ -5.27734375, -5.0126953125, 0 ],
			"max" : [ 5.29296875, 5.0380859375, 22.74700164794922 ]
		},
		{
			"bufferView" : 1,
			"byteOffset" : 0,
			"componentType" : 5126,
			"count" : 270,
			"type" : "VEC3",
			"min" : [ -0.7597109079360962, -0.7659980654716492, -1 ],
			"max" : [ 0.7661361694335938, 0.7666240334510803, 1 ]
		},
		{
			"bufferView" : 2,
			"byteOffset" : 0,
			"componentType" : 5126,
			"count" : 270,
			"type" : "VEC3"
		},
		{
			"bufferView" : 3,
			"byteOffset" : 0,
			"componentType" : 5123,
			"count" : 270,
			"type" : "SCALAR",
			"min" : [ 0 ],
			"max" : [ 269 ]
		}
	],
	"bufferViews" : [
		{
			"buffer" : 0,
			"byteOffset" : 0,
			"byteLength" : 3240,
			"target" : 34962
		},
		{
			"buffer" : 0,
			"byteOffset" : 3240,
			"byteLength" : 3240,
			"target" : 34962
		},
		{
			"buffer" : 0,
			"byteOffset" : 6480,
			"byteLength" : 3240,
			"target" : 34962
		},
		{
			"buffer" : 0,
			"byteOffset" : 9720,
			"byteLength" : 540,
			"target" : 34963
		}
	],
	"buffers" : [
		{
			"uri" : "B334261620501063C0.bin",
			"byteLength" : 10260
		}
	]
}
