{
	"asset" : {
		"generator" : "FME 2023.1.0.0",
		"version" : "2.0"
	},
	"materials" : [
		{
			"name" : "default_material",
			"pbrMetallicRoughness" : {
				"baseColorFactor" : [ 1, 1, 1, 1 ],
				"roughnessFactor" : 0.30000000000000004,
				"metallicFactor" : 0.5
			}
		}
	],
	"meshes" : [
		{
			"primitives" : [
				{
					"attributes" : {
						"NORMAL" : 1,
						"POSITION" : 0,
						"COLOR_0" : 2
					},
					"indices" : 3,
					"material" : 0,
					"mode" : 4
				}
			]
		}
	],
	"nodes" : [
		{
			"name" : "B334351619202063C0",
			"matrix" : [ 1, 0, 0, 0, 0, 0, -1, 0, 0, 1, 0, 0, 833436.3125, 21.63299560546875, -816192.625, 1 ],
			"children" : [ 1 ]
		},
		{
			"mesh" : 0
		}
	],
	"scenes" : [
		{
			"nodes" : [ 0 ]
		}
	],
	"scene" : 0,
	"accessors" : [
		{
			"bufferView" : 0,
			"byteOffset" : 0,
			"componentType" : 5126,
			"count" : 675,
			"type" : "VEC3",
			"min" : [ -12.0576171875, -12.4296875, 0 ],
			"max" : [ 12.05859375, 12.4287109375, 14.683002471923828 ]
		},
		{
			"bufferView" : 1,
			"byteOffset" : 0,
			"componentType" : 5126,
			"count" : 675,
			"type" : "VEC3",
			"min" : [ -0.7635215520858765, -0.7619394063949585, -1 ],
			"max" : [ 0.7617636919021606, 0.7621586918830872, 1 ]
		},
		{
			"bufferView" : 2,
			"byteOffset" : 0,
			"componentType" : 5126,
			"count" : 675,
			"type" : "VEC3"
		},
		{
			"bufferView" : 3,
			"byteOffset" : 0,
			"componentType" : 5123,
			"count" : 675,
			"type" : "SCALAR",
			"min" : [ 0 ],
			"max" : [ 674 ]
		}
	],
	"bufferViews" : [
		{
			"buffer" : 0,
			"byteOffset" : 0,
			"byteLength" : 8100,
			"target" : 34962
		},
		{
			"buffer" : 0,
			"byteOffset" : 8100,
			"byteLength" : 8100,
			"target" : 34962
		},
		{
			"buffer" : 0,
			"byteOffset" : 16200,
			"byteLength" : 8100,
			"target" : 34962
		},
		{
			"buffer" : 0,
			"byteOffset" : 24300,
			"byteLength" : 1350,
			"target" : 34963
		}
	],
	"buffers" : [
		{
			"uri" : "B334351619202063C0.bin",
			"byteLength" : 25650
		}
	]
}
