{
	"asset" : {
		"generator" : "FME 2022.2.4.0",
		"version" : "2.0"
	},
	"materials" : [
		{
			"name" : "default_material",
			"pbrMetallicRoughness" : {
				"baseColorFactor" : [ 1, 1, 1, 1 ],
				"roughnessFactor" : 0.30000000000000004,
				"metallicFactor" : 0.5
			}
		}
	],
	"meshes" : [
		{
			"primitives" : [
				{
					"attributes" : {
						"NORMAL" : 1,
						"POSITION" : 0,
						"COLOR_0" : 2
					},
					"indices" : 3,
					"material" : 0,
					"mode" : 4
				}
			]
		}
	],
	"nodes" : [
		{
			"name" : "B331281634801063C0",
			"matrix" : [ 1, 0, 0, 0, 0, 0, -1, 0, 0, 1, 0, 0, 833134.375, 10.092000007629395, -816347.625, 1 ],
			"children" : [ 1 ]
		},
		{
			"mesh" : 0
		}
	],
	"scenes" : [
		{
			"nodes" : [ 0 ]
		}
	],
	"scene" : 0,
	"accessors" : [
		{
			"bufferView" : 0,
			"byteOffset" : 0,
			"componentType" : 5126,
			"count" : 693,
			"type" : "VEC3",
			"min" : [ -9.494140625, -2.787109375, 0 ],
			"max" : [ 9.47900390625, 2.884765625, 21.80099868774414 ]
		},
		{
			"bufferView" : 1,
			"byteOffset" : 0,
			"componentType" : 5126,
			"count" : 693,
			"type" : "VEC3",
			"min" : [ -0.9985271096229553, -0.9986592531204224, -1 ],
			"max" : [ 0.9986384510993958, 0.9994602203369141, 1 ]
		},
		{
			"bufferView" : 2,
			"byteOffset" : 0,
			"componentType" : 5126,
			"count" : 693,
			"type" : "VEC3"
		},
		{
			"bufferView" : 3,
			"byteOffset" : 0,
			"componentType" : 5123,
			"count" : 693,
			"type" : "SCALAR",
			"min" : [ 0 ],
			"max" : [ 692 ]
		}
	],
	"bufferViews" : [
		{
			"buffer" : 0,
			"byteOffset" : 0,
			"byteLength" : 8316,
			"target" : 34962
		},
		{
			"buffer" : 0,
			"byteOffset" : 8316,
			"byteLength" : 8316,
			"target" : 34962
		},
		{
			"buffer" : 0,
			"byteOffset" : 16632,
			"byteLength" : 8316,
			"target" : 34962
		},
		{
			"buffer" : 0,
			"byteOffset" : 24948,
			"byteLength" : 1386,
			"target" : 34963
		}
	],
	"buffers" : [
		{
			"uri" : "B331281634801063C0.bin",
			"byteLength" : 26334
		}
	]
}
