{"accessors":[{"bufferView":0,"componentType":5126,"count":2913,"type":"VEC3"},{"bufferView":1,"componentType":5126,"count":2913,"type":"VEC3"},{"bufferView":2,"componentType":5126,"count":2913,"max":[17.46875,18.587890625,48.99799728393555],"min":[-17.46875,-18.587890625,0.0],"type":"VEC3"},{"bufferView":3,"componentType":5123,"count":6006,"max":[2912],"min":[0],"type":"SCALAR"}],"asset":{"generator":"FME 2023.2.1.0","version":"2.0"},"bufferViews":[{"buffer":0,"byteLength":34956,"byteOffset":0,"target":34962},{"buffer":0,"byteLength":34956,"byteOffset":34956,"target":34962},{"buffer":0,"byteLength":34956,"byteOffset":69912,"target":34962},{"buffer":0,"byteLength":12012,"byteOffset":104868,"target":34963}],"buffers":[{"byteLength":116880,"uri":"buffer.bin"}],"materials":[{"name":"default_material","pbrMetallicRoughness":{"baseColorFactor":[1,1,1,1],"metallicFactor":0.5,"roughnessFactor":0.30000000000000004}}],"meshes":[{"primitives":[{"attributes":{"COLOR_0":0,"NORMAL":1,"POSITION":2},"indices":3,"material":0,"mode":4}]}],"nodes":[{"children":[1],"matrix":[1,0,0,0,0,0,-1,0,0,1,0,0,836515.375,43.07699966430664,-819625.125,1],"name":"B365141962501063C0"},{"mesh":0}],"scene":0,"scenes":[{"nodes":[0]}]}
