{
	"asset" : {
		"generator" : "FME 2023.2.1.0",
		"version" : "2.0"
	},
	"materials" : [
		{
			"name" : "default_material",
			"pbrMetallicRoughness" : {
				"baseColorFactor" : [ 1, 1, 1, 1 ],
				"roughnessFactor" : 0.30000000000000004,
				"metallicFactor" : 0.5
			}
		}
	],
	"meshes" : [
		{
			"primitives" : [
				{
					"attributes" : {
						"NORMAL" : 1,
						"POSITION" : 0,
						"COLOR_0" : 2
					},
					"indices" : 3,
					"material" : 0,
					"mode" : 4
				}
			]
		}
	],
	"nodes" : [
		{
			"name" : "B344391514102063C0",
			"matrix" : [ 1, 0, 0, 0, 0, 0, -1, 0, 0, 1, 0, 0, 834439.8125, 80.69999694824219, -815141.4375, 1 ],
			"children" : [ 1 ]
		},
		{
			"mesh" : 0
		}
	],
	"scenes" : [
		{
			"nodes" : [ 0 ]
		}
	],
	"scene" : 0,
	"accessors" : [
		{
			"bufferView" : 0,
			"byteOffset" : 0,
			"componentType" : 5126,
			"count" : 405,
			"type" : "VEC3",
			"min" : [ -14.2548828125, -19.44140625, 0 ],
			"max" : [ 14.25390625, 19.44140625, 12.426002502441406 ]
		},
		{
			"bufferView" : 1,
			"byteOffset" : 0,
			"componentType" : 5126,
			"count" : 405,
			"type" : "VEC3",
			"min" : [ -0.9994955658912659, -0.9992837905883789, -0.9999707341194153 ],
			"max" : [ 0.9995636343955994, 0.9971626400947571, 1 ]
		},
		{
			"bufferView" : 2,
			"byteOffset" : 0,
			"componentType" : 5126,
			"count" : 405,
			"type" : "VEC3"
		},
		{
			"bufferView" : 3,
			"byteOffset" : 0,
			"componentType" : 5123,
			"count" : 405,
			"type" : "SCALAR",
			"min" : [ 0 ],
			"max" : [ 404 ]
		}
	],
	"bufferViews" : [
		{
			"buffer" : 0,
			"byteOffset" : 0,
			"byteLength" : 4860,
			"target" : 34962
		},
		{
			"buffer" : 0,
			"byteOffset" : 4860,
			"byteLength" : 4860,
			"target" : 34962
		},
		{
			"buffer" : 0,
			"byteOffset" : 9720,
			"byteLength" : 4860,
			"target" : 34962
		},
		{
			"buffer" : 0,
			"byteOffset" : 14580,
			"byteLength" : 810,
			"target" : 34963
		}
	],
	"buffers" : [
		{
			"uri" : "B344391514102063C0.bin",
			"byteLength" : 15390
		}
	]
}
