{
	"asset" : {
		"generator" : "FME 2023.1.0.0",
		"version" : "2.0"
	},
	"materials" : [
		{
			"name" : "default_material",
			"pbrMetallicRoughness" : {
				"baseColorFactor" : [ 1, 1, 1, 1 ],
				"roughnessFactor" : 0.30000000000000004,
				"metallicFactor" : 0.5
			}
		}
	],
	"meshes" : [
		{
			"primitives" : [
				{
					"attributes" : {
						"NORMAL" : 1,
						"POSITION" : 0,
						"COLOR_0" : 2
					},
					"indices" : 3,
					"material" : 0,
					"mode" : 4
				}
			]
		}
	],
	"nodes" : [
		{
			"name" : "B354771523702063C0",
			"matrix" : [ 1, 0, 0, 0, 0, 0, -1, 0, 0, 1, 0, 0, 835472.4375, 15.211000442504883, -815238.75, 1 ],
			"children" : [ 1 ]
		},
		{
			"mesh" : 0
		}
	],
	"scenes" : [
		{
			"nodes" : [ 0 ]
		}
	],
	"scene" : 0,
	"accessors" : [
		{
			"bufferView" : 0,
			"byteOffset" : 0,
			"componentType" : 5126,
			"count" : 354,
			"type" : "VEC3",
			"min" : [ -7.2666015625, -6.8466796875, 0 ],
			"max" : [ 7.2666015625, 6.845703125, 11.88800048828125 ]
		},
		{
			"bufferView" : 1,
			"byteOffset" : 0,
			"componentType" : 5126,
			"count" : 354,
			"type" : "VEC3",
			"min" : [ -0.8203405737876892, -0.8205722570419312, -1 ],
			"max" : [ 0.8205326199531555, 0.8200268745422363, 1 ]
		},
		{
			"bufferView" : 2,
			"byteOffset" : 0,
			"componentType" : 5126,
			"count" : 354,
			"type" : "VEC3"
		},
		{
			"bufferView" : 3,
			"byteOffset" : 0,
			"componentType" : 5123,
			"count" : 354,
			"type" : "SCALAR",
			"min" : [ 0 ],
			"max" : [ 353 ]
		}
	],
	"bufferViews" : [
		{
			"buffer" : 0,
			"byteOffset" : 0,
			"byteLength" : 4248,
			"target" : 34962
		},
		{
			"buffer" : 0,
			"byteOffset" : 4248,
			"byteLength" : 4248,
			"target" : 34962
		},
		{
			"buffer" : 0,
			"byteOffset" : 8496,
			"byteLength" : 4248,
			"target" : 34962
		},
		{
			"buffer" : 0,
			"byteOffset" : 12744,
			"byteLength" : 708,
			"target" : 34963
		}
	],
	"buffers" : [
		{
			"uri" : "B354771523702063C0.bin",
			"byteLength" : 13452
		}
	]
}
