{
	"asset" : {
		"generator" : "FME 2023.2.1.0",
		"version" : "2.0"
	},
	"materials" : [
		{
			"name" : "default_material",
			"pbrMetallicRoughness" : {
				"baseColorFactor" : [ 1, 1, 1, 1 ],
				"roughnessFactor" : 0.30000000000000004,
				"metallicFactor" : 0.5
			}
		}
	],
	"meshes" : [
		{
			"primitives" : [
				{
					"attributes" : {
						"NORMAL" : 1,
						"POSITION" : 0,
						"COLOR_0" : 2
					},
					"indices" : 3,
					"material" : 0,
					"mode" : 4
				}
			]
		}
	],
	"nodes" : [
		{
			"name" : "B338421604201063C0",
			"matrix" : [ 1, 0, 0, 0, 0, 0, -1, 0, 0, 1, 0, 0, 833840.9375, 22.474998474121094, -816036.625, 1 ],
			"children" : [ 1 ]
		},
		{
			"mesh" : 0
		}
	],
	"scenes" : [
		{
			"nodes" : [ 0 ]
		}
	],
	"scene" : 0,
	"accessors" : [
		{
			"bufferView" : 0,
			"byteOffset" : 0,
			"componentType" : 5126,
			"count" : 747,
			"type" : "VEC3",
			"min" : [ -8.935546875, -9.7568359375, 0 ],
			"max" : [ 8.9345703125, 9.7578125, 23.322998046875 ]
		},
		{
			"bufferView" : 1,
			"byteOffset" : 0,
			"componentType" : 5126,
			"count" : 747,
			"type" : "VEC3",
			"min" : [ -0.8207412362098694, -0.8211636543273926, -0.7473358511924744 ],
			"max" : [ 0.8388512134552002, 0.7746611833572388, 1 ]
		},
		{
			"bufferView" : 2,
			"byteOffset" : 0,
			"componentType" : 5126,
			"count" : 747,
			"type" : "VEC3"
		},
		{
			"bufferView" : 3,
			"byteOffset" : 0,
			"componentType" : 5123,
			"count" : 747,
			"type" : "SCALAR",
			"min" : [ 0 ],
			"max" : [ 746 ]
		}
	],
	"bufferViews" : [
		{
			"buffer" : 0,
			"byteOffset" : 0,
			"byteLength" : 8964,
			"target" : 34962
		},
		{
			"buffer" : 0,
			"byteOffset" : 8964,
			"byteLength" : 8964,
			"target" : 34962
		},
		{
			"buffer" : 0,
			"byteOffset" : 17928,
			"byteLength" : 8964,
			"target" : 34962
		},
		{
			"buffer" : 0,
			"byteOffset" : 26892,
			"byteLength" : 1494,
			"target" : 34963
		}
	],
	"buffers" : [
		{
			"uri" : "B338421604201063C0.bin",
			"byteLength" : 28386
		}
	]
}
