{
	"asset" : {
		"generator" : "FME 2023.2.1.0",
		"version" : "2.0"
	},
	"materials" : [
		{
			"name" : "default_material",
			"pbrMetallicRoughness" : {
				"baseColorFactor" : [ 1, 1, 1, 1 ],
				"roughnessFactor" : 0.30000000000000004,
				"metallicFactor" : 0.5
			}
		}
	],
	"meshes" : [
		{
			"primitives" : [
				{
					"attributes" : {
						"NORMAL" : 1,
						"POSITION" : 0,
						"COLOR_0" : 2
					},
					"indices" : 3,
					"material" : 0,
					"mode" : 4
				}
			]
		}
	],
	"nodes" : [
		{
			"name" : "B335431578801063C0",
			"matrix" : [ 1, 0, 0, 0, 0, 0, -1, 0, 0, 1, 0, 0, 833539.5625, 111.7699966430664, -815779.0625, 1 ],
			"children" : [ 1 ]
		},
		{
			"mesh" : 0
		}
	],
	"scenes" : [
		{
			"nodes" : [ 0 ]
		}
	],
	"scene" : 0,
	"accessors" : [
		{
			"bufferView" : 0,
			"byteOffset" : 0,
			"componentType" : 5126,
			"count" : 573,
			"type" : "VEC3",
			"min" : [ -10.255859375, -12.0546875, 0 ],
			"max" : [ 10.2548828125, 12.0556640625, 80.7560043334961 ]
		},
		{
			"bufferView" : 1,
			"byteOffset" : 0,
			"componentType" : 5126,
			"count" : 573,
			"type" : "VEC3",
			"min" : [ -0.8865057229995728, -0.883470892906189, -1 ],
			"max" : [ 0.886398434638977, 0.8834486603736877, 1 ]
		},
		{
			"bufferView" : 2,
			"byteOffset" : 0,
			"componentType" : 5126,
			"count" : 573,
			"type" : "VEC3"
		},
		{
			"bufferView" : 3,
			"byteOffset" : 0,
			"componentType" : 5123,
			"count" : 573,
			"type" : "SCALAR",
			"min" : [ 0 ],
			"max" : [ 572 ]
		}
	],
	"bufferViews" : [
		{
			"buffer" : 0,
			"byteOffset" : 0,
			"byteLength" : 6876,
			"target" : 34962
		},
		{
			"buffer" : 0,
			"byteOffset" : 6876,
			"byteLength" : 6876,
			"target" : 34962
		},
		{
			"buffer" : 0,
			"byteOffset" : 13752,
			"byteLength" : 6876,
			"target" : 34962
		},
		{
			"buffer" : 0,
			"byteOffset" : 20628,
			"byteLength" : 1146,
			"target" : 34963
		}
	],
	"buffers" : [
		{
			"uri" : "B335431578801063C0.bin",
			"byteLength" : 21774
		}
	]
}
