{
	"asset" : {
		"generator" : "FME 2022.2.4.0",
		"version" : "2.0"
	},
	"materials" : [
		{
			"name" : "default_material",
			"pbrMetallicRoughness" : {
				"baseColorFactor" : [ 1, 1, 1, 1 ],
				"roughnessFactor" : 0.30000000000000004,
				"metallicFactor" : 0.5
			}
		}
	],
	"meshes" : [
		{
			"primitives" : [
				{
					"attributes" : {
						"NORMAL" : 1,
						"POSITION" : 0,
						"COLOR_0" : 2
					},
					"indices" : 3,
					"material" : 0,
					"mode" : 4
				}
			]
		}
	],
	"nodes" : [
		{
			"name" : "B339551566101063C0",
			"matrix" : [ 1, 0, 0, 0, 0, 0, -1, 0, 0, 1, 0, 0, 833952.1875, 51.03799819946289, -815661, 1 ],
			"children" : [ 1 ]
		},
		{
			"mesh" : 0
		}
	],
	"scenes" : [
		{
			"nodes" : [ 0 ]
		}
	],
	"scene" : 0,
	"accessors" : [
		{
			"bufferView" : 0,
			"byteOffset" : 0,
			"componentType" : 5126,
			"count" : 1176,
			"type" : "VEC3",
			"min" : [ -13.2939453125, -8.46875, 0 ],
			"max" : [ 13.29296875, 8.4677734375, 51.87800216674805 ]
		},
		{
			"bufferView" : 1,
			"byteOffset" : 0,
			"componentType" : 5126,
			"count" : 1176,
			"type" : "VEC3",
			"min" : [ -0.9996621608734131, -0.9756054282188416, -1 ],
			"max" : [ 0.987700879573822, 0.9756961464881897, 1 ]
		},
		{
			"bufferView" : 2,
			"byteOffset" : 0,
			"componentType" : 5126,
			"count" : 1176,
			"type" : "VEC3"
		},
		{
			"bufferView" : 3,
			"byteOffset" : 0,
			"componentType" : 5123,
			"count" : 1176,
			"type" : "SCALAR",
			"min" : [ 0 ],
			"max" : [ 1175 ]
		}
	],
	"bufferViews" : [
		{
			"buffer" : 0,
			"byteOffset" : 0,
			"byteLength" : 14112,
			"target" : 34962
		},
		{
			"buffer" : 0,
			"byteOffset" : 14112,
			"byteLength" : 14112,
			"target" : 34962
		},
		{
			"buffer" : 0,
			"byteOffset" : 28224,
			"byteLength" : 14112,
			"target" : 34962
		},
		{
			"buffer" : 0,
			"byteOffset" : 42336,
			"byteLength" : 2352,
			"target" : 34963
		}
	],
	"buffers" : [
		{
			"uri" : "B339551566101063C0.bin",
			"byteLength" : 44688
		}
	]
}
