{"asset":{"generator":"FME 2023.2.1.0","version":"2.0"},"materials":[{"name":"T16500126000106E11","pbrMetallicRoughness":{"roughnessFactor":0.984375,"metallicFactor":0.5}}],"meshes":[{"primitives":[{"attributes":{"NORMAL":1,"POSITION":0,"TEXCOORD_0":2},"indices":3,"material":0,"mode":4}]}],"nodes":[{"name":"T16500126000106E11","matrix":[1,0,0,0,0,0,-1,0,0,1,0,0,816875,54.88331604003906,-812900,1],"children":[1]},{"mesh":0}],"scenes":[{"nodes":[0]}],"scene":0,"accessors":[{"bufferView":0,"byteOffset":0,"componentType":5126,"count":315000,"type":"VEC3","min":[-375,-300,0],"max":[375,300,173.4467010498047]},{"bufferView":1,"byteOffset":0,"componentType":5126,"count":315000,"type":"VEC3","min":[-0.8990088701248169,-0.9076434373855591,0.32569313049316406],"max":[0.7802247405052185,0.9105713367462158,0.9999987483024597]},{"bufferView":2,"byteOffset":0,"componentType":5126,"count":315000,"type":"VEC2","min":[0.00013318657875061035,0.00016647577285766602],"max":[0.9998668432235718,0.9998335242271423]},{"bufferView":3,"byteOffset":0,"componentType":5125,"count":315000,"type":"SCALAR","min":[0],"max":[314999]}],"bufferViews":[{"buffer":0,"byteOffset":0,"byteLength":3780000,"target":34962},{"buffer":0,"byteOffset":3780000,"byteLength":3780000,"target":34962},{"buffer":0,"byteOffset":7560000,"byteLength":2520000,"target":34962},{"buffer":0,"byteOffset":10080000,"byteLength":1260000,"target":34963}],"buffers":[{"uri":"T16500126000106E11.bin","byteLength":11340000}]}