{
	"asset" : {
		"generator" : "FME 2022.2.4.0",
		"version" : "2.0"
	},
	"materials" : [
		{
			"name" : "default_material",
			"pbrMetallicRoughness" : {
				"baseColorFactor" : [ 1, 1, 1, 1 ],
				"roughnessFactor" : 0.30000000000000004,
				"metallicFactor" : 0.5
			}
		}
	],
	"meshes" : [
		{
			"primitives" : [
				{
					"attributes" : {
						"NORMAL" : 1,
						"POSITION" : 0,
						"COLOR_0" : 2
					},
					"indices" : 3,
					"material" : 0,
					"mode" : 4
				}
			]
		}
	],
	"nodes" : [
		{
			"name" : "B337811577501063C0",
			"matrix" : [ 1, 0, 0, 0, 0, 0, -1, 0, 0, 1, 0, 0, 833783.9375, 60.709999084472656, -815778.8125, 1 ],
			"children" : [ 1 ]
		},
		{
			"mesh" : 0
		}
	],
	"scenes" : [
		{
			"nodes" : [ 0 ]
		}
	],
	"scene" : 0,
	"accessors" : [
		{
			"bufferView" : 0,
			"byteOffset" : 0,
			"componentType" : 5126,
			"count" : 1032,
			"type" : "VEC3",
			"min" : [ -6.0478515625, -8.8154296875, 0 ],
			"max" : [ 6.046875, 8.8154296875, 31.189071655273438 ]
		},
		{
			"bufferView" : 1,
			"byteOffset" : 0,
			"componentType" : 5126,
			"count" : 1032,
			"type" : "VEC3",
			"min" : [ -0.9143939018249512, -0.9119690656661987, -1 ],
			"max" : [ 0.9130632281303406, 0.9121825098991394, 1 ]
		},
		{
			"bufferView" : 2,
			"byteOffset" : 0,
			"componentType" : 5126,
			"count" : 1032,
			"type" : "VEC3"
		},
		{
			"bufferView" : 3,
			"byteOffset" : 0,
			"componentType" : 5123,
			"count" : 1032,
			"type" : "SCALAR",
			"min" : [ 0 ],
			"max" : [ 1031 ]
		}
	],
	"bufferViews" : [
		{
			"buffer" : 0,
			"byteOffset" : 0,
			"byteLength" : 12384,
			"target" : 34962
		},
		{
			"buffer" : 0,
			"byteOffset" : 12384,
			"byteLength" : 12384,
			"target" : 34962
		},
		{
			"buffer" : 0,
			"byteOffset" : 24768,
			"byteLength" : 12384,
			"target" : 34962
		},
		{
			"buffer" : 0,
			"byteOffset" : 37152,
			"byteLength" : 2064,
			"target" : 34963
		}
	],
	"buffers" : [
		{
			"uri" : "B337811577501063C0.bin",
			"byteLength" : 39216
		}
	]
}
