{
	"asset" : {
		"generator" : "FME 2023.2.1.0",
		"version" : "2.0"
	},
	"materials" : [
		{
			"name" : "default_material",
			"pbrMetallicRoughness" : {
				"baseColorFactor" : [ 1, 1, 1, 1 ],
				"roughnessFactor" : 0.30000000000000004,
				"metallicFactor" : 0.5
			}
		}
	],
	"meshes" : [
		{
			"primitives" : [
				{
					"attributes" : {
						"NORMAL" : 1,
						"POSITION" : 0,
						"COLOR_0" : 2
					},
					"indices" : 3,
					"material" : 0,
					"mode" : 4
				}
			]
		}
	],
	"nodes" : [
		{
			"name" : "B345731507601063C0",
			"matrix" : [ 1, 0, 0, 0, 0, 0, -1, 0, 0, 1, 0, 0, 834574.3125, 108.31600189208984, -815078.8125, 1 ],
			"children" : [ 1 ]
		},
		{
			"mesh" : 0
		}
	],
	"scenes" : [
		{
			"nodes" : [ 0 ]
		}
	],
	"scene" : 0,
	"accessors" : [
		{
			"bufferView" : 0,
			"byteOffset" : 0,
			"componentType" : 5126,
			"count" : 933,
			"type" : "VEC3",
			"min" : [ -6.552734375, -7.09765625, 0 ],
			"max" : [ 6.552734375, 7.09765625, 24.45800018310547 ]
		},
		{
			"bufferView" : 1,
			"byteOffset" : 0,
			"componentType" : 5126,
			"count" : 933,
			"type" : "VEC3",
			"min" : [ -0.9869327545166016, -0.9868745803833008, -1 ],
			"max" : [ 0.9857673645019531, 0.9868746399879456, 1 ]
		},
		{
			"bufferView" : 2,
			"byteOffset" : 0,
			"componentType" : 5126,
			"count" : 933,
			"type" : "VEC3"
		},
		{
			"bufferView" : 3,
			"byteOffset" : 0,
			"componentType" : 5123,
			"count" : 933,
			"type" : "SCALAR",
			"min" : [ 0 ],
			"max" : [ 932 ]
		}
	],
	"bufferViews" : [
		{
			"buffer" : 0,
			"byteOffset" : 0,
			"byteLength" : 11196,
			"target" : 34962
		},
		{
			"buffer" : 0,
			"byteOffset" : 11196,
			"byteLength" : 11196,
			"target" : 34962
		},
		{
			"buffer" : 0,
			"byteOffset" : 22392,
			"byteLength" : 11196,
			"target" : 34962
		},
		{
			"buffer" : 0,
			"byteOffset" : 33588,
			"byteLength" : 1866,
			"target" : 34963
		}
	],
	"buffers" : [
		{
			"uri" : "B345731507601063C0.bin",
			"byteLength" : 35454
		}
	]
}
