{
	"asset" : {
		"generator" : "FME 2022.2.4.0",
		"version" : "2.0"
	},
	"materials" : [
		{
			"name" : "default_material",
			"pbrMetallicRoughness" : {
				"baseColorFactor" : [ 1, 1, 1, 1 ],
				"roughnessFactor" : 0.30000000000000004,
				"metallicFactor" : 0.5
			}
		}
	],
	"meshes" : [
		{
			"primitives" : [
				{
					"attributes" : {
						"NORMAL" : 1,
						"POSITION" : 0,
						"COLOR_0" : 2
					},
					"indices" : 3,
					"material" : 0,
					"mode" : 4
				}
			]
		}
	],
	"nodes" : [
		{
			"name" : "B340911603001063C0",
			"matrix" : [ 1, 0, 0, 0, 0, 0, -1, 0, 0, 1, 0, 0, 834096, 6.177000045776367, -816027.625, 1 ],
			"children" : [ 1 ]
		},
		{
			"mesh" : 0
		}
	],
	"scenes" : [
		{
			"nodes" : [ 0 ]
		}
	],
	"scene" : 0,
	"accessors" : [
		{
			"bufferView" : 0,
			"byteOffset" : 0,
			"componentType" : 5126,
			"count" : 471,
			"type" : "VEC3",
			"min" : [ -8.4501953125, -8.6142578125, 0 ],
			"max" : [ 8.427734375, 8.625, 28.775999069213867 ]
		},
		{
			"bufferView" : 1,
			"byteOffset" : 0,
			"componentType" : 5126,
			"count" : 471,
			"type" : "VEC3",
			"min" : [ -0.8566951751708984, -1, -1 ],
			"max" : [ 0.857492983341217, 0.8569368720054626, 1 ]
		},
		{
			"bufferView" : 2,
			"byteOffset" : 0,
			"componentType" : 5126,
			"count" : 471,
			"type" : "VEC3"
		},
		{
			"bufferView" : 3,
			"byteOffset" : 0,
			"componentType" : 5123,
			"count" : 471,
			"type" : "SCALAR",
			"min" : [ 0 ],
			"max" : [ 470 ]
		}
	],
	"bufferViews" : [
		{
			"buffer" : 0,
			"byteOffset" : 0,
			"byteLength" : 5652,
			"target" : 34962
		},
		{
			"buffer" : 0,
			"byteOffset" : 5652,
			"byteLength" : 5652,
			"target" : 34962
		},
		{
			"buffer" : 0,
			"byteOffset" : 11304,
			"byteLength" : 5652,
			"target" : 34962
		},
		{
			"buffer" : 0,
			"byteOffset" : 16956,
			"byteLength" : 942,
			"target" : 34963
		}
	],
	"buffers" : [
		{
			"uri" : "B340911603001063C0.bin",
			"byteLength" : 17898
		}
	]
}
