{
	"asset" : {
		"generator" : "FME 2022.2.4.0",
		"version" : "2.0"
	},
	"materials" : [
		{
			"name" : "default_material",
			"pbrMetallicRoughness" : {
				"baseColorFactor" : [ 1, 1, 1, 1 ],
				"roughnessFactor" : 0.30000000000000004,
				"metallicFactor" : 0.5
			}
		}
	],
	"meshes" : [
		{
			"primitives" : [
				{
					"attributes" : {
						"NORMAL" : 1,
						"POSITION" : 0,
						"COLOR_0" : 2
					},
					"indices" : 3,
					"material" : 0,
					"mode" : 4
				}
			]
		}
	],
	"nodes" : [
		{
			"name" : "B333661655802063C0",
			"matrix" : [ 1, 0, 0, 0, 0, 0, -1, 0, 0, 1, 0, 0, 833366.8125, 2.90000581741333, -816559.3125, 1 ],
			"children" : [ 1 ]
		},
		{
			"mesh" : 0
		}
	],
	"scenes" : [
		{
			"nodes" : [ 0 ]
		}
	],
	"scene" : 0,
	"accessors" : [
		{
			"bufferView" : 0,
			"byteOffset" : 0,
			"componentType" : 5126,
			"count" : 168,
			"type" : "VEC3",
			"min" : [ -5.380859375, -4.7333984375, 0 ],
			"max" : [ 5.3798828125, 4.734375, 16.555999755859375 ]
		},
		{
			"bufferView" : 1,
			"byteOffset" : 0,
			"componentType" : 5126,
			"count" : 168,
			"type" : "VEC3",
			"min" : [ -0.9671024680137634, -0.9676229953765869, -1 ],
			"max" : [ 0.9678035378456116, 0.9670939445495605, 1 ]
		},
		{
			"bufferView" : 2,
			"byteOffset" : 0,
			"componentType" : 5126,
			"count" : 168,
			"type" : "VEC3"
		},
		{
			"bufferView" : 3,
			"byteOffset" : 0,
			"componentType" : 5121,
			"count" : 168,
			"type" : "SCALAR",
			"min" : [ 0 ],
			"max" : [ 167 ]
		}
	],
	"bufferViews" : [
		{
			"buffer" : 0,
			"byteOffset" : 0,
			"byteLength" : 2016,
			"target" : 34962
		},
		{
			"buffer" : 0,
			"byteOffset" : 2016,
			"byteLength" : 2016,
			"target" : 34962
		},
		{
			"buffer" : 0,
			"byteOffset" : 4032,
			"byteLength" : 2016,
			"target" : 34962
		},
		{
			"buffer" : 0,
			"byteOffset" : 6048,
			"byteLength" : 168,
			"target" : 34963
		}
	],
	"buffers" : [
		{
			"uri" : "B333661655802063C0.bin",
			"byteLength" : 6216
		}
	]
}
