{
	"asset" : {
		"generator" : "FME 2023.2.1.0",
		"version" : "2.0"
	},
	"materials" : [
		{
			"name" : "default_material",
			"pbrMetallicRoughness" : {
				"baseColorFactor" : [ 1, 1, 1, 1 ],
				"roughnessFactor" : 0.30000000000000004,
				"metallicFactor" : 0.5
			}
		}
	],
	"meshes" : [
		{
			"primitives" : [
				{
					"attributes" : {
						"NORMAL" : 1,
						"POSITION" : 0,
						"COLOR_0" : 2
					},
					"indices" : 3,
					"material" : 0,
					"mode" : 4
				}
			]
		}
	],
	"nodes" : [
		{
			"name" : "B358151543401063C0",
			"matrix" : [ 1, 0, 0, 0, 0, 0, -1, 0, 0, 1, 0, 0, 835816.625, 3.6549999713897705, -815428.75, 1 ],
			"children" : [ 1 ]
		},
		{
			"mesh" : 0
		}
	],
	"scenes" : [
		{
			"nodes" : [ 0 ]
		}
	],
	"scene" : 0,
	"accessors" : [
		{
			"bufferView" : 0,
			"byteOffset" : 0,
			"componentType" : 5126,
			"count" : 1425,
			"type" : "VEC3",
			"min" : [ -9.734375, -9.4677734375, 0 ],
			"max" : [ 9.7353515625, 9.46875, 53.79899597167969 ]
		},
		{
			"bufferView" : 1,
			"byteOffset" : 0,
			"componentType" : 5126,
			"count" : 1425,
			"type" : "VEC3",
			"min" : [ -0.9958896040916443, -1, -1 ],
			"max" : [ 1, 1, 1 ]
		},
		{
			"bufferView" : 2,
			"byteOffset" : 0,
			"componentType" : 5126,
			"count" : 1425,
			"type" : "VEC3"
		},
		{
			"bufferView" : 3,
			"byteOffset" : 0,
			"componentType" : 5123,
			"count" : 1425,
			"type" : "SCALAR",
			"min" : [ 0 ],
			"max" : [ 1424 ]
		}
	],
	"bufferViews" : [
		{
			"buffer" : 0,
			"byteOffset" : 0,
			"byteLength" : 17100,
			"target" : 34962
		},
		{
			"buffer" : 0,
			"byteOffset" : 17100,
			"byteLength" : 17100,
			"target" : 34962
		},
		{
			"buffer" : 0,
			"byteOffset" : 34200,
			"byteLength" : 17100,
			"target" : 34962
		},
		{
			"buffer" : 0,
			"byteOffset" : 51300,
			"byteLength" : 2850,
			"target" : 34963
		}
	],
	"buffers" : [
		{
			"uri" : "B358151543401063C0.bin",
			"byteLength" : 54150
		}
	]
}
