{
	"asset" : {
		"generator" : "FME 2023.2.1.0",
		"version" : "2.0"
	},
	"materials" : [
		{
			"name" : "default_material",
			"pbrMetallicRoughness" : {
				"baseColorFactor" : [ 1, 1, 1, 1 ],
				"roughnessFactor" : 0.30000000000000004,
				"metallicFactor" : 0.5
			}
		}
	],
	"meshes" : [
		{
			"primitives" : [
				{
					"attributes" : {
						"NORMAL" : 1,
						"POSITION" : 0,
						"COLOR_0" : 2
					},
					"indices" : 3,
					"material" : 0,
					"mode" : 4
				}
			]
		}
	],
	"nodes" : [
		{
			"name" : "B359681535801063C0",
			"matrix" : [ 1, 0, 0, 0, 0, 0, -1, 0, 0, 1, 0, 0, 835971.6875, 4.162002086639404, -815353.1875, 1 ],
			"children" : [ 1 ]
		},
		{
			"mesh" : 0
		}
	],
	"scenes" : [
		{
			"nodes" : [ 0 ]
		}
	],
	"scene" : 0,
	"accessors" : [
		{
			"bufferView" : 0,
			"byteOffset" : 0,
			"componentType" : 5126,
			"count" : 1062,
			"type" : "VEC3",
			"min" : [ -6.1845703125, -9.5537109375, 0 ],
			"max" : [ 6.1845703125, 9.5537109375, 22.161998748779297 ]
		},
		{
			"bufferView" : 1,
			"byteOffset" : 0,
			"componentType" : 5126,
			"count" : 1062,
			"type" : "VEC3",
			"min" : [ -0.9941831231117249, -0.9944011569023132, -1 ],
			"max" : [ 1, 0.9938411712646484, 1 ]
		},
		{
			"bufferView" : 2,
			"byteOffset" : 0,
			"componentType" : 5126,
			"count" : 1062,
			"type" : "VEC3"
		},
		{
			"bufferView" : 3,
			"byteOffset" : 0,
			"componentType" : 5123,
			"count" : 1062,
			"type" : "SCALAR",
			"min" : [ 0 ],
			"max" : [ 1061 ]
		}
	],
	"bufferViews" : [
		{
			"buffer" : 0,
			"byteOffset" : 0,
			"byteLength" : 12744,
			"target" : 34962
		},
		{
			"buffer" : 0,
			"byteOffset" : 12744,
			"byteLength" : 12744,
			"target" : 34962
		},
		{
			"buffer" : 0,
			"byteOffset" : 25488,
			"byteLength" : 12744,
			"target" : 34962
		},
		{
			"buffer" : 0,
			"byteOffset" : 38232,
			"byteLength" : 2124,
			"target" : 34963
		}
	],
	"buffers" : [
		{
			"uri" : "B359681535801063C0.bin",
			"byteLength" : 40356
		}
	]
}
