{
	"asset" : {
		"generator" : "FME 2022.2.4.0",
		"version" : "2.0"
	},
	"materials" : [
		{
			"name" : "default_material",
			"pbrMetallicRoughness" : {
				"baseColorFactor" : [ 1, 1, 1, 1 ],
				"roughnessFactor" : 0.30000000000000004,
				"metallicFactor" : 0.5
			}
		}
	],
	"meshes" : [
		{
			"primitives" : [
				{
					"attributes" : {
						"NORMAL" : 1,
						"POSITION" : 0,
						"COLOR_0" : 2
					},
					"indices" : 3,
					"material" : 0,
					"mode" : 4
				}
			]
		}
	],
	"nodes" : [
		{
			"name" : "B339811565401063C0",
			"matrix" : [ 1, 0, 0, 0, 0, 0, -1, 0, 0, 1, 0, 0, 833985.625, 61.625, -815653.75, 1 ],
			"children" : [ 1 ]
		},
		{
			"mesh" : 0
		}
	],
	"scenes" : [
		{
			"nodes" : [ 0 ]
		}
	],
	"scene" : 0,
	"accessors" : [
		{
			"bufferView" : 0,
			"byteOffset" : 0,
			"componentType" : 5126,
			"count" : 1251,
			"type" : "VEC3",
			"min" : [ -5.9033203125, -7.84765625, 0 ],
			"max" : [ 5.90234375, 7.8466796875, 74.843994140625 ]
		},
		{
			"bufferView" : 1,
			"byteOffset" : 0,
			"componentType" : 5126,
			"count" : 1251,
			"type" : "VEC3",
			"min" : [ -0.9701758027076721, -0.9701425433158875, -1 ],
			"max" : [ 0.968414306640625, 0.9701424837112427, 1 ]
		},
		{
			"bufferView" : 2,
			"byteOffset" : 0,
			"componentType" : 5126,
			"count" : 1251,
			"type" : "VEC3"
		},
		{
			"bufferView" : 3,
			"byteOffset" : 0,
			"componentType" : 5123,
			"count" : 1251,
			"type" : "SCALAR",
			"min" : [ 0 ],
			"max" : [ 1250 ]
		}
	],
	"bufferViews" : [
		{
			"buffer" : 0,
			"byteOffset" : 0,
			"byteLength" : 15012,
			"target" : 34962
		},
		{
			"buffer" : 0,
			"byteOffset" : 15012,
			"byteLength" : 15012,
			"target" : 34962
		},
		{
			"buffer" : 0,
			"byteOffset" : 30024,
			"byteLength" : 15012,
			"target" : 34962
		},
		{
			"buffer" : 0,
			"byteOffset" : 45036,
			"byteLength" : 2502,
			"target" : 34963
		}
	],
	"buffers" : [
		{
			"uri" : "B339811565401063C0.bin",
			"byteLength" : 47538
		}
	]
}
