{
	"asset" : {
		"generator" : "FME 2023.1.0.0",
		"version" : "2.0"
	},
	"materials" : [
		{
			"name" : "default_material",
			"pbrMetallicRoughness" : {
				"baseColorFactor" : [ 1, 1, 1, 1 ],
				"roughnessFactor" : 0.30000000000000004,
				"metallicFactor" : 0.5
			}
		}
	],
	"meshes" : [
		{
			"primitives" : [
				{
					"attributes" : {
						"NORMAL" : 1,
						"POSITION" : 0,
						"COLOR_0" : 2
					},
					"indices" : 3,
					"material" : 0,
					"mode" : 4
				}
			]
		}
	],
	"nodes" : [
		{
			"name" : "B350051518701063C0",
			"matrix" : [ 1, 0, 0, 0, 0, 0, -1, 0, 0, 1, 0, 0, 835004.8125, 64.7979965209961, -815186.875, 1 ],
			"children" : [ 1 ]
		},
		{
			"mesh" : 0
		}
	],
	"scenes" : [
		{
			"nodes" : [ 0 ]
		}
	],
	"scene" : 0,
	"accessors" : [
		{
			"bufferView" : 0,
			"byteOffset" : 0,
			"componentType" : 5126,
			"count" : 39,
			"type" : "VEC3",
			"min" : [ -1.2958984375, -1.1708984375, 0 ],
			"max" : [ 1.2958984375, 1.1708984375, 2.4820022583007812 ]
		},
		{
			"bufferView" : 1,
			"byteOffset" : 0,
			"componentType" : 5126,
			"count" : 39,
			"type" : "VEC3",
			"min" : [ -0.9838843941688538, -0.9917178153991699, 0 ],
			"max" : [ 0.973296582698822, 0.9929267168045044, 1 ]
		},
		{
			"bufferView" : 2,
			"byteOffset" : 0,
			"componentType" : 5126,
			"count" : 39,
			"type" : "VEC3"
		},
		{
			"bufferView" : 3,
			"byteOffset" : 0,
			"componentType" : 5121,
			"count" : 39,
			"type" : "SCALAR",
			"min" : [ 0 ],
			"max" : [ 38 ]
		}
	],
	"bufferViews" : [
		{
			"buffer" : 0,
			"byteOffset" : 0,
			"byteLength" : 468,
			"target" : 34962
		},
		{
			"buffer" : 0,
			"byteOffset" : 468,
			"byteLength" : 468,
			"target" : 34962
		},
		{
			"buffer" : 0,
			"byteOffset" : 936,
			"byteLength" : 468,
			"target" : 34962
		},
		{
			"buffer" : 0,
			"byteOffset" : 1404,
			"byteLength" : 39,
			"target" : 34963
		}
	],
	"buffers" : [
		{
			"uri" : "B350051518701063C0.bin",
			"byteLength" : 1443
		}
	]
}
