{
	"asset" : {
		"generator" : "FME 2023.2.1.0",
		"version" : "2.0"
	},
	"materials" : [
		{
			"name" : "default_material",
			"pbrMetallicRoughness" : {
				"baseColorFactor" : [ 1, 1, 1, 1 ],
				"roughnessFactor" : 0.30000000000000004,
				"metallicFactor" : 0.5
			}
		}
	],
	"meshes" : [
		{
			"primitives" : [
				{
					"attributes" : {
						"NORMAL" : 1,
						"POSITION" : 0,
						"COLOR_0" : 2
					},
					"indices" : 3,
					"material" : 0,
					"mode" : 4
				}
			]
		}
	],
	"nodes" : [
		{
			"name" : "B356411550201063C0",
			"matrix" : [ 1, 0, 0, 0, 0, 0, -1, 0, 0, 1, 0, 0, 835641.6875, 18.95800018310547, -815502.5, 1 ],
			"children" : [ 1 ]
		},
		{
			"mesh" : 0
		}
	],
	"scenes" : [
		{
			"nodes" : [ 0 ]
		}
	],
	"scene" : 0,
	"accessors" : [
		{
			"bufferView" : 0,
			"byteOffset" : 0,
			"componentType" : 5126,
			"count" : 345,
			"type" : "VEC3",
			"min" : [ -6.0341796875, -7.35546875, 0 ],
			"max" : [ 6.0341796875, 7.35546875, 57.802001953125 ]
		},
		{
			"bufferView" : 1,
			"byteOffset" : 0,
			"componentType" : 5126,
			"count" : 345,
			"type" : "VEC3",
			"min" : [ -0.9972802996635437, -0.9972527027130127, -0.971340537071228 ],
			"max" : [ 0.9963662028312683, 0.9962654709815979, 1 ]
		},
		{
			"bufferView" : 2,
			"byteOffset" : 0,
			"componentType" : 5126,
			"count" : 345,
			"type" : "VEC3"
		},
		{
			"bufferView" : 3,
			"byteOffset" : 0,
			"componentType" : 5123,
			"count" : 345,
			"type" : "SCALAR",
			"min" : [ 0 ],
			"max" : [ 344 ]
		}
	],
	"bufferViews" : [
		{
			"buffer" : 0,
			"byteOffset" : 0,
			"byteLength" : 4140,
			"target" : 34962
		},
		{
			"buffer" : 0,
			"byteOffset" : 4140,
			"byteLength" : 4140,
			"target" : 34962
		},
		{
			"buffer" : 0,
			"byteOffset" : 8280,
			"byteLength" : 4140,
			"target" : 34962
		},
		{
			"buffer" : 0,
			"byteOffset" : 12420,
			"byteLength" : 690,
			"target" : 34963
		}
	],
	"buffers" : [
		{
			"uri" : "B356411550201063C0.bin",
			"byteLength" : 13110
		}
	]
}
