{
	"asset" : {
		"generator" : "FME 2022.2.4.0",
		"version" : "2.0"
	},
	"materials" : [
		{
			"name" : "default_material",
			"pbrMetallicRoughness" : {
				"baseColorFactor" : [ 1, 1, 1, 1 ],
				"roughnessFactor" : 0.30000000000000004,
				"metallicFactor" : 0.5
			}
		}
	],
	"meshes" : [
		{
			"primitives" : [
				{
					"attributes" : {
						"NORMAL" : 1,
						"POSITION" : 0,
						"COLOR_0" : 2
					},
					"indices" : 3,
					"material" : 0,
					"mode" : 4
				}
			]
		}
	],
	"nodes" : [
		{
			"name" : "B171511449101062G0",
			"matrix" : [ 1, 0, 0, 0, 0, 0, -1, 0, 0, 1, 0, 0, 817151.75, 11.789299964904785, -814491.125, 1 ],
			"children" : [ 1 ]
		},
		{
			"mesh" : 0
		}
	],
	"scenes" : [
		{
			"nodes" : [ 0 ]
		}
	],
	"scene" : 0,
	"accessors" : [
		{
			"bufferView" : 0,
			"byteOffset" : 0,
			"componentType" : 5126,
			"count" : 390,
			"type" : "VEC3",
			"min" : [ -6.1875, -6.5625, 0 ],
			"max" : [ 6.25, 6.5, 10.499300956726074 ]
		},
		{
			"bufferView" : 1,
			"byteOffset" : 0,
			"componentType" : 5126,
			"count" : 390,
			"type" : "VEC3",
			"min" : [ -0.7988047003746033, -0.7988885641098022, -1 ],
			"max" : [ 0.7988780736923218, 0.7990885972976685, 1 ]
		},
		{
			"bufferView" : 2,
			"byteOffset" : 0,
			"componentType" : 5126,
			"count" : 390,
			"type" : "VEC3"
		},
		{
			"bufferView" : 3,
			"byteOffset" : 0,
			"componentType" : 5123,
			"count" : 390,
			"type" : "SCALAR",
			"min" : [ 0 ],
			"max" : [ 389 ]
		}
	],
	"bufferViews" : [
		{
			"buffer" : 0,
			"byteOffset" : 0,
			"byteLength" : 4680,
			"target" : 34962
		},
		{
			"buffer" : 0,
			"byteOffset" : 4680,
			"byteLength" : 4680,
			"target" : 34962
		},
		{
			"buffer" : 0,
			"byteOffset" : 9360,
			"byteLength" : 4680,
			"target" : 34962
		},
		{
			"buffer" : 0,
			"byteOffset" : 14040,
			"byteLength" : 780,
			"target" : 34963
		}
	],
	"buffers" : [
		{
			"uri" : "B171511449101062G0.bin",
			"byteLength" : 14820
		}
	]
}
