{
	"asset" : {
		"generator" : "FME 2022.2.4.0",
		"version" : "2.0"
	},
	"materials" : [
		{
			"name" : "default_material",
			"pbrMetallicRoughness" : {
				"baseColorFactor" : [ 1, 1, 1, 1 ],
				"roughnessFactor" : 0.30000000000000004,
				"metallicFactor" : 0.5
			}
		}
	],
	"meshes" : [
		{
			"primitives" : [
				{
					"attributes" : {
						"NORMAL" : 1,
						"POSITION" : 0,
						"COLOR_0" : 2
					},
					"indices" : 3,
					"material" : 0,
					"mode" : 4
				}
			]
		}
	],
	"nodes" : [
		{
			"name" : "B334531617001063C0",
			"matrix" : [ 1, 0, 0, 0, 0, 0, -1, 0, 0, 1, 0, 0, 833454.3125, 26.031005859375, -816169.625, 1 ],
			"children" : [ 1 ]
		},
		{
			"mesh" : 0
		}
	],
	"scenes" : [
		{
			"nodes" : [ 0 ]
		}
	],
	"scene" : 0,
	"accessors" : [
		{
			"bufferView" : 0,
			"byteOffset" : 0,
			"componentType" : 5126,
			"count" : 90,
			"type" : "VEC3",
			"min" : [ -4.4453125, -4.4296875, 0 ],
			"max" : [ 4.4462890625, 4.4296875, 18.814002990722656 ]
		},
		{
			"bufferView" : 1,
			"byteOffset" : 0,
			"componentType" : 5126,
			"count" : 90,
			"type" : "VEC3",
			"min" : [ -0.7342488169670105, -0.7432460784912109, -1.84811360668391e-5 ],
			"max" : [ 0.7351706027984619, 0.7430772185325623, 1 ]
		},
		{
			"bufferView" : 2,
			"byteOffset" : 0,
			"componentType" : 5126,
			"count" : 90,
			"type" : "VEC3"
		},
		{
			"bufferView" : 3,
			"byteOffset" : 0,
			"componentType" : 5121,
			"count" : 90,
			"type" : "SCALAR",
			"min" : [ 0 ],
			"max" : [ 89 ]
		}
	],
	"bufferViews" : [
		{
			"buffer" : 0,
			"byteOffset" : 0,
			"byteLength" : 1080,
			"target" : 34962
		},
		{
			"buffer" : 0,
			"byteOffset" : 1080,
			"byteLength" : 1080,
			"target" : 34962
		},
		{
			"buffer" : 0,
			"byteOffset" : 2160,
			"byteLength" : 1080,
			"target" : 34962
		},
		{
			"buffer" : 0,
			"byteOffset" : 3240,
			"byteLength" : 90,
			"target" : 34963
		}
	],
	"buffers" : [
		{
			"uri" : "B334531617001063C0.bin",
			"byteLength" : 3330
		}
	]
}
