{
	"asset" : {
		"generator" : "FME 2023.1.0.0",
		"version" : "2.0"
	},
	"materials" : [
		{
			"name" : "default_material",
			"pbrMetallicRoughness" : {
				"baseColorFactor" : [ 1, 1, 1, 1 ],
				"roughnessFactor" : 0.30000000000000004,
				"metallicFactor" : 0.5
			}
		}
	],
	"meshes" : [
		{
			"primitives" : [
				{
					"attributes" : {
						"NORMAL" : 1,
						"POSITION" : 0,
						"COLOR_0" : 2
					},
					"indices" : 3,
					"material" : 0,
					"mode" : 4
				}
			]
		}
	],
	"nodes" : [
		{
			"name" : "B356531530301063C0",
			"matrix" : [ 1, 0, 0, 0, 0, 0, -1, 0, 0, 1, 0, 0, 835655.1875, 3.947000026702881, -815297.875, 1 ],
			"children" : [ 1 ]
		},
		{
			"mesh" : 0
		}
	],
	"scenes" : [
		{
			"nodes" : [ 0 ]
		}
	],
	"scene" : 0,
	"accessors" : [
		{
			"bufferView" : 0,
			"byteOffset" : 0,
			"componentType" : 5126,
			"count" : 516,
			"type" : "VEC3",
			"min" : [ -7.1572265625, -8.6015625, 0 ],
			"max" : [ 7.1572265625, 8.6025390625, 22.986000061035156 ]
		},
		{
			"bufferView" : 1,
			"byteOffset" : 0,
			"componentType" : 5126,
			"count" : 516,
			"type" : "VEC3",
			"min" : [ -0.8743565082550049, -0.8766254186630249, -1 ],
			"max" : [ 0.874713122844696, 0.8742749094963074, 1 ]
		},
		{
			"bufferView" : 2,
			"byteOffset" : 0,
			"componentType" : 5126,
			"count" : 516,
			"type" : "VEC3"
		},
		{
			"bufferView" : 3,
			"byteOffset" : 0,
			"componentType" : 5123,
			"count" : 516,
			"type" : "SCALAR",
			"min" : [ 0 ],
			"max" : [ 515 ]
		}
	],
	"bufferViews" : [
		{
			"buffer" : 0,
			"byteOffset" : 0,
			"byteLength" : 6192,
			"target" : 34962
		},
		{
			"buffer" : 0,
			"byteOffset" : 6192,
			"byteLength" : 6192,
			"target" : 34962
		},
		{
			"buffer" : 0,
			"byteOffset" : 12384,
			"byteLength" : 6192,
			"target" : 34962
		},
		{
			"buffer" : 0,
			"byteOffset" : 18576,
			"byteLength" : 1032,
			"target" : 34963
		}
	],
	"buffers" : [
		{
			"uri" : "B356531530301063C0.bin",
			"byteLength" : 19608
		}
	]
}
