{
	"asset" : {
		"generator" : "FME 2022.2.4.0",
		"version" : "2.0"
	},
	"materials" : [
		{
			"name" : "default_material",
			"pbrMetallicRoughness" : {
				"baseColorFactor" : [ 1, 1, 1, 1 ],
				"roughnessFactor" : 0.30000000000000004,
				"metallicFactor" : 0.5
			}
		}
	],
	"meshes" : [
		{
			"primitives" : [
				{
					"attributes" : {
						"NORMAL" : 1,
						"POSITION" : 0,
						"COLOR_0" : 2
					},
					"indices" : 3,
					"material" : 0,
					"mode" : 4
				}
			]
		}
	],
	"nodes" : [
		{
			"name" : "B336181599801063C0",
			"matrix" : [ 1, 0, 0, 0, 0, 0, -1, 0, 0, 1, 0, 0, 833616.0625, 57.011993408203125, -816000, 1 ],
			"children" : [ 1 ]
		},
		{
			"mesh" : 0
		}
	],
	"scenes" : [
		{
			"nodes" : [ 0 ]
		}
	],
	"scene" : 0,
	"accessors" : [
		{
			"bufferView" : 0,
			"byteOffset" : 0,
			"componentType" : 5126,
			"count" : 441,
			"type" : "VEC3",
			"min" : [ -5.01171875, -4.85546875, 0 ],
			"max" : [ 5.01171875, 4.85546875, 10.309593200683594 ]
		},
		{
			"bufferView" : 1,
			"byteOffset" : 0,
			"componentType" : 5126,
			"count" : 441,
			"type" : "VEC3",
			"min" : [ -0.7454515099525452, -0.7428079843521118, -0.040203023701906204 ],
			"max" : [ 0.7362154126167297, 0.7432101964950562, 1 ]
		},
		{
			"bufferView" : 2,
			"byteOffset" : 0,
			"componentType" : 5126,
			"count" : 441,
			"type" : "VEC3"
		},
		{
			"bufferView" : 3,
			"byteOffset" : 0,
			"componentType" : 5123,
			"count" : 441,
			"type" : "SCALAR",
			"min" : [ 0 ],
			"max" : [ 440 ]
		}
	],
	"bufferViews" : [
		{
			"buffer" : 0,
			"byteOffset" : 0,
			"byteLength" : 5292,
			"target" : 34962
		},
		{
			"buffer" : 0,
			"byteOffset" : 5292,
			"byteLength" : 5292,
			"target" : 34962
		},
		{
			"buffer" : 0,
			"byteOffset" : 10584,
			"byteLength" : 5292,
			"target" : 34962
		},
		{
			"buffer" : 0,
			"byteOffset" : 15876,
			"byteLength" : 882,
			"target" : 34963
		}
	],
	"buffers" : [
		{
			"uri" : "B336181599801063C0.bin",
			"byteLength" : 16758
		}
	]
}
