{
	"asset" : {
		"generator" : "FME 2023.1.0.0",
		"version" : "2.0"
	},
	"materials" : [
		{
			"name" : "default_material",
			"pbrMetallicRoughness" : {
				"baseColorFactor" : [ 1, 1, 1, 1 ],
				"roughnessFactor" : 0.30000000000000004,
				"metallicFactor" : 0.5
			}
		}
	],
	"meshes" : [
		{
			"primitives" : [
				{
					"attributes" : {
						"NORMAL" : 1,
						"POSITION" : 0,
						"COLOR_0" : 2
					},
					"indices" : 3,
					"material" : 0,
					"mode" : 4
				}
			]
		}
	],
	"nodes" : [
		{
			"name" : "B346511503601063C0",
			"matrix" : [ 1, 0, 0, 0, 0, 0, -1, 0, 0, 1, 0, 0, 834652.4375, 133.3820037841797, -815019.4375, 1 ],
			"children" : [ 1 ]
		},
		{
			"mesh" : 0
		}
	],
	"scenes" : [
		{
			"nodes" : [ 0 ]
		}
	],
	"scene" : 0,
	"accessors" : [
		{
			"bufferView" : 0,
			"byteOffset" : 0,
			"componentType" : 5126,
			"count" : 5862,
			"type" : "VEC3",
			"min" : [ -28.111328125, -23.40234375, 0 ],
			"max" : [ 28.111328125, 23.40234375, 30.707992553710938 ]
		},
		{
			"bufferView" : 1,
			"byteOffset" : 0,
			"componentType" : 5126,
			"count" : 5862,
			"type" : "VEC3",
			"min" : [ -0.9999961256980896, -0.999979555606842, -1 ],
			"max" : [ 0.999996542930603, 0.9999767541885376, 1 ]
		},
		{
			"bufferView" : 2,
			"byteOffset" : 0,
			"componentType" : 5126,
			"count" : 5862,
			"type" : "VEC3"
		},
		{
			"bufferView" : 3,
			"byteOffset" : 0,
			"componentType" : 5123,
			"count" : 5862,
			"type" : "SCALAR",
			"min" : [ 0 ],
			"max" : [ 5861 ]
		}
	],
	"bufferViews" : [
		{
			"buffer" : 0,
			"byteOffset" : 0,
			"byteLength" : 70344,
			"target" : 34962
		},
		{
			"buffer" : 0,
			"byteOffset" : 70344,
			"byteLength" : 70344,
			"target" : 34962
		},
		{
			"buffer" : 0,
			"byteOffset" : 140688,
			"byteLength" : 70344,
			"target" : 34962
		},
		{
			"buffer" : 0,
			"byteOffset" : 211032,
			"byteLength" : 11724,
			"target" : 34963
		}
	],
	"buffers" : [
		{
			"uri" : "B346511503601063C0.bin",
			"byteLength" : 222756
		}
	]
}
