{
	"asset" : {
		"generator" : "FME 2023.2.2.0",
		"version" : "2.0"
	},
	"images" : [
		{
			"uri" : "T34500186000106E13_001.jpg"
		}
	],
	"samplers" : [
		{
			"wrapS" : 10497,
			"wrapT" : 10497,
			"magFilter" : 9729,
			"minFilter" : 9986
		}
	],
	"textures" : [
		{
			"source" : 0,
			"sampler" : 0
		}
	],
	"materials" : [
		{
			"name" : "T34500186000106E13_001",
			"pbrMetallicRoughness" : {
				"baseColorTexture" : {
					"index" : 0,
					"texCoord" : 0
				},
				"roughnessFactor" : 0.984375,
				"metallicFactor" : 0.5
			}
		}
	],
	"meshes" : [
		{
			"primitives" : [
				{
					"attributes" : {
						"NORMAL" : 1,
						"POSITION" : 0,
						"TEXCOORD_0" : 2
					},
					"indices" : 3,
					"material" : 0,
					"mode" : 4
				}
			]
		}
	],
	"nodes" : [
		{
			"name" : "T34500186000106E13",
			"matrix" : [ 1, 0, 0, 0, 0, 0, -1, 0, 0, 1, 0, 0, 834875, -2.7592926025390625, -818900, 1 ],
			"children" : [ 1 ]
		},
		{
			"mesh" : 0
		}
	],
	"scenes" : [
		{
			"nodes" : [ 0 ]
		}
	],
	"scene" : 0,
	"accessors" : [
		{
			"bufferView" : 0,
			"byteOffset" : 0,
			"componentType" : 5126,
			"count" : 432327,
			"type" : "VEC3",
			"min" : [ -375, -300, 0 ],
			"max" : [ 375, 300, 14.768145561218262 ]
		},
		{
			"bufferView" : 1,
			"byteOffset" : 0,
			"componentType" : 5126,
			"count" : 432327,
			"type" : "VEC3",
			"min" : [ -1, -0.99859619140625, -0.9986739158630371 ],
			"max" : [ 1, 1, 1 ]
		},
		{
			"bufferView" : 2,
			"byteOffset" : 0,
			"componentType" : 5126,
			"count" : 432327,
			"type" : "VEC2",
			"min" : [ 0.0005324105150066316, 0.001496732234954834 ],
			"max" : [ 0.9988020658493042, 0.9993347525596619 ]
		},
		{
			"bufferView" : 3,
			"byteOffset" : 0,
			"componentType" : 5125,
			"count" : 432327,
			"type" : "SCALAR",
			"min" : [ 0 ],
			"max" : [ 432326 ]
		}
	],
	"bufferViews" : [
		{
			"buffer" : 0,
			"byteOffset" : 0,
			"byteLength" : 5187924,
			"target" : 34962
		},
		{
			"buffer" : 0,
			"byteOffset" : 5187924,
			"byteLength" : 5187924,
			"target" : 34962
		},
		{
			"buffer" : 0,
			"byteOffset" : 10375848,
			"byteLength" : 3458616,
			"target" : 34962
		},
		{
			"buffer" : 0,
			"byteOffset" : 13834464,
			"byteLength" : 1729308,
			"target" : 34963
		}
	],
	"buffers" : [
		{
			"uri" : "T34500186000106E13.bin",
			"byteLength" : 15563772
		}
	]
}
