{
	"asset" : {
		"generator" : "FME 2022.2.4.0",
		"version" : "2.0"
	},
	"materials" : [
		{
			"name" : "default_material",
			"pbrMetallicRoughness" : {
				"baseColorFactor" : [ 1, 1, 1, 1 ],
				"roughnessFactor" : 0.30000000000000004,
				"metallicFactor" : 0.5
			}
		}
	],
	"meshes" : [
		{
			"primitives" : [
				{
					"attributes" : {
						"NORMAL" : 1,
						"POSITION" : 0,
						"COLOR_0" : 2
					},
					"indices" : 3,
					"material" : 0,
					"mode" : 4
				}
			]
		}
	],
	"nodes" : [
		{
			"name" : "B330011653501063C0",
			"matrix" : [ 1, 0, 0, 0, 0, 0, -1, 0, 0, 1, 0, 0, 833000.9375, 3.220000982284546, -816529.3125, 1 ],
			"children" : [ 1 ]
		},
		{
			"mesh" : 0
		}
	],
	"scenes" : [
		{
			"nodes" : [ 0 ]
		}
	],
	"scene" : 0,
	"accessors" : [
		{
			"bufferView" : 0,
			"byteOffset" : 0,
			"componentType" : 5126,
			"count" : 306,
			"type" : "VEC3",
			"min" : [ -3.146484375, -10.357421875, 0 ],
			"max" : [ 3.146484375, 10.357421875, 22.874000549316406 ]
		},
		{
			"bufferView" : 1,
			"byteOffset" : 0,
			"componentType" : 5126,
			"count" : 306,
			"type" : "VEC3",
			"min" : [ -0.996461033821106, -0.9968153238296509, -1 ],
			"max" : [ 0.9964717030525208, 0.9975296258926392, 1 ]
		},
		{
			"bufferView" : 2,
			"byteOffset" : 0,
			"componentType" : 5126,
			"count" : 306,
			"type" : "VEC3"
		},
		{
			"bufferView" : 3,
			"byteOffset" : 0,
			"componentType" : 5123,
			"count" : 306,
			"type" : "SCALAR",
			"min" : [ 0 ],
			"max" : [ 305 ]
		}
	],
	"bufferViews" : [
		{
			"buffer" : 0,
			"byteOffset" : 0,
			"byteLength" : 3672,
			"target" : 34962
		},
		{
			"buffer" : 0,
			"byteOffset" : 3672,
			"byteLength" : 3672,
			"target" : 34962
		},
		{
			"buffer" : 0,
			"byteOffset" : 7344,
			"byteLength" : 3672,
			"target" : 34962
		},
		{
			"buffer" : 0,
			"byteOffset" : 11016,
			"byteLength" : 612,
			"target" : 34963
		}
	],
	"buffers" : [
		{
			"uri" : "B330011653501063C0.bin",
			"byteLength" : 11628
		}
	]
}
