{
	"asset" : {
		"generator" : "FME 2023.1.0.0",
		"version" : "2.0"
	},
	"materials" : [
		{
			"name" : "default_material",
			"pbrMetallicRoughness" : {
				"baseColorFactor" : [ 1, 1, 1, 1 ],
				"roughnessFactor" : 0.30000000000000004,
				"metallicFactor" : 0.5
			}
		}
	],
	"meshes" : [
		{
			"primitives" : [
				{
					"attributes" : {
						"NORMAL" : 1,
						"POSITION" : 0,
						"COLOR_0" : 2
					},
					"indices" : 3,
					"material" : 0,
					"mode" : 4
				}
			]
		}
	],
	"nodes" : [
		{
			"name" : "B357301527002063C0",
			"matrix" : [ 1, 0, 0, 0, 0, 0, -1, 0, 0, 1, 0, 0, 835739.5, 4.000999927520752, -815265.5, 1 ],
			"children" : [ 1 ]
		},
		{
			"mesh" : 0
		}
	],
	"scenes" : [
		{
			"nodes" : [ 0 ]
		}
	],
	"scene" : 0,
	"accessors" : [
		{
			"bufferView" : 0,
			"byteOffset" : 0,
			"componentType" : 5126,
			"count" : 306,
			"type" : "VEC3",
			"min" : [ -15.412109375, -9.3828125, 0 ],
			"max" : [ 15.412109375, 9.3828125, 16.600997924804688 ]
		},
		{
			"bufferView" : 1,
			"byteOffset" : 0,
			"componentType" : 5126,
			"count" : 306,
			"type" : "VEC3",
			"min" : [ -0.9676449298858643, -0.9944408535957336, -1 ],
			"max" : [ 0.9668378233909607, 0.9946050047874451, 1 ]
		},
		{
			"bufferView" : 2,
			"byteOffset" : 0,
			"componentType" : 5126,
			"count" : 306,
			"type" : "VEC3"
		},
		{
			"bufferView" : 3,
			"byteOffset" : 0,
			"componentType" : 5123,
			"count" : 306,
			"type" : "SCALAR",
			"min" : [ 0 ],
			"max" : [ 305 ]
		}
	],
	"bufferViews" : [
		{
			"buffer" : 0,
			"byteOffset" : 0,
			"byteLength" : 3672,
			"target" : 34962
		},
		{
			"buffer" : 0,
			"byteOffset" : 3672,
			"byteLength" : 3672,
			"target" : 34962
		},
		{
			"buffer" : 0,
			"byteOffset" : 7344,
			"byteLength" : 3672,
			"target" : 34962
		},
		{
			"buffer" : 0,
			"byteOffset" : 11016,
			"byteLength" : 612,
			"target" : 34963
		}
	],
	"buffers" : [
		{
			"uri" : "B357301527002063C0.bin",
			"byteLength" : 11628
		}
	]
}
