{
	"asset" : {
		"generator" : "FME 2022.2.4.0",
		"version" : "2.0"
	},
	"materials" : [
		{
			"name" : "default_material",
			"pbrMetallicRoughness" : {
				"baseColorFactor" : [ 1, 1, 1, 1 ],
				"roughnessFactor" : 0.30000000000000004,
				"metallicFactor" : 0.5
			}
		}
	],
	"meshes" : [
		{
			"primitives" : [
				{
					"attributes" : {
						"NORMAL" : 1,
						"POSITION" : 0,
						"COLOR_0" : 2
					},
					"indices" : 3,
					"material" : 0,
					"mode" : 4
				}
			]
		}
	],
	"nodes" : [
		{
			"name" : "B336481636501063C0",
			"matrix" : [ 1, 0, 0, 0, 0, 0, -1, 0, 0, 1, 0, 0, 833646.75, 2.868000030517578, -816363.6875, 1 ],
			"children" : [ 1 ]
		},
		{
			"mesh" : 0
		}
	],
	"scenes" : [
		{
			"nodes" : [ 0 ]
		}
	],
	"scene" : 0,
	"accessors" : [
		{
			"bufferView" : 0,
			"byteOffset" : 0,
			"componentType" : 5126,
			"count" : 369,
			"type" : "VEC3",
			"min" : [ -5.5166015625, -7.125, 0 ],
			"max" : [ 5.517578125, 7.125, 20.674999237060547 ]
		},
		{
			"bufferView" : 1,
			"byteOffset" : 0,
			"componentType" : 5126,
			"count" : 369,
			"type" : "VEC3",
			"min" : [ -0.9695250391960144, -0.9711663722991943, -0.0003602718352340162 ],
			"max" : [ 0.9694846868515015, 0.970287561416626, 1 ]
		},
		{
			"bufferView" : 2,
			"byteOffset" : 0,
			"componentType" : 5126,
			"count" : 369,
			"type" : "VEC3"
		},
		{
			"bufferView" : 3,
			"byteOffset" : 0,
			"componentType" : 5123,
			"count" : 369,
			"type" : "SCALAR",
			"min" : [ 0 ],
			"max" : [ 368 ]
		}
	],
	"bufferViews" : [
		{
			"buffer" : 0,
			"byteOffset" : 0,
			"byteLength" : 4428,
			"target" : 34962
		},
		{
			"buffer" : 0,
			"byteOffset" : 4428,
			"byteLength" : 4428,
			"target" : 34962
		},
		{
			"buffer" : 0,
			"byteOffset" : 8856,
			"byteLength" : 4428,
			"target" : 34962
		},
		{
			"buffer" : 0,
			"byteOffset" : 13284,
			"byteLength" : 738,
			"target" : 34963
		}
	],
	"buffers" : [
		{
			"uri" : "B336481636501063C0.bin",
			"byteLength" : 14022
		}
	]
}
