{
	"asset" : {
		"generator" : "FME 2023.1.0.0",
		"version" : "2.0"
	},
	"materials" : [
		{
			"name" : "default_material",
			"pbrMetallicRoughness" : {
				"baseColorFactor" : [ 1, 1, 1, 1 ],
				"roughnessFactor" : 0.30000000000000004,
				"metallicFactor" : 0.5
			}
		}
	],
	"meshes" : [
		{
			"primitives" : [
				{
					"attributes" : {
						"NORMAL" : 1,
						"POSITION" : 0,
						"COLOR_0" : 2
					},
					"indices" : 3,
					"material" : 0,
					"mode" : 4
				}
			]
		}
	],
	"nodes" : [
		{
			"name" : "B338281619301063C0",
			"matrix" : [ 1, 0, 0, 0, 0, 0, -1, 0, 0, 1, 0, 0, 833823.5, 11.763999938964844, -816191.6875, 1 ],
			"children" : [ 1 ]
		},
		{
			"mesh" : 0
		}
	],
	"scenes" : [
		{
			"nodes" : [ 0 ]
		}
	],
	"scene" : 0,
	"accessors" : [
		{
			"bufferView" : 0,
			"byteOffset" : 0,
			"componentType" : 5126,
			"count" : 546,
			"type" : "VEC3",
			"min" : [ -7.4072265625, -6.1865234375, 0 ],
			"max" : [ 7.408203125, 6.1865234375, 25.514999389648438 ]
		},
		{
			"bufferView" : 1,
			"byteOffset" : 0,
			"componentType" : 5126,
			"count" : 546,
			"type" : "VEC3",
			"min" : [ -0.8119207620620728, -1, -1 ],
			"max" : [ 0.8270689845085144, 0.8109720945358276, 1 ]
		},
		{
			"bufferView" : 2,
			"byteOffset" : 0,
			"componentType" : 5126,
			"count" : 546,
			"type" : "VEC3"
		},
		{
			"bufferView" : 3,
			"byteOffset" : 0,
			"componentType" : 5123,
			"count" : 546,
			"type" : "SCALAR",
			"min" : [ 0 ],
			"max" : [ 545 ]
		}
	],
	"bufferViews" : [
		{
			"buffer" : 0,
			"byteOffset" : 0,
			"byteLength" : 6552,
			"target" : 34962
		},
		{
			"buffer" : 0,
			"byteOffset" : 6552,
			"byteLength" : 6552,
			"target" : 34962
		},
		{
			"buffer" : 0,
			"byteOffset" : 13104,
			"byteLength" : 6552,
			"target" : 34962
		},
		{
			"buffer" : 0,
			"byteOffset" : 19656,
			"byteLength" : 1092,
			"target" : 34963
		}
	],
	"buffers" : [
		{
			"uri" : "B338281619301063C0.bin",
			"byteLength" : 20748
		}
	]
}
