{
	"asset" : {
		"generator" : "FME 2022.2.4.0",
		"version" : "2.0"
	},
	"materials" : [
		{
			"name" : "default_material",
			"pbrMetallicRoughness" : {
				"baseColorFactor" : [ 1, 1, 1, 1 ],
				"roughnessFactor" : 0.30000000000000004,
				"metallicFactor" : 0.5
			}
		}
	],
	"meshes" : [
		{
			"primitives" : [
				{
					"attributes" : {
						"NORMAL" : 1,
						"POSITION" : 0,
						"COLOR_0" : 2
					},
					"indices" : 3,
					"material" : 0,
					"mode" : 4
				}
			]
		}
	],
	"nodes" : [
		{
			"name" : "B359411522201063C0",
			"matrix" : [ 1, 0, 0, 0, 0, 0, -1, 0, 0, 1, 0, 0, 835948.625, 5.166999816894531, -815219.25, 1 ],
			"children" : [ 1 ]
		},
		{
			"mesh" : 0
		}
	],
	"scenes" : [
		{
			"nodes" : [ 0 ]
		}
	],
	"scene" : 0,
	"accessors" : [
		{
			"bufferView" : 0,
			"byteOffset" : 0,
			"componentType" : 5126,
			"count" : 726,
			"type" : "VEC3",
			"min" : [ -8.4404296875, -5.2109375, 0 ],
			"max" : [ 8.439453125, 5.2109375, 23.32200050354004 ]
		},
		{
			"bufferView" : 1,
			"byteOffset" : 0,
			"componentType" : 5126,
			"count" : 726,
			"type" : "VEC3",
			"min" : [ -0.9960076808929443, -0.9973127841949463, -1 ],
			"max" : [ 0.997458815574646, 0.9959533214569092, 1 ]
		},
		{
			"bufferView" : 2,
			"byteOffset" : 0,
			"componentType" : 5126,
			"count" : 726,
			"type" : "VEC3"
		},
		{
			"bufferView" : 3,
			"byteOffset" : 0,
			"componentType" : 5123,
			"count" : 726,
			"type" : "SCALAR",
			"min" : [ 0 ],
			"max" : [ 725 ]
		}
	],
	"bufferViews" : [
		{
			"buffer" : 0,
			"byteOffset" : 0,
			"byteLength" : 8712,
			"target" : 34962
		},
		{
			"buffer" : 0,
			"byteOffset" : 8712,
			"byteLength" : 8712,
			"target" : 34962
		},
		{
			"buffer" : 0,
			"byteOffset" : 17424,
			"byteLength" : 8712,
			"target" : 34962
		},
		{
			"buffer" : 0,
			"byteOffset" : 26136,
			"byteLength" : 1452,
			"target" : 34963
		}
	],
	"buffers" : [
		{
			"uri" : "B359411522201063C0.bin",
			"byteLength" : 27588
		}
	]
}
