{
	"asset" : {
		"generator" : "FME 2023.2.1.0",
		"version" : "2.0"
	},
	"materials" : [
		{
			"name" : "default_material",
			"pbrMetallicRoughness" : {
				"baseColorFactor" : [ 1, 1, 1, 1 ],
				"roughnessFactor" : 0.30000000000000004,
				"metallicFactor" : 0.5
			}
		}
	],
	"meshes" : [
		{
			"primitives" : [
				{
					"attributes" : {
						"NORMAL" : 1,
						"POSITION" : 0,
						"COLOR_0" : 2
					},
					"indices" : 3,
					"material" : 0,
					"mode" : 4
				}
			]
		}
	],
	"nodes" : [
		{
			"name" : "B356451525701063C0",
			"matrix" : [ 1, 0, 0, 0, 0, 0, -1, 0, 0, 1, 0, 0, 835644.75, 16.07200050354004, -815258.0625, 1 ],
			"children" : [ 1 ]
		},
		{
			"mesh" : 0
		}
	],
	"scenes" : [
		{
			"nodes" : [ 0 ]
		}
	],
	"scene" : 0,
	"accessors" : [
		{
			"bufferView" : 0,
			"byteOffset" : 0,
			"componentType" : 5126,
			"count" : 1233,
			"type" : "VEC3",
			"min" : [ -6.6005859375, -7.447265625, 0 ],
			"max" : [ 6.6005859375, 7.447265625, 78.49800109863281 ]
		},
		{
			"bufferView" : 1,
			"byteOffset" : 0,
			"componentType" : 5126,
			"count" : 1233,
			"type" : "VEC3",
			"min" : [ -0.999415397644043, -0.9993920922279358, -1 ],
			"max" : [ 0.997847855091095, 0.9993987679481506, 1 ]
		},
		{
			"bufferView" : 2,
			"byteOffset" : 0,
			"componentType" : 5126,
			"count" : 1233,
			"type" : "VEC3"
		},
		{
			"bufferView" : 3,
			"byteOffset" : 0,
			"componentType" : 5123,
			"count" : 1233,
			"type" : "SCALAR",
			"min" : [ 0 ],
			"max" : [ 1232 ]
		}
	],
	"bufferViews" : [
		{
			"buffer" : 0,
			"byteOffset" : 0,
			"byteLength" : 14796,
			"target" : 34962
		},
		{
			"buffer" : 0,
			"byteOffset" : 14796,
			"byteLength" : 14796,
			"target" : 34962
		},
		{
			"buffer" : 0,
			"byteOffset" : 29592,
			"byteLength" : 14796,
			"target" : 34962
		},
		{
			"buffer" : 0,
			"byteOffset" : 44388,
			"byteLength" : 2466,
			"target" : 34963
		}
	],
	"buffers" : [
		{
			"uri" : "B356451525701063C0.bin",
			"byteLength" : 46854
		}
	]
}
