{
	"asset" : {
		"generator" : "FME 2023.1.0.0",
		"version" : "2.0"
	},
	"materials" : [
		{
			"name" : "default_material",
			"pbrMetallicRoughness" : {
				"baseColorFactor" : [ 1, 1, 1, 1 ],
				"roughnessFactor" : 0.30000000000000004,
				"metallicFactor" : 0.5
			}
		}
	],
	"meshes" : [
		{
			"primitives" : [
				{
					"attributes" : {
						"NORMAL" : 1,
						"POSITION" : 0,
						"COLOR_0" : 2
					},
					"indices" : 3,
					"material" : 0,
					"mode" : 4
				}
			]
		}
	],
	"nodes" : [
		{
			"name" : "B333211657101063C0",
			"matrix" : [ 1, 0, 0, 0, 0, 0, -1, 0, 0, 1, 0, 0, 833320.4375, 2.90000581741333, -816558.1875, 1 ],
			"children" : [ 1 ]
		},
		{
			"mesh" : 0
		}
	],
	"scenes" : [
		{
			"nodes" : [ 0 ]
		}
	],
	"scene" : 0,
	"accessors" : [
		{
			"bufferView" : 0,
			"byteOffset" : 0,
			"componentType" : 5126,
			"count" : 2511,
			"type" : "VEC3",
			"min" : [ -11.01171875, -16.984375, 0 ],
			"max" : [ 11.0107421875, 16.984375, 56.41699981689453 ]
		},
		{
			"bufferView" : 1,
			"byteOffset" : 0,
			"componentType" : 5126,
			"count" : 2511,
			"type" : "VEC3",
			"min" : [ -0.9785565733909607, -0.9699376821517944, -1 ],
			"max" : [ 0.9953479170799255, 0.9909669756889343, 1 ]
		},
		{
			"bufferView" : 2,
			"byteOffset" : 0,
			"componentType" : 5126,
			"count" : 2511,
			"type" : "VEC3"
		},
		{
			"bufferView" : 3,
			"byteOffset" : 0,
			"componentType" : 5123,
			"count" : 2511,
			"type" : "SCALAR",
			"min" : [ 0 ],
			"max" : [ 2510 ]
		}
	],
	"bufferViews" : [
		{
			"buffer" : 0,
			"byteOffset" : 0,
			"byteLength" : 30132,
			"target" : 34962
		},
		{
			"buffer" : 0,
			"byteOffset" : 30132,
			"byteLength" : 30132,
			"target" : 34962
		},
		{
			"buffer" : 0,
			"byteOffset" : 60264,
			"byteLength" : 30132,
			"target" : 34962
		},
		{
			"buffer" : 0,
			"byteOffset" : 90396,
			"byteLength" : 5022,
			"target" : 34963
		}
	],
	"buffers" : [
		{
			"uri" : "B333211657101063C0.bin",
			"byteLength" : 95418
		}
	]
}
