{"asset":{"generator":"FME 2022.2.4.0","version":"2.0"},"materials":[{"name":"T24000228000106E11","pbrMetallicRoughness":{"roughnessFactor":0.984375,"metallicFactor":0.5}}],"meshes":[{"primitives":[{"attributes":{"NORMAL":1,"POSITION":0,"TEXCOORD_0":2},"indices":3,"material":0,"mode":4}]}],"nodes":[{"name":"T24000228000106E11","matrix":[1,0,0,0,0,0,-1,0,0,1,0,0,824375,-2.7552108764648438,-823100,1],"children":[1]},{"mesh":0}],"scenes":[{"nodes":[0]}],"scene":0,"accessors":[{"bufferView":0,"byteOffset":0,"componentType":5126,"count":70377,"type":"VEC3","min":[-375,-300,0],"max":[375,300,71.85400390625]},{"bufferView":1,"byteOffset":0,"componentType":5126,"count":70377,"type":"VEC3","min":[-0.9940463304519653,-0.9999960064888,-1],"max":[0.9992893934249878,0.9997026920318604,1]},{"bufferView":2,"byteOffset":0,"componentType":5126,"count":70377,"type":"VEC2","min":[0.00013318657875061035,0.00016647577285766602],"max":[0.9998668432235718,0.9998335242271423]},{"bufferView":3,"byteOffset":0,"componentType":5125,"count":70377,"type":"SCALAR","min":[0],"max":[70376]}],"bufferViews":[{"buffer":0,"byteOffset":0,"byteLength":844524,"target":34962},{"buffer":0,"byteOffset":844524,"byteLength":844524,"target":34962},{"buffer":0,"byteOffset":1689048,"byteLength":563016,"target":34962},{"buffer":0,"byteOffset":2252064,"byteLength":281508,"target":34963}],"buffers":[{"uri":"T24000228000106E11.bin","byteLength":2533572}]}