{
	"asset" : {
		"generator" : "FME 2023.1.0.0",
		"version" : "2.0"
	},
	"images" : [
		{
			"uri" : "T33750210000106E14_001.jpg"
		}
	],
	"samplers" : [
		{
			"wrapS" : 10497,
			"wrapT" : 10497,
			"magFilter" : 9729,
			"minFilter" : 9986
		}
	],
	"textures" : [
		{
			"source" : 0,
			"sampler" : 0
		}
	],
	"materials" : [
		{
			"name" : "T33750210000106E14",
			"pbrMetallicRoughness" : {
				"baseColorTexture" : {
					"index" : 0,
					"texCoord" : 0
				},
				"roughnessFactor" : 0.984375,
				"metallicFactor" : 0.5
			}
		}
	],
	"meshes" : [
		{
			"primitives" : [
				{
					"attributes" : {
						"NORMAL" : 1,
						"POSITION" : 0,
						"TEXCOORD_0" : 2
					},
					"indices" : 3,
					"material" : 0,
					"mode" : 4
				}
			]
		}
	],
	"nodes" : [
		{
			"name" : "T33750210000106E14",
			"matrix" : [ 1, 0, 0, 0, 0, 0, -1, 0, 0, 1, 0, 0, 834125, 0.15258407592773438, -821299.9375, 1 ],
			"children" : [ 1 ]
		},
		{
			"mesh" : 0
		}
	],
	"scenes" : [
		{
			"nodes" : [ 0 ]
		}
	],
	"scene" : 0,
	"accessors" : [
		{
			"bufferView" : 0,
			"byteOffset" : 0,
			"componentType" : 5126,
			"count" : 166683,
			"type" : "VEC3",
			"min" : [ -375, -300.0634765625, 0 ],
			"max" : [ 375.0009765625, 300.0625, 8.897615432739258 ]
		},
		{
			"bufferView" : 1,
			"byteOffset" : 0,
			"componentType" : 5126,
			"count" : 166683,
			"type" : "VEC3",
			"min" : [ -0.9947810769081116, -0.9868631958961487, -0.9999873638153076 ],
			"max" : [ 0.9647147059440613, 0.9493609070777893, 1 ]
		},
		{
			"bufferView" : 2,
			"byteOffset" : 0,
			"componentType" : 5126,
			"count" : 166683,
			"type" : "VEC2",
			"min" : [ 0.0005324105150066316, -1.4543533325195312e-5 ],
			"max" : [ 0.9999790191650391, 0.9993347525596619 ]
		},
		{
			"bufferView" : 3,
			"byteOffset" : 0,
			"componentType" : 5125,
			"count" : 166683,
			"type" : "SCALAR",
			"min" : [ 0 ],
			"max" : [ 166682 ]
		}
	],
	"bufferViews" : [
		{
			"buffer" : 0,
			"byteOffset" : 0,
			"byteLength" : 2000196,
			"target" : 34962
		},
		{
			"buffer" : 0,
			"byteOffset" : 2000196,
			"byteLength" : 2000196,
			"target" : 34962
		},
		{
			"buffer" : 0,
			"byteOffset" : 4000392,
			"byteLength" : 1333464,
			"target" : 34962
		},
		{
			"buffer" : 0,
			"byteOffset" : 5333856,
			"byteLength" : 666732,
			"target" : 34963
		}
	],
	"buffers" : [
		{
			"uri" : "T33750210000106E14.bin",
			"byteLength" : 6000588
		}
	]
}
