{
	"asset" : {
		"generator" : "FME 2022.2.4.0",
		"version" : "2.0"
	},
	"materials" : [
		{
			"name" : "default_material",
			"pbrMetallicRoughness" : {
				"baseColorFactor" : [ 1, 1, 1, 1 ],
				"roughnessFactor" : 0.30000000000000004,
				"metallicFactor" : 0.5
			}
		}
	],
	"meshes" : [
		{
			"primitives" : [
				{
					"attributes" : {
						"NORMAL" : 1,
						"POSITION" : 0,
						"COLOR_0" : 2
					},
					"indices" : 3,
					"material" : 0,
					"mode" : 4
				}
			]
		}
	],
	"nodes" : [
		{
			"name" : "B336671567401063C0",
			"matrix" : [ 1, 0, 0, 0, 0, 0, -1, 0, 0, 1, 0, 0, 833666.6875, 97.74500274658203, -815671.125, 1 ],
			"children" : [ 1 ]
		},
		{
			"mesh" : 0
		}
	],
	"scenes" : [
		{
			"nodes" : [ 0 ]
		}
	],
	"scene" : 0,
	"accessors" : [
		{
			"bufferView" : 0,
			"byteOffset" : 0,
			"componentType" : 5126,
			"count" : 507,
			"type" : "VEC3",
			"min" : [ -4.9541015625, -5.13671875, 0 ],
			"max" : [ 4.955078125, 5.13671875, 20.712997436523438 ]
		},
		{
			"bufferView" : 1,
			"byteOffset" : 0,
			"componentType" : 5126,
			"count" : 507,
			"type" : "VEC3",
			"min" : [ -0.7395640015602112, -0.7388095855712891, -1 ],
			"max" : [ 0.7442423105239868, 0.7394115924835205, 1 ]
		},
		{
			"bufferView" : 2,
			"byteOffset" : 0,
			"componentType" : 5126,
			"count" : 507,
			"type" : "VEC3"
		},
		{
			"bufferView" : 3,
			"byteOffset" : 0,
			"componentType" : 5123,
			"count" : 507,
			"type" : "SCALAR",
			"min" : [ 0 ],
			"max" : [ 506 ]
		}
	],
	"bufferViews" : [
		{
			"buffer" : 0,
			"byteOffset" : 0,
			"byteLength" : 6084,
			"target" : 34962
		},
		{
			"buffer" : 0,
			"byteOffset" : 6084,
			"byteLength" : 6084,
			"target" : 34962
		},
		{
			"buffer" : 0,
			"byteOffset" : 12168,
			"byteLength" : 6084,
			"target" : 34962
		},
		{
			"buffer" : 0,
			"byteOffset" : 18252,
			"byteLength" : 1014,
			"target" : 34963
		}
	],
	"buffers" : [
		{
			"uri" : "B336671567401063C0.bin",
			"byteLength" : 19266
		}
	]
}
