{
	"asset" : {
		"generator" : "FME 2023.2.1.0",
		"version" : "2.0"
	},
	"materials" : [
		{
			"name" : "default_material",
			"pbrMetallicRoughness" : {
				"baseColorFactor" : [ 1, 1, 1, 1 ],
				"roughnessFactor" : 0.30000000000000004,
				"metallicFactor" : 0.5
			}
		}
	],
	"meshes" : [
		{
			"primitives" : [
				{
					"attributes" : {
						"NORMAL" : 1,
						"POSITION" : 0,
						"COLOR_0" : 2
					},
					"indices" : 3,
					"material" : 0,
					"mode" : 4
				}
			]
		}
	],
	"nodes" : [
		{
			"name" : "B357101523301063C0",
			"matrix" : [ 1, 0, 0, 0, 0, 0, -1, 0, 0, 1, 0, 0, 835712.75, 4.25600004196167, -815232.1875, 1 ],
			"children" : [ 1 ]
		},
		{
			"mesh" : 0
		}
	],
	"scenes" : [
		{
			"nodes" : [ 0 ]
		}
	],
	"scene" : 0,
	"accessors" : [
		{
			"bufferView" : 0,
			"byteOffset" : 0,
			"componentType" : 5126,
			"count" : 465,
			"type" : "VEC3",
			"min" : [ -6.591796875, -5.2431640625, 0 ],
			"max" : [ 6.5908203125, 5.244140625, 22.61199951171875 ]
		},
		{
			"bufferView" : 1,
			"byteOffset" : 0,
			"componentType" : 5126,
			"count" : 465,
			"type" : "VEC3",
			"min" : [ -0.8670615553855896, -0.8668209314346313, -1 ],
			"max" : [ 0.8669063448905945, 0.8671055436134338, 1 ]
		},
		{
			"bufferView" : 2,
			"byteOffset" : 0,
			"componentType" : 5126,
			"count" : 465,
			"type" : "VEC3"
		},
		{
			"bufferView" : 3,
			"byteOffset" : 0,
			"componentType" : 5123,
			"count" : 465,
			"type" : "SCALAR",
			"min" : [ 0 ],
			"max" : [ 464 ]
		}
	],
	"bufferViews" : [
		{
			"buffer" : 0,
			"byteOffset" : 0,
			"byteLength" : 5580,
			"target" : 34962
		},
		{
			"buffer" : 0,
			"byteOffset" : 5580,
			"byteLength" : 5580,
			"target" : 34962
		},
		{
			"buffer" : 0,
			"byteOffset" : 11160,
			"byteLength" : 5580,
			"target" : 34962
		},
		{
			"buffer" : 0,
			"byteOffset" : 16740,
			"byteLength" : 930,
			"target" : 34963
		}
	],
	"buffers" : [
		{
			"uri" : "B357101523301063C0.bin",
			"byteLength" : 17670
		}
	]
}
