{
	"asset" : {
		"generator" : "FME 2023.1.0.0",
		"version" : "2.0"
	},
	"materials" : [
		{
			"name" : "default_material",
			"pbrMetallicRoughness" : {
				"baseColorFactor" : [ 1, 1, 1, 1 ],
				"roughnessFactor" : 0.30000000000000004,
				"metallicFactor" : 0.5
			}
		}
	],
	"meshes" : [
		{
			"primitives" : [
				{
					"attributes" : {
						"NORMAL" : 1,
						"POSITION" : 0,
						"COLOR_0" : 2
					},
					"indices" : 3,
					"material" : 0,
					"mode" : 4
				}
			]
		}
	],
	"nodes" : [
		{
			"name" : "B350401544001063C0",
			"matrix" : [ 1, 0, 0, 0, 0, 0, -1, 0, 0, 1, 0, 0, 835039.75, 21.33799934387207, -815438.5625, 1 ],
			"children" : [ 1 ]
		},
		{
			"mesh" : 0
		}
	],
	"scenes" : [
		{
			"nodes" : [ 0 ]
		}
	],
	"scene" : 0,
	"accessors" : [
		{
			"bufferView" : 0,
			"byteOffset" : 0,
			"componentType" : 5126,
			"count" : 7554,
			"type" : "VEC3",
			"min" : [ -10.8369140625, -17.76953125, 0 ],
			"max" : [ 10.837890625, 17.7705078125, 7.52400016784668 ]
		},
		{
			"bufferView" : 1,
			"byteOffset" : 0,
			"componentType" : 5126,
			"count" : 7554,
			"type" : "VEC3",
			"min" : [ -0.9999644160270691, -0.9999691247940063, -1 ],
			"max" : [ 0.9999129176139832, 0.9999608397483826, 1 ]
		},
		{
			"bufferView" : 2,
			"byteOffset" : 0,
			"componentType" : 5126,
			"count" : 7554,
			"type" : "VEC3"
		},
		{
			"bufferView" : 3,
			"byteOffset" : 0,
			"componentType" : 5123,
			"count" : 7554,
			"type" : "SCALAR",
			"min" : [ 0 ],
			"max" : [ 7553 ]
		}
	],
	"bufferViews" : [
		{
			"buffer" : 0,
			"byteOffset" : 0,
			"byteLength" : 90648,
			"target" : 34962
		},
		{
			"buffer" : 0,
			"byteOffset" : 90648,
			"byteLength" : 90648,
			"target" : 34962
		},
		{
			"buffer" : 0,
			"byteOffset" : 181296,
			"byteLength" : 90648,
			"target" : 34962
		},
		{
			"buffer" : 0,
			"byteOffset" : 271944,
			"byteLength" : 15108,
			"target" : 34963
		}
	],
	"buffers" : [
		{
			"uri" : "B350401544001063C0.bin",
			"byteLength" : 287052
		}
	]
}
