{
	"asset" : {
		"generator" : "FME 2023.1.0.0",
		"version" : "2.0"
	},
	"materials" : [
		{
			"name" : "default_material",
			"pbrMetallicRoughness" : {
				"baseColorFactor" : [ 1, 1, 1, 1 ],
				"roughnessFactor" : 0.30000000000000004,
				"metallicFactor" : 0.5
			}
		}
	],
	"meshes" : [
		{
			"primitives" : [
				{
					"attributes" : {
						"NORMAL" : 1,
						"POSITION" : 0,
						"COLOR_0" : 2
					},
					"indices" : 3,
					"material" : 0,
					"mode" : 4
				}
			]
		}
	],
	"nodes" : [
		{
			"name" : "B336971598001063C0",
			"matrix" : [ 1, 0, 0, 0, 0, 0, -1, 0, 0, 1, 0, 0, 833697.1875, 51.01800537109375, -815975.875, 1 ],
			"children" : [ 1 ]
		},
		{
			"mesh" : 0
		}
	],
	"scenes" : [
		{
			"nodes" : [ 0 ]
		}
	],
	"scene" : 0,
	"accessors" : [
		{
			"bufferView" : 0,
			"byteOffset" : 0,
			"componentType" : 5126,
			"count" : 510,
			"type" : "VEC3",
			"min" : [ -6.9462890625, -7.087890625, 0 ],
			"max" : [ 6.9453125, 7.087890625, 19.753997802734375 ]
		},
		{
			"bufferView" : 1,
			"byteOffset" : 0,
			"componentType" : 5126,
			"count" : 510,
			"type" : "VEC3",
			"min" : [ -0.7196766138076782, -0.7153761386871338, -0.0004020360065624118 ],
			"max" : [ 0.7197431921958923, 0.715569794178009, 1 ]
		},
		{
			"bufferView" : 2,
			"byteOffset" : 0,
			"componentType" : 5126,
			"count" : 510,
			"type" : "VEC3"
		},
		{
			"bufferView" : 3,
			"byteOffset" : 0,
			"componentType" : 5123,
			"count" : 510,
			"type" : "SCALAR",
			"min" : [ 0 ],
			"max" : [ 509 ]
		}
	],
	"bufferViews" : [
		{
			"buffer" : 0,
			"byteOffset" : 0,
			"byteLength" : 6120,
			"target" : 34962
		},
		{
			"buffer" : 0,
			"byteOffset" : 6120,
			"byteLength" : 6120,
			"target" : 34962
		},
		{
			"buffer" : 0,
			"byteOffset" : 12240,
			"byteLength" : 6120,
			"target" : 34962
		},
		{
			"buffer" : 0,
			"byteOffset" : 18360,
			"byteLength" : 1020,
			"target" : 34963
		}
	],
	"buffers" : [
		{
			"uri" : "B336971598001063C0.bin",
			"byteLength" : 19380
		}
	]
}
