{"asset":{"generator":"FME 2023.2.1.0","version":"2.0"},"materials":[{"name":"T19500150000106E10","pbrMetallicRoughness":{"roughnessFactor":0.984375,"metallicFactor":0.5}}],"meshes":[{"primitives":[{"attributes":{"NORMAL":1,"POSITION":0,"TEXCOORD_0":2},"indices":3,"material":0,"mode":4}]}],"nodes":[{"name":"T19500150000106E10","matrix":[1,0,0,0,0,0,-1,0,0,1,0,0,819875,2.6240005493164062,-815300,1],"children":[1]},{"mesh":0}],"scenes":[{"nodes":[0]}],"scene":0,"accessors":[{"bufferView":0,"byteOffset":0,"componentType":5126,"count":237135,"type":"VEC3","min":[-375,-300,0],"max":[375,300,228.42001342773438]},{"bufferView":1,"byteOffset":0,"componentType":5126,"count":237135,"type":"VEC3","min":[-0.63145911693573,-0.9152476787567139,0.3885388970375061],"max":[0.7808252573013306,0.8194881677627563,0.9999982714653015]},{"bufferView":2,"byteOffset":0,"componentType":5126,"count":237135,"type":"VEC2","min":[0.00013000000035390258,0.00016999244689941406],"max":[0.9998700022697449,0.9998300075531006]},{"bufferView":3,"byteOffset":0,"componentType":5125,"count":237135,"type":"SCALAR","min":[0],"max":[237134]}],"bufferViews":[{"buffer":0,"byteOffset":0,"byteLength":2845620,"target":34962},{"buffer":0,"byteOffset":2845620,"byteLength":2845620,"target":34962},{"buffer":0,"byteOffset":5691240,"byteLength":1897080,"target":34962},{"buffer":0,"byteOffset":7588320,"byteLength":948540,"target":34963}],"buffers":[{"uri":"T19500150000106E10.bin","byteLength":8536860}]}