{
	"asset" : {
		"generator" : "FME 2023.2.1.0",
		"version" : "2.0"
	},
	"materials" : [
		{
			"name" : "default_material",
			"pbrMetallicRoughness" : {
				"baseColorFactor" : [ 1, 1, 1, 1 ],
				"roughnessFactor" : 0.30000000000000004,
				"metallicFactor" : 0.5
			}
		}
	],
	"meshes" : [
		{
			"primitives" : [
				{
					"attributes" : {
						"NORMAL" : 1,
						"POSITION" : 0,
						"COLOR_0" : 2
					},
					"indices" : 3,
					"material" : 0,
					"mode" : 4
				}
			]
		}
	],
	"nodes" : [
		{
			"name" : "B336391565301063C0",
			"matrix" : [ 1, 0, 0, 0, 0, 0, -1, 0, 0, 1, 0, 0, 833637.4375, 109.95999908447266, -815650.875, 1 ],
			"children" : [ 1 ]
		},
		{
			"mesh" : 0
		}
	],
	"scenes" : [
		{
			"nodes" : [ 0 ]
		}
	],
	"scene" : 0,
	"accessors" : [
		{
			"bufferView" : 0,
			"byteOffset" : 0,
			"componentType" : 5126,
			"count" : 732,
			"type" : "VEC3",
			"min" : [ -8.021484375, -7.814453125, 0 ],
			"max" : [ 8.0224609375, 7.814453125, 74.28099822998047 ]
		},
		{
			"bufferView" : 1,
			"byteOffset" : 0,
			"componentType" : 5126,
			"count" : 732,
			"type" : "VEC3",
			"min" : [ -0.7249994874000549, -0.7276744842529297, -1 ],
			"max" : [ 0.7236818671226501, 0.7273936867713928, 1 ]
		},
		{
			"bufferView" : 2,
			"byteOffset" : 0,
			"componentType" : 5126,
			"count" : 732,
			"type" : "VEC3"
		},
		{
			"bufferView" : 3,
			"byteOffset" : 0,
			"componentType" : 5123,
			"count" : 732,
			"type" : "SCALAR",
			"min" : [ 0 ],
			"max" : [ 731 ]
		}
	],
	"bufferViews" : [
		{
			"buffer" : 0,
			"byteOffset" : 0,
			"byteLength" : 8784,
			"target" : 34962
		},
		{
			"buffer" : 0,
			"byteOffset" : 8784,
			"byteLength" : 8784,
			"target" : 34962
		},
		{
			"buffer" : 0,
			"byteOffset" : 17568,
			"byteLength" : 8784,
			"target" : 34962
		},
		{
			"buffer" : 0,
			"byteOffset" : 26352,
			"byteLength" : 1464,
			"target" : 34963
		}
	],
	"buffers" : [
		{
			"uri" : "B336391565301063C0.bin",
			"byteLength" : 27816
		}
	]
}
