{
	"asset" : {
		"generator" : "FME 2023.1.0.0",
		"version" : "2.0"
	},
	"materials" : [
		{
			"name" : "default_material",
			"pbrMetallicRoughness" : {
				"baseColorFactor" : [ 1, 1, 1, 1 ],
				"roughnessFactor" : 0.30000000000000004,
				"metallicFactor" : 0.5
			}
		}
	],
	"meshes" : [
		{
			"primitives" : [
				{
					"attributes" : {
						"NORMAL" : 1,
						"POSITION" : 0,
						"COLOR_0" : 2
					},
					"indices" : 3,
					"material" : 0,
					"mode" : 4
				}
			]
		}
	],
	"nodes" : [
		{
			"name" : "B332581500801063C0",
			"matrix" : [ 1, 0, 0, 0, 0, 0, -1, 0, 0, 1, 0, 0, 833261.375, 452.7359924316406, -815001.125, 1 ],
			"children" : [ 1 ]
		},
		{
			"mesh" : 0
		}
	],
	"scenes" : [
		{
			"nodes" : [ 0 ]
		}
	],
	"scene" : 0,
	"accessors" : [
		{
			"bufferView" : 0,
			"byteOffset" : 0,
			"componentType" : 5126,
			"count" : 1581,
			"type" : "VEC3",
			"min" : [ -19.6640625, -14.001953125, 0 ],
			"max" : [ 19.671875, 13.912109375, 11.34100341796875 ]
		},
		{
			"bufferView" : 1,
			"byteOffset" : 0,
			"componentType" : 5126,
			"count" : 1581,
			"type" : "VEC3",
			"min" : [ -0.9517630934715271, -0.9508084058761597, -1 ],
			"max" : [ 0.9507299065589905, 0.9883202910423279, 1 ]
		},
		{
			"bufferView" : 2,
			"byteOffset" : 0,
			"componentType" : 5126,
			"count" : 1581,
			"type" : "VEC3"
		},
		{
			"bufferView" : 3,
			"byteOffset" : 0,
			"componentType" : 5123,
			"count" : 1581,
			"type" : "SCALAR",
			"min" : [ 0 ],
			"max" : [ 1580 ]
		}
	],
	"bufferViews" : [
		{
			"buffer" : 0,
			"byteOffset" : 0,
			"byteLength" : 18972,
			"target" : 34962
		},
		{
			"buffer" : 0,
			"byteOffset" : 18972,
			"byteLength" : 18972,
			"target" : 34962
		},
		{
			"buffer" : 0,
			"byteOffset" : 37944,
			"byteLength" : 18972,
			"target" : 34962
		},
		{
			"buffer" : 0,
			"byteOffset" : 56916,
			"byteLength" : 3162,
			"target" : 34963
		}
	],
	"buffers" : [
		{
			"uri" : "B332581500801063C0.bin",
			"byteLength" : 60078
		}
	]
}
