{
	"asset" : {
		"generator" : "FME 2023.2.2.0",
		"version" : "2.0"
	},
	"materials" : [
		{
			"name" : "default_material",
			"pbrMetallicRoughness" : {
				"baseColorFactor" : [ 1, 1, 1, 1 ],
				"roughnessFactor" : 0.30000000000000004,
				"metallicFactor" : 0.5
			}
		}
	],
	"meshes" : [
		{
			"primitives" : [
				{
					"attributes" : {
						"NORMAL" : 1,
						"POSITION" : 0,
						"COLOR_0" : 2
					},
					"indices" : 3,
					"material" : 0,
					"mode" : 4
				}
			]
		}
	],
	"nodes" : [
		{
			"name" : "B170041471101062G0",
			"matrix" : [ 1, 0, 0, 0, 0, 0, -1, 0, 0, 1, 0, 0, 817003.5, 19.36590003967285, -814710.6875, 1 ],
			"children" : [ 1 ]
		},
		{
			"mesh" : 0
		}
	],
	"scenes" : [
		{
			"nodes" : [ 0 ]
		}
	],
	"scene" : 0,
	"accessors" : [
		{
			"bufferView" : 0,
			"byteOffset" : 0,
			"componentType" : 5126,
			"count" : 33,
			"type" : "VEC3",
			"min" : [ -5.375, -5.125, 0 ],
			"max" : [ 5.375, 5.125, 10.238899230957031 ]
		},
		{
			"bufferView" : 1,
			"byteOffset" : 0,
			"componentType" : 5126,
			"count" : 33,
			"type" : "VEC3",
			"min" : [ -0.7705281972885132, -0.7707027792930603, 0 ],
			"max" : [ 0.7707887887954712, 0.7554697394371033, 1 ]
		},
		{
			"bufferView" : 2,
			"byteOffset" : 0,
			"componentType" : 5126,
			"count" : 33,
			"type" : "VEC3"
		},
		{
			"bufferView" : 3,
			"byteOffset" : 0,
			"componentType" : 5121,
			"count" : 33,
			"type" : "SCALAR",
			"min" : [ 0 ],
			"max" : [ 32 ]
		}
	],
	"bufferViews" : [
		{
			"buffer" : 0,
			"byteOffset" : 0,
			"byteLength" : 396,
			"target" : 34962
		},
		{
			"buffer" : 0,
			"byteOffset" : 396,
			"byteLength" : 396,
			"target" : 34962
		},
		{
			"buffer" : 0,
			"byteOffset" : 792,
			"byteLength" : 396,
			"target" : 34962
		},
		{
			"buffer" : 0,
			"byteOffset" : 1188,
			"byteLength" : 33,
			"target" : 34963
		}
	],
	"buffers" : [
		{
			"uri" : "B170041471101062G0.bin",
			"byteLength" : 1221
		}
	]
}
