{
	"asset" : {
		"generator" : "FME 2023.1.0.0",
		"version" : "2.0"
	},
	"materials" : [
		{
			"name" : "default_material",
			"pbrMetallicRoughness" : {
				"baseColorFactor" : [ 1, 1, 1, 1 ],
				"roughnessFactor" : 0.30000000000000004,
				"metallicFactor" : 0.5
			}
		}
	],
	"meshes" : [
		{
			"primitives" : [
				{
					"attributes" : {
						"NORMAL" : 1,
						"POSITION" : 0,
						"COLOR_0" : 2
					},
					"indices" : 3,
					"material" : 0,
					"mode" : 4
				}
			]
		}
	],
	"nodes" : [
		{
			"name" : "B357341523001063C0",
			"matrix" : [ 1, 0, 0, 0, 0, 0, -1, 0, 0, 1, 0, 0, 835731.375, 4.000999927520752, -815231.875, 1 ],
			"children" : [ 1 ]
		},
		{
			"mesh" : 0
		}
	],
	"scenes" : [
		{
			"nodes" : [ 0 ]
		}
	],
	"scene" : 0,
	"accessors" : [
		{
			"bufferView" : 0,
			"byteOffset" : 0,
			"componentType" : 5126,
			"count" : 279,
			"type" : "VEC3",
			"min" : [ -4.8623046875, -4.591796875, 0 ],
			"max" : [ 4.861328125, 4.5908203125, 22.51599884033203 ]
		},
		{
			"bufferView" : 1,
			"byteOffset" : 0,
			"componentType" : 5126,
			"count" : 279,
			"type" : "VEC3",
			"min" : [ -0.9200343489646912, -0.9146866202354431, -1 ],
			"max" : [ 0.9149687886238098, 0.9145979881286621, 1 ]
		},
		{
			"bufferView" : 2,
			"byteOffset" : 0,
			"componentType" : 5126,
			"count" : 279,
			"type" : "VEC3"
		},
		{
			"bufferView" : 3,
			"byteOffset" : 0,
			"componentType" : 5123,
			"count" : 279,
			"type" : "SCALAR",
			"min" : [ 0 ],
			"max" : [ 278 ]
		}
	],
	"bufferViews" : [
		{
			"buffer" : 0,
			"byteOffset" : 0,
			"byteLength" : 3348,
			"target" : 34962
		},
		{
			"buffer" : 0,
			"byteOffset" : 3348,
			"byteLength" : 3348,
			"target" : 34962
		},
		{
			"buffer" : 0,
			"byteOffset" : 6696,
			"byteLength" : 3348,
			"target" : 34962
		},
		{
			"buffer" : 0,
			"byteOffset" : 10044,
			"byteLength" : 558,
			"target" : 34963
		}
	],
	"buffers" : [
		{
			"uri" : "B357341523001063C0.bin",
			"byteLength" : 10602
		}
	]
}
