{
	"asset" : {
		"generator" : "FME 2023.2.1.0",
		"version" : "2.0"
	},
	"materials" : [
		{
			"name" : "default_material",
			"pbrMetallicRoughness" : {
				"baseColorFactor" : [ 1, 1, 1, 1 ],
				"roughnessFactor" : 0.30000000000000004,
				"metallicFactor" : 0.5
			}
		}
	],
	"meshes" : [
		{
			"primitives" : [
				{
					"attributes" : {
						"NORMAL" : 1,
						"POSITION" : 0,
						"COLOR_0" : 2
					},
					"indices" : 3,
					"material" : 0,
					"mode" : 4
				}
			]
		}
	],
	"nodes" : [
		{
			"name" : "B170221473301062G0",
			"matrix" : [ 1, 0, 0, 0, 0, 0, -1, 0, 0, 1, 0, 0, 817022.75, 19.46339988708496, -814732.9375, 1 ],
			"children" : [ 1 ]
		},
		{
			"mesh" : 0
		}
	],
	"scenes" : [
		{
			"nodes" : [ 0 ]
		}
	],
	"scene" : 0,
	"accessors" : [
		{
			"bufferView" : 0,
			"byteOffset" : 0,
			"componentType" : 5126,
			"count" : 54,
			"type" : "VEC3",
			"min" : [ -6.25, -6.125, 0 ],
			"max" : [ 6.3125, 6.125, 5.64069938659668 ]
		},
		{
			"bufferView" : 1,
			"byteOffset" : 0,
			"componentType" : 5126,
			"count" : 54,
			"type" : "VEC3",
			"min" : [ -0.7695308327674866, -0.7692884206771851, 0 ],
			"max" : [ 0.7693744897842407, 0.7694264054298401, 1 ]
		},
		{
			"bufferView" : 2,
			"byteOffset" : 0,
			"componentType" : 5126,
			"count" : 54,
			"type" : "VEC3"
		},
		{
			"bufferView" : 3,
			"byteOffset" : 0,
			"componentType" : 5121,
			"count" : 54,
			"type" : "SCALAR",
			"min" : [ 0 ],
			"max" : [ 53 ]
		}
	],
	"bufferViews" : [
		{
			"buffer" : 0,
			"byteOffset" : 0,
			"byteLength" : 648,
			"target" : 34962
		},
		{
			"buffer" : 0,
			"byteOffset" : 648,
			"byteLength" : 648,
			"target" : 34962
		},
		{
			"buffer" : 0,
			"byteOffset" : 1296,
			"byteLength" : 648,
			"target" : 34962
		},
		{
			"buffer" : 0,
			"byteOffset" : 1944,
			"byteLength" : 54,
			"target" : 34963
		}
	],
	"buffers" : [
		{
			"uri" : "B170221473301062G0.bin",
			"byteLength" : 1998
		}
	]
}
