{
	"asset" : {
		"generator" : "FME 2022.2.4.0",
		"version" : "2.0"
	},
	"materials" : [
		{
			"name" : "default_material",
			"pbrMetallicRoughness" : {
				"baseColorFactor" : [ 1, 1, 1, 1 ],
				"roughnessFactor" : 0.30000000000000004,
				"metallicFactor" : 0.5
			}
		}
	],
	"meshes" : [
		{
			"primitives" : [
				{
					"attributes" : {
						"NORMAL" : 1,
						"POSITION" : 0,
						"COLOR_0" : 2
					},
					"indices" : 3,
					"material" : 0,
					"mode" : 4
				}
			]
		}
	],
	"nodes" : [
		{
			"name" : "B337641593001063C0",
			"matrix" : [ 1, 0, 0, 0, 0, 0, -1, 0, 0, 1, 0, 0, 833768.6875, 42.003990173339844, -815933.0625, 1 ],
			"children" : [ 1 ]
		},
		{
			"mesh" : 0
		}
	],
	"scenes" : [
		{
			"nodes" : [ 0 ]
		}
	],
	"scene" : 0,
	"accessors" : [
		{
			"bufferView" : 0,
			"byteOffset" : 0,
			"componentType" : 5126,
			"count" : 426,
			"type" : "VEC3",
			"min" : [ -6.525390625, -6.3603515625, 0 ],
			"max" : [ 6.5263671875, 6.3603515625, 25.18799591064453 ]
		},
		{
			"bufferView" : 1,
			"byteOffset" : 0,
			"componentType" : 5126,
			"count" : 426,
			"type" : "VEC3",
			"min" : [ -0.976813554763794, -0.7191914319992065, -1 ],
			"max" : [ 0.7159556150436401, 0.7203202247619629, 1 ]
		},
		{
			"bufferView" : 2,
			"byteOffset" : 0,
			"componentType" : 5126,
			"count" : 426,
			"type" : "VEC3"
		},
		{
			"bufferView" : 3,
			"byteOffset" : 0,
			"componentType" : 5123,
			"count" : 426,
			"type" : "SCALAR",
			"min" : [ 0 ],
			"max" : [ 425 ]
		}
	],
	"bufferViews" : [
		{
			"buffer" : 0,
			"byteOffset" : 0,
			"byteLength" : 5112,
			"target" : 34962
		},
		{
			"buffer" : 0,
			"byteOffset" : 5112,
			"byteLength" : 5112,
			"target" : 34962
		},
		{
			"buffer" : 0,
			"byteOffset" : 10224,
			"byteLength" : 5112,
			"target" : 34962
		},
		{
			"buffer" : 0,
			"byteOffset" : 15336,
			"byteLength" : 852,
			"target" : 34963
		}
	],
	"buffers" : [
		{
			"uri" : "B337641593001063C0.bin",
			"byteLength" : 16188
		}
	]
}
