{
	"asset" : {
		"generator" : "FME 2023.1.0.0",
		"version" : "2.0"
	},
	"materials" : [
		{
			"name" : "default_material",
			"pbrMetallicRoughness" : {
				"baseColorFactor" : [ 1, 1, 1, 1 ],
				"roughnessFactor" : 0.30000000000000004,
				"metallicFactor" : 0.5
			}
		}
	],
	"meshes" : [
		{
			"primitives" : [
				{
					"attributes" : {
						"NORMAL" : 1,
						"POSITION" : 0,
						"COLOR_0" : 2
					},
					"indices" : 3,
					"material" : 0,
					"mode" : 4
				}
			]
		}
	],
	"nodes" : [
		{
			"name" : "B364031963101063C0",
			"matrix" : [ 1, 0, 0, 0, 0, 0, -1, 0, 0, 1, 0, 0, 836403.0625, 33.847999572753906, -819643.875, 1 ],
			"children" : [ 1 ]
		},
		{
			"mesh" : 0
		}
	],
	"scenes" : [
		{
			"nodes" : [ 0 ]
		}
	],
	"scene" : 0,
	"accessors" : [
		{
			"bufferView" : 0,
			"byteOffset" : 0,
			"componentType" : 5126,
			"count" : 5925,
			"type" : "VEC3",
			"min" : [ -38.171875, -34.423828125, 0 ],
			"max" : [ 38.171875, 34.421875, 72.59500122070312 ]
		},
		{
			"bufferView" : 1,
			"byteOffset" : 0,
			"componentType" : 5126,
			"count" : 5925,
			"type" : "VEC3",
			"min" : [ -0.986393928527832, -1, -1 ],
			"max" : [ 0.986393928527832, 1, 1 ]
		},
		{
			"bufferView" : 2,
			"byteOffset" : 0,
			"componentType" : 5126,
			"count" : 5925,
			"type" : "VEC3"
		},
		{
			"bufferView" : 3,
			"byteOffset" : 0,
			"componentType" : 5123,
			"count" : 5925,
			"type" : "SCALAR",
			"min" : [ 0 ],
			"max" : [ 5924 ]
		}
	],
	"bufferViews" : [
		{
			"buffer" : 0,
			"byteOffset" : 0,
			"byteLength" : 71100,
			"target" : 34962
		},
		{
			"buffer" : 0,
			"byteOffset" : 71100,
			"byteLength" : 71100,
			"target" : 34962
		},
		{
			"buffer" : 0,
			"byteOffset" : 142200,
			"byteLength" : 71100,
			"target" : 34962
		},
		{
			"buffer" : 0,
			"byteOffset" : 213300,
			"byteLength" : 11850,
			"target" : 34963
		}
	],
	"buffers" : [
		{
			"uri" : "B364031963101063C0.bin",
			"byteLength" : 225150
		}
	]
}
