{
	"asset" : {
		"generator" : "FME 2022.2.4.0",
		"version" : "2.0"
	},
	"materials" : [
		{
			"name" : "default_material",
			"pbrMetallicRoughness" : {
				"baseColorFactor" : [ 1, 1, 1, 1 ],
				"roughnessFactor" : 0.30000000000000004,
				"metallicFactor" : 0.5
			}
		}
	],
	"meshes" : [
		{
			"primitives" : [
				{
					"attributes" : {
						"NORMAL" : 1,
						"POSITION" : 0,
						"COLOR_0" : 2
					},
					"indices" : 3,
					"material" : 0,
					"mode" : 4
				}
			]
		}
	],
	"nodes" : [
		{
			"name" : "B334171589801063C0",
			"matrix" : [ 1, 0, 0, 0, 0, 0, -1, 0, 0, 1, 0, 0, 833417.0625, 126.8759994506836, -815895.75, 1 ],
			"children" : [ 1 ]
		},
		{
			"mesh" : 0
		}
	],
	"scenes" : [
		{
			"nodes" : [ 0 ]
		}
	],
	"scene" : 0,
	"accessors" : [
		{
			"bufferView" : 0,
			"byteOffset" : 0,
			"componentType" : 5126,
			"count" : 15900,
			"type" : "VEC3",
			"min" : [ -22.138671875, -21.080078125, 0 ],
			"max" : [ 22.1396484375, 21.0810546875, 152.67599487304688 ]
		},
		{
			"bufferView" : 1,
			"byteOffset" : 0,
			"componentType" : 5126,
			"count" : 15900,
			"type" : "VEC3",
			"min" : [ -1, -0.9990458488464355, -1 ],
			"max" : [ 1, 0.9992771744728088, 1 ]
		},
		{
			"bufferView" : 2,
			"byteOffset" : 0,
			"componentType" : 5126,
			"count" : 15900,
			"type" : "VEC3"
		},
		{
			"bufferView" : 3,
			"byteOffset" : 0,
			"componentType" : 5123,
			"count" : 15900,
			"type" : "SCALAR",
			"min" : [ 0 ],
			"max" : [ 15899 ]
		}
	],
	"bufferViews" : [
		{
			"buffer" : 0,
			"byteOffset" : 0,
			"byteLength" : 190800,
			"target" : 34962
		},
		{
			"buffer" : 0,
			"byteOffset" : 190800,
			"byteLength" : 190800,
			"target" : 34962
		},
		{
			"buffer" : 0,
			"byteOffset" : 381600,
			"byteLength" : 190800,
			"target" : 34962
		},
		{
			"buffer" : 0,
			"byteOffset" : 572400,
			"byteLength" : 31800,
			"target" : 34963
		}
	],
	"buffers" : [
		{
			"uri" : "B334171589801063C0.bin",
			"byteLength" : 604200
		}
	]
}
