{"asset":{"generator":"FME 2022.2.4.0","version":"2.0"},"materials":[{"name":"T14250114000106E11","pbrMetallicRoughness":{"roughnessFactor":0.984375,"metallicFactor":0.5}}],"meshes":[{"primitives":[{"attributes":{"NORMAL":1,"POSITION":0,"TEXCOORD_0":2},"indices":3,"material":0,"mode":4}]}],"nodes":[{"name":"T14250114000106E11","matrix":[1,0,0,0,0,0,-1,0,0,1,0,0,814625,37.282989501953125,-811700,1],"children":[1]},{"mesh":0}],"scenes":[{"nodes":[0]}],"scene":0,"accessors":[{"bufferView":0,"byteOffset":0,"componentType":5126,"count":243591,"type":"VEC3","min":[-375,-300,0],"max":[375,300,202.57608032226562]},{"bufferView":1,"byteOffset":0,"componentType":5126,"count":243591,"type":"VEC3","min":[-0.817043125629425,-0.829131007194519,0.550190269947052],"max":[0.7810401320457458,0.7060045003890991,0.9999988079071045]},{"bufferView":2,"byteOffset":0,"componentType":5126,"count":243591,"type":"VEC2","min":[0.00013324618339538574,0.0001665353775024414],"max":[0.9998667240142822,0.9998334646224976]},{"bufferView":3,"byteOffset":0,"componentType":5125,"count":243591,"type":"SCALAR","min":[0],"max":[243590]}],"bufferViews":[{"buffer":0,"byteOffset":0,"byteLength":2923092,"target":34962},{"buffer":0,"byteOffset":2923092,"byteLength":2923092,"target":34962},{"buffer":0,"byteOffset":5846184,"byteLength":1948728,"target":34962},{"buffer":0,"byteOffset":7794912,"byteLength":974364,"target":34963}],"buffers":[{"uri":"T14250114000106E11.bin","byteLength":8769276}]}