{
	"asset" : {
		"generator" : "FME 2023.2.1.0",
		"version" : "2.0"
	},
	"materials" : [
		{
			"name" : "default_material",
			"pbrMetallicRoughness" : {
				"baseColorFactor" : [ 1, 1, 1, 1 ],
				"roughnessFactor" : 0.30000000000000004,
				"metallicFactor" : 0.5
			}
		}
	],
	"meshes" : [
		{
			"primitives" : [
				{
					"attributes" : {
						"NORMAL" : 1,
						"POSITION" : 0,
						"COLOR_0" : 2
					},
					"indices" : 3,
					"material" : 0,
					"mode" : 4
				}
			]
		}
	],
	"nodes" : [
		{
			"name" : "B338581535401063C0",
			"matrix" : [ 1, 0, 0, 0, 0, 0, -1, 0, 0, 1, 0, 0, 833851.375, 130.8760223388672, -815355.125, 1 ],
			"children" : [ 1 ]
		},
		{
			"mesh" : 0
		}
	],
	"scenes" : [
		{
			"nodes" : [ 0 ]
		}
	],
	"scene" : 0,
	"accessors" : [
		{
			"bufferView" : 0,
			"byteOffset" : 0,
			"componentType" : 5126,
			"count" : 750,
			"type" : "VEC3",
			"min" : [ -11.6025390625, -10.8955078125, 0 ],
			"max" : [ 11.6015625, 10.8955078125, 22.516998291015625 ]
		},
		{
			"bufferView" : 1,
			"byteOffset" : 0,
			"componentType" : 5126,
			"count" : 750,
			"type" : "VEC3",
			"min" : [ -0.888124406337738, -0.8872488141059875, -1 ],
			"max" : [ 0.8866029381752014, 0.8911159634590149, 1 ]
		},
		{
			"bufferView" : 2,
			"byteOffset" : 0,
			"componentType" : 5126,
			"count" : 750,
			"type" : "VEC3"
		},
		{
			"bufferView" : 3,
			"byteOffset" : 0,
			"componentType" : 5123,
			"count" : 750,
			"type" : "SCALAR",
			"min" : [ 0 ],
			"max" : [ 749 ]
		}
	],
	"bufferViews" : [
		{
			"buffer" : 0,
			"byteOffset" : 0,
			"byteLength" : 9000,
			"target" : 34962
		},
		{
			"buffer" : 0,
			"byteOffset" : 9000,
			"byteLength" : 9000,
			"target" : 34962
		},
		{
			"buffer" : 0,
			"byteOffset" : 18000,
			"byteLength" : 9000,
			"target" : 34962
		},
		{
			"buffer" : 0,
			"byteOffset" : 27000,
			"byteLength" : 1500,
			"target" : 34963
		}
	],
	"buffers" : [
		{
			"uri" : "B338581535401063C0.bin",
			"byteLength" : 28500
		}
	]
}
