{
	"asset" : {
		"generator" : "FME 2023.1.0.0",
		"version" : "2.0"
	},
	"materials" : [
		{
			"name" : "default_material",
			"pbrMetallicRoughness" : {
				"baseColorFactor" : [ 1, 1, 1, 1 ],
				"roughnessFactor" : 0.30000000000000004,
				"metallicFactor" : 0.5
			}
		}
	],
	"meshes" : [
		{
			"primitives" : [
				{
					"attributes" : {
						"NORMAL" : 1,
						"POSITION" : 0,
						"COLOR_0" : 2
					},
					"indices" : 3,
					"material" : 0,
					"mode" : 4
				}
			]
		}
	],
	"nodes" : [
		{
			"name" : "B335811568801063C0",
			"matrix" : [ 1, 0, 0, 0, 0, 0, -1, 0, 0, 1, 0, 0, 833581.3125, 119.47100067138672, -815688.125, 1 ],
			"children" : [ 1 ]
		},
		{
			"mesh" : 0
		}
	],
	"scenes" : [
		{
			"nodes" : [ 0 ]
		}
	],
	"scene" : 0,
	"accessors" : [
		{
			"bufferView" : 0,
			"byteOffset" : 0,
			"componentType" : 5126,
			"count" : 3438,
			"type" : "VEC3",
			"min" : [ -9.5166015625, -16.150390625, 0 ],
			"max" : [ 9.5166015625, 16.1513671875, 104.17899322509766 ]
		},
		{
			"bufferView" : 1,
			"byteOffset" : 0,
			"componentType" : 5126,
			"count" : 3438,
			"type" : "VEC3",
			"min" : [ -0.9796165823936462, -0.9807519316673279, -1 ],
			"max" : [ 0.9985026121139526, 0.979413628578186, 1 ]
		},
		{
			"bufferView" : 2,
			"byteOffset" : 0,
			"componentType" : 5126,
			"count" : 3438,
			"type" : "VEC3"
		},
		{
			"bufferView" : 3,
			"byteOffset" : 0,
			"componentType" : 5123,
			"count" : 3438,
			"type" : "SCALAR",
			"min" : [ 0 ],
			"max" : [ 3437 ]
		}
	],
	"bufferViews" : [
		{
			"buffer" : 0,
			"byteOffset" : 0,
			"byteLength" : 41256,
			"target" : 34962
		},
		{
			"buffer" : 0,
			"byteOffset" : 41256,
			"byteLength" : 41256,
			"target" : 34962
		},
		{
			"buffer" : 0,
			"byteOffset" : 82512,
			"byteLength" : 41256,
			"target" : 34962
		},
		{
			"buffer" : 0,
			"byteOffset" : 123768,
			"byteLength" : 6876,
			"target" : 34963
		}
	],
	"buffers" : [
		{
			"uri" : "B335811568801063C0.bin",
			"byteLength" : 130644
		}
	]
}
