{
	"asset" : {
		"generator" : "FME 2023.2.1.0",
		"version" : "2.0"
	},
	"materials" : [
		{
			"name" : "default_material",
			"pbrMetallicRoughness" : {
				"baseColorFactor" : [ 1, 1, 1, 1 ],
				"roughnessFactor" : 0.30000000000000004,
				"metallicFactor" : 0.5
			}
		}
	],
	"meshes" : [
		{
			"primitives" : [
				{
					"attributes" : {
						"NORMAL" : 1,
						"POSITION" : 0,
						"COLOR_0" : 2
					},
					"indices" : 3,
					"material" : 0,
					"mode" : 4
				}
			]
		}
	],
	"nodes" : [
		{
			"name" : "B336901627701063C0",
			"matrix" : [ 1, 0, 0, 0, 0, 0, -1, 0, 0, 1, 0, 0, 833689.5625, 2.8899991512298584, -816275.1875, 1 ],
			"children" : [ 1 ]
		},
		{
			"mesh" : 0
		}
	],
	"scenes" : [
		{
			"nodes" : [ 0 ]
		}
	],
	"scene" : 0,
	"accessors" : [
		{
			"bufferView" : 0,
			"byteOffset" : 0,
			"componentType" : 5126,
			"count" : 159,
			"type" : "VEC3",
			"min" : [ -4.599609375, -2.5439453125, 0 ],
			"max" : [ 4.6005859375, 2.544921875, 20.229999542236328 ]
		},
		{
			"bufferView" : 1,
			"byteOffset" : 0,
			"componentType" : 5126,
			"count" : 159,
			"type" : "VEC3",
			"min" : [ -0.99913489818573, -0.9999520778656006, -1 ],
			"max" : [ 0.9990343451499939, 0.9999473690986633, 1 ]
		},
		{
			"bufferView" : 2,
			"byteOffset" : 0,
			"componentType" : 5126,
			"count" : 159,
			"type" : "VEC3"
		},
		{
			"bufferView" : 3,
			"byteOffset" : 0,
			"componentType" : 5121,
			"count" : 159,
			"type" : "SCALAR",
			"min" : [ 0 ],
			"max" : [ 158 ]
		}
	],
	"bufferViews" : [
		{
			"buffer" : 0,
			"byteOffset" : 0,
			"byteLength" : 1908,
			"target" : 34962
		},
		{
			"buffer" : 0,
			"byteOffset" : 1908,
			"byteLength" : 1908,
			"target" : 34962
		},
		{
			"buffer" : 0,
			"byteOffset" : 3816,
			"byteLength" : 1908,
			"target" : 34962
		},
		{
			"buffer" : 0,
			"byteOffset" : 5724,
			"byteLength" : 159,
			"target" : 34963
		}
	],
	"buffers" : [
		{
			"uri" : "B336901627701063C0.bin",
			"byteLength" : 5883
		}
	]
}
