{
	"asset" : {
		"generator" : "FME 2023.1.0.0",
		"version" : "2.0"
	},
	"materials" : [
		{
			"name" : "default_material",
			"pbrMetallicRoughness" : {
				"baseColorFactor" : [ 1, 1, 1, 1 ],
				"roughnessFactor" : 0.30000000000000004,
				"metallicFactor" : 0.5
			}
		}
	],
	"meshes" : [
		{
			"primitives" : [
				{
					"attributes" : {
						"NORMAL" : 1,
						"POSITION" : 0,
						"COLOR_0" : 2
					},
					"indices" : 3,
					"material" : 0,
					"mode" : 4
				}
			]
		}
	],
	"nodes" : [
		{
			"name" : "B355431547602063C0",
			"matrix" : [ 1, 0, 0, 0, 0, 0, -1, 0, 0, 1, 0, 0, 835542.4375, 4.047999858856201, -815469.6875, 1 ],
			"children" : [ 1 ]
		},
		{
			"mesh" : 0
		}
	],
	"scenes" : [
		{
			"nodes" : [ 0 ]
		}
	],
	"scene" : 0,
	"accessors" : [
		{
			"bufferView" : 0,
			"byteOffset" : 0,
			"componentType" : 5126,
			"count" : 168,
			"type" : "VEC3",
			"min" : [ -11.2568359375, -10.771484375, 0 ],
			"max" : [ 11.2568359375, 10.7705078125, 18.178001403808594 ]
		},
		{
			"bufferView" : 1,
			"byteOffset" : 0,
			"componentType" : 5126,
			"count" : 168,
			"type" : "VEC3",
			"min" : [ -0.997389554977417, -0.9973976612091064, -1 ],
			"max" : [ 0.9974586963653564, 0.9977913498878479, 1 ]
		},
		{
			"bufferView" : 2,
			"byteOffset" : 0,
			"componentType" : 5126,
			"count" : 168,
			"type" : "VEC3"
		},
		{
			"bufferView" : 3,
			"byteOffset" : 0,
			"componentType" : 5121,
			"count" : 168,
			"type" : "SCALAR",
			"min" : [ 0 ],
			"max" : [ 167 ]
		}
	],
	"bufferViews" : [
		{
			"buffer" : 0,
			"byteOffset" : 0,
			"byteLength" : 2016,
			"target" : 34962
		},
		{
			"buffer" : 0,
			"byteOffset" : 2016,
			"byteLength" : 2016,
			"target" : 34962
		},
		{
			"buffer" : 0,
			"byteOffset" : 4032,
			"byteLength" : 2016,
			"target" : 34962
		},
		{
			"buffer" : 0,
			"byteOffset" : 6048,
			"byteLength" : 168,
			"target" : 34963
		}
	],
	"buffers" : [
		{
			"uri" : "B355431547602063C0.bin",
			"byteLength" : 6216
		}
	]
}
