{
	"asset" : {
		"generator" : "FME 2022.2.4.0",
		"version" : "2.0"
	},
	"materials" : [
		{
			"name" : "default_material",
			"pbrMetallicRoughness" : {
				"baseColorFactor" : [ 1, 1, 1, 1 ],
				"roughnessFactor" : 0.30000000000000004,
				"metallicFactor" : 0.5
			}
		}
	],
	"meshes" : [
		{
			"primitives" : [
				{
					"attributes" : {
						"NORMAL" : 1,
						"POSITION" : 0,
						"COLOR_0" : 2
					},
					"indices" : 3,
					"material" : 0,
					"mode" : 4
				}
			]
		}
	],
	"nodes" : [
		{
			"name" : "B333511625002063C0",
			"matrix" : [ 1, 0, 0, 0, 0, 0, -1, 0, 0, 1, 0, 0, 833351.5, 18.374000549316406, -816250.25, 1 ],
			"children" : [ 1 ]
		},
		{
			"mesh" : 0
		}
	],
	"scenes" : [
		{
			"nodes" : [ 0 ]
		}
	],
	"scene" : 0,
	"accessors" : [
		{
			"bufferView" : 0,
			"byteOffset" : 0,
			"componentType" : 5126,
			"count" : 1587,
			"type" : "VEC3",
			"min" : [ -15.1142578125, -16.619140625, 0 ],
			"max" : [ 15.0693359375, 16.673828125, 10.151998519897461 ]
		},
		{
			"bufferView" : 1,
			"byteOffset" : 0,
			"componentType" : 5126,
			"count" : 1587,
			"type" : "VEC3",
			"min" : [ -1, -0.9457979202270508, -1 ],
			"max" : [ 0.7954316735267639, 1, 1 ]
		},
		{
			"bufferView" : 2,
			"byteOffset" : 0,
			"componentType" : 5126,
			"count" : 1587,
			"type" : "VEC3"
		},
		{
			"bufferView" : 3,
			"byteOffset" : 0,
			"componentType" : 5123,
			"count" : 1587,
			"type" : "SCALAR",
			"min" : [ 0 ],
			"max" : [ 1586 ]
		}
	],
	"bufferViews" : [
		{
			"buffer" : 0,
			"byteOffset" : 0,
			"byteLength" : 19044,
			"target" : 34962
		},
		{
			"buffer" : 0,
			"byteOffset" : 19044,
			"byteLength" : 19044,
			"target" : 34962
		},
		{
			"buffer" : 0,
			"byteOffset" : 38088,
			"byteLength" : 19044,
			"target" : 34962
		},
		{
			"buffer" : 0,
			"byteOffset" : 57132,
			"byteLength" : 3174,
			"target" : 34963
		}
	],
	"buffers" : [
		{
			"uri" : "B333511625002063C0.bin",
			"byteLength" : 60306
		}
	]
}
