{
	"asset" : {
		"generator" : "FME 2023.2.1.0",
		"version" : "2.0"
	},
	"materials" : [
		{
			"name" : "default_material",
			"pbrMetallicRoughness" : {
				"baseColorFactor" : [ 1, 1, 1, 1 ],
				"roughnessFactor" : 0.30000000000000004,
				"metallicFactor" : 0.5
			}
		}
	],
	"meshes" : [
		{
			"primitives" : [
				{
					"attributes" : {
						"NORMAL" : 1,
						"POSITION" : 0,
						"COLOR_0" : 2
					},
					"indices" : 3,
					"material" : 0,
					"mode" : 4
				}
			]
		}
	],
	"nodes" : [
		{
			"name" : "B358221500501063C0",
			"matrix" : [ 1, 0, 0, 0, 0, 0, -1, 0, 0, 1, 0, 0, 835828.625, 26.555999755859375, -815012.3125, 1 ],
			"children" : [ 1 ]
		},
		{
			"mesh" : 0
		}
	],
	"scenes" : [
		{
			"nodes" : [ 0 ]
		}
	],
	"scene" : 0,
	"accessors" : [
		{
			"bufferView" : 0,
			"byteOffset" : 0,
			"componentType" : 5126,
			"count" : 993,
			"type" : "VEC3",
			"min" : [ -12.5634765625, -13.0537109375, 0 ],
			"max" : [ 12.5634765625, 13.0537109375, 50.44499969482422 ]
		},
		{
			"bufferView" : 1,
			"byteOffset" : 0,
			"componentType" : 5126,
			"count" : 993,
			"type" : "VEC3",
			"min" : [ -0.9639493823051453, -0.9637731909751892, -1 ],
			"max" : [ 0.9638280868530273, 0.9639926552772522, 1 ]
		},
		{
			"bufferView" : 2,
			"byteOffset" : 0,
			"componentType" : 5126,
			"count" : 993,
			"type" : "VEC3"
		},
		{
			"bufferView" : 3,
			"byteOffset" : 0,
			"componentType" : 5123,
			"count" : 993,
			"type" : "SCALAR",
			"min" : [ 0 ],
			"max" : [ 992 ]
		}
	],
	"bufferViews" : [
		{
			"buffer" : 0,
			"byteOffset" : 0,
			"byteLength" : 11916,
			"target" : 34962
		},
		{
			"buffer" : 0,
			"byteOffset" : 11916,
			"byteLength" : 11916,
			"target" : 34962
		},
		{
			"buffer" : 0,
			"byteOffset" : 23832,
			"byteLength" : 11916,
			"target" : 34962
		},
		{
			"buffer" : 0,
			"byteOffset" : 35748,
			"byteLength" : 1986,
			"target" : 34963
		}
	],
	"buffers" : [
		{
			"uri" : "B358221500501063C0.bin",
			"byteLength" : 37734
		}
	]
}
