{
	"asset" : {
		"generator" : "FME 2023.1.0.0",
		"version" : "2.0"
	},
	"materials" : [
		{
			"name" : "default_material",
			"pbrMetallicRoughness" : {
				"baseColorFactor" : [ 1, 1, 1, 1 ],
				"roughnessFactor" : 0.30000000000000004,
				"metallicFactor" : 0.5
			}
		}
	],
	"meshes" : [
		{
			"primitives" : [
				{
					"attributes" : {
						"NORMAL" : 1,
						"POSITION" : 0,
						"COLOR_0" : 2
					},
					"indices" : 3,
					"material" : 0,
					"mode" : 4
				}
			]
		}
	],
	"nodes" : [
		{
			"name" : "B351811571601063C0",
			"matrix" : [ 1, 0, 0, 0, 0, 0, -1, 0, 0, 1, 0, 0, 835180.5625, 5.25, -815716.1875, 1 ],
			"children" : [ 1 ]
		},
		{
			"mesh" : 0
		}
	],
	"scenes" : [
		{
			"nodes" : [ 0 ]
		}
	],
	"scene" : 0,
	"accessors" : [
		{
			"bufferView" : 0,
			"byteOffset" : 0,
			"componentType" : 5126,
			"count" : 132,
			"type" : "VEC3",
			"min" : [ -1.3544921875, -1.6357421875, 0 ],
			"max" : [ 1.353515625, 1.6357421875, 3.25100040435791 ]
		},
		{
			"bufferView" : 1,
			"byteOffset" : 0,
			"componentType" : 5126,
			"count" : 132,
			"type" : "VEC3",
			"min" : [ -0.9726962447166443, -0.9728640913963318, -1 ],
			"max" : [ 0.9728127717971802, 0.9727998375892639, 1 ]
		},
		{
			"bufferView" : 2,
			"byteOffset" : 0,
			"componentType" : 5126,
			"count" : 132,
			"type" : "VEC3"
		},
		{
			"bufferView" : 3,
			"byteOffset" : 0,
			"componentType" : 5121,
			"count" : 132,
			"type" : "SCALAR",
			"min" : [ 0 ],
			"max" : [ 131 ]
		}
	],
	"bufferViews" : [
		{
			"buffer" : 0,
			"byteOffset" : 0,
			"byteLength" : 1584,
			"target" : 34962
		},
		{
			"buffer" : 0,
			"byteOffset" : 1584,
			"byteLength" : 1584,
			"target" : 34962
		},
		{
			"buffer" : 0,
			"byteOffset" : 3168,
			"byteLength" : 1584,
			"target" : 34962
		},
		{
			"buffer" : 0,
			"byteOffset" : 4752,
			"byteLength" : 132,
			"target" : 34963
		}
	],
	"buffers" : [
		{
			"uri" : "B351811571601063C0.bin",
			"byteLength" : 4884
		}
	]
}
