{
	"asset" : {
		"generator" : "FME 2023.1.0.0",
		"version" : "2.0"
	},
	"materials" : [
		{
			"name" : "default_material",
			"pbrMetallicRoughness" : {
				"baseColorFactor" : [ 1, 1, 1, 1 ],
				"roughnessFactor" : 0.30000000000000004,
				"metallicFactor" : 0.5
			}
		}
	],
	"meshes" : [
		{
			"primitives" : [
				{
					"attributes" : {
						"NORMAL" : 1,
						"POSITION" : 0,
						"COLOR_0" : 2
					},
					"indices" : 3,
					"material" : 0,
					"mode" : 4
				}
			]
		}
	],
	"nodes" : [
		{
			"name" : "B337411590401063C0",
			"matrix" : [ 1, 0, 0, 0, 0, 0, -1, 0, 0, 1, 0, 0, 833743.8125, 50.660011291503906, -815904.25, 1 ],
			"children" : [ 1 ]
		},
		{
			"mesh" : 0
		}
	],
	"scenes" : [
		{
			"nodes" : [ 0 ]
		}
	],
	"scene" : 0,
	"accessors" : [
		{
			"bufferView" : 0,
			"byteOffset" : 0,
			"componentType" : 5126,
			"count" : 375,
			"type" : "VEC3",
			"min" : [ -5.0849609375, -4.638671875, 0 ],
			"max" : [ 5.0849609375, 4.638671875, 19.26099395751953 ]
		},
		{
			"bufferView" : 1,
			"byteOffset" : 0,
			"componentType" : 5126,
			"count" : 375,
			"type" : "VEC3",
			"min" : [ -0.9462737441062927, -0.9001199007034302, -0.9867151975631714 ],
			"max" : [ 0.8908412456512451, 0.9001199007034302, 1 ]
		},
		{
			"bufferView" : 2,
			"byteOffset" : 0,
			"componentType" : 5126,
			"count" : 375,
			"type" : "VEC3"
		},
		{
			"bufferView" : 3,
			"byteOffset" : 0,
			"componentType" : 5123,
			"count" : 375,
			"type" : "SCALAR",
			"min" : [ 0 ],
			"max" : [ 374 ]
		}
	],
	"bufferViews" : [
		{
			"buffer" : 0,
			"byteOffset" : 0,
			"byteLength" : 4500,
			"target" : 34962
		},
		{
			"buffer" : 0,
			"byteOffset" : 4500,
			"byteLength" : 4500,
			"target" : 34962
		},
		{
			"buffer" : 0,
			"byteOffset" : 9000,
			"byteLength" : 4500,
			"target" : 34962
		},
		{
			"buffer" : 0,
			"byteOffset" : 13500,
			"byteLength" : 750,
			"target" : 34963
		}
	],
	"buffers" : [
		{
			"uri" : "B337411590401063C0.bin",
			"byteLength" : 14250
		}
	]
}
