{
	"asset" : {
		"generator" : "FME 2022.2.4.0",
		"version" : "2.0"
	},
	"materials" : [
		{
			"name" : "default_material",
			"pbrMetallicRoughness" : {
				"baseColorFactor" : [ 1, 1, 1, 1 ],
				"roughnessFactor" : 0.30000000000000004,
				"metallicFactor" : 0.5
			}
		}
	],
	"meshes" : [
		{
			"primitives" : [
				{
					"attributes" : {
						"NORMAL" : 1,
						"POSITION" : 0,
						"COLOR_0" : 2
					},
					"indices" : 3,
					"material" : 0,
					"mode" : 4
				}
			]
		}
	],
	"nodes" : [
		{
			"name" : "B333841641501063C0",
			"matrix" : [ 1, 0, 0, 0, 0, 0, -1, 0, 0, 1, 0, 0, 833378.5, 3.6289942264556885, -816407, 1 ],
			"children" : [ 1 ]
		},
		{
			"mesh" : 0
		}
	],
	"scenes" : [
		{
			"nodes" : [ 0 ]
		}
	],
	"scene" : 0,
	"accessors" : [
		{
			"bufferView" : 0,
			"byteOffset" : 0,
			"componentType" : 5126,
			"count" : 198,
			"type" : "VEC3",
			"min" : [ -9.740234375, -10.89453125, 0 ],
			"max" : [ 9.740234375, 10.89453125, 14.444999694824219 ]
		},
		{
			"bufferView" : 1,
			"byteOffset" : 0,
			"componentType" : 5126,
			"count" : 198,
			"type" : "VEC3",
			"min" : [ -0.7642080783843994, -0.768762469291687, -1 ],
			"max" : [ 0.7633785605430603, 0.7688425779342651, 1 ]
		},
		{
			"bufferView" : 2,
			"byteOffset" : 0,
			"componentType" : 5126,
			"count" : 198,
			"type" : "VEC3"
		},
		{
			"bufferView" : 3,
			"byteOffset" : 0,
			"componentType" : 5121,
			"count" : 198,
			"type" : "SCALAR",
			"min" : [ 0 ],
			"max" : [ 197 ]
		}
	],
	"bufferViews" : [
		{
			"buffer" : 0,
			"byteOffset" : 0,
			"byteLength" : 2376,
			"target" : 34962
		},
		{
			"buffer" : 0,
			"byteOffset" : 2376,
			"byteLength" : 2376,
			"target" : 34962
		},
		{
			"buffer" : 0,
			"byteOffset" : 4752,
			"byteLength" : 2376,
			"target" : 34962
		},
		{
			"buffer" : 0,
			"byteOffset" : 7128,
			"byteLength" : 198,
			"target" : 34963
		}
	],
	"buffers" : [
		{
			"uri" : "B333841641501063C0.bin",
			"byteLength" : 7326
		}
	]
}
