{
	"asset" : {
		"generator" : "FME 2023.1.0.0",
		"version" : "2.0"
	},
	"materials" : [
		{
			"name" : "default_material",
			"pbrMetallicRoughness" : {
				"baseColorFactor" : [ 1, 1, 1, 1 ],
				"roughnessFactor" : 0.30000000000000004,
				"metallicFactor" : 0.5
			}
		}
	],
	"meshes" : [
		{
			"primitives" : [
				{
					"attributes" : {
						"NORMAL" : 1,
						"POSITION" : 0,
						"COLOR_0" : 2
					},
					"indices" : 3,
					"material" : 0,
					"mode" : 4
				}
			]
		}
	],
	"nodes" : [
		{
			"name" : "B333101625301063C0",
			"matrix" : [ 1, 0, 0, 0, 0, 0, -1, 0, 0, 1, 0, 0, 833309.125, 16.808000564575195, -816249.25, 1 ],
			"children" : [ 1 ]
		},
		{
			"mesh" : 0
		}
	],
	"scenes" : [
		{
			"nodes" : [ 0 ]
		}
	],
	"scene" : 0,
	"accessors" : [
		{
			"bufferView" : 0,
			"byteOffset" : 0,
			"componentType" : 5126,
			"count" : 357,
			"type" : "VEC3",
			"min" : [ -5.1357421875, -5.4921875, 0 ],
			"max" : [ 5.1923828125, 5.521484375, 20.858999252319336 ]
		},
		{
			"bufferView" : 1,
			"byteOffset" : 0,
			"componentType" : 5126,
			"count" : 357,
			"type" : "VEC3",
			"min" : [ -0.7696729898452759, -0.771457850933075, -0.013203974813222885 ],
			"max" : [ 0.7737677097320557, 0.7718946933746338, 1 ]
		},
		{
			"bufferView" : 2,
			"byteOffset" : 0,
			"componentType" : 5126,
			"count" : 357,
			"type" : "VEC3"
		},
		{
			"bufferView" : 3,
			"byteOffset" : 0,
			"componentType" : 5123,
			"count" : 357,
			"type" : "SCALAR",
			"min" : [ 0 ],
			"max" : [ 356 ]
		}
	],
	"bufferViews" : [
		{
			"buffer" : 0,
			"byteOffset" : 0,
			"byteLength" : 4284,
			"target" : 34962
		},
		{
			"buffer" : 0,
			"byteOffset" : 4284,
			"byteLength" : 4284,
			"target" : 34962
		},
		{
			"buffer" : 0,
			"byteOffset" : 8568,
			"byteLength" : 4284,
			"target" : 34962
		},
		{
			"buffer" : 0,
			"byteOffset" : 12852,
			"byteLength" : 714,
			"target" : 34963
		}
	],
	"buffers" : [
		{
			"uri" : "B333101625301063C0.bin",
			"byteLength" : 13566
		}
	]
}
