{
	"asset" : {
		"generator" : "FME 2022.2.4.0",
		"version" : "2.0"
	},
	"materials" : [
		{
			"name" : "default_material",
			"pbrMetallicRoughness" : {
				"baseColorFactor" : [ 1, 1, 1, 1 ],
				"roughnessFactor" : 0.30000000000000004,
				"metallicFactor" : 0.5
			}
		}
	],
	"meshes" : [
		{
			"primitives" : [
				{
					"attributes" : {
						"NORMAL" : 1,
						"POSITION" : 0,
						"COLOR_0" : 2
					},
					"indices" : 3,
					"material" : 0,
					"mode" : 4
				}
			]
		}
	],
	"nodes" : [
		{
			"name" : "B334441644501063C0",
			"matrix" : [ 1, 0, 0, 0, 0, 0, -1, 0, 0, 1, 0, 0, 833449.9375, 19.510005950927734, -816452.0625, 1 ],
			"children" : [ 1 ]
		},
		{
			"mesh" : 0
		}
	],
	"scenes" : [
		{
			"nodes" : [ 0 ]
		}
	],
	"scene" : 0,
	"accessors" : [
		{
			"bufferView" : 0,
			"byteOffset" : 0,
			"componentType" : 5126,
			"count" : 831,
			"type" : "VEC3",
			"min" : [ -6.3427734375, -8.80859375, 0 ],
			"max" : [ 6.341796875, 8.8095703125, 34.83000183105469 ]
		},
		{
			"bufferView" : 1,
			"byteOffset" : 0,
			"componentType" : 5126,
			"count" : 831,
			"type" : "VEC3",
			"min" : [ -0.9797877073287964, -0.9802165031433105, -1 ],
			"max" : [ 0.9805125594139099, 0.979672372341156, 1 ]
		},
		{
			"bufferView" : 2,
			"byteOffset" : 0,
			"componentType" : 5126,
			"count" : 831,
			"type" : "VEC3"
		},
		{
			"bufferView" : 3,
			"byteOffset" : 0,
			"componentType" : 5123,
			"count" : 831,
			"type" : "SCALAR",
			"min" : [ 0 ],
			"max" : [ 830 ]
		}
	],
	"bufferViews" : [
		{
			"buffer" : 0,
			"byteOffset" : 0,
			"byteLength" : 9972,
			"target" : 34962
		},
		{
			"buffer" : 0,
			"byteOffset" : 9972,
			"byteLength" : 9972,
			"target" : 34962
		},
		{
			"buffer" : 0,
			"byteOffset" : 19944,
			"byteLength" : 9972,
			"target" : 34962
		},
		{
			"buffer" : 0,
			"byteOffset" : 29916,
			"byteLength" : 1662,
			"target" : 34963
		}
	],
	"buffers" : [
		{
			"uri" : "B334441644501063C0.bin",
			"byteLength" : 31578
		}
	]
}
