{
	"asset" : {
		"generator" : "FME 2022.2.4.0",
		"version" : "2.0"
	},
	"materials" : [
		{
			"name" : "default_material",
			"pbrMetallicRoughness" : {
				"baseColorFactor" : [ 1, 1, 1, 1 ],
				"roughnessFactor" : 0.30000000000000004,
				"metallicFactor" : 0.5
			}
		}
	],
	"meshes" : [
		{
			"primitives" : [
				{
					"attributes" : {
						"NORMAL" : 1,
						"POSITION" : 0,
						"COLOR_0" : 2
					},
					"indices" : 3,
					"material" : 0,
					"mode" : 4
				}
			]
		}
	],
	"nodes" : [
		{
			"name" : "B335111632201063C0",
			"matrix" : [ 1, 0, 0, 0, 0, 0, -1, 0, 0, 1, 0, 0, 833510.625, 4.451000213623047, -816320.0625, 1 ],
			"children" : [ 1 ]
		},
		{
			"mesh" : 0
		}
	],
	"scenes" : [
		{
			"nodes" : [ 0 ]
		}
	],
	"scene" : 0,
	"accessors" : [
		{
			"bufferView" : 0,
			"byteOffset" : 0,
			"componentType" : 5126,
			"count" : 210,
			"type" : "VEC3",
			"min" : [ -5.2900390625, -4.8134765625, 0 ],
			"max" : [ 5.2900390625, 4.8134765625, 22.104999542236328 ]
		},
		{
			"bufferView" : 1,
			"byteOffset" : 0,
			"componentType" : 5126,
			"count" : 210,
			"type" : "VEC3",
			"min" : [ -0.8087360858917236, -0.8040584921836853, -1 ],
			"max" : [ 0.8077980875968933, 0.808139443397522, 1 ]
		},
		{
			"bufferView" : 2,
			"byteOffset" : 0,
			"componentType" : 5126,
			"count" : 210,
			"type" : "VEC3"
		},
		{
			"bufferView" : 3,
			"byteOffset" : 0,
			"componentType" : 5121,
			"count" : 210,
			"type" : "SCALAR",
			"min" : [ 0 ],
			"max" : [ 209 ]
		}
	],
	"bufferViews" : [
		{
			"buffer" : 0,
			"byteOffset" : 0,
			"byteLength" : 2520,
			"target" : 34962
		},
		{
			"buffer" : 0,
			"byteOffset" : 2520,
			"byteLength" : 2520,
			"target" : 34962
		},
		{
			"buffer" : 0,
			"byteOffset" : 5040,
			"byteLength" : 2520,
			"target" : 34962
		},
		{
			"buffer" : 0,
			"byteOffset" : 7560,
			"byteLength" : 210,
			"target" : 34963
		}
	],
	"buffers" : [
		{
			"uri" : "B335111632201063C0.bin",
			"byteLength" : 7770
		}
	]
}
