{
	"asset" : {
		"generator" : "FME 2023.1.0.0",
		"version" : "2.0"
	},
	"materials" : [
		{
			"name" : "default_material",
			"pbrMetallicRoughness" : {
				"baseColorFactor" : [ 1, 1, 1, 1 ],
				"roughnessFactor" : 0.30000000000000004,
				"metallicFactor" : 0.5
			}
		}
	],
	"meshes" : [
		{
			"primitives" : [
				{
					"attributes" : {
						"NORMAL" : 1,
						"POSITION" : 0,
						"COLOR_0" : 2
					},
					"indices" : 3,
					"material" : 0,
					"mode" : 4
				}
			]
		}
	],
	"nodes" : [
		{
			"name" : "B337611633601063C0",
			"matrix" : [ 1, 0, 0, 0, 0, 0, -1, 0, 0, 1, 0, 0, 833761.0625, 2.772002935409546, -816331.5, 1 ],
			"children" : [ 1 ]
		},
		{
			"mesh" : 0
		}
	],
	"scenes" : [
		{
			"nodes" : [ 0 ]
		}
	],
	"scene" : 0,
	"accessors" : [
		{
			"bufferView" : 0,
			"byteOffset" : 0,
			"componentType" : 5126,
			"count" : 426,
			"type" : "VEC3",
			"min" : [ -4.4521484375, -8.5283203125, 0 ],
			"max" : [ 4.4521484375, 8.529296875, 22.375999450683594 ]
		},
		{
			"bufferView" : 1,
			"byteOffset" : 0,
			"componentType" : 5126,
			"count" : 426,
			"type" : "VEC3",
			"min" : [ -0.9715902805328369, -0.9723735451698303, -1 ],
			"max" : [ 1, 0.9723340272903442, 1 ]
		},
		{
			"bufferView" : 2,
			"byteOffset" : 0,
			"componentType" : 5126,
			"count" : 426,
			"type" : "VEC3"
		},
		{
			"bufferView" : 3,
			"byteOffset" : 0,
			"componentType" : 5123,
			"count" : 426,
			"type" : "SCALAR",
			"min" : [ 0 ],
			"max" : [ 425 ]
		}
	],
	"bufferViews" : [
		{
			"buffer" : 0,
			"byteOffset" : 0,
			"byteLength" : 5112,
			"target" : 34962
		},
		{
			"buffer" : 0,
			"byteOffset" : 5112,
			"byteLength" : 5112,
			"target" : 34962
		},
		{
			"buffer" : 0,
			"byteOffset" : 10224,
			"byteLength" : 5112,
			"target" : 34962
		},
		{
			"buffer" : 0,
			"byteOffset" : 15336,
			"byteLength" : 852,
			"target" : 34963
		}
	],
	"buffers" : [
		{
			"uri" : "B337611633601063C0.bin",
			"byteLength" : 16188
		}
	]
}
