{
	"asset" : {
		"generator" : "FME 2022.2.4.0",
		"version" : "2.0"
	},
	"materials" : [
		{
			"name" : "default_material",
			"pbrMetallicRoughness" : {
				"baseColorFactor" : [ 1, 1, 1, 1 ],
				"roughnessFactor" : 0.30000000000000004,
				"metallicFactor" : 0.5
			}
		}
	],
	"meshes" : [
		{
			"primitives" : [
				{
					"attributes" : {
						"NORMAL" : 1,
						"POSITION" : 0,
						"COLOR_0" : 2
					},
					"indices" : 3,
					"material" : 0,
					"mode" : 4
				}
			]
		}
	],
	"nodes" : [
		{
			"name" : "B342511599401063C0",
			"matrix" : [ 1, 0, 0, 0, 0, 0, -1, 0, 0, 1, 0, 0, 834260.375, 3.2330000400543213, -815995.25, 1 ],
			"children" : [ 1 ]
		},
		{
			"mesh" : 0
		}
	],
	"scenes" : [
		{
			"nodes" : [ 0 ]
		}
	],
	"scene" : 0,
	"accessors" : [
		{
			"bufferView" : 0,
			"byteOffset" : 0,
			"componentType" : 5126,
			"count" : 843,
			"type" : "VEC3",
			"min" : [ -14.46484375, -13.234375, 0 ],
			"max" : [ 14.51953125, 13.3134765625, 53.552001953125 ]
		},
		{
			"bufferView" : 1,
			"byteOffset" : 0,
			"componentType" : 5126,
			"count" : 843,
			"type" : "VEC3",
			"min" : [ -0.8113328218460083, -0.8050558567047119, -1 ],
			"max" : [ 0.8115343451499939, 1, 1 ]
		},
		{
			"bufferView" : 2,
			"byteOffset" : 0,
			"componentType" : 5126,
			"count" : 843,
			"type" : "VEC3"
		},
		{
			"bufferView" : 3,
			"byteOffset" : 0,
			"componentType" : 5123,
			"count" : 843,
			"type" : "SCALAR",
			"min" : [ 0 ],
			"max" : [ 842 ]
		}
	],
	"bufferViews" : [
		{
			"buffer" : 0,
			"byteOffset" : 0,
			"byteLength" : 10116,
			"target" : 34962
		},
		{
			"buffer" : 0,
			"byteOffset" : 10116,
			"byteLength" : 10116,
			"target" : 34962
		},
		{
			"buffer" : 0,
			"byteOffset" : 20232,
			"byteLength" : 10116,
			"target" : 34962
		},
		{
			"buffer" : 0,
			"byteOffset" : 30348,
			"byteLength" : 1686,
			"target" : 34963
		}
	],
	"buffers" : [
		{
			"uri" : "B342511599401063C0.bin",
			"byteLength" : 32034
		}
	]
}
