{"asset":{"generator":"FME 2023.2.1.0","version":"2.0"},"materials":[{"name":"T11250198000106E11","pbrMetallicRoughness":{"roughnessFactor":0.984375,"metallicFactor":0.5}}],"meshes":[{"primitives":[{"attributes":{"NORMAL":1,"POSITION":0,"TEXCOORD_0":2},"indices":3,"material":0,"mode":4}]}],"nodes":[{"name":"T11250198000106E11","matrix":[1,0,0,0,0,0,-1,0,0,1,0,0,811625,-9.910989761352539,-820100,1],"children":[1]},{"mesh":0}],"scenes":[{"nodes":[0]}],"scene":0,"accessors":[{"bufferView":0,"byteOffset":0,"componentType":5126,"count":57935,"type":"VEC3","min":[-375,-300.0000305175781,0],"max":[375.0000305175781,300,21.88357162475586]},{"bufferView":1,"byteOffset":0,"componentType":5126,"count":57935,"type":"VEC3","min":[-0.9582005739212036,-0.9878001809120178,-0.9998964071273804],"max":[1,0.9400025010108948,1]},{"bufferView":2,"byteOffset":0,"componentType":5126,"count":57935,"type":"VEC2","min":[0.00013324618339538574,0.00016641616821289062],"max":[0.9998667240142822,0.9998335838317871]},{"bufferView":3,"byteOffset":0,"componentType":5123,"count":67977,"type":"SCALAR","min":[0],"max":[57934]}],"bufferViews":[{"buffer":0,"byteOffset":0,"byteLength":695220,"target":34962},{"buffer":0,"byteOffset":695220,"byteLength":695220,"target":34962},{"buffer":0,"byteOffset":1390440,"byteLength":463480,"target":34962},{"buffer":0,"byteOffset":1853920,"byteLength":135954,"target":34963}],"buffers":[{"uri":"T11250198000106E11.bin","byteLength":1989874}]}