{
	"asset" : {
		"generator" : "FME 2022.2.4.0",
		"version" : "2.0"
	},
	"materials" : [
		{
			"name" : "default_material",
			"pbrMetallicRoughness" : {
				"baseColorFactor" : [ 1, 1, 1, 1 ],
				"roughnessFactor" : 0.30000000000000004,
				"metallicFactor" : 0.5
			}
		}
	],
	"meshes" : [
		{
			"primitives" : [
				{
					"attributes" : {
						"NORMAL" : 1,
						"POSITION" : 0,
						"COLOR_0" : 2
					},
					"indices" : 3,
					"material" : 0,
					"mode" : 4
				}
			]
		}
	],
	"nodes" : [
		{
			"name" : "B330521655701063C0",
			"matrix" : [ 1, 0, 0, 0, 0, 0, -1, 0, 0, 1, 0, 0, 833056.3125, 3.6679999828338623, -816563.4375, 1 ],
			"children" : [ 1 ]
		},
		{
			"mesh" : 0
		}
	],
	"scenes" : [
		{
			"nodes" : [ 0 ]
		}
	],
	"scene" : 0,
	"accessors" : [
		{
			"bufferView" : 0,
			"byteOffset" : 0,
			"componentType" : 5126,
			"count" : 1593,
			"type" : "VEC3",
			"min" : [ -11.2822265625, -12.08203125, 0 ],
			"max" : [ 11.28173828125, 12.08203125, 43.47100067138672 ]
		},
		{
			"bufferView" : 1,
			"byteOffset" : 0,
			"componentType" : 5126,
			"count" : 1593,
			"type" : "VEC3",
			"min" : [ -0.9978801608085632, -0.9986178278923035, -1 ],
			"max" : [ 0.9973465204238892, 0.9966371655464172, 1 ]
		},
		{
			"bufferView" : 2,
			"byteOffset" : 0,
			"componentType" : 5126,
			"count" : 1593,
			"type" : "VEC3"
		},
		{
			"bufferView" : 3,
			"byteOffset" : 0,
			"componentType" : 5123,
			"count" : 1593,
			"type" : "SCALAR",
			"min" : [ 0 ],
			"max" : [ 1592 ]
		}
	],
	"bufferViews" : [
		{
			"buffer" : 0,
			"byteOffset" : 0,
			"byteLength" : 19116,
			"target" : 34962
		},
		{
			"buffer" : 0,
			"byteOffset" : 19116,
			"byteLength" : 19116,
			"target" : 34962
		},
		{
			"buffer" : 0,
			"byteOffset" : 38232,
			"byteLength" : 19116,
			"target" : 34962
		},
		{
			"buffer" : 0,
			"byteOffset" : 57348,
			"byteLength" : 3186,
			"target" : 34963
		}
	],
	"buffers" : [
		{
			"uri" : "B330521655701063C0.bin",
			"byteLength" : 60534
		}
	]
}
