{
	"asset" : {
		"generator" : "FME 2022.2.4.0",
		"version" : "2.0"
	},
	"materials" : [
		{
			"name" : "default_material",
			"pbrMetallicRoughness" : {
				"baseColorFactor" : [ 1, 1, 1, 1 ],
				"roughnessFactor" : 0.30000000000000004,
				"metallicFactor" : 0.5
			}
		}
	],
	"meshes" : [
		{
			"primitives" : [
				{
					"attributes" : {
						"NORMAL" : 1,
						"POSITION" : 0,
						"COLOR_0" : 2
					},
					"indices" : 3,
					"material" : 0,
					"mode" : 4
				}
			]
		}
	],
	"nodes" : [
		{
			"name" : "B336611573001063C0",
			"matrix" : [ 1, 0, 0, 0, 0, 0, -1, 0, 0, 1, 0, 0, 833657.4375, 87.43399810791016, -815729.75, 1 ],
			"children" : [ 1 ]
		},
		{
			"mesh" : 0
		}
	],
	"scenes" : [
		{
			"nodes" : [ 0 ]
		}
	],
	"scene" : 0,
	"accessors" : [
		{
			"bufferView" : 0,
			"byteOffset" : 0,
			"componentType" : 5126,
			"count" : 1866,
			"type" : "VEC3",
			"min" : [ -8.7197265625, -7.9345703125, 0 ],
			"max" : [ 8.720703125, 7.9345703125, 43.53099822998047 ]
		},
		{
			"bufferView" : 1,
			"byteOffset" : 0,
			"componentType" : 5126,
			"count" : 1866,
			"type" : "VEC3",
			"min" : [ -0.9999544024467468, -0.9951624870300293, -1 ],
			"max" : [ 0.9999123215675354, 0.9951280951499939, 1 ]
		},
		{
			"bufferView" : 2,
			"byteOffset" : 0,
			"componentType" : 5126,
			"count" : 1866,
			"type" : "VEC3"
		},
		{
			"bufferView" : 3,
			"byteOffset" : 0,
			"componentType" : 5123,
			"count" : 1866,
			"type" : "SCALAR",
			"min" : [ 0 ],
			"max" : [ 1865 ]
		}
	],
	"bufferViews" : [
		{
			"buffer" : 0,
			"byteOffset" : 0,
			"byteLength" : 22392,
			"target" : 34962
		},
		{
			"buffer" : 0,
			"byteOffset" : 22392,
			"byteLength" : 22392,
			"target" : 34962
		},
		{
			"buffer" : 0,
			"byteOffset" : 44784,
			"byteLength" : 22392,
			"target" : 34962
		},
		{
			"buffer" : 0,
			"byteOffset" : 67176,
			"byteLength" : 3732,
			"target" : 34963
		}
	],
	"buffers" : [
		{
			"uri" : "B336611573001063C0.bin",
			"byteLength" : 70908
		}
	]
}
