{
	"asset" : {
		"generator" : "FME 2023.2.1.0",
		"version" : "2.0"
	},
	"materials" : [
		{
			"name" : "default_material",
			"pbrMetallicRoughness" : {
				"baseColorFactor" : [ 1, 1, 1, 1 ],
				"roughnessFactor" : 0.30000000000000004,
				"metallicFactor" : 0.5
			}
		}
	],
	"meshes" : [
		{
			"primitives" : [
				{
					"attributes" : {
						"NORMAL" : 1,
						"POSITION" : 0,
						"COLOR_0" : 2
					},
					"indices" : 3,
					"material" : 0,
					"mode" : 4
				}
			]
		}
	],
	"nodes" : [
		{
			"name" : "B335921552602063C0",
			"matrix" : [ 1, 0, 0, 0, 0, 0, -1, 0, 0, 1, 0, 0, 833590.0625, 138.8289794921875, -815526.125, 1 ],
			"children" : [ 1 ]
		},
		{
			"mesh" : 0
		}
	],
	"scenes" : [
		{
			"nodes" : [ 0 ]
		}
	],
	"scene" : 0,
	"accessors" : [
		{
			"bufferView" : 0,
			"byteOffset" : 0,
			"componentType" : 5126,
			"count" : 3690,
			"type" : "VEC3",
			"min" : [ -23.01171875, -24.2109375, 0 ],
			"max" : [ 23.01171875, 24.2099609375, 21.333999633789062 ]
		},
		{
			"bufferView" : 1,
			"byteOffset" : 0,
			"componentType" : 5126,
			"count" : 3690,
			"type" : "VEC3",
			"min" : [ -0.9998946785926819, -0.9995431900024414, -1 ],
			"max" : [ 1, 0.9995048642158508, 1 ]
		},
		{
			"bufferView" : 2,
			"byteOffset" : 0,
			"componentType" : 5126,
			"count" : 3690,
			"type" : "VEC3"
		},
		{
			"bufferView" : 3,
			"byteOffset" : 0,
			"componentType" : 5123,
			"count" : 3690,
			"type" : "SCALAR",
			"min" : [ 0 ],
			"max" : [ 3689 ]
		}
	],
	"bufferViews" : [
		{
			"buffer" : 0,
			"byteOffset" : 0,
			"byteLength" : 44280,
			"target" : 34962
		},
		{
			"buffer" : 0,
			"byteOffset" : 44280,
			"byteLength" : 44280,
			"target" : 34962
		},
		{
			"buffer" : 0,
			"byteOffset" : 88560,
			"byteLength" : 44280,
			"target" : 34962
		},
		{
			"buffer" : 0,
			"byteOffset" : 132840,
			"byteLength" : 7380,
			"target" : 34963
		}
	],
	"buffers" : [
		{
			"uri" : "B335921552602063C0.bin",
			"byteLength" : 140220
		}
	]
}
