{
	"asset" : {
		"generator" : "FME 2023.2.1.0",
		"version" : "2.0"
	},
	"materials" : [
		{
			"name" : "default_material",
			"pbrMetallicRoughness" : {
				"baseColorFactor" : [ 1, 1, 1, 1 ],
				"roughnessFactor" : 0.30000000000000004,
				"metallicFactor" : 0.5
			}
		}
	],
	"meshes" : [
		{
			"primitives" : [
				{
					"attributes" : {
						"NORMAL" : 1,
						"POSITION" : 0,
						"COLOR_0" : 2
					},
					"indices" : 3,
					"material" : 0,
					"mode" : 4
				}
			]
		}
	],
	"nodes" : [
		{
			"name" : "B337461627901063C0",
			"matrix" : [ 1, 0, 0, 0, 0, 0, -1, 0, 0, 1, 0, 0, 833746.8125, 2.631999969482422, -816277.75, 1 ],
			"children" : [ 1 ]
		},
		{
			"mesh" : 0
		}
	],
	"scenes" : [
		{
			"nodes" : [ 0 ]
		}
	],
	"scene" : 0,
	"accessors" : [
		{
			"bufferView" : 0,
			"byteOffset" : 0,
			"componentType" : 5126,
			"count" : 450,
			"type" : "VEC3",
			"min" : [ -4.693359375, -6.541015625, 0 ],
			"max" : [ 4.6943359375, 6.5419921875, 26.030000686645508 ]
		},
		{
			"bufferView" : 1,
			"byteOffset" : 0,
			"componentType" : 5126,
			"count" : 450,
			"type" : "VEC3",
			"min" : [ -0.8990488648414612, -0.8916053771972656, -1 ],
			"max" : [ 0.8992351293563843, 0.898529589176178, 1 ]
		},
		{
			"bufferView" : 2,
			"byteOffset" : 0,
			"componentType" : 5126,
			"count" : 450,
			"type" : "VEC3"
		},
		{
			"bufferView" : 3,
			"byteOffset" : 0,
			"componentType" : 5123,
			"count" : 450,
			"type" : "SCALAR",
			"min" : [ 0 ],
			"max" : [ 449 ]
		}
	],
	"bufferViews" : [
		{
			"buffer" : 0,
			"byteOffset" : 0,
			"byteLength" : 5400,
			"target" : 34962
		},
		{
			"buffer" : 0,
			"byteOffset" : 5400,
			"byteLength" : 5400,
			"target" : 34962
		},
		{
			"buffer" : 0,
			"byteOffset" : 10800,
			"byteLength" : 5400,
			"target" : 34962
		},
		{
			"buffer" : 0,
			"byteOffset" : 16200,
			"byteLength" : 900,
			"target" : 34963
		}
	],
	"buffers" : [
		{
			"uri" : "B337461627901063C0.bin",
			"byteLength" : 17100
		}
	]
}
