{
	"asset" : {
		"generator" : "FME 2023.1.0.0",
		"version" : "2.0"
	},
	"materials" : [
		{
			"name" : "default_material",
			"pbrMetallicRoughness" : {
				"baseColorFactor" : [ 1, 1, 1, 1 ],
				"roughnessFactor" : 0.30000000000000004,
				"metallicFactor" : 0.5
			}
		}
	],
	"meshes" : [
		{
			"primitives" : [
				{
					"attributes" : {
						"NORMAL" : 1,
						"POSITION" : 0,
						"COLOR_0" : 2
					},
					"indices" : 3,
					"material" : 0,
					"mode" : 4
				}
			]
		}
	],
	"nodes" : [
		{
			"name" : "B335681619401063C0",
			"matrix" : [ 1, 0, 0, 0, 0, 0, -1, 0, 0, 1, 0, 0, 833569.3125, 5.114990234375, -816188.375, 1 ],
			"children" : [ 1 ]
		},
		{
			"mesh" : 0
		}
	],
	"scenes" : [
		{
			"nodes" : [ 0 ]
		}
	],
	"scene" : 0,
	"accessors" : [
		{
			"bufferView" : 0,
			"byteOffset" : 0,
			"componentType" : 5126,
			"count" : 876,
			"type" : "VEC3",
			"min" : [ -8.62890625, -9.412109375, 0 ],
			"max" : [ 8.62890625, 9.412109375, 26.23699951171875 ]
		},
		{
			"bufferView" : 1,
			"byteOffset" : 0,
			"componentType" : 5126,
			"count" : 876,
			"type" : "VEC3",
			"min" : [ -0.9995582103729248, -0.9947843551635742, -1 ],
			"max" : [ 0.8695458173751831, 1, 1 ]
		},
		{
			"bufferView" : 2,
			"byteOffset" : 0,
			"componentType" : 5126,
			"count" : 876,
			"type" : "VEC3"
		},
		{
			"bufferView" : 3,
			"byteOffset" : 0,
			"componentType" : 5123,
			"count" : 876,
			"type" : "SCALAR",
			"min" : [ 0 ],
			"max" : [ 875 ]
		}
	],
	"bufferViews" : [
		{
			"buffer" : 0,
			"byteOffset" : 0,
			"byteLength" : 10512,
			"target" : 34962
		},
		{
			"buffer" : 0,
			"byteOffset" : 10512,
			"byteLength" : 10512,
			"target" : 34962
		},
		{
			"buffer" : 0,
			"byteOffset" : 21024,
			"byteLength" : 10512,
			"target" : 34962
		},
		{
			"buffer" : 0,
			"byteOffset" : 31536,
			"byteLength" : 1752,
			"target" : 34963
		}
	],
	"buffers" : [
		{
			"uri" : "B335681619401063C0.bin",
			"byteLength" : 33288
		}
	]
}
