{
	"asset" : {
		"generator" : "FME 2022.2.4.0",
		"version" : "2.0"
	},
	"materials" : [
		{
			"name" : "default_material",
			"pbrMetallicRoughness" : {
				"baseColorFactor" : [ 1, 1, 1, 1 ],
				"roughnessFactor" : 0.30000000000000004,
				"metallicFactor" : 0.5
			}
		}
	],
	"meshes" : [
		{
			"primitives" : [
				{
					"attributes" : {
						"NORMAL" : 1,
						"POSITION" : 0,
						"COLOR_0" : 2
					},
					"indices" : 3,
					"material" : 0,
					"mode" : 4
				}
			]
		}
	],
	"nodes" : [
		{
			"name" : "B337701543101063C0",
			"matrix" : [ 1, 0, 0, 0, 0, 0, -1, 0, 0, 1, 0, 0, 833766.375, 126.59400177001953, -815429.9375, 1 ],
			"children" : [ 1 ]
		},
		{
			"mesh" : 0
		}
	],
	"scenes" : [
		{
			"nodes" : [ 0 ]
		}
	],
	"scene" : 0,
	"accessors" : [
		{
			"bufferView" : 0,
			"byteOffset" : 0,
			"componentType" : 5126,
			"count" : 3156,
			"type" : "VEC3",
			"min" : [ -9.517578125, -14.4140625, 0 ],
			"max" : [ 9.517578125, 14.4140625, 41.245994567871094 ]
		},
		{
			"bufferView" : 1,
			"byteOffset" : 0,
			"componentType" : 5126,
			"count" : 3156,
			"type" : "VEC3",
			"min" : [ -0.9555907845497131, -0.9560861587524414, -1 ],
			"max" : [ 0.9560136198997498, 0.9563235640525818, 1 ]
		},
		{
			"bufferView" : 2,
			"byteOffset" : 0,
			"componentType" : 5126,
			"count" : 3156,
			"type" : "VEC3"
		},
		{
			"bufferView" : 3,
			"byteOffset" : 0,
			"componentType" : 5123,
			"count" : 3156,
			"type" : "SCALAR",
			"min" : [ 0 ],
			"max" : [ 3155 ]
		}
	],
	"bufferViews" : [
		{
			"buffer" : 0,
			"byteOffset" : 0,
			"byteLength" : 37872,
			"target" : 34962
		},
		{
			"buffer" : 0,
			"byteOffset" : 37872,
			"byteLength" : 37872,
			"target" : 34962
		},
		{
			"buffer" : 0,
			"byteOffset" : 75744,
			"byteLength" : 37872,
			"target" : 34962
		},
		{
			"buffer" : 0,
			"byteOffset" : 113616,
			"byteLength" : 6312,
			"target" : 34963
		}
	],
	"buffers" : [
		{
			"uri" : "B337701543101063C0.bin",
			"byteLength" : 119928
		}
	]
}
