{
	"asset" : {
		"generator" : "FME 2023.1.0.0",
		"version" : "2.0"
	},
	"materials" : [
		{
			"name" : "default_material",
			"pbrMetallicRoughness" : {
				"baseColorFactor" : [ 1, 1, 1, 1 ],
				"roughnessFactor" : 0.30000000000000004,
				"metallicFactor" : 0.5
			}
		}
	],
	"meshes" : [
		{
			"primitives" : [
				{
					"attributes" : {
						"NORMAL" : 1,
						"POSITION" : 0,
						"COLOR_0" : 2
					},
					"indices" : 3,
					"material" : 0,
					"mode" : 4
				}
			]
		}
	],
	"nodes" : [
		{
			"name" : "B343101509601063C0",
			"matrix" : [ 1, 0, 0, 0, 0, 0, -1, 0, 0, 1, 0, 0, 834312.375, 96.75800323486328, -815100.9375, 1 ],
			"children" : [ 1 ]
		},
		{
			"mesh" : 0
		}
	],
	"scenes" : [
		{
			"nodes" : [ 0 ]
		}
	],
	"scene" : 0,
	"accessors" : [
		{
			"bufferView" : 0,
			"byteOffset" : 0,
			"componentType" : 5126,
			"count" : 795,
			"type" : "VEC3",
			"min" : [ -5.396484375, -9.404296875, 0 ],
			"max" : [ 5.3974609375, 9.404296875, 39.06499481201172 ]
		},
		{
			"bufferView" : 1,
			"byteOffset" : 0,
			"componentType" : 5126,
			"count" : 795,
			"type" : "VEC3",
			"min" : [ -0.9826443791389465, -0.9827006459236145, -1 ],
			"max" : [ 0.9826433658599854, 1, 1 ]
		},
		{
			"bufferView" : 2,
			"byteOffset" : 0,
			"componentType" : 5126,
			"count" : 795,
			"type" : "VEC3"
		},
		{
			"bufferView" : 3,
			"byteOffset" : 0,
			"componentType" : 5123,
			"count" : 795,
			"type" : "SCALAR",
			"min" : [ 0 ],
			"max" : [ 794 ]
		}
	],
	"bufferViews" : [
		{
			"buffer" : 0,
			"byteOffset" : 0,
			"byteLength" : 9540,
			"target" : 34962
		},
		{
			"buffer" : 0,
			"byteOffset" : 9540,
			"byteLength" : 9540,
			"target" : 34962
		},
		{
			"buffer" : 0,
			"byteOffset" : 19080,
			"byteLength" : 9540,
			"target" : 34962
		},
		{
			"buffer" : 0,
			"byteOffset" : 28620,
			"byteLength" : 1590,
			"target" : 34963
		}
	],
	"buffers" : [
		{
			"uri" : "B343101509601063C0.bin",
			"byteLength" : 30210
		}
	]
}
