{
	"asset" : {
		"generator" : "FME 2023.2.1.0",
		"version" : "2.0"
	},
	"materials" : [
		{
			"name" : "default_material",
			"pbrMetallicRoughness" : {
				"baseColorFactor" : [ 1, 1, 1, 1 ],
				"roughnessFactor" : 0.30000000000000004,
				"metallicFactor" : 0.5
			}
		}
	],
	"meshes" : [
		{
			"primitives" : [
				{
					"attributes" : {
						"NORMAL" : 1,
						"POSITION" : 0,
						"COLOR_0" : 2
					},
					"indices" : 3,
					"material" : 0,
					"mode" : 4
				}
			]
		}
	],
	"nodes" : [
		{
			"name" : "B350731533301063C0",
			"matrix" : [ 1, 0, 0, 0, 0, 0, -1, 0, 0, 1, 0, 0, 835072.125, 51.650001525878906, -815327.8125, 1 ],
			"children" : [ 1 ]
		},
		{
			"mesh" : 0
		}
	],
	"scenes" : [
		{
			"nodes" : [ 0 ]
		}
	],
	"scene" : 0,
	"accessors" : [
		{
			"bufferView" : 0,
			"byteOffset" : 0,
			"componentType" : 5126,
			"count" : 16635,
			"type" : "VEC3",
			"min" : [ -37.150390625, -20.8779296875, 0 ],
			"max" : [ 37.150390625, 20.87890625, 171.73275756835938 ]
		},
		{
			"bufferView" : 1,
			"byteOffset" : 0,
			"componentType" : 5126,
			"count" : 16635,
			"type" : "VEC3",
			"min" : [ -0.9998860955238342, -0.9999991059303284, -1 ],
			"max" : [ 0.999978244304657, 0.9999994039535522, 1 ]
		},
		{
			"bufferView" : 2,
			"byteOffset" : 0,
			"componentType" : 5126,
			"count" : 16635,
			"type" : "VEC3"
		},
		{
			"bufferView" : 3,
			"byteOffset" : 0,
			"componentType" : 5123,
			"count" : 16635,
			"type" : "SCALAR",
			"min" : [ 0 ],
			"max" : [ 16634 ]
		}
	],
	"bufferViews" : [
		{
			"buffer" : 0,
			"byteOffset" : 0,
			"byteLength" : 199620,
			"target" : 34962
		},
		{
			"buffer" : 0,
			"byteOffset" : 199620,
			"byteLength" : 199620,
			"target" : 34962
		},
		{
			"buffer" : 0,
			"byteOffset" : 399240,
			"byteLength" : 199620,
			"target" : 34962
		},
		{
			"buffer" : 0,
			"byteOffset" : 598860,
			"byteLength" : 33270,
			"target" : 34963
		}
	],
	"buffers" : [
		{
			"uri" : "B350731533301063C0.bin",
			"byteLength" : 632130
		}
	]
}
