{
	"asset" : {
		"generator" : "FME 2023.1.0.0",
		"version" : "2.0"
	},
	"materials" : [
		{
			"name" : "default_material",
			"pbrMetallicRoughness" : {
				"baseColorFactor" : [ 1, 1, 1, 1 ],
				"roughnessFactor" : 0.30000000000000004,
				"metallicFactor" : 0.5
			}
		}
	],
	"meshes" : [
		{
			"primitives" : [
				{
					"attributes" : {
						"NORMAL" : 1,
						"POSITION" : 0,
						"COLOR_0" : 2
					},
					"indices" : 3,
					"material" : 0,
					"mode" : 4
				}
			]
		}
	],
	"nodes" : [
		{
			"name" : "B342791526101063C0",
			"matrix" : [ 1, 0, 0, 0, 0, 0, -1, 0, 0, 1, 0, 0, 834277.3125, 62.327999114990234, -815251.75, 1 ],
			"children" : [ 1 ]
		},
		{
			"mesh" : 0
		}
	],
	"scenes" : [
		{
			"nodes" : [ 0 ]
		}
	],
	"scene" : 0,
	"accessors" : [
		{
			"bufferView" : 0,
			"byteOffset" : 0,
			"componentType" : 5126,
			"count" : 1323,
			"type" : "VEC3",
			"min" : [ -11.8759765625, -17.9111328125, 0 ],
			"max" : [ 11.876953125, 17.9111328125, 29.59499740600586 ]
		},
		{
			"bufferView" : 1,
			"byteOffset" : 0,
			"componentType" : 5126,
			"count" : 1323,
			"type" : "VEC3",
			"min" : [ -0.9640369415283203, -0.9427222609519958, -1 ],
			"max" : [ 0.9567481875419617, 0.9390355944633484, 1 ]
		},
		{
			"bufferView" : 2,
			"byteOffset" : 0,
			"componentType" : 5126,
			"count" : 1323,
			"type" : "VEC3"
		},
		{
			"bufferView" : 3,
			"byteOffset" : 0,
			"componentType" : 5123,
			"count" : 1323,
			"type" : "SCALAR",
			"min" : [ 0 ],
			"max" : [ 1322 ]
		}
	],
	"bufferViews" : [
		{
			"buffer" : 0,
			"byteOffset" : 0,
			"byteLength" : 15876,
			"target" : 34962
		},
		{
			"buffer" : 0,
			"byteOffset" : 15876,
			"byteLength" : 15876,
			"target" : 34962
		},
		{
			"buffer" : 0,
			"byteOffset" : 31752,
			"byteLength" : 15876,
			"target" : 34962
		},
		{
			"buffer" : 0,
			"byteOffset" : 47628,
			"byteLength" : 2646,
			"target" : 34963
		}
	],
	"buffers" : [
		{
			"uri" : "B342791526101063C0.bin",
			"byteLength" : 50274
		}
	]
}
