{
	"asset" : {
		"generator" : "FME 2023.1.0.0",
		"version" : "2.0"
	},
	"materials" : [
		{
			"name" : "default_material",
			"pbrMetallicRoughness" : {
				"baseColorFactor" : [ 1, 1, 1, 1 ],
				"roughnessFactor" : 0.30000000000000004,
				"metallicFactor" : 0.5
			}
		}
	],
	"meshes" : [
		{
			"primitives" : [
				{
					"attributes" : {
						"NORMAL" : 1,
						"POSITION" : 0,
						"COLOR_0" : 2
					},
					"indices" : 3,
					"material" : 0,
					"mode" : 4
				}
			]
		}
	],
	"nodes" : [
		{
			"name" : "B333991640101063C0",
			"matrix" : [ 1, 0, 0, 0, 0, 0, -1, 0, 0, 1, 0, 0, 833400.0625, 10.19399642944336, -816398.375, 1 ],
			"children" : [ 1 ]
		},
		{
			"mesh" : 0
		}
	],
	"scenes" : [
		{
			"nodes" : [ 0 ]
		}
	],
	"scene" : 0,
	"accessors" : [
		{
			"bufferView" : 0,
			"byteOffset" : 0,
			"componentType" : 5126,
			"count" : 594,
			"type" : "VEC3",
			"min" : [ -7.9951171875, -6.7607421875, 0 ],
			"max" : [ 7.994140625, 6.76171875, 18.64699935913086 ]
		},
		{
			"bufferView" : 1,
			"byteOffset" : 0,
			"componentType" : 5126,
			"count" : 594,
			"type" : "VEC3",
			"min" : [ -0.9870694279670715, -0.8831043839454651, -0.00934728141874075 ],
			"max" : [ 0.9999251365661621, 0.8825764060020447, 1 ]
		},
		{
			"bufferView" : 2,
			"byteOffset" : 0,
			"componentType" : 5126,
			"count" : 594,
			"type" : "VEC3"
		},
		{
			"bufferView" : 3,
			"byteOffset" : 0,
			"componentType" : 5123,
			"count" : 594,
			"type" : "SCALAR",
			"min" : [ 0 ],
			"max" : [ 593 ]
		}
	],
	"bufferViews" : [
		{
			"buffer" : 0,
			"byteOffset" : 0,
			"byteLength" : 7128,
			"target" : 34962
		},
		{
			"buffer" : 0,
			"byteOffset" : 7128,
			"byteLength" : 7128,
			"target" : 34962
		},
		{
			"buffer" : 0,
			"byteOffset" : 14256,
			"byteLength" : 7128,
			"target" : 34962
		},
		{
			"buffer" : 0,
			"byteOffset" : 21384,
			"byteLength" : 1188,
			"target" : 34963
		}
	],
	"buffers" : [
		{
			"uri" : "B333991640101063C0.bin",
			"byteLength" : 22572
		}
	]
}
