{
	"asset" : {
		"generator" : "FME 2023.2.1.0",
		"version" : "2.0"
	},
	"materials" : [
		{
			"name" : "default_material",
			"pbrMetallicRoughness" : {
				"baseColorFactor" : [ 1, 1, 1, 1 ],
				"roughnessFactor" : 0.30000000000000004,
				"metallicFactor" : 0.5
			}
		}
	],
	"meshes" : [
		{
			"primitives" : [
				{
					"attributes" : {
						"NORMAL" : 1,
						"POSITION" : 0,
						"COLOR_0" : 2
					},
					"indices" : 3,
					"material" : 0,
					"mode" : 4
				}
			]
		}
	],
	"nodes" : [
		{
			"name" : "B332501658201063C0",
			"matrix" : [ 1, 0, 0, 0, 0, 0, -1, 0, 0, 1, 0, 0, 833249.125, 19.65399932861328, -816578.375, 1 ],
			"children" : [ 1 ]
		},
		{
			"mesh" : 0
		}
	],
	"scenes" : [
		{
			"nodes" : [ 0 ]
		}
	],
	"scene" : 0,
	"accessors" : [
		{
			"bufferView" : 0,
			"byteOffset" : 0,
			"componentType" : 5126,
			"count" : 696,
			"type" : "VEC3",
			"min" : [ -5.591796875, -7.2275390625, 0 ],
			"max" : [ 5.591796875, 7.2275390625, 68.40499877929688 ]
		},
		{
			"bufferView" : 1,
			"byteOffset" : 0,
			"componentType" : 5126,
			"count" : 696,
			"type" : "VEC3",
			"min" : [ -0.9969529509544373, -0.9970545172691345, -0.0026430326979607344 ],
			"max" : [ 0.9971210360527039, 0.9973825812339783, 1 ]
		},
		{
			"bufferView" : 2,
			"byteOffset" : 0,
			"componentType" : 5126,
			"count" : 696,
			"type" : "VEC3"
		},
		{
			"bufferView" : 3,
			"byteOffset" : 0,
			"componentType" : 5123,
			"count" : 696,
			"type" : "SCALAR",
			"min" : [ 0 ],
			"max" : [ 695 ]
		}
	],
	"bufferViews" : [
		{
			"buffer" : 0,
			"byteOffset" : 0,
			"byteLength" : 8352,
			"target" : 34962
		},
		{
			"buffer" : 0,
			"byteOffset" : 8352,
			"byteLength" : 8352,
			"target" : 34962
		},
		{
			"buffer" : 0,
			"byteOffset" : 16704,
			"byteLength" : 8352,
			"target" : 34962
		},
		{
			"buffer" : 0,
			"byteOffset" : 25056,
			"byteLength" : 1392,
			"target" : 34963
		}
	],
	"buffers" : [
		{
			"uri" : "B332501658201063C0.bin",
			"byteLength" : 26448
		}
	]
}
