{
	"asset" : {
		"generator" : "FME 2023.2.1.0",
		"version" : "2.0"
	},
	"materials" : [
		{
			"name" : "default_material",
			"pbrMetallicRoughness" : {
				"baseColorFactor" : [ 1, 1, 1, 1 ],
				"roughnessFactor" : 0.30000000000000004,
				"metallicFactor" : 0.5
			}
		}
	],
	"meshes" : [
		{
			"primitives" : [
				{
					"attributes" : {
						"NORMAL" : 1,
						"POSITION" : 0,
						"COLOR_0" : 2
					},
					"indices" : 3,
					"material" : 0,
					"mode" : 4
				}
			]
		}
	],
	"nodes" : [
		{
			"name" : "B357171500501063C0",
			"matrix" : [ 1, 0, 0, 0, 0, 0, -1, 0, 0, 1, 0, 0, 835717.1875, 40.797000885009766, -815003.8125, 1 ],
			"children" : [ 1 ]
		},
		{
			"mesh" : 0
		}
	],
	"scenes" : [
		{
			"nodes" : [ 0 ]
		}
	],
	"scene" : 0,
	"accessors" : [
		{
			"bufferView" : 0,
			"byteOffset" : 0,
			"componentType" : 5126,
			"count" : 30,
			"type" : "VEC3",
			"min" : [ -5.009765625, -4.328125, 0 ],
			"max" : [ 5.009765625, 4.328125, 11.733997344970703 ]
		},
		{
			"bufferView" : 1,
			"byteOffset" : 0,
			"componentType" : 5126,
			"count" : 30,
			"type" : "VEC3",
			"min" : [ -0.7899235486984253, -0.7956517934799194, 0 ],
			"max" : [ 0.7959334850311279, 0.7957346439361572, 1 ]
		},
		{
			"bufferView" : 2,
			"byteOffset" : 0,
			"componentType" : 5126,
			"count" : 30,
			"type" : "VEC3"
		},
		{
			"bufferView" : 3,
			"byteOffset" : 0,
			"componentType" : 5121,
			"count" : 30,
			"type" : "SCALAR",
			"min" : [ 0 ],
			"max" : [ 29 ]
		}
	],
	"bufferViews" : [
		{
			"buffer" : 0,
			"byteOffset" : 0,
			"byteLength" : 360,
			"target" : 34962
		},
		{
			"buffer" : 0,
			"byteOffset" : 360,
			"byteLength" : 360,
			"target" : 34962
		},
		{
			"buffer" : 0,
			"byteOffset" : 720,
			"byteLength" : 360,
			"target" : 34962
		},
		{
			"buffer" : 0,
			"byteOffset" : 1080,
			"byteLength" : 30,
			"target" : 34963
		}
	],
	"buffers" : [
		{
			"uri" : "B357171500501063C0.bin",
			"byteLength" : 1110
		}
	]
}
