{
	"asset" : {
		"generator" : "FME 2022.2.4.0",
		"version" : "2.0"
	},
	"materials" : [
		{
			"name" : "default_material",
			"pbrMetallicRoughness" : {
				"baseColorFactor" : [ 1, 1, 1, 1 ],
				"roughnessFactor" : 0.30000000000000004,
				"metallicFactor" : 0.5
			}
		}
	],
	"meshes" : [
		{
			"primitives" : [
				{
					"attributes" : {
						"NORMAL" : 1,
						"POSITION" : 0,
						"COLOR_0" : 2
					},
					"indices" : 3,
					"material" : 0,
					"mode" : 4
				}
			]
		}
	],
	"nodes" : [
		{
			"name" : "B359901504801063C0",
			"matrix" : [ 1, 0, 0, 0, 0, 0, -1, 0, 0, 1, 0, 0, 835990.5625, 8.824999809265137, -815047.6875, 1 ],
			"children" : [ 1 ]
		},
		{
			"mesh" : 0
		}
	],
	"scenes" : [
		{
			"nodes" : [ 0 ]
		}
	],
	"scene" : 0,
	"accessors" : [
		{
			"bufferView" : 0,
			"byteOffset" : 0,
			"componentType" : 5126,
			"count" : 558,
			"type" : "VEC3",
			"min" : [ -2.3720703125, -7.4189453125, 0 ],
			"max" : [ 2.3720703125, 7.41796875, 22.533000946044922 ]
		},
		{
			"bufferView" : 1,
			"byteOffset" : 0,
			"componentType" : 5126,
			"count" : 558,
			"type" : "VEC3",
			"min" : [ -0.9999830722808838, -0.9999790191650391, -1 ],
			"max" : [ 0.9999790191650391, 0.9999789595603943, 1 ]
		},
		{
			"bufferView" : 2,
			"byteOffset" : 0,
			"componentType" : 5126,
			"count" : 558,
			"type" : "VEC3"
		},
		{
			"bufferView" : 3,
			"byteOffset" : 0,
			"componentType" : 5123,
			"count" : 558,
			"type" : "SCALAR",
			"min" : [ 0 ],
			"max" : [ 557 ]
		}
	],
	"bufferViews" : [
		{
			"buffer" : 0,
			"byteOffset" : 0,
			"byteLength" : 6696,
			"target" : 34962
		},
		{
			"buffer" : 0,
			"byteOffset" : 6696,
			"byteLength" : 6696,
			"target" : 34962
		},
		{
			"buffer" : 0,
			"byteOffset" : 13392,
			"byteLength" : 6696,
			"target" : 34962
		},
		{
			"buffer" : 0,
			"byteOffset" : 20088,
			"byteLength" : 1116,
			"target" : 34963
		}
	],
	"buffers" : [
		{
			"uri" : "B359901504801063C0.bin",
			"byteLength" : 21204
		}
	]
}
