{
	"asset" : {
		"generator" : "FME 2022.2.4.0",
		"version" : "2.0"
	},
	"materials" : [
		{
			"name" : "default_material",
			"pbrMetallicRoughness" : {
				"baseColorFactor" : [ 1, 1, 1, 1 ],
				"roughnessFactor" : 0.30000000000000004,
				"metallicFactor" : 0.5
			}
		}
	],
	"meshes" : [
		{
			"primitives" : [
				{
					"attributes" : {
						"NORMAL" : 1,
						"POSITION" : 0,
						"COLOR_0" : 2
					},
					"indices" : 3,
					"material" : 0,
					"mode" : 4
				}
			]
		}
	],
	"nodes" : [
		{
			"name" : "B160261208601062G0",
			"matrix" : [ 1, 0, 0, 0, 0, 0, -1, 0, 0, 1, 0, 0, 816026.3125, 20.866500854492188, -812086.875, 1 ],
			"children" : [ 1 ]
		},
		{
			"mesh" : 0
		}
	],
	"scenes" : [
		{
			"nodes" : [ 0 ]
		}
	],
	"scene" : 0,
	"accessors" : [
		{
			"bufferView" : 0,
			"byteOffset" : 0,
			"componentType" : 5126,
			"count" : 306,
			"type" : "VEC3",
			"min" : [ -6.125, -6.1875, 0 ],
			"max" : [ 6.125, 6.1875, 10.600698471069336 ]
		},
		{
			"bufferView" : 1,
			"byteOffset" : 0,
			"componentType" : 5126,
			"count" : 306,
			"type" : "VEC3",
			"min" : [ -0.8580909371376038, -0.8558054566383362, -1 ],
			"max" : [ 0.8580909371376038, 0.85832279920578, 1 ]
		},
		{
			"bufferView" : 2,
			"byteOffset" : 0,
			"componentType" : 5126,
			"count" : 306,
			"type" : "VEC3"
		},
		{
			"bufferView" : 3,
			"byteOffset" : 0,
			"componentType" : 5123,
			"count" : 306,
			"type" : "SCALAR",
			"min" : [ 0 ],
			"max" : [ 305 ]
		}
	],
	"bufferViews" : [
		{
			"buffer" : 0,
			"byteOffset" : 0,
			"byteLength" : 3672,
			"target" : 34962
		},
		{
			"buffer" : 0,
			"byteOffset" : 3672,
			"byteLength" : 3672,
			"target" : 34962
		},
		{
			"buffer" : 0,
			"byteOffset" : 7344,
			"byteLength" : 3672,
			"target" : 34962
		},
		{
			"buffer" : 0,
			"byteOffset" : 11016,
			"byteLength" : 612,
			"target" : 34963
		}
	],
	"buffers" : [
		{
			"uri" : "B160261208601062G0.bin",
			"byteLength" : 11628
		}
	]
}
