{
	"asset" : {
		"generator" : "FME 2023.1.0.0",
		"version" : "2.0"
	},
	"materials" : [
		{
			"name" : "default_material",
			"pbrMetallicRoughness" : {
				"baseColorFactor" : [ 1, 1, 1, 1 ],
				"roughnessFactor" : 0.30000000000000004,
				"metallicFactor" : 0.5
			}
		}
	],
	"meshes" : [
		{
			"primitives" : [
				{
					"attributes" : {
						"NORMAL" : 1,
						"POSITION" : 0,
						"COLOR_0" : 2
					},
					"indices" : 3,
					"material" : 0,
					"mode" : 4
				}
			]
		}
	],
	"nodes" : [
		{
			"name" : "B336071622801063C0",
			"matrix" : [ 1, 0, 0, 0, 0, 0, -1, 0, 0, 1, 0, 0, 833607.1875, 3.359999895095825, -816228.75, 1 ],
			"children" : [ 1 ]
		},
		{
			"mesh" : 0
		}
	],
	"scenes" : [
		{
			"nodes" : [ 0 ]
		}
	],
	"scene" : 0,
	"accessors" : [
		{
			"bufferView" : 0,
			"byteOffset" : 0,
			"componentType" : 5126,
			"count" : 75,
			"type" : "VEC3",
			"min" : [ -5.7626953125, -7.099609375, 0 ],
			"max" : [ 5.7626953125, 7.0986328125, 22.9010009765625 ]
		},
		{
			"bufferView" : 1,
			"byteOffset" : 0,
			"componentType" : 5126,
			"count" : 75,
			"type" : "VEC3",
			"min" : [ -0.8303837180137634, -0.8302949070930481, -8.511749911122024e-6 ],
			"max" : [ 0.8305087685585022, 0.8305707573890686, 1 ]
		},
		{
			"bufferView" : 2,
			"byteOffset" : 0,
			"componentType" : 5126,
			"count" : 75,
			"type" : "VEC3"
		},
		{
			"bufferView" : 3,
			"byteOffset" : 0,
			"componentType" : 5121,
			"count" : 75,
			"type" : "SCALAR",
			"min" : [ 0 ],
			"max" : [ 74 ]
		}
	],
	"bufferViews" : [
		{
			"buffer" : 0,
			"byteOffset" : 0,
			"byteLength" : 900,
			"target" : 34962
		},
		{
			"buffer" : 0,
			"byteOffset" : 900,
			"byteLength" : 900,
			"target" : 34962
		},
		{
			"buffer" : 0,
			"byteOffset" : 1800,
			"byteLength" : 900,
			"target" : 34962
		},
		{
			"buffer" : 0,
			"byteOffset" : 2700,
			"byteLength" : 75,
			"target" : 34963
		}
	],
	"buffers" : [
		{
			"uri" : "B336071622801063C0.bin",
			"byteLength" : 2775
		}
	]
}
