{
	"asset" : {
		"generator" : "FME 2022.2.4.0",
		"version" : "2.0"
	},
	"materials" : [
		{
			"name" : "default_material",
			"pbrMetallicRoughness" : {
				"baseColorFactor" : [ 1, 1, 1, 1 ],
				"roughnessFactor" : 0.30000000000000004,
				"metallicFactor" : 0.5
			}
		}
	],
	"meshes" : [
		{
			"primitives" : [
				{
					"attributes" : {
						"NORMAL" : 1,
						"POSITION" : 0,
						"COLOR_0" : 2
					},
					"indices" : 3,
					"material" : 0,
					"mode" : 4
				}
			]
		}
	],
	"nodes" : [
		{
			"name" : "B170091478601062G0",
			"matrix" : [ 1, 0, 0, 0, 0, 0, -1, 0, 0, 1, 0, 0, 817010.5625, 23.572500228881836, -814786.0625, 1 ],
			"children" : [ 1 ]
		},
		{
			"mesh" : 0
		}
	],
	"scenes" : [
		{
			"nodes" : [ 0 ]
		}
	],
	"scene" : 0,
	"accessors" : [
		{
			"bufferView" : 0,
			"byteOffset" : 0,
			"componentType" : 5126,
			"count" : 279,
			"type" : "VEC3",
			"min" : [ -6.0625, -6.125, 0 ],
			"max" : [ 6.0625, 6.125, 9.971498489379883 ]
		},
		{
			"bufferView" : 1,
			"byteOffset" : 0,
			"componentType" : 5126,
			"count" : 279,
			"type" : "VEC3",
			"min" : [ -0.7601022720336914, -0.7599546313285828, -1 ],
			"max" : [ 0.7599642872810364, 0.7681999206542969, 1 ]
		},
		{
			"bufferView" : 2,
			"byteOffset" : 0,
			"componentType" : 5126,
			"count" : 279,
			"type" : "VEC3"
		},
		{
			"bufferView" : 3,
			"byteOffset" : 0,
			"componentType" : 5123,
			"count" : 279,
			"type" : "SCALAR",
			"min" : [ 0 ],
			"max" : [ 278 ]
		}
	],
	"bufferViews" : [
		{
			"buffer" : 0,
			"byteOffset" : 0,
			"byteLength" : 3348,
			"target" : 34962
		},
		{
			"buffer" : 0,
			"byteOffset" : 3348,
			"byteLength" : 3348,
			"target" : 34962
		},
		{
			"buffer" : 0,
			"byteOffset" : 6696,
			"byteLength" : 3348,
			"target" : 34962
		},
		{
			"buffer" : 0,
			"byteOffset" : 10044,
			"byteLength" : 558,
			"target" : 34963
		}
	],
	"buffers" : [
		{
			"uri" : "B170091478601062G0.bin",
			"byteLength" : 10602
		}
	]
}
