{
	"asset" : {
		"generator" : "FME 2022.2.4.0",
		"version" : "2.0"
	},
	"materials" : [
		{
			"name" : "default_material",
			"pbrMetallicRoughness" : {
				"baseColorFactor" : [ 1, 1, 1, 1 ],
				"roughnessFactor" : 0.30000000000000004,
				"metallicFactor" : 0.5
			}
		}
	],
	"meshes" : [
		{
			"primitives" : [
				{
					"attributes" : {
						"NORMAL" : 1,
						"POSITION" : 0,
						"COLOR_0" : 2
					},
					"indices" : 3,
					"material" : 0,
					"mode" : 4
				}
			]
		}
	],
	"nodes" : [
		{
			"name" : "B359181557002063C0",
			"matrix" : [ 1, 0, 0, 0, 0, 0, -1, 0, 0, 1, 0, 0, 835952.0625, 2.8529999256134033, -815568.875, 1 ],
			"children" : [ 1 ]
		},
		{
			"mesh" : 0
		}
	],
	"scenes" : [
		{
			"nodes" : [ 0 ]
		}
	],
	"scene" : 0,
	"accessors" : [
		{
			"bufferView" : 0,
			"byteOffset" : 0,
			"componentType" : 5126,
			"count" : 1770,
			"type" : "VEC3",
			"min" : [ -42.3330078125, -20.1171875, 0 ],
			"max" : [ 42.3330078125, 20.1171875, 27.10300064086914 ]
		},
		{
			"bufferView" : 1,
			"byteOffset" : 0,
			"componentType" : 5126,
			"count" : 1770,
			"type" : "VEC3",
			"min" : [ -0.9940903782844543, -0.9956507086753845, -1 ],
			"max" : [ 0.9958725571632385, 0.9942070841789246, 1 ]
		},
		{
			"bufferView" : 2,
			"byteOffset" : 0,
			"componentType" : 5126,
			"count" : 1770,
			"type" : "VEC3"
		},
		{
			"bufferView" : 3,
			"byteOffset" : 0,
			"componentType" : 5123,
			"count" : 1770,
			"type" : "SCALAR",
			"min" : [ 0 ],
			"max" : [ 1769 ]
		}
	],
	"bufferViews" : [
		{
			"buffer" : 0,
			"byteOffset" : 0,
			"byteLength" : 21240,
			"target" : 34962
		},
		{
			"buffer" : 0,
			"byteOffset" : 21240,
			"byteLength" : 21240,
			"target" : 34962
		},
		{
			"buffer" : 0,
			"byteOffset" : 42480,
			"byteLength" : 21240,
			"target" : 34962
		},
		{
			"buffer" : 0,
			"byteOffset" : 63720,
			"byteLength" : 3540,
			"target" : 34963
		}
	],
	"buffers" : [
		{
			"uri" : "B359181557002063C0.bin",
			"byteLength" : 67260
		}
	]
}
