{
	"asset" : {
		"generator" : "FME 2023.1.0.0",
		"version" : "2.0"
	},
	"materials" : [
		{
			"name" : "default_material",
			"pbrMetallicRoughness" : {
				"baseColorFactor" : [ 1, 1, 1, 1 ],
				"roughnessFactor" : 0.30000000000000004,
				"metallicFactor" : 0.5
			}
		}
	],
	"meshes" : [
		{
			"primitives" : [
				{
					"attributes" : {
						"NORMAL" : 1,
						"POSITION" : 0,
						"COLOR_0" : 2
					},
					"indices" : 3,
					"material" : 0,
					"mode" : 4
				}
			]
		}
	],
	"nodes" : [
		{
			"name" : "B352031602601063C0",
			"matrix" : [ 1, 0, 0, 0, 0, 0, -1, 0, 0, 1, 0, 0, 835203.5, 2.7760009765625, -816026, 1 ],
			"children" : [ 1 ]
		},
		{
			"mesh" : 0
		}
	],
	"scenes" : [
		{
			"nodes" : [ 0 ]
		}
	],
	"scene" : 0,
	"accessors" : [
		{
			"bufferView" : 0,
			"byteOffset" : 0,
			"componentType" : 5126,
			"count" : 1164,
			"type" : "VEC3",
			"min" : [ -62.046875, -24.052734375, 0 ],
			"max" : [ 62.046875, 24.0537109375, 6.010000228881836 ]
		},
		{
			"bufferView" : 1,
			"byteOffset" : 0,
			"componentType" : 5126,
			"count" : 1164,
			"type" : "VEC3",
			"min" : [ -0.9959090948104858, -0.9999579191207886, -1 ],
			"max" : [ 0.9983736276626587, 0.9984052181243896, 1 ]
		},
		{
			"bufferView" : 2,
			"byteOffset" : 0,
			"componentType" : 5126,
			"count" : 1164,
			"type" : "VEC3"
		},
		{
			"bufferView" : 3,
			"byteOffset" : 0,
			"componentType" : 5123,
			"count" : 1164,
			"type" : "SCALAR",
			"min" : [ 0 ],
			"max" : [ 1163 ]
		}
	],
	"bufferViews" : [
		{
			"buffer" : 0,
			"byteOffset" : 0,
			"byteLength" : 13968,
			"target" : 34962
		},
		{
			"buffer" : 0,
			"byteOffset" : 13968,
			"byteLength" : 13968,
			"target" : 34962
		},
		{
			"buffer" : 0,
			"byteOffset" : 27936,
			"byteLength" : 13968,
			"target" : 34962
		},
		{
			"buffer" : 0,
			"byteOffset" : 41904,
			"byteLength" : 2328,
			"target" : 34963
		}
	],
	"buffers" : [
		{
			"uri" : "B352031602601063C0.bin",
			"byteLength" : 44232
		}
	]
}
