{"asset":{"generator":"FME 2024.0.0.0","version":"2.0"},"materials":[{"name":"T33000168000106E10_001","pbrMetallicRoughness":{"roughnessFactor":0.984375,"metallicFactor":0.5}}],"meshes":[{"primitives":[{"attributes":{"NORMAL":1,"POSITION":0,"TEXCOORD_0":2},"indices":3,"material":0,"mode":4}]}],"nodes":[{"name":"T33000168000106E10","matrix":[1,0,0,0,0,0,-1,0,0,1,0,0,833375,0,-817100,1],"children":[1]},{"mesh":0}],"scenes":[{"nodes":[0]}],"scene":0,"accessors":[{"bufferView":0,"byteOffset":0,"componentType":5126,"count":8781,"type":"VEC3","min":[-375.5,-300.5,0],"max":[375.5,300.5,5.108225345611572]},{"bufferView":1,"byteOffset":0,"componentType":5126,"count":8781,"type":"VEC3","min":[-0.9554522037506104,-0.99677973985672,-0.9838643670082092],"max":[0.9873643517494202,0.9979668855667114,1]},{"bufferView":2,"byteOffset":0,"componentType":5126,"count":8781,"type":"VEC2","min":[0.0010622759582474828,0.0021555423736572266],"max":[0.9982737898826599,0.9986734986305237]},{"bufferView":3,"byteOffset":0,"componentType":5123,"count":8781,"type":"SCALAR","min":[0],"max":[8780]}],"bufferViews":[{"buffer":0,"byteOffset":0,"byteLength":105372,"target":34962},{"buffer":0,"byteOffset":105372,"byteLength":105372,"target":34962},{"buffer":0,"byteOffset":210744,"byteLength":70248,"target":34962},{"buffer":0,"byteOffset":280992,"byteLength":17562,"target":34963}],"buffers":[{"uri":"T33000168000106E10.bin","byteLength":298554}]}