{
	"asset" : {
		"generator" : "FME 2022.2.4.0",
		"version" : "2.0"
	},
	"materials" : [
		{
			"name" : "default_material",
			"pbrMetallicRoughness" : {
				"baseColorFactor" : [ 1, 1, 1, 1 ],
				"roughnessFactor" : 0.30000000000000004,
				"metallicFactor" : 0.5
			}
		}
	],
	"meshes" : [
		{
			"primitives" : [
				{
					"attributes" : {
						"NORMAL" : 1,
						"POSITION" : 0,
						"COLOR_0" : 2
					},
					"indices" : 3,
					"material" : 0,
					"mode" : 4
				}
			]
		}
	],
	"nodes" : [
		{
			"name" : "B336291582201063C0",
			"matrix" : [ 1, 0, 0, 0, 0, 0, -1, 0, 0, 1, 0, 0, 833623.4375, 86.39199829101562, -815816.125, 1 ],
			"children" : [ 1 ]
		},
		{
			"mesh" : 0
		}
	],
	"scenes" : [
		{
			"nodes" : [ 0 ]
		}
	],
	"scene" : 0,
	"accessors" : [
		{
			"bufferView" : 0,
			"byteOffset" : 0,
			"componentType" : 5126,
			"count" : 1086,
			"type" : "VEC3",
			"min" : [ -9.115234375, -8.85546875, 0 ],
			"max" : [ 9.1162109375, 8.85546875, 77.31500244140625 ]
		},
		{
			"bufferView" : 1,
			"byteOffset" : 0,
			"componentType" : 5126,
			"count" : 1086,
			"type" : "VEC3",
			"min" : [ -0.7748650908470154, -0.7619393467903137, -1 ],
			"max" : [ 0.7664515376091003, 0.761658787727356, 1 ]
		},
		{
			"bufferView" : 2,
			"byteOffset" : 0,
			"componentType" : 5126,
			"count" : 1086,
			"type" : "VEC3"
		},
		{
			"bufferView" : 3,
			"byteOffset" : 0,
			"componentType" : 5123,
			"count" : 1086,
			"type" : "SCALAR",
			"min" : [ 0 ],
			"max" : [ 1085 ]
		}
	],
	"bufferViews" : [
		{
			"buffer" : 0,
			"byteOffset" : 0,
			"byteLength" : 13032,
			"target" : 34962
		},
		{
			"buffer" : 0,
			"byteOffset" : 13032,
			"byteLength" : 13032,
			"target" : 34962
		},
		{
			"buffer" : 0,
			"byteOffset" : 26064,
			"byteLength" : 13032,
			"target" : 34962
		},
		{
			"buffer" : 0,
			"byteOffset" : 39096,
			"byteLength" : 2172,
			"target" : 34963
		}
	],
	"buffers" : [
		{
			"uri" : "B336291582201063C0.bin",
			"byteLength" : 41268
		}
	]
}
