{
	"asset" : {
		"generator" : "FME 2023.2.1.0",
		"version" : "2.0"
	},
	"materials" : [
		{
			"name" : "default_material",
			"pbrMetallicRoughness" : {
				"baseColorFactor" : [ 1, 1, 1, 1 ],
				"roughnessFactor" : 0.30000000000000004,
				"metallicFactor" : 0.5
			}
		}
	],
	"meshes" : [
		{
			"primitives" : [
				{
					"attributes" : {
						"NORMAL" : 1,
						"POSITION" : 0,
						"COLOR_0" : 2
					},
					"indices" : 3,
					"material" : 0,
					"mode" : 4
				}
			]
		}
	],
	"nodes" : [
		{
			"name" : "B331221638301063C0",
			"matrix" : [ 1, 0, 0, 0, 0, 0, -1, 0, 0, 1, 0, 0, 833127.75, 4.618000030517578, -816411.5625, 1 ],
			"children" : [ 1 ]
		},
		{
			"mesh" : 0
		}
	],
	"scenes" : [
		{
			"nodes" : [ 0 ]
		}
	],
	"scene" : 0,
	"accessors" : [
		{
			"bufferView" : 0,
			"byteOffset" : 0,
			"componentType" : 5126,
			"count" : 7977,
			"type" : "VEC3",
			"min" : [ -13.8505859375, -32.59375, 0 ],
			"max" : [ 13.8505859375, 32.59375, 85.01094055175781 ]
		},
		{
			"bufferView" : 1,
			"byteOffset" : 0,
			"componentType" : 5126,
			"count" : 7977,
			"type" : "VEC3",
			"min" : [ -0.9996679425239563, -1, -1 ],
			"max" : [ 1, 0.999804675579071, 1 ]
		},
		{
			"bufferView" : 2,
			"byteOffset" : 0,
			"componentType" : 5126,
			"count" : 7977,
			"type" : "VEC3"
		},
		{
			"bufferView" : 3,
			"byteOffset" : 0,
			"componentType" : 5123,
			"count" : 7977,
			"type" : "SCALAR",
			"min" : [ 0 ],
			"max" : [ 7976 ]
		}
	],
	"bufferViews" : [
		{
			"buffer" : 0,
			"byteOffset" : 0,
			"byteLength" : 95724,
			"target" : 34962
		},
		{
			"buffer" : 0,
			"byteOffset" : 95724,
			"byteLength" : 95724,
			"target" : 34962
		},
		{
			"buffer" : 0,
			"byteOffset" : 191448,
			"byteLength" : 95724,
			"target" : 34962
		},
		{
			"buffer" : 0,
			"byteOffset" : 287172,
			"byteLength" : 15954,
			"target" : 34963
		}
	],
	"buffers" : [
		{
			"uri" : "B331221638301063C0.bin",
			"byteLength" : 303126
		}
	]
}
