{
	"asset" : {
		"generator" : "FME 2022.2.4.0",
		"version" : "2.0"
	},
	"materials" : [
		{
			"name" : "default_material",
			"pbrMetallicRoughness" : {
				"baseColorFactor" : [ 1, 1, 1, 1 ],
				"roughnessFactor" : 0.30000000000000004,
				"metallicFactor" : 0.5
			}
		}
	],
	"meshes" : [
		{
			"primitives" : [
				{
					"attributes" : {
						"NORMAL" : 1,
						"POSITION" : 0,
						"COLOR_0" : 2
					},
					"indices" : 3,
					"material" : 0,
					"mode" : 4
				}
			]
		}
	],
	"nodes" : [
		{
			"name" : "B340721593001063C0",
			"matrix" : [ 1, 0, 0, 0, 0, 0, -1, 0, 0, 1, 0, 0, 834067.0625, 12.461999893188477, -815924.4375, 1 ],
			"children" : [ 1 ]
		},
		{
			"mesh" : 0
		}
	],
	"scenes" : [
		{
			"nodes" : [ 0 ]
		}
	],
	"scene" : 0,
	"accessors" : [
		{
			"bufferView" : 0,
			"byteOffset" : 0,
			"componentType" : 5126,
			"count" : 1443,
			"type" : "VEC3",
			"min" : [ -12.4208984375, -11.634765625, 0 ],
			"max" : [ 12.419921875, 11.6357421875, 48.30500030517578 ]
		},
		{
			"bufferView" : 1,
			"byteOffset" : 0,
			"componentType" : 5126,
			"count" : 1443,
			"type" : "VEC3",
			"min" : [ -0.8071703910827637, -0.81401526927948, -1 ],
			"max" : [ 0.831129252910614, 0.7975444197654724, 1 ]
		},
		{
			"bufferView" : 2,
			"byteOffset" : 0,
			"componentType" : 5126,
			"count" : 1443,
			"type" : "VEC3"
		},
		{
			"bufferView" : 3,
			"byteOffset" : 0,
			"componentType" : 5123,
			"count" : 1443,
			"type" : "SCALAR",
			"min" : [ 0 ],
			"max" : [ 1442 ]
		}
	],
	"bufferViews" : [
		{
			"buffer" : 0,
			"byteOffset" : 0,
			"byteLength" : 17316,
			"target" : 34962
		},
		{
			"buffer" : 0,
			"byteOffset" : 17316,
			"byteLength" : 17316,
			"target" : 34962
		},
		{
			"buffer" : 0,
			"byteOffset" : 34632,
			"byteLength" : 17316,
			"target" : 34962
		},
		{
			"buffer" : 0,
			"byteOffset" : 51948,
			"byteLength" : 2886,
			"target" : 34963
		}
	],
	"buffers" : [
		{
			"uri" : "B340721593001063C0.bin",
			"byteLength" : 54834
		}
	]
}
