{
	"asset" : {
		"generator" : "FME 2023.2.1.0",
		"version" : "2.0"
	},
	"materials" : [
		{
			"name" : "default_material",
			"pbrMetallicRoughness" : {
				"baseColorFactor" : [ 1, 1, 1, 1 ],
				"roughnessFactor" : 0.30000000000000004,
				"metallicFactor" : 0.5
			}
		}
	],
	"meshes" : [
		{
			"primitives" : [
				{
					"attributes" : {
						"NORMAL" : 1,
						"POSITION" : 0,
						"COLOR_0" : 2
					},
					"indices" : 3,
					"material" : 0,
					"mode" : 4
				}
			]
		}
	],
	"nodes" : [
		{
			"name" : "B336341610201063C0",
			"matrix" : [ 1, 0, 0, 0, 0, 0, -1, 0, 0, 1, 0, 0, 833633.8125, 30.425994873046875, -816102.625, 1 ],
			"children" : [ 1 ]
		},
		{
			"mesh" : 0
		}
	],
	"scenes" : [
		{
			"nodes" : [ 0 ]
		}
	],
	"scene" : 0,
	"accessors" : [
		{
			"bufferView" : 0,
			"byteOffset" : 0,
			"componentType" : 5126,
			"count" : 861,
			"type" : "VEC3",
			"min" : [ -4.7763671875, -6.35546875, 0 ],
			"max" : [ 4.7763671875, 6.35546875, 23.21099853515625 ]
		},
		{
			"bufferView" : 1,
			"byteOffset" : 0,
			"componentType" : 5126,
			"count" : 861,
			"type" : "VEC3",
			"min" : [ -1, -1, -0.04761296138167381 ],
			"max" : [ 0.9999853372573853, 0.9999978542327881, 1 ]
		},
		{
			"bufferView" : 2,
			"byteOffset" : 0,
			"componentType" : 5126,
			"count" : 861,
			"type" : "VEC3"
		},
		{
			"bufferView" : 3,
			"byteOffset" : 0,
			"componentType" : 5123,
			"count" : 861,
			"type" : "SCALAR",
			"min" : [ 0 ],
			"max" : [ 860 ]
		}
	],
	"bufferViews" : [
		{
			"buffer" : 0,
			"byteOffset" : 0,
			"byteLength" : 10332,
			"target" : 34962
		},
		{
			"buffer" : 0,
			"byteOffset" : 10332,
			"byteLength" : 10332,
			"target" : 34962
		},
		{
			"buffer" : 0,
			"byteOffset" : 20664,
			"byteLength" : 10332,
			"target" : 34962
		},
		{
			"buffer" : 0,
			"byteOffset" : 30996,
			"byteLength" : 1722,
			"target" : 34963
		}
	],
	"buffers" : [
		{
			"uri" : "B336341610201063C0.bin",
			"byteLength" : 32718
		}
	]
}
