{
	"asset" : {
		"generator" : "FME 2023.1.0.0",
		"version" : "2.0"
	},
	"materials" : [
		{
			"name" : "default_material",
			"pbrMetallicRoughness" : {
				"baseColorFactor" : [ 1, 1, 1, 1 ],
				"roughnessFactor" : 0.30000000000000004,
				"metallicFactor" : 0.5
			}
		}
	],
	"meshes" : [
		{
			"primitives" : [
				{
					"attributes" : {
						"NORMAL" : 1,
						"POSITION" : 0,
						"COLOR_0" : 2
					},
					"indices" : 3,
					"material" : 0,
					"mode" : 4
				}
			]
		}
	],
	"nodes" : [
		{
			"name" : "B356231519201063C0",
			"matrix" : [ 1, 0, 0, 0, 0, 0, -1, 0, 0, 1, 0, 0, 835620.25, 16.260000228881836, -815191, 1 ],
			"children" : [ 1 ]
		},
		{
			"mesh" : 0
		}
	],
	"scenes" : [
		{
			"nodes" : [ 0 ]
		}
	],
	"scene" : 0,
	"accessors" : [
		{
			"bufferView" : 0,
			"byteOffset" : 0,
			"componentType" : 5126,
			"count" : 876,
			"type" : "VEC3",
			"min" : [ -6.0224609375, -5.091796875, 0 ],
			"max" : [ 6.0234375, 5.091796875, 61.02799987792969 ]
		},
		{
			"bufferView" : 1,
			"byteOffset" : 0,
			"componentType" : 5126,
			"count" : 876,
			"type" : "VEC3",
			"min" : [ -0.9882262945175171, -0.9813259243965149, -1 ],
			"max" : [ 0.9880523085594177, 0.9808640480041504, 1 ]
		},
		{
			"bufferView" : 2,
			"byteOffset" : 0,
			"componentType" : 5126,
			"count" : 876,
			"type" : "VEC3"
		},
		{
			"bufferView" : 3,
			"byteOffset" : 0,
			"componentType" : 5123,
			"count" : 876,
			"type" : "SCALAR",
			"min" : [ 0 ],
			"max" : [ 875 ]
		}
	],
	"bufferViews" : [
		{
			"buffer" : 0,
			"byteOffset" : 0,
			"byteLength" : 10512,
			"target" : 34962
		},
		{
			"buffer" : 0,
			"byteOffset" : 10512,
			"byteLength" : 10512,
			"target" : 34962
		},
		{
			"buffer" : 0,
			"byteOffset" : 21024,
			"byteLength" : 10512,
			"target" : 34962
		},
		{
			"buffer" : 0,
			"byteOffset" : 31536,
			"byteLength" : 1752,
			"target" : 34963
		}
	],
	"buffers" : [
		{
			"uri" : "B356231519201063C0.bin",
			"byteLength" : 33288
		}
	]
}
