{
	"asset" : {
		"generator" : "FME 2022.2.4.0",
		"version" : "2.0"
	},
	"materials" : [
		{
			"name" : "default_material",
			"pbrMetallicRoughness" : {
				"baseColorFactor" : [ 1, 1, 1, 1 ],
				"roughnessFactor" : 0.30000000000000004,
				"metallicFactor" : 0.5
			}
		}
	],
	"meshes" : [
		{
			"primitives" : [
				{
					"attributes" : {
						"NORMAL" : 1,
						"POSITION" : 0,
						"COLOR_0" : 2
					},
					"indices" : 3,
					"material" : 0,
					"mode" : 4
				}
			]
		}
	],
	"nodes" : [
		{
			"name" : "B346091642201063C0",
			"matrix" : [ 1, 0, 0, 0, 0, 0, -1, 0, 0, 1, 0, 0, 834609.1875, 5.7969970703125, -816422.5, 1 ],
			"children" : [ 1 ]
		},
		{
			"mesh" : 0
		}
	],
	"scenes" : [
		{
			"nodes" : [ 0 ]
		}
	],
	"scene" : 0,
	"accessors" : [
		{
			"bufferView" : 0,
			"byteOffset" : 0,
			"componentType" : 5126,
			"count" : 174,
			"type" : "VEC3",
			"min" : [ -0.9638671875, -1.484375, 0 ],
			"max" : [ 0.9638671875, 1.4833984375, 0.6440000534057617 ]
		},
		{
			"bufferView" : 1,
			"byteOffset" : 0,
			"componentType" : 5126,
			"count" : 174,
			"type" : "VEC3",
			"min" : [ -0.9061400294303894, -0.7947699427604675, 0.3825823962688446 ],
			"max" : [ 0.9071413278579712, 0.7946516871452332, 1 ]
		},
		{
			"bufferView" : 2,
			"byteOffset" : 0,
			"componentType" : 5126,
			"count" : 174,
			"type" : "VEC3"
		},
		{
			"bufferView" : 3,
			"byteOffset" : 0,
			"componentType" : 5121,
			"count" : 174,
			"type" : "SCALAR",
			"min" : [ 0 ],
			"max" : [ 173 ]
		}
	],
	"bufferViews" : [
		{
			"buffer" : 0,
			"byteOffset" : 0,
			"byteLength" : 2088,
			"target" : 34962
		},
		{
			"buffer" : 0,
			"byteOffset" : 2088,
			"byteLength" : 2088,
			"target" : 34962
		},
		{
			"buffer" : 0,
			"byteOffset" : 4176,
			"byteLength" : 2088,
			"target" : 34962
		},
		{
			"buffer" : 0,
			"byteOffset" : 6264,
			"byteLength" : 174,
			"target" : 34963
		}
	],
	"buffers" : [
		{
			"uri" : "B346091642201063C0.bin",
			"byteLength" : 6438
		}
	]
}
