{
	"asset" : {
		"generator" : "FME 2023.2.1.0",
		"version" : "2.0"
	},
	"materials" : [
		{
			"name" : "default_material",
			"pbrMetallicRoughness" : {
				"baseColorFactor" : [ 1, 1, 1, 1 ],
				"roughnessFactor" : 0.30000000000000004,
				"metallicFactor" : 0.5
			}
		}
	],
	"meshes" : [
		{
			"primitives" : [
				{
					"attributes" : {
						"NORMAL" : 1,
						"POSITION" : 0,
						"COLOR_0" : 2
					},
					"indices" : 3,
					"material" : 0,
					"mode" : 4
				}
			]
		}
	],
	"nodes" : [
		{
			"name" : "B171911444201062G0",
			"matrix" : [ 1, 0, 0, 0, 0, 0, -1, 0, 0, 1, 0, 0, 817191.1875, 10.175000190734863, -814441.875, 1 ],
			"children" : [ 1 ]
		},
		{
			"mesh" : 0
		}
	],
	"scenes" : [
		{
			"nodes" : [ 0 ]
		}
	],
	"scene" : 0,
	"accessors" : [
		{
			"bufferView" : 0,
			"byteOffset" : 0,
			"componentType" : 5126,
			"count" : 606,
			"type" : "VEC3",
			"min" : [ -5.3125, -6.4375, 0 ],
			"max" : [ 5.3125, 6.4375, 10.881199836730957 ]
		},
		{
			"bufferView" : 1,
			"byteOffset" : 0,
			"componentType" : 5126,
			"count" : 606,
			"type" : "VEC3",
			"min" : [ -0.90430748462677, -0.9031702876091003, -1 ],
			"max" : [ 0.9042938947677612, 0.9015337228775024, 1 ]
		},
		{
			"bufferView" : 2,
			"byteOffset" : 0,
			"componentType" : 5126,
			"count" : 606,
			"type" : "VEC3"
		},
		{
			"bufferView" : 3,
			"byteOffset" : 0,
			"componentType" : 5123,
			"count" : 606,
			"type" : "SCALAR",
			"min" : [ 0 ],
			"max" : [ 605 ]
		}
	],
	"bufferViews" : [
		{
			"buffer" : 0,
			"byteOffset" : 0,
			"byteLength" : 7272,
			"target" : 34962
		},
		{
			"buffer" : 0,
			"byteOffset" : 7272,
			"byteLength" : 7272,
			"target" : 34962
		},
		{
			"buffer" : 0,
			"byteOffset" : 14544,
			"byteLength" : 7272,
			"target" : 34962
		},
		{
			"buffer" : 0,
			"byteOffset" : 21816,
			"byteLength" : 1212,
			"target" : 34963
		}
	],
	"buffers" : [
		{
			"uri" : "B171911444201062G0.bin",
			"byteLength" : 23028
		}
	]
}
