{
	"asset" : {
		"generator" : "FME 2023.2.1.0",
		"version" : "2.0"
	},
	"materials" : [
		{
			"name" : "default_material",
			"pbrMetallicRoughness" : {
				"baseColorFactor" : [ 1, 1, 1, 1 ],
				"roughnessFactor" : 0.30000000000000004,
				"metallicFactor" : 0.5
			}
		}
	],
	"meshes" : [
		{
			"primitives" : [
				{
					"attributes" : {
						"NORMAL" : 1,
						"POSITION" : 0,
						"COLOR_0" : 2
					},
					"indices" : 3,
					"material" : 0,
					"mode" : 4
				}
			]
		}
	],
	"nodes" : [
		{
			"name" : "B341091588501063C0",
			"matrix" : [ 1, 0, 0, 0, 0, 0, -1, 0, 0, 1, 0, 0, 834104.8125, 9.913999557495117, -815879.375, 1 ],
			"children" : [ 1 ]
		},
		{
			"mesh" : 0
		}
	],
	"scenes" : [
		{
			"nodes" : [ 0 ]
		}
	],
	"scene" : 0,
	"accessors" : [
		{
			"bufferView" : 0,
			"byteOffset" : 0,
			"componentType" : 5126,
			"count" : 1461,
			"type" : "VEC3",
			"min" : [ -13.31640625, -13.310546875, 0 ],
			"max" : [ 13.31640625, 13.3115234375, 75.91000366210938 ]
		},
		{
			"bufferView" : 1,
			"byteOffset" : 0,
			"componentType" : 5126,
			"count" : 1461,
			"type" : "VEC3",
			"min" : [ -0.9979374408721924, -0.9926344156265259, -1 ],
			"max" : [ 0.885717511177063, 0.9713631868362427, 1 ]
		},
		{
			"bufferView" : 2,
			"byteOffset" : 0,
			"componentType" : 5126,
			"count" : 1461,
			"type" : "VEC3"
		},
		{
			"bufferView" : 3,
			"byteOffset" : 0,
			"componentType" : 5123,
			"count" : 1461,
			"type" : "SCALAR",
			"min" : [ 0 ],
			"max" : [ 1460 ]
		}
	],
	"bufferViews" : [
		{
			"buffer" : 0,
			"byteOffset" : 0,
			"byteLength" : 17532,
			"target" : 34962
		},
		{
			"buffer" : 0,
			"byteOffset" : 17532,
			"byteLength" : 17532,
			"target" : 34962
		},
		{
			"buffer" : 0,
			"byteOffset" : 35064,
			"byteLength" : 17532,
			"target" : 34962
		},
		{
			"buffer" : 0,
			"byteOffset" : 52596,
			"byteLength" : 2922,
			"target" : 34963
		}
	],
	"buffers" : [
		{
			"uri" : "B341091588501063C0.bin",
			"byteLength" : 55518
		}
	]
}
