{
	"asset" : {
		"generator" : "FME 2023.2.1.0",
		"version" : "2.0"
	},
	"materials" : [
		{
			"name" : "default_material",
			"pbrMetallicRoughness" : {
				"baseColorFactor" : [ 1, 1, 1, 1 ],
				"roughnessFactor" : 0.30000000000000004,
				"metallicFactor" : 0.5
			}
		}
	],
	"meshes" : [
		{
			"primitives" : [
				{
					"attributes" : {
						"NORMAL" : 1,
						"POSITION" : 0,
						"COLOR_0" : 2
					},
					"indices" : 3,
					"material" : 0,
					"mode" : 4
				}
			]
		}
	],
	"nodes" : [
		{
			"name" : "B337331577402063C0",
			"matrix" : [ 1, 0, 0, 0, 0, 0, -1, 0, 0, 1, 0, 0, 833733.0625, 67.01199340820312, -815773.625, 1 ],
			"children" : [ 1 ]
		},
		{
			"mesh" : 0
		}
	],
	"scenes" : [
		{
			"nodes" : [ 0 ]
		}
	],
	"scene" : 0,
	"accessors" : [
		{
			"bufferView" : 0,
			"byteOffset" : 0,
			"componentType" : 5126,
			"count" : 1062,
			"type" : "VEC3",
			"min" : [ -8.833984375, -10.2265625, 0 ],
			"max" : [ 8.8349609375, 10.2255859375, 23.808998107910156 ]
		},
		{
			"bufferView" : 1,
			"byteOffset" : 0,
			"componentType" : 5126,
			"count" : 1062,
			"type" : "VEC3",
			"min" : [ -0.9997166991233826, -0.9994664788246155, -1 ],
			"max" : [ 0.9987956881523132, 0.9674018621444702, 1 ]
		},
		{
			"bufferView" : 2,
			"byteOffset" : 0,
			"componentType" : 5126,
			"count" : 1062,
			"type" : "VEC3"
		},
		{
			"bufferView" : 3,
			"byteOffset" : 0,
			"componentType" : 5123,
			"count" : 1062,
			"type" : "SCALAR",
			"min" : [ 0 ],
			"max" : [ 1061 ]
		}
	],
	"bufferViews" : [
		{
			"buffer" : 0,
			"byteOffset" : 0,
			"byteLength" : 12744,
			"target" : 34962
		},
		{
			"buffer" : 0,
			"byteOffset" : 12744,
			"byteLength" : 12744,
			"target" : 34962
		},
		{
			"buffer" : 0,
			"byteOffset" : 25488,
			"byteLength" : 12744,
			"target" : 34962
		},
		{
			"buffer" : 0,
			"byteOffset" : 38232,
			"byteLength" : 2124,
			"target" : 34963
		}
	],
	"buffers" : [
		{
			"uri" : "B337331577402063C0.bin",
			"byteLength" : 40356
		}
	]
}
