{
	"asset" : {
		"generator" : "FME 2023.1.0.0",
		"version" : "2.0"
	},
	"materials" : [
		{
			"name" : "default_material",
			"pbrMetallicRoughness" : {
				"baseColorFactor" : [ 1, 1, 1, 1 ],
				"roughnessFactor" : 0.30000000000000004,
				"metallicFactor" : 0.5
			}
		}
	],
	"meshes" : [
		{
			"primitives" : [
				{
					"attributes" : {
						"NORMAL" : 1,
						"POSITION" : 0,
						"COLOR_0" : 2
					},
					"indices" : 3,
					"material" : 0,
					"mode" : 4
				}
			]
		}
	],
	"nodes" : [
		{
			"name" : "B338801529101063C0",
			"matrix" : [ 1, 0, 0, 0, 0, 0, -1, 0, 0, 1, 0, 0, 833882.3125, 130.8760223388672, -815291.875, 1 ],
			"children" : [ 1 ]
		},
		{
			"mesh" : 0
		}
	],
	"scenes" : [
		{
			"nodes" : [ 0 ]
		}
	],
	"scene" : 0,
	"accessors" : [
		{
			"bufferView" : 0,
			"byteOffset" : 0,
			"componentType" : 5126,
			"count" : 705,
			"type" : "VEC3",
			"min" : [ -14.09765625, -10.9921875, 0 ],
			"max" : [ 14.09765625, 10.9931640625, 23.20098876953125 ]
		},
		{
			"bufferView" : 1,
			"byteOffset" : 0,
			"componentType" : 5126,
			"count" : 705,
			"type" : "VEC3",
			"min" : [ -0.8699243068695068, -0.8563938140869141, -1 ],
			"max" : [ 0.8720664978027344, 0.8687807321548462, 1 ]
		},
		{
			"bufferView" : 2,
			"byteOffset" : 0,
			"componentType" : 5126,
			"count" : 705,
			"type" : "VEC3"
		},
		{
			"bufferView" : 3,
			"byteOffset" : 0,
			"componentType" : 5123,
			"count" : 705,
			"type" : "SCALAR",
			"min" : [ 0 ],
			"max" : [ 704 ]
		}
	],
	"bufferViews" : [
		{
			"buffer" : 0,
			"byteOffset" : 0,
			"byteLength" : 8460,
			"target" : 34962
		},
		{
			"buffer" : 0,
			"byteOffset" : 8460,
			"byteLength" : 8460,
			"target" : 34962
		},
		{
			"buffer" : 0,
			"byteOffset" : 16920,
			"byteLength" : 8460,
			"target" : 34962
		},
		{
			"buffer" : 0,
			"byteOffset" : 25380,
			"byteLength" : 1410,
			"target" : 34963
		}
	],
	"buffers" : [
		{
			"uri" : "B338801529101063C0.bin",
			"byteLength" : 26790
		}
	]
}
