{
	"asset" : {
		"generator" : "FME 2023.1.0.0",
		"version" : "2.0"
	},
	"materials" : [
		{
			"name" : "default_material",
			"pbrMetallicRoughness" : {
				"baseColorFactor" : [ 1, 1, 1, 1 ],
				"roughnessFactor" : 0.30000000000000004,
				"metallicFactor" : 0.5
			}
		}
	],
	"meshes" : [
		{
			"primitives" : [
				{
					"attributes" : {
						"NORMAL" : 1,
						"POSITION" : 0,
						"COLOR_0" : 2
					},
					"indices" : 3,
					"material" : 0,
					"mode" : 4
				}
			]
		}
	],
	"nodes" : [
		{
			"name" : "B333331629201063C0",
			"matrix" : [ 1, 0, 0, 0, 0, 0, -1, 0, 0, 1, 0, 0, 833334.5625, 11.84000015258789, -816292.125, 1 ],
			"children" : [ 1 ]
		},
		{
			"mesh" : 0
		}
	],
	"scenes" : [
		{
			"nodes" : [ 0 ]
		}
	],
	"scene" : 0,
	"accessors" : [
		{
			"bufferView" : 0,
			"byteOffset" : 0,
			"componentType" : 5126,
			"count" : 567,
			"type" : "VEC3",
			"min" : [ -8.2587890625, -7.7548828125, 0 ],
			"max" : [ 8.255859375, 7.7841796875, 28.111000061035156 ]
		},
		{
			"bufferView" : 1,
			"byteOffset" : 0,
			"componentType" : 5126,
			"count" : 567,
			"type" : "VEC3",
			"min" : [ -0.889949381351471, -0.8911649584770203, -1 ],
			"max" : [ 0.8886622786521912, 0.8862937092781067, 1 ]
		},
		{
			"bufferView" : 2,
			"byteOffset" : 0,
			"componentType" : 5126,
			"count" : 567,
			"type" : "VEC3"
		},
		{
			"bufferView" : 3,
			"byteOffset" : 0,
			"componentType" : 5123,
			"count" : 567,
			"type" : "SCALAR",
			"min" : [ 0 ],
			"max" : [ 566 ]
		}
	],
	"bufferViews" : [
		{
			"buffer" : 0,
			"byteOffset" : 0,
			"byteLength" : 6804,
			"target" : 34962
		},
		{
			"buffer" : 0,
			"byteOffset" : 6804,
			"byteLength" : 6804,
			"target" : 34962
		},
		{
			"buffer" : 0,
			"byteOffset" : 13608,
			"byteLength" : 6804,
			"target" : 34962
		},
		{
			"buffer" : 0,
			"byteOffset" : 20412,
			"byteLength" : 1134,
			"target" : 34963
		}
	],
	"buffers" : [
		{
			"uri" : "B333331629201063C0.bin",
			"byteLength" : 21546
		}
	]
}
