{
	"asset" : {
		"generator" : "FME 2023.1.0.0",
		"version" : "2.0"
	},
	"materials" : [
		{
			"name" : "default_material",
			"pbrMetallicRoughness" : {
				"baseColorFactor" : [ 1, 1, 1, 1 ],
				"roughnessFactor" : 0.30000000000000004,
				"metallicFactor" : 0.5
			}
		}
	],
	"meshes" : [
		{
			"primitives" : [
				{
					"attributes" : {
						"NORMAL" : 1,
						"POSITION" : 0,
						"COLOR_0" : 2
					},
					"indices" : 3,
					"material" : 0,
					"mode" : 4
				}
			]
		}
	],
	"nodes" : [
		{
			"name" : "B354301536702063C0",
			"matrix" : [ 1, 0, 0, 0, 0, 0, -1, 0, 0, 1, 0, 0, 835425.0625, 5.599999904632568, -815371.1875, 1 ],
			"children" : [ 1 ]
		},
		{
			"mesh" : 0
		}
	],
	"scenes" : [
		{
			"nodes" : [ 0 ]
		}
	],
	"scene" : 0,
	"accessors" : [
		{
			"bufferView" : 0,
			"byteOffset" : 0,
			"componentType" : 5126,
			"count" : 528,
			"type" : "VEC3",
			"min" : [ -13.576171875, -11.7236328125, 0 ],
			"max" : [ 13.576171875, 11.724609375, 8.812000274658203 ]
		},
		{
			"bufferView" : 1,
			"byteOffset" : 0,
			"componentType" : 5126,
			"count" : 528,
			"type" : "VEC3",
			"min" : [ -0.8259133696556091, -0.8298166394233704, -1 ],
			"max" : [ 0.8259133696556091, 0.8251004815101624, 1 ]
		},
		{
			"bufferView" : 2,
			"byteOffset" : 0,
			"componentType" : 5126,
			"count" : 528,
			"type" : "VEC3"
		},
		{
			"bufferView" : 3,
			"byteOffset" : 0,
			"componentType" : 5123,
			"count" : 528,
			"type" : "SCALAR",
			"min" : [ 0 ],
			"max" : [ 527 ]
		}
	],
	"bufferViews" : [
		{
			"buffer" : 0,
			"byteOffset" : 0,
			"byteLength" : 6336,
			"target" : 34962
		},
		{
			"buffer" : 0,
			"byteOffset" : 6336,
			"byteLength" : 6336,
			"target" : 34962
		},
		{
			"buffer" : 0,
			"byteOffset" : 12672,
			"byteLength" : 6336,
			"target" : 34962
		},
		{
			"buffer" : 0,
			"byteOffset" : 19008,
			"byteLength" : 1056,
			"target" : 34963
		}
	],
	"buffers" : [
		{
			"uri" : "B354301536702063C0.bin",
			"byteLength" : 20064
		}
	]
}
