{
	"asset" : {
		"generator" : "FME 2022.2.4.0",
		"version" : "2.0"
	},
	"materials" : [
		{
			"name" : "default_material",
			"pbrMetallicRoughness" : {
				"baseColorFactor" : [ 1, 1, 1, 1 ],
				"roughnessFactor" : 0.30000000000000004,
				"metallicFactor" : 0.5
			}
		}
	],
	"meshes" : [
		{
			"primitives" : [
				{
					"attributes" : {
						"NORMAL" : 1,
						"POSITION" : 0,
						"COLOR_0" : 2
					},
					"indices" : 3,
					"material" : 0,
					"mode" : 4
				}
			]
		}
	],
	"nodes" : [
		{
			"name" : "B334861580501063C0",
			"matrix" : [ 1, 0, 0, 0, 0, 0, -1, 0, 0, 1, 0, 0, 833490.5625, 120.00201416015625, -815806.875, 1 ],
			"children" : [ 1 ]
		},
		{
			"mesh" : 0
		}
	],
	"scenes" : [
		{
			"nodes" : [ 0 ]
		}
	],
	"scene" : 0,
	"accessors" : [
		{
			"bufferView" : 0,
			"byteOffset" : 0,
			"componentType" : 5126,
			"count" : 963,
			"type" : "VEC3",
			"min" : [ -10.103515625, -8.671875, 0 ],
			"max" : [ 10.103515625, 8.671875, 75.47500610351562 ]
		},
		{
			"bufferView" : 1,
			"byteOffset" : 0,
			"componentType" : 5126,
			"count" : 963,
			"type" : "VEC3",
			"min" : [ -0.8819328546524048, -0.8823529481887817, -1 ],
			"max" : [ 0.8809012770652771, 0.8808515667915344, 1 ]
		},
		{
			"bufferView" : 2,
			"byteOffset" : 0,
			"componentType" : 5126,
			"count" : 963,
			"type" : "VEC3"
		},
		{
			"bufferView" : 3,
			"byteOffset" : 0,
			"componentType" : 5123,
			"count" : 963,
			"type" : "SCALAR",
			"min" : [ 0 ],
			"max" : [ 962 ]
		}
	],
	"bufferViews" : [
		{
			"buffer" : 0,
			"byteOffset" : 0,
			"byteLength" : 11556,
			"target" : 34962
		},
		{
			"buffer" : 0,
			"byteOffset" : 11556,
			"byteLength" : 11556,
			"target" : 34962
		},
		{
			"buffer" : 0,
			"byteOffset" : 23112,
			"byteLength" : 11556,
			"target" : 34962
		},
		{
			"buffer" : 0,
			"byteOffset" : 34668,
			"byteLength" : 1926,
			"target" : 34963
		}
	],
	"buffers" : [
		{
			"uri" : "B334861580501063C0.bin",
			"byteLength" : 36594
		}
	]
}
