{
	"asset" : {
		"generator" : "FME 2023.1.0.0",
		"version" : "2.0"
	},
	"materials" : [
		{
			"name" : "default_material",
			"pbrMetallicRoughness" : {
				"baseColorFactor" : [ 1, 1, 1, 1 ],
				"roughnessFactor" : 0.30000000000000004,
				"metallicFactor" : 0.5
			}
		}
	],
	"meshes" : [
		{
			"primitives" : [
				{
					"attributes" : {
						"NORMAL" : 1,
						"POSITION" : 0,
						"COLOR_0" : 2
					},
					"indices" : 3,
					"material" : 0,
					"mode" : 4
				}
			]
		}
	],
	"nodes" : [
		{
			"name" : "B336871601501063C0",
			"matrix" : [ 1, 0, 0, 0, 0, 0, -1, 0, 0, 1, 0, 0, 833687.0625, 44.79600143432617, -816016.6875, 1 ],
			"children" : [ 1 ]
		},
		{
			"mesh" : 0
		}
	],
	"scenes" : [
		{
			"nodes" : [ 0 ]
		}
	],
	"scene" : 0,
	"accessors" : [
		{
			"bufferView" : 0,
			"byteOffset" : 0,
			"componentType" : 5126,
			"count" : 888,
			"type" : "VEC3",
			"min" : [ -10.328125, -8.916015625, 0 ],
			"max" : [ 10.328125, 8.9150390625, 10.74599838256836 ]
		},
		{
			"bufferView" : 1,
			"byteOffset" : 0,
			"componentType" : 5126,
			"count" : 888,
			"type" : "VEC3",
			"min" : [ -0.7333054542541504, -0.7725977301597595, -1 ],
			"max" : [ 1, 0.7305185794830322, 1 ]
		},
		{
			"bufferView" : 2,
			"byteOffset" : 0,
			"componentType" : 5126,
			"count" : 888,
			"type" : "VEC3"
		},
		{
			"bufferView" : 3,
			"byteOffset" : 0,
			"componentType" : 5123,
			"count" : 888,
			"type" : "SCALAR",
			"min" : [ 0 ],
			"max" : [ 887 ]
		}
	],
	"bufferViews" : [
		{
			"buffer" : 0,
			"byteOffset" : 0,
			"byteLength" : 10656,
			"target" : 34962
		},
		{
			"buffer" : 0,
			"byteOffset" : 10656,
			"byteLength" : 10656,
			"target" : 34962
		},
		{
			"buffer" : 0,
			"byteOffset" : 21312,
			"byteLength" : 10656,
			"target" : 34962
		},
		{
			"buffer" : 0,
			"byteOffset" : 31968,
			"byteLength" : 1776,
			"target" : 34963
		}
	],
	"buffers" : [
		{
			"uri" : "B336871601501063C0.bin",
			"byteLength" : 33744
		}
	]
}
