{
	"asset" : {
		"generator" : "FME 2022.2.4.0",
		"version" : "2.0"
	},
	"materials" : [
		{
			"name" : "default_material",
			"pbrMetallicRoughness" : {
				"baseColorFactor" : [ 1, 1, 1, 1 ],
				"roughnessFactor" : 0.30000000000000004,
				"metallicFactor" : 0.5
			}
		}
	],
	"meshes" : [
		{
			"primitives" : [
				{
					"attributes" : {
						"NORMAL" : 1,
						"POSITION" : 0,
						"COLOR_0" : 2
					},
					"indices" : 3,
					"material" : 0,
					"mode" : 4
				}
			]
		}
	],
	"nodes" : [
		{
			"name" : "B169401450801062G0",
			"matrix" : [ 1, 0, 0, 0, 0, 0, -1, 0, 0, 1, 0, 0, 816939.75, 17.506099700927734, -814509.0625, 1 ],
			"children" : [ 1 ]
		},
		{
			"mesh" : 0
		}
	],
	"scenes" : [
		{
			"nodes" : [ 0 ]
		}
	],
	"scene" : 0,
	"accessors" : [
		{
			"bufferView" : 0,
			"byteOffset" : 0,
			"componentType" : 5126,
			"count" : 66,
			"type" : "VEC3",
			"min" : [ -4.25, -8.6875, 0 ],
			"max" : [ 4.25, 8.6875, 2.3936996459960938 ]
		},
		{
			"bufferView" : 1,
			"byteOffset" : 0,
			"componentType" : 5126,
			"count" : 66,
			"type" : "VEC3",
			"min" : [ -0.9442224502563477, -0.9441925883293152, 0 ],
			"max" : [ 0.9442206621170044, 0.9442976713180542, 1 ]
		},
		{
			"bufferView" : 2,
			"byteOffset" : 0,
			"componentType" : 5126,
			"count" : 66,
			"type" : "VEC3"
		},
		{
			"bufferView" : 3,
			"byteOffset" : 0,
			"componentType" : 5121,
			"count" : 66,
			"type" : "SCALAR",
			"min" : [ 0 ],
			"max" : [ 65 ]
		}
	],
	"bufferViews" : [
		{
			"buffer" : 0,
			"byteOffset" : 0,
			"byteLength" : 792,
			"target" : 34962
		},
		{
			"buffer" : 0,
			"byteOffset" : 792,
			"byteLength" : 792,
			"target" : 34962
		},
		{
			"buffer" : 0,
			"byteOffset" : 1584,
			"byteLength" : 792,
			"target" : 34962
		},
		{
			"buffer" : 0,
			"byteOffset" : 2376,
			"byteLength" : 66,
			"target" : 34963
		}
	],
	"buffers" : [
		{
			"uri" : "B169401450801062G0.bin",
			"byteLength" : 2442
		}
	]
}
