{
	"asset" : {
		"generator" : "FME 2023.2.1.0",
		"version" : "2.0"
	},
	"materials" : [
		{
			"name" : "default_material",
			"pbrMetallicRoughness" : {
				"baseColorFactor" : [ 1, 1, 1, 1 ],
				"roughnessFactor" : 0.30000000000000004,
				"metallicFactor" : 0.5
			}
		}
	],
	"meshes" : [
		{
			"primitives" : [
				{
					"attributes" : {
						"NORMAL" : 1,
						"POSITION" : 0,
						"COLOR_0" : 2
					},
					"indices" : 3,
					"material" : 0,
					"mode" : 4
				}
			]
		}
	],
	"nodes" : [
		{
			"name" : "B345231525701063C0",
			"matrix" : [ 1, 0, 0, 0, 0, 0, -1, 0, 0, 1, 0, 0, 834525.8125, 55.68000030517578, -815251.5625, 1 ],
			"children" : [ 1 ]
		},
		{
			"mesh" : 0
		}
	],
	"scenes" : [
		{
			"nodes" : [ 0 ]
		}
	],
	"scene" : 0,
	"accessors" : [
		{
			"bufferView" : 0,
			"byteOffset" : 0,
			"componentType" : 5126,
			"count" : 714,
			"type" : "VEC3",
			"min" : [ -10.8671875, -10.875, 0 ],
			"max" : [ 10.8671875, 10.8759765625, 23.016998291015625 ]
		},
		{
			"bufferView" : 1,
			"byteOffset" : 0,
			"componentType" : 5126,
			"count" : 714,
			"type" : "VEC3",
			"min" : [ -0.9823201298713684, -0.9821662902832031, -1 ],
			"max" : [ 0.9823150634765625, 0.9819283485412598, 1 ]
		},
		{
			"bufferView" : 2,
			"byteOffset" : 0,
			"componentType" : 5126,
			"count" : 714,
			"type" : "VEC3"
		},
		{
			"bufferView" : 3,
			"byteOffset" : 0,
			"componentType" : 5123,
			"count" : 714,
			"type" : "SCALAR",
			"min" : [ 0 ],
			"max" : [ 713 ]
		}
	],
	"bufferViews" : [
		{
			"buffer" : 0,
			"byteOffset" : 0,
			"byteLength" : 8568,
			"target" : 34962
		},
		{
			"buffer" : 0,
			"byteOffset" : 8568,
			"byteLength" : 8568,
			"target" : 34962
		},
		{
			"buffer" : 0,
			"byteOffset" : 17136,
			"byteLength" : 8568,
			"target" : 34962
		},
		{
			"buffer" : 0,
			"byteOffset" : 25704,
			"byteLength" : 1428,
			"target" : 34963
		}
	],
	"buffers" : [
		{
			"uri" : "B345231525701063C0.bin",
			"byteLength" : 27132
		}
	]
}
