{
	"asset" : {
		"generator" : "FME 2022.2.4.0",
		"version" : "2.0"
	},
	"materials" : [
		{
			"name" : "default_material",
			"pbrMetallicRoughness" : {
				"baseColorFactor" : [ 1, 1, 1, 1 ],
				"roughnessFactor" : 0.30000000000000004,
				"metallicFactor" : 0.5
			}
		}
	],
	"meshes" : [
		{
			"primitives" : [
				{
					"attributes" : {
						"NORMAL" : 1,
						"POSITION" : 0,
						"COLOR_0" : 2
					},
					"indices" : 3,
					"material" : 0,
					"mode" : 4
				}
			]
		}
	],
	"nodes" : [
		{
			"name" : "B338031594001063C0",
			"matrix" : [ 1, 0, 0, 0, 0, 0, -1, 0, 0, 1, 0, 0, 833803, 36.975990295410156, -815940.125, 1 ],
			"children" : [ 1 ]
		},
		{
			"mesh" : 0
		}
	],
	"scenes" : [
		{
			"nodes" : [ 0 ]
		}
	],
	"scene" : 0,
	"accessors" : [
		{
			"bufferView" : 0,
			"byteOffset" : 0,
			"componentType" : 5126,
			"count" : 495,
			"type" : "VEC3",
			"min" : [ -5.91015625, -5.1845703125, 0 ],
			"max" : [ 5.91015625, 5.1845703125, 19.58599853515625 ]
		},
		{
			"bufferView" : 1,
			"byteOffset" : 0,
			"componentType" : 5126,
			"count" : 495,
			"type" : "VEC3",
			"min" : [ -0.7849570512771606, -0.796114444732666, -1 ],
			"max" : [ 1, 0.7551891803741455, 1 ]
		},
		{
			"bufferView" : 2,
			"byteOffset" : 0,
			"componentType" : 5126,
			"count" : 495,
			"type" : "VEC3"
		},
		{
			"bufferView" : 3,
			"byteOffset" : 0,
			"componentType" : 5123,
			"count" : 495,
			"type" : "SCALAR",
			"min" : [ 0 ],
			"max" : [ 494 ]
		}
	],
	"bufferViews" : [
		{
			"buffer" : 0,
			"byteOffset" : 0,
			"byteLength" : 5940,
			"target" : 34962
		},
		{
			"buffer" : 0,
			"byteOffset" : 5940,
			"byteLength" : 5940,
			"target" : 34962
		},
		{
			"buffer" : 0,
			"byteOffset" : 11880,
			"byteLength" : 5940,
			"target" : 34962
		},
		{
			"buffer" : 0,
			"byteOffset" : 17820,
			"byteLength" : 990,
			"target" : 34963
		}
	],
	"buffers" : [
		{
			"uri" : "B338031594001063C0.bin",
			"byteLength" : 18810
		}
	]
}
