{
	"asset" : {
		"generator" : "FME 2023.2.1.0",
		"version" : "2.0"
	},
	"materials" : [
		{
			"name" : "default_material",
			"pbrMetallicRoughness" : {
				"baseColorFactor" : [ 1, 1, 1, 1 ],
				"roughnessFactor" : 0.30000000000000004,
				"metallicFactor" : 0.5
			}
		}
	],
	"meshes" : [
		{
			"primitives" : [
				{
					"attributes" : {
						"NORMAL" : 1,
						"POSITION" : 0,
						"COLOR_0" : 2
					},
					"indices" : 3,
					"material" : 0,
					"mode" : 4
				}
			]
		}
	],
	"nodes" : [
		{
			"name" : "B340031597401063C0",
			"matrix" : [ 1, 0, 0, 0, 0, 0, -1, 0, 0, 1, 0, 0, 834006.75, 20.781999588012695, -815976, 1 ],
			"children" : [ 1 ]
		},
		{
			"mesh" : 0
		}
	],
	"scenes" : [
		{
			"nodes" : [ 0 ]
		}
	],
	"scene" : 0,
	"accessors" : [
		{
			"bufferView" : 0,
			"byteOffset" : 0,
			"componentType" : 5126,
			"count" : 291,
			"type" : "VEC3",
			"min" : [ -5.4228515625, -6.5771484375, 0 ],
			"max" : [ 5.421875, 6.578125, 23.516000747680664 ]
		},
		{
			"bufferView" : 1,
			"byteOffset" : 0,
			"componentType" : 5126,
			"count" : 291,
			"type" : "VEC3",
			"min" : [ -0.8423664569854736, -0.8391657471656799, -1 ],
			"max" : [ 0.8403645157814026, 0.8391656279563904, 1 ]
		},
		{
			"bufferView" : 2,
			"byteOffset" : 0,
			"componentType" : 5126,
			"count" : 291,
			"type" : "VEC3"
		},
		{
			"bufferView" : 3,
			"byteOffset" : 0,
			"componentType" : 5123,
			"count" : 291,
			"type" : "SCALAR",
			"min" : [ 0 ],
			"max" : [ 290 ]
		}
	],
	"bufferViews" : [
		{
			"buffer" : 0,
			"byteOffset" : 0,
			"byteLength" : 3492,
			"target" : 34962
		},
		{
			"buffer" : 0,
			"byteOffset" : 3492,
			"byteLength" : 3492,
			"target" : 34962
		},
		{
			"buffer" : 0,
			"byteOffset" : 6984,
			"byteLength" : 3492,
			"target" : 34962
		},
		{
			"buffer" : 0,
			"byteOffset" : 10476,
			"byteLength" : 582,
			"target" : 34963
		}
	],
	"buffers" : [
		{
			"uri" : "B340031597401063C0.bin",
			"byteLength" : 11058
		}
	]
}
