{
	"asset" : {
		"generator" : "FME 2023.2.1.0",
		"version" : "2.0"
	},
	"materials" : [
		{
			"name" : "default_material",
			"pbrMetallicRoughness" : {
				"baseColorFactor" : [ 1, 1, 1, 1 ],
				"roughnessFactor" : 0.30000000000000004,
				"metallicFactor" : 0.5
			}
		}
	],
	"meshes" : [
		{
			"primitives" : [
				{
					"attributes" : {
						"NORMAL" : 1,
						"POSITION" : 0,
						"COLOR_0" : 2
					},
					"indices" : 3,
					"material" : 0,
					"mode" : 4
				}
			]
		}
	],
	"nodes" : [
		{
			"name" : "B342791569501063C0",
			"matrix" : [ 1, 0, 0, 0, 0, 0, -1, 0, 0, 1, 0, 0, 834288.4375, 5.14300012588501, -815698.25, 1 ],
			"children" : [ 1 ]
		},
		{
			"mesh" : 0
		}
	],
	"scenes" : [
		{
			"nodes" : [ 0 ]
		}
	],
	"scene" : 0,
	"accessors" : [
		{
			"bufferView" : 0,
			"byteOffset" : 0,
			"componentType" : 5126,
			"count" : 2658,
			"type" : "VEC3",
			"min" : [ -16.580078125, -13.7216796875, 0 ],
			"max" : [ 16.58984375, 13.705078125, 137.32501220703125 ]
		},
		{
			"bufferView" : 1,
			"byteOffset" : 0,
			"componentType" : 5126,
			"count" : 2658,
			"type" : "VEC3",
			"min" : [ -0.9978692531585693, -0.9975007772445679, -1 ],
			"max" : [ 0.9978446960449219, 0.9975007772445679, 1 ]
		},
		{
			"bufferView" : 2,
			"byteOffset" : 0,
			"componentType" : 5126,
			"count" : 2658,
			"type" : "VEC3"
		},
		{
			"bufferView" : 3,
			"byteOffset" : 0,
			"componentType" : 5123,
			"count" : 2658,
			"type" : "SCALAR",
			"min" : [ 0 ],
			"max" : [ 2657 ]
		}
	],
	"bufferViews" : [
		{
			"buffer" : 0,
			"byteOffset" : 0,
			"byteLength" : 31896,
			"target" : 34962
		},
		{
			"buffer" : 0,
			"byteOffset" : 31896,
			"byteLength" : 31896,
			"target" : 34962
		},
		{
			"buffer" : 0,
			"byteOffset" : 63792,
			"byteLength" : 31896,
			"target" : 34962
		},
		{
			"buffer" : 0,
			"byteOffset" : 95688,
			"byteLength" : 5316,
			"target" : 34963
		}
	],
	"buffers" : [
		{
			"uri" : "B342791569501063C0.bin",
			"byteLength" : 101004
		}
	]
}
