{"accessors":[{"bufferView":0,"componentType":5126,"count":7773,"type":"VEC3"},{"bufferView":1,"componentType":5126,"count":7773,"type":"VEC3"},{"bufferView":2,"componentType":5126,"count":7773,"max":[37.072265625,22.8271484375,43.8380126953125],"min":[-37.14453125,-22.8701171875,0.0],"type":"VEC3"},{"bufferView":3,"componentType":5123,"count":10791,"max":[7772],"min":[0],"type":"SCALAR"}],"asset":{"generator":"FME 2023.2.2.0","version":"2.0"},"bufferViews":[{"buffer":0,"byteLength":93276,"byteOffset":0,"target":34962},{"buffer":0,"byteLength":93276,"byteOffset":93276,"target":34962},{"buffer":0,"byteLength":93276,"byteOffset":186552,"target":34962},{"buffer":0,"byteLength":21582,"byteOffset":279828,"target":34963}],"buffers":[{"byteLength":301412,"uri":"buffer.bin"}],"materials":[{"name":"default_material","pbrMetallicRoughness":{"baseColorFactor":[1,1,1,1],"metallicFactor":0.5,"roughnessFactor":0.30000000000000004}}],"meshes":[{"primitives":[{"attributes":{"COLOR_0":0,"NORMAL":1,"POSITION":2},"indices":3,"material":0,"mode":4}]}],"nodes":[{"children":[1],"matrix":[1,0,0,0,0,0,-1,0,0,1,0,0,835510.875,17.100000381469727,-817551.375,1],"name":"B355181755401063C0"},{"mesh":0}],"scene":0,"scenes":[{"nodes":[0]}]}
