{
	"asset" : {
		"generator" : "FME 2023.1.0.0",
		"version" : "2.0"
	},
	"materials" : [
		{
			"name" : "default_material",
			"pbrMetallicRoughness" : {
				"baseColorFactor" : [ 1, 1, 1, 1 ],
				"roughnessFactor" : 0.30000000000000004,
				"metallicFactor" : 0.5
			}
		}
	],
	"meshes" : [
		{
			"primitives" : [
				{
					"attributes" : {
						"NORMAL" : 1,
						"POSITION" : 0,
						"COLOR_0" : 2
					},
					"indices" : 3,
					"material" : 0,
					"mode" : 4
				}
			]
		}
	],
	"nodes" : [
		{
			"name" : "B336231628601063C0",
			"matrix" : [ 1, 0, 0, 0, 0, 0, -1, 0, 0, 1, 0, 0, 833623.625, 3.1679999828338623, -816287.3125, 1 ],
			"children" : [ 1 ]
		},
		{
			"mesh" : 0
		}
	],
	"scenes" : [
		{
			"nodes" : [ 0 ]
		}
	],
	"scene" : 0,
	"accessors" : [
		{
			"bufferView" : 0,
			"byteOffset" : 0,
			"componentType" : 5126,
			"count" : 297,
			"type" : "VEC3",
			"min" : [ -4.599609375, -4.8046875, 0 ],
			"max" : [ 4.6005859375, 4.8046875, 22.25899887084961 ]
		},
		{
			"bufferView" : 1,
			"byteOffset" : 0,
			"componentType" : 5126,
			"count" : 297,
			"type" : "VEC3",
			"min" : [ -0.8294369578361511, -0.8300755023956299, -1 ],
			"max" : [ 0.8364611864089966, 0.8300561904907227, 1 ]
		},
		{
			"bufferView" : 2,
			"byteOffset" : 0,
			"componentType" : 5126,
			"count" : 297,
			"type" : "VEC3"
		},
		{
			"bufferView" : 3,
			"byteOffset" : 0,
			"componentType" : 5123,
			"count" : 297,
			"type" : "SCALAR",
			"min" : [ 0 ],
			"max" : [ 296 ]
		}
	],
	"bufferViews" : [
		{
			"buffer" : 0,
			"byteOffset" : 0,
			"byteLength" : 3564,
			"target" : 34962
		},
		{
			"buffer" : 0,
			"byteOffset" : 3564,
			"byteLength" : 3564,
			"target" : 34962
		},
		{
			"buffer" : 0,
			"byteOffset" : 7128,
			"byteLength" : 3564,
			"target" : 34962
		},
		{
			"buffer" : 0,
			"byteOffset" : 10692,
			"byteLength" : 594,
			"target" : 34963
		}
	],
	"buffers" : [
		{
			"uri" : "B336231628601063C0.bin",
			"byteLength" : 11286
		}
	]
}
