{
	"asset" : {
		"generator" : "FME 2022.2.4.0",
		"version" : "2.0"
	},
	"materials" : [
		{
			"name" : "default_material",
			"pbrMetallicRoughness" : {
				"baseColorFactor" : [ 1, 1, 1, 1 ],
				"roughnessFactor" : 0.30000000000000004,
				"metallicFactor" : 0.5
			}
		}
	],
	"meshes" : [
		{
			"primitives" : [
				{
					"attributes" : {
						"NORMAL" : 1,
						"POSITION" : 0,
						"COLOR_0" : 2
					},
					"indices" : 3,
					"material" : 0,
					"mode" : 4
				}
			]
		}
	],
	"nodes" : [
		{
			"name" : "B343511571001063C0",
			"matrix" : [ 1, 0, 0, 0, 0, 0, -1, 0, 0, 1, 0, 0, 834373.875, 2.5920000076293945, -815735, 1 ],
			"children" : [ 1 ]
		},
		{
			"mesh" : 0
		}
	],
	"scenes" : [
		{
			"nodes" : [ 0 ]
		}
	],
	"scene" : 0,
	"accessors" : [
		{
			"bufferView" : 0,
			"byteOffset" : 0,
			"componentType" : 5126,
			"count" : 12585,
			"type" : "VEC3",
			"min" : [ -48.7529296875, -32.34375, 0 ],
			"max" : [ 48.751953125, 32.4677734375, 180.0120086669922 ]
		},
		{
			"bufferView" : 1,
			"byteOffset" : 0,
			"componentType" : 5126,
			"count" : 12585,
			"type" : "VEC3",
			"min" : [ -0.999870777130127, -0.9999018311500549, -1 ],
			"max" : [ 0.9996657967567444, 0.9999997615814209, 1 ]
		},
		{
			"bufferView" : 2,
			"byteOffset" : 0,
			"componentType" : 5126,
			"count" : 12585,
			"type" : "VEC3"
		},
		{
			"bufferView" : 3,
			"byteOffset" : 0,
			"componentType" : 5123,
			"count" : 12585,
			"type" : "SCALAR",
			"min" : [ 0 ],
			"max" : [ 12584 ]
		}
	],
	"bufferViews" : [
		{
			"buffer" : 0,
			"byteOffset" : 0,
			"byteLength" : 151020,
			"target" : 34962
		},
		{
			"buffer" : 0,
			"byteOffset" : 151020,
			"byteLength" : 151020,
			"target" : 34962
		},
		{
			"buffer" : 0,
			"byteOffset" : 302040,
			"byteLength" : 151020,
			"target" : 34962
		},
		{
			"buffer" : 0,
			"byteOffset" : 453060,
			"byteLength" : 25170,
			"target" : 34963
		}
	],
	"buffers" : [
		{
			"uri" : "B343511571001063C0.bin",
			"byteLength" : 478230
		}
	]
}
