{
	"asset" : {
		"generator" : "FME 2023.1.0.0",
		"version" : "2.0"
	},
	"materials" : [
		{
			"name" : "default_material",
			"pbrMetallicRoughness" : {
				"baseColorFactor" : [ 1, 1, 1, 1 ],
				"roughnessFactor" : 0.30000000000000004,
				"metallicFactor" : 0.5
			}
		}
	],
	"meshes" : [
		{
			"primitives" : [
				{
					"attributes" : {
						"NORMAL" : 1,
						"POSITION" : 0,
						"COLOR_0" : 2
					},
					"indices" : 3,
					"material" : 0,
					"mode" : 4
				}
			]
		}
	],
	"nodes" : [
		{
			"name" : "B346551540801063C0",
			"matrix" : [ 1, 0, 0, 0, 0, 0, -1, 0, 0, 1, 0, 0, 834652.75, 24.72599983215332, -815410.625, 1 ],
			"children" : [ 1 ]
		},
		{
			"mesh" : 0
		}
	],
	"scenes" : [
		{
			"nodes" : [ 0 ]
		}
	],
	"scene" : 0,
	"accessors" : [
		{
			"bufferView" : 0,
			"byteOffset" : 0,
			"componentType" : 5126,
			"count" : 648,
			"type" : "VEC3",
			"min" : [ -7.3056640625, -7.296875, 0 ],
			"max" : [ 7.3056640625, 7.296875, 6.020000457763672 ]
		},
		{
			"bufferView" : 1,
			"byteOffset" : 0,
			"componentType" : 5126,
			"count" : 648,
			"type" : "VEC3",
			"min" : [ -0.9665616154670715, -0.9677579998970032, -0.7823790907859802 ],
			"max" : [ 0.9677579402923584, 0.9665616750717163, 1 ]
		},
		{
			"bufferView" : 2,
			"byteOffset" : 0,
			"componentType" : 5126,
			"count" : 648,
			"type" : "VEC3"
		},
		{
			"bufferView" : 3,
			"byteOffset" : 0,
			"componentType" : 5123,
			"count" : 648,
			"type" : "SCALAR",
			"min" : [ 0 ],
			"max" : [ 647 ]
		}
	],
	"bufferViews" : [
		{
			"buffer" : 0,
			"byteOffset" : 0,
			"byteLength" : 7776,
			"target" : 34962
		},
		{
			"buffer" : 0,
			"byteOffset" : 7776,
			"byteLength" : 7776,
			"target" : 34962
		},
		{
			"buffer" : 0,
			"byteOffset" : 15552,
			"byteLength" : 7776,
			"target" : 34962
		},
		{
			"buffer" : 0,
			"byteOffset" : 23328,
			"byteLength" : 1296,
			"target" : 34963
		}
	],
	"buffers" : [
		{
			"uri" : "B346551540801063C0.bin",
			"byteLength" : 24624
		}
	]
}
