{
	"asset" : {
		"generator" : "FME 2023.1.0.0",
		"version" : "2.0"
	},
	"materials" : [
		{
			"name" : "default_material",
			"pbrMetallicRoughness" : {
				"baseColorFactor" : [ 1, 1, 1, 1 ],
				"roughnessFactor" : 0.30000000000000004,
				"metallicFactor" : 0.5
			}
		}
	],
	"meshes" : [
		{
			"primitives" : [
				{
					"attributes" : {
						"NORMAL" : 1,
						"POSITION" : 0,
						"COLOR_0" : 2
					},
					"indices" : 3,
					"material" : 0,
					"mode" : 4
				}
			]
		}
	],
	"nodes" : [
		{
			"name" : "B350801530702063C0",
			"matrix" : [ 1, 0, 0, 0, 0, 0, -1, 0, 0, 1, 0, 0, 835075.3125, 27.047000885009766, -815322.375, 1 ],
			"children" : [ 1 ]
		},
		{
			"mesh" : 0
		}
	],
	"scenes" : [
		{
			"nodes" : [ 0 ]
		}
	],
	"scene" : 0,
	"accessors" : [
		{
			"bufferView" : 0,
			"byteOffset" : 0,
			"componentType" : 5126,
			"count" : 5382,
			"type" : "VEC3",
			"min" : [ -36.5380859375, -24.9853515625, 0 ],
			"max" : [ 36.5380859375, 24.9853515625, 24.60300064086914 ]
		},
		{
			"bufferView" : 1,
			"byteOffset" : 0,
			"componentType" : 5126,
			"count" : 5382,
			"type" : "VEC3",
			"min" : [ -1, -1, -1 ],
			"max" : [ 1, 1, 1 ]
		},
		{
			"bufferView" : 2,
			"byteOffset" : 0,
			"componentType" : 5126,
			"count" : 5382,
			"type" : "VEC3"
		},
		{
			"bufferView" : 3,
			"byteOffset" : 0,
			"componentType" : 5123,
			"count" : 5382,
			"type" : "SCALAR",
			"min" : [ 0 ],
			"max" : [ 5381 ]
		}
	],
	"bufferViews" : [
		{
			"buffer" : 0,
			"byteOffset" : 0,
			"byteLength" : 64584,
			"target" : 34962
		},
		{
			"buffer" : 0,
			"byteOffset" : 64584,
			"byteLength" : 64584,
			"target" : 34962
		},
		{
			"buffer" : 0,
			"byteOffset" : 129168,
			"byteLength" : 64584,
			"target" : 34962
		},
		{
			"buffer" : 0,
			"byteOffset" : 193752,
			"byteLength" : 10764,
			"target" : 34963
		}
	],
	"buffers" : [
		{
			"uri" : "B350801530702063C0.bin",
			"byteLength" : 204516
		}
	]
}
