{
	"asset" : {
		"generator" : "FME 2022.2.4.0",
		"version" : "2.0"
	},
	"materials" : [
		{
			"name" : "default_material",
			"pbrMetallicRoughness" : {
				"baseColorFactor" : [ 1, 1, 1, 1 ],
				"roughnessFactor" : 0.30000000000000004,
				"metallicFactor" : 0.5
			}
		}
	],
	"meshes" : [
		{
			"primitives" : [
				{
					"attributes" : {
						"NORMAL" : 1,
						"POSITION" : 0,
						"COLOR_0" : 2
					},
					"indices" : 3,
					"material" : 0,
					"mode" : 4
				}
			]
		}
	],
	"nodes" : [
		{
			"name" : "B359651553202063C0",
			"matrix" : [ 1, 0, 0, 0, 0, 0, -1, 0, 0, 1, 0, 0, 835977.75, 3.6410000324249268, -815532.5625, 1 ],
			"children" : [ 1 ]
		},
		{
			"mesh" : 0
		}
	],
	"scenes" : [
		{
			"nodes" : [ 0 ]
		}
	],
	"scene" : 0,
	"accessors" : [
		{
			"bufferView" : 0,
			"byteOffset" : 0,
			"componentType" : 5126,
			"count" : 513,
			"type" : "VEC3",
			"min" : [ -18.49609375, -9.6044921875, 0 ],
			"max" : [ 18.4970703125, 9.60546875, 5.885000228881836 ]
		},
		{
			"bufferView" : 1,
			"byteOffset" : 0,
			"componentType" : 5126,
			"count" : 513,
			"type" : "VEC3",
			"min" : [ -0.9947062730789185, -0.9936756491661072, -1 ],
			"max" : [ 0.9936232566833496, 0.9939333200454712, 1 ]
		},
		{
			"bufferView" : 2,
			"byteOffset" : 0,
			"componentType" : 5126,
			"count" : 513,
			"type" : "VEC3"
		},
		{
			"bufferView" : 3,
			"byteOffset" : 0,
			"componentType" : 5123,
			"count" : 513,
			"type" : "SCALAR",
			"min" : [ 0 ],
			"max" : [ 512 ]
		}
	],
	"bufferViews" : [
		{
			"buffer" : 0,
			"byteOffset" : 0,
			"byteLength" : 6156,
			"target" : 34962
		},
		{
			"buffer" : 0,
			"byteOffset" : 6156,
			"byteLength" : 6156,
			"target" : 34962
		},
		{
			"buffer" : 0,
			"byteOffset" : 12312,
			"byteLength" : 6156,
			"target" : 34962
		},
		{
			"buffer" : 0,
			"byteOffset" : 18468,
			"byteLength" : 1026,
			"target" : 34963
		}
	],
	"buffers" : [
		{
			"uri" : "B359651553202063C0.bin",
			"byteLength" : 19494
		}
	]
}
