{
	"asset" : {
		"generator" : "FME 2023.2.1.0",
		"version" : "2.0"
	},
	"materials" : [
		{
			"name" : "default_material",
			"pbrMetallicRoughness" : {
				"baseColorFactor" : [ 1, 1, 1, 1 ],
				"roughnessFactor" : 0.30000000000000004,
				"metallicFactor" : 0.5
			}
		}
	],
	"meshes" : [
		{
			"primitives" : [
				{
					"attributes" : {
						"NORMAL" : 1,
						"POSITION" : 0,
						"COLOR_0" : 2
					},
					"indices" : 3,
					"material" : 0,
					"mode" : 4
				}
			]
		}
	],
	"nodes" : [
		{
			"name" : "B346721548601063C0",
			"matrix" : [ 1, 0, 0, 0, 0, 0, -1, 0, 0, 1, 0, 0, 834682.0625, 14.965999603271484, -815485.875, 1 ],
			"children" : [ 1 ]
		},
		{
			"mesh" : 0
		}
	],
	"scenes" : [
		{
			"nodes" : [ 0 ]
		}
	],
	"scene" : 0,
	"accessors" : [
		{
			"bufferView" : 0,
			"byteOffset" : 0,
			"componentType" : 5126,
			"count" : 717,
			"type" : "VEC3",
			"min" : [ -17.5791015625, -23.3681640625, 0 ],
			"max" : [ 17.578125, 23.369140625, 18.673999786376953 ]
		},
		{
			"bufferView" : 1,
			"byteOffset" : 0,
			"componentType" : 5126,
			"count" : 717,
			"type" : "VEC3",
			"min" : [ -0.7585448622703552, -0.7599025368690491, -1 ],
			"max" : [ 0.7590146660804749, 0.7585458159446716, 1 ]
		},
		{
			"bufferView" : 2,
			"byteOffset" : 0,
			"componentType" : 5126,
			"count" : 717,
			"type" : "VEC3"
		},
		{
			"bufferView" : 3,
			"byteOffset" : 0,
			"componentType" : 5123,
			"count" : 717,
			"type" : "SCALAR",
			"min" : [ 0 ],
			"max" : [ 716 ]
		}
	],
	"bufferViews" : [
		{
			"buffer" : 0,
			"byteOffset" : 0,
			"byteLength" : 8604,
			"target" : 34962
		},
		{
			"buffer" : 0,
			"byteOffset" : 8604,
			"byteLength" : 8604,
			"target" : 34962
		},
		{
			"buffer" : 0,
			"byteOffset" : 17208,
			"byteLength" : 8604,
			"target" : 34962
		},
		{
			"buffer" : 0,
			"byteOffset" : 25812,
			"byteLength" : 1434,
			"target" : 34963
		}
	],
	"buffers" : [
		{
			"uri" : "B346721548601063C0.bin",
			"byteLength" : 27246
		}
	]
}
