{
	"asset" : {
		"generator" : "FME 2022.2.4.0",
		"version" : "2.0"
	},
	"materials" : [
		{
			"name" : "default_material",
			"pbrMetallicRoughness" : {
				"baseColorFactor" : [ 1, 1, 1, 1 ],
				"roughnessFactor" : 0.30000000000000004,
				"metallicFactor" : 0.5
			}
		}
	],
	"meshes" : [
		{
			"primitives" : [
				{
					"attributes" : {
						"NORMAL" : 1,
						"POSITION" : 0,
						"COLOR_0" : 2
					},
					"indices" : 3,
					"material" : 0,
					"mode" : 4
				}
			]
		}
	],
	"nodes" : [
		{
			"name" : "B358371554202063C0",
			"matrix" : [ 1, 0, 0, 0, 0, 0, -1, 0, 0, 1, 0, 0, 835837.625, 3.180000066757202, -815542.125, 1 ],
			"children" : [ 1 ]
		},
		{
			"mesh" : 0
		}
	],
	"scenes" : [
		{
			"nodes" : [ 0 ]
		}
	],
	"scene" : 0,
	"accessors" : [
		{
			"bufferView" : 0,
			"byteOffset" : 0,
			"componentType" : 5126,
			"count" : 789,
			"type" : "VEC3",
			"min" : [ -14.072265625, -9.3740234375, 0 ],
			"max" : [ 14.0732421875, 9.3740234375, 15.260000228881836 ]
		},
		{
			"bufferView" : 1,
			"byteOffset" : 0,
			"componentType" : 5126,
			"count" : 789,
			"type" : "VEC3",
			"min" : [ -0.995410144329071, -0.9940875172615051, -1 ],
			"max" : [ 0.9999739527702332, 0.9944575428962708, 1 ]
		},
		{
			"bufferView" : 2,
			"byteOffset" : 0,
			"componentType" : 5126,
			"count" : 789,
			"type" : "VEC3"
		},
		{
			"bufferView" : 3,
			"byteOffset" : 0,
			"componentType" : 5123,
			"count" : 789,
			"type" : "SCALAR",
			"min" : [ 0 ],
			"max" : [ 788 ]
		}
	],
	"bufferViews" : [
		{
			"buffer" : 0,
			"byteOffset" : 0,
			"byteLength" : 9468,
			"target" : 34962
		},
		{
			"buffer" : 0,
			"byteOffset" : 9468,
			"byteLength" : 9468,
			"target" : 34962
		},
		{
			"buffer" : 0,
			"byteOffset" : 18936,
			"byteLength" : 9468,
			"target" : 34962
		},
		{
			"buffer" : 0,
			"byteOffset" : 28404,
			"byteLength" : 1578,
			"target" : 34963
		}
	],
	"buffers" : [
		{
			"uri" : "B358371554202063C0.bin",
			"byteLength" : 29982
		}
	]
}
