{
	"asset" : {
		"generator" : "FME 2023.2.1.0",
		"version" : "2.0"
	},
	"materials" : [
		{
			"name" : "default_material",
			"pbrMetallicRoughness" : {
				"baseColorFactor" : [ 1, 1, 1, 1 ],
				"roughnessFactor" : 0.30000000000000004,
				"metallicFactor" : 0.5
			}
		}
	],
	"meshes" : [
		{
			"primitives" : [
				{
					"attributes" : {
						"NORMAL" : 1,
						"POSITION" : 0,
						"COLOR_0" : 2
					},
					"indices" : 3,
					"material" : 0,
					"mode" : 4
				}
			]
		}
	],
	"nodes" : [
		{
			"name" : "B353191502701063C0",
			"matrix" : [ 1, 0, 0, 0, 0, 0, -1, 0, 0, 1, 0, 0, 835320.125, 112.93399810791016, -815030.8125, 1 ],
			"children" : [ 1 ]
		},
		{
			"mesh" : 0
		}
	],
	"scenes" : [
		{
			"nodes" : [ 0 ]
		}
	],
	"scene" : 0,
	"accessors" : [
		{
			"bufferView" : 0,
			"byteOffset" : 0,
			"componentType" : 5126,
			"count" : 1638,
			"type" : "VEC3",
			"min" : [ -12.7880859375, -8.298828125, 0 ],
			"max" : [ 12.787109375, 8.298828125, 14.709999084472656 ]
		},
		{
			"bufferView" : 1,
			"byteOffset" : 0,
			"componentType" : 5126,
			"count" : 1638,
			"type" : "VEC3",
			"min" : [ -0.962788462638855, -0.9631684422492981, -1 ],
			"max" : [ 0.999935507774353, 0.9625189304351807, 1 ]
		},
		{
			"bufferView" : 2,
			"byteOffset" : 0,
			"componentType" : 5126,
			"count" : 1638,
			"type" : "VEC3"
		},
		{
			"bufferView" : 3,
			"byteOffset" : 0,
			"componentType" : 5123,
			"count" : 1638,
			"type" : "SCALAR",
			"min" : [ 0 ],
			"max" : [ 1637 ]
		}
	],
	"bufferViews" : [
		{
			"buffer" : 0,
			"byteOffset" : 0,
			"byteLength" : 19656,
			"target" : 34962
		},
		{
			"buffer" : 0,
			"byteOffset" : 19656,
			"byteLength" : 19656,
			"target" : 34962
		},
		{
			"buffer" : 0,
			"byteOffset" : 39312,
			"byteLength" : 19656,
			"target" : 34962
		},
		{
			"buffer" : 0,
			"byteOffset" : 58968,
			"byteLength" : 3276,
			"target" : 34963
		}
	],
	"buffers" : [
		{
			"uri" : "B353191502701063C0.bin",
			"byteLength" : 62244
		}
	]
}
