{
	"asset" : {
		"generator" : "FME 2023.1.0.0",
		"version" : "2.0"
	},
	"materials" : [
		{
			"name" : "default_material",
			"pbrMetallicRoughness" : {
				"baseColorFactor" : [ 1, 1, 1, 1 ],
				"roughnessFactor" : 0.30000000000000004,
				"metallicFactor" : 0.5
			}
		}
	],
	"meshes" : [
		{
			"primitives" : [
				{
					"attributes" : {
						"NORMAL" : 1,
						"POSITION" : 0,
						"COLOR_0" : 2
					},
					"indices" : 3,
					"material" : 0,
					"mode" : 4
				}
			]
		}
	],
	"nodes" : [
		{
			"name" : "B336061609701063C0",
			"matrix" : [ 1, 0, 0, 0, 0, 0, -1, 0, 0, 1, 0, 0, 833605.9375, 57.98699951171875, -816094.375, 1 ],
			"children" : [ 1 ]
		},
		{
			"mesh" : 0
		}
	],
	"scenes" : [
		{
			"nodes" : [ 0 ]
		}
	],
	"scene" : 0,
	"accessors" : [
		{
			"bufferView" : 0,
			"byteOffset" : 0,
			"componentType" : 5126,
			"count" : 4911,
			"type" : "VEC3",
			"min" : [ -14.78515625, -11.9248046875, 0 ],
			"max" : [ 14.78515625, 11.92578125, 117.24200439453125 ]
		},
		{
			"bufferView" : 1,
			"byteOffset" : 0,
			"componentType" : 5126,
			"count" : 4911,
			"type" : "VEC3",
			"min" : [ -0.9974587559700012, -1, -1 ],
			"max" : [ 1, 1, 1 ]
		},
		{
			"bufferView" : 2,
			"byteOffset" : 0,
			"componentType" : 5126,
			"count" : 4911,
			"type" : "VEC3"
		},
		{
			"bufferView" : 3,
			"byteOffset" : 0,
			"componentType" : 5123,
			"count" : 4911,
			"type" : "SCALAR",
			"min" : [ 0 ],
			"max" : [ 4910 ]
		}
	],
	"bufferViews" : [
		{
			"buffer" : 0,
			"byteOffset" : 0,
			"byteLength" : 58932,
			"target" : 34962
		},
		{
			"buffer" : 0,
			"byteOffset" : 58932,
			"byteLength" : 58932,
			"target" : 34962
		},
		{
			"buffer" : 0,
			"byteOffset" : 117864,
			"byteLength" : 58932,
			"target" : 34962
		},
		{
			"buffer" : 0,
			"byteOffset" : 176796,
			"byteLength" : 9822,
			"target" : 34963
		}
	],
	"buffers" : [
		{
			"uri" : "B336061609701063C0.bin",
			"byteLength" : 186618
		}
	]
}
