{
	"asset" : {
		"generator" : "FME 2023.1.0.0",
		"version" : "2.0"
	},
	"materials" : [
		{
			"name" : "default_material",
			"pbrMetallicRoughness" : {
				"baseColorFactor" : [ 1, 1, 1, 1 ],
				"roughnessFactor" : 0.30000000000000004,
				"metallicFactor" : 0.5
			}
		}
	],
	"meshes" : [
		{
			"primitives" : [
				{
					"attributes" : {
						"NORMAL" : 1,
						"POSITION" : 0,
						"COLOR_0" : 2
					},
					"indices" : 3,
					"material" : 0,
					"mode" : 4
				}
			]
		}
	],
	"nodes" : [
		{
			"name" : "B335621580101063C0",
			"matrix" : [ 1, 0, 0, 0, 0, 0, -1, 0, 0, 1, 0, 0, 833567.0625, 100.2490005493164, -815804.625, 1 ],
			"children" : [ 1 ]
		},
		{
			"mesh" : 0
		}
	],
	"scenes" : [
		{
			"nodes" : [ 0 ]
		}
	],
	"scene" : 0,
	"accessors" : [
		{
			"bufferView" : 0,
			"byteOffset" : 0,
			"componentType" : 5126,
			"count" : 633,
			"type" : "VEC3",
			"min" : [ -9.01171875, -9.8427734375, 0 ],
			"max" : [ 9.01171875, 9.8427734375, 22.55500030517578 ]
		},
		{
			"bufferView" : 1,
			"byteOffset" : 0,
			"componentType" : 5126,
			"count" : 633,
			"type" : "VEC3",
			"min" : [ -0.9867280125617981, -0.7733921408653259, -1 ],
			"max" : [ 0.7739158272743225, 0.7777935266494751, 1 ]
		},
		{
			"bufferView" : 2,
			"byteOffset" : 0,
			"componentType" : 5126,
			"count" : 633,
			"type" : "VEC3"
		},
		{
			"bufferView" : 3,
			"byteOffset" : 0,
			"componentType" : 5123,
			"count" : 633,
			"type" : "SCALAR",
			"min" : [ 0 ],
			"max" : [ 632 ]
		}
	],
	"bufferViews" : [
		{
			"buffer" : 0,
			"byteOffset" : 0,
			"byteLength" : 7596,
			"target" : 34962
		},
		{
			"buffer" : 0,
			"byteOffset" : 7596,
			"byteLength" : 7596,
			"target" : 34962
		},
		{
			"buffer" : 0,
			"byteOffset" : 15192,
			"byteLength" : 7596,
			"target" : 34962
		},
		{
			"buffer" : 0,
			"byteOffset" : 22788,
			"byteLength" : 1266,
			"target" : 34963
		}
	],
	"buffers" : [
		{
			"uri" : "B335621580101063C0.bin",
			"byteLength" : 24054
		}
	]
}
