{
	"asset" : {
		"generator" : "FME 2022.2.4.0",
		"version" : "2.0"
	},
	"materials" : [
		{
			"name" : "default_material",
			"pbrMetallicRoughness" : {
				"baseColorFactor" : [ 1, 1, 1, 1 ],
				"roughnessFactor" : 0.30000000000000004,
				"metallicFactor" : 0.5
			}
		}
	],
	"meshes" : [
		{
			"primitives" : [
				{
					"attributes" : {
						"NORMAL" : 1,
						"POSITION" : 0,
						"COLOR_0" : 2
					},
					"indices" : 3,
					"material" : 0,
					"mode" : 4
				}
			]
		}
	],
	"nodes" : [
		{
			"name" : "B358911546301063C0",
			"matrix" : [ 1, 0, 0, 0, 0, 0, -1, 0, 0, 1, 0, 0, 835891.5, 3.7119998931884766, -815463.1875, 1 ],
			"children" : [ 1 ]
		},
		{
			"mesh" : 0
		}
	],
	"scenes" : [
		{
			"nodes" : [ 0 ]
		}
	],
	"scene" : 0,
	"accessors" : [
		{
			"bufferView" : 0,
			"byteOffset" : 0,
			"componentType" : 5126,
			"count" : 66,
			"type" : "VEC3",
			"min" : [ -2.0185546875, -6.3427734375, 0 ],
			"max" : [ 2.0185546875, 6.341796875, 3.5320000648498535 ]
		},
		{
			"bufferView" : 1,
			"byteOffset" : 0,
			"componentType" : 5126,
			"count" : 66,
			"type" : "VEC3",
			"min" : [ -0.993496298789978, -0.9940454363822937, -1 ],
			"max" : [ 0.9935226440429688, 0.9932717084884644, 1 ]
		},
		{
			"bufferView" : 2,
			"byteOffset" : 0,
			"componentType" : 5126,
			"count" : 66,
			"type" : "VEC3"
		},
		{
			"bufferView" : 3,
			"byteOffset" : 0,
			"componentType" : 5121,
			"count" : 66,
			"type" : "SCALAR",
			"min" : [ 0 ],
			"max" : [ 65 ]
		}
	],
	"bufferViews" : [
		{
			"buffer" : 0,
			"byteOffset" : 0,
			"byteLength" : 792,
			"target" : 34962
		},
		{
			"buffer" : 0,
			"byteOffset" : 792,
			"byteLength" : 792,
			"target" : 34962
		},
		{
			"buffer" : 0,
			"byteOffset" : 1584,
			"byteLength" : 792,
			"target" : 34962
		},
		{
			"buffer" : 0,
			"byteOffset" : 2376,
			"byteLength" : 66,
			"target" : 34963
		}
	],
	"buffers" : [
		{
			"uri" : "B358911546301063C0.bin",
			"byteLength" : 2442
		}
	]
}
