{
	"asset" : {
		"generator" : "FME 2023.2.1.0",
		"version" : "2.0"
	},
	"materials" : [
		{
			"name" : "default_material",
			"pbrMetallicRoughness" : {
				"baseColorFactor" : [ 1, 1, 1, 1 ],
				"roughnessFactor" : 0.30000000000000004,
				"metallicFactor" : 0.5
			}
		}
	],
	"meshes" : [
		{
			"primitives" : [
				{
					"attributes" : {
						"NORMAL" : 1,
						"POSITION" : 0,
						"COLOR_0" : 2
					},
					"indices" : 3,
					"material" : 0,
					"mode" : 4
				}
			]
		}
	],
	"nodes" : [
		{
			"name" : "B182131487501062G0",
			"matrix" : [ 1, 0, 0, 0, 0, 0, -1, 0, 0, 1, 0, 0, 818217.625, 5.726099967956543, -814874.5625, 1 ],
			"children" : [ 1 ]
		},
		{
			"mesh" : 0
		}
	],
	"scenes" : [
		{
			"nodes" : [ 0 ]
		}
	],
	"scene" : 0,
	"accessors" : [
		{
			"bufferView" : 0,
			"byteOffset" : 0,
			"componentType" : 5126,
			"count" : 732,
			"type" : "VEC3",
			"min" : [ -10.75, -7.4375, 0 ],
			"max" : [ 10.6875, 7.4375, 8.982500076293945 ]
		},
		{
			"bufferView" : 1,
			"byteOffset" : 0,
			"componentType" : 5126,
			"count" : 732,
			"type" : "VEC3",
			"min" : [ -0.9438368678092957, -0.9437699317932129, -0.9958493113517761 ],
			"max" : [ 0.9437301158905029, 0.9410780668258667, 1 ]
		},
		{
			"bufferView" : 2,
			"byteOffset" : 0,
			"componentType" : 5126,
			"count" : 732,
			"type" : "VEC3"
		},
		{
			"bufferView" : 3,
			"byteOffset" : 0,
			"componentType" : 5123,
			"count" : 732,
			"type" : "SCALAR",
			"min" : [ 0 ],
			"max" : [ 731 ]
		}
	],
	"bufferViews" : [
		{
			"buffer" : 0,
			"byteOffset" : 0,
			"byteLength" : 8784,
			"target" : 34962
		},
		{
			"buffer" : 0,
			"byteOffset" : 8784,
			"byteLength" : 8784,
			"target" : 34962
		},
		{
			"buffer" : 0,
			"byteOffset" : 17568,
			"byteLength" : 8784,
			"target" : 34962
		},
		{
			"buffer" : 0,
			"byteOffset" : 26352,
			"byteLength" : 1464,
			"target" : 34963
		}
	],
	"buffers" : [
		{
			"uri" : "B182131487501062G0.bin",
			"byteLength" : 27816
		}
	]
}
