{
	"asset" : {
		"generator" : "FME 2022.2.4.0",
		"version" : "2.0"
	},
	"materials" : [
		{
			"name" : "default_material",
			"pbrMetallicRoughness" : {
				"baseColorFactor" : [ 1, 1, 1, 1 ],
				"roughnessFactor" : 0.30000000000000004,
				"metallicFactor" : 0.5
			}
		}
	],
	"meshes" : [
		{
			"primitives" : [
				{
					"attributes" : {
						"NORMAL" : 1,
						"POSITION" : 0,
						"COLOR_0" : 2
					},
					"indices" : 3,
					"material" : 0,
					"mode" : 4
				}
			]
		}
	],
	"nodes" : [
		{
			"name" : "B341971527401063C0",
			"matrix" : [ 1, 0, 0, 0, 0, 0, -1, 0, 0, 1, 0, 0, 834197.375, 89.45800018310547, -815274.1875, 1 ],
			"children" : [ 1 ]
		},
		{
			"mesh" : 0
		}
	],
	"scenes" : [
		{
			"nodes" : [ 0 ]
		}
	],
	"scene" : 0,
	"accessors" : [
		{
			"bufferView" : 0,
			"byteOffset" : 0,
			"componentType" : 5126,
			"count" : 11760,
			"type" : "VEC3",
			"min" : [ -16.4453125, -9.9326171875, 0 ],
			"max" : [ 16.4443359375, 9.9326171875, 94.5689926147461 ]
		},
		{
			"bufferView" : 1,
			"byteOffset" : 0,
			"componentType" : 5126,
			"count" : 11760,
			"type" : "VEC3",
			"min" : [ -0.97593754529953, -0.9999281167984009, -1 ],
			"max" : [ 0.9758703112602234, 0.994290828704834, 1 ]
		},
		{
			"bufferView" : 2,
			"byteOffset" : 0,
			"componentType" : 5126,
			"count" : 11760,
			"type" : "VEC3"
		},
		{
			"bufferView" : 3,
			"byteOffset" : 0,
			"componentType" : 5123,
			"count" : 11760,
			"type" : "SCALAR",
			"min" : [ 0 ],
			"max" : [ 11759 ]
		}
	],
	"bufferViews" : [
		{
			"buffer" : 0,
			"byteOffset" : 0,
			"byteLength" : 141120,
			"target" : 34962
		},
		{
			"buffer" : 0,
			"byteOffset" : 141120,
			"byteLength" : 141120,
			"target" : 34962
		},
		{
			"buffer" : 0,
			"byteOffset" : 282240,
			"byteLength" : 141120,
			"target" : 34962
		},
		{
			"buffer" : 0,
			"byteOffset" : 423360,
			"byteLength" : 23520,
			"target" : 34963
		}
	],
	"buffers" : [
		{
			"uri" : "B341971527401063C0.bin",
			"byteLength" : 446880
		}
	]
}
