{
	"asset" : {
		"generator" : "FME 2023.1.0.0",
		"version" : "2.0"
	},
	"materials" : [
		{
			"name" : "default_material",
			"pbrMetallicRoughness" : {
				"baseColorFactor" : [ 1, 1, 1, 1 ],
				"roughnessFactor" : 0.30000000000000004,
				"metallicFactor" : 0.5
			}
		}
	],
	"meshes" : [
		{
			"primitives" : [
				{
					"attributes" : {
						"NORMAL" : 1,
						"POSITION" : 0,
						"COLOR_0" : 2
					},
					"indices" : 3,
					"material" : 0,
					"mode" : 4
				}
			]
		}
	],
	"nodes" : [
		{
			"name" : "B339561604001063C0",
			"matrix" : [ 1, 0, 0, 0, 0, 0, -1, 0, 0, 1, 0, 0, 833959, 12.996999740600586, -816041.8125, 1 ],
			"children" : [ 1 ]
		},
		{
			"mesh" : 0
		}
	],
	"scenes" : [
		{
			"nodes" : [ 0 ]
		}
	],
	"scene" : 0,
	"accessors" : [
		{
			"bufferView" : 0,
			"byteOffset" : 0,
			"componentType" : 5126,
			"count" : 351,
			"type" : "VEC3",
			"min" : [ -5.4130859375, -5.783203125, 0 ],
			"max" : [ 5.412109375, 5.783203125, 26.751001358032227 ]
		},
		{
			"bufferView" : 1,
			"byteOffset" : 0,
			"componentType" : 5126,
			"count" : 351,
			"type" : "VEC3",
			"min" : [ -0.8321854472160339, -0.845342755317688, -1 ],
			"max" : [ 0.8559358716011047, 0.791814386844635, 1 ]
		},
		{
			"bufferView" : 2,
			"byteOffset" : 0,
			"componentType" : 5126,
			"count" : 351,
			"type" : "VEC3"
		},
		{
			"bufferView" : 3,
			"byteOffset" : 0,
			"componentType" : 5123,
			"count" : 351,
			"type" : "SCALAR",
			"min" : [ 0 ],
			"max" : [ 350 ]
		}
	],
	"bufferViews" : [
		{
			"buffer" : 0,
			"byteOffset" : 0,
			"byteLength" : 4212,
			"target" : 34962
		},
		{
			"buffer" : 0,
			"byteOffset" : 4212,
			"byteLength" : 4212,
			"target" : 34962
		},
		{
			"buffer" : 0,
			"byteOffset" : 8424,
			"byteLength" : 4212,
			"target" : 34962
		},
		{
			"buffer" : 0,
			"byteOffset" : 12636,
			"byteLength" : 702,
			"target" : 34963
		}
	],
	"buffers" : [
		{
			"uri" : "B339561604001063C0.bin",
			"byteLength" : 13338
		}
	]
}
