{
	"asset" : {
		"generator" : "FME 2023.1.0.0",
		"version" : "2.0"
	},
	"materials" : [
		{
			"name" : "default_material",
			"pbrMetallicRoughness" : {
				"baseColorFactor" : [ 1, 1, 1, 1 ],
				"roughnessFactor" : 0.30000000000000004,
				"metallicFactor" : 0.5
			}
		}
	],
	"meshes" : [
		{
			"primitives" : [
				{
					"attributes" : {
						"NORMAL" : 1,
						"POSITION" : 0,
						"COLOR_0" : 2
					},
					"indices" : 3,
					"material" : 0,
					"mode" : 4
				}
			]
		}
	],
	"nodes" : [
		{
			"name" : "B357051514001063C0",
			"matrix" : [ 1, 0, 0, 0, 0, 0, -1, 0, 0, 1, 0, 0, 835699.8125, 22.3700008392334, -815140.375, 1 ],
			"children" : [ 1 ]
		},
		{
			"mesh" : 0
		}
	],
	"scenes" : [
		{
			"nodes" : [ 0 ]
		}
	],
	"scene" : 0,
	"accessors" : [
		{
			"bufferView" : 0,
			"byteOffset" : 0,
			"componentType" : 5126,
			"count" : 426,
			"type" : "VEC3",
			"min" : [ -7.8544921875, -6.5859375, 0 ],
			"max" : [ 7.853515625, 6.5869140625, 61.808998107910156 ]
		},
		{
			"bufferView" : 1,
			"byteOffset" : 0,
			"componentType" : 5126,
			"count" : 426,
			"type" : "VEC3",
			"min" : [ -0.8926569819450378, -0.8836531639099121, -0.0009936320129781961 ],
			"max" : [ 0.8926036953926086, 0.8870987296104431, 1 ]
		},
		{
			"bufferView" : 2,
			"byteOffset" : 0,
			"componentType" : 5126,
			"count" : 426,
			"type" : "VEC3"
		},
		{
			"bufferView" : 3,
			"byteOffset" : 0,
			"componentType" : 5123,
			"count" : 426,
			"type" : "SCALAR",
			"min" : [ 0 ],
			"max" : [ 425 ]
		}
	],
	"bufferViews" : [
		{
			"buffer" : 0,
			"byteOffset" : 0,
			"byteLength" : 5112,
			"target" : 34962
		},
		{
			"buffer" : 0,
			"byteOffset" : 5112,
			"byteLength" : 5112,
			"target" : 34962
		},
		{
			"buffer" : 0,
			"byteOffset" : 10224,
			"byteLength" : 5112,
			"target" : 34962
		},
		{
			"buffer" : 0,
			"byteOffset" : 15336,
			"byteLength" : 852,
			"target" : 34963
		}
	],
	"buffers" : [
		{
			"uri" : "B357051514001063C0.bin",
			"byteLength" : 16188
		}
	]
}
