{
	"asset" : {
		"generator" : "FME 2023.2.1.0",
		"version" : "2.0"
	},
	"materials" : [
		{
			"name" : "default_material",
			"pbrMetallicRoughness" : {
				"baseColorFactor" : [ 1, 1, 1, 1 ],
				"roughnessFactor" : 0.30000000000000004,
				"metallicFactor" : 0.5
			}
		}
	],
	"meshes" : [
		{
			"primitives" : [
				{
					"attributes" : {
						"NORMAL" : 1,
						"POSITION" : 0,
						"COLOR_0" : 2
					},
					"indices" : 3,
					"material" : 0,
					"mode" : 4
				}
			]
		}
	],
	"nodes" : [
		{
			"name" : "B335651625402063C0",
			"matrix" : [ 1, 0, 0, 0, 0, 0, -1, 0, 0, 1, 0, 0, 833565.625, 3.499000072479248, -816255.75, 1 ],
			"children" : [ 1 ]
		},
		{
			"mesh" : 0
		}
	],
	"scenes" : [
		{
			"nodes" : [ 0 ]
		}
	],
	"scene" : 0,
	"accessors" : [
		{
			"bufferView" : 0,
			"byteOffset" : 0,
			"componentType" : 5126,
			"count" : 264,
			"type" : "VEC3",
			"min" : [ -7.822265625, -8.2470703125, 0 ],
			"max" : [ 7.8232421875, 8.248046875, 16.804000854492188 ]
		},
		{
			"bufferView" : 1,
			"byteOffset" : 0,
			"componentType" : 5126,
			"count" : 264,
			"type" : "VEC3",
			"min" : [ -0.8331963419914246, -0.987583339214325, -1 ],
			"max" : [ 0.8392634391784668, 0.8399998545646667, 1 ]
		},
		{
			"bufferView" : 2,
			"byteOffset" : 0,
			"componentType" : 5126,
			"count" : 264,
			"type" : "VEC3"
		},
		{
			"bufferView" : 3,
			"byteOffset" : 0,
			"componentType" : 5123,
			"count" : 264,
			"type" : "SCALAR",
			"min" : [ 0 ],
			"max" : [ 263 ]
		}
	],
	"bufferViews" : [
		{
			"buffer" : 0,
			"byteOffset" : 0,
			"byteLength" : 3168,
			"target" : 34962
		},
		{
			"buffer" : 0,
			"byteOffset" : 3168,
			"byteLength" : 3168,
			"target" : 34962
		},
		{
			"buffer" : 0,
			"byteOffset" : 6336,
			"byteLength" : 3168,
			"target" : 34962
		},
		{
			"buffer" : 0,
			"byteOffset" : 9504,
			"byteLength" : 528,
			"target" : 34963
		}
	],
	"buffers" : [
		{
			"uri" : "B335651625402063C0.bin",
			"byteLength" : 10032
		}
	]
}
