{
	"asset" : {
		"generator" : "FME 2023.1.0.0",
		"version" : "2.0"
	},
	"materials" : [
		{
			"name" : "default_material",
			"pbrMetallicRoughness" : {
				"baseColorFactor" : [ 1, 1, 1, 1 ],
				"roughnessFactor" : 0.30000000000000004,
				"metallicFactor" : 0.5
			}
		}
	],
	"meshes" : [
		{
			"primitives" : [
				{
					"attributes" : {
						"NORMAL" : 1,
						"POSITION" : 0,
						"COLOR_0" : 2
					},
					"indices" : 3,
					"material" : 0,
					"mode" : 4
				}
			]
		}
	],
	"nodes" : [
		{
			"name" : "B340141627701063C0",
			"matrix" : [ 1, 0, 0, 0, 0, 0, -1, 0, 0, 1, 0, 0, 834027.25, 3.091003894805908, -816296.1875, 1 ],
			"children" : [ 1 ]
		},
		{
			"mesh" : 0
		}
	],
	"scenes" : [
		{
			"nodes" : [ 0 ]
		}
	],
	"scene" : 0,
	"accessors" : [
		{
			"bufferView" : 0,
			"byteOffset" : 0,
			"componentType" : 5126,
			"count" : 2697,
			"type" : "VEC3",
			"min" : [ -26.7109375, -29.8017578125, 0 ],
			"max" : [ 26.7119140625, 29.8017578125, 98.45700073242188 ]
		},
		{
			"bufferView" : 1,
			"byteOffset" : 0,
			"componentType" : 5126,
			"count" : 2697,
			"type" : "VEC3",
			"min" : [ -0.9999875426292419, -0.9999999403953552, -1 ],
			"max" : [ 0.9999900460243225, 0.9989453554153442, 1 ]
		},
		{
			"bufferView" : 2,
			"byteOffset" : 0,
			"componentType" : 5126,
			"count" : 2697,
			"type" : "VEC3"
		},
		{
			"bufferView" : 3,
			"byteOffset" : 0,
			"componentType" : 5123,
			"count" : 2697,
			"type" : "SCALAR",
			"min" : [ 0 ],
			"max" : [ 2696 ]
		}
	],
	"bufferViews" : [
		{
			"buffer" : 0,
			"byteOffset" : 0,
			"byteLength" : 32364,
			"target" : 34962
		},
		{
			"buffer" : 0,
			"byteOffset" : 32364,
			"byteLength" : 32364,
			"target" : 34962
		},
		{
			"buffer" : 0,
			"byteOffset" : 64728,
			"byteLength" : 32364,
			"target" : 34962
		},
		{
			"buffer" : 0,
			"byteOffset" : 97092,
			"byteLength" : 5394,
			"target" : 34963
		}
	],
	"buffers" : [
		{
			"uri" : "B340141627701063C0.bin",
			"byteLength" : 102486
		}
	]
}
