{
	"asset" : {
		"generator" : "FME 2023.1.0.0",
		"version" : "2.0"
	},
	"materials" : [
		{
			"name" : "default_material",
			"pbrMetallicRoughness" : {
				"baseColorFactor" : [ 1, 1, 1, 1 ],
				"roughnessFactor" : 0.30000000000000004,
				"metallicFactor" : 0.5
			}
		}
	],
	"meshes" : [
		{
			"primitives" : [
				{
					"attributes" : {
						"NORMAL" : 1,
						"POSITION" : 0,
						"COLOR_0" : 2
					},
					"indices" : 3,
					"material" : 0,
					"mode" : 4
				}
			]
		}
	],
	"nodes" : [
		{
			"name" : "B338001630801063C0",
			"matrix" : [ 1, 0, 0, 0, 0, 0, -1, 0, 0, 1, 0, 0, 833798.0625, 31.438007354736328, -816306.4375, 1 ],
			"children" : [ 1 ]
		},
		{
			"mesh" : 0
		}
	],
	"scenes" : [
		{
			"nodes" : [ 0 ]
		}
	],
	"scene" : 0,
	"accessors" : [
		{
			"bufferView" : 0,
			"byteOffset" : 0,
			"componentType" : 5126,
			"count" : 10086,
			"type" : "VEC3",
			"min" : [ -28.7880859375, -23.876953125, 0 ],
			"max" : [ 28.787109375, 23.8779296875, 202.0049591064453 ]
		},
		{
			"bufferView" : 1,
			"byteOffset" : 0,
			"componentType" : 5126,
			"count" : 10086,
			"type" : "VEC3",
			"min" : [ -1, -0.999841570854187, -1 ],
			"max" : [ 1, 0.9999774694442749, 1 ]
		},
		{
			"bufferView" : 2,
			"byteOffset" : 0,
			"componentType" : 5126,
			"count" : 10086,
			"type" : "VEC3"
		},
		{
			"bufferView" : 3,
			"byteOffset" : 0,
			"componentType" : 5123,
			"count" : 10086,
			"type" : "SCALAR",
			"min" : [ 0 ],
			"max" : [ 10085 ]
		}
	],
	"bufferViews" : [
		{
			"buffer" : 0,
			"byteOffset" : 0,
			"byteLength" : 121032,
			"target" : 34962
		},
		{
			"buffer" : 0,
			"byteOffset" : 121032,
			"byteLength" : 121032,
			"target" : 34962
		},
		{
			"buffer" : 0,
			"byteOffset" : 242064,
			"byteLength" : 121032,
			"target" : 34962
		},
		{
			"buffer" : 0,
			"byteOffset" : 363096,
			"byteLength" : 20172,
			"target" : 34963
		}
	],
	"buffers" : [
		{
			"uri" : "B338001630801063C0.bin",
			"byteLength" : 383268
		}
	]
}
