{
	"asset" : {
		"generator" : "FME 2023.2.1.0",
		"version" : "2.0"
	},
	"materials" : [
		{
			"name" : "default_material",
			"pbrMetallicRoughness" : {
				"baseColorFactor" : [ 1, 1, 1, 1 ],
				"roughnessFactor" : 0.30000000000000004,
				"metallicFactor" : 0.5
			}
		}
	],
	"meshes" : [
		{
			"primitives" : [
				{
					"attributes" : {
						"NORMAL" : 1,
						"POSITION" : 0,
						"COLOR_0" : 2
					},
					"indices" : 3,
					"material" : 0,
					"mode" : 4
				}
			]
		}
	],
	"nodes" : [
		{
			"name" : "B357791617101063C0",
			"matrix" : [ 1, 0, 0, 0, 0, 0, -1, 0, 0, 1, 0, 0, 835783.4375, 4.072998046875, -816177.5, 1 ],
			"children" : [ 1 ]
		},
		{
			"mesh" : 0
		}
	],
	"scenes" : [
		{
			"nodes" : [ 0 ]
		}
	],
	"scene" : 0,
	"accessors" : [
		{
			"bufferView" : 0,
			"byteOffset" : 0,
			"componentType" : 5126,
			"count" : 183,
			"type" : "VEC3",
			"min" : [ -9.08984375, -9.025390625, 0 ],
			"max" : [ 9.0888671875, 9.025390625, 4.22599983215332 ]
		},
		{
			"bufferView" : 1,
			"byteOffset" : 0,
			"componentType" : 5126,
			"count" : 183,
			"type" : "VEC3",
			"min" : [ -0.7096327543258667, -0.7567216753959656, 0 ],
			"max" : [ 0.7104032635688782, 0.7569386959075928, 1 ]
		},
		{
			"bufferView" : 2,
			"byteOffset" : 0,
			"componentType" : 5126,
			"count" : 183,
			"type" : "VEC3"
		},
		{
			"bufferView" : 3,
			"byteOffset" : 0,
			"componentType" : 5121,
			"count" : 183,
			"type" : "SCALAR",
			"min" : [ 0 ],
			"max" : [ 182 ]
		}
	],
	"bufferViews" : [
		{
			"buffer" : 0,
			"byteOffset" : 0,
			"byteLength" : 2196,
			"target" : 34962
		},
		{
			"buffer" : 0,
			"byteOffset" : 2196,
			"byteLength" : 2196,
			"target" : 34962
		},
		{
			"buffer" : 0,
			"byteOffset" : 4392,
			"byteLength" : 2196,
			"target" : 34962
		},
		{
			"buffer" : 0,
			"byteOffset" : 6588,
			"byteLength" : 183,
			"target" : 34963
		}
	],
	"buffers" : [
		{
			"uri" : "B357791617101063C0.bin",
			"byteLength" : 6771
		}
	]
}
