{
	"asset" : {
		"generator" : "FME 2023.1.0.0",
		"version" : "2.0"
	},
	"materials" : [
		{
			"name" : "default_material",
			"pbrMetallicRoughness" : {
				"baseColorFactor" : [ 1, 1, 1, 1 ],
				"roughnessFactor" : 0.30000000000000004,
				"metallicFactor" : 0.5
			}
		}
	],
	"meshes" : [
		{
			"primitives" : [
				{
					"attributes" : {
						"NORMAL" : 1,
						"POSITION" : 0,
						"COLOR_0" : 2
					},
					"indices" : 3,
					"material" : 0,
					"mode" : 4
				}
			]
		}
	],
	"nodes" : [
		{
			"name" : "B355971524901063C0",
			"matrix" : [ 1, 0, 0, 0, 0, 0, -1, 0, 0, 1, 0, 0, 835598.0625, 4.9770002365112305, -815247.75, 1 ],
			"children" : [ 1 ]
		},
		{
			"mesh" : 0
		}
	],
	"scenes" : [
		{
			"nodes" : [ 0 ]
		}
	],
	"scene" : 0,
	"accessors" : [
		{
			"bufferView" : 0,
			"byteOffset" : 0,
			"componentType" : 5126,
			"count" : 1077,
			"type" : "VEC3",
			"min" : [ -8.1669921875, -10.974609375, 0 ],
			"max" : [ 8.16796875, 10.9755859375, 37.0890007019043 ]
		},
		{
			"bufferView" : 1,
			"byteOffset" : 0,
			"componentType" : 5126,
			"count" : 1077,
			"type" : "VEC3",
			"min" : [ -0.8535488247871399, -0.9271504878997803, -1 ],
			"max" : [ 0.8553671836853027, 0.9271504878997803, 1 ]
		},
		{
			"bufferView" : 2,
			"byteOffset" : 0,
			"componentType" : 5126,
			"count" : 1077,
			"type" : "VEC3"
		},
		{
			"bufferView" : 3,
			"byteOffset" : 0,
			"componentType" : 5123,
			"count" : 1077,
			"type" : "SCALAR",
			"min" : [ 0 ],
			"max" : [ 1076 ]
		}
	],
	"bufferViews" : [
		{
			"buffer" : 0,
			"byteOffset" : 0,
			"byteLength" : 12924,
			"target" : 34962
		},
		{
			"buffer" : 0,
			"byteOffset" : 12924,
			"byteLength" : 12924,
			"target" : 34962
		},
		{
			"buffer" : 0,
			"byteOffset" : 25848,
			"byteLength" : 12924,
			"target" : 34962
		},
		{
			"buffer" : 0,
			"byteOffset" : 38772,
			"byteLength" : 2154,
			"target" : 34963
		}
	],
	"buffers" : [
		{
			"uri" : "B355971524901063C0.bin",
			"byteLength" : 40926
		}
	]
}
