{
	"asset" : {
		"generator" : "FME 2023.1.0.0",
		"version" : "2.0"
	},
	"materials" : [
		{
			"name" : "default_material",
			"pbrMetallicRoughness" : {
				"baseColorFactor" : [ 1, 1, 1, 1 ],
				"roughnessFactor" : 0.30000000000000004,
				"metallicFactor" : 0.5
			}
		}
	],
	"meshes" : [
		{
			"primitives" : [
				{
					"attributes" : {
						"NORMAL" : 1,
						"POSITION" : 0,
						"COLOR_0" : 2
					},
					"indices" : 3,
					"material" : 0,
					"mode" : 4
				}
			]
		}
	],
	"nodes" : [
		{
			"name" : "B333261596601063C0",
			"matrix" : [ 1, 0, 0, 0, 0, 0, -1, 0, 0, 1, 0, 0, 833327.4375, 78.4229965209961, -815961.25, 1 ],
			"children" : [ 1 ]
		},
		{
			"mesh" : 0
		}
	],
	"scenes" : [
		{
			"nodes" : [ 0 ]
		}
	],
	"scene" : 0,
	"accessors" : [
		{
			"bufferView" : 0,
			"byteOffset" : 0,
			"componentType" : 5126,
			"count" : 3609,
			"type" : "VEC3",
			"min" : [ -7.75, -10.0205078125, 0 ],
			"max" : [ 7.7490234375, 10.021484375, 49.10600280761719 ]
		},
		{
			"bufferView" : 1,
			"byteOffset" : 0,
			"componentType" : 5126,
			"count" : 3609,
			"type" : "VEC3",
			"min" : [ -0.9998940229415894, -0.9999904036521912, -1 ],
			"max" : [ 0.9999958276748657, 0.9999886155128479, 1 ]
		},
		{
			"bufferView" : 2,
			"byteOffset" : 0,
			"componentType" : 5126,
			"count" : 3609,
			"type" : "VEC3"
		},
		{
			"bufferView" : 3,
			"byteOffset" : 0,
			"componentType" : 5123,
			"count" : 3609,
			"type" : "SCALAR",
			"min" : [ 0 ],
			"max" : [ 3608 ]
		}
	],
	"bufferViews" : [
		{
			"buffer" : 0,
			"byteOffset" : 0,
			"byteLength" : 43308,
			"target" : 34962
		},
		{
			"buffer" : 0,
			"byteOffset" : 43308,
			"byteLength" : 43308,
			"target" : 34962
		},
		{
			"buffer" : 0,
			"byteOffset" : 86616,
			"byteLength" : 43308,
			"target" : 34962
		},
		{
			"buffer" : 0,
			"byteOffset" : 129924,
			"byteLength" : 7218,
			"target" : 34963
		}
	],
	"buffers" : [
		{
			"uri" : "B333261596601063C0.bin",
			"byteLength" : 137142
		}
	]
}
