{
	"asset" : {
		"generator" : "FME 2023.1.0.0",
		"version" : "2.0"
	},
	"materials" : [
		{
			"name" : "default_material",
			"pbrMetallicRoughness" : {
				"baseColorFactor" : [ 1, 1, 1, 1 ],
				"roughnessFactor" : 0.30000000000000004,
				"metallicFactor" : 0.5
			}
		}
	],
	"meshes" : [
		{
			"primitives" : [
				{
					"attributes" : {
						"NORMAL" : 1,
						"POSITION" : 0,
						"COLOR_0" : 2
					},
					"indices" : 3,
					"material" : 0,
					"mode" : 4
				}
			]
		}
	],
	"nodes" : [
		{
			"name" : "B338311575202063C0",
			"matrix" : [ 1, 0, 0, 0, 0, 0, -1, 0, 0, 1, 0, 0, 833831.625, 61.125, -815752.625, 1 ],
			"children" : [ 1 ]
		},
		{
			"mesh" : 0
		}
	],
	"scenes" : [
		{
			"nodes" : [ 0 ]
		}
	],
	"scene" : 0,
	"accessors" : [
		{
			"bufferView" : 0,
			"byteOffset" : 0,
			"componentType" : 5126,
			"count" : 522,
			"type" : "VEC3",
			"min" : [ -11.576171875, -11.2138671875, 0 ],
			"max" : [ 11.576171875, 11.21484375, 11.528999328613281 ]
		},
		{
			"bufferView" : 1,
			"byteOffset" : 0,
			"componentType" : 5126,
			"count" : 522,
			"type" : "VEC3",
			"min" : [ -0.8840824365615845, -0.8789350390434265, -1 ],
			"max" : [ 0.9979062080383301, 0.9996214509010315, 1 ]
		},
		{
			"bufferView" : 2,
			"byteOffset" : 0,
			"componentType" : 5126,
			"count" : 522,
			"type" : "VEC3"
		},
		{
			"bufferView" : 3,
			"byteOffset" : 0,
			"componentType" : 5123,
			"count" : 522,
			"type" : "SCALAR",
			"min" : [ 0 ],
			"max" : [ 521 ]
		}
	],
	"bufferViews" : [
		{
			"buffer" : 0,
			"byteOffset" : 0,
			"byteLength" : 6264,
			"target" : 34962
		},
		{
			"buffer" : 0,
			"byteOffset" : 6264,
			"byteLength" : 6264,
			"target" : 34962
		},
		{
			"buffer" : 0,
			"byteOffset" : 12528,
			"byteLength" : 6264,
			"target" : 34962
		},
		{
			"buffer" : 0,
			"byteOffset" : 18792,
			"byteLength" : 1044,
			"target" : 34963
		}
	],
	"buffers" : [
		{
			"uri" : "B338311575202063C0.bin",
			"byteLength" : 19836
		}
	]
}
