{"asset":{"generator":"FME 2024.0.0.0","version":"2.0"},"materials":[{"name":"T34500150000106E10_001","pbrMetallicRoughness":{"roughnessFactor":0.984375,"metallicFactor":0.5}}],"meshes":[{"primitives":[{"attributes":{"NORMAL":1,"POSITION":0,"TEXCOORD_0":2},"indices":3,"material":0,"mode":4}]}],"nodes":[{"name":"T34500150000106E10","matrix":[1,0,0,0,0,0,-1,0,0,1,0,0,834875,5.082830429077148,-815300,1],"children":[1]},{"mesh":0}],"scenes":[{"nodes":[0]}],"scene":0,"accessors":[{"bufferView":0,"byteOffset":0,"componentType":5126,"count":824469,"type":"VEC3","min":[-375.5,-300.5,0],"max":[375.5,300.5,157.6326904296875]},{"bufferView":1,"byteOffset":0,"componentType":5126,"count":824469,"type":"VEC3","min":[-1,-1,-1],"max":[1,1,1]},{"bufferView":2,"byteOffset":0,"componentType":5126,"count":824469,"type":"VEC2","min":[0.0010622759582474828,0.0021555423736572266],"max":[0.9982737898826599,0.9986734986305237]},{"bufferView":3,"byteOffset":0,"componentType":5125,"count":824469,"type":"SCALAR","min":[0],"max":[824468]}],"bufferViews":[{"buffer":0,"byteOffset":0,"byteLength":9893628,"target":34962},{"buffer":0,"byteOffset":9893628,"byteLength":9893628,"target":34962},{"buffer":0,"byteOffset":19787256,"byteLength":6595752,"target":34962},{"buffer":0,"byteOffset":26383008,"byteLength":3297876,"target":34963}],"buffers":[{"uri":"T34500150000106E10.bin","byteLength":29680884}]}