{
	"asset" : {
		"generator" : "FME 2023.2.1.0",
		"version" : "2.0"
	},
	"materials" : [
		{
			"name" : "default_material",
			"pbrMetallicRoughness" : {
				"baseColorFactor" : [ 1, 1, 1, 1 ],
				"roughnessFactor" : 0.30000000000000004,
				"metallicFactor" : 0.5
			}
		}
	],
	"meshes" : [
		{
			"primitives" : [
				{
					"attributes" : {
						"NORMAL" : 1,
						"POSITION" : 0,
						"COLOR_0" : 2
					},
					"indices" : 3,
					"material" : 0,
					"mode" : 4
				}
			]
		}
	],
	"nodes" : [
		{
			"name" : "B330201643301063C0",
			"matrix" : [ 1, 0, 0, 0, 0, 0, -1, 0, 0, 1, 0, 0, 833023.5, 4.934999942779541, -816434.1875, 1 ],
			"children" : [ 1 ]
		},
		{
			"mesh" : 0
		}
	],
	"scenes" : [
		{
			"nodes" : [ 0 ]
		}
	],
	"scene" : 0,
	"accessors" : [
		{
			"bufferView" : 0,
			"byteOffset" : 0,
			"componentType" : 5126,
			"count" : 648,
			"type" : "VEC3",
			"min" : [ -6.3095703125, -6.626953125, 0 ],
			"max" : [ 6.3095703125, 6.626953125, 23.06999969482422 ]
		},
		{
			"bufferView" : 1,
			"byteOffset" : 0,
			"componentType" : 5126,
			"count" : 648,
			"type" : "VEC3",
			"min" : [ -0.764291524887085, -1, -1 ],
			"max" : [ 0.7480471134185791, 0.7470387816429138, 1 ]
		},
		{
			"bufferView" : 2,
			"byteOffset" : 0,
			"componentType" : 5126,
			"count" : 648,
			"type" : "VEC3"
		},
		{
			"bufferView" : 3,
			"byteOffset" : 0,
			"componentType" : 5123,
			"count" : 648,
			"type" : "SCALAR",
			"min" : [ 0 ],
			"max" : [ 647 ]
		}
	],
	"bufferViews" : [
		{
			"buffer" : 0,
			"byteOffset" : 0,
			"byteLength" : 7776,
			"target" : 34962
		},
		{
			"buffer" : 0,
			"byteOffset" : 7776,
			"byteLength" : 7776,
			"target" : 34962
		},
		{
			"buffer" : 0,
			"byteOffset" : 15552,
			"byteLength" : 7776,
			"target" : 34962
		},
		{
			"buffer" : 0,
			"byteOffset" : 23328,
			"byteLength" : 1296,
			"target" : 34963
		}
	],
	"buffers" : [
		{
			"uri" : "B330201643301063C0.bin",
			"byteLength" : 24624
		}
	]
}
