{
	"asset" : {
		"generator" : "FME 2023.2.1.0",
		"version" : "2.0"
	},
	"materials" : [
		{
			"name" : "default_material",
			"pbrMetallicRoughness" : {
				"baseColorFactor" : [ 1, 1, 1, 1 ],
				"roughnessFactor" : 0.30000000000000004,
				"metallicFactor" : 0.5
			}
		}
	],
	"meshes" : [
		{
			"primitives" : [
				{
					"attributes" : {
						"NORMAL" : 1,
						"POSITION" : 0,
						"COLOR_0" : 2
					},
					"indices" : 3,
					"material" : 0,
					"mode" : 4
				}
			]
		}
	],
	"nodes" : [
		{
			"name" : "B332801642301063C0",
			"matrix" : [ 1, 0, 0, 0, 0, 0, -1, 0, 0, 1, 0, 0, 833282.1875, 20.171003341674805, -816424.25, 1 ],
			"children" : [ 1 ]
		},
		{
			"mesh" : 0
		}
	],
	"scenes" : [
		{
			"nodes" : [ 0 ]
		}
	],
	"scene" : 0,
	"accessors" : [
		{
			"bufferView" : 0,
			"byteOffset" : 0,
			"componentType" : 5126,
			"count" : 6048,
			"type" : "VEC3",
			"min" : [ -6.6875, -6.6923828125, 0 ],
			"max" : [ 6.681640625, 6.693359375, 71.15299987792969 ]
		},
		{
			"bufferView" : 1,
			"byteOffset" : 0,
			"componentType" : 5126,
			"count" : 6048,
			"type" : "VEC3",
			"min" : [ -0.7614392638206482, -0.7629516124725342, -1 ],
			"max" : [ 1, 0.7630235552787781, 1 ]
		},
		{
			"bufferView" : 2,
			"byteOffset" : 0,
			"componentType" : 5126,
			"count" : 6048,
			"type" : "VEC3"
		},
		{
			"bufferView" : 3,
			"byteOffset" : 0,
			"componentType" : 5123,
			"count" : 6048,
			"type" : "SCALAR",
			"min" : [ 0 ],
			"max" : [ 6047 ]
		}
	],
	"bufferViews" : [
		{
			"buffer" : 0,
			"byteOffset" : 0,
			"byteLength" : 72576,
			"target" : 34962
		},
		{
			"buffer" : 0,
			"byteOffset" : 72576,
			"byteLength" : 72576,
			"target" : 34962
		},
		{
			"buffer" : 0,
			"byteOffset" : 145152,
			"byteLength" : 72576,
			"target" : 34962
		},
		{
			"buffer" : 0,
			"byteOffset" : 217728,
			"byteLength" : 12096,
			"target" : 34963
		}
	],
	"buffers" : [
		{
			"uri" : "B332801642301063C0.bin",
			"byteLength" : 229824
		}
	]
}
