{
	"asset" : {
		"generator" : "FME 2022.2.4.0",
		"version" : "2.0"
	},
	"materials" : [
		{
			"name" : "default_material",
			"pbrMetallicRoughness" : {
				"baseColorFactor" : [ 1, 1, 1, 1 ],
				"roughnessFactor" : 0.30000000000000004,
				"metallicFactor" : 0.5
			}
		}
	],
	"meshes" : [
		{
			"primitives" : [
				{
					"attributes" : {
						"NORMAL" : 1,
						"POSITION" : 0,
						"COLOR_0" : 2
					},
					"indices" : 3,
					"material" : 0,
					"mode" : 4
				}
			]
		}
	],
	"nodes" : [
		{
			"name" : "B359291535301063C0",
			"matrix" : [ 1, 0, 0, 0, 0, 0, -1, 0, 0, 1, 0, 0, 835932.75, 4.150001049041748, -815348.4375, 1 ],
			"children" : [ 1 ]
		},
		{
			"mesh" : 0
		}
	],
	"scenes" : [
		{
			"nodes" : [ 0 ]
		}
	],
	"scene" : 0,
	"accessors" : [
		{
			"bufferView" : 0,
			"byteOffset" : 0,
			"componentType" : 5126,
			"count" : 903,
			"type" : "VEC3",
			"min" : [ -5.189453125, -8.9921875, 0 ],
			"max" : [ 5.189453125, 8.9912109375, 22.552997589111328 ]
		},
		{
			"bufferView" : 1,
			"byteOffset" : 0,
			"componentType" : 5126,
			"count" : 903,
			"type" : "VEC3",
			"min" : [ -1, -0.9989199042320251, -1 ],
			"max" : [ 0.9966392517089844, 0.9941241145133972, 1 ]
		},
		{
			"bufferView" : 2,
			"byteOffset" : 0,
			"componentType" : 5126,
			"count" : 903,
			"type" : "VEC3"
		},
		{
			"bufferView" : 3,
			"byteOffset" : 0,
			"componentType" : 5123,
			"count" : 903,
			"type" : "SCALAR",
			"min" : [ 0 ],
			"max" : [ 902 ]
		}
	],
	"bufferViews" : [
		{
			"buffer" : 0,
			"byteOffset" : 0,
			"byteLength" : 10836,
			"target" : 34962
		},
		{
			"buffer" : 0,
			"byteOffset" : 10836,
			"byteLength" : 10836,
			"target" : 34962
		},
		{
			"buffer" : 0,
			"byteOffset" : 21672,
			"byteLength" : 10836,
			"target" : 34962
		},
		{
			"buffer" : 0,
			"byteOffset" : 32508,
			"byteLength" : 1806,
			"target" : 34963
		}
	],
	"buffers" : [
		{
			"uri" : "B359291535301063C0.bin",
			"byteLength" : 34314
		}
	]
}
