{
	"asset" : {
		"generator" : "FME 2023.1.0.0",
		"version" : "2.0"
	},
	"materials" : [
		{
			"name" : "default_material",
			"pbrMetallicRoughness" : {
				"baseColorFactor" : [ 1, 1, 1, 1 ],
				"roughnessFactor" : 0.30000000000000004,
				"metallicFactor" : 0.5
			}
		}
	],
	"meshes" : [
		{
			"primitives" : [
				{
					"attributes" : {
						"NORMAL" : 1,
						"POSITION" : 0,
						"COLOR_0" : 2
					},
					"indices" : 3,
					"material" : 0,
					"mode" : 4
				}
			]
		}
	],
	"nodes" : [
		{
			"name" : "B333881664401063C0",
			"matrix" : [ 1, 0, 0, 0, 0, 0, -1, 0, 0, 1, 0, 0, 833402.75, 3.2909998893737793, -816642.75, 1 ],
			"children" : [ 1 ]
		},
		{
			"mesh" : 0
		}
	],
	"scenes" : [
		{
			"nodes" : [ 0 ]
		}
	],
	"scene" : 0,
	"accessors" : [
		{
			"bufferView" : 0,
			"byteOffset" : 0,
			"componentType" : 5126,
			"count" : 5457,
			"type" : "VEC3",
			"min" : [ -34.197265625, -37.6806640625, 0 ],
			"max" : [ 34.1962890625, 37.6796875, 51.63100051879883 ]
		},
		{
			"bufferView" : 1,
			"byteOffset" : 0,
			"componentType" : 5126,
			"count" : 5457,
			"type" : "VEC3",
			"min" : [ -1, -0.999839186668396, -1 ],
			"max" : [ 0.9811945557594299, 0.9828218221664429, 1 ]
		},
		{
			"bufferView" : 2,
			"byteOffset" : 0,
			"componentType" : 5126,
			"count" : 5457,
			"type" : "VEC3"
		},
		{
			"bufferView" : 3,
			"byteOffset" : 0,
			"componentType" : 5123,
			"count" : 5457,
			"type" : "SCALAR",
			"min" : [ 0 ],
			"max" : [ 5456 ]
		}
	],
	"bufferViews" : [
		{
			"buffer" : 0,
			"byteOffset" : 0,
			"byteLength" : 65484,
			"target" : 34962
		},
		{
			"buffer" : 0,
			"byteOffset" : 65484,
			"byteLength" : 65484,
			"target" : 34962
		},
		{
			"buffer" : 0,
			"byteOffset" : 130968,
			"byteLength" : 65484,
			"target" : 34962
		},
		{
			"buffer" : 0,
			"byteOffset" : 196452,
			"byteLength" : 10914,
			"target" : 34963
		}
	],
	"buffers" : [
		{
			"uri" : "B333881664401063C0.bin",
			"byteLength" : 207366
		}
	]
}
