{
	"asset" : {
		"generator" : "FME 2023.2.1.0",
		"version" : "2.0"
	},
	"materials" : [
		{
			"name" : "default_material",
			"pbrMetallicRoughness" : {
				"baseColorFactor" : [ 1, 1, 1, 1 ],
				"roughnessFactor" : 0.30000000000000004,
				"metallicFactor" : 0.5
			}
		}
	],
	"meshes" : [
		{
			"primitives" : [
				{
					"attributes" : {
						"NORMAL" : 1,
						"POSITION" : 0,
						"COLOR_0" : 2
					},
					"indices" : 3,
					"material" : 0,
					"mode" : 4
				}
			]
		}
	],
	"nodes" : [
		{
			"name" : "B356541516401063C0",
			"matrix" : [ 1, 0, 0, 0, 0, 0, -1, 0, 0, 1, 0, 0, 835655.375, 5.886000156402588, -815166.9375, 1 ],
			"children" : [ 1 ]
		},
		{
			"mesh" : 0
		}
	],
	"scenes" : [
		{
			"nodes" : [ 0 ]
		}
	],
	"scene" : 0,
	"accessors" : [
		{
			"bufferView" : 0,
			"byteOffset" : 0,
			"componentType" : 5126,
			"count" : 225,
			"type" : "VEC3",
			"min" : [ -5.6220703125, -7.146484375, 0 ],
			"max" : [ 5.6220703125, 7.146484375, 29.637998580932617 ]
		},
		{
			"bufferView" : 1,
			"byteOffset" : 0,
			"componentType" : 5126,
			"count" : 225,
			"type" : "VEC3",
			"min" : [ -0.8751373887062073, -0.8746939301490784, -1 ],
			"max" : [ 0.8834041357040405, 0.8804711103439331, 1 ]
		},
		{
			"bufferView" : 2,
			"byteOffset" : 0,
			"componentType" : 5126,
			"count" : 225,
			"type" : "VEC3"
		},
		{
			"bufferView" : 3,
			"byteOffset" : 0,
			"componentType" : 5121,
			"count" : 225,
			"type" : "SCALAR",
			"min" : [ 0 ],
			"max" : [ 224 ]
		}
	],
	"bufferViews" : [
		{
			"buffer" : 0,
			"byteOffset" : 0,
			"byteLength" : 2700,
			"target" : 34962
		},
		{
			"buffer" : 0,
			"byteOffset" : 2700,
			"byteLength" : 2700,
			"target" : 34962
		},
		{
			"buffer" : 0,
			"byteOffset" : 5400,
			"byteLength" : 2700,
			"target" : 34962
		},
		{
			"buffer" : 0,
			"byteOffset" : 8100,
			"byteLength" : 225,
			"target" : 34963
		}
	],
	"buffers" : [
		{
			"uri" : "B356541516401063C0.bin",
			"byteLength" : 8325
		}
	]
}
