{
	"asset" : {
		"generator" : "FME 2023.2.1.0",
		"version" : "2.0"
	},
	"materials" : [
		{
			"name" : "default_material",
			"pbrMetallicRoughness" : {
				"baseColorFactor" : [ 1, 1, 1, 1 ],
				"roughnessFactor" : 0.30000000000000004,
				"metallicFactor" : 0.5
			}
		}
	],
	"meshes" : [
		{
			"primitives" : [
				{
					"attributes" : {
						"NORMAL" : 1,
						"POSITION" : 0,
						"COLOR_0" : 2
					},
					"indices" : 3,
					"material" : 0,
					"mode" : 4
				}
			]
		}
	],
	"nodes" : [
		{
			"name" : "B334471628801063C0",
			"matrix" : [ 1, 0, 0, 0, 0, 0, -1, 0, 0, 1, 0, 0, 833451.125, 10.89900016784668, -816287.0625, 1 ],
			"children" : [ 1 ]
		},
		{
			"mesh" : 0
		}
	],
	"scenes" : [
		{
			"nodes" : [ 0 ]
		}
	],
	"scene" : 0,
	"accessors" : [
		{
			"bufferView" : 0,
			"byteOffset" : 0,
			"componentType" : 5126,
			"count" : 822,
			"type" : "VEC3",
			"min" : [ -7.8369140625, -7.5986328125, 0 ],
			"max" : [ 7.8134765625, 7.642578125, 46.180999755859375 ]
		},
		{
			"bufferView" : 1,
			"byteOffset" : 0,
			"componentType" : 5126,
			"count" : 822,
			"type" : "VEC3",
			"min" : [ -0.764291524887085, -0.7614039182662964, -1 ],
			"max" : [ 0.764291524887085, 0.7613021731376648, 1 ]
		},
		{
			"bufferView" : 2,
			"byteOffset" : 0,
			"componentType" : 5126,
			"count" : 822,
			"type" : "VEC3"
		},
		{
			"bufferView" : 3,
			"byteOffset" : 0,
			"componentType" : 5123,
			"count" : 822,
			"type" : "SCALAR",
			"min" : [ 0 ],
			"max" : [ 821 ]
		}
	],
	"bufferViews" : [
		{
			"buffer" : 0,
			"byteOffset" : 0,
			"byteLength" : 9864,
			"target" : 34962
		},
		{
			"buffer" : 0,
			"byteOffset" : 9864,
			"byteLength" : 9864,
			"target" : 34962
		},
		{
			"buffer" : 0,
			"byteOffset" : 19728,
			"byteLength" : 9864,
			"target" : 34962
		},
		{
			"buffer" : 0,
			"byteOffset" : 29592,
			"byteLength" : 1644,
			"target" : 34963
		}
	],
	"buffers" : [
		{
			"uri" : "B334471628801063C0.bin",
			"byteLength" : 31236
		}
	]
}
