{
	"asset" : {
		"generator" : "FME 2023.1.0.0",
		"version" : "2.0"
	},
	"materials" : [
		{
			"name" : "default_material",
			"pbrMetallicRoughness" : {
				"baseColorFactor" : [ 1, 1, 1, 1 ],
				"roughnessFactor" : 0.30000000000000004,
				"metallicFactor" : 0.5
			}
		}
	],
	"meshes" : [
		{
			"primitives" : [
				{
					"attributes" : {
						"NORMAL" : 1,
						"POSITION" : 0,
						"COLOR_0" : 2
					},
					"indices" : 3,
					"material" : 0,
					"mode" : 4
				}
			]
		}
	],
	"nodes" : [
		{
			"name" : "B336971621802063C0",
			"matrix" : [ 1, 0, 0, 0, 0, 0, -1, 0, 0, 1, 0, 0, 833698.25, 3.464000940322876, -816217.1875, 1 ],
			"children" : [ 1 ]
		},
		{
			"mesh" : 0
		}
	],
	"scenes" : [
		{
			"nodes" : [ 0 ]
		}
	],
	"scene" : 0,
	"accessors" : [
		{
			"bufferView" : 0,
			"byteOffset" : 0,
			"componentType" : 5126,
			"count" : 765,
			"type" : "VEC3",
			"min" : [ -9.0380859375, -6.341796875, 0 ],
			"max" : [ 9.0380859375, 6.341796875, 9.984000205993652 ]
		},
		{
			"bufferView" : 1,
			"byteOffset" : 0,
			"componentType" : 5126,
			"count" : 765,
			"type" : "VEC3",
			"min" : [ -0.9999717473983765, -0.9997808933258057, -1 ],
			"max" : [ 0.999971330165863, 1, 1 ]
		},
		{
			"bufferView" : 2,
			"byteOffset" : 0,
			"componentType" : 5126,
			"count" : 765,
			"type" : "VEC3"
		},
		{
			"bufferView" : 3,
			"byteOffset" : 0,
			"componentType" : 5123,
			"count" : 765,
			"type" : "SCALAR",
			"min" : [ 0 ],
			"max" : [ 764 ]
		}
	],
	"bufferViews" : [
		{
			"buffer" : 0,
			"byteOffset" : 0,
			"byteLength" : 9180,
			"target" : 34962
		},
		{
			"buffer" : 0,
			"byteOffset" : 9180,
			"byteLength" : 9180,
			"target" : 34962
		},
		{
			"buffer" : 0,
			"byteOffset" : 18360,
			"byteLength" : 9180,
			"target" : 34962
		},
		{
			"buffer" : 0,
			"byteOffset" : 27540,
			"byteLength" : 1530,
			"target" : 34963
		}
	],
	"buffers" : [
		{
			"uri" : "B336971621802063C0.bin",
			"byteLength" : 29070
		}
	]
}
