{
	"asset" : {
		"generator" : "FME 2022.2.4.0",
		"version" : "2.0"
	},
	"materials" : [
		{
			"name" : "default_material",
			"pbrMetallicRoughness" : {
				"baseColorFactor" : [ 1, 1, 1, 1 ],
				"roughnessFactor" : 0.30000000000000004,
				"metallicFactor" : 0.5
			}
		}
	],
	"meshes" : [
		{
			"primitives" : [
				{
					"attributes" : {
						"NORMAL" : 1,
						"POSITION" : 0,
						"COLOR_0" : 2
					},
					"indices" : 3,
					"material" : 0,
					"mode" : 4
				}
			]
		}
	],
	"nodes" : [
		{
			"name" : "B337301582401063C0",
			"matrix" : [ 1, 0, 0, 0, 0, 0, -1, 0, 0, 1, 0, 0, 833730.3125, 60.5, -815824.625, 1 ],
			"children" : [ 1 ]
		},
		{
			"mesh" : 0
		}
	],
	"scenes" : [
		{
			"nodes" : [ 0 ]
		}
	],
	"scene" : 0,
	"accessors" : [
		{
			"bufferView" : 0,
			"byteOffset" : 0,
			"componentType" : 5126,
			"count" : 855,
			"type" : "VEC3",
			"min" : [ -19.052734375, -18.8662109375, 0 ],
			"max" : [ 19.052734375, 18.865234375, 15.383003234863281 ]
		},
		{
			"bufferView" : 1,
			"byteOffset" : 0,
			"componentType" : 5126,
			"count" : 855,
			"type" : "VEC3",
			"min" : [ -0.8497525453567505, -0.8583623170852661, -1 ],
			"max" : [ 0.8437871932983398, 0.862285852432251, 1 ]
		},
		{
			"bufferView" : 2,
			"byteOffset" : 0,
			"componentType" : 5126,
			"count" : 855,
			"type" : "VEC3"
		},
		{
			"bufferView" : 3,
			"byteOffset" : 0,
			"componentType" : 5123,
			"count" : 855,
			"type" : "SCALAR",
			"min" : [ 0 ],
			"max" : [ 854 ]
		}
	],
	"bufferViews" : [
		{
			"buffer" : 0,
			"byteOffset" : 0,
			"byteLength" : 10260,
			"target" : 34962
		},
		{
			"buffer" : 0,
			"byteOffset" : 10260,
			"byteLength" : 10260,
			"target" : 34962
		},
		{
			"buffer" : 0,
			"byteOffset" : 20520,
			"byteLength" : 10260,
			"target" : 34962
		},
		{
			"buffer" : 0,
			"byteOffset" : 30780,
			"byteLength" : 1710,
			"target" : 34963
		}
	],
	"buffers" : [
		{
			"uri" : "B337301582401063C0.bin",
			"byteLength" : 32490
		}
	]
}
