{
	"asset" : {
		"generator" : "FME 2023.1.0.0",
		"version" : "2.0"
	},
	"materials" : [
		{
			"name" : "default_material",
			"pbrMetallicRoughness" : {
				"baseColorFactor" : [ 1, 1, 1, 1 ],
				"roughnessFactor" : 0.30000000000000004,
				"metallicFactor" : 0.5
			}
		}
	],
	"meshes" : [
		{
			"primitives" : [
				{
					"attributes" : {
						"NORMAL" : 1,
						"POSITION" : 0,
						"COLOR_0" : 2
					},
					"indices" : 3,
					"material" : 0,
					"mode" : 4
				}
			]
		}
	],
	"nodes" : [
		{
			"name" : "B336641627901063C0",
			"matrix" : [ 1, 0, 0, 0, 0, 0, -1, 0, 0, 1, 0, 0, 833666.5625, 2.846000909805298, -816277.375, 1 ],
			"children" : [ 1 ]
		},
		{
			"mesh" : 0
		}
	],
	"scenes" : [
		{
			"nodes" : [ 0 ]
		}
	],
	"scene" : 0,
	"accessors" : [
		{
			"bufferView" : 0,
			"byteOffset" : 0,
			"componentType" : 5126,
			"count" : 489,
			"type" : "VEC3",
			"min" : [ -5.26953125, -4.3427734375, 0 ],
			"max" : [ 5.26953125, 4.34375, 22.907001495361328 ]
		},
		{
			"bufferView" : 1,
			"byteOffset" : 0,
			"componentType" : 5126,
			"count" : 489,
			"type" : "VEC3",
			"min" : [ -0.8528480529785156, -0.8524736166000366, -1 ],
			"max" : [ 0.8513415455818176, 0.8563796877861023, 1 ]
		},
		{
			"bufferView" : 2,
			"byteOffset" : 0,
			"componentType" : 5126,
			"count" : 489,
			"type" : "VEC3"
		},
		{
			"bufferView" : 3,
			"byteOffset" : 0,
			"componentType" : 5123,
			"count" : 489,
			"type" : "SCALAR",
			"min" : [ 0 ],
			"max" : [ 488 ]
		}
	],
	"bufferViews" : [
		{
			"buffer" : 0,
			"byteOffset" : 0,
			"byteLength" : 5868,
			"target" : 34962
		},
		{
			"buffer" : 0,
			"byteOffset" : 5868,
			"byteLength" : 5868,
			"target" : 34962
		},
		{
			"buffer" : 0,
			"byteOffset" : 11736,
			"byteLength" : 5868,
			"target" : 34962
		},
		{
			"buffer" : 0,
			"byteOffset" : 17604,
			"byteLength" : 978,
			"target" : 34963
		}
	],
	"buffers" : [
		{
			"uri" : "B336641627901063C0.bin",
			"byteLength" : 18582
		}
	]
}
