{
	"asset" : {
		"generator" : "FME 2023.1.0.0",
		"version" : "2.0"
	},
	"materials" : [
		{
			"name" : "default_material",
			"pbrMetallicRoughness" : {
				"baseColorFactor" : [ 1, 1, 1, 1 ],
				"roughnessFactor" : 0.30000000000000004,
				"metallicFactor" : 0.5
			}
		}
	],
	"meshes" : [
		{
			"primitives" : [
				{
					"attributes" : {
						"NORMAL" : 1,
						"POSITION" : 0,
						"COLOR_0" : 2
					},
					"indices" : 3,
					"material" : 0,
					"mode" : 4
				}
			]
		}
	],
	"nodes" : [
		{
			"name" : "B336001560302063C0",
			"matrix" : [ 1, 0, 0, 0, 0, 0, -1, 0, 0, 1, 0, 0, 833600.4375, 115.60399627685547, -815603.5, 1 ],
			"children" : [ 1 ]
		},
		{
			"mesh" : 0
		}
	],
	"scenes" : [
		{
			"nodes" : [ 0 ]
		}
	],
	"scene" : 0,
	"accessors" : [
		{
			"bufferView" : 0,
			"byteOffset" : 0,
			"componentType" : 5126,
			"count" : 471,
			"type" : "VEC3",
			"min" : [ -18.767578125, -22.33203125, 0 ],
			"max" : [ 18.7666015625, 22.33203125, 12.405998229980469 ]
		},
		{
			"bufferView" : 1,
			"byteOffset" : 0,
			"componentType" : 5126,
			"count" : 471,
			"type" : "VEC3",
			"min" : [ -0.8827731609344482, -0.8827506303787231, -0.0018370462348684669 ],
			"max" : [ 0.9992517828941345, 0.9982048869132996, 1 ]
		},
		{
			"bufferView" : 2,
			"byteOffset" : 0,
			"componentType" : 5126,
			"count" : 471,
			"type" : "VEC3"
		},
		{
			"bufferView" : 3,
			"byteOffset" : 0,
			"componentType" : 5123,
			"count" : 471,
			"type" : "SCALAR",
			"min" : [ 0 ],
			"max" : [ 470 ]
		}
	],
	"bufferViews" : [
		{
			"buffer" : 0,
			"byteOffset" : 0,
			"byteLength" : 5652,
			"target" : 34962
		},
		{
			"buffer" : 0,
			"byteOffset" : 5652,
			"byteLength" : 5652,
			"target" : 34962
		},
		{
			"buffer" : 0,
			"byteOffset" : 11304,
			"byteLength" : 5652,
			"target" : 34962
		},
		{
			"buffer" : 0,
			"byteOffset" : 16956,
			"byteLength" : 942,
			"target" : 34963
		}
	],
	"buffers" : [
		{
			"uri" : "B336001560302063C0.bin",
			"byteLength" : 17898
		}
	]
}
