{
	"asset" : {
		"generator" : "FME 2023.1.0.0",
		"version" : "2.0"
	},
	"materials" : [
		{
			"name" : "default_material",
			"pbrMetallicRoughness" : {
				"baseColorFactor" : [ 1, 1, 1, 1 ],
				"roughnessFactor" : 0.30000000000000004,
				"metallicFactor" : 0.5
			}
		}
	],
	"meshes" : [
		{
			"primitives" : [
				{
					"attributes" : {
						"NORMAL" : 1,
						"POSITION" : 0,
						"COLOR_0" : 2
					},
					"indices" : 3,
					"material" : 0,
					"mode" : 4
				}
			]
		}
	],
	"nodes" : [
		{
			"name" : "B353261558001063C0",
			"matrix" : [ 1, 0, 0, 0, 0, 0, -1, 0, 0, 1, 0, 0, 835326.5, 5.203000068664551, -815581, 1 ],
			"children" : [ 1 ]
		},
		{
			"mesh" : 0
		}
	],
	"scenes" : [
		{
			"nodes" : [ 0 ]
		}
	],
	"scene" : 0,
	"accessors" : [
		{
			"bufferView" : 0,
			"byteOffset" : 0,
			"componentType" : 5126,
			"count" : 138,
			"type" : "VEC3",
			"min" : [ -1.3818359375, -1.37109375, 0 ],
			"max" : [ 1.380859375, 1.37109375, 3.5129995346069336 ]
		},
		{
			"bufferView" : 1,
			"byteOffset" : 0,
			"componentType" : 5126,
			"count" : 138,
			"type" : "VEC3",
			"min" : [ -0.9972655773162842, -0.9972902536392212, 0 ],
			"max" : [ 0.9973744750022888, 0.9972811341285706, 1 ]
		},
		{
			"bufferView" : 2,
			"byteOffset" : 0,
			"componentType" : 5126,
			"count" : 138,
			"type" : "VEC3"
		},
		{
			"bufferView" : 3,
			"byteOffset" : 0,
			"componentType" : 5121,
			"count" : 138,
			"type" : "SCALAR",
			"min" : [ 0 ],
			"max" : [ 137 ]
		}
	],
	"bufferViews" : [
		{
			"buffer" : 0,
			"byteOffset" : 0,
			"byteLength" : 1656,
			"target" : 34962
		},
		{
			"buffer" : 0,
			"byteOffset" : 1656,
			"byteLength" : 1656,
			"target" : 34962
		},
		{
			"buffer" : 0,
			"byteOffset" : 3312,
			"byteLength" : 1656,
			"target" : 34962
		},
		{
			"buffer" : 0,
			"byteOffset" : 4968,
			"byteLength" : 138,
			"target" : 34963
		}
	],
	"buffers" : [
		{
			"uri" : "B353261558001063C0.bin",
			"byteLength" : 5106
		}
	]
}
