{
	"asset" : {
		"generator" : "FME 2022.2.4.0",
		"version" : "2.0"
	},
	"materials" : [
		{
			"name" : "default_material",
			"pbrMetallicRoughness" : {
				"baseColorFactor" : [ 1, 1, 1, 1 ],
				"roughnessFactor" : 0.30000000000000004,
				"metallicFactor" : 0.5
			}
		}
	],
	"meshes" : [
		{
			"primitives" : [
				{
					"attributes" : {
						"NORMAL" : 1,
						"POSITION" : 0,
						"COLOR_0" : 2
					},
					"indices" : 3,
					"material" : 0,
					"mode" : 4
				}
			]
		}
	],
	"nodes" : [
		{
			"name" : "B160101206701062G0",
			"matrix" : [ 1, 0, 0, 0, 0, 0, -1, 0, 0, 1, 0, 0, 816010, 21.164600372314453, -812066.875, 1 ],
			"children" : [ 1 ]
		},
		{
			"mesh" : 0
		}
	],
	"scenes" : [
		{
			"nodes" : [ 0 ]
		}
	],
	"scene" : 0,
	"accessors" : [
		{
			"bufferView" : 0,
			"byteOffset" : 0,
			"componentType" : 5126,
			"count" : 399,
			"type" : "VEC3",
			"min" : [ -6.125, -6.125, 0 ],
			"max" : [ 6.0625, 6.125, 10.420700073242188 ]
		},
		{
			"bufferView" : 1,
			"byteOffset" : 0,
			"componentType" : 5126,
			"count" : 399,
			"type" : "VEC3",
			"min" : [ -0.7492311000823975, -0.7491732239723206, -1 ],
			"max" : [ 0.7518336176872253, 0.7518784999847412, 1 ]
		},
		{
			"bufferView" : 2,
			"byteOffset" : 0,
			"componentType" : 5126,
			"count" : 399,
			"type" : "VEC3"
		},
		{
			"bufferView" : 3,
			"byteOffset" : 0,
			"componentType" : 5123,
			"count" : 399,
			"type" : "SCALAR",
			"min" : [ 0 ],
			"max" : [ 398 ]
		}
	],
	"bufferViews" : [
		{
			"buffer" : 0,
			"byteOffset" : 0,
			"byteLength" : 4788,
			"target" : 34962
		},
		{
			"buffer" : 0,
			"byteOffset" : 4788,
			"byteLength" : 4788,
			"target" : 34962
		},
		{
			"buffer" : 0,
			"byteOffset" : 9576,
			"byteLength" : 4788,
			"target" : 34962
		},
		{
			"buffer" : 0,
			"byteOffset" : 14364,
			"byteLength" : 798,
			"target" : 34963
		}
	],
	"buffers" : [
		{
			"uri" : "B160101206701062G0.bin",
			"byteLength" : 15162
		}
	]
}
