{
	"asset" : {
		"generator" : "FME 2023.2.1.0",
		"version" : "2.0"
	},
	"materials" : [
		{
			"name" : "default_material",
			"pbrMetallicRoughness" : {
				"baseColorFactor" : [ 1, 1, 1, 1 ],
				"roughnessFactor" : 0.30000000000000004,
				"metallicFactor" : 0.5
			}
		}
	],
	"meshes" : [
		{
			"primitives" : [
				{
					"attributes" : {
						"NORMAL" : 1,
						"POSITION" : 0,
						"COLOR_0" : 2
					},
					"indices" : 3,
					"material" : 0,
					"mode" : 4
				}
			]
		}
	],
	"nodes" : [
		{
			"name" : "B339171638801063C0",
			"matrix" : [ 1, 0, 0, 0, 0, 0, -1, 0, 0, 1, 0, 0, 833910.75, 3.677000045776367, -816377.5625, 1 ],
			"children" : [ 1 ]
		},
		{
			"mesh" : 0
		}
	],
	"scenes" : [
		{
			"nodes" : [ 0 ]
		}
	],
	"scene" : 0,
	"accessors" : [
		{
			"bufferView" : 0,
			"byteOffset" : 0,
			"componentType" : 5126,
			"count" : 14127,
			"type" : "VEC3",
			"min" : [ -20.291015625, -19.4716796875, 0 ],
			"max" : [ 20.291015625, 19.47265625, 152.27899169921875 ]
		},
		{
			"bufferView" : 1,
			"byteOffset" : 0,
			"componentType" : 5126,
			"count" : 14127,
			"type" : "VEC3",
			"min" : [ -1, -0.9999628663063049, -1 ],
			"max" : [ 0.9999295473098755, 0.999962568283081, 1 ]
		},
		{
			"bufferView" : 2,
			"byteOffset" : 0,
			"componentType" : 5126,
			"count" : 14127,
			"type" : "VEC3"
		},
		{
			"bufferView" : 3,
			"byteOffset" : 0,
			"componentType" : 5123,
			"count" : 14127,
			"type" : "SCALAR",
			"min" : [ 0 ],
			"max" : [ 14126 ]
		}
	],
	"bufferViews" : [
		{
			"buffer" : 0,
			"byteOffset" : 0,
			"byteLength" : 169524,
			"target" : 34962
		},
		{
			"buffer" : 0,
			"byteOffset" : 169524,
			"byteLength" : 169524,
			"target" : 34962
		},
		{
			"buffer" : 0,
			"byteOffset" : 339048,
			"byteLength" : 169524,
			"target" : 34962
		},
		{
			"buffer" : 0,
			"byteOffset" : 508572,
			"byteLength" : 28254,
			"target" : 34963
		}
	],
	"buffers" : [
		{
			"uri" : "B339171638801063C0.bin",
			"byteLength" : 536826
		}
	]
}
