{
	"asset" : {
		"generator" : "FME 2023.1.0.0",
		"version" : "2.0"
	},
	"materials" : [
		{
			"name" : "default_material",
			"pbrMetallicRoughness" : {
				"baseColorFactor" : [ 1, 1, 1, 1 ],
				"roughnessFactor" : 0.30000000000000004,
				"metallicFactor" : 0.5
			}
		}
	],
	"meshes" : [
		{
			"primitives" : [
				{
					"attributes" : {
						"NORMAL" : 1,
						"POSITION" : 0,
						"COLOR_0" : 2
					},
					"indices" : 3,
					"material" : 0,
					"mode" : 4
				}
			]
		}
	],
	"nodes" : [
		{
			"name" : "B347201503702063C0",
			"matrix" : [ 1, 0, 0, 0, 0, 0, -1, 0, 0, 1, 0, 0, 834720.5625, 131.92100524902344, -815035.3125, 1 ],
			"children" : [ 1 ]
		},
		{
			"mesh" : 0
		}
	],
	"scenes" : [
		{
			"nodes" : [ 0 ]
		}
	],
	"scene" : 0,
	"accessors" : [
		{
			"bufferView" : 0,
			"byteOffset" : 0,
			"componentType" : 5126,
			"count" : 408,
			"type" : "VEC3",
			"min" : [ -33.8515625, -16.5341796875, 0 ],
			"max" : [ 33.8525390625, 16.533203125, 6.1649932861328125 ]
		},
		{
			"bufferView" : 1,
			"byteOffset" : 0,
			"componentType" : 5126,
			"count" : 408,
			"type" : "VEC3",
			"min" : [ -0.9996492266654968, -0.9919872879981995, -1 ],
			"max" : [ 0.9996554851531982, 0.9633216857910156, 1 ]
		},
		{
			"bufferView" : 2,
			"byteOffset" : 0,
			"componentType" : 5126,
			"count" : 408,
			"type" : "VEC3"
		},
		{
			"bufferView" : 3,
			"byteOffset" : 0,
			"componentType" : 5123,
			"count" : 408,
			"type" : "SCALAR",
			"min" : [ 0 ],
			"max" : [ 407 ]
		}
	],
	"bufferViews" : [
		{
			"buffer" : 0,
			"byteOffset" : 0,
			"byteLength" : 4896,
			"target" : 34962
		},
		{
			"buffer" : 0,
			"byteOffset" : 4896,
			"byteLength" : 4896,
			"target" : 34962
		},
		{
			"buffer" : 0,
			"byteOffset" : 9792,
			"byteLength" : 4896,
			"target" : 34962
		},
		{
			"buffer" : 0,
			"byteOffset" : 14688,
			"byteLength" : 816,
			"target" : 34963
		}
	],
	"buffers" : [
		{
			"uri" : "B347201503702063C0.bin",
			"byteLength" : 15504
		}
	]
}
