{
	"asset" : {
		"generator" : "FME 2022.2.4.0",
		"version" : "2.0"
	},
	"materials" : [
		{
			"name" : "default_material",
			"pbrMetallicRoughness" : {
				"baseColorFactor" : [ 1, 1, 1, 1 ],
				"roughnessFactor" : 0.30000000000000004,
				"metallicFactor" : 0.5
			}
		}
	],
	"meshes" : [
		{
			"primitives" : [
				{
					"attributes" : {
						"NORMAL" : 1,
						"POSITION" : 0,
						"COLOR_0" : 2
					},
					"indices" : 3,
					"material" : 0,
					"mode" : 4
				}
			]
		}
	],
	"nodes" : [
		{
			"name" : "B355271512501063C0",
			"matrix" : [ 1, 0, 0, 0, 0, 0, -1, 0, 0, 1, 0, 0, 835526.75, 34.513999938964844, -815128.625, 1 ],
			"children" : [ 1 ]
		},
		{
			"mesh" : 0
		}
	],
	"scenes" : [
		{
			"nodes" : [ 0 ]
		}
	],
	"scene" : 0,
	"accessors" : [
		{
			"bufferView" : 0,
			"byteOffset" : 0,
			"componentType" : 5126,
			"count" : 1311,
			"type" : "VEC3",
			"min" : [ -8.9853515625, -11.1787109375, 0 ],
			"max" : [ 8.9853515625, 11.177734375, 13.698001861572266 ]
		},
		{
			"bufferView" : 1,
			"byteOffset" : 0,
			"componentType" : 5126,
			"count" : 1311,
			"type" : "VEC3",
			"min" : [ -0.9979224801063538, -0.9333456158638, -1 ],
			"max" : [ 0.9333099126815796, 0.986882746219635, 1 ]
		},
		{
			"bufferView" : 2,
			"byteOffset" : 0,
			"componentType" : 5126,
			"count" : 1311,
			"type" : "VEC3"
		},
		{
			"bufferView" : 3,
			"byteOffset" : 0,
			"componentType" : 5123,
			"count" : 1311,
			"type" : "SCALAR",
			"min" : [ 0 ],
			"max" : [ 1310 ]
		}
	],
	"bufferViews" : [
		{
			"buffer" : 0,
			"byteOffset" : 0,
			"byteLength" : 15732,
			"target" : 34962
		},
		{
			"buffer" : 0,
			"byteOffset" : 15732,
			"byteLength" : 15732,
			"target" : 34962
		},
		{
			"buffer" : 0,
			"byteOffset" : 31464,
			"byteLength" : 15732,
			"target" : 34962
		},
		{
			"buffer" : 0,
			"byteOffset" : 47196,
			"byteLength" : 2622,
			"target" : 34963
		}
	],
	"buffers" : [
		{
			"uri" : "B355271512501063C0.bin",
			"byteLength" : 49818
		}
	]
}
