{
	"asset" : {
		"generator" : "FME 2023.1.0.0",
		"version" : "2.0"
	},
	"materials" : [
		{
			"name" : "default_material",
			"pbrMetallicRoughness" : {
				"baseColorFactor" : [ 1, 1, 1, 1 ],
				"roughnessFactor" : 0.30000000000000004,
				"metallicFactor" : 0.5
			}
		}
	],
	"meshes" : [
		{
			"primitives" : [
				{
					"attributes" : {
						"NORMAL" : 1,
						"POSITION" : 0,
						"COLOR_0" : 2
					},
					"indices" : 3,
					"material" : 0,
					"mode" : 4
				}
			]
		}
	],
	"nodes" : [
		{
			"name" : "B335811649401063C0",
			"matrix" : [ 1, 0, 0, 0, 0, 0, -1, 0, 0, 1, 0, 0, 833581.9375, 17.367000579833984, -816495.625, 1 ],
			"children" : [ 1 ]
		},
		{
			"mesh" : 0
		}
	],
	"scenes" : [
		{
			"nodes" : [ 0 ]
		}
	],
	"scene" : 0,
	"accessors" : [
		{
			"bufferView" : 0,
			"byteOffset" : 0,
			"componentType" : 5126,
			"count" : 495,
			"type" : "VEC3",
			"min" : [ -4.8876953125, -7.8701171875, 0 ],
			"max" : [ 4.8876953125, 7.869140625, 54.29899978637695 ]
		},
		{
			"bufferView" : 1,
			"byteOffset" : 0,
			"componentType" : 5126,
			"count" : 495,
			"type" : "VEC3",
			"min" : [ -0.9656538963317871, -0.9659820199012756, -0.9999164342880249 ],
			"max" : [ 0.966763436794281, 0.9655777215957642, 1 ]
		},
		{
			"bufferView" : 2,
			"byteOffset" : 0,
			"componentType" : 5126,
			"count" : 495,
			"type" : "VEC3"
		},
		{
			"bufferView" : 3,
			"byteOffset" : 0,
			"componentType" : 5123,
			"count" : 495,
			"type" : "SCALAR",
			"min" : [ 0 ],
			"max" : [ 494 ]
		}
	],
	"bufferViews" : [
		{
			"buffer" : 0,
			"byteOffset" : 0,
			"byteLength" : 5940,
			"target" : 34962
		},
		{
			"buffer" : 0,
			"byteOffset" : 5940,
			"byteLength" : 5940,
			"target" : 34962
		},
		{
			"buffer" : 0,
			"byteOffset" : 11880,
			"byteLength" : 5940,
			"target" : 34962
		},
		{
			"buffer" : 0,
			"byteOffset" : 17820,
			"byteLength" : 990,
			"target" : 34963
		}
	],
	"buffers" : [
		{
			"uri" : "B335811649401063C0.bin",
			"byteLength" : 18810
		}
	]
}
