{
	"asset" : {
		"generator" : "FME 2023.1.0.0",
		"version" : "2.0"
	},
	"materials" : [
		{
			"name" : "default_material",
			"pbrMetallicRoughness" : {
				"baseColorFactor" : [ 1, 1, 1, 1 ],
				"roughnessFactor" : 0.30000000000000004,
				"metallicFactor" : 0.5
			}
		}
	],
	"meshes" : [
		{
			"primitives" : [
				{
					"attributes" : {
						"NORMAL" : 1,
						"POSITION" : 0,
						"COLOR_0" : 2
					},
					"indices" : 3,
					"material" : 0,
					"mode" : 4
				}
			]
		}
	],
	"nodes" : [
		{
			"name" : "B339991624002063C0",
			"matrix" : [ 1, 0, 0, 0, 0, 0, -1, 0, 0, 1, 0, 0, 833999.875, 1.2169952392578125, -816241.1875, 1 ],
			"children" : [ 1 ]
		},
		{
			"mesh" : 0
		}
	],
	"scenes" : [
		{
			"nodes" : [ 0 ]
		}
	],
	"scene" : 0,
	"accessors" : [
		{
			"bufferView" : 0,
			"byteOffset" : 0,
			"componentType" : 5126,
			"count" : 1230,
			"type" : "VEC3",
			"min" : [ -15.314453125, -17.6552734375, 0 ],
			"max" : [ 15.314453125, 17.6552734375, 20.67300033569336 ]
		},
		{
			"bufferView" : 1,
			"byteOffset" : 0,
			"componentType" : 5126,
			"count" : 1230,
			"type" : "VEC3",
			"min" : [ -0.8729720711708069, -0.8731223344802856, -1 ],
			"max" : [ 0.8733279705047607, 0.8731223344802856, 1 ]
		},
		{
			"bufferView" : 2,
			"byteOffset" : 0,
			"componentType" : 5126,
			"count" : 1230,
			"type" : "VEC3"
		},
		{
			"bufferView" : 3,
			"byteOffset" : 0,
			"componentType" : 5123,
			"count" : 1230,
			"type" : "SCALAR",
			"min" : [ 0 ],
			"max" : [ 1229 ]
		}
	],
	"bufferViews" : [
		{
			"buffer" : 0,
			"byteOffset" : 0,
			"byteLength" : 14760,
			"target" : 34962
		},
		{
			"buffer" : 0,
			"byteOffset" : 14760,
			"byteLength" : 14760,
			"target" : 34962
		},
		{
			"buffer" : 0,
			"byteOffset" : 29520,
			"byteLength" : 14760,
			"target" : 34962
		},
		{
			"buffer" : 0,
			"byteOffset" : 44280,
			"byteLength" : 2460,
			"target" : 34963
		}
	],
	"buffers" : [
		{
			"uri" : "B339991624002063C0.bin",
			"byteLength" : 46740
		}
	]
}
