{
	"asset" : {
		"generator" : "FME 2022.2.4.0",
		"version" : "2.0"
	},
	"materials" : [
		{
			"name" : "default_material",
			"pbrMetallicRoughness" : {
				"baseColorFactor" : [ 1, 1, 1, 1 ],
				"roughnessFactor" : 0.30000000000000004,
				"metallicFactor" : 0.5
			}
		}
	],
	"meshes" : [
		{
			"primitives" : [
				{
					"attributes" : {
						"NORMAL" : 1,
						"POSITION" : 0,
						"COLOR_0" : 2
					},
					"indices" : 3,
					"material" : 0,
					"mode" : 4
				}
			]
		}
	],
	"nodes" : [
		{
			"name" : "B170411473701062G0",
			"matrix" : [ 1, 0, 0, 0, 0, 0, -1, 0, 0, 1, 0, 0, 817041.125, 18.688199996948242, -814736.75, 1 ],
			"children" : [ 1 ]
		},
		{
			"mesh" : 0
		}
	],
	"scenes" : [
		{
			"nodes" : [ 0 ]
		}
	],
	"scene" : 0,
	"accessors" : [
		{
			"bufferView" : 0,
			"byteOffset" : 0,
			"componentType" : 5126,
			"count" : 138,
			"type" : "VEC3",
			"min" : [ -5.125, -4.8125, 0 ],
			"max" : [ 5.0625, 4.75, 5.51409912109375 ]
		},
		{
			"bufferView" : 1,
			"byteOffset" : 0,
			"componentType" : 5126,
			"count" : 138,
			"type" : "VEC3",
			"min" : [ -0.752918541431427, -0.753202497959137, -1 ],
			"max" : [ 0.7530174255371094, 0.7530167102813721, 1 ]
		},
		{
			"bufferView" : 2,
			"byteOffset" : 0,
			"componentType" : 5126,
			"count" : 138,
			"type" : "VEC3"
		},
		{
			"bufferView" : 3,
			"byteOffset" : 0,
			"componentType" : 5121,
			"count" : 138,
			"type" : "SCALAR",
			"min" : [ 0 ],
			"max" : [ 137 ]
		}
	],
	"bufferViews" : [
		{
			"buffer" : 0,
			"byteOffset" : 0,
			"byteLength" : 1656,
			"target" : 34962
		},
		{
			"buffer" : 0,
			"byteOffset" : 1656,
			"byteLength" : 1656,
			"target" : 34962
		},
		{
			"buffer" : 0,
			"byteOffset" : 3312,
			"byteLength" : 1656,
			"target" : 34962
		},
		{
			"buffer" : 0,
			"byteOffset" : 4968,
			"byteLength" : 138,
			"target" : 34963
		}
	],
	"buffers" : [
		{
			"uri" : "B170411473701062G0.bin",
			"byteLength" : 5106
		}
	]
}
