{
	"asset" : {
		"generator" : "FME 2023.2.1.0",
		"version" : "2.0"
	},
	"materials" : [
		{
			"name" : "default_material",
			"pbrMetallicRoughness" : {
				"baseColorFactor" : [ 1, 1, 1, 1 ],
				"roughnessFactor" : 0.30000000000000004,
				"metallicFactor" : 0.5
			}
		}
	],
	"meshes" : [
		{
			"primitives" : [
				{
					"attributes" : {
						"NORMAL" : 1,
						"POSITION" : 0,
						"COLOR_0" : 2
					},
					"indices" : 3,
					"material" : 0,
					"mode" : 4
				}
			]
		}
	],
	"nodes" : [
		{
			"name" : "B336671631801063C0",
			"matrix" : [ 1, 0, 0, 0, 0, 0, -1, 0, 0, 1, 0, 0, 833662.875, 2.7100000381469727, -816307, 1 ],
			"children" : [ 1 ]
		},
		{
			"mesh" : 0
		}
	],
	"scenes" : [
		{
			"nodes" : [ 0 ]
		}
	],
	"scene" : 0,
	"accessors" : [
		{
			"bufferView" : 0,
			"byteOffset" : 0,
			"componentType" : 5126,
			"count" : 1614,
			"type" : "VEC3",
			"min" : [ -15.4091796875, -15.1220703125, 0 ],
			"max" : [ 15.408203125, 15.123046875, 24.459918975830078 ]
		},
		{
			"bufferView" : 1,
			"byteOffset" : 0,
			"componentType" : 5126,
			"count" : 1614,
			"type" : "VEC3",
			"min" : [ -0.8689505457878113, -0.9625563621520996, -1 ],
			"max" : [ 0.9913591742515564, 0.9624807834625244, 1 ]
		},
		{
			"bufferView" : 2,
			"byteOffset" : 0,
			"componentType" : 5126,
			"count" : 1614,
			"type" : "VEC3"
		},
		{
			"bufferView" : 3,
			"byteOffset" : 0,
			"componentType" : 5123,
			"count" : 1614,
			"type" : "SCALAR",
			"min" : [ 0 ],
			"max" : [ 1613 ]
		}
	],
	"bufferViews" : [
		{
			"buffer" : 0,
			"byteOffset" : 0,
			"byteLength" : 19368,
			"target" : 34962
		},
		{
			"buffer" : 0,
			"byteOffset" : 19368,
			"byteLength" : 19368,
			"target" : 34962
		},
		{
			"buffer" : 0,
			"byteOffset" : 38736,
			"byteLength" : 19368,
			"target" : 34962
		},
		{
			"buffer" : 0,
			"byteOffset" : 58104,
			"byteLength" : 3228,
			"target" : 34963
		}
	],
	"buffers" : [
		{
			"uri" : "B336671631801063C0.bin",
			"byteLength" : 61332
		}
	]
}
