{
	"asset" : {
		"generator" : "FME 2023.2.1.0",
		"version" : "2.0"
	},
	"materials" : [
		{
			"name" : "default_material",
			"pbrMetallicRoughness" : {
				"baseColorFactor" : [ 1, 1, 1, 1 ],
				"roughnessFactor" : 0.30000000000000004,
				"metallicFactor" : 0.5
			}
		}
	],
	"meshes" : [
		{
			"primitives" : [
				{
					"attributes" : {
						"NORMAL" : 1,
						"POSITION" : 0,
						"COLOR_0" : 2
					},
					"indices" : 3,
					"material" : 0,
					"mode" : 4
				}
			]
		}
	],
	"nodes" : [
		{
			"name" : "B357711523601063C0",
			"matrix" : [ 1, 0, 0, 0, 0, 0, -1, 0, 0, 1, 0, 0, 835768.75, 4.367000102996826, -815238.9375, 1 ],
			"children" : [ 1 ]
		},
		{
			"mesh" : 0
		}
	],
	"scenes" : [
		{
			"nodes" : [ 0 ]
		}
	],
	"scene" : 0,
	"accessors" : [
		{
			"bufferView" : 0,
			"byteOffset" : 0,
			"componentType" : 5126,
			"count" : 597,
			"type" : "VEC3",
			"min" : [ -6.9375, -7.8525390625, 0 ],
			"max" : [ 6.9365234375, 7.8515625, 22.285999298095703 ]
		},
		{
			"bufferView" : 1,
			"byteOffset" : 0,
			"componentType" : 5126,
			"count" : 597,
			"type" : "VEC3",
			"min" : [ -0.9105349779129028, -0.9107140302658081, -1 ],
			"max" : [ 0.9101441502571106, 0.9116811156272888, 1 ]
		},
		{
			"bufferView" : 2,
			"byteOffset" : 0,
			"componentType" : 5126,
			"count" : 597,
			"type" : "VEC3"
		},
		{
			"bufferView" : 3,
			"byteOffset" : 0,
			"componentType" : 5123,
			"count" : 597,
			"type" : "SCALAR",
			"min" : [ 0 ],
			"max" : [ 596 ]
		}
	],
	"bufferViews" : [
		{
			"buffer" : 0,
			"byteOffset" : 0,
			"byteLength" : 7164,
			"target" : 34962
		},
		{
			"buffer" : 0,
			"byteOffset" : 7164,
			"byteLength" : 7164,
			"target" : 34962
		},
		{
			"buffer" : 0,
			"byteOffset" : 14328,
			"byteLength" : 7164,
			"target" : 34962
		},
		{
			"buffer" : 0,
			"byteOffset" : 21492,
			"byteLength" : 1194,
			"target" : 34963
		}
	],
	"buffers" : [
		{
			"uri" : "B357711523601063C0.bin",
			"byteLength" : 22686
		}
	]
}
