{
	"asset" : {
		"generator" : "FME 2022.2.4.0",
		"version" : "2.0"
	},
	"materials" : [
		{
			"name" : "default_material",
			"pbrMetallicRoughness" : {
				"baseColorFactor" : [ 1, 1, 1, 1 ],
				"roughnessFactor" : 0.30000000000000004,
				"metallicFactor" : 0.5
			}
		}
	],
	"meshes" : [
		{
			"primitives" : [
				{
					"attributes" : {
						"NORMAL" : 1,
						"POSITION" : 0,
						"COLOR_0" : 2
					},
					"indices" : 3,
					"material" : 0,
					"mode" : 4
				}
			]
		}
	],
	"nodes" : [
		{
			"name" : "B341201578701063C0",
			"matrix" : [ 1, 0, 0, 0, 0, 0, -1, 0, 0, 1, 0, 0, 834116.875, 14.39799976348877, -815783.25, 1 ],
			"children" : [ 1 ]
		},
		{
			"mesh" : 0
		}
	],
	"scenes" : [
		{
			"nodes" : [ 0 ]
		}
	],
	"scene" : 0,
	"accessors" : [
		{
			"bufferView" : 0,
			"byteOffset" : 0,
			"componentType" : 5126,
			"count" : 693,
			"type" : "VEC3",
			"min" : [ -6.3876953125, -4.98828125, 0 ],
			"max" : [ 6.2939453125, 5.0283203125, 69.32299041748047 ]
		},
		{
			"bufferView" : 1,
			"byteOffset" : 0,
			"componentType" : 5126,
			"count" : 693,
			"type" : "VEC3",
			"min" : [ -0.9904261231422424, -0.9998111724853516, -1 ],
			"max" : [ 0.9904798865318298, 0.9905576705932617, 1 ]
		},
		{
			"bufferView" : 2,
			"byteOffset" : 0,
			"componentType" : 5126,
			"count" : 693,
			"type" : "VEC3"
		},
		{
			"bufferView" : 3,
			"byteOffset" : 0,
			"componentType" : 5123,
			"count" : 693,
			"type" : "SCALAR",
			"min" : [ 0 ],
			"max" : [ 692 ]
		}
	],
	"bufferViews" : [
		{
			"buffer" : 0,
			"byteOffset" : 0,
			"byteLength" : 8316,
			"target" : 34962
		},
		{
			"buffer" : 0,
			"byteOffset" : 8316,
			"byteLength" : 8316,
			"target" : 34962
		},
		{
			"buffer" : 0,
			"byteOffset" : 16632,
			"byteLength" : 8316,
			"target" : 34962
		},
		{
			"buffer" : 0,
			"byteOffset" : 24948,
			"byteLength" : 1386,
			"target" : 34963
		}
	],
	"buffers" : [
		{
			"uri" : "B341201578701063C0.bin",
			"byteLength" : 26334
		}
	]
}
