{
	"asset" : {
		"generator" : "FME 2023.2.1.0",
		"version" : "2.0"
	},
	"materials" : [
		{
			"name" : "default_material",
			"pbrMetallicRoughness" : {
				"baseColorFactor" : [ 1, 1, 1, 1 ],
				"roughnessFactor" : 0.30000000000000004,
				"metallicFactor" : 0.5
			}
		}
	],
	"meshes" : [
		{
			"primitives" : [
				{
					"attributes" : {
						"NORMAL" : 1,
						"POSITION" : 0,
						"COLOR_0" : 2
					},
					"indices" : 3,
					"material" : 0,
					"mode" : 4
				}
			]
		}
	],
	"nodes" : [
		{
			"name" : "B341051574001063C0",
			"matrix" : [ 1, 0, 0, 0, 0, 0, -1, 0, 0, 1, 0, 0, 834101.375, 21.28700065612793, -815746.375, 1 ],
			"children" : [ 1 ]
		},
		{
			"mesh" : 0
		}
	],
	"scenes" : [
		{
			"nodes" : [ 0 ]
		}
	],
	"scene" : 0,
	"accessors" : [
		{
			"bufferView" : 0,
			"byteOffset" : 0,
			"componentType" : 5126,
			"count" : 2373,
			"type" : "VEC3",
			"min" : [ -10.9736328125, -11.2353515625, 0 ],
			"max" : [ 10.9833984375, 11.19921875, 47.162994384765625 ]
		},
		{
			"bufferView" : 1,
			"byteOffset" : 0,
			"componentType" : 5126,
			"count" : 2373,
			"type" : "VEC3",
			"min" : [ -0.8451114296913147, -0.803451418876648, -1 ],
			"max" : [ 0.803333044052124, 0.8190405368804932, 1 ]
		},
		{
			"bufferView" : 2,
			"byteOffset" : 0,
			"componentType" : 5126,
			"count" : 2373,
			"type" : "VEC3"
		},
		{
			"bufferView" : 3,
			"byteOffset" : 0,
			"componentType" : 5123,
			"count" : 2373,
			"type" : "SCALAR",
			"min" : [ 0 ],
			"max" : [ 2372 ]
		}
	],
	"bufferViews" : [
		{
			"buffer" : 0,
			"byteOffset" : 0,
			"byteLength" : 28476,
			"target" : 34962
		},
		{
			"buffer" : 0,
			"byteOffset" : 28476,
			"byteLength" : 28476,
			"target" : 34962
		},
		{
			"buffer" : 0,
			"byteOffset" : 56952,
			"byteLength" : 28476,
			"target" : 34962
		},
		{
			"buffer" : 0,
			"byteOffset" : 85428,
			"byteLength" : 4746,
			"target" : 34963
		}
	],
	"buffers" : [
		{
			"uri" : "B341051574001063C0.bin",
			"byteLength" : 90174
		}
	]
}
