{
	"asset" : {
		"generator" : "FME 2023.2.1.0",
		"version" : "2.0"
	},
	"materials" : [
		{
			"name" : "default_material",
			"pbrMetallicRoughness" : {
				"baseColorFactor" : [ 1, 1, 1, 1 ],
				"roughnessFactor" : 0.30000000000000004,
				"metallicFactor" : 0.5
			}
		}
	],
	"meshes" : [
		{
			"primitives" : [
				{
					"attributes" : {
						"NORMAL" : 1,
						"POSITION" : 0,
						"COLOR_0" : 2
					},
					"indices" : 3,
					"material" : 0,
					"mode" : 4
				}
			]
		}
	],
	"nodes" : [
		{
			"name" : "B338161601301063C0",
			"matrix" : [ 1, 0, 0, 0, 0, 0, -1, 0, 0, 1, 0, 0, 833819.4375, 27.28700065612793, -816012.25, 1 ],
			"children" : [ 1 ]
		},
		{
			"mesh" : 0
		}
	],
	"scenes" : [
		{
			"nodes" : [ 0 ]
		}
	],
	"scene" : 0,
	"accessors" : [
		{
			"bufferView" : 0,
			"byteOffset" : 0,
			"componentType" : 5126,
			"count" : 267,
			"type" : "VEC3",
			"min" : [ -5.44921875, -6.9482421875, 0 ],
			"max" : [ 5.443359375, 6.89453125, 25.643999099731445 ]
		},
		{
			"bufferView" : 1,
			"byteOffset" : 0,
			"componentType" : 5126,
			"count" : 267,
			"type" : "VEC3",
			"min" : [ -0.8173770308494568, -0.7735331058502197, -0.0012540536699816585 ],
			"max" : [ 0.8238168954849243, 0.7736643552780151, 1 ]
		},
		{
			"bufferView" : 2,
			"byteOffset" : 0,
			"componentType" : 5126,
			"count" : 267,
			"type" : "VEC3"
		},
		{
			"bufferView" : 3,
			"byteOffset" : 0,
			"componentType" : 5123,
			"count" : 267,
			"type" : "SCALAR",
			"min" : [ 0 ],
			"max" : [ 266 ]
		}
	],
	"bufferViews" : [
		{
			"buffer" : 0,
			"byteOffset" : 0,
			"byteLength" : 3204,
			"target" : 34962
		},
		{
			"buffer" : 0,
			"byteOffset" : 3204,
			"byteLength" : 3204,
			"target" : 34962
		},
		{
			"buffer" : 0,
			"byteOffset" : 6408,
			"byteLength" : 3204,
			"target" : 34962
		},
		{
			"buffer" : 0,
			"byteOffset" : 9612,
			"byteLength" : 534,
			"target" : 34963
		}
	],
	"buffers" : [
		{
			"uri" : "B338161601301063C0.bin",
			"byteLength" : 10146
		}
	]
}
