{
	"asset" : {
		"generator" : "FME 2023.1.0.0",
		"version" : "2.0"
	},
	"materials" : [
		{
			"name" : "default_material",
			"pbrMetallicRoughness" : {
				"baseColorFactor" : [ 1, 1, 1, 1 ],
				"roughnessFactor" : 0.30000000000000004,
				"metallicFactor" : 0.5
			}
		}
	],
	"meshes" : [
		{
			"primitives" : [
				{
					"attributes" : {
						"NORMAL" : 1,
						"POSITION" : 0,
						"COLOR_0" : 2
					},
					"indices" : 3,
					"material" : 0,
					"mode" : 4
				}
			]
		}
	],
	"nodes" : [
		{
			"name" : "B345441525301063C0",
			"matrix" : [ 1, 0, 0, 0, 0, 0, -1, 0, 0, 1, 0, 0, 834545.875, 55.974998474121094, -815249.3125, 1 ],
			"children" : [ 1 ]
		},
		{
			"mesh" : 0
		}
	],
	"scenes" : [
		{
			"nodes" : [ 0 ]
		}
	],
	"scene" : 0,
	"accessors" : [
		{
			"bufferView" : 0,
			"byteOffset" : 0,
			"componentType" : 5126,
			"count" : 840,
			"type" : "VEC3",
			"min" : [ -10.96484375, -8.30859375, 0 ],
			"max" : [ 10.96484375, 8.3076171875, 48.029998779296875 ]
		},
		{
			"bufferView" : 1,
			"byteOffset" : 0,
			"componentType" : 5126,
			"count" : 840,
			"type" : "VEC3",
			"min" : [ -0.9798040390014648, -0.9783366918563843, -1 ],
			"max" : [ 0.9797163605690002, 0.9787359833717346, 1 ]
		},
		{
			"bufferView" : 2,
			"byteOffset" : 0,
			"componentType" : 5126,
			"count" : 840,
			"type" : "VEC3"
		},
		{
			"bufferView" : 3,
			"byteOffset" : 0,
			"componentType" : 5123,
			"count" : 840,
			"type" : "SCALAR",
			"min" : [ 0 ],
			"max" : [ 839 ]
		}
	],
	"bufferViews" : [
		{
			"buffer" : 0,
			"byteOffset" : 0,
			"byteLength" : 10080,
			"target" : 34962
		},
		{
			"buffer" : 0,
			"byteOffset" : 10080,
			"byteLength" : 10080,
			"target" : 34962
		},
		{
			"buffer" : 0,
			"byteOffset" : 20160,
			"byteLength" : 10080,
			"target" : 34962
		},
		{
			"buffer" : 0,
			"byteOffset" : 30240,
			"byteLength" : 1680,
			"target" : 34963
		}
	],
	"buffers" : [
		{
			"uri" : "B345441525301063C0.bin",
			"byteLength" : 31920
		}
	]
}
