{
	"asset" : {
		"generator" : "FME 2023.2.1.0",
		"version" : "2.0"
	},
	"materials" : [
		{
			"name" : "default_material",
			"pbrMetallicRoughness" : {
				"baseColorFactor" : [ 1, 1, 1, 1 ],
				"roughnessFactor" : 0.30000000000000004,
				"metallicFactor" : 0.5
			}
		}
	],
	"meshes" : [
		{
			"primitives" : [
				{
					"attributes" : {
						"NORMAL" : 1,
						"POSITION" : 0,
						"COLOR_0" : 2
					},
					"indices" : 3,
					"material" : 0,
					"mode" : 4
				}
			]
		}
	],
	"nodes" : [
		{
			"name" : "B339061598501063C0",
			"matrix" : [ 1, 0, 0, 0, 0, 0, -1, 0, 0, 1, 0, 0, 833905.4375, 22.23699951171875, -815987.375, 1 ],
			"children" : [ 1 ]
		},
		{
			"mesh" : 0
		}
	],
	"scenes" : [
		{
			"nodes" : [ 0 ]
		}
	],
	"scene" : 0,
	"accessors" : [
		{
			"bufferView" : 0,
			"byteOffset" : 0,
			"componentType" : 5126,
			"count" : 720,
			"type" : "VEC3",
			"min" : [ -8.12109375, -9.1220703125, 0 ],
			"max" : [ 8.123046875, 9.1513671875, 40.58100128173828 ]
		},
		{
			"bufferView" : 1,
			"byteOffset" : 0,
			"componentType" : 5126,
			"count" : 720,
			"type" : "VEC3",
			"min" : [ -0.8378186225891113, -1, -1 ],
			"max" : [ 0.8424692749977112, 0.7249994874000549, 1 ]
		},
		{
			"bufferView" : 2,
			"byteOffset" : 0,
			"componentType" : 5126,
			"count" : 720,
			"type" : "VEC3"
		},
		{
			"bufferView" : 3,
			"byteOffset" : 0,
			"componentType" : 5123,
			"count" : 720,
			"type" : "SCALAR",
			"min" : [ 0 ],
			"max" : [ 719 ]
		}
	],
	"bufferViews" : [
		{
			"buffer" : 0,
			"byteOffset" : 0,
			"byteLength" : 8640,
			"target" : 34962
		},
		{
			"buffer" : 0,
			"byteOffset" : 8640,
			"byteLength" : 8640,
			"target" : 34962
		},
		{
			"buffer" : 0,
			"byteOffset" : 17280,
			"byteLength" : 8640,
			"target" : 34962
		},
		{
			"buffer" : 0,
			"byteOffset" : 25920,
			"byteLength" : 1440,
			"target" : 34963
		}
	],
	"buffers" : [
		{
			"uri" : "B339061598501063C0.bin",
			"byteLength" : 27360
		}
	]
}
