{
	"asset" : {
		"generator" : "FME 2023.2.1.0",
		"version" : "2.0"
	},
	"materials" : [
		{
			"name" : "default_material",
			"pbrMetallicRoughness" : {
				"baseColorFactor" : [ 1, 1, 1, 1 ],
				"roughnessFactor" : 0.30000000000000004,
				"metallicFactor" : 0.5
			}
		}
	],
	"meshes" : [
		{
			"primitives" : [
				{
					"attributes" : {
						"NORMAL" : 1,
						"POSITION" : 0,
						"COLOR_0" : 2
					},
					"indices" : 3,
					"material" : 0,
					"mode" : 4
				}
			]
		}
	],
	"nodes" : [
		{
			"name" : "B334061568702063C0",
			"matrix" : [ 1, 0, 0, 0, 0, 0, -1, 0, 0, 1, 0, 0, 833406.5625, 147.13800048828125, -815685.875, 1 ],
			"children" : [ 1 ]
		},
		{
			"mesh" : 0
		}
	],
	"scenes" : [
		{
			"nodes" : [ 0 ]
		}
	],
	"scene" : 0,
	"accessors" : [
		{
			"bufferView" : 0,
			"byteOffset" : 0,
			"componentType" : 5126,
			"count" : 165,
			"type" : "VEC3",
			"min" : [ -7.4638671875, -7.986328125, 0 ],
			"max" : [ 7.46484375, 7.9853515625, 9.072006225585938 ]
		},
		{
			"bufferView" : 1,
			"byteOffset" : 0,
			"componentType" : 5126,
			"count" : 165,
			"type" : "VEC3",
			"min" : [ -0.874270498752594, -0.859227180480957, -0.00038197514368221164 ],
			"max" : [ 0.8735761642456055, 0.8501858115196228, 1 ]
		},
		{
			"bufferView" : 2,
			"byteOffset" : 0,
			"componentType" : 5126,
			"count" : 165,
			"type" : "VEC3"
		},
		{
			"bufferView" : 3,
			"byteOffset" : 0,
			"componentType" : 5121,
			"count" : 165,
			"type" : "SCALAR",
			"min" : [ 0 ],
			"max" : [ 164 ]
		}
	],
	"bufferViews" : [
		{
			"buffer" : 0,
			"byteOffset" : 0,
			"byteLength" : 1980,
			"target" : 34962
		},
		{
			"buffer" : 0,
			"byteOffset" : 1980,
			"byteLength" : 1980,
			"target" : 34962
		},
		{
			"buffer" : 0,
			"byteOffset" : 3960,
			"byteLength" : 1980,
			"target" : 34962
		},
		{
			"buffer" : 0,
			"byteOffset" : 5940,
			"byteLength" : 165,
			"target" : 34963
		}
	],
	"buffers" : [
		{
			"uri" : "B334061568702063C0.bin",
			"byteLength" : 6105
		}
	]
}
