{
	"asset" : {
		"generator" : "FME 2023.1.0.0",
		"version" : "2.0"
	},
	"materials" : [
		{
			"name" : "default_material",
			"pbrMetallicRoughness" : {
				"baseColorFactor" : [ 1, 1, 1, 1 ],
				"roughnessFactor" : 0.30000000000000004,
				"metallicFactor" : 0.5
			}
		}
	],
	"meshes" : [
		{
			"primitives" : [
				{
					"attributes" : {
						"NORMAL" : 1,
						"POSITION" : 0,
						"COLOR_0" : 2
					},
					"indices" : 3,
					"material" : 0,
					"mode" : 4
				}
			]
		}
	],
	"nodes" : [
		{
			"name" : "B333671611402063C0",
			"matrix" : [ 1, 0, 0, 0, 0, 0, -1, 0, 0, 1, 0, 0, 833367.0625, 37.191009521484375, -816113.375, 1 ],
			"children" : [ 1 ]
		},
		{
			"mesh" : 0
		}
	],
	"scenes" : [
		{
			"nodes" : [ 0 ]
		}
	],
	"scene" : 0,
	"accessors" : [
		{
			"bufferView" : 0,
			"byteOffset" : 0,
			"componentType" : 5126,
			"count" : 225,
			"type" : "VEC3",
			"min" : [ -4.716796875, -5.8203125, 0 ],
			"max" : [ 4.7177734375, 5.8193359375, 12.481998443603516 ]
		},
		{
			"bufferView" : 1,
			"byteOffset" : 0,
			"componentType" : 5126,
			"count" : 225,
			"type" : "VEC3",
			"min" : [ -0.7682213187217712, -0.7651375532150269, -1 ],
			"max" : [ 0.765006959438324, 0.7647432088851929, 1 ]
		},
		{
			"bufferView" : 2,
			"byteOffset" : 0,
			"componentType" : 5126,
			"count" : 225,
			"type" : "VEC3"
		},
		{
			"bufferView" : 3,
			"byteOffset" : 0,
			"componentType" : 5121,
			"count" : 225,
			"type" : "SCALAR",
			"min" : [ 0 ],
			"max" : [ 224 ]
		}
	],
	"bufferViews" : [
		{
			"buffer" : 0,
			"byteOffset" : 0,
			"byteLength" : 2700,
			"target" : 34962
		},
		{
			"buffer" : 0,
			"byteOffset" : 2700,
			"byteLength" : 2700,
			"target" : 34962
		},
		{
			"buffer" : 0,
			"byteOffset" : 5400,
			"byteLength" : 2700,
			"target" : 34962
		},
		{
			"buffer" : 0,
			"byteOffset" : 8100,
			"byteLength" : 225,
			"target" : 34963
		}
	],
	"buffers" : [
		{
			"uri" : "B333671611402063C0.bin",
			"byteLength" : 8325
		}
	]
}
