{
	"asset" : {
		"generator" : "FME 2023.1.0.0",
		"version" : "2.0"
	},
	"materials" : [
		{
			"name" : "default_material",
			"pbrMetallicRoughness" : {
				"baseColorFactor" : [ 1, 1, 1, 1 ],
				"roughnessFactor" : 0.30000000000000004,
				"metallicFactor" : 0.5
			}
		}
	],
	"meshes" : [
		{
			"primitives" : [
				{
					"attributes" : {
						"NORMAL" : 1,
						"POSITION" : 0,
						"COLOR_0" : 2
					},
					"indices" : 3,
					"material" : 0,
					"mode" : 4
				}
			]
		}
	],
	"nodes" : [
		{
			"name" : "B333221599001063C0",
			"matrix" : [ 1, 0, 0, 0, 0, 0, -1, 0, 0, 1, 0, 0, 833321, 72.6309814453125, -815989.875, 1 ],
			"children" : [ 1 ]
		},
		{
			"mesh" : 0
		}
	],
	"scenes" : [
		{
			"nodes" : [ 0 ]
		}
	],
	"scene" : 0,
	"accessors" : [
		{
			"bufferView" : 0,
			"byteOffset" : 0,
			"componentType" : 5126,
			"count" : 204,
			"type" : "VEC3",
			"min" : [ -3.9111328125, -3.6875, 0 ],
			"max" : [ 3.9111328125, 3.6875, 4.100006103515625 ]
		},
		{
			"bufferView" : 1,
			"byteOffset" : 0,
			"componentType" : 5126,
			"count" : 204,
			"type" : "VEC3",
			"min" : [ -0.8719289302825928, -0.8721852898597717, 0 ],
			"max" : [ 0.8724818825721741, 0.8723304867744446, 1 ]
		},
		{
			"bufferView" : 2,
			"byteOffset" : 0,
			"componentType" : 5126,
			"count" : 204,
			"type" : "VEC3"
		},
		{
			"bufferView" : 3,
			"byteOffset" : 0,
			"componentType" : 5121,
			"count" : 204,
			"type" : "SCALAR",
			"min" : [ 0 ],
			"max" : [ 203 ]
		}
	],
	"bufferViews" : [
		{
			"buffer" : 0,
			"byteOffset" : 0,
			"byteLength" : 2448,
			"target" : 34962
		},
		{
			"buffer" : 0,
			"byteOffset" : 2448,
			"byteLength" : 2448,
			"target" : 34962
		},
		{
			"buffer" : 0,
			"byteOffset" : 4896,
			"byteLength" : 2448,
			"target" : 34962
		},
		{
			"buffer" : 0,
			"byteOffset" : 7344,
			"byteLength" : 204,
			"target" : 34963
		}
	],
	"buffers" : [
		{
			"uri" : "B333221599001063C0.bin",
			"byteLength" : 7548
		}
	]
}
