{
	"asset" : {
		"generator" : "FME 2023.1.0.0",
		"version" : "2.0"
	},
	"materials" : [
		{
			"name" : "default_material",
			"pbrMetallicRoughness" : {
				"baseColorFactor" : [ 1, 1, 1, 1 ],
				"roughnessFactor" : 0.30000000000000004,
				"metallicFactor" : 0.5
			}
		}
	],
	"meshes" : [
		{
			"primitives" : [
				{
					"attributes" : {
						"NORMAL" : 1,
						"POSITION" : 0,
						"COLOR_0" : 2
					},
					"indices" : 3,
					"material" : 0,
					"mode" : 4
				}
			]
		}
	],
	"nodes" : [
		{
			"name" : "B359421555702063C0",
			"matrix" : [ 1, 0, 0, 0, 0, 0, -1, 0, 0, 1, 0, 0, 835934, 2.8529999256134033, -815555.1875, 1 ],
			"children" : [ 1 ]
		},
		{
			"mesh" : 0
		}
	],
	"scenes" : [
		{
			"nodes" : [ 0 ]
		}
	],
	"scene" : 0,
	"accessors" : [
		{
			"bufferView" : 0,
			"byteOffset" : 0,
			"componentType" : 5126,
			"count" : 588,
			"type" : "VEC3",
			"min" : [ -22.2177734375, -11.2685546875, 0 ],
			"max" : [ 22.21875, 11.26953125, 22.38500213623047 ]
		},
		{
			"bufferView" : 1,
			"byteOffset" : 0,
			"componentType" : 5126,
			"count" : 588,
			"type" : "VEC3",
			"min" : [ -0.9937458038330078, -0.9957613945007324, -1 ],
			"max" : [ 0.9935663938522339, 0.994784414768219, 1 ]
		},
		{
			"bufferView" : 2,
			"byteOffset" : 0,
			"componentType" : 5126,
			"count" : 588,
			"type" : "VEC3"
		},
		{
			"bufferView" : 3,
			"byteOffset" : 0,
			"componentType" : 5123,
			"count" : 588,
			"type" : "SCALAR",
			"min" : [ 0 ],
			"max" : [ 587 ]
		}
	],
	"bufferViews" : [
		{
			"buffer" : 0,
			"byteOffset" : 0,
			"byteLength" : 7056,
			"target" : 34962
		},
		{
			"buffer" : 0,
			"byteOffset" : 7056,
			"byteLength" : 7056,
			"target" : 34962
		},
		{
			"buffer" : 0,
			"byteOffset" : 14112,
			"byteLength" : 7056,
			"target" : 34962
		},
		{
			"buffer" : 0,
			"byteOffset" : 21168,
			"byteLength" : 1176,
			"target" : 34963
		}
	],
	"buffers" : [
		{
			"uri" : "B359421555702063C0.bin",
			"byteLength" : 22344
		}
	]
}
