{"asset":{"generator":"FME 2023.2.1.0","version":"2.0"},"materials":[{"name":"T18000120000106E10","pbrMetallicRoughness":{"roughnessFactor":0.984375,"metallicFactor":0.5}}],"meshes":[{"primitives":[{"attributes":{"NORMAL":1,"POSITION":0,"TEXCOORD_0":2},"indices":3,"material":0,"mode":4}]}],"nodes":[{"name":"T18000120000106E10","matrix":[1,0,0,0,0,0,-1,0,0,1,0,0,818375,0.5900001525878906,-812300,1],"children":[1]},{"mesh":0}],"scenes":[{"nodes":[0]}],"scene":0,"accessors":[{"bufferView":0,"byteOffset":0,"componentType":5126,"count":210240,"type":"VEC3","min":[-375,-300,0],"max":[375,300,102.26333618164062]},{"bufferView":1,"byteOffset":0,"componentType":5126,"count":210240,"type":"VEC3","min":[-0.6728420257568359,-0.8568342328071594,0.5013278722763062],"max":[0.7781736850738525,0.6277787089347839,1]},{"bufferView":2,"byteOffset":0,"componentType":5126,"count":210240,"type":"VEC2","min":[0,0],"max":[1,1]},{"bufferView":3,"byteOffset":0,"componentType":5125,"count":210240,"type":"SCALAR","min":[0],"max":[210239]}],"bufferViews":[{"buffer":0,"byteOffset":0,"byteLength":2522880,"target":34962},{"buffer":0,"byteOffset":2522880,"byteLength":2522880,"target":34962},{"buffer":0,"byteOffset":5045760,"byteLength":1681920,"target":34962},{"buffer":0,"byteOffset":6727680,"byteLength":840960,"target":34963}],"buffers":[{"uri":"T18000120000106E10.bin","byteLength":7568640}]}