{
	"asset" : {
		"generator" : "FME 2023.2.1.0",
		"version" : "2.0"
	},
	"materials" : [
		{
			"name" : "default_material",
			"pbrMetallicRoughness" : {
				"baseColorFactor" : [ 1, 1, 1, 1 ],
				"roughnessFactor" : 0.30000000000000004,
				"metallicFactor" : 0.5
			}
		}
	],
	"meshes" : [
		{
			"primitives" : [
				{
					"attributes" : {
						"NORMAL" : 1,
						"POSITION" : 0,
						"COLOR_0" : 2
					},
					"indices" : 3,
					"material" : 0,
					"mode" : 4
				}
			]
		}
	],
	"nodes" : [
		{
			"name" : "B350511521801063C0",
			"matrix" : [ 1, 0, 0, 0, 0, 0, -1, 0, 0, 1, 0, 0, 835051.8125, 43.57899856567383, -815219.375, 1 ],
			"children" : [ 1 ]
		},
		{
			"mesh" : 0
		}
	],
	"scenes" : [
		{
			"nodes" : [ 0 ]
		}
	],
	"scene" : 0,
	"accessors" : [
		{
			"bufferView" : 0,
			"byteOffset" : 0,
			"componentType" : 5126,
			"count" : 75,
			"type" : "VEC3",
			"min" : [ -1.9609375, -2.6826171875, 0 ],
			"max" : [ 1.9599609375, 2.6826171875, 3.1030006408691406 ]
		},
		{
			"bufferView" : 1,
			"byteOffset" : 0,
			"componentType" : 5126,
			"count" : 75,
			"type" : "VEC3",
			"min" : [ -0.9831592440605164, -0.946071207523346, 0 ],
			"max" : [ 0.9473469257354736, 0.9469985961914062, 1 ]
		},
		{
			"bufferView" : 2,
			"byteOffset" : 0,
			"componentType" : 5126,
			"count" : 75,
			"type" : "VEC3"
		},
		{
			"bufferView" : 3,
			"byteOffset" : 0,
			"componentType" : 5121,
			"count" : 75,
			"type" : "SCALAR",
			"min" : [ 0 ],
			"max" : [ 74 ]
		}
	],
	"bufferViews" : [
		{
			"buffer" : 0,
			"byteOffset" : 0,
			"byteLength" : 900,
			"target" : 34962
		},
		{
			"buffer" : 0,
			"byteOffset" : 900,
			"byteLength" : 900,
			"target" : 34962
		},
		{
			"buffer" : 0,
			"byteOffset" : 1800,
			"byteLength" : 900,
			"target" : 34962
		},
		{
			"buffer" : 0,
			"byteOffset" : 2700,
			"byteLength" : 75,
			"target" : 34963
		}
	],
	"buffers" : [
		{
			"uri" : "B350511521801063C0.bin",
			"byteLength" : 2775
		}
	]
}
