{
	"asset" : {
		"generator" : "FME 2023.2.1.0",
		"version" : "2.0"
	},
	"materials" : [
		{
			"name" : "default_material",
			"pbrMetallicRoughness" : {
				"baseColorFactor" : [ 1, 1, 1, 1 ],
				"roughnessFactor" : 0.30000000000000004,
				"metallicFactor" : 0.5
			}
		}
	],
	"meshes" : [
		{
			"primitives" : [
				{
					"attributes" : {
						"NORMAL" : 1,
						"POSITION" : 0,
						"COLOR_0" : 2
					},
					"indices" : 3,
					"material" : 0,
					"mode" : 4
				}
			]
		}
	],
	"nodes" : [
		{
			"name" : "B331691593301063C0",
			"matrix" : [ 1, 0, 0, 0, 0, 0, -1, 0, 0, 1, 0, 0, 833169.8125, 125.927001953125, -815925.375, 1 ],
			"children" : [ 1 ]
		},
		{
			"mesh" : 0
		}
	],
	"scenes" : [
		{
			"nodes" : [ 0 ]
		}
	],
	"scene" : 0,
	"accessors" : [
		{
			"bufferView" : 0,
			"byteOffset" : 0,
			"componentType" : 5126,
			"count" : 384,
			"type" : "VEC3",
			"min" : [ -6.06787109375, -11.3603515625, 0 ],
			"max" : [ 6.068359375, 11.3603515625, 21.6300048828125 ]
		},
		{
			"bufferView" : 1,
			"byteOffset" : 0,
			"componentType" : 5126,
			"count" : 384,
			"type" : "VEC3",
			"min" : [ -0.9418059587478638, -0.938495934009552, -1 ],
			"max" : [ 0.9418332576751709, 0.9384009838104248, 1 ]
		},
		{
			"bufferView" : 2,
			"byteOffset" : 0,
			"componentType" : 5126,
			"count" : 384,
			"type" : "VEC3"
		},
		{
			"bufferView" : 3,
			"byteOffset" : 0,
			"componentType" : 5123,
			"count" : 384,
			"type" : "SCALAR",
			"min" : [ 0 ],
			"max" : [ 383 ]
		}
	],
	"bufferViews" : [
		{
			"buffer" : 0,
			"byteOffset" : 0,
			"byteLength" : 4608,
			"target" : 34962
		},
		{
			"buffer" : 0,
			"byteOffset" : 4608,
			"byteLength" : 4608,
			"target" : 34962
		},
		{
			"buffer" : 0,
			"byteOffset" : 9216,
			"byteLength" : 4608,
			"target" : 34962
		},
		{
			"buffer" : 0,
			"byteOffset" : 13824,
			"byteLength" : 768,
			"target" : 34963
		}
	],
	"buffers" : [
		{
			"uri" : "B331691593301063C0.bin",
			"byteLength" : 14592
		}
	]
}
