{
	"asset" : {
		"generator" : "FME 2022.2.4.0",
		"version" : "2.0"
	},
	"materials" : [
		{
			"name" : "default_material",
			"pbrMetallicRoughness" : {
				"baseColorFactor" : [ 1, 1, 1, 1 ],
				"roughnessFactor" : 0.30000000000000004,
				"metallicFactor" : 0.5
			}
		}
	],
	"meshes" : [
		{
			"primitives" : [
				{
					"attributes" : {
						"NORMAL" : 1,
						"POSITION" : 0,
						"COLOR_0" : 2
					},
					"indices" : 3,
					"material" : 0,
					"mode" : 4
				}
			]
		}
	],
	"nodes" : [
		{
			"name" : "B339231587901063C0",
			"matrix" : [ 1, 0, 0, 0, 0, 0, -1, 0, 0, 1, 0, 0, 833923.6875, 35.612998962402344, -815878.6875, 1 ],
			"children" : [ 1 ]
		},
		{
			"mesh" : 0
		}
	],
	"scenes" : [
		{
			"nodes" : [ 0 ]
		}
	],
	"scene" : 0,
	"accessors" : [
		{
			"bufferView" : 0,
			"byteOffset" : 0,
			"componentType" : 5126,
			"count" : 3687,
			"type" : "VEC3",
			"min" : [ -32.376953125, -19.7646484375, 0 ],
			"max" : [ 32.376953125, 19.765625, 23.197002410888672 ]
		},
		{
			"bufferView" : 1,
			"byteOffset" : 0,
			"componentType" : 5126,
			"count" : 3687,
			"type" : "VEC3",
			"min" : [ -0.998079240322113, -0.9787308573722839, -1 ],
			"max" : [ 0.9682773351669312, 0.9952549934387207, 1 ]
		},
		{
			"bufferView" : 2,
			"byteOffset" : 0,
			"componentType" : 5126,
			"count" : 3687,
			"type" : "VEC3"
		},
		{
			"bufferView" : 3,
			"byteOffset" : 0,
			"componentType" : 5123,
			"count" : 3687,
			"type" : "SCALAR",
			"min" : [ 0 ],
			"max" : [ 3686 ]
		}
	],
	"bufferViews" : [
		{
			"buffer" : 0,
			"byteOffset" : 0,
			"byteLength" : 44244,
			"target" : 34962
		},
		{
			"buffer" : 0,
			"byteOffset" : 44244,
			"byteLength" : 44244,
			"target" : 34962
		},
		{
			"buffer" : 0,
			"byteOffset" : 88488,
			"byteLength" : 44244,
			"target" : 34962
		},
		{
			"buffer" : 0,
			"byteOffset" : 132732,
			"byteLength" : 7374,
			"target" : 34963
		}
	],
	"buffers" : [
		{
			"uri" : "B339231587901063C0.bin",
			"byteLength" : 140106
		}
	]
}
