{
	"asset" : {
		"generator" : "FME 2023.1.0.0",
		"version" : "2.0"
	},
	"materials" : [
		{
			"name" : "default_material",
			"pbrMetallicRoughness" : {
				"baseColorFactor" : [ 1, 1, 1, 1 ],
				"roughnessFactor" : 0.30000000000000004,
				"metallicFactor" : 0.5
			}
		}
	],
	"meshes" : [
		{
			"primitives" : [
				{
					"attributes" : {
						"NORMAL" : 1,
						"POSITION" : 0,
						"COLOR_0" : 2
					},
					"indices" : 3,
					"material" : 0,
					"mode" : 4
				}
			]
		}
	],
	"nodes" : [
		{
			"name" : "B331841517901063C0",
			"matrix" : [ 1, 0, 0, 0, 0, 0, -1, 0, 0, 1, 0, 0, 833178.625, 486.5, -815183.5, 1 ],
			"children" : [ 1 ]
		},
		{
			"mesh" : 0
		}
	],
	"scenes" : [
		{
			"nodes" : [ 0 ]
		}
	],
	"scene" : 0,
	"accessors" : [
		{
			"bufferView" : 0,
			"byteOffset" : 0,
			"componentType" : 5126,
			"count" : 258,
			"type" : "VEC3",
			"min" : [ -9.123046875, -7.814453125, 0 ],
			"max" : [ 9.18408203125, 7.7412109375, 16.842987060546875 ]
		},
		{
			"bufferView" : 1,
			"byteOffset" : 0,
			"componentType" : 5126,
			"count" : 258,
			"type" : "VEC3",
			"min" : [ -1, -0.8470301032066345, 0 ],
			"max" : [ 0.847442090511322, 0.8471524119377136, 1 ]
		},
		{
			"bufferView" : 2,
			"byteOffset" : 0,
			"componentType" : 5126,
			"count" : 258,
			"type" : "VEC3"
		},
		{
			"bufferView" : 3,
			"byteOffset" : 0,
			"componentType" : 5123,
			"count" : 258,
			"type" : "SCALAR",
			"min" : [ 0 ],
			"max" : [ 257 ]
		}
	],
	"bufferViews" : [
		{
			"buffer" : 0,
			"byteOffset" : 0,
			"byteLength" : 3096,
			"target" : 34962
		},
		{
			"buffer" : 0,
			"byteOffset" : 3096,
			"byteLength" : 3096,
			"target" : 34962
		},
		{
			"buffer" : 0,
			"byteOffset" : 6192,
			"byteLength" : 3096,
			"target" : 34962
		},
		{
			"buffer" : 0,
			"byteOffset" : 9288,
			"byteLength" : 516,
			"target" : 34963
		}
	],
	"buffers" : [
		{
			"uri" : "B331841517901063C0.bin",
			"byteLength" : 9804
		}
	]
}
