{
	"asset" : {
		"generator" : "FME 2023.1.0.0",
		"version" : "2.0"
	},
	"materials" : [
		{
			"name" : "default_material",
			"pbrMetallicRoughness" : {
				"baseColorFactor" : [ 1, 1, 1, 1 ],
				"roughnessFactor" : 0.30000000000000004,
				"metallicFactor" : 0.5
			}
		}
	],
	"meshes" : [
		{
			"primitives" : [
				{
					"attributes" : {
						"NORMAL" : 1,
						"POSITION" : 0,
						"COLOR_0" : 2
					},
					"indices" : 3,
					"material" : 0,
					"mode" : 4
				}
			]
		}
	],
	"nodes" : [
		{
			"name" : "B337301616001063C0",
			"matrix" : [ 1, 0, 0, 0, 0, 0, -1, 0, 0, 1, 0, 0, 833733.5625, 16.652008056640625, -816168.5, 1 ],
			"children" : [ 1 ]
		},
		{
			"mesh" : 0
		}
	],
	"scenes" : [
		{
			"nodes" : [ 0 ]
		}
	],
	"scene" : 0,
	"accessors" : [
		{
			"bufferView" : 0,
			"byteOffset" : 0,
			"componentType" : 5126,
			"count" : 564,
			"type" : "VEC3",
			"min" : [ -5.4150390625, -10.8154296875, 0 ],
			"max" : [ 5.4150390625, 10.8154296875, 31.060001373291016 ]
		},
		{
			"bufferView" : 1,
			"byteOffset" : 0,
			"componentType" : 5126,
			"count" : 564,
			"type" : "VEC3",
			"min" : [ -0.9660155177116394, -0.966681718826294, -0.0031540002673864365 ],
			"max" : [ 0.9644083380699158, 0.9644880294799805, 1 ]
		},
		{
			"bufferView" : 2,
			"byteOffset" : 0,
			"componentType" : 5126,
			"count" : 564,
			"type" : "VEC3"
		},
		{
			"bufferView" : 3,
			"byteOffset" : 0,
			"componentType" : 5123,
			"count" : 564,
			"type" : "SCALAR",
			"min" : [ 0 ],
			"max" : [ 563 ]
		}
	],
	"bufferViews" : [
		{
			"buffer" : 0,
			"byteOffset" : 0,
			"byteLength" : 6768,
			"target" : 34962
		},
		{
			"buffer" : 0,
			"byteOffset" : 6768,
			"byteLength" : 6768,
			"target" : 34962
		},
		{
			"buffer" : 0,
			"byteOffset" : 13536,
			"byteLength" : 6768,
			"target" : 34962
		},
		{
			"buffer" : 0,
			"byteOffset" : 20304,
			"byteLength" : 1128,
			"target" : 34963
		}
	],
	"buffers" : [
		{
			"uri" : "B337301616001063C0.bin",
			"byteLength" : 21432
		}
	]
}
