{
	"asset" : {
		"generator" : "FME 2022.2.4.0",
		"version" : "2.0"
	},
	"materials" : [
		{
			"name" : "default_material",
			"pbrMetallicRoughness" : {
				"baseColorFactor" : [ 1, 1, 1, 1 ],
				"roughnessFactor" : 0.30000000000000004,
				"metallicFactor" : 0.5
			}
		}
	],
	"meshes" : [
		{
			"primitives" : [
				{
					"attributes" : {
						"NORMAL" : 1,
						"POSITION" : 0,
						"COLOR_0" : 2
					},
					"indices" : 3,
					"material" : 0,
					"mode" : 4
				}
			]
		}
	],
	"nodes" : [
		{
			"name" : "B335651584601063C0",
			"matrix" : [ 1, 0, 0, 0, 0, 0, -1, 0, 0, 1, 0, 0, 833563.8125, 92.916015625, -815842.625, 1 ],
			"children" : [ 1 ]
		},
		{
			"mesh" : 0
		}
	],
	"scenes" : [
		{
			"nodes" : [ 0 ]
		}
	],
	"scene" : 0,
	"accessors" : [
		{
			"bufferView" : 0,
			"byteOffset" : 0,
			"componentType" : 5126,
			"count" : 429,
			"type" : "VEC3",
			"min" : [ -6.8564453125, -5.9248046875, 0 ],
			"max" : [ 6.8564453125, 5.9248046875, 17.31299591064453 ]
		},
		{
			"bufferView" : 1,
			"byteOffset" : 0,
			"componentType" : 5126,
			"count" : 429,
			"type" : "VEC3",
			"min" : [ -0.7649112343788147, -0.738115668296814, -0.0016859180759638548 ],
			"max" : [ 0.7725160717964172, 0.7384023070335388, 1 ]
		},
		{
			"bufferView" : 2,
			"byteOffset" : 0,
			"componentType" : 5126,
			"count" : 429,
			"type" : "VEC3"
		},
		{
			"bufferView" : 3,
			"byteOffset" : 0,
			"componentType" : 5123,
			"count" : 429,
			"type" : "SCALAR",
			"min" : [ 0 ],
			"max" : [ 428 ]
		}
	],
	"bufferViews" : [
		{
			"buffer" : 0,
			"byteOffset" : 0,
			"byteLength" : 5148,
			"target" : 34962
		},
		{
			"buffer" : 0,
			"byteOffset" : 5148,
			"byteLength" : 5148,
			"target" : 34962
		},
		{
			"buffer" : 0,
			"byteOffset" : 10296,
			"byteLength" : 5148,
			"target" : 34962
		},
		{
			"buffer" : 0,
			"byteOffset" : 15444,
			"byteLength" : 858,
			"target" : 34963
		}
	],
	"buffers" : [
		{
			"uri" : "B335651584601063C0.bin",
			"byteLength" : 16302
		}
	]
}
