{
	"asset" : {
		"generator" : "FME 2023.2.2.0",
		"version" : "2.0"
	},
	"materials" : [
		{
			"name" : "default_material",
			"pbrMetallicRoughness" : {
				"baseColorFactor" : [ 1, 1, 1, 1 ],
				"roughnessFactor" : 0.30000000000000004,
				"metallicFactor" : 0.5
			}
		}
	],
	"meshes" : [
		{
			"primitives" : [
				{
					"attributes" : {
						"NORMAL" : 1,
						"POSITION" : 0,
						"COLOR_0" : 2
					},
					"indices" : 3,
					"material" : 0,
					"mode" : 4
				}
			]
		}
	],
	"nodes" : [
		{
			"name" : "B163861458301062G0",
			"matrix" : [ 1, 0, 0, 0, 0, 0, -1, 0, 0, 1, 0, 0, 816386.5, 59.62950134277344, -814582.75, 1 ],
			"children" : [ 1 ]
		},
		{
			"mesh" : 0
		}
	],
	"scenes" : [
		{
			"nodes" : [ 0 ]
		}
	],
	"scene" : 0,
	"accessors" : [
		{
			"bufferView" : 0,
			"byteOffset" : 0,
			"componentType" : 5126,
			"count" : 105,
			"type" : "VEC3",
			"min" : [ -2.3125, -2.6875, 0 ],
			"max" : [ 2.3125, 2.625, 4.616600036621094 ]
		},
		{
			"bufferView" : 1,
			"byteOffset" : 0,
			"componentType" : 5126,
			"count" : 105,
			"type" : "VEC3",
			"min" : [ -0.9677508473396301, -0.9677242040634155, 0 ],
			"max" : [ 0.9678856730461121, 0.9630267024040222, 1 ]
		},
		{
			"bufferView" : 2,
			"byteOffset" : 0,
			"componentType" : 5126,
			"count" : 105,
			"type" : "VEC3"
		},
		{
			"bufferView" : 3,
			"byteOffset" : 0,
			"componentType" : 5121,
			"count" : 105,
			"type" : "SCALAR",
			"min" : [ 0 ],
			"max" : [ 104 ]
		}
	],
	"bufferViews" : [
		{
			"buffer" : 0,
			"byteOffset" : 0,
			"byteLength" : 1260,
			"target" : 34962
		},
		{
			"buffer" : 0,
			"byteOffset" : 1260,
			"byteLength" : 1260,
			"target" : 34962
		},
		{
			"buffer" : 0,
			"byteOffset" : 2520,
			"byteLength" : 1260,
			"target" : 34962
		},
		{
			"buffer" : 0,
			"byteOffset" : 3780,
			"byteLength" : 105,
			"target" : 34963
		}
	],
	"buffers" : [
		{
			"uri" : "B163861458301062G0.bin",
			"byteLength" : 3885
		}
	]
}
