{
	"asset" : {
		"generator" : "FME 2023.2.1.0",
		"version" : "2.0"
	},
	"materials" : [
		{
			"name" : "default_material",
			"pbrMetallicRoughness" : {
				"baseColorFactor" : [ 1, 1, 1, 1 ],
				"roughnessFactor" : 0.30000000000000004,
				"metallicFactor" : 0.5
			}
		}
	],
	"meshes" : [
		{
			"primitives" : [
				{
					"attributes" : {
						"NORMAL" : 1,
						"POSITION" : 0,
						"COLOR_0" : 2
					},
					"indices" : 3,
					"material" : 0,
					"mode" : 4
				}
			]
		}
	],
	"nodes" : [
		{
			"name" : "B170121237001062G0",
			"matrix" : [ 1, 0, 0, 0, 0, 0, -1, 0, 0, 1, 0, 0, 817010.875, 273.3092956542969, -812369.9375, 1 ],
			"children" : [ 1 ]
		},
		{
			"mesh" : 0
		}
	],
	"scenes" : [
		{
			"nodes" : [ 0 ]
		}
	],
	"scene" : 0,
	"accessors" : [
		{
			"bufferView" : 0,
			"byteOffset" : 0,
			"componentType" : 5126,
			"count" : 234,
			"type" : "VEC3",
			"min" : [ -4, -4.125, 0 ],
			"max" : [ 4, 4.125, 5.144317626953125 ]
		},
		{
			"bufferView" : 1,
			"byteOffset" : 0,
			"componentType" : 5126,
			"count" : 234,
			"type" : "VEC3",
			"min" : [ -0.7631763815879822, -0.7756142020225525, -0.042103081941604614 ],
			"max" : [ 0.7808781862258911, 0.7766847014427185, 1 ]
		},
		{
			"bufferView" : 2,
			"byteOffset" : 0,
			"componentType" : 5126,
			"count" : 234,
			"type" : "VEC3"
		},
		{
			"bufferView" : 3,
			"byteOffset" : 0,
			"componentType" : 5121,
			"count" : 234,
			"type" : "SCALAR",
			"min" : [ 0 ],
			"max" : [ 233 ]
		}
	],
	"bufferViews" : [
		{
			"buffer" : 0,
			"byteOffset" : 0,
			"byteLength" : 2808,
			"target" : 34962
		},
		{
			"buffer" : 0,
			"byteOffset" : 2808,
			"byteLength" : 2808,
			"target" : 34962
		},
		{
			"buffer" : 0,
			"byteOffset" : 5616,
			"byteLength" : 2808,
			"target" : 34962
		},
		{
			"buffer" : 0,
			"byteOffset" : 8424,
			"byteLength" : 234,
			"target" : 34963
		}
	],
	"buffers" : [
		{
			"uri" : "B170121237001062G0.bin",
			"byteLength" : 8658
		}
	]
}
