{
	"asset" : {
		"generator" : "FME 2023.2.1.0",
		"version" : "2.0"
	},
	"materials" : [
		{
			"name" : "default_material",
			"pbrMetallicRoughness" : {
				"baseColorFactor" : [ 1, 1, 1, 1 ],
				"roughnessFactor" : 0.30000000000000004,
				"metallicFactor" : 0.5
			}
		}
	],
	"meshes" : [
		{
			"primitives" : [
				{
					"attributes" : {
						"NORMAL" : 1,
						"POSITION" : 0,
						"COLOR_0" : 2
					},
					"indices" : 3,
					"material" : 0,
					"mode" : 4
				}
			]
		}
	],
	"nodes" : [
		{
			"name" : "B333471619501063C0",
			"matrix" : [ 1, 0, 0, 0, 0, 0, -1, 0, 0, 1, 0, 0, 833349.625, 27.42300033569336, -816193.5, 1 ],
			"children" : [ 1 ]
		},
		{
			"mesh" : 0
		}
	],
	"scenes" : [
		{
			"nodes" : [ 0 ]
		}
	],
	"scene" : 0,
	"accessors" : [
		{
			"bufferView" : 0,
			"byteOffset" : 0,
			"componentType" : 5126,
			"count" : 504,
			"type" : "VEC3",
			"min" : [ -7.05078125, -6.5556640625, 0 ],
			"max" : [ 7.025390625, 6.6513671875, 23.284000396728516 ]
		},
		{
			"bufferView" : 1,
			"byteOffset" : 0,
			"componentType" : 5126,
			"count" : 504,
			"type" : "VEC3",
			"min" : [ -0.7682212591171265, -0.8137029409408569, -0.9988293051719666 ],
			"max" : [ 0.7682212591171265, 0.7921288013458252, 1 ]
		},
		{
			"bufferView" : 2,
			"byteOffset" : 0,
			"componentType" : 5126,
			"count" : 504,
			"type" : "VEC3"
		},
		{
			"bufferView" : 3,
			"byteOffset" : 0,
			"componentType" : 5123,
			"count" : 504,
			"type" : "SCALAR",
			"min" : [ 0 ],
			"max" : [ 503 ]
		}
	],
	"bufferViews" : [
		{
			"buffer" : 0,
			"byteOffset" : 0,
			"byteLength" : 6048,
			"target" : 34962
		},
		{
			"buffer" : 0,
			"byteOffset" : 6048,
			"byteLength" : 6048,
			"target" : 34962
		},
		{
			"buffer" : 0,
			"byteOffset" : 12096,
			"byteLength" : 6048,
			"target" : 34962
		},
		{
			"buffer" : 0,
			"byteOffset" : 18144,
			"byteLength" : 1008,
			"target" : 34963
		}
	],
	"buffers" : [
		{
			"uri" : "B333471619501063C0.bin",
			"byteLength" : 19152
		}
	]
}
