{
	"asset" : {
		"generator" : "FME 2023.2.1.0",
		"version" : "2.0"
	},
	"materials" : [
		{
			"name" : "default_material",
			"pbrMetallicRoughness" : {
				"baseColorFactor" : [ 1, 1, 1, 1 ],
				"roughnessFactor" : 0.30000000000000004,
				"metallicFactor" : 0.5
			}
		}
	],
	"meshes" : [
		{
			"primitives" : [
				{
					"attributes" : {
						"NORMAL" : 1,
						"POSITION" : 0,
						"COLOR_0" : 2
					},
					"indices" : 3,
					"material" : 0,
					"mode" : 4
				}
			]
		}
	],
	"nodes" : [
		{
			"name" : "B337091580501063C0",
			"matrix" : [ 1, 0, 0, 0, 0, 0, -1, 0, 0, 1, 0, 0, 833710.4375, 67.3179931640625, -815800.75, 1 ],
			"children" : [ 1 ]
		},
		{
			"mesh" : 0
		}
	],
	"scenes" : [
		{
			"nodes" : [ 0 ]
		}
	],
	"scene" : 0,
	"accessors" : [
		{
			"bufferView" : 0,
			"byteOffset" : 0,
			"componentType" : 5126,
			"count" : 3921,
			"type" : "VEC3",
			"min" : [ -20.326171875, -19.681640625, 0 ],
			"max" : [ 20.326171875, 19.681640625, 62.256988525390625 ]
		},
		{
			"bufferView" : 1,
			"byteOffset" : 0,
			"componentType" : 5126,
			"count" : 3921,
			"type" : "VEC3",
			"min" : [ -0.9994449019432068, -0.7954317331314087, -1 ],
			"max" : [ 0.9998754858970642, 0.9992714524269104, 1 ]
		},
		{
			"bufferView" : 2,
			"byteOffset" : 0,
			"componentType" : 5126,
			"count" : 3921,
			"type" : "VEC3"
		},
		{
			"bufferView" : 3,
			"byteOffset" : 0,
			"componentType" : 5123,
			"count" : 3921,
			"type" : "SCALAR",
			"min" : [ 0 ],
			"max" : [ 3920 ]
		}
	],
	"bufferViews" : [
		{
			"buffer" : 0,
			"byteOffset" : 0,
			"byteLength" : 47052,
			"target" : 34962
		},
		{
			"buffer" : 0,
			"byteOffset" : 47052,
			"byteLength" : 47052,
			"target" : 34962
		},
		{
			"buffer" : 0,
			"byteOffset" : 94104,
			"byteLength" : 47052,
			"target" : 34962
		},
		{
			"buffer" : 0,
			"byteOffset" : 141156,
			"byteLength" : 7842,
			"target" : 34963
		}
	],
	"buffers" : [
		{
			"uri" : "B337091580501063C0.bin",
			"byteLength" : 148998
		}
	]
}
