{
	"asset" : {
		"generator" : "FME 2022.2.4.0",
		"version" : "2.0"
	},
	"materials" : [
		{
			"name" : "default_material",
			"pbrMetallicRoughness" : {
				"baseColorFactor" : [ 1, 1, 1, 1 ],
				"roughnessFactor" : 0.30000000000000004,
				"metallicFactor" : 0.5
			}
		}
	],
	"meshes" : [
		{
			"primitives" : [
				{
					"attributes" : {
						"NORMAL" : 1,
						"POSITION" : 0,
						"COLOR_0" : 2
					},
					"indices" : 3,
					"material" : 0,
					"mode" : 4
				}
			]
		}
	],
	"nodes" : [
		{
			"name" : "B354491506601063C0",
			"matrix" : [ 1, 0, 0, 0, 0, 0, -1, 0, 0, 1, 0, 0, 835451.875, 85.52300262451172, -815063.125, 1 ],
			"children" : [ 1 ]
		},
		{
			"mesh" : 0
		}
	],
	"scenes" : [
		{
			"nodes" : [ 0 ]
		}
	],
	"scene" : 0,
	"accessors" : [
		{
			"bufferView" : 0,
			"byteOffset" : 0,
			"componentType" : 5126,
			"count" : 3390,
			"type" : "VEC3",
			"min" : [ -20.0048828125, -10.4873046875, 0 ],
			"max" : [ 20.005859375, 10.4873046875, 40.11699676513672 ]
		},
		{
			"bufferView" : 1,
			"byteOffset" : 0,
			"componentType" : 5126,
			"count" : 3390,
			"type" : "VEC3",
			"min" : [ -0.9977712631225586, -0.997790515422821, -1 ],
			"max" : [ 0.9971247911453247, 0.9999262690544128, 1 ]
		},
		{
			"bufferView" : 2,
			"byteOffset" : 0,
			"componentType" : 5126,
			"count" : 3390,
			"type" : "VEC3"
		},
		{
			"bufferView" : 3,
			"byteOffset" : 0,
			"componentType" : 5123,
			"count" : 3390,
			"type" : "SCALAR",
			"min" : [ 0 ],
			"max" : [ 3389 ]
		}
	],
	"bufferViews" : [
		{
			"buffer" : 0,
			"byteOffset" : 0,
			"byteLength" : 40680,
			"target" : 34962
		},
		{
			"buffer" : 0,
			"byteOffset" : 40680,
			"byteLength" : 40680,
			"target" : 34962
		},
		{
			"buffer" : 0,
			"byteOffset" : 81360,
			"byteLength" : 40680,
			"target" : 34962
		},
		{
			"buffer" : 0,
			"byteOffset" : 122040,
			"byteLength" : 6780,
			"target" : 34963
		}
	],
	"buffers" : [
		{
			"uri" : "B354491506601063C0.bin",
			"byteLength" : 128820
		}
	]
}
