{
	"asset" : {
		"generator" : "FME 2023.1.0.0",
		"version" : "2.0"
	},
	"materials" : [
		{
			"name" : "default_material",
			"pbrMetallicRoughness" : {
				"baseColorFactor" : [ 1, 1, 1, 1 ],
				"roughnessFactor" : 0.30000000000000004,
				"metallicFactor" : 0.5
			}
		}
	],
	"meshes" : [
		{
			"primitives" : [
				{
					"attributes" : {
						"NORMAL" : 1,
						"POSITION" : 0,
						"COLOR_0" : 2
					},
					"indices" : 3,
					"material" : 0,
					"mode" : 4
				}
			]
		}
	],
	"nodes" : [
		{
			"name" : "B333791638001063C0",
			"matrix" : [ 1, 0, 0, 0, 0, 0, -1, 0, 0, 1, 0, 0, 833377.125, 4.091999053955078, -816383.1875, 1 ],
			"children" : [ 1 ]
		},
		{
			"mesh" : 0
		}
	],
	"scenes" : [
		{
			"nodes" : [ 0 ]
		}
	],
	"scene" : 0,
	"accessors" : [
		{
			"bufferView" : 0,
			"byteOffset" : 0,
			"componentType" : 5126,
			"count" : 216,
			"type" : "VEC3",
			"min" : [ -3.7509765625, -3.4111328125, 0 ],
			"max" : [ 3.751953125, 3.4111328125, 20.182998657226562 ]
		},
		{
			"bufferView" : 1,
			"byteOffset" : 0,
			"componentType" : 5126,
			"count" : 216,
			"type" : "VEC3",
			"min" : [ -0.7398499846458435, -0.7875773310661316, -0.001905358862131834 ],
			"max" : [ 0.7403160333633423, 0.7740315794944763, 1 ]
		},
		{
			"bufferView" : 2,
			"byteOffset" : 0,
			"componentType" : 5126,
			"count" : 216,
			"type" : "VEC3"
		},
		{
			"bufferView" : 3,
			"byteOffset" : 0,
			"componentType" : 5121,
			"count" : 216,
			"type" : "SCALAR",
			"min" : [ 0 ],
			"max" : [ 215 ]
		}
	],
	"bufferViews" : [
		{
			"buffer" : 0,
			"byteOffset" : 0,
			"byteLength" : 2592,
			"target" : 34962
		},
		{
			"buffer" : 0,
			"byteOffset" : 2592,
			"byteLength" : 2592,
			"target" : 34962
		},
		{
			"buffer" : 0,
			"byteOffset" : 5184,
			"byteLength" : 2592,
			"target" : 34962
		},
		{
			"buffer" : 0,
			"byteOffset" : 7776,
			"byteLength" : 216,
			"target" : 34963
		}
	],
	"buffers" : [
		{
			"uri" : "B333791638001063C0.bin",
			"byteLength" : 7992
		}
	]
}
