{
	"asset" : {
		"generator" : "FME 2022.2.4.0",
		"version" : "2.0"
	},
	"materials" : [
		{
			"name" : "default_material",
			"pbrMetallicRoughness" : {
				"baseColorFactor" : [ 1, 1, 1, 1 ],
				"roughnessFactor" : 0.30000000000000004,
				"metallicFactor" : 0.5
			}
		}
	],
	"meshes" : [
		{
			"primitives" : [
				{
					"attributes" : {
						"NORMAL" : 1,
						"POSITION" : 0,
						"COLOR_0" : 2
					},
					"indices" : 3,
					"material" : 0,
					"mode" : 4
				}
			]
		}
	],
	"nodes" : [
		{
			"name" : "B336111641801063C0",
			"matrix" : [ 1, 0, 0, 0, 0, 0, -1, 0, 0, 1, 0, 0, 833613.125, 3.1449999809265137, -816414.3125, 1 ],
			"children" : [ 1 ]
		},
		{
			"mesh" : 0
		}
	],
	"scenes" : [
		{
			"nodes" : [ 0 ]
		}
	],
	"scene" : 0,
	"accessors" : [
		{
			"bufferView" : 0,
			"byteOffset" : 0,
			"componentType" : 5126,
			"count" : 1263,
			"type" : "VEC3",
			"min" : [ -14.275390625, -11.0224609375, 0 ],
			"max" : [ 14.275390625, 11.0234375, 82.4520034790039 ]
		},
		{
			"bufferView" : 1,
			"byteOffset" : 0,
			"componentType" : 5126,
			"count" : 1263,
			"type" : "VEC3",
			"min" : [ -0.9701424837112427, -0.9697307348251343, -1 ],
			"max" : [ 0.9693774580955505, 0.970628559589386, 1 ]
		},
		{
			"bufferView" : 2,
			"byteOffset" : 0,
			"componentType" : 5126,
			"count" : 1263,
			"type" : "VEC3"
		},
		{
			"bufferView" : 3,
			"byteOffset" : 0,
			"componentType" : 5123,
			"count" : 1263,
			"type" : "SCALAR",
			"min" : [ 0 ],
			"max" : [ 1262 ]
		}
	],
	"bufferViews" : [
		{
			"buffer" : 0,
			"byteOffset" : 0,
			"byteLength" : 15156,
			"target" : 34962
		},
		{
			"buffer" : 0,
			"byteOffset" : 15156,
			"byteLength" : 15156,
			"target" : 34962
		},
		{
			"buffer" : 0,
			"byteOffset" : 30312,
			"byteLength" : 15156,
			"target" : 34962
		},
		{
			"buffer" : 0,
			"byteOffset" : 45468,
			"byteLength" : 2526,
			"target" : 34963
		}
	],
	"buffers" : [
		{
			"uri" : "B336111641801063C0.bin",
			"byteLength" : 47994
		}
	]
}
