{
	"asset" : {
		"generator" : "FME 2023.2.1.0",
		"version" : "2.0"
	},
	"materials" : [
		{
			"name" : "default_material",
			"pbrMetallicRoughness" : {
				"baseColorFactor" : [ 1, 1, 1, 1 ],
				"roughnessFactor" : 0.30000000000000004,
				"metallicFactor" : 0.5
			}
		}
	],
	"meshes" : [
		{
			"primitives" : [
				{
					"attributes" : {
						"NORMAL" : 1,
						"POSITION" : 0,
						"COLOR_0" : 2
					},
					"indices" : 3,
					"material" : 0,
					"mode" : 4
				}
			]
		}
	],
	"nodes" : [
		{
			"name" : "B333061648201063C0",
			"matrix" : [ 1, 0, 0, 0, 0, 0, -1, 0, 0, 1, 0, 0, 833298.5, 3.063999891281128, -816472.0625, 1 ],
			"children" : [ 1 ]
		},
		{
			"mesh" : 0
		}
	],
	"scenes" : [
		{
			"nodes" : [ 0 ]
		}
	],
	"scene" : 0,
	"accessors" : [
		{
			"bufferView" : 0,
			"byteOffset" : 0,
			"componentType" : 5126,
			"count" : 915,
			"type" : "VEC3",
			"min" : [ -12.232421875, -12.9326171875, 0 ],
			"max" : [ 12.2333984375, 12.931640625, 80.27999114990234 ]
		},
		{
			"bufferView" : 1,
			"byteOffset" : 0,
			"componentType" : 5126,
			"count" : 915,
			"type" : "VEC3",
			"min" : [ -1, -0.7759143114089966, -1 ],
			"max" : [ 0.7725408673286438, 0.8742425441741943, 1 ]
		},
		{
			"bufferView" : 2,
			"byteOffset" : 0,
			"componentType" : 5126,
			"count" : 915,
			"type" : "VEC3"
		},
		{
			"bufferView" : 3,
			"byteOffset" : 0,
			"componentType" : 5123,
			"count" : 915,
			"type" : "SCALAR",
			"min" : [ 0 ],
			"max" : [ 914 ]
		}
	],
	"bufferViews" : [
		{
			"buffer" : 0,
			"byteOffset" : 0,
			"byteLength" : 10980,
			"target" : 34962
		},
		{
			"buffer" : 0,
			"byteOffset" : 10980,
			"byteLength" : 10980,
			"target" : 34962
		},
		{
			"buffer" : 0,
			"byteOffset" : 21960,
			"byteLength" : 10980,
			"target" : 34962
		},
		{
			"buffer" : 0,
			"byteOffset" : 32940,
			"byteLength" : 1830,
			"target" : 34963
		}
	],
	"buffers" : [
		{
			"uri" : "B333061648201063C0.bin",
			"byteLength" : 34770
		}
	]
}
