{
	"asset" : {
		"generator" : "FME 2023.1.0.0",
		"version" : "2.0"
	},
	"materials" : [
		{
			"name" : "default_material",
			"pbrMetallicRoughness" : {
				"baseColorFactor" : [ 1, 1, 1, 1 ],
				"roughnessFactor" : 0.30000000000000004,
				"metallicFactor" : 0.5
			}
		}
	],
	"meshes" : [
		{
			"primitives" : [
				{
					"attributes" : {
						"NORMAL" : 1,
						"POSITION" : 0,
						"COLOR_0" : 2
					},
					"indices" : 3,
					"material" : 0,
					"mode" : 4
				}
			]
		}
	],
	"nodes" : [
		{
			"name" : "B332961622101063C0",
			"matrix" : [ 1, 0, 0, 0, 0, 0, -1, 0, 0, 1, 0, 0, 833296.125, 25.72100067138672, -816216.125, 1 ],
			"children" : [ 1 ]
		},
		{
			"mesh" : 0
		}
	],
	"scenes" : [
		{
			"nodes" : [ 0 ]
		}
	],
	"scene" : 0,
	"accessors" : [
		{
			"bufferView" : 0,
			"byteOffset" : 0,
			"componentType" : 5126,
			"count" : 828,
			"type" : "VEC3",
			"min" : [ -7.4736328125, -7.4541015625, 0 ],
			"max" : [ 7.421875, 7.4501953125, 25.156997680664062 ]
		},
		{
			"bufferView" : 1,
			"byteOffset" : 0,
			"componentType" : 5126,
			"count" : 828,
			"type" : "VEC3",
			"min" : [ -0.7665542960166931, -0.7739573121070862, -1 ],
			"max" : [ 0.7658392786979675, 0.7797148823738098, 1 ]
		},
		{
			"bufferView" : 2,
			"byteOffset" : 0,
			"componentType" : 5126,
			"count" : 828,
			"type" : "VEC3"
		},
		{
			"bufferView" : 3,
			"byteOffset" : 0,
			"componentType" : 5123,
			"count" : 828,
			"type" : "SCALAR",
			"min" : [ 0 ],
			"max" : [ 827 ]
		}
	],
	"bufferViews" : [
		{
			"buffer" : 0,
			"byteOffset" : 0,
			"byteLength" : 9936,
			"target" : 34962
		},
		{
			"buffer" : 0,
			"byteOffset" : 9936,
			"byteLength" : 9936,
			"target" : 34962
		},
		{
			"buffer" : 0,
			"byteOffset" : 19872,
			"byteLength" : 9936,
			"target" : 34962
		},
		{
			"buffer" : 0,
			"byteOffset" : 29808,
			"byteLength" : 1656,
			"target" : 34963
		}
	],
	"buffers" : [
		{
			"uri" : "B332961622101063C0.bin",
			"byteLength" : 31464
		}
	]
}
