{
	"asset" : {
		"generator" : "FME 2023.1.0.0",
		"version" : "2.0"
	},
	"materials" : [
		{
			"name" : "default_material",
			"pbrMetallicRoughness" : {
				"baseColorFactor" : [ 1, 1, 1, 1 ],
				"roughnessFactor" : 0.30000000000000004,
				"metallicFactor" : 0.5
			}
		}
	],
	"meshes" : [
		{
			"primitives" : [
				{
					"attributes" : {
						"NORMAL" : 1,
						"POSITION" : 0,
						"COLOR_0" : 2
					},
					"indices" : 3,
					"material" : 0,
					"mode" : 4
				}
			]
		}
	],
	"nodes" : [
		{
			"name" : "B339091591402063C0",
			"matrix" : [ 1, 0, 0, 0, 0, 0, -1, 0, 0, 1, 0, 0, 833909.625, 35.025001525878906, -815912.8125, 1 ],
			"children" : [ 1 ]
		},
		{
			"mesh" : 0
		}
	],
	"scenes" : [
		{
			"nodes" : [ 0 ]
		}
	],
	"scene" : 0,
	"accessors" : [
		{
			"bufferView" : 0,
			"byteOffset" : 0,
			"componentType" : 5126,
			"count" : 882,
			"type" : "VEC3",
			"min" : [ -8.716796875, -9.11328125, 0 ],
			"max" : [ 8.716796875, 9.11328125, 16.522998809814453 ]
		},
		{
			"bufferView" : 1,
			"byteOffset" : 0,
			"componentType" : 5126,
			"count" : 882,
			"type" : "VEC3",
			"min" : [ -0.9911553263664246, -0.9955612421035767, -1 ],
			"max" : [ 0.9938837885856628, 0.9958932995796204, 1 ]
		},
		{
			"bufferView" : 2,
			"byteOffset" : 0,
			"componentType" : 5126,
			"count" : 882,
			"type" : "VEC3"
		},
		{
			"bufferView" : 3,
			"byteOffset" : 0,
			"componentType" : 5123,
			"count" : 882,
			"type" : "SCALAR",
			"min" : [ 0 ],
			"max" : [ 881 ]
		}
	],
	"bufferViews" : [
		{
			"buffer" : 0,
			"byteOffset" : 0,
			"byteLength" : 10584,
			"target" : 34962
		},
		{
			"buffer" : 0,
			"byteOffset" : 10584,
			"byteLength" : 10584,
			"target" : 34962
		},
		{
			"buffer" : 0,
			"byteOffset" : 21168,
			"byteLength" : 10584,
			"target" : 34962
		},
		{
			"buffer" : 0,
			"byteOffset" : 31752,
			"byteLength" : 1764,
			"target" : 34963
		}
	],
	"buffers" : [
		{
			"uri" : "B339091591402063C0.bin",
			"byteLength" : 33516
		}
	]
}
