{
	"asset" : {
		"generator" : "FME 2023.2.1.0",
		"version" : "2.0"
	},
	"materials" : [
		{
			"name" : "default_material",
			"pbrMetallicRoughness" : {
				"baseColorFactor" : [ 1, 1, 1, 1 ],
				"roughnessFactor" : 0.30000000000000004,
				"metallicFactor" : 0.5
			}
		}
	],
	"meshes" : [
		{
			"primitives" : [
				{
					"attributes" : {
						"NORMAL" : 1,
						"POSITION" : 0,
						"COLOR_0" : 2
					},
					"indices" : 3,
					"material" : 0,
					"mode" : 4
				}
			]
		}
	],
	"nodes" : [
		{
			"name" : "B335971632702063C0",
			"matrix" : [ 1, 0, 0, 0, 0, 0, -1, 0, 0, 1, 0, 0, 833597.5, 2.9670000076293945, -816327.25, 1 ],
			"children" : [ 1 ]
		},
		{
			"mesh" : 0
		}
	],
	"scenes" : [
		{
			"nodes" : [ 0 ]
		}
	],
	"scene" : 0,
	"accessors" : [
		{
			"bufferView" : 0,
			"byteOffset" : 0,
			"componentType" : 5126,
			"count" : 720,
			"type" : "VEC3",
			"min" : [ -11.5078125, -13.2109375, 0 ],
			"max" : [ 11.5087890625, 13.2119140625, 11.017999649047852 ]
		},
		{
			"bufferView" : 1,
			"byteOffset" : 0,
			"componentType" : 5126,
			"count" : 720,
			"type" : "VEC3",
			"min" : [ -0.9676172733306885, -0.9672825336456299, -1 ],
			"max" : [ 0.9696374535560608, 0.9672883152961731, 1 ]
		},
		{
			"bufferView" : 2,
			"byteOffset" : 0,
			"componentType" : 5126,
			"count" : 720,
			"type" : "VEC3"
		},
		{
			"bufferView" : 3,
			"byteOffset" : 0,
			"componentType" : 5123,
			"count" : 720,
			"type" : "SCALAR",
			"min" : [ 0 ],
			"max" : [ 719 ]
		}
	],
	"bufferViews" : [
		{
			"buffer" : 0,
			"byteOffset" : 0,
			"byteLength" : 8640,
			"target" : 34962
		},
		{
			"buffer" : 0,
			"byteOffset" : 8640,
			"byteLength" : 8640,
			"target" : 34962
		},
		{
			"buffer" : 0,
			"byteOffset" : 17280,
			"byteLength" : 8640,
			"target" : 34962
		},
		{
			"buffer" : 0,
			"byteOffset" : 25920,
			"byteLength" : 1440,
			"target" : 34963
		}
	],
	"buffers" : [
		{
			"uri" : "B335971632702063C0.bin",
			"byteLength" : 27360
		}
	]
}
