{
	"asset" : {
		"generator" : "FME 2022.2.4.0",
		"version" : "2.0"
	},
	"materials" : [
		{
			"name" : "default_material",
			"pbrMetallicRoughness" : {
				"baseColorFactor" : [ 1, 1, 1, 1 ],
				"roughnessFactor" : 0.30000000000000004,
				"metallicFactor" : 0.5
			}
		}
	],
	"meshes" : [
		{
			"primitives" : [
				{
					"attributes" : {
						"NORMAL" : 1,
						"POSITION" : 0,
						"COLOR_0" : 2
					},
					"indices" : 3,
					"material" : 0,
					"mode" : 4
				}
			]
		}
	],
	"nodes" : [
		{
			"name" : "B337631587801063C0",
			"matrix" : [ 1, 0, 0, 0, 0, 0, -1, 0, 0, 1, 0, 0, 833761.5, 62.94499969482422, -815874.3125, 1 ],
			"children" : [ 1 ]
		},
		{
			"mesh" : 0
		}
	],
	"scenes" : [
		{
			"nodes" : [ 0 ]
		}
	],
	"scene" : 0,
	"accessors" : [
		{
			"bufferView" : 0,
			"byteOffset" : 0,
			"componentType" : 5126,
			"count" : 1167,
			"type" : "VEC3",
			"min" : [ -7.841796875, -7.69140625, 0 ],
			"max" : [ 7.841796875, 7.69140625, 72.3550033569336 ]
		},
		{
			"bufferView" : 1,
			"byteOffset" : 0,
			"componentType" : 5126,
			"count" : 1167,
			"type" : "VEC3",
			"min" : [ -0.8411785364151001, -0.8863301873207092, -1 ],
			"max" : [ 0.7371541857719421, 0.7372293472290039, 1 ]
		},
		{
			"bufferView" : 2,
			"byteOffset" : 0,
			"componentType" : 5126,
			"count" : 1167,
			"type" : "VEC3"
		},
		{
			"bufferView" : 3,
			"byteOffset" : 0,
			"componentType" : 5123,
			"count" : 1167,
			"type" : "SCALAR",
			"min" : [ 0 ],
			"max" : [ 1166 ]
		}
	],
	"bufferViews" : [
		{
			"buffer" : 0,
			"byteOffset" : 0,
			"byteLength" : 14004,
			"target" : 34962
		},
		{
			"buffer" : 0,
			"byteOffset" : 14004,
			"byteLength" : 14004,
			"target" : 34962
		},
		{
			"buffer" : 0,
			"byteOffset" : 28008,
			"byteLength" : 14004,
			"target" : 34962
		},
		{
			"buffer" : 0,
			"byteOffset" : 42012,
			"byteLength" : 2334,
			"target" : 34963
		}
	],
	"buffers" : [
		{
			"uri" : "B337631587801063C0.bin",
			"byteLength" : 44346
		}
	]
}
