{
	"asset" : {
		"generator" : "FME 2023.1.0.0",
		"version" : "2.0"
	},
	"materials" : [
		{
			"name" : "default_material",
			"pbrMetallicRoughness" : {
				"baseColorFactor" : [ 1, 1, 1, 1 ],
				"roughnessFactor" : 0.30000000000000004,
				"metallicFactor" : 0.5
			}
		}
	],
	"meshes" : [
		{
			"primitives" : [
				{
					"attributes" : {
						"NORMAL" : 1,
						"POSITION" : 0,
						"COLOR_0" : 2
					},
					"indices" : 3,
					"material" : 0,
					"mode" : 4
				}
			]
		}
	],
	"nodes" : [
		{
			"name" : "B351091501101063C0",
			"matrix" : [ 1, 0, 0, 0, 0, 0, -1, 0, 0, 1, 0, 0, 835110.9375, 73.2040023803711, -814995.4375, 1 ],
			"children" : [ 1 ]
		},
		{
			"mesh" : 0
		}
	],
	"scenes" : [
		{
			"nodes" : [ 0 ]
		}
	],
	"scene" : 0,
	"accessors" : [
		{
			"bufferView" : 0,
			"byteOffset" : 0,
			"componentType" : 5126,
			"count" : 3840,
			"type" : "VEC3",
			"min" : [ -21.95703125, -27.578125, 0 ],
			"max" : [ 21.95703125, 27.578125, 43.73999786376953 ]
		},
		{
			"bufferView" : 1,
			"byteOffset" : 0,
			"componentType" : 5126,
			"count" : 3840,
			"type" : "VEC3",
			"min" : [ -0.999965250492096, -1, -1 ],
			"max" : [ 0.9999659061431885, 0.9998588562011719, 1 ]
		},
		{
			"bufferView" : 2,
			"byteOffset" : 0,
			"componentType" : 5126,
			"count" : 3840,
			"type" : "VEC3"
		},
		{
			"bufferView" : 3,
			"byteOffset" : 0,
			"componentType" : 5123,
			"count" : 3840,
			"type" : "SCALAR",
			"min" : [ 0 ],
			"max" : [ 3839 ]
		}
	],
	"bufferViews" : [
		{
			"buffer" : 0,
			"byteOffset" : 0,
			"byteLength" : 46080,
			"target" : 34962
		},
		{
			"buffer" : 0,
			"byteOffset" : 46080,
			"byteLength" : 46080,
			"target" : 34962
		},
		{
			"buffer" : 0,
			"byteOffset" : 92160,
			"byteLength" : 46080,
			"target" : 34962
		},
		{
			"buffer" : 0,
			"byteOffset" : 138240,
			"byteLength" : 7680,
			"target" : 34963
		}
	],
	"buffers" : [
		{
			"uri" : "B351091501101063C0.bin",
			"byteLength" : 145920
		}
	]
}
