{
	"asset" : {
		"generator" : "FME 2022.2.4.0",
		"version" : "2.0"
	},
	"materials" : [
		{
			"name" : "default_material",
			"pbrMetallicRoughness" : {
				"baseColorFactor" : [ 1, 1, 1, 1 ],
				"roughnessFactor" : 0.30000000000000004,
				"metallicFactor" : 0.5
			}
		}
	],
	"meshes" : [
		{
			"primitives" : [
				{
					"attributes" : {
						"NORMAL" : 1,
						"POSITION" : 0,
						"COLOR_0" : 2
					},
					"indices" : 3,
					"material" : 0,
					"mode" : 4
				}
			]
		}
	],
	"nodes" : [
		{
			"name" : "B171371450201062G0",
			"matrix" : [ 1, 0, 0, 0, 0, 0, -1, 0, 0, 1, 0, 0, 817143.3125, 11.31879997253418, -814508.5, 1 ],
			"children" : [ 1 ]
		},
		{
			"mesh" : 0
		}
	],
	"scenes" : [
		{
			"nodes" : [ 0 ]
		}
	],
	"scene" : 0,
	"accessors" : [
		{
			"bufferView" : 0,
			"byteOffset" : 0,
			"componentType" : 5126,
			"count" : 570,
			"type" : "VEC3",
			"min" : [ -6.5625, -6.125, 0 ],
			"max" : [ 6.5625, 6.0625, 10.597900390625 ]
		},
		{
			"bufferView" : 1,
			"byteOffset" : 0,
			"componentType" : 5126,
			"count" : 570,
			"type" : "VEC3",
			"min" : [ -0.83542400598526, -0.8317849040031433, -1 ],
			"max" : [ 0.8322997093200684, 0.8328295946121216, 1 ]
		},
		{
			"bufferView" : 2,
			"byteOffset" : 0,
			"componentType" : 5126,
			"count" : 570,
			"type" : "VEC3"
		},
		{
			"bufferView" : 3,
			"byteOffset" : 0,
			"componentType" : 5123,
			"count" : 570,
			"type" : "SCALAR",
			"min" : [ 0 ],
			"max" : [ 569 ]
		}
	],
	"bufferViews" : [
		{
			"buffer" : 0,
			"byteOffset" : 0,
			"byteLength" : 6840,
			"target" : 34962
		},
		{
			"buffer" : 0,
			"byteOffset" : 6840,
			"byteLength" : 6840,
			"target" : 34962
		},
		{
			"buffer" : 0,
			"byteOffset" : 13680,
			"byteLength" : 6840,
			"target" : 34962
		},
		{
			"buffer" : 0,
			"byteOffset" : 20520,
			"byteLength" : 1140,
			"target" : 34963
		}
	],
	"buffers" : [
		{
			"uri" : "B171371450201062G0.bin",
			"byteLength" : 21660
		}
	]
}
