{
	"asset" : {
		"generator" : "FME 2023.2.1.0",
		"version" : "2.0"
	},
	"materials" : [
		{
			"name" : "default_material",
			"pbrMetallicRoughness" : {
				"baseColorFactor" : [ 1, 1, 1, 1 ],
				"roughnessFactor" : 0.30000000000000004,
				"metallicFactor" : 0.5
			}
		}
	],
	"meshes" : [
		{
			"primitives" : [
				{
					"attributes" : {
						"NORMAL" : 1,
						"POSITION" : 0,
						"COLOR_0" : 2
					},
					"indices" : 3,
					"material" : 0,
					"mode" : 4
				}
			]
		}
	],
	"nodes" : [
		{
			"name" : "B358721508602063C0",
			"matrix" : [ 1, 0, 0, 0, 0, 0, -1, 0, 0, 1, 0, 0, 835861.5625, 5.980999946594238, -815094, 1 ],
			"children" : [ 1 ]
		},
		{
			"mesh" : 0
		}
	],
	"scenes" : [
		{
			"nodes" : [ 0 ]
		}
	],
	"scene" : 0,
	"accessors" : [
		{
			"bufferView" : 0,
			"byteOffset" : 0,
			"componentType" : 5126,
			"count" : 729,
			"type" : "VEC3",
			"min" : [ -14.3046875, -11.009765625, 0 ],
			"max" : [ 14.3046875, 11.009765625, 17.999000549316406 ]
		},
		{
			"bufferView" : 1,
			"byteOffset" : 0,
			"componentType" : 5126,
			"count" : 729,
			"type" : "VEC3",
			"min" : [ -0.9959244132041931, -0.9917226433753967, -1 ],
			"max" : [ 0.9959231615066528, 0.9917099475860596, 1 ]
		},
		{
			"bufferView" : 2,
			"byteOffset" : 0,
			"componentType" : 5126,
			"count" : 729,
			"type" : "VEC3"
		},
		{
			"bufferView" : 3,
			"byteOffset" : 0,
			"componentType" : 5123,
			"count" : 729,
			"type" : "SCALAR",
			"min" : [ 0 ],
			"max" : [ 728 ]
		}
	],
	"bufferViews" : [
		{
			"buffer" : 0,
			"byteOffset" : 0,
			"byteLength" : 8748,
			"target" : 34962
		},
		{
			"buffer" : 0,
			"byteOffset" : 8748,
			"byteLength" : 8748,
			"target" : 34962
		},
		{
			"buffer" : 0,
			"byteOffset" : 17496,
			"byteLength" : 8748,
			"target" : 34962
		},
		{
			"buffer" : 0,
			"byteOffset" : 26244,
			"byteLength" : 1458,
			"target" : 34963
		}
	],
	"buffers" : [
		{
			"uri" : "B358721508602063C0.bin",
			"byteLength" : 27702
		}
	]
}
