{
	"asset" : {
		"generator" : "FME 2023.1.0.0",
		"version" : "2.0"
	},
	"materials" : [
		{
			"name" : "default_material",
			"pbrMetallicRoughness" : {
				"baseColorFactor" : [ 1, 1, 1, 1 ],
				"roughnessFactor" : 0.30000000000000004,
				"metallicFactor" : 0.5
			}
		}
	],
	"meshes" : [
		{
			"primitives" : [
				{
					"attributes" : {
						"NORMAL" : 1,
						"POSITION" : 0,
						"COLOR_0" : 2
					},
					"indices" : 3,
					"material" : 0,
					"mode" : 4
				}
			]
		}
	],
	"nodes" : [
		{
			"name" : "B337401571001063C0",
			"matrix" : [ 1, 0, 0, 0, 0, 0, -1, 0, 0, 1, 0, 0, 833738.0625, 84.25701904296875, -815709.875, 1 ],
			"children" : [ 1 ]
		},
		{
			"mesh" : 0
		}
	],
	"scenes" : [
		{
			"nodes" : [ 0 ]
		}
	],
	"scene" : 0,
	"accessors" : [
		{
			"bufferView" : 0,
			"byteOffset" : 0,
			"componentType" : 5126,
			"count" : 195,
			"type" : "VEC3",
			"min" : [ -11.2578125, -9.3134765625, 0 ],
			"max" : [ 11.2568359375, 9.3125, 4.33599853515625 ]
		},
		{
			"bufferView" : 1,
			"byteOffset" : 0,
			"componentType" : 5126,
			"count" : 195,
			"type" : "VEC3",
			"min" : [ -0.8371047973632812, -0.8340750932693481, -0.9958288073539734 ],
			"max" : [ 0.8341322541236877, 0.834083080291748, 1 ]
		},
		{
			"bufferView" : 2,
			"byteOffset" : 0,
			"componentType" : 5126,
			"count" : 195,
			"type" : "VEC3"
		},
		{
			"bufferView" : 3,
			"byteOffset" : 0,
			"componentType" : 5121,
			"count" : 195,
			"type" : "SCALAR",
			"min" : [ 0 ],
			"max" : [ 194 ]
		}
	],
	"bufferViews" : [
		{
			"buffer" : 0,
			"byteOffset" : 0,
			"byteLength" : 2340,
			"target" : 34962
		},
		{
			"buffer" : 0,
			"byteOffset" : 2340,
			"byteLength" : 2340,
			"target" : 34962
		},
		{
			"buffer" : 0,
			"byteOffset" : 4680,
			"byteLength" : 2340,
			"target" : 34962
		},
		{
			"buffer" : 0,
			"byteOffset" : 7020,
			"byteLength" : 195,
			"target" : 34963
		}
	],
	"buffers" : [
		{
			"uri" : "B337401571001063C0.bin",
			"byteLength" : 7215
		}
	]
}
