{
	"asset" : {
		"generator" : "FME 2023.2.1.0",
		"version" : "2.0"
	},
	"materials" : [
		{
			"name" : "default_material",
			"pbrMetallicRoughness" : {
				"baseColorFactor" : [ 1, 1, 1, 1 ],
				"roughnessFactor" : 0.30000000000000004,
				"metallicFactor" : 0.5
			}
		}
	],
	"meshes" : [
		{
			"primitives" : [
				{
					"attributes" : {
						"NORMAL" : 1,
						"POSITION" : 0,
						"COLOR_0" : 2
					},
					"indices" : 3,
					"material" : 0,
					"mode" : 4
				}
			]
		}
	],
	"nodes" : [
		{
			"name" : "B337021628301063C0",
			"matrix" : [ 1, 0, 0, 0, 0, 0, -1, 0, 0, 1, 0, 0, 833706.3125, 2.8520009517669678, -816281.125, 1 ],
			"children" : [ 1 ]
		},
		{
			"mesh" : 0
		}
	],
	"scenes" : [
		{
			"nodes" : [ 0 ]
		}
	],
	"scene" : 0,
	"accessors" : [
		{
			"bufferView" : 0,
			"byteOffset" : 0,
			"componentType" : 5126,
			"count" : 786,
			"type" : "VEC3",
			"min" : [ -7.9990234375, -5.6494140625, 0 ],
			"max" : [ 7.998046875, 5.650390625, 25.424999237060547 ]
		},
		{
			"bufferView" : 1,
			"byteOffset" : 0,
			"componentType" : 5126,
			"count" : 786,
			"type" : "VEC3",
			"min" : [ -0.9891316294670105, -0.9895524978637695, -1 ],
			"max" : [ 0.9894149899482727, 0.9885976910591125, 1 ]
		},
		{
			"bufferView" : 2,
			"byteOffset" : 0,
			"componentType" : 5126,
			"count" : 786,
			"type" : "VEC3"
		},
		{
			"bufferView" : 3,
			"byteOffset" : 0,
			"componentType" : 5123,
			"count" : 786,
			"type" : "SCALAR",
			"min" : [ 0 ],
			"max" : [ 785 ]
		}
	],
	"bufferViews" : [
		{
			"buffer" : 0,
			"byteOffset" : 0,
			"byteLength" : 9432,
			"target" : 34962
		},
		{
			"buffer" : 0,
			"byteOffset" : 9432,
			"byteLength" : 9432,
			"target" : 34962
		},
		{
			"buffer" : 0,
			"byteOffset" : 18864,
			"byteLength" : 9432,
			"target" : 34962
		},
		{
			"buffer" : 0,
			"byteOffset" : 28296,
			"byteLength" : 1572,
			"target" : 34963
		}
	],
	"buffers" : [
		{
			"uri" : "B337021628301063C0.bin",
			"byteLength" : 29868
		}
	]
}
