{
	"asset" : {
		"generator" : "FME 2023.1.0.0",
		"version" : "2.0"
	},
	"materials" : [
		{
			"name" : "default_material",
			"pbrMetallicRoughness" : {
				"baseColorFactor" : [ 1, 1, 1, 1 ],
				"roughnessFactor" : 0.30000000000000004,
				"metallicFactor" : 0.5
			}
		}
	],
	"meshes" : [
		{
			"primitives" : [
				{
					"attributes" : {
						"NORMAL" : 1,
						"POSITION" : 0,
						"COLOR_0" : 2
					},
					"indices" : 3,
					"material" : 0,
					"mode" : 4
				}
			]
		}
	],
	"nodes" : [
		{
			"name" : "B333511620101063C0",
			"matrix" : [ 1, 0, 0, 0, 0, 0, -1, 0, 0, 1, 0, 0, 833355.625, 25.827999114990234, -816199.75, 1 ],
			"children" : [ 1 ]
		},
		{
			"mesh" : 0
		}
	],
	"scenes" : [
		{
			"nodes" : [ 0 ]
		}
	],
	"scene" : 0,
	"accessors" : [
		{
			"bufferView" : 0,
			"byteOffset" : 0,
			"componentType" : 5126,
			"count" : 633,
			"type" : "VEC3",
			"min" : [ -8.484375, -8.4521484375, 0 ],
			"max" : [ 8.4921875, 8.3486328125, 24.53000259399414 ]
		},
		{
			"bufferView" : 1,
			"byteOffset" : 0,
			"componentType" : 5126,
			"count" : 633,
			"type" : "VEC3",
			"min" : [ -0.7681255340576172, -0.7697579860687256, -1 ],
			"max" : [ 0.7682213187217712, 0.7707211375236511, 1 ]
		},
		{
			"bufferView" : 2,
			"byteOffset" : 0,
			"componentType" : 5126,
			"count" : 633,
			"type" : "VEC3"
		},
		{
			"bufferView" : 3,
			"byteOffset" : 0,
			"componentType" : 5123,
			"count" : 633,
			"type" : "SCALAR",
			"min" : [ 0 ],
			"max" : [ 632 ]
		}
	],
	"bufferViews" : [
		{
			"buffer" : 0,
			"byteOffset" : 0,
			"byteLength" : 7596,
			"target" : 34962
		},
		{
			"buffer" : 0,
			"byteOffset" : 7596,
			"byteLength" : 7596,
			"target" : 34962
		},
		{
			"buffer" : 0,
			"byteOffset" : 15192,
			"byteLength" : 7596,
			"target" : 34962
		},
		{
			"buffer" : 0,
			"byteOffset" : 22788,
			"byteLength" : 1266,
			"target" : 34963
		}
	],
	"buffers" : [
		{
			"uri" : "B333511620101063C0.bin",
			"byteLength" : 24054
		}
	]
}
