{
	"asset" : {
		"generator" : "FME 2022.2.4.0",
		"version" : "2.0"
	},
	"materials" : [
		{
			"name" : "default_material",
			"pbrMetallicRoughness" : {
				"baseColorFactor" : [ 1, 1, 1, 1 ],
				"roughnessFactor" : 0.30000000000000004,
				"metallicFactor" : 0.5
			}
		}
	],
	"meshes" : [
		{
			"primitives" : [
				{
					"attributes" : {
						"NORMAL" : 1,
						"POSITION" : 0,
						"COLOR_0" : 2
					},
					"indices" : 3,
					"material" : 0,
					"mode" : 4
				}
			]
		}
	],
	"nodes" : [
		{
			"name" : "B170311500901062G0",
			"matrix" : [ 1, 0, 0, 0, 0, 0, -1, 0, 0, 1, 0, 0, 817031.125, 51.9718017578125, -815010.5, 1 ],
			"children" : [ 1 ]
		},
		{
			"mesh" : 0
		}
	],
	"scenes" : [
		{
			"nodes" : [ 0 ]
		}
	],
	"scene" : 0,
	"accessors" : [
		{
			"bufferView" : 0,
			"byteOffset" : 0,
			"componentType" : 5126,
			"count" : 177,
			"type" : "VEC3",
			"min" : [ -5.625, -5.1875, 0 ],
			"max" : [ 5.6875, 5.25, 4.6083984375 ]
		},
		{
			"bufferView" : 1,
			"byteOffset" : 0,
			"componentType" : 5126,
			"count" : 177,
			"type" : "VEC3",
			"min" : [ -0.9895200729370117, -0.9895634651184082, -1 ],
			"max" : [ 0.9895203709602356, 0.9999712109565735, 1 ]
		},
		{
			"bufferView" : 2,
			"byteOffset" : 0,
			"componentType" : 5126,
			"count" : 177,
			"type" : "VEC3"
		},
		{
			"bufferView" : 3,
			"byteOffset" : 0,
			"componentType" : 5121,
			"count" : 177,
			"type" : "SCALAR",
			"min" : [ 0 ],
			"max" : [ 176 ]
		}
	],
	"bufferViews" : [
		{
			"buffer" : 0,
			"byteOffset" : 0,
			"byteLength" : 2124,
			"target" : 34962
		},
		{
			"buffer" : 0,
			"byteOffset" : 2124,
			"byteLength" : 2124,
			"target" : 34962
		},
		{
			"buffer" : 0,
			"byteOffset" : 4248,
			"byteLength" : 2124,
			"target" : 34962
		},
		{
			"buffer" : 0,
			"byteOffset" : 6372,
			"byteLength" : 177,
			"target" : 34963
		}
	],
	"buffers" : [
		{
			"uri" : "B170311500901062G0.bin",
			"byteLength" : 6549
		}
	]
}
