{
	"asset" : {
		"generator" : "FME 2023.1.0.0",
		"version" : "2.0"
	},
	"materials" : [
		{
			"name" : "default_material",
			"pbrMetallicRoughness" : {
				"baseColorFactor" : [ 1, 1, 1, 1 ],
				"roughnessFactor" : 0.30000000000000004,
				"metallicFactor" : 0.5
			}
		}
	],
	"meshes" : [
		{
			"primitives" : [
				{
					"attributes" : {
						"NORMAL" : 1,
						"POSITION" : 0,
						"COLOR_0" : 2
					},
					"indices" : 3,
					"material" : 0,
					"mode" : 4
				}
			]
		}
	],
	"nodes" : [
		{
			"name" : "B337371619801063C0",
			"matrix" : [ 1, 0, 0, 0, 0, 0, -1, 0, 0, 1, 0, 0, 833737.6875, 8.387999534606934, -816200.375, 1 ],
			"children" : [ 1 ]
		},
		{
			"mesh" : 0
		}
	],
	"scenes" : [
		{
			"nodes" : [ 0 ]
		}
	],
	"scene" : 0,
	"accessors" : [
		{
			"bufferView" : 0,
			"byteOffset" : 0,
			"componentType" : 5126,
			"count" : 630,
			"type" : "VEC3",
			"min" : [ -7.1484375, -6.5595703125, 0 ],
			"max" : [ 7.1474609375, 6.5595703125, 108.35099792480469 ]
		},
		{
			"bufferView" : 1,
			"byteOffset" : 0,
			"componentType" : 5126,
			"count" : 630,
			"type" : "VEC3",
			"min" : [ -0.9308043122291565, -0.9307130575180054, -1 ],
			"max" : [ 0.9308329224586487, 0.9307436943054199, 1 ]
		},
		{
			"bufferView" : 2,
			"byteOffset" : 0,
			"componentType" : 5126,
			"count" : 630,
			"type" : "VEC3"
		},
		{
			"bufferView" : 3,
			"byteOffset" : 0,
			"componentType" : 5123,
			"count" : 630,
			"type" : "SCALAR",
			"min" : [ 0 ],
			"max" : [ 629 ]
		}
	],
	"bufferViews" : [
		{
			"buffer" : 0,
			"byteOffset" : 0,
			"byteLength" : 7560,
			"target" : 34962
		},
		{
			"buffer" : 0,
			"byteOffset" : 7560,
			"byteLength" : 7560,
			"target" : 34962
		},
		{
			"buffer" : 0,
			"byteOffset" : 15120,
			"byteLength" : 7560,
			"target" : 34962
		},
		{
			"buffer" : 0,
			"byteOffset" : 22680,
			"byteLength" : 1260,
			"target" : 34963
		}
	],
	"buffers" : [
		{
			"uri" : "B337371619801063C0.bin",
			"byteLength" : 23940
		}
	]
}
