{
	"asset" : {
		"generator" : "FME 2023.1.0.0",
		"version" : "2.0"
	},
	"materials" : [
		{
			"name" : "default_material",
			"pbrMetallicRoughness" : {
				"baseColorFactor" : [ 1, 1, 1, 1 ],
				"roughnessFactor" : 0.30000000000000004,
				"metallicFactor" : 0.5
			}
		}
	],
	"meshes" : [
		{
			"primitives" : [
				{
					"attributes" : {
						"NORMAL" : 1,
						"POSITION" : 0,
						"COLOR_0" : 2
					},
					"indices" : 3,
					"material" : 0,
					"mode" : 4
				}
			]
		}
	],
	"nodes" : [
		{
			"name" : "B336801587201063C0",
			"matrix" : [ 1, 0, 0, 0, 0, 0, -1, 0, 0, 1, 0, 0, 833682.3125, 66.0150146484375, -815870, 1 ],
			"children" : [ 1 ]
		},
		{
			"mesh" : 0
		}
	],
	"scenes" : [
		{
			"nodes" : [ 0 ]
		}
	],
	"scene" : 0,
	"accessors" : [
		{
			"bufferView" : 0,
			"byteOffset" : 0,
			"componentType" : 5126,
			"count" : 663,
			"type" : "VEC3",
			"min" : [ -5.9052734375, -6.6240234375, 0 ],
			"max" : [ 5.9052734375, 6.6240234375, 17.62799835205078 ]
		},
		{
			"bufferView" : 1,
			"byteOffset" : 0,
			"componentType" : 5126,
			"count" : 663,
			"type" : "VEC3",
			"min" : [ -0.7740804553031921, -0.7429051995277405, -1 ],
			"max" : [ 0.7455303072929382, 0.7282000780105591, 1 ]
		},
		{
			"bufferView" : 2,
			"byteOffset" : 0,
			"componentType" : 5126,
			"count" : 663,
			"type" : "VEC3"
		},
		{
			"bufferView" : 3,
			"byteOffset" : 0,
			"componentType" : 5123,
			"count" : 663,
			"type" : "SCALAR",
			"min" : [ 0 ],
			"max" : [ 662 ]
		}
	],
	"bufferViews" : [
		{
			"buffer" : 0,
			"byteOffset" : 0,
			"byteLength" : 7956,
			"target" : 34962
		},
		{
			"buffer" : 0,
			"byteOffset" : 7956,
			"byteLength" : 7956,
			"target" : 34962
		},
		{
			"buffer" : 0,
			"byteOffset" : 15912,
			"byteLength" : 7956,
			"target" : 34962
		},
		{
			"buffer" : 0,
			"byteOffset" : 23868,
			"byteLength" : 1326,
			"target" : 34963
		}
	],
	"buffers" : [
		{
			"uri" : "B336801587201063C0.bin",
			"byteLength" : 25194
		}
	]
}
