{
	"asset" : {
		"generator" : "FME 2022.2.4.0",
		"version" : "2.0"
	},
	"materials" : [
		{
			"name" : "default_material",
			"pbrMetallicRoughness" : {
				"baseColorFactor" : [ 1, 1, 1, 1 ],
				"roughnessFactor" : 0.30000000000000004,
				"metallicFactor" : 0.5
			}
		}
	],
	"meshes" : [
		{
			"primitives" : [
				{
					"attributes" : {
						"NORMAL" : 1,
						"POSITION" : 0,
						"COLOR_0" : 2
					},
					"indices" : 3,
					"material" : 0,
					"mode" : 4
				}
			]
		}
	],
	"nodes" : [
		{
			"name" : "B354041522101063C0",
			"matrix" : [ 1, 0, 0, 0, 0, 0, -1, 0, 0, 1, 0, 0, 835403.9375, 30.722999572753906, -815220.875, 1 ],
			"children" : [ 1 ]
		},
		{
			"mesh" : 0
		}
	],
	"scenes" : [
		{
			"nodes" : [ 0 ]
		}
	],
	"scene" : 0,
	"accessors" : [
		{
			"bufferView" : 0,
			"byteOffset" : 0,
			"componentType" : 5126,
			"count" : 1386,
			"type" : "VEC3",
			"min" : [ -13.1962890625, -12.03515625, 0 ],
			"max" : [ 13.1962890625, 12.03515625, 125.13500213623047 ]
		},
		{
			"bufferView" : 1,
			"byteOffset" : 0,
			"componentType" : 5126,
			"count" : 1386,
			"type" : "VEC3",
			"min" : [ -0.9759863018989563, -0.9130262732505798, -1 ],
			"max" : [ 0.9131032824516296, 0.9130915403366089, 1 ]
		},
		{
			"bufferView" : 2,
			"byteOffset" : 0,
			"componentType" : 5126,
			"count" : 1386,
			"type" : "VEC3"
		},
		{
			"bufferView" : 3,
			"byteOffset" : 0,
			"componentType" : 5123,
			"count" : 1386,
			"type" : "SCALAR",
			"min" : [ 0 ],
			"max" : [ 1385 ]
		}
	],
	"bufferViews" : [
		{
			"buffer" : 0,
			"byteOffset" : 0,
			"byteLength" : 16632,
			"target" : 34962
		},
		{
			"buffer" : 0,
			"byteOffset" : 16632,
			"byteLength" : 16632,
			"target" : 34962
		},
		{
			"buffer" : 0,
			"byteOffset" : 33264,
			"byteLength" : 16632,
			"target" : 34962
		},
		{
			"buffer" : 0,
			"byteOffset" : 49896,
			"byteLength" : 2772,
			"target" : 34963
		}
	],
	"buffers" : [
		{
			"uri" : "B354041522101063C0.bin",
			"byteLength" : 52668
		}
	]
}
