{
	"asset" : {
		"generator" : "FME 2022.2.4.0",
		"version" : "2.0"
	},
	"materials" : [
		{
			"name" : "default_material",
			"pbrMetallicRoughness" : {
				"baseColorFactor" : [ 1, 1, 1, 1 ],
				"roughnessFactor" : 0.30000000000000004,
				"metallicFactor" : 0.5
			}
		}
	],
	"meshes" : [
		{
			"primitives" : [
				{
					"attributes" : {
						"NORMAL" : 1,
						"POSITION" : 0,
						"COLOR_0" : 2
					},
					"indices" : 3,
					"material" : 0,
					"mode" : 4
				}
			]
		}
	],
	"nodes" : [
		{
			"name" : "B330411641501063C0",
			"matrix" : [ 1, 0, 0, 0, 0, 0, -1, 0, 0, 1, 0, 0, 833043.8125, 4.934999942779541, -816416, 1 ],
			"children" : [ 1 ]
		},
		{
			"mesh" : 0
		}
	],
	"scenes" : [
		{
			"nodes" : [ 0 ]
		}
	],
	"scene" : 0,
	"accessors" : [
		{
			"bufferView" : 0,
			"byteOffset" : 0,
			"componentType" : 5126,
			"count" : 1284,
			"type" : "VEC3",
			"min" : [ -7.29052734375, -8.46875, 0 ],
			"max" : [ 7.29052734375, 8.4677734375, 20.62700080871582 ]
		},
		{
			"bufferView" : 1,
			"byteOffset" : 0,
			"componentType" : 5126,
			"count" : 1284,
			"type" : "VEC3",
			"min" : [ -0.7973588109016418, -0.7445694804191589, -1 ],
			"max" : [ 0.7620104551315308, 0.7450147867202759, 1 ]
		},
		{
			"bufferView" : 2,
			"byteOffset" : 0,
			"componentType" : 5126,
			"count" : 1284,
			"type" : "VEC3"
		},
		{
			"bufferView" : 3,
			"byteOffset" : 0,
			"componentType" : 5123,
			"count" : 1284,
			"type" : "SCALAR",
			"min" : [ 0 ],
			"max" : [ 1283 ]
		}
	],
	"bufferViews" : [
		{
			"buffer" : 0,
			"byteOffset" : 0,
			"byteLength" : 15408,
			"target" : 34962
		},
		{
			"buffer" : 0,
			"byteOffset" : 15408,
			"byteLength" : 15408,
			"target" : 34962
		},
		{
			"buffer" : 0,
			"byteOffset" : 30816,
			"byteLength" : 15408,
			"target" : 34962
		},
		{
			"buffer" : 0,
			"byteOffset" : 46224,
			"byteLength" : 2568,
			"target" : 34963
		}
	],
	"buffers" : [
		{
			"uri" : "B330411641501063C0.bin",
			"byteLength" : 48792
		}
	]
}
