{
	"asset" : {
		"generator" : "FME 2022.2.4.0",
		"version" : "2.0"
	},
	"materials" : [
		{
			"name" : "default_material",
			"pbrMetallicRoughness" : {
				"baseColorFactor" : [ 1, 1, 1, 1 ],
				"roughnessFactor" : 0.30000000000000004,
				"metallicFactor" : 0.5
			}
		}
	],
	"meshes" : [
		{
			"primitives" : [
				{
					"attributes" : {
						"NORMAL" : 1,
						"POSITION" : 0,
						"COLOR_0" : 2
					},
					"indices" : 3,
					"material" : 0,
					"mode" : 4
				}
			]
		}
	],
	"nodes" : [
		{
			"name" : "B351791541301063C0",
			"matrix" : [ 1, 0, 0, 0, 0, 0, -1, 0, 0, 1, 0, 0, 835182.375, 21.33799934387207, -815404.5, 1 ],
			"children" : [ 1 ]
		},
		{
			"mesh" : 0
		}
	],
	"scenes" : [
		{
			"nodes" : [ 0 ]
		}
	],
	"scene" : 0,
	"accessors" : [
		{
			"bufferView" : 0,
			"byteOffset" : 0,
			"componentType" : 5126,
			"count" : 14310,
			"type" : "VEC3",
			"min" : [ -21.798828125, -21.78125, 0 ],
			"max" : [ 21.798828125, 21.7802734375, 150.74310302734375 ]
		},
		{
			"bufferView" : 1,
			"byteOffset" : 0,
			"componentType" : 5126,
			"count" : 14310,
			"type" : "VEC3",
			"min" : [ -0.9956576824188232, -1, -1 ],
			"max" : [ 0.9956225156784058, 1, 1 ]
		},
		{
			"bufferView" : 2,
			"byteOffset" : 0,
			"componentType" : 5126,
			"count" : 14310,
			"type" : "VEC3"
		},
		{
			"bufferView" : 3,
			"byteOffset" : 0,
			"componentType" : 5123,
			"count" : 14310,
			"type" : "SCALAR",
			"min" : [ 0 ],
			"max" : [ 14309 ]
		}
	],
	"bufferViews" : [
		{
			"buffer" : 0,
			"byteOffset" : 0,
			"byteLength" : 171720,
			"target" : 34962
		},
		{
			"buffer" : 0,
			"byteOffset" : 171720,
			"byteLength" : 171720,
			"target" : 34962
		},
		{
			"buffer" : 0,
			"byteOffset" : 343440,
			"byteLength" : 171720,
			"target" : 34962
		},
		{
			"buffer" : 0,
			"byteOffset" : 515160,
			"byteLength" : 28620,
			"target" : 34963
		}
	],
	"buffers" : [
		{
			"uri" : "B351791541301063C0.bin",
			"byteLength" : 543780
		}
	]
}
