{
	"asset" : {
		"generator" : "FME 2023.2.1.0",
		"version" : "2.0"
	},
	"materials" : [
		{
			"name" : "default_material",
			"pbrMetallicRoughness" : {
				"baseColorFactor" : [ 1, 1, 1, 1 ],
				"roughnessFactor" : 0.30000000000000004,
				"metallicFactor" : 0.5
			}
		}
	],
	"meshes" : [
		{
			"primitives" : [
				{
					"attributes" : {
						"NORMAL" : 1,
						"POSITION" : 0,
						"COLOR_0" : 2
					},
					"indices" : 3,
					"material" : 0,
					"mode" : 4
				}
			]
		}
	],
	"nodes" : [
		{
			"name" : "B344591587401063C0",
			"matrix" : [ 1, 0, 0, 0, 0, 0, -1, 0, 0, 1, 0, 0, 834474.8125, 3.177011489868164, -815894.75, 1 ],
			"children" : [ 1 ]
		},
		{
			"mesh" : 0
		}
	],
	"scenes" : [
		{
			"nodes" : [ 0 ]
		}
	],
	"scene" : 0,
	"accessors" : [
		{
			"bufferView" : 0,
			"byteOffset" : 0,
			"componentType" : 5126,
			"count" : 5859,
			"type" : "VEC3",
			"min" : [ -41.5009765625, -34.31640625, 0 ],
			"max" : [ 41.5, 34.3935546875, 92.27700805664062 ]
		},
		{
			"bufferView" : 1,
			"byteOffset" : 0,
			"componentType" : 5126,
			"count" : 5859,
			"type" : "VEC3",
			"min" : [ -0.9990050792694092, -0.9987829327583313, -1 ],
			"max" : [ 0.9998416304588318, 0.9825703501701355, 1 ]
		},
		{
			"bufferView" : 2,
			"byteOffset" : 0,
			"componentType" : 5126,
			"count" : 5859,
			"type" : "VEC3"
		},
		{
			"bufferView" : 3,
			"byteOffset" : 0,
			"componentType" : 5123,
			"count" : 5859,
			"type" : "SCALAR",
			"min" : [ 0 ],
			"max" : [ 5858 ]
		}
	],
	"bufferViews" : [
		{
			"buffer" : 0,
			"byteOffset" : 0,
			"byteLength" : 70308,
			"target" : 34962
		},
		{
			"buffer" : 0,
			"byteOffset" : 70308,
			"byteLength" : 70308,
			"target" : 34962
		},
		{
			"buffer" : 0,
			"byteOffset" : 140616,
			"byteLength" : 70308,
			"target" : 34962
		},
		{
			"buffer" : 0,
			"byteOffset" : 210924,
			"byteLength" : 11718,
			"target" : 34963
		}
	],
	"buffers" : [
		{
			"uri" : "B344591587401063C0.bin",
			"byteLength" : 222642
		}
	]
}
