{
	"asset" : {
		"generator" : "FME 2024.0.0.0",
		"version" : "2.0"
	},
	"images" : [
		{
			"uri" : "T31500162000106E10_001.jpg"
		}
	],
	"samplers" : [
		{
			"wrapS" : 10497,
			"wrapT" : 10497,
			"magFilter" : 9729,
			"minFilter" : 9986
		}
	],
	"textures" : [
		{
			"source" : 0,
			"sampler" : 0
		}
	],
	"materials" : [
		{
			"name" : "T31500162000106E10_001",
			"pbrMetallicRoughness" : {
				"baseColorTexture" : {
					"index" : 0,
					"texCoord" : 0
				},
				"roughnessFactor" : 0.984375,
				"metallicFactor" : 0.5
			}
		}
	],
	"meshes" : [
		{
			"primitives" : [
				{
					"attributes" : {
						"NORMAL" : 1,
						"POSITION" : 0,
						"TEXCOORD_0" : 2
					},
					"indices" : 3,
					"material" : 0,
					"mode" : 4
				}
			]
		}
	],
	"nodes" : [
		{
			"name" : "T31500162000106E10",
			"matrix" : [ 1, 0, 0, 0, 0, 0, -1, 0, 0, 1, 0, 0, 831875, 1.2723369598388672, -816500, 1 ],
			"children" : [ 1 ]
		},
		{
			"mesh" : 0
		}
	],
	"scenes" : [
		{
			"nodes" : [ 0 ]
		}
	],
	"scene" : 0,
	"accessors" : [
		{
			"bufferView" : 0,
			"byteOffset" : 0,
			"componentType" : 5126,
			"count" : 368163,
			"type" : "VEC3",
			"min" : [ -375.5, -300.5, 0 ],
			"max" : [ 375.5, 300.5, 57.31831359863281 ]
		},
		{
			"bufferView" : 1,
			"byteOffset" : 0,
			"componentType" : 5126,
			"count" : 368163,
			"type" : "VEC3",
			"min" : [ -1, -1, -0.9986919164657593 ],
			"max" : [ 1, 1, 1 ]
		},
		{
			"bufferView" : 2,
			"byteOffset" : 0,
			"componentType" : 5126,
			"count" : 368163,
			"type" : "VEC2",
			"min" : [ 0.0010622759582474828, 0.0021555423736572266 ],
			"max" : [ 0.9982737898826599, 0.9986734986305237 ]
		},
		{
			"bufferView" : 3,
			"byteOffset" : 0,
			"componentType" : 5125,
			"count" : 368163,
			"type" : "SCALAR",
			"min" : [ 0 ],
			"max" : [ 368162 ]
		}
	],
	"bufferViews" : [
		{
			"buffer" : 0,
			"byteOffset" : 0,
			"byteLength" : 4417956,
			"target" : 34962
		},
		{
			"buffer" : 0,
			"byteOffset" : 4417956,
			"byteLength" : 4417956,
			"target" : 34962
		},
		{
			"buffer" : 0,
			"byteOffset" : 8835912,
			"byteLength" : 2945304,
			"target" : 34962
		},
		{
			"buffer" : 0,
			"byteOffset" : 11781216,
			"byteLength" : 1472652,
			"target" : 34963
		}
	],
	"buffers" : [
		{
			"uri" : "T31500162000106E10.bin",
			"byteLength" : 13253868
		}
	]
}