{
	"asset" : {
		"generator" : "FME 2022.2.4.0",
		"version" : "2.0"
	},
	"materials" : [
		{
			"name" : "default_material",
			"pbrMetallicRoughness" : {
				"baseColorFactor" : [ 1, 1, 1, 1 ],
				"roughnessFactor" : 0.30000000000000004,
				"metallicFactor" : 0.5
			}
		}
	],
	"meshes" : [
		{
			"primitives" : [
				{
					"attributes" : {
						"NORMAL" : 1,
						"POSITION" : 0,
						"COLOR_0" : 2
					},
					"indices" : 3,
					"material" : 0,
					"mode" : 4
				}
			]
		}
	],
	"nodes" : [
		{
			"name" : "B339811596401063C0",
			"matrix" : [ 1, 0, 0, 0, 0, 0, -1, 0, 0, 1, 0, 0, 833981.375, 37.810001373291016, -815967.9375, 1 ],
			"children" : [ 1 ]
		},
		{
			"mesh" : 0
		}
	],
	"scenes" : [
		{
			"nodes" : [ 0 ]
		}
	],
	"scene" : 0,
	"accessors" : [
		{
			"bufferView" : 0,
			"byteOffset" : 0,
			"componentType" : 5126,
			"count" : 2079,
			"type" : "VEC3",
			"min" : [ -13.8046875, -7.919921875, 0 ],
			"max" : [ 13.8037109375, 7.919921875, 70.40399169921875 ]
		},
		{
			"bufferView" : 1,
			"byteOffset" : 0,
			"componentType" : 5126,
			"count" : 2079,
			"type" : "VEC3",
			"min" : [ -0.999646008014679, -0.9985883235931396, -1 ],
			"max" : [ 0.9996012449264526, 0.9982573986053467, 1 ]
		},
		{
			"bufferView" : 2,
			"byteOffset" : 0,
			"componentType" : 5126,
			"count" : 2079,
			"type" : "VEC3"
		},
		{
			"bufferView" : 3,
			"byteOffset" : 0,
			"componentType" : 5123,
			"count" : 2079,
			"type" : "SCALAR",
			"min" : [ 0 ],
			"max" : [ 2078 ]
		}
	],
	"bufferViews" : [
		{
			"buffer" : 0,
			"byteOffset" : 0,
			"byteLength" : 24948,
			"target" : 34962
		},
		{
			"buffer" : 0,
			"byteOffset" : 24948,
			"byteLength" : 24948,
			"target" : 34962
		},
		{
			"buffer" : 0,
			"byteOffset" : 49896,
			"byteLength" : 24948,
			"target" : 34962
		},
		{
			"buffer" : 0,
			"byteOffset" : 74844,
			"byteLength" : 4158,
			"target" : 34963
		}
	],
	"buffers" : [
		{
			"uri" : "B339811596401063C0.bin",
			"byteLength" : 79002
		}
	]
}
