{
	"asset" : {
		"generator" : "FME 2023.2.1.0",
		"version" : "2.0"
	},
	"materials" : [
		{
			"name" : "default_material",
			"pbrMetallicRoughness" : {
				"baseColorFactor" : [ 1, 1, 1, 1 ],
				"roughnessFactor" : 0.30000000000000004,
				"metallicFactor" : 0.5
			}
		}
	],
	"meshes" : [
		{
			"primitives" : [
				{
					"attributes" : {
						"NORMAL" : 1,
						"POSITION" : 0,
						"COLOR_0" : 2
					},
					"indices" : 3,
					"material" : 0,
					"mode" : 4
				}
			]
		}
	],
	"nodes" : [
		{
			"name" : "B357141507201063C0",
			"matrix" : [ 1, 0, 0, 0, 0, 0, -1, 0, 0, 1, 0, 0, 835722.9375, 25.145999908447266, -815089.3125, 1 ],
			"children" : [ 1 ]
		},
		{
			"mesh" : 0
		}
	],
	"scenes" : [
		{
			"nodes" : [ 0 ]
		}
	],
	"scene" : 0,
	"accessors" : [
		{
			"bufferView" : 0,
			"byteOffset" : 0,
			"componentType" : 5126,
			"count" : 10011,
			"type" : "VEC3",
			"min" : [ -22.9375, -26.2490234375, 0 ],
			"max" : [ 22.9375, 26.2509765625, 197.90200805664062 ]
		},
		{
			"bufferView" : 1,
			"byteOffset" : 0,
			"componentType" : 5126,
			"count" : 10011,
			"type" : "VEC3",
			"min" : [ -1, -1, -1 ],
			"max" : [ 1, 1, 1 ]
		},
		{
			"bufferView" : 2,
			"byteOffset" : 0,
			"componentType" : 5126,
			"count" : 10011,
			"type" : "VEC3"
		},
		{
			"bufferView" : 3,
			"byteOffset" : 0,
			"componentType" : 5123,
			"count" : 10011,
			"type" : "SCALAR",
			"min" : [ 0 ],
			"max" : [ 10010 ]
		}
	],
	"bufferViews" : [
		{
			"buffer" : 0,
			"byteOffset" : 0,
			"byteLength" : 120132,
			"target" : 34962
		},
		{
			"buffer" : 0,
			"byteOffset" : 120132,
			"byteLength" : 120132,
			"target" : 34962
		},
		{
			"buffer" : 0,
			"byteOffset" : 240264,
			"byteLength" : 120132,
			"target" : 34962
		},
		{
			"buffer" : 0,
			"byteOffset" : 360396,
			"byteLength" : 20022,
			"target" : 34963
		}
	],
	"buffers" : [
		{
			"uri" : "B357141507201063C0.bin",
			"byteLength" : 380418
		}
	]
}
