{
	"asset" : {
		"generator" : "FME 2022.2.4.0",
		"version" : "2.0"
	},
	"images" : [
		{
			"uri" : "B363151801501063A0_002.jpg"
		},
		{
			"uri" : "B363151801501063A0_001.png"
		}
	],
	"samplers" : [
		{
			"wrapS" : 10497,
			"wrapT" : 10497,
			"magFilter" : 9729,
			"minFilter" : 9986
		},
		{
			"wrapS" : 10497,
			"wrapT" : 10497,
			"magFilter" : 9729,
			"minFilter" : 9986
		}
	],
	"textures" : [
		{
			"source" : 0,
			"sampler" : 0
		},
		{
			"source" : 1,
			"sampler" : 1
		}
	],
	"materials" : [
		{
			"name" : "B363151801501063A0_002",
			"pbrMetallicRoughness" : {
				"baseColorTexture" : {
					"index" : 0,
					"texCoord" : 0
				},
				"roughnessFactor" : 0.9843750009313226,
				"metallicFactor" : 0.5
			}
		},
		{
			"name" : "B363151801501063A0_001",
			"pbrMetallicRoughness" : {
				"baseColorTexture" : {
					"index" : 1,
					"texCoord" : 0
				},
				"roughnessFactor" : 0.9843750009313226,
				"metallicFactor" : 0.5
			},
			"alphaMode" : "BLEND"
		}
	],
	"meshes" : [
		{
			"primitives" : [
				{
					"attributes" : {
						"NORMAL" : 1,
						"POSITION" : 0,
						"TEXCOORD_0" : 2
					},
					"indices" : 3,
					"material" : 0,
					"mode" : 4
				},
				{
					"attributes" : {
						"NORMAL" : 5,
						"POSITION" : 4,
						"TEXCOORD_0" : 6
					},
					"indices" : 7,
					"material" : 1,
					"mode" : 4
				}
			]
		}
	],
	"nodes" : [
		{
			"name" : "B363151801501063A0",
			"matrix" : [ 1, 0, 0, 0, 0, 0, -1, 0, 0, 1, 0, 0, 836315.25, 11.222900390625, -818015.0625, 1 ],
			"children" : [ 1 ]
		},
		{
			"mesh" : 0
		}
	],
	"scenes" : [
		{
			"nodes" : [ 0 ]
		}
	],
	"scene" : 0,
	"accessors" : [
		{
			"bufferView" : 0,
			"byteOffset" : 0,
			"componentType" : 5126,
			"count" : 447,
			"type" : "VEC3",
			"min" : [ -6.6875, -6.6875, 0 ],
			"max" : [ 6.75, 6.6875, 7.574499130249023 ]
		},
		{
			"bufferView" : 1,
			"byteOffset" : 0,
			"componentType" : 5126,
			"count" : 447,
			"type" : "VEC3",
			"min" : [ -0.997616708278656, -1, -1 ],
			"max" : [ 0.9943338632583618, 0.998889684677124, 1 ]
		},
		{
			"bufferView" : 2,
			"byteOffset" : 0,
			"componentType" : 5126,
			"count" : 447,
			"type" : "VEC2",
			"min" : [ 0.004000000189989805, 0.00279998779296875 ],
			"max" : [ 0.9962000250816345, 0.9973999857902527 ]
		},
		{
			"bufferView" : 3,
			"byteOffset" : 0,
			"componentType" : 5123,
			"count" : 447,
			"type" : "SCALAR",
			"min" : [ 0 ],
			"max" : [ 446 ]
		},
		{
			"bufferView" : 4,
			"byteOffset" : 0,
			"componentType" : 5126,
			"count" : 66,
			"type" : "VEC3",
			"min" : [ -5.25, 2.0625, 4.32349967956543 ],
			"max" : [ -1.4375, 5.6875, 4.363199234008789 ]
		},
		{
			"bufferView" : 5,
			"byteOffset" : 0,
			"componentType" : 5126,
			"count" : 66,
			"type" : "VEC3",
			"min" : [ 0, 0, 1 ],
			"max" : [ 0, 0, 1 ]
		},
		{
			"bufferView" : 6,
			"byteOffset" : 0,
			"componentType" : 5126,
			"count" : 66,
			"type" : "VEC2",
			"min" : [ 0, 0 ],
			"max" : [ 1, 1 ]
		},
		{
			"bufferView" : 7,
			"byteOffset" : 0,
			"componentType" : 5121,
			"count" : 66,
			"type" : "SCALAR",
			"min" : [ 0 ],
			"max" : [ 65 ]
		}
	],
	"bufferViews" : [
		{
			"buffer" : 0,
			"byteOffset" : 0,
			"byteLength" : 5364,
			"target" : 34962
		},
		{
			"buffer" : 0,
			"byteOffset" : 5364,
			"byteLength" : 5364,
			"target" : 34962
		},
		{
			"buffer" : 0,
			"byteOffset" : 10728,
			"byteLength" : 3576,
			"target" : 34962
		},
		{
			"buffer" : 0,
			"byteOffset" : 14304,
			"byteLength" : 894,
			"target" : 34963
		},
		{
			"buffer" : 0,
			"byteOffset" : 15200,
			"byteLength" : 792,
			"target" : 34962
		},
		{
			"buffer" : 0,
			"byteOffset" : 15992,
			"byteLength" : 792,
			"target" : 34962
		},
		{
			"buffer" : 0,
			"byteOffset" : 16784,
			"byteLength" : 528,
			"target" : 34962
		},
		{
			"buffer" : 0,
			"byteOffset" : 17312,
			"byteLength" : 66,
			"target" : 34963
		}
	],
	"buffers" : [
		{
			"uri" : "B363151801501063A0.bin",
			"byteLength" : 17378
		}
	]
}
