{
	"asset" : {
		"generator" : "FME 2023.2.1.0",
		"version" : "2.0"
	},
	"materials" : [
		{
			"name" : "default_material",
			"pbrMetallicRoughness" : {
				"baseColorFactor" : [ 1, 1, 1, 1 ],
				"roughnessFactor" : 0.30000000000000004,
				"metallicFactor" : 0.5
			}
		}
	],
	"meshes" : [
		{
			"primitives" : [
				{
					"attributes" : {
						"NORMAL" : 1,
						"POSITION" : 0,
						"COLOR_0" : 2
					},
					"indices" : 3,
					"material" : 0,
					"mode" : 4
				}
			]
		}
	],
	"nodes" : [
		{
			"name" : "B334201644501063C0",
			"matrix" : [ 1, 0, 0, 0, 0, 0, -1, 0, 0, 1, 0, 0, 833413.8125, 2.9459962844848633, -816430.25, 1 ],
			"children" : [ 1 ]
		},
		{
			"mesh" : 0
		}
	],
	"scenes" : [
		{
			"nodes" : [ 0 ]
		}
	],
	"scene" : 0,
	"accessors" : [
		{
			"bufferView" : 0,
			"byteOffset" : 0,
			"componentType" : 5126,
			"count" : 1569,
			"type" : "VEC3",
			"min" : [ -15.1044921875, -16.91796875, 0 ],
			"max" : [ 15.1044921875, 16.9189453125, 77.11799621582031 ]
		},
		{
			"bufferView" : 1,
			"byteOffset" : 0,
			"componentType" : 5126,
			"count" : 1569,
			"type" : "VEC3",
			"min" : [ -0.8156213164329529, -0.7691134810447693, -0.9999945163726807 ],
			"max" : [ 0.7665191888809204, 0.999956488609314, 1 ]
		},
		{
			"bufferView" : 2,
			"byteOffset" : 0,
			"componentType" : 5126,
			"count" : 1569,
			"type" : "VEC3"
		},
		{
			"bufferView" : 3,
			"byteOffset" : 0,
			"componentType" : 5123,
			"count" : 1569,
			"type" : "SCALAR",
			"min" : [ 0 ],
			"max" : [ 1568 ]
		}
	],
	"bufferViews" : [
		{
			"buffer" : 0,
			"byteOffset" : 0,
			"byteLength" : 18828,
			"target" : 34962
		},
		{
			"buffer" : 0,
			"byteOffset" : 18828,
			"byteLength" : 18828,
			"target" : 34962
		},
		{
			"buffer" : 0,
			"byteOffset" : 37656,
			"byteLength" : 18828,
			"target" : 34962
		},
		{
			"buffer" : 0,
			"byteOffset" : 56484,
			"byteLength" : 3138,
			"target" : 34963
		}
	],
	"buffers" : [
		{
			"uri" : "B334201644501063C0.bin",
			"byteLength" : 59622
		}
	]
}
