{
	"asset" : {
		"generator" : "FME 2023.2.1.0",
		"version" : "2.0"
	},
	"materials" : [
		{
			"name" : "default_material",
			"pbrMetallicRoughness" : {
				"baseColorFactor" : [ 1, 1, 1, 1 ],
				"roughnessFactor" : 0.30000000000000004,
				"metallicFactor" : 0.5
			}
		}
	],
	"meshes" : [
		{
			"primitives" : [
				{
					"attributes" : {
						"NORMAL" : 1,
						"POSITION" : 0,
						"COLOR_0" : 2
					},
					"indices" : 3,
					"material" : 0,
					"mode" : 4
				}
			]
		}
	],
	"nodes" : [
		{
			"name" : "B349791533602063C0",
			"matrix" : [ 1, 0, 0, 0, 0, 0, -1, 0, 0, 1, 0, 0, 834965.75, 15.560999870300293, -815360.625, 1 ],
			"children" : [ 1 ]
		},
		{
			"mesh" : 0
		}
	],
	"scenes" : [
		{
			"nodes" : [ 0 ]
		}
	],
	"scene" : 0,
	"accessors" : [
		{
			"bufferView" : 0,
			"byteOffset" : 0,
			"componentType" : 5126,
			"count" : 7929,
			"type" : "VEC3",
			"min" : [ -25.9111328125, -38.748046875, 0 ],
			"max" : [ 25.9111328125, 38.748046875, 32.8489990234375 ]
		},
		{
			"bufferView" : 1,
			"byteOffset" : 0,
			"componentType" : 5126,
			"count" : 7929,
			"type" : "VEC3",
			"min" : [ -1, -0.9990958571434021, -1 ],
			"max" : [ 0.9999794960021973, 0.9999955296516418, 1 ]
		},
		{
			"bufferView" : 2,
			"byteOffset" : 0,
			"componentType" : 5126,
			"count" : 7929,
			"type" : "VEC3"
		},
		{
			"bufferView" : 3,
			"byteOffset" : 0,
			"componentType" : 5123,
			"count" : 7929,
			"type" : "SCALAR",
			"min" : [ 0 ],
			"max" : [ 7928 ]
		}
	],
	"bufferViews" : [
		{
			"buffer" : 0,
			"byteOffset" : 0,
			"byteLength" : 95148,
			"target" : 34962
		},
		{
			"buffer" : 0,
			"byteOffset" : 95148,
			"byteLength" : 95148,
			"target" : 34962
		},
		{
			"buffer" : 0,
			"byteOffset" : 190296,
			"byteLength" : 95148,
			"target" : 34962
		},
		{
			"buffer" : 0,
			"byteOffset" : 285444,
			"byteLength" : 15858,
			"target" : 34963
		}
	],
	"buffers" : [
		{
			"uri" : "B349791533602063C0.bin",
			"byteLength" : 301302
		}
	]
}
