{
	"asset" : {
		"generator" : "FME 2022.2.4.0",
		"version" : "2.0"
	},
	"materials" : [
		{
			"name" : "default_material",
			"pbrMetallicRoughness" : {
				"baseColorFactor" : [ 1, 1, 1, 1 ],
				"roughnessFactor" : 0.30000000000000004,
				"metallicFactor" : 0.5
			}
		}
	],
	"meshes" : [
		{
			"primitives" : [
				{
					"attributes" : {
						"NORMAL" : 1,
						"POSITION" : 0,
						"COLOR_0" : 2
					},
					"indices" : 3,
					"material" : 0,
					"mode" : 4
				}
			]
		}
	],
	"nodes" : [
		{
			"name" : "B355441530601063C0",
			"matrix" : [ 1, 0, 0, 0, 0, 0, -1, 0, 0, 1, 0, 0, 835538.625, 3.996000051498413, -815310.625, 1 ],
			"children" : [ 1 ]
		},
		{
			"mesh" : 0
		}
	],
	"scenes" : [
		{
			"nodes" : [ 0 ]
		}
	],
	"scene" : 0,
	"accessors" : [
		{
			"bufferView" : 0,
			"byteOffset" : 0,
			"componentType" : 5126,
			"count" : 342,
			"type" : "VEC3",
			"min" : [ -8.990234375, -7.72265625, 0 ],
			"max" : [ 8.990234375, 7.72265625, 21.61199951171875 ]
		},
		{
			"bufferView" : 1,
			"byteOffset" : 0,
			"componentType" : 5126,
			"count" : 342,
			"type" : "VEC3",
			"min" : [ -0.8348439931869507, -0.833168089389801, -0.0011992219369858503 ],
			"max" : [ 0.8329622149467468, 0.8327124118804932, 1 ]
		},
		{
			"bufferView" : 2,
			"byteOffset" : 0,
			"componentType" : 5126,
			"count" : 342,
			"type" : "VEC3"
		},
		{
			"bufferView" : 3,
			"byteOffset" : 0,
			"componentType" : 5123,
			"count" : 342,
			"type" : "SCALAR",
			"min" : [ 0 ],
			"max" : [ 341 ]
		}
	],
	"bufferViews" : [
		{
			"buffer" : 0,
			"byteOffset" : 0,
			"byteLength" : 4104,
			"target" : 34962
		},
		{
			"buffer" : 0,
			"byteOffset" : 4104,
			"byteLength" : 4104,
			"target" : 34962
		},
		{
			"buffer" : 0,
			"byteOffset" : 8208,
			"byteLength" : 4104,
			"target" : 34962
		},
		{
			"buffer" : 0,
			"byteOffset" : 12312,
			"byteLength" : 684,
			"target" : 34963
		}
	],
	"buffers" : [
		{
			"uri" : "B355441530601063C0.bin",
			"byteLength" : 12996
		}
	]
}
