{
	"asset" : {
		"generator" : "FME 2023.1.0.0",
		"version" : "2.0"
	},
	"materials" : [
		{
			"name" : "default_material",
			"pbrMetallicRoughness" : {
				"baseColorFactor" : [ 1, 1, 1, 1 ],
				"roughnessFactor" : 0.30000000000000004,
				"metallicFactor" : 0.5
			}
		}
	],
	"meshes" : [
		{
			"primitives" : [
				{
					"attributes" : {
						"NORMAL" : 1,
						"POSITION" : 0,
						"COLOR_0" : 2
					},
					"indices" : 3,
					"material" : 0,
					"mode" : 4
				}
			]
		}
	],
	"nodes" : [
		{
			"name" : "B335541620301063C0",
			"matrix" : [ 1, 0, 0, 0, 0, 0, -1, 0, 0, 1, 0, 0, 833552.8125, 5.196990489959717, -816198.5, 1 ],
			"children" : [ 1 ]
		},
		{
			"mesh" : 0
		}
	],
	"scenes" : [
		{
			"nodes" : [ 0 ]
		}
	],
	"scene" : 0,
	"accessors" : [
		{
			"bufferView" : 0,
			"byteOffset" : 0,
			"componentType" : 5126,
			"count" : 654,
			"type" : "VEC3",
			"min" : [ -8.50390625, -9.7314453125, 0 ],
			"max" : [ 8.5048828125, 9.7314453125, 25.635000228881836 ]
		},
		{
			"bufferView" : 1,
			"byteOffset" : 0,
			"componentType" : 5126,
			"count" : 654,
			"type" : "VEC3",
			"min" : [ -0.8359541296958923, -0.8462328910827637, -1 ],
			"max" : [ 0.8362088799476624, 0.8358942866325378, 1 ]
		},
		{
			"bufferView" : 2,
			"byteOffset" : 0,
			"componentType" : 5126,
			"count" : 654,
			"type" : "VEC3"
		},
		{
			"bufferView" : 3,
			"byteOffset" : 0,
			"componentType" : 5123,
			"count" : 654,
			"type" : "SCALAR",
			"min" : [ 0 ],
			"max" : [ 653 ]
		}
	],
	"bufferViews" : [
		{
			"buffer" : 0,
			"byteOffset" : 0,
			"byteLength" : 7848,
			"target" : 34962
		},
		{
			"buffer" : 0,
			"byteOffset" : 7848,
			"byteLength" : 7848,
			"target" : 34962
		},
		{
			"buffer" : 0,
			"byteOffset" : 15696,
			"byteLength" : 7848,
			"target" : 34962
		},
		{
			"buffer" : 0,
			"byteOffset" : 23544,
			"byteLength" : 1308,
			"target" : 34963
		}
	],
	"buffers" : [
		{
			"uri" : "B335541620301063C0.bin",
			"byteLength" : 24852
		}
	]
}
