{
	"asset" : {
		"generator" : "FME 2022.2.4.0",
		"version" : "2.0"
	},
	"materials" : [
		{
			"name" : "default_material",
			"pbrMetallicRoughness" : {
				"baseColorFactor" : [ 1, 1, 1, 1 ],
				"roughnessFactor" : 0.30000000000000004,
				"metallicFactor" : 0.5
			}
		}
	],
	"meshes" : [
		{
			"primitives" : [
				{
					"attributes" : {
						"NORMAL" : 1,
						"POSITION" : 0,
						"COLOR_0" : 2
					},
					"indices" : 3,
					"material" : 0,
					"mode" : 4
				}
			]
		}
	],
	"nodes" : [
		{
			"name" : "B347501536501063C0",
			"matrix" : [ 1, 0, 0, 0, 0, 0, -1, 0, 0, 1, 0, 0, 834748.875, 42.077999114990234, -815370.0625, 1 ],
			"children" : [ 1 ]
		},
		{
			"mesh" : 0
		}
	],
	"scenes" : [
		{
			"nodes" : [ 0 ]
		}
	],
	"scene" : 0,
	"accessors" : [
		{
			"bufferView" : 0,
			"byteOffset" : 0,
			"componentType" : 5126,
			"count" : 4356,
			"type" : "VEC3",
			"min" : [ -33.98046875, -25.0078125, 0 ],
			"max" : [ 33.98046875, 25.0068359375, 20.393001556396484 ]
		},
		{
			"bufferView" : 1,
			"byteOffset" : 0,
			"componentType" : 5126,
			"count" : 4356,
			"type" : "VEC3",
			"min" : [ -0.9971609115600586, -0.9984893798828125, -1 ],
			"max" : [ 0.9976775646209717, 0.9983751177787781, 1 ]
		},
		{
			"bufferView" : 2,
			"byteOffset" : 0,
			"componentType" : 5126,
			"count" : 4356,
			"type" : "VEC3"
		},
		{
			"bufferView" : 3,
			"byteOffset" : 0,
			"componentType" : 5123,
			"count" : 4356,
			"type" : "SCALAR",
			"min" : [ 0 ],
			"max" : [ 4355 ]
		}
	],
	"bufferViews" : [
		{
			"buffer" : 0,
			"byteOffset" : 0,
			"byteLength" : 52272,
			"target" : 34962
		},
		{
			"buffer" : 0,
			"byteOffset" : 52272,
			"byteLength" : 52272,
			"target" : 34962
		},
		{
			"buffer" : 0,
			"byteOffset" : 104544,
			"byteLength" : 52272,
			"target" : 34962
		},
		{
			"buffer" : 0,
			"byteOffset" : 156816,
			"byteLength" : 8712,
			"target" : 34963
		}
	],
	"buffers" : [
		{
			"uri" : "B347501536501063C0.bin",
			"byteLength" : 165528
		}
	]
}
