{
	"asset" : {
		"generator" : "FME 2022.2.4.0",
		"version" : "2.0"
	},
	"materials" : [
		{
			"name" : "default_material",
			"pbrMetallicRoughness" : {
				"baseColorFactor" : [ 1, 1, 1, 1 ],
				"roughnessFactor" : 0.30000000000000004,
				"metallicFactor" : 0.5
			}
		}
	],
	"meshes" : [
		{
			"primitives" : [
				{
					"attributes" : {
						"NORMAL" : 1,
						"POSITION" : 0,
						"COLOR_0" : 2
					},
					"indices" : 3,
					"material" : 0,
					"mode" : 4
				}
			]
		}
	],
	"nodes" : [
		{
			"name" : "B342021590701063C0",
			"matrix" : [ 1, 0, 0, 0, 0, 0, -1, 0, 0, 1, 0, 0, 834219.0625, 4.5370001792907715, -815888.375, 1 ],
			"children" : [ 1 ]
		},
		{
			"mesh" : 0
		}
	],
	"scenes" : [
		{
			"nodes" : [ 0 ]
		}
	],
	"scene" : 0,
	"accessors" : [
		{
			"bufferView" : 0,
			"byteOffset" : 0,
			"componentType" : 5126,
			"count" : 4392,
			"type" : "VEC3",
			"min" : [ -22.2109375, -26.3642578125, 0 ],
			"max" : [ 22.15625, 26.353515625, 49.54300308227539 ]
		},
		{
			"bufferView" : 1,
			"byteOffset" : 0,
			"componentType" : 5126,
			"count" : 4392,
			"type" : "VEC3",
			"min" : [ -1, -0.9999409914016724, -1 ],
			"max" : [ 0.9914478063583374, 0.9011251926422119, 1 ]
		},
		{
			"bufferView" : 2,
			"byteOffset" : 0,
			"componentType" : 5126,
			"count" : 4392,
			"type" : "VEC3"
		},
		{
			"bufferView" : 3,
			"byteOffset" : 0,
			"componentType" : 5123,
			"count" : 4392,
			"type" : "SCALAR",
			"min" : [ 0 ],
			"max" : [ 4391 ]
		}
	],
	"bufferViews" : [
		{
			"buffer" : 0,
			"byteOffset" : 0,
			"byteLength" : 52704,
			"target" : 34962
		},
		{
			"buffer" : 0,
			"byteOffset" : 52704,
			"byteLength" : 52704,
			"target" : 34962
		},
		{
			"buffer" : 0,
			"byteOffset" : 105408,
			"byteLength" : 52704,
			"target" : 34962
		},
		{
			"buffer" : 0,
			"byteOffset" : 158112,
			"byteLength" : 8784,
			"target" : 34963
		}
	],
	"buffers" : [
		{
			"uri" : "B342021590701063C0.bin",
			"byteLength" : 166896
		}
	]
}
