{
	"asset" : {
		"generator" : "FME 2023.1.0.0",
		"version" : "2.0"
	},
	"materials" : [
		{
			"name" : "default_material",
			"pbrMetallicRoughness" : {
				"baseColorFactor" : [ 1, 1, 1, 1 ],
				"roughnessFactor" : 0.30000000000000004,
				"metallicFactor" : 0.5
			}
		}
	],
	"meshes" : [
		{
			"primitives" : [
				{
					"attributes" : {
						"NORMAL" : 1,
						"POSITION" : 0,
						"COLOR_0" : 2
					},
					"indices" : 3,
					"material" : 0,
					"mode" : 4
				}
			]
		}
	],
	"nodes" : [
		{
			"name" : "B331131611501063C0",
			"matrix" : [ 1, 0, 0, 0, 0, 0, -1, 0, 0, 1, 0, 0, 833115.5625, 70.14700317382812, -816117.625, 1 ],
			"children" : [ 1 ]
		},
		{
			"mesh" : 0
		}
	],
	"scenes" : [
		{
			"nodes" : [ 0 ]
		}
	],
	"scene" : 0,
	"accessors" : [
		{
			"bufferView" : 0,
			"byteOffset" : 0,
			"componentType" : 5126,
			"count" : 342,
			"type" : "VEC3",
			"min" : [ -5.6298828125, -5.677734375, 0 ],
			"max" : [ 5.6298828125, 5.6787109375, 31.2239990234375 ]
		},
		{
			"bufferView" : 1,
			"byteOffset" : 0,
			"componentType" : 5126,
			"count" : 342,
			"type" : "VEC3",
			"min" : [ -0.7801113128662109, -0.781597375869751, -0.001984359696507454 ],
			"max" : [ 0.7754848003387451, 0.778046727180481, 1 ]
		},
		{
			"bufferView" : 2,
			"byteOffset" : 0,
			"componentType" : 5126,
			"count" : 342,
			"type" : "VEC3"
		},
		{
			"bufferView" : 3,
			"byteOffset" : 0,
			"componentType" : 5123,
			"count" : 342,
			"type" : "SCALAR",
			"min" : [ 0 ],
			"max" : [ 341 ]
		}
	],
	"bufferViews" : [
		{
			"buffer" : 0,
			"byteOffset" : 0,
			"byteLength" : 4104,
			"target" : 34962
		},
		{
			"buffer" : 0,
			"byteOffset" : 4104,
			"byteLength" : 4104,
			"target" : 34962
		},
		{
			"buffer" : 0,
			"byteOffset" : 8208,
			"byteLength" : 4104,
			"target" : 34962
		},
		{
			"buffer" : 0,
			"byteOffset" : 12312,
			"byteLength" : 684,
			"target" : 34963
		}
	],
	"buffers" : [
		{
			"uri" : "B331131611501063C0.bin",
			"byteLength" : 12996
		}
	]
}
