{
	"asset" : {
		"generator" : "FME 2023.1.0.0",
		"version" : "2.0"
	},
	"materials" : [
		{
			"name" : "default_material",
			"pbrMetallicRoughness" : {
				"baseColorFactor" : [ 1, 1, 1, 1 ],
				"roughnessFactor" : 0.30000000000000004,
				"metallicFactor" : 0.5
			}
		}
	],
	"meshes" : [
		{
			"primitives" : [
				{
					"attributes" : {
						"NORMAL" : 1,
						"POSITION" : 0,
						"COLOR_0" : 2
					},
					"indices" : 3,
					"material" : 0,
					"mode" : 4
				}
			]
		}
	],
	"nodes" : [
		{
			"name" : "B346231540001063C0",
			"matrix" : [ 1, 0, 0, 0, 0, 0, -1, 0, 0, 1, 0, 0, 834623.9375, 25.240999221801758, -815397.8125, 1 ],
			"children" : [ 1 ]
		},
		{
			"mesh" : 0
		}
	],
	"scenes" : [
		{
			"nodes" : [ 0 ]
		}
	],
	"scene" : 0,
	"accessors" : [
		{
			"bufferView" : 0,
			"byteOffset" : 0,
			"componentType" : 5126,
			"count" : 855,
			"type" : "VEC3",
			"min" : [ -12.904296875, -11.55078125, 0 ],
			"max" : [ 12.9033203125, 11.55078125, 13.410001754760742 ]
		},
		{
			"bufferView" : 1,
			"byteOffset" : 0,
			"componentType" : 5126,
			"count" : 855,
			"type" : "VEC3",
			"min" : [ -0.8265389800071716, -0.8377031683921814, -1 ],
			"max" : [ 0.8324713110923767, 0.9065578579902649, 1 ]
		},
		{
			"bufferView" : 2,
			"byteOffset" : 0,
			"componentType" : 5126,
			"count" : 855,
			"type" : "VEC3"
		},
		{
			"bufferView" : 3,
			"byteOffset" : 0,
			"componentType" : 5123,
			"count" : 855,
			"type" : "SCALAR",
			"min" : [ 0 ],
			"max" : [ 854 ]
		}
	],
	"bufferViews" : [
		{
			"buffer" : 0,
			"byteOffset" : 0,
			"byteLength" : 10260,
			"target" : 34962
		},
		{
			"buffer" : 0,
			"byteOffset" : 10260,
			"byteLength" : 10260,
			"target" : 34962
		},
		{
			"buffer" : 0,
			"byteOffset" : 20520,
			"byteLength" : 10260,
			"target" : 34962
		},
		{
			"buffer" : 0,
			"byteOffset" : 30780,
			"byteLength" : 1710,
			"target" : 34963
		}
	],
	"buffers" : [
		{
			"uri" : "B346231540001063C0.bin",
			"byteLength" : 32490
		}
	]
}
