{
	"asset" : {
		"generator" : "FME 2023.2.1.0",
		"version" : "2.0"
	},
	"materials" : [
		{
			"name" : "default_material",
			"pbrMetallicRoughness" : {
				"baseColorFactor" : [ 1, 1, 1, 1 ],
				"roughnessFactor" : 0.30000000000000004,
				"metallicFactor" : 0.5
			}
		}
	],
	"meshes" : [
		{
			"primitives" : [
				{
					"attributes" : {
						"NORMAL" : 1,
						"POSITION" : 0,
						"COLOR_0" : 2
					},
					"indices" : 3,
					"material" : 0,
					"mode" : 4
				}
			]
		}
	],
	"nodes" : [
		{
			"name" : "B344021649301063C0",
			"matrix" : [ 1, 0, 0, 0, 0, 0, -1, 0, 0, 1, 0, 0, 834402.25, 5.373992919921875, -816493.125, 1 ],
			"children" : [ 1 ]
		},
		{
			"mesh" : 0
		}
	],
	"scenes" : [
		{
			"nodes" : [ 0 ]
		}
	],
	"scene" : 0,
	"accessors" : [
		{
			"bufferView" : 0,
			"byteOffset" : 0,
			"componentType" : 5126,
			"count" : 1608,
			"type" : "VEC3",
			"min" : [ -1.71484375, -2.005859375, 0 ],
			"max" : [ 1.7138671875, 2.005859375, 1.125999927520752 ]
		},
		{
			"bufferView" : 1,
			"byteOffset" : 0,
			"componentType" : 5126,
			"count" : 1608,
			"type" : "VEC3",
			"min" : [ -0.9999845027923584, -0.9998841285705566, -1 ],
			"max" : [ 1, 0.9999780654907227, 1 ]
		},
		{
			"bufferView" : 2,
			"byteOffset" : 0,
			"componentType" : 5126,
			"count" : 1608,
			"type" : "VEC3"
		},
		{
			"bufferView" : 3,
			"byteOffset" : 0,
			"componentType" : 5123,
			"count" : 1608,
			"type" : "SCALAR",
			"min" : [ 0 ],
			"max" : [ 1607 ]
		}
	],
	"bufferViews" : [
		{
			"buffer" : 0,
			"byteOffset" : 0,
			"byteLength" : 19296,
			"target" : 34962
		},
		{
			"buffer" : 0,
			"byteOffset" : 19296,
			"byteLength" : 19296,
			"target" : 34962
		},
		{
			"buffer" : 0,
			"byteOffset" : 38592,
			"byteLength" : 19296,
			"target" : 34962
		},
		{
			"buffer" : 0,
			"byteOffset" : 57888,
			"byteLength" : 3216,
			"target" : 34963
		}
	],
	"buffers" : [
		{
			"uri" : "B344021649301063C0.bin",
			"byteLength" : 61104
		}
	]
}
