{
	"asset" : {
		"generator" : "FME 2023.1.0.0",
		"version" : "2.0"
	},
	"materials" : [
		{
			"name" : "default_material",
			"pbrMetallicRoughness" : {
				"baseColorFactor" : [ 1, 1, 1, 1 ],
				"roughnessFactor" : 0.30000000000000004,
				"metallicFactor" : 0.5
			}
		}
	],
	"meshes" : [
		{
			"primitives" : [
				{
					"attributes" : {
						"NORMAL" : 1,
						"POSITION" : 0,
						"COLOR_0" : 2
					},
					"indices" : 3,
					"material" : 0,
					"mode" : 4
				}
			]
		}
	],
	"nodes" : [
		{
			"name" : "B336011585602063C0",
			"matrix" : [ 1, 0, 0, 0, 0, 0, -1, 0, 0, 1, 0, 0, 833602.8125, 74.81999969482422, -815864.625, 1 ],
			"children" : [ 1 ]
		},
		{
			"mesh" : 0
		}
	],
	"scenes" : [
		{
			"nodes" : [ 0 ]
		}
	],
	"scene" : 0,
	"accessors" : [
		{
			"bufferView" : 0,
			"byteOffset" : 0,
			"componentType" : 5126,
			"count" : 2391,
			"type" : "VEC3",
			"min" : [ -25.625, -26.96875, 0 ],
			"max" : [ 25.625, 27.0927734375, 23.054000854492188 ]
		},
		{
			"bufferView" : 1,
			"byteOffset" : 0,
			"componentType" : 5126,
			"count" : 2391,
			"type" : "VEC3",
			"min" : [ -0.9949061870574951, -0.999432384967804, -1 ],
			"max" : [ 0.9935327172279358, 0.9956474900245667, 1 ]
		},
		{
			"bufferView" : 2,
			"byteOffset" : 0,
			"componentType" : 5126,
			"count" : 2391,
			"type" : "VEC3"
		},
		{
			"bufferView" : 3,
			"byteOffset" : 0,
			"componentType" : 5123,
			"count" : 2391,
			"type" : "SCALAR",
			"min" : [ 0 ],
			"max" : [ 2390 ]
		}
	],
	"bufferViews" : [
		{
			"buffer" : 0,
			"byteOffset" : 0,
			"byteLength" : 28692,
			"target" : 34962
		},
		{
			"buffer" : 0,
			"byteOffset" : 28692,
			"byteLength" : 28692,
			"target" : 34962
		},
		{
			"buffer" : 0,
			"byteOffset" : 57384,
			"byteLength" : 28692,
			"target" : 34962
		},
		{
			"buffer" : 0,
			"byteOffset" : 86076,
			"byteLength" : 4782,
			"target" : 34963
		}
	],
	"buffers" : [
		{
			"uri" : "B336011585602063C0.bin",
			"byteLength" : 90858
		}
	]
}
