{
	"asset" : {
		"generator" : "FME 2022.2.4.0",
		"version" : "2.0"
	},
	"materials" : [
		{
			"name" : "default_material",
			"pbrMetallicRoughness" : {
				"baseColorFactor" : [ 1, 1, 1, 1 ],
				"roughnessFactor" : 0.30000000000000004,
				"metallicFactor" : 0.5
			}
		}
	],
	"meshes" : [
		{
			"primitives" : [
				{
					"attributes" : {
						"NORMAL" : 1,
						"POSITION" : 0,
						"COLOR_0" : 2
					},
					"indices" : 3,
					"material" : 0,
					"mode" : 4
				}
			]
		}
	],
	"nodes" : [
		{
			"name" : "B337641633001063C0",
			"matrix" : [ 1, 0, 0, 0, 0, 0, -1, 0, 0, 1, 0, 0, 833764.9375, 2.7729952335357666, -816328.3125, 1 ],
			"children" : [ 1 ]
		},
		{
			"mesh" : 0
		}
	],
	"scenes" : [
		{
			"nodes" : [ 0 ]
		}
	],
	"scene" : 0,
	"accessors" : [
		{
			"bufferView" : 0,
			"byteOffset" : 0,
			"componentType" : 5126,
			"count" : 246,
			"type" : "VEC3",
			"min" : [ -4.537109375, -9.2099609375, 0 ],
			"max" : [ 4.537109375, 9.2109375, 23.99599838256836 ]
		},
		{
			"bufferView" : 1,
			"byteOffset" : 0,
			"componentType" : 5126,
			"count" : 246,
			"type" : "VEC3",
			"min" : [ -1, -0.9753143191337585, -1 ],
			"max" : [ 0.9762952923774719, 0.9755541086196899, 1 ]
		},
		{
			"bufferView" : 2,
			"byteOffset" : 0,
			"componentType" : 5126,
			"count" : 246,
			"type" : "VEC3"
		},
		{
			"bufferView" : 3,
			"byteOffset" : 0,
			"componentType" : 5121,
			"count" : 246,
			"type" : "SCALAR",
			"min" : [ 0 ],
			"max" : [ 245 ]
		}
	],
	"bufferViews" : [
		{
			"buffer" : 0,
			"byteOffset" : 0,
			"byteLength" : 2952,
			"target" : 34962
		},
		{
			"buffer" : 0,
			"byteOffset" : 2952,
			"byteLength" : 2952,
			"target" : 34962
		},
		{
			"buffer" : 0,
			"byteOffset" : 5904,
			"byteLength" : 2952,
			"target" : 34962
		},
		{
			"buffer" : 0,
			"byteOffset" : 8856,
			"byteLength" : 246,
			"target" : 34963
		}
	],
	"buffers" : [
		{
			"uri" : "B337641633001063C0.bin",
			"byteLength" : 9102
		}
	]
}
