{
	"asset" : {
		"generator" : "FME 2023.2.1.0",
		"version" : "2.0"
	},
	"materials" : [
		{
			"name" : "default_material",
			"pbrMetallicRoughness" : {
				"baseColorFactor" : [ 1, 1, 1, 1 ],
				"roughnessFactor" : 0.30000000000000004,
				"metallicFactor" : 0.5
			}
		}
	],
	"meshes" : [
		{
			"primitives" : [
				{
					"attributes" : {
						"NORMAL" : 1,
						"POSITION" : 0,
						"COLOR_0" : 2
					},
					"indices" : 3,
					"material" : 0,
					"mode" : 4
				}
			]
		}
	],
	"nodes" : [
		{
			"name" : "B337181666002063C0",
			"matrix" : [ 1, 0, 0, 0, 0, 0, -1, 0, 0, 1, 0, 0, 833718, 1.2489999532699585, -816650.9375, 1 ],
			"children" : [ 1 ]
		},
		{
			"mesh" : 0
		}
	],
	"scenes" : [
		{
			"nodes" : [ 0 ]
		}
	],
	"scene" : 0,
	"accessors" : [
		{
			"bufferView" : 0,
			"byteOffset" : 0,
			"componentType" : 5126,
			"count" : 39186,
			"type" : "VEC3",
			"min" : [ -114.2939453125, -78.7333984375, 0 ],
			"max" : [ 114.2939453125, 78.7333984375, 36.861000061035156 ]
		},
		{
			"bufferView" : 1,
			"byteOffset" : 0,
			"componentType" : 5126,
			"count" : 39186,
			"type" : "VEC3",
			"min" : [ -1, -1, -1 ],
			"max" : [ 1, 1, 1 ]
		},
		{
			"bufferView" : 2,
			"byteOffset" : 0,
			"componentType" : 5126,
			"count" : 39186,
			"type" : "VEC3"
		},
		{
			"bufferView" : 3,
			"byteOffset" : 0,
			"componentType" : 5123,
			"count" : 39186,
			"type" : "SCALAR",
			"min" : [ 0 ],
			"max" : [ 39185 ]
		}
	],
	"bufferViews" : [
		{
			"buffer" : 0,
			"byteOffset" : 0,
			"byteLength" : 470232,
			"target" : 34962
		},
		{
			"buffer" : 0,
			"byteOffset" : 470232,
			"byteLength" : 470232,
			"target" : 34962
		},
		{
			"buffer" : 0,
			"byteOffset" : 940464,
			"byteLength" : 470232,
			"target" : 34962
		},
		{
			"buffer" : 0,
			"byteOffset" : 1410696,
			"byteLength" : 78372,
			"target" : 34963
		}
	],
	"buffers" : [
		{
			"uri" : "B337181666002063C0.bin",
			"byteLength" : 1489068
		}
	]
}
