{
	"asset" : {
		"generator" : "FME 2023.2.2.0",
		"version" : "2.0"
	},
	"materials" : [
		{
			"name" : "default_material",
			"pbrMetallicRoughness" : {
				"baseColorFactor" : [ 1, 1, 1, 1 ],
				"roughnessFactor" : 0.30000000000000004,
				"metallicFactor" : 0.5
			}
		}
	],
	"meshes" : [
		{
			"primitives" : [
				{
					"attributes" : {
						"NORMAL" : 1,
						"POSITION" : 0,
						"COLOR_0" : 2
					},
					"indices" : 3,
					"material" : 0,
					"mode" : 4
				}
			]
		}
	],
	"nodes" : [
		{
			"name" : "B172381440201062G0",
			"matrix" : [ 1, 0, 0, 0, 0, 0, -1, 0, 0, 1, 0, 0, 817238.375, 8.060199737548828, -814402.3125, 1 ],
			"children" : [ 1 ]
		},
		{
			"mesh" : 0
		}
	],
	"scenes" : [
		{
			"nodes" : [ 0 ]
		}
	],
	"scene" : 0,
	"accessors" : [
		{
			"bufferView" : 0,
			"byteOffset" : 0,
			"componentType" : 5126,
			"count" : 438,
			"type" : "VEC3",
			"min" : [ -4.625, -6.0625, 0 ],
			"max" : [ 4.5625, 6.0625, 10.541999816894531 ]
		},
		{
			"bufferView" : 1,
			"byteOffset" : 0,
			"componentType" : 5126,
			"count" : 438,
			"type" : "VEC3",
			"min" : [ -0.9697772264480591, -0.9687612056732178, -1 ],
			"max" : [ 0.9685801863670349, 0.9690948724746704, 1 ]
		},
		{
			"bufferView" : 2,
			"byteOffset" : 0,
			"componentType" : 5126,
			"count" : 438,
			"type" : "VEC3"
		},
		{
			"bufferView" : 3,
			"byteOffset" : 0,
			"componentType" : 5123,
			"count" : 438,
			"type" : "SCALAR",
			"min" : [ 0 ],
			"max" : [ 437 ]
		}
	],
	"bufferViews" : [
		{
			"buffer" : 0,
			"byteOffset" : 0,
			"byteLength" : 5256,
			"target" : 34962
		},
		{
			"buffer" : 0,
			"byteOffset" : 5256,
			"byteLength" : 5256,
			"target" : 34962
		},
		{
			"buffer" : 0,
			"byteOffset" : 10512,
			"byteLength" : 5256,
			"target" : 34962
		},
		{
			"buffer" : 0,
			"byteOffset" : 15768,
			"byteLength" : 876,
			"target" : 34963
		}
	],
	"buffers" : [
		{
			"uri" : "B172381440201062G0.bin",
			"byteLength" : 16644
		}
	]
}
