{
	"asset" : {
		"generator" : "FME 2023.1.0.0",
		"version" : "2.0"
	},
	"images" : [
		{
			"uri" : "T43500186000106E10_001.jpg"
		},
		{
			"uri" : "T43500186000106E10_003.jpg"
		},
		{
			"uri" : "T43500186000106E10_002.jpg"
		},
		{
			"uri" : "T43500186000106E10_004.jpg"
		}
	],
	"samplers" : [
		{
			"wrapS" : 10497,
			"wrapT" : 10497,
			"magFilter" : 9729,
			"minFilter" : 9986
		},
		{
			"wrapS" : 10497,
			"wrapT" : 10497,
			"magFilter" : 9729,
			"minFilter" : 9986
		},
		{
			"wrapS" : 10497,
			"wrapT" : 10497,
			"magFilter" : 9729,
			"minFilter" : 9986
		},
		{
			"wrapS" : 10497,
			"wrapT" : 10497,
			"magFilter" : 9729,
			"minFilter" : 9986
		}
	],
	"textures" : [
		{
			"source" : 0,
			"sampler" : 0
		},
		{
			"source" : 2,
			"sampler" : 1
		},
		{
			"source" : 1,
			"sampler" : 2
		},
		{
			"source" : 3,
			"sampler" : 3
		}
	],
	"materials" : [
		{
			"name" : "T43500186000106E10_001",
			"pbrMetallicRoughness" : {
				"baseColorTexture" : {
					"index" : 0,
					"texCoord" : 0
				},
				"roughnessFactor" : 0.9843750009313226,
				"metallicFactor" : 0.5
			}
		},
		{
			"name" : "T43500186000106E10_002",
			"pbrMetallicRoughness" : {
				"baseColorTexture" : {
					"index" : 1,
					"texCoord" : 0
				},
				"roughnessFactor" : 0.9843750009313226,
				"metallicFactor" : 0.5
			}
		},
		{
			"name" : "T43500186000106E10_003",
			"pbrMetallicRoughness" : {
				"baseColorTexture" : {
					"index" : 2,
					"texCoord" : 0
				},
				"roughnessFactor" : 0.9843750009313226,
				"metallicFactor" : 0.5
			}
		},
		{
			"name" : "T43500186000106E10_004",
			"pbrMetallicRoughness" : {
				"baseColorTexture" : {
					"index" : 3,
					"texCoord" : 0
				},
				"roughnessFactor" : 0.9843750009313226,
				"metallicFactor" : 0.5
			}
		}
	],
	"meshes" : [
		{
			"primitives" : [
				{
					"attributes" : {
						"NORMAL" : 1,
						"POSITION" : 0,
						"TEXCOORD_0" : 2
					},
					"indices" : 3,
					"material" : 0,
					"mode" : 4
				},
				{
					"attributes" : {
						"NORMAL" : 5,
						"POSITION" : 4,
						"TEXCOORD_0" : 6
					},
					"indices" : 7,
					"material" : 1,
					"mode" : 4
				},
				{
					"attributes" : {
						"NORMAL" : 9,
						"POSITION" : 8,
						"TEXCOORD_0" : 10
					},
					"indices" : 11,
					"material" : 2,
					"mode" : 4
				},
				{
					"attributes" : {
						"NORMAL" : 13,
						"POSITION" : 12,
						"TEXCOORD_0" : 14
					},
					"indices" : 15,
					"material" : 3,
					"mode" : 4
				}
			]
		}
	],
	"nodes" : [
		{
			"name" : "T43500186000106E10",
			"matrix" : [ 1, 0, 0, 0, 0, 0, -1, 0, 0, 1, 0, 0, 843875, 6.27001953125, -818900, 1 ],
			"children" : [ 1 ]
		},
		{
			"mesh" : 0
		}
	],
	"scenes" : [
		{
			"nodes" : [ 0 ]
		}
	],
	"scene" : 0,
	"accessors" : [
		{
			"bufferView" : 0,
			"byteOffset" : 0,
			"componentType" : 5126,
			"count" : 410553,
			"type" : "VEC3",
			"min" : [ -375, -300, 0 ],
			"max" : [ 375, 300, 222.79000854492188 ]
		},
		{
			"bufferView" : 1,
			"byteOffset" : 0,
			"componentType" : 5126,
			"count" : 410553,
			"type" : "VEC3",
			"min" : [ -0.8934643864631653, -1, -1 ],
			"max" : [ 1, 0.9467986226081848, 1 ]
		},
		{
			"bufferView" : 2,
			"byteOffset" : 0,
			"componentType" : 5126,
			"count" : 410553,
			"type" : "VEC2",
			"min" : [ 0, 0 ],
			"max" : [ 1, 1 ]
		},
		{
			"bufferView" : 3,
			"byteOffset" : 0,
			"componentType" : 5125,
			"count" : 410553,
			"type" : "SCALAR",
			"min" : [ 0 ],
			"max" : [ 410552 ]
		},
		{
			"bufferView" : 4,
			"byteOffset" : 0,
			"componentType" : 5126,
			"count" : 222,
			"type" : "VEC3",
			"min" : [ -112.91015625, -30.390625, 72.01000213623047 ],
			"max" : [ -61.25, 11.0390625, 93.31000518798828 ]
		},
		{
			"bufferView" : 5,
			"byteOffset" : 0,
			"componentType" : 5126,
			"count" : 222,
			"type" : "VEC3",
			"min" : [ -0.4867444634437561, -0.8037827610969543, 0.4171997010707855 ],
			"max" : [ 0.9004907011985779, 0.5475801229476929, 1 ]
		},
		{
			"bufferView" : 6,
			"byteOffset" : 0,
			"componentType" : 5126,
			"count" : 222,
			"type" : "VEC2",
			"min" : [ -2.0830078125, -0.5650001764297485 ],
			"max" : [ 3.083007335662842, 2.5714845657348633 ]
		},
		{
			"bufferView" : 7,
			"byteOffset" : 0,
			"componentType" : 5121,
			"count" : 222,
			"type" : "SCALAR",
			"min" : [ 0 ],
			"max" : [ 221 ]
		},
		{
			"bufferView" : 8,
			"byteOffset" : 0,
			"componentType" : 5126,
			"count" : 1035,
			"type" : "VEC3",
			"min" : [ -87.80078125, -300, 0.7700042724609375 ],
			"max" : [ 303.7421875, -79.6171875, 24.51000213623047 ]
		},
		{
			"bufferView" : 9,
			"byteOffset" : 0,
			"componentType" : 5126,
			"count" : 1035,
			"type" : "VEC3",
			"min" : [ -0.3800893723964691, -0.921390950679779, -0.7413343191146851 ],
			"max" : [ 0.9829851388931274, 0.7151197791099548, 0.9966030120849609 ]
		},
		{
			"bufferView" : 10,
			"byteOffset" : 0,
			"componentType" : 5126,
			"count" : 1035,
			"type" : "VEC2",
			"min" : [ -6.244335174560547, -4.183009147644043 ],
			"max" : [ 6.375219345092773, 3.2741928100585938 ]
		},
		{
			"bufferView" : 11,
			"byteOffset" : 0,
			"componentType" : 5123,
			"count" : 1035,
			"type" : "SCALAR",
			"min" : [ 0 ],
			"max" : [ 1034 ]
		},
		{
			"bufferView" : 12,
			"byteOffset" : 0,
			"componentType" : 5126,
			"count" : 87,
			"type" : "VEC3",
			"min" : [ 92.9140625, -181.599609375, 7.829437255859375 ],
			"max" : [ 126.296875, -150.7890625, 9.735267639160156 ]
		},
		{
			"bufferView" : 13,
			"byteOffset" : 0,
			"componentType" : 5126,
			"count" : 87,
			"type" : "VEC3",
			"min" : [ -0.8439614772796631, -0.4913212060928345, 0 ],
			"max" : [ 0.8709784746170044, 0.944804847240448, 0 ]
		},
		{
			"bufferView" : 14,
			"byteOffset" : 0,
			"componentType" : 5126,
			"count" : 87,
			"type" : "VEC2",
			"min" : [ -2.8383865356445312, 0.08539772033691406 ],
			"max" : [ 3.838388442993164, 0.9145984649658203 ]
		},
		{
			"bufferView" : 15,
			"byteOffset" : 0,
			"componentType" : 5121,
			"count" : 87,
			"type" : "SCALAR",
			"min" : [ 0 ],
			"max" : [ 86 ]
		}
	],
	"bufferViews" : [
		{
			"buffer" : 0,
			"byteOffset" : 0,
			"byteLength" : 4926636,
			"target" : 34962
		},
		{
			"buffer" : 0,
			"byteOffset" : 4926636,
			"byteLength" : 4926636,
			"target" : 34962
		},
		{
			"buffer" : 0,
			"byteOffset" : 9853272,
			"byteLength" : 3284424,
			"target" : 34962
		},
		{
			"buffer" : 0,
			"byteOffset" : 13137696,
			"byteLength" : 1642212,
			"target" : 34963
		},
		{
			"buffer" : 0,
			"byteOffset" : 14779908,
			"byteLength" : 2664,
			"target" : 34962
		},
		{
			"buffer" : 0,
			"byteOffset" : 14782572,
			"byteLength" : 2664,
			"target" : 34962
		},
		{
			"buffer" : 0,
			"byteOffset" : 14785236,
			"byteLength" : 1776,
			"target" : 34962
		},
		{
			"buffer" : 0,
			"byteOffset" : 14787012,
			"byteLength" : 222,
			"target" : 34963
		},
		{
			"buffer" : 0,
			"byteOffset" : 14787236,
			"byteLength" : 12420,
			"target" : 34962
		},
		{
			"buffer" : 0,
			"byteOffset" : 14799656,
			"byteLength" : 12420,
			"target" : 34962
		},
		{
			"buffer" : 0,
			"byteOffset" : 14812076,
			"byteLength" : 8280,
			"target" : 34962
		},
		{
			"buffer" : 0,
			"byteOffset" : 14820356,
			"byteLength" : 2070,
			"target" : 34963
		},
		{
			"buffer" : 0,
			"byteOffset" : 14822428,
			"byteLength" : 1044,
			"target" : 34962
		},
		{
			"buffer" : 0,
			"byteOffset" : 14823472,
			"byteLength" : 1044,
			"target" : 34962
		},
		{
			"buffer" : 0,
			"byteOffset" : 14824516,
			"byteLength" : 696,
			"target" : 34962
		},
		{
			"buffer" : 0,
			"byteOffset" : 14825212,
			"byteLength" : 87,
			"target" : 34963
		}
	],
	"buffers" : [
		{
			"uri" : "T43500186000106E10.bin",
			"byteLength" : 14825299
		}
	]
}
