{
	"asset" : {
		"generator" : "FME 2023.2.1.0",
		"version" : "2.0"
	},
	"materials" : [
		{
			"name" : "default_material",
			"pbrMetallicRoughness" : {
				"baseColorFactor" : [ 1, 1, 1, 1 ],
				"roughnessFactor" : 0.30000000000000004,
				"metallicFactor" : 0.5
			}
		}
	],
	"meshes" : [
		{
			"primitives" : [
				{
					"attributes" : {
						"NORMAL" : 1,
						"POSITION" : 0,
						"COLOR_0" : 2
					},
					"indices" : 3,
					"material" : 0,
					"mode" : 4
				}
			]
		}
	],
	"nodes" : [
		{
			"name" : "B358341572401063C0",
			"matrix" : [ 1, 0, 0, 0, 0, 0, -1, 0, 0, 1, 0, 0, 835834, 4.193000793457031, -815722.125, 1 ],
			"children" : [ 1 ]
		},
		{
			"mesh" : 0
		}
	],
	"scenes" : [
		{
			"nodes" : [ 0 ]
		}
	],
	"scene" : 0,
	"accessors" : [
		{
			"bufferView" : 0,
			"byteOffset" : 0,
			"componentType" : 5126,
			"count" : 252,
			"type" : "VEC3",
			"min" : [ -3.728515625, -8.9423828125, 0 ],
			"max" : [ 3.7294921875, 8.94140625, 10.276000022888184 ]
		},
		{
			"bufferView" : 1,
			"byteOffset" : 0,
			"componentType" : 5126,
			"count" : 252,
			"type" : "VEC3",
			"min" : [ -0.9970197677612305, -0.9983713626861572, -1 ],
			"max" : [ 0.9970337152481079, 0.9970618486404419, 1 ]
		},
		{
			"bufferView" : 2,
			"byteOffset" : 0,
			"componentType" : 5126,
			"count" : 252,
			"type" : "VEC3"
		},
		{
			"bufferView" : 3,
			"byteOffset" : 0,
			"componentType" : 5121,
			"count" : 252,
			"type" : "SCALAR",
			"min" : [ 0 ],
			"max" : [ 251 ]
		}
	],
	"bufferViews" : [
		{
			"buffer" : 0,
			"byteOffset" : 0,
			"byteLength" : 3024,
			"target" : 34962
		},
		{
			"buffer" : 0,
			"byteOffset" : 3024,
			"byteLength" : 3024,
			"target" : 34962
		},
		{
			"buffer" : 0,
			"byteOffset" : 6048,
			"byteLength" : 3024,
			"target" : 34962
		},
		{
			"buffer" : 0,
			"byteOffset" : 9072,
			"byteLength" : 252,
			"target" : 34963
		}
	],
	"buffers" : [
		{
			"uri" : "B358341572401063C0.bin",
			"byteLength" : 9324
		}
	]
}
