{
	"asset" : {
		"generator" : "FME 2023.1.0.0",
		"version" : "2.0"
	},
	"materials" : [
		{
			"name" : "default_material",
			"pbrMetallicRoughness" : {
				"baseColorFactor" : [ 1, 1, 1, 1 ],
				"roughnessFactor" : 0.30000000000000004,
				"metallicFactor" : 0.5
			}
		}
	],
	"meshes" : [
		{
			"primitives" : [
				{
					"attributes" : {
						"NORMAL" : 1,
						"POSITION" : 0,
						"COLOR_0" : 2
					},
					"indices" : 3,
					"material" : 0,
					"mode" : 4
				}
			]
		}
	],
	"nodes" : [
		{
			"name" : "B338341613202063C0",
			"matrix" : [ 1, 0, 0, 0, 0, 0, -1, 0, 0, 1, 0, 0, 833827.6875, 19.54199981689453, -816130.6875, 1 ],
			"children" : [ 1 ]
		},
		{
			"mesh" : 0
		}
	],
	"scenes" : [
		{
			"nodes" : [ 0 ]
		}
	],
	"scene" : 0,
	"accessors" : [
		{
			"bufferView" : 0,
			"byteOffset" : 0,
			"componentType" : 5126,
			"count" : 456,
			"type" : "VEC3",
			"min" : [ -10.083984375, -9.3525390625, 0 ],
			"max" : [ 10.0849609375, 9.3525390625, 10.210000991821289 ]
		},
		{
			"bufferView" : 1,
			"byteOffset" : 0,
			"componentType" : 5126,
			"count" : 456,
			"type" : "VEC3",
			"min" : [ -0.7302713990211487, -0.997785210609436, -1 ],
			"max" : [ 0.999957263469696, 0.7488634586334229, 1 ]
		},
		{
			"bufferView" : 2,
			"byteOffset" : 0,
			"componentType" : 5126,
			"count" : 456,
			"type" : "VEC3"
		},
		{
			"bufferView" : 3,
			"byteOffset" : 0,
			"componentType" : 5123,
			"count" : 456,
			"type" : "SCALAR",
			"min" : [ 0 ],
			"max" : [ 455 ]
		}
	],
	"bufferViews" : [
		{
			"buffer" : 0,
			"byteOffset" : 0,
			"byteLength" : 5472,
			"target" : 34962
		},
		{
			"buffer" : 0,
			"byteOffset" : 5472,
			"byteLength" : 5472,
			"target" : 34962
		},
		{
			"buffer" : 0,
			"byteOffset" : 10944,
			"byteLength" : 5472,
			"target" : 34962
		},
		{
			"buffer" : 0,
			"byteOffset" : 16416,
			"byteLength" : 912,
			"target" : 34963
		}
	],
	"buffers" : [
		{
			"uri" : "B338341613202063C0.bin",
			"byteLength" : 17328
		}
	]
}
