{
	"asset" : {
		"generator" : "FME 2023.1.0.0",
		"version" : "2.0"
	},
	"materials" : [
		{
			"name" : "default_material",
			"pbrMetallicRoughness" : {
				"baseColorFactor" : [ 1, 1, 1, 1 ],
				"roughnessFactor" : 0.30000000000000004,
				"metallicFactor" : 0.5
			}
		}
	],
	"meshes" : [
		{
			"primitives" : [
				{
					"attributes" : {
						"NORMAL" : 1,
						"POSITION" : 0,
						"COLOR_0" : 2
					},
					"indices" : 3,
					"material" : 0,
					"mode" : 4
				}
			]
		}
	],
	"nodes" : [
		{
			"name" : "B336681630601063C0",
			"matrix" : [ 1, 0, 0, 0, 0, 0, -1, 0, 0, 1, 0, 0, 833666.3125, 2.752000093460083, -816306.25, 1 ],
			"children" : [ 1 ]
		},
		{
			"mesh" : 0
		}
	],
	"scenes" : [
		{
			"nodes" : [ 0 ]
		}
	],
	"scene" : 0,
	"accessors" : [
		{
			"bufferView" : 0,
			"byteOffset" : 0,
			"componentType" : 5126,
			"count" : 312,
			"type" : "VEC3",
			"min" : [ -5.0322265625, -4.3740234375, 0 ],
			"max" : [ 5.0322265625, 4.375, 13.483000755310059 ]
		},
		{
			"bufferView" : 1,
			"byteOffset" : 0,
			"componentType" : 5126,
			"count" : 312,
			"type" : "VEC3",
			"min" : [ -0.8373675346374512, -0.8463548421859741, -1 ],
			"max" : [ 0.8395702242851257, 0.8385834693908691, 1 ]
		},
		{
			"bufferView" : 2,
			"byteOffset" : 0,
			"componentType" : 5126,
			"count" : 312,
			"type" : "VEC3"
		},
		{
			"bufferView" : 3,
			"byteOffset" : 0,
			"componentType" : 5123,
			"count" : 312,
			"type" : "SCALAR",
			"min" : [ 0 ],
			"max" : [ 311 ]
		}
	],
	"bufferViews" : [
		{
			"buffer" : 0,
			"byteOffset" : 0,
			"byteLength" : 3744,
			"target" : 34962
		},
		{
			"buffer" : 0,
			"byteOffset" : 3744,
			"byteLength" : 3744,
			"target" : 34962
		},
		{
			"buffer" : 0,
			"byteOffset" : 7488,
			"byteLength" : 3744,
			"target" : 34962
		},
		{
			"buffer" : 0,
			"byteOffset" : 11232,
			"byteLength" : 624,
			"target" : 34963
		}
	],
	"buffers" : [
		{
			"uri" : "B336681630601063C0.bin",
			"byteLength" : 11856
		}
	]
}
