{
	"asset" : {
		"generator" : "FME 2023.2.1.0",
		"version" : "2.0"
	},
	"materials" : [
		{
			"name" : "default_material",
			"pbrMetallicRoughness" : {
				"baseColorFactor" : [ 1, 1, 1, 1 ],
				"roughnessFactor" : 0.30000000000000004,
				"metallicFactor" : 0.5
			}
		}
	],
	"meshes" : [
		{
			"primitives" : [
				{
					"attributes" : {
						"NORMAL" : 1,
						"POSITION" : 0,
						"COLOR_0" : 2
					},
					"indices" : 3,
					"material" : 0,
					"mode" : 4
				}
			]
		}
	],
	"nodes" : [
		{
			"name" : "B334981631201063C0",
			"matrix" : [ 1, 0, 0, 0, 0, 0, -1, 0, 0, 1, 0, 0, 833498.125, 6.379000186920166, -816315, 1 ],
			"children" : [ 1 ]
		},
		{
			"mesh" : 0
		}
	],
	"scenes" : [
		{
			"nodes" : [ 0 ]
		}
	],
	"scene" : 0,
	"accessors" : [
		{
			"bufferView" : 0,
			"byteOffset" : 0,
			"componentType" : 5126,
			"count" : 909,
			"type" : "VEC3",
			"min" : [ -6.9541015625, -8.896484375, 0 ],
			"max" : [ 6.9541015625, 8.8974609375, 74.01866149902344 ]
		},
		{
			"bufferView" : 1,
			"byteOffset" : 0,
			"componentType" : 5126,
			"count" : 909,
			"type" : "VEC3",
			"min" : [ -0.999843418598175, -0.8186111450195312, -1 ],
			"max" : [ 0.9993537068367004, 0.818611204624176, 1 ]
		},
		{
			"bufferView" : 2,
			"byteOffset" : 0,
			"componentType" : 5126,
			"count" : 909,
			"type" : "VEC3"
		},
		{
			"bufferView" : 3,
			"byteOffset" : 0,
			"componentType" : 5123,
			"count" : 909,
			"type" : "SCALAR",
			"min" : [ 0 ],
			"max" : [ 908 ]
		}
	],
	"bufferViews" : [
		{
			"buffer" : 0,
			"byteOffset" : 0,
			"byteLength" : 10908,
			"target" : 34962
		},
		{
			"buffer" : 0,
			"byteOffset" : 10908,
			"byteLength" : 10908,
			"target" : 34962
		},
		{
			"buffer" : 0,
			"byteOffset" : 21816,
			"byteLength" : 10908,
			"target" : 34962
		},
		{
			"buffer" : 0,
			"byteOffset" : 32724,
			"byteLength" : 1818,
			"target" : 34963
		}
	],
	"buffers" : [
		{
			"uri" : "B334981631201063C0.bin",
			"byteLength" : 34542
		}
	]
}
