{
	"asset" : {
		"generator" : "FME 2022.2.4.0",
		"version" : "2.0"
	},
	"materials" : [
		{
			"name" : "default_material",
			"pbrMetallicRoughness" : {
				"baseColorFactor" : [ 1, 1, 1, 1 ],
				"roughnessFactor" : 0.30000000000000004,
				"metallicFactor" : 0.5
			}
		}
	],
	"meshes" : [
		{
			"primitives" : [
				{
					"attributes" : {
						"NORMAL" : 1,
						"POSITION" : 0,
						"COLOR_0" : 2
					},
					"indices" : 3,
					"material" : 0,
					"mode" : 4
				}
			]
		}
	],
	"nodes" : [
		{
			"name" : "B169761480501062G0",
			"matrix" : [ 1, 0, 0, 0, 0, 0, -1, 0, 0, 1, 0, 0, 816976, 27.338699340820312, -814804.375, 1 ],
			"children" : [ 1 ]
		},
		{
			"mesh" : 0
		}
	],
	"scenes" : [
		{
			"nodes" : [ 0 ]
		}
	],
	"scene" : 0,
	"accessors" : [
		{
			"bufferView" : 0,
			"byteOffset" : 0,
			"componentType" : 5126,
			"count" : 522,
			"type" : "VEC3",
			"min" : [ -6.625, -6.0625, 0 ],
			"max" : [ 6.5625, 6.125, 10.707000732421875 ]
		},
		{
			"bufferView" : 1,
			"byteOffset" : 0,
			"componentType" : 5126,
			"count" : 522,
			"type" : "VEC3",
			"min" : [ -0.7592777013778687, -0.7627654075622559, -1 ],
			"max" : [ 0.7582188844680786, 0.7588953375816345, 1 ]
		},
		{
			"bufferView" : 2,
			"byteOffset" : 0,
			"componentType" : 5126,
			"count" : 522,
			"type" : "VEC3"
		},
		{
			"bufferView" : 3,
			"byteOffset" : 0,
			"componentType" : 5123,
			"count" : 522,
			"type" : "SCALAR",
			"min" : [ 0 ],
			"max" : [ 521 ]
		}
	],
	"bufferViews" : [
		{
			"buffer" : 0,
			"byteOffset" : 0,
			"byteLength" : 6264,
			"target" : 34962
		},
		{
			"buffer" : 0,
			"byteOffset" : 6264,
			"byteLength" : 6264,
			"target" : 34962
		},
		{
			"buffer" : 0,
			"byteOffset" : 12528,
			"byteLength" : 6264,
			"target" : 34962
		},
		{
			"buffer" : 0,
			"byteOffset" : 18792,
			"byteLength" : 1044,
			"target" : 34963
		}
	],
	"buffers" : [
		{
			"uri" : "B169761480501062G0.bin",
			"byteLength" : 19836
		}
	]
}
