{
	"asset" : {
		"generator" : "FME 2023.2.1.0",
		"version" : "2.0"
	},
	"materials" : [
		{
			"name" : "default_material",
			"pbrMetallicRoughness" : {
				"baseColorFactor" : [ 1, 1, 1, 1 ],
				"roughnessFactor" : 0.30000000000000004,
				"metallicFactor" : 0.5
			}
		}
	],
	"meshes" : [
		{
			"primitives" : [
				{
					"attributes" : {
						"NORMAL" : 1,
						"POSITION" : 0,
						"COLOR_0" : 2
					},
					"indices" : 3,
					"material" : 0,
					"mode" : 4
				}
			]
		}
	],
	"nodes" : [
		{
			"name" : "B333071628401063C0",
			"matrix" : [ 1, 0, 0, 0, 0, 0, -1, 0, 0, 1, 0, 0, 833312.875, 27.700000762939453, -816293.25, 1 ],
			"children" : [ 1 ]
		},
		{
			"mesh" : 0
		}
	],
	"scenes" : [
		{
			"nodes" : [ 0 ]
		}
	],
	"scene" : 0,
	"accessors" : [
		{
			"bufferView" : 0,
			"byteOffset" : 0,
			"componentType" : 5126,
			"count" : 1023,
			"type" : "VEC3",
			"min" : [ -14.8017578125, -13.2958984375, 0 ],
			"max" : [ 14.7744140625, 13.3134765625, 61.775997161865234 ]
		},
		{
			"bufferView" : 1,
			"byteOffset" : 0,
			"componentType" : 5126,
			"count" : 1023,
			"type" : "VEC3",
			"min" : [ -0.7696802616119385, -0.9994430541992188, -1 ],
			"max" : [ 0.9999631643295288, 0.9984167814254761, 1 ]
		},
		{
			"bufferView" : 2,
			"byteOffset" : 0,
			"componentType" : 5126,
			"count" : 1023,
			"type" : "VEC3"
		},
		{
			"bufferView" : 3,
			"byteOffset" : 0,
			"componentType" : 5123,
			"count" : 1023,
			"type" : "SCALAR",
			"min" : [ 0 ],
			"max" : [ 1022 ]
		}
	],
	"bufferViews" : [
		{
			"buffer" : 0,
			"byteOffset" : 0,
			"byteLength" : 12276,
			"target" : 34962
		},
		{
			"buffer" : 0,
			"byteOffset" : 12276,
			"byteLength" : 12276,
			"target" : 34962
		},
		{
			"buffer" : 0,
			"byteOffset" : 24552,
			"byteLength" : 12276,
			"target" : 34962
		},
		{
			"buffer" : 0,
			"byteOffset" : 36828,
			"byteLength" : 2046,
			"target" : 34963
		}
	],
	"buffers" : [
		{
			"uri" : "B333071628401063C0.bin",
			"byteLength" : 38874
		}
	]
}
