{
	"asset" : {
		"generator" : "FME 2023.2.1.0",
		"version" : "2.0"
	},
	"materials" : [
		{
			"name" : "default_material",
			"pbrMetallicRoughness" : {
				"baseColorFactor" : [ 1, 1, 1, 1 ],
				"roughnessFactor" : 0.30000000000000004,
				"metallicFactor" : 0.5
			}
		}
	],
	"meshes" : [
		{
			"primitives" : [
				{
					"attributes" : {
						"NORMAL" : 1,
						"POSITION" : 0,
						"COLOR_0" : 2
					},
					"indices" : 3,
					"material" : 0,
					"mode" : 4
				}
			]
		}
	],
	"nodes" : [
		{
			"name" : "B338371582101063C0",
			"matrix" : [ 1, 0, 0, 0, 0, 0, -1, 0, 0, 1, 0, 0, 833832.5625, 46.80200958251953, -815820.1875, 1 ],
			"children" : [ 1 ]
		},
		{
			"mesh" : 0
		}
	],
	"scenes" : [
		{
			"nodes" : [ 0 ]
		}
	],
	"scene" : 0,
	"accessors" : [
		{
			"bufferView" : 0,
			"byteOffset" : 0,
			"componentType" : 5126,
			"count" : 3132,
			"type" : "VEC3",
			"min" : [ -21.103515625, -30.435546875, 0 ],
			"max" : [ 21.1044921875, 30.4345703125, 81.46260833740234 ]
		},
		{
			"bufferView" : 1,
			"byteOffset" : 0,
			"componentType" : 5126,
			"count" : 3132,
			"type" : "VEC3",
			"min" : [ -0.8965789675712585, -0.8864450454711914, -1 ],
			"max" : [ 0.890113890171051, 0.8865032196044922, 1 ]
		},
		{
			"bufferView" : 2,
			"byteOffset" : 0,
			"componentType" : 5126,
			"count" : 3132,
			"type" : "VEC3"
		},
		{
			"bufferView" : 3,
			"byteOffset" : 0,
			"componentType" : 5123,
			"count" : 3132,
			"type" : "SCALAR",
			"min" : [ 0 ],
			"max" : [ 3131 ]
		}
	],
	"bufferViews" : [
		{
			"buffer" : 0,
			"byteOffset" : 0,
			"byteLength" : 37584,
			"target" : 34962
		},
		{
			"buffer" : 0,
			"byteOffset" : 37584,
			"byteLength" : 37584,
			"target" : 34962
		},
		{
			"buffer" : 0,
			"byteOffset" : 75168,
			"byteLength" : 37584,
			"target" : 34962
		},
		{
			"buffer" : 0,
			"byteOffset" : 112752,
			"byteLength" : 6264,
			"target" : 34963
		}
	],
	"buffers" : [
		{
			"uri" : "B338371582101063C0.bin",
			"byteLength" : 119016
		}
	]
}
