{
	"asset" : {
		"generator" : "FME 2022.2.4.0",
		"version" : "2.0"
	},
	"materials" : [
		{
			"name" : "default_material",
			"pbrMetallicRoughness" : {
				"baseColorFactor" : [ 1, 1, 1, 1 ],
				"roughnessFactor" : 0.30000000000000004,
				"metallicFactor" : 0.5
			}
		}
	],
	"meshes" : [
		{
			"primitives" : [
				{
					"attributes" : {
						"NORMAL" : 1,
						"POSITION" : 0,
						"COLOR_0" : 2
					},
					"indices" : 3,
					"material" : 0,
					"mode" : 4
				}
			]
		}
	],
	"nodes" : [
		{
			"name" : "B337561579001063C0",
			"matrix" : [ 1, 0, 0, 0, 0, 0, -1, 0, 0, 1, 0, 0, 833760.25, 64.5169906616211, -815792.875, 1 ],
			"children" : [ 1 ]
		},
		{
			"mesh" : 0
		}
	],
	"scenes" : [
		{
			"nodes" : [ 0 ]
		}
	],
	"scene" : 0,
	"accessors" : [
		{
			"bufferView" : 0,
			"byteOffset" : 0,
			"componentType" : 5126,
			"count" : 639,
			"type" : "VEC3",
			"min" : [ -6.9482421875, -7.8291015625, 0 ],
			"max" : [ 6.947265625, 7.8291015625, 25.450119018554688 ]
		},
		{
			"bufferView" : 1,
			"byteOffset" : 0,
			"componentType" : 5126,
			"count" : 639,
			"type" : "VEC3",
			"min" : [ -0.8632751703262329, -0.8734747171401978, -1 ],
			"max" : [ 0.8633341789245605, 0.8641546964645386, 1 ]
		},
		{
			"bufferView" : 2,
			"byteOffset" : 0,
			"componentType" : 5126,
			"count" : 639,
			"type" : "VEC3"
		},
		{
			"bufferView" : 3,
			"byteOffset" : 0,
			"componentType" : 5123,
			"count" : 639,
			"type" : "SCALAR",
			"min" : [ 0 ],
			"max" : [ 638 ]
		}
	],
	"bufferViews" : [
		{
			"buffer" : 0,
			"byteOffset" : 0,
			"byteLength" : 7668,
			"target" : 34962
		},
		{
			"buffer" : 0,
			"byteOffset" : 7668,
			"byteLength" : 7668,
			"target" : 34962
		},
		{
			"buffer" : 0,
			"byteOffset" : 15336,
			"byteLength" : 7668,
			"target" : 34962
		},
		{
			"buffer" : 0,
			"byteOffset" : 23004,
			"byteLength" : 1278,
			"target" : 34963
		}
	],
	"buffers" : [
		{
			"uri" : "B337561579001063C0.bin",
			"byteLength" : 24282
		}
	]
}
