{
	"asset" : {
		"generator" : "FME 2022.2.4.0",
		"version" : "2.0"
	},
	"materials" : [
		{
			"name" : "default_material",
			"pbrMetallicRoughness" : {
				"baseColorFactor" : [ 1, 1, 1, 1 ],
				"roughnessFactor" : 0.30000000000000004,
				"metallicFactor" : 0.5
			}
		}
	],
	"meshes" : [
		{
			"primitives" : [
				{
					"attributes" : {
						"NORMAL" : 1,
						"POSITION" : 0,
						"COLOR_0" : 2
					},
					"indices" : 3,
					"material" : 0,
					"mode" : 4
				}
			]
		}
	],
	"nodes" : [
		{
			"name" : "B344501639401063C0",
			"matrix" : [ 1, 0, 0, 0, 0, 0, -1, 0, 0, 1, 0, 0, 834449.375, 5.290000915527344, -816395.3125, 1 ],
			"children" : [ 1 ]
		},
		{
			"mesh" : 0
		}
	],
	"scenes" : [
		{
			"nodes" : [ 0 ]
		}
	],
	"scene" : 0,
	"accessors" : [
		{
			"bufferView" : 0,
			"byteOffset" : 0,
			"componentType" : 5126,
			"count" : 528,
			"type" : "VEC3",
			"min" : [ -12.453125, -10.0380859375, 0 ],
			"max" : [ 12.453125, 10.0380859375, 6.830000877380371 ]
		},
		{
			"bufferView" : 1,
			"byteOffset" : 0,
			"componentType" : 5126,
			"count" : 528,
			"type" : "VEC3",
			"min" : [ -0.9605090022087097, -0.956240713596344, -0.026332255452871323 ],
			"max" : [ 0.9634953737258911, 0.9553573131561279, 1 ]
		},
		{
			"bufferView" : 2,
			"byteOffset" : 0,
			"componentType" : 5126,
			"count" : 528,
			"type" : "VEC3"
		},
		{
			"bufferView" : 3,
			"byteOffset" : 0,
			"componentType" : 5123,
			"count" : 528,
			"type" : "SCALAR",
			"min" : [ 0 ],
			"max" : [ 527 ]
		}
	],
	"bufferViews" : [
		{
			"buffer" : 0,
			"byteOffset" : 0,
			"byteLength" : 6336,
			"target" : 34962
		},
		{
			"buffer" : 0,
			"byteOffset" : 6336,
			"byteLength" : 6336,
			"target" : 34962
		},
		{
			"buffer" : 0,
			"byteOffset" : 12672,
			"byteLength" : 6336,
			"target" : 34962
		},
		{
			"buffer" : 0,
			"byteOffset" : 19008,
			"byteLength" : 1056,
			"target" : 34963
		}
	],
	"buffers" : [
		{
			"uri" : "B344501639401063C0.bin",
			"byteLength" : 20064
		}
	]
}
