{
	"asset" : {
		"generator" : "FME 2023.1.0.0",
		"version" : "2.0"
	},
	"materials" : [
		{
			"name" : "default_material",
			"pbrMetallicRoughness" : {
				"baseColorFactor" : [ 1, 1, 1, 1 ],
				"roughnessFactor" : 0.30000000000000004,
				"metallicFactor" : 0.5
			}
		}
	],
	"meshes" : [
		{
			"primitives" : [
				{
					"attributes" : {
						"NORMAL" : 1,
						"POSITION" : 0,
						"COLOR_0" : 2
					},
					"indices" : 3,
					"material" : 0,
					"mode" : 4
				}
			]
		}
	],
	"nodes" : [
		{
			"name" : "B353471520202063C0",
			"matrix" : [ 1, 0, 0, 0, 0, 0, -1, 0, 0, 1, 0, 0, 835336.0625, 28.80299949645996, -815202.625, 1 ],
			"children" : [ 1 ]
		},
		{
			"mesh" : 0
		}
	],
	"scenes" : [
		{
			"nodes" : [ 0 ]
		}
	],
	"scene" : 0,
	"accessors" : [
		{
			"bufferView" : 0,
			"byteOffset" : 0,
			"componentType" : 5126,
			"count" : 1062,
			"type" : "VEC3",
			"min" : [ -16.6845703125, -32.619140625, 0 ],
			"max" : [ 16.685546875, 32.6181640625, 31.615999221801758 ]
		},
		{
			"bufferView" : 1,
			"byteOffset" : 0,
			"componentType" : 5126,
			"count" : 1062,
			"type" : "VEC3",
			"min" : [ -0.9901859760284424, -0.9456507563591003, -0.001592966029420495 ],
			"max" : [ 0.98777174949646, 0.9455761909484863, 1 ]
		},
		{
			"bufferView" : 2,
			"byteOffset" : 0,
			"componentType" : 5126,
			"count" : 1062,
			"type" : "VEC3"
		},
		{
			"bufferView" : 3,
			"byteOffset" : 0,
			"componentType" : 5123,
			"count" : 1062,
			"type" : "SCALAR",
			"min" : [ 0 ],
			"max" : [ 1061 ]
		}
	],
	"bufferViews" : [
		{
			"buffer" : 0,
			"byteOffset" : 0,
			"byteLength" : 12744,
			"target" : 34962
		},
		{
			"buffer" : 0,
			"byteOffset" : 12744,
			"byteLength" : 12744,
			"target" : 34962
		},
		{
			"buffer" : 0,
			"byteOffset" : 25488,
			"byteLength" : 12744,
			"target" : 34962
		},
		{
			"buffer" : 0,
			"byteOffset" : 38232,
			"byteLength" : 2124,
			"target" : 34963
		}
	],
	"buffers" : [
		{
			"uri" : "B353471520202063C0.bin",
			"byteLength" : 40356
		}
	]
}
