{
	"asset" : {
		"generator" : "FME 2022.2.4.0",
		"version" : "2.0"
	},
	"materials" : [
		{
			"name" : "default_material",
			"pbrMetallicRoughness" : {
				"baseColorFactor" : [ 1, 1, 1, 1 ],
				"roughnessFactor" : 0.30000000000000004,
				"metallicFactor" : 0.5
			}
		}
	],
	"meshes" : [
		{
			"primitives" : [
				{
					"attributes" : {
						"NORMAL" : 1,
						"POSITION" : 0,
						"COLOR_0" : 2
					},
					"indices" : 3,
					"material" : 0,
					"mode" : 4
				}
			]
		}
	],
	"nodes" : [
		{
			"name" : "B171321477401062G0",
			"matrix" : [ 1, 0, 0, 0, 0, 0, -1, 0, 0, 1, 0, 0, 817131.375, 18.99679946899414, -814772.75, 1 ],
			"children" : [ 1 ]
		},
		{
			"mesh" : 0
		}
	],
	"scenes" : [
		{
			"nodes" : [ 0 ]
		}
	],
	"scene" : 0,
	"accessors" : [
		{
			"bufferView" : 0,
			"byteOffset" : 0,
			"componentType" : 5126,
			"count" : 420,
			"type" : "VEC3",
			"min" : [ -5.4375, -6.1875, 0 ],
			"max" : [ 5.375, 6.1875, 6.461400985717773 ]
		},
		{
			"bufferView" : 1,
			"byteOffset" : 0,
			"componentType" : 5126,
			"count" : 420,
			"type" : "VEC3",
			"min" : [ -0.9768313765525818, -0.9770978093147278, -1 ],
			"max" : [ 0.9768113493919373, 0.9770954251289368, 1 ]
		},
		{
			"bufferView" : 2,
			"byteOffset" : 0,
			"componentType" : 5126,
			"count" : 420,
			"type" : "VEC3"
		},
		{
			"bufferView" : 3,
			"byteOffset" : 0,
			"componentType" : 5123,
			"count" : 420,
			"type" : "SCALAR",
			"min" : [ 0 ],
			"max" : [ 419 ]
		}
	],
	"bufferViews" : [
		{
			"buffer" : 0,
			"byteOffset" : 0,
			"byteLength" : 5040,
			"target" : 34962
		},
		{
			"buffer" : 0,
			"byteOffset" : 5040,
			"byteLength" : 5040,
			"target" : 34962
		},
		{
			"buffer" : 0,
			"byteOffset" : 10080,
			"byteLength" : 5040,
			"target" : 34962
		},
		{
			"buffer" : 0,
			"byteOffset" : 15120,
			"byteLength" : 840,
			"target" : 34963
		}
	],
	"buffers" : [
		{
			"uri" : "B171321477401062G0.bin",
			"byteLength" : 15960
		}
	]
}
