{
	"asset" : {
		"generator" : "FME 2023.1.0.0",
		"version" : "2.0"
	},
	"materials" : [
		{
			"name" : "default_material",
			"pbrMetallicRoughness" : {
				"baseColorFactor" : [ 1, 1, 1, 1 ],
				"roughnessFactor" : 0.30000000000000004,
				"metallicFactor" : 0.5
			}
		}
	],
	"meshes" : [
		{
			"primitives" : [
				{
					"attributes" : {
						"NORMAL" : 1,
						"POSITION" : 0,
						"COLOR_0" : 2
					},
					"indices" : 3,
					"material" : 0,
					"mode" : 4
				}
			]
		}
	],
	"nodes" : [
		{
			"name" : "B354561521002063C0",
			"matrix" : [ 1, 0, 0, 0, 0, 0, -1, 0, 0, 1, 0, 0, 835440.25, 16.493999481201172, -815209.5, 1 ],
			"children" : [ 1 ]
		},
		{
			"mesh" : 0
		}
	],
	"scenes" : [
		{
			"nodes" : [ 0 ]
		}
	],
	"scene" : 0,
	"accessors" : [
		{
			"bufferView" : 0,
			"byteOffset" : 0,
			"componentType" : 5126,
			"count" : 1089,
			"type" : "VEC3",
			"min" : [ -22.669921875, -13.8681640625, 0 ],
			"max" : [ 22.6708984375, 13.8681640625, 10.687999725341797 ]
		},
		{
			"bufferView" : 1,
			"byteOffset" : 0,
			"componentType" : 5126,
			"count" : 1089,
			"type" : "VEC3",
			"min" : [ -0.9641979336738586, -0.9619614481925964, -0.006561832502484322 ],
			"max" : [ 0.9617118239402771, 0.9639780521392822, 1 ]
		},
		{
			"bufferView" : 2,
			"byteOffset" : 0,
			"componentType" : 5126,
			"count" : 1089,
			"type" : "VEC3"
		},
		{
			"bufferView" : 3,
			"byteOffset" : 0,
			"componentType" : 5123,
			"count" : 1089,
			"type" : "SCALAR",
			"min" : [ 0 ],
			"max" : [ 1088 ]
		}
	],
	"bufferViews" : [
		{
			"buffer" : 0,
			"byteOffset" : 0,
			"byteLength" : 13068,
			"target" : 34962
		},
		{
			"buffer" : 0,
			"byteOffset" : 13068,
			"byteLength" : 13068,
			"target" : 34962
		},
		{
			"buffer" : 0,
			"byteOffset" : 26136,
			"byteLength" : 13068,
			"target" : 34962
		},
		{
			"buffer" : 0,
			"byteOffset" : 39204,
			"byteLength" : 2178,
			"target" : 34963
		}
	],
	"buffers" : [
		{
			"uri" : "B354561521002063C0.bin",
			"byteLength" : 41382
		}
	]
}
