{
	"asset" : {
		"generator" : "FME 2023.1.0.0",
		"version" : "2.0"
	},
	"materials" : [
		{
			"name" : "default_material",
			"pbrMetallicRoughness" : {
				"baseColorFactor" : [ 1, 1, 1, 1 ],
				"roughnessFactor" : 0.30000000000000004,
				"metallicFactor" : 0.5
			}
		}
	],
	"meshes" : [
		{
			"primitives" : [
				{
					"attributes" : {
						"NORMAL" : 1,
						"POSITION" : 0,
						"COLOR_0" : 2
					},
					"indices" : 3,
					"material" : 0,
					"mode" : 4
				}
			]
		}
	],
	"nodes" : [
		{
			"name" : "B342681514501063C0",
			"matrix" : [ 1, 0, 0, 0, 0, 0, -1, 0, 0, 1, 0, 0, 834268.25, 91.52999877929688, -815144.625, 1 ],
			"children" : [ 1 ]
		},
		{
			"mesh" : 0
		}
	],
	"scenes" : [
		{
			"nodes" : [ 0 ]
		}
	],
	"scene" : 0,
	"accessors" : [
		{
			"bufferView" : 0,
			"byteOffset" : 0,
			"componentType" : 5126,
			"count" : 39,
			"type" : "VEC3",
			"min" : [ -2.029296875, -2.7705078125, 0 ],
			"max" : [ 2.0302734375, 2.771484375, 15.030998229980469 ]
		},
		{
			"bufferView" : 1,
			"byteOffset" : 0,
			"componentType" : 5126,
			"count" : 39,
			"type" : "VEC3",
			"min" : [ -0.9390330910682678, -0.937576413154602, 0 ],
			"max" : [ 0.9407030344009399, 0.9382832050323486, 1 ]
		},
		{
			"bufferView" : 2,
			"byteOffset" : 0,
			"componentType" : 5126,
			"count" : 39,
			"type" : "VEC3"
		},
		{
			"bufferView" : 3,
			"byteOffset" : 0,
			"componentType" : 5121,
			"count" : 39,
			"type" : "SCALAR",
			"min" : [ 0 ],
			"max" : [ 38 ]
		}
	],
	"bufferViews" : [
		{
			"buffer" : 0,
			"byteOffset" : 0,
			"byteLength" : 468,
			"target" : 34962
		},
		{
			"buffer" : 0,
			"byteOffset" : 468,
			"byteLength" : 468,
			"target" : 34962
		},
		{
			"buffer" : 0,
			"byteOffset" : 936,
			"byteLength" : 468,
			"target" : 34962
		},
		{
			"buffer" : 0,
			"byteOffset" : 1404,
			"byteLength" : 39,
			"target" : 34963
		}
	],
	"buffers" : [
		{
			"uri" : "B342681514501063C0.bin",
			"byteLength" : 1443
		}
	]
}
