{
	"asset" : {
		"generator" : "FME 2022.2.4.0",
		"version" : "2.0"
	},
	"materials" : [
		{
			"name" : "default_material",
			"pbrMetallicRoughness" : {
				"baseColorFactor" : [ 1, 1, 1, 1 ],
				"roughnessFactor" : 0.30000000000000004,
				"metallicFactor" : 0.5
			}
		}
	],
	"meshes" : [
		{
			"primitives" : [
				{
					"attributes" : {
						"NORMAL" : 1,
						"POSITION" : 0,
						"COLOR_0" : 2
					},
					"indices" : 3,
					"material" : 0,
					"mode" : 4
				}
			]
		}
	],
	"nodes" : [
		{
			"name" : "B356061722201063C0",
			"matrix" : [ 1, 0, 0, 0, 0, 0, -1, 0, 0, 1, 0, 0, 835581.375, 3.973592758178711, -817198.875, 1 ],
			"children" : [ 1 ]
		},
		{
			"mesh" : 0
		}
	],
	"scenes" : [
		{
			"nodes" : [ 0 ]
		}
	],
	"scene" : 0,
	"accessors" : [
		{
			"bufferView" : 0,
			"byteOffset" : 0,
			"componentType" : 5126,
			"count" : 27924,
			"type" : "VEC3",
			"min" : [ -72.185546875, -61.7265625, 0 ],
			"max" : [ 72.1572265625, 61.75390625, 56.331207275390625 ]
		},
		{
			"bufferView" : 1,
			"byteOffset" : 0,
			"componentType" : 5126,
			"count" : 27924,
			"type" : "VEC3",
			"min" : [ -1, -0.9982537627220154, -1 ],
			"max" : [ 1, 0.9982843995094299, 1 ]
		},
		{
			"bufferView" : 2,
			"byteOffset" : 0,
			"componentType" : 5126,
			"count" : 27924,
			"type" : "VEC3"
		},
		{
			"bufferView" : 3,
			"byteOffset" : 0,
			"componentType" : 5123,
			"count" : 27924,
			"type" : "SCALAR",
			"min" : [ 0 ],
			"max" : [ 27923 ]
		}
	],
	"bufferViews" : [
		{
			"buffer" : 0,
			"byteOffset" : 0,
			"byteLength" : 335088,
			"target" : 34962
		},
		{
			"buffer" : 0,
			"byteOffset" : 335088,
			"byteLength" : 335088,
			"target" : 34962
		},
		{
			"buffer" : 0,
			"byteOffset" : 670176,
			"byteLength" : 335088,
			"target" : 34962
		},
		{
			"buffer" : 0,
			"byteOffset" : 1005264,
			"byteLength" : 55848,
			"target" : 34963
		}
	],
	"buffers" : [
		{
			"uri" : "B356061722201063C0.bin",
			"byteLength" : 1061112
		}
	]
}
