{
	"asset" : {
		"generator" : "FME 2023.1.0.0",
		"version" : "2.0"
	},
	"materials" : [
		{
			"name" : "default_material",
			"pbrMetallicRoughness" : {
				"baseColorFactor" : [ 1, 1, 1, 1 ],
				"roughnessFactor" : 0.30000000000000004,
				"metallicFactor" : 0.5
			}
		}
	],
	"meshes" : [
		{
			"primitives" : [
				{
					"attributes" : {
						"NORMAL" : 1,
						"POSITION" : 0,
						"COLOR_0" : 2
					},
					"indices" : 3,
					"material" : 0,
					"mode" : 4
				}
			]
		}
	],
	"nodes" : [
		{
			"name" : "B337071642601063C0",
			"matrix" : [ 1, 0, 0, 0, 0, 0, -1, 0, 0, 1, 0, 0, 833709.5625, 17.119003295898438, -816433.9375, 1 ],
			"children" : [ 1 ]
		},
		{
			"mesh" : 0
		}
	],
	"scenes" : [
		{
			"nodes" : [ 0 ]
		}
	],
	"scene" : 0,
	"accessors" : [
		{
			"bufferView" : 0,
			"byteOffset" : 0,
			"componentType" : 5126,
			"count" : 567,
			"type" : "VEC3",
			"min" : [ -6.3203125, -8.970703125, 0 ],
			"max" : [ 6.3193359375, 8.9697265625, 64.72300720214844 ]
		},
		{
			"bufferView" : 1,
			"byteOffset" : 0,
			"componentType" : 5126,
			"count" : 567,
			"type" : "VEC3",
			"min" : [ -0.9652372002601624, -0.9671432375907898, -1 ],
			"max" : [ 0.9653351902961731, 0.9652683138847351, 1 ]
		},
		{
			"bufferView" : 2,
			"byteOffset" : 0,
			"componentType" : 5126,
			"count" : 567,
			"type" : "VEC3"
		},
		{
			"bufferView" : 3,
			"byteOffset" : 0,
			"componentType" : 5123,
			"count" : 567,
			"type" : "SCALAR",
			"min" : [ 0 ],
			"max" : [ 566 ]
		}
	],
	"bufferViews" : [
		{
			"buffer" : 0,
			"byteOffset" : 0,
			"byteLength" : 6804,
			"target" : 34962
		},
		{
			"buffer" : 0,
			"byteOffset" : 6804,
			"byteLength" : 6804,
			"target" : 34962
		},
		{
			"buffer" : 0,
			"byteOffset" : 13608,
			"byteLength" : 6804,
			"target" : 34962
		},
		{
			"buffer" : 0,
			"byteOffset" : 20412,
			"byteLength" : 1134,
			"target" : 34963
		}
	],
	"buffers" : [
		{
			"uri" : "B337071642601063C0.bin",
			"byteLength" : 21546
		}
	]
}
