{
	"asset" : {
		"generator" : "FME 2023.2.2.0",
		"version" : "2.0"
	},
	"materials" : [
		{
			"name" : "default_material",
			"pbrMetallicRoughness" : {
				"baseColorFactor" : [ 1, 1, 1, 1 ],
				"roughnessFactor" : 0.30000000000000004,
				"metallicFactor" : 0.5
			}
		}
	],
	"meshes" : [
		{
			"primitives" : [
				{
					"attributes" : {
						"NORMAL" : 1,
						"POSITION" : 0,
						"COLOR_0" : 2
					},
					"indices" : 3,
					"material" : 0,
					"mode" : 4
				}
			]
		}
	],
	"nodes" : [
		{
			"name" : "B180511351001062G0",
			"matrix" : [ 1, 0, 0, 0, 0, 0, -1, 0, 0, 1, 0, 0, 818052.875, 85.4655990600586, -813510.375, 1 ],
			"children" : [ 1 ]
		},
		{
			"mesh" : 0
		}
	],
	"scenes" : [
		{
			"nodes" : [ 0 ]
		}
	],
	"scene" : 0,
	"accessors" : [
		{
			"bufferView" : 0,
			"byteOffset" : 0,
			"componentType" : 5126,
			"count" : 126,
			"type" : "VEC3",
			"min" : [ -5.625, -3.375, 0 ],
			"max" : [ 5.5625, 3.375, 5.206199645996094 ]
		},
		{
			"bufferView" : 1,
			"byteOffset" : 0,
			"componentType" : 5126,
			"count" : 126,
			"type" : "VEC3",
			"min" : [ -0.9971157908439636, -0.9970380067825317, -0.9992145299911499 ],
			"max" : [ 0.9970391988754272, 0.9970381855964661, 1 ]
		},
		{
			"bufferView" : 2,
			"byteOffset" : 0,
			"componentType" : 5126,
			"count" : 126,
			"type" : "VEC3"
		},
		{
			"bufferView" : 3,
			"byteOffset" : 0,
			"componentType" : 5121,
			"count" : 126,
			"type" : "SCALAR",
			"min" : [ 0 ],
			"max" : [ 125 ]
		}
	],
	"bufferViews" : [
		{
			"buffer" : 0,
			"byteOffset" : 0,
			"byteLength" : 1512,
			"target" : 34962
		},
		{
			"buffer" : 0,
			"byteOffset" : 1512,
			"byteLength" : 1512,
			"target" : 34962
		},
		{
			"buffer" : 0,
			"byteOffset" : 3024,
			"byteLength" : 1512,
			"target" : 34962
		},
		{
			"buffer" : 0,
			"byteOffset" : 4536,
			"byteLength" : 126,
			"target" : 34963
		}
	],
	"buffers" : [
		{
			"uri" : "B180511351001062G0.bin",
			"byteLength" : 4662
		}
	]
}
