{
	"asset" : {
		"generator" : "FME 2023.2.2.0",
		"version" : "2.0"
	},
	"materials" : [
		{
			"name" : "default_material",
			"pbrMetallicRoughness" : {
				"baseColorFactor" : [ 1, 1, 1, 1 ],
				"roughnessFactor" : 0.30000000000000004,
				"metallicFactor" : 0.5
			}
		}
	],
	"meshes" : [
		{
			"primitives" : [
				{
					"attributes" : {
						"NORMAL" : 1,
						"POSITION" : 0,
						"COLOR_0" : 2
					},
					"indices" : 3,
					"material" : 0,
					"mode" : 4
				}
			]
		}
	],
	"nodes" : [
		{
			"name" : "B170931444001062G0",
			"matrix" : [ 1, 0, 0, 0, 0, 0, -1, 0, 0, 1, 0, 0, 817093.6875, 12.202899932861328, -814439.4375, 1 ],
			"children" : [ 1 ]
		},
		{
			"mesh" : 0
		}
	],
	"scenes" : [
		{
			"nodes" : [ 0 ]
		}
	],
	"scene" : 0,
	"accessors" : [
		{
			"bufferView" : 0,
			"byteOffset" : 0,
			"componentType" : 5126,
			"count" : 387,
			"type" : "VEC3",
			"min" : [ -6, -6, 0 ],
			"max" : [ 6, 6, 7.5802001953125 ]
		},
		{
			"bufferView" : 1,
			"byteOffset" : 0,
			"componentType" : 5126,
			"count" : 387,
			"type" : "VEC3",
			"min" : [ -0.7593661546707153, -0.7688062787055969, -1 ],
			"max" : [ 1, 0.7594131827354431, 1 ]
		},
		{
			"bufferView" : 2,
			"byteOffset" : 0,
			"componentType" : 5126,
			"count" : 387,
			"type" : "VEC3"
		},
		{
			"bufferView" : 3,
			"byteOffset" : 0,
			"componentType" : 5123,
			"count" : 387,
			"type" : "SCALAR",
			"min" : [ 0 ],
			"max" : [ 386 ]
		}
	],
	"bufferViews" : [
		{
			"buffer" : 0,
			"byteOffset" : 0,
			"byteLength" : 4644,
			"target" : 34962
		},
		{
			"buffer" : 0,
			"byteOffset" : 4644,
			"byteLength" : 4644,
			"target" : 34962
		},
		{
			"buffer" : 0,
			"byteOffset" : 9288,
			"byteLength" : 4644,
			"target" : 34962
		},
		{
			"buffer" : 0,
			"byteOffset" : 13932,
			"byteLength" : 774,
			"target" : 34963
		}
	],
	"buffers" : [
		{
			"uri" : "B170931444001062G0.bin",
			"byteLength" : 14706
		}
	]
}
