{
	"asset" : {
		"generator" : "FME 2022.2.4.0",
		"version" : "2.0"
	},
	"materials" : [
		{
			"name" : "default_material",
			"pbrMetallicRoughness" : {
				"baseColorFactor" : [ 1, 1, 1, 1 ],
				"roughnessFactor" : 0.30000000000000004,
				"metallicFactor" : 0.5
			}
		}
	],
	"meshes" : [
		{
			"primitives" : [
				{
					"attributes" : {
						"NORMAL" : 1,
						"POSITION" : 0,
						"COLOR_0" : 2
					},
					"indices" : 3,
					"material" : 0,
					"mode" : 4
				}
			]
		}
	],
	"nodes" : [
		{
			"name" : "B348861552501063C0",
			"matrix" : [ 1, 0, 0, 0, 0, 0, -1, 0, 0, 1, 0, 0, 834877.0625, 6.504000186920166, -815503.375, 1 ],
			"children" : [ 1 ]
		},
		{
			"mesh" : 0
		}
	],
	"scenes" : [
		{
			"nodes" : [ 0 ]
		}
	],
	"scene" : 0,
	"accessors" : [
		{
			"bufferView" : 0,
			"byteOffset" : 0,
			"componentType" : 5126,
			"count" : 47439,
			"type" : "VEC3",
			"min" : [ -41.2880859375, -44.443359375, 0 ],
			"max" : [ 41.2890625, 44.443359375, 107.19400024414062 ]
		},
		{
			"bufferView" : 1,
			"byteOffset" : 0,
			"componentType" : 5126,
			"count" : 47439,
			"type" : "VEC3",
			"min" : [ -1, -1, -1 ],
			"max" : [ 0.9998011589050293, 1, 1 ]
		},
		{
			"bufferView" : 2,
			"byteOffset" : 0,
			"componentType" : 5126,
			"count" : 47439,
			"type" : "VEC3"
		},
		{
			"bufferView" : 3,
			"byteOffset" : 0,
			"componentType" : 5123,
			"count" : 47439,
			"type" : "SCALAR",
			"min" : [ 0 ],
			"max" : [ 47438 ]
		}
	],
	"bufferViews" : [
		{
			"buffer" : 0,
			"byteOffset" : 0,
			"byteLength" : 569268,
			"target" : 34962
		},
		{
			"buffer" : 0,
			"byteOffset" : 569268,
			"byteLength" : 569268,
			"target" : 34962
		},
		{
			"buffer" : 0,
			"byteOffset" : 1138536,
			"byteLength" : 569268,
			"target" : 34962
		},
		{
			"buffer" : 0,
			"byteOffset" : 1707804,
			"byteLength" : 94878,
			"target" : 34963
		}
	],
	"buffers" : [
		{
			"uri" : "B348861552501063C0.bin",
			"byteLength" : 1802682
		}
	]
}
