{
	"asset" : {
		"generator" : "FME 2022.2.4.0",
		"version" : "2.0"
	},
	"materials" : [
		{
			"name" : "default_material",
			"pbrMetallicRoughness" : {
				"baseColorFactor" : [ 1, 1, 1, 1 ],
				"roughnessFactor" : 0.30000000000000004,
				"metallicFactor" : 0.5
			}
		}
	],
	"meshes" : [
		{
			"primitives" : [
				{
					"attributes" : {
						"NORMAL" : 1,
						"POSITION" : 0,
						"COLOR_0" : 2
					},
					"indices" : 3,
					"material" : 0,
					"mode" : 4
				}
			]
		}
	],
	"nodes" : [
		{
			"name" : "B342531567201063C0",
			"matrix" : [ 1, 0, 0, 0, 0, 0, -1, 0, 0, 1, 0, 0, 834255.75, 19.92799949645996, -815672.625, 1 ],
			"children" : [ 1 ]
		},
		{
			"mesh" : 0
		}
	],
	"scenes" : [
		{
			"nodes" : [ 0 ]
		}
	],
	"scene" : 0,
	"accessors" : [
		{
			"bufferView" : 0,
			"byteOffset" : 0,
			"componentType" : 5126,
			"count" : 4185,
			"type" : "VEC3",
			"min" : [ -12.06640625, -11.673828125, 0 ],
			"max" : [ 12.0693359375, 11.6259765625, 110.49300384521484 ]
		},
		{
			"bufferView" : 1,
			"byteOffset" : 0,
			"componentType" : 5126,
			"count" : 4185,
			"type" : "VEC3",
			"min" : [ -0.9996928572654724, -0.9999286532402039, -1 ],
			"max" : [ 0.999890148639679, 0.9997499585151672, 1 ]
		},
		{
			"bufferView" : 2,
			"byteOffset" : 0,
			"componentType" : 5126,
			"count" : 4185,
			"type" : "VEC3"
		},
		{
			"bufferView" : 3,
			"byteOffset" : 0,
			"componentType" : 5123,
			"count" : 4185,
			"type" : "SCALAR",
			"min" : [ 0 ],
			"max" : [ 4184 ]
		}
	],
	"bufferViews" : [
		{
			"buffer" : 0,
			"byteOffset" : 0,
			"byteLength" : 50220,
			"target" : 34962
		},
		{
			"buffer" : 0,
			"byteOffset" : 50220,
			"byteLength" : 50220,
			"target" : 34962
		},
		{
			"buffer" : 0,
			"byteOffset" : 100440,
			"byteLength" : 50220,
			"target" : 34962
		},
		{
			"buffer" : 0,
			"byteOffset" : 150660,
			"byteLength" : 8370,
			"target" : 34963
		}
	],
	"buffers" : [
		{
			"uri" : "B342531567201063C0.bin",
			"byteLength" : 159030
		}
	]
}
