{
	"asset" : {
		"generator" : "FME 2023.2.1.0",
		"version" : "2.0"
	},
	"materials" : [
		{
			"name" : "default_material",
			"pbrMetallicRoughness" : {
				"baseColorFactor" : [ 1, 1, 1, 1 ],
				"roughnessFactor" : 0.30000000000000004,
				"metallicFactor" : 0.5
			}
		}
	],
	"meshes" : [
		{
			"primitives" : [
				{
					"attributes" : {
						"NORMAL" : 1,
						"POSITION" : 0,
						"COLOR_0" : 2
					},
					"indices" : 3,
					"material" : 0,
					"mode" : 4
				}
			]
		}
	],
	"nodes" : [
		{
			"name" : "B339501561501063C0",
			"matrix" : [ 1, 0, 0, 0, 0, 0, -1, 0, 0, 1, 0, 0, 833955.4375, 58.16999816894531, -815619.875, 1 ],
			"children" : [ 1 ]
		},
		{
			"mesh" : 0
		}
	],
	"scenes" : [
		{
			"nodes" : [ 0 ]
		}
	],
	"scene" : 0,
	"accessors" : [
		{
			"bufferView" : 0,
			"byteOffset" : 0,
			"componentType" : 5126,
			"count" : 870,
			"type" : "VEC3",
			"min" : [ -8.431640625, -9.1357421875, 0 ],
			"max" : [ 8.431640625, 9.1357421875, 83.15899658203125 ]
		},
		{
			"bufferView" : 1,
			"byteOffset" : 0,
			"componentType" : 5126,
			"count" : 870,
			"type" : "VEC3",
			"min" : [ -0.9922029972076416, -0.9976545572280884, -1 ],
			"max" : [ 0.9825173616409302, 1, 1 ]
		},
		{
			"bufferView" : 2,
			"byteOffset" : 0,
			"componentType" : 5126,
			"count" : 870,
			"type" : "VEC3"
		},
		{
			"bufferView" : 3,
			"byteOffset" : 0,
			"componentType" : 5123,
			"count" : 870,
			"type" : "SCALAR",
			"min" : [ 0 ],
			"max" : [ 869 ]
		}
	],
	"bufferViews" : [
		{
			"buffer" : 0,
			"byteOffset" : 0,
			"byteLength" : 10440,
			"target" : 34962
		},
		{
			"buffer" : 0,
			"byteOffset" : 10440,
			"byteLength" : 10440,
			"target" : 34962
		},
		{
			"buffer" : 0,
			"byteOffset" : 20880,
			"byteLength" : 10440,
			"target" : 34962
		},
		{
			"buffer" : 0,
			"byteOffset" : 31320,
			"byteLength" : 1740,
			"target" : 34963
		}
	],
	"buffers" : [
		{
			"uri" : "B339501561501063C0.bin",
			"byteLength" : 33060
		}
	]
}
