{
	"asset" : {
		"generator" : "FME 2023.1.0.0",
		"version" : "2.0"
	},
	"materials" : [
		{
			"name" : "default_material",
			"pbrMetallicRoughness" : {
				"baseColorFactor" : [ 1, 1, 1, 1 ],
				"roughnessFactor" : 0.30000000000000004,
				"metallicFactor" : 0.5
			}
		}
	],
	"meshes" : [
		{
			"primitives" : [
				{
					"attributes" : {
						"NORMAL" : 1,
						"POSITION" : 0,
						"COLOR_0" : 2
					},
					"indices" : 3,
					"material" : 0,
					"mode" : 4
				}
			]
		}
	],
	"nodes" : [
		{
			"name" : "B336981600101063C0",
			"matrix" : [ 1, 0, 0, 0, 0, 0, -1, 0, 0, 1, 0, 0, 833701.8125, 50.38099670410156, -815998.875, 1 ],
			"children" : [ 1 ]
		},
		{
			"mesh" : 0
		}
	],
	"scenes" : [
		{
			"nodes" : [ 0 ]
		}
	],
	"scene" : 0,
	"accessors" : [
		{
			"bufferView" : 0,
			"byteOffset" : 0,
			"componentType" : 5126,
			"count" : 453,
			"type" : "VEC3",
			"min" : [ -6.298828125, -6.2236328125, 0 ],
			"max" : [ 6.2998046875, 6.2236328125, 23.759002685546875 ]
		},
		{
			"bufferView" : 1,
			"byteOffset" : 0,
			"componentType" : 5126,
			"count" : 453,
			"type" : "VEC3",
			"min" : [ -0.7318170666694641, -0.7361279129981995, -1 ],
			"max" : [ 0.7325987815856934, 0.7327768802642822, 1 ]
		},
		{
			"bufferView" : 2,
			"byteOffset" : 0,
			"componentType" : 5126,
			"count" : 453,
			"type" : "VEC3"
		},
		{
			"bufferView" : 3,
			"byteOffset" : 0,
			"componentType" : 5123,
			"count" : 453,
			"type" : "SCALAR",
			"min" : [ 0 ],
			"max" : [ 452 ]
		}
	],
	"bufferViews" : [
		{
			"buffer" : 0,
			"byteOffset" : 0,
			"byteLength" : 5436,
			"target" : 34962
		},
		{
			"buffer" : 0,
			"byteOffset" : 5436,
			"byteLength" : 5436,
			"target" : 34962
		},
		{
			"buffer" : 0,
			"byteOffset" : 10872,
			"byteLength" : 5436,
			"target" : 34962
		},
		{
			"buffer" : 0,
			"byteOffset" : 16308,
			"byteLength" : 906,
			"target" : 34963
		}
	],
	"buffers" : [
		{
			"uri" : "B336981600101063C0.bin",
			"byteLength" : 17214
		}
	]
}
