{
	"asset" : {
		"generator" : "FME 2023.2.1.0",
		"version" : "2.0"
	},
	"materials" : [
		{
			"name" : "default_material",
			"pbrMetallicRoughness" : {
				"baseColorFactor" : [ 1, 1, 1, 1 ],
				"roughnessFactor" : 0.30000000000000004,
				"metallicFactor" : 0.5
			}
		}
	],
	"meshes" : [
		{
			"primitives" : [
				{
					"attributes" : {
						"NORMAL" : 1,
						"POSITION" : 0,
						"COLOR_0" : 2
					},
					"indices" : 3,
					"material" : 0,
					"mode" : 4
				}
			]
		}
	],
	"nodes" : [
		{
			"name" : "B333901649101063C0",
			"matrix" : [ 1, 0, 0, 0, 0, 0, -1, 0, 0, 1, 0, 0, 833399.125, 2.9000039100646973, -816501.5625, 1 ],
			"children" : [ 1 ]
		},
		{
			"mesh" : 0
		}
	],
	"scenes" : [
		{
			"nodes" : [ 0 ]
		}
	],
	"scene" : 0,
	"accessors" : [
		{
			"bufferView" : 0,
			"byteOffset" : 0,
			"componentType" : 5126,
			"count" : 1365,
			"type" : "VEC3",
			"min" : [ -9.9501953125, -18.046875, 0 ],
			"max" : [ 9.9501953125, 18.0458984375, 67.87000274658203 ]
		},
		{
			"bufferView" : 1,
			"byteOffset" : 0,
			"componentType" : 5126,
			"count" : 1365,
			"type" : "VEC3",
			"min" : [ -0.9349653124809265, -0.9360635876655579, -1 ],
			"max" : [ 0.9370681643486023, 0.9413492679595947, 1 ]
		},
		{
			"bufferView" : 2,
			"byteOffset" : 0,
			"componentType" : 5126,
			"count" : 1365,
			"type" : "VEC3"
		},
		{
			"bufferView" : 3,
			"byteOffset" : 0,
			"componentType" : 5123,
			"count" : 1365,
			"type" : "SCALAR",
			"min" : [ 0 ],
			"max" : [ 1364 ]
		}
	],
	"bufferViews" : [
		{
			"buffer" : 0,
			"byteOffset" : 0,
			"byteLength" : 16380,
			"target" : 34962
		},
		{
			"buffer" : 0,
			"byteOffset" : 16380,
			"byteLength" : 16380,
			"target" : 34962
		},
		{
			"buffer" : 0,
			"byteOffset" : 32760,
			"byteLength" : 16380,
			"target" : 34962
		},
		{
			"buffer" : 0,
			"byteOffset" : 49140,
			"byteLength" : 2730,
			"target" : 34963
		}
	],
	"buffers" : [
		{
			"uri" : "B333901649101063C0.bin",
			"byteLength" : 51870
		}
	]
}
