{
	"asset" : {
		"generator" : "FME 2023.1.0.0",
		"version" : "2.0"
	},
	"materials" : [
		{
			"name" : "default_material",
			"pbrMetallicRoughness" : {
				"baseColorFactor" : [ 1, 1, 1, 1 ],
				"roughnessFactor" : 0.30000000000000004,
				"metallicFactor" : 0.5
			}
		}
	],
	"meshes" : [
		{
			"primitives" : [
				{
					"attributes" : {
						"NORMAL" : 1,
						"POSITION" : 0,
						"COLOR_0" : 2
					},
					"indices" : 3,
					"material" : 0,
					"mode" : 4
				}
			]
		}
	],
	"nodes" : [
		{
			"name" : "B341551580801063C0",
			"matrix" : [ 1, 0, 0, 0, 0, 0, -1, 0, 0, 1, 0, 0, 834146.25, 10.713000297546387, -815812.9375, 1 ],
			"children" : [ 1 ]
		},
		{
			"mesh" : 0
		}
	],
	"scenes" : [
		{
			"nodes" : [ 0 ]
		}
	],
	"scene" : 0,
	"accessors" : [
		{
			"bufferView" : 0,
			"byteOffset" : 0,
			"componentType" : 5126,
			"count" : 2109,
			"type" : "VEC3",
			"min" : [ -18.458984375, -17.5927734375, 0 ],
			"max" : [ 18.443359375, 17.5595703125, 78.74400329589844 ]
		},
		{
			"bufferView" : 1,
			"byteOffset" : 0,
			"componentType" : 5126,
			"count" : 2109,
			"type" : "VEC3",
			"min" : [ -0.9665130376815796, -0.9668906927108765, -1 ],
			"max" : [ 1, 0.9666119813919067, 1 ]
		},
		{
			"bufferView" : 2,
			"byteOffset" : 0,
			"componentType" : 5126,
			"count" : 2109,
			"type" : "VEC3"
		},
		{
			"bufferView" : 3,
			"byteOffset" : 0,
			"componentType" : 5123,
			"count" : 2109,
			"type" : "SCALAR",
			"min" : [ 0 ],
			"max" : [ 2108 ]
		}
	],
	"bufferViews" : [
		{
			"buffer" : 0,
			"byteOffset" : 0,
			"byteLength" : 25308,
			"target" : 34962
		},
		{
			"buffer" : 0,
			"byteOffset" : 25308,
			"byteLength" : 25308,
			"target" : 34962
		},
		{
			"buffer" : 0,
			"byteOffset" : 50616,
			"byteLength" : 25308,
			"target" : 34962
		},
		{
			"buffer" : 0,
			"byteOffset" : 75924,
			"byteLength" : 4218,
			"target" : 34963
		}
	],
	"buffers" : [
		{
			"uri" : "B341551580801063C0.bin",
			"byteLength" : 80142
		}
	]
}
