{
	"asset" : {
		"generator" : "FME 2022.2.4.0",
		"version" : "2.0"
	},
	"materials" : [
		{
			"name" : "default_material",
			"pbrMetallicRoughness" : {
				"baseColorFactor" : [ 1, 1, 1, 1 ],
				"roughnessFactor" : 0.30000000000000004,
				"metallicFactor" : 0.5
			}
		}
	],
	"meshes" : [
		{
			"primitives" : [
				{
					"attributes" : {
						"NORMAL" : 1,
						"POSITION" : 0,
						"COLOR_0" : 2
					},
					"indices" : 3,
					"material" : 0,
					"mode" : 4
				}
			]
		}
	],
	"nodes" : [
		{
			"name" : "B331101635801063C0",
			"matrix" : [ 1, 0, 0, 0, 0, 0, -1, 0, 0, 1, 0, 0, 833111.125, 15.423999786376953, -816357.875, 1 ],
			"children" : [ 1 ]
		},
		{
			"mesh" : 0
		}
	],
	"scenes" : [
		{
			"nodes" : [ 0 ]
		}
	],
	"scene" : 0,
	"accessors" : [
		{
			"bufferView" : 0,
			"byteOffset" : 0,
			"componentType" : 5126,
			"count" : 798,
			"type" : "VEC3",
			"min" : [ -6.82421875, -5.76953125, 0 ],
			"max" : [ 6.77099609375, 5.7060546875, 40.03900146484375 ]
		},
		{
			"bufferView" : 1,
			"byteOffset" : 0,
			"componentType" : 5126,
			"count" : 798,
			"type" : "VEC3",
			"min" : [ -0.9994902014732361, -0.9995803833007812, -1 ],
			"max" : [ 0.9992796182632446, 0.9996067881584167, 1 ]
		},
		{
			"bufferView" : 2,
			"byteOffset" : 0,
			"componentType" : 5126,
			"count" : 798,
			"type" : "VEC3"
		},
		{
			"bufferView" : 3,
			"byteOffset" : 0,
			"componentType" : 5123,
			"count" : 798,
			"type" : "SCALAR",
			"min" : [ 0 ],
			"max" : [ 797 ]
		}
	],
	"bufferViews" : [
		{
			"buffer" : 0,
			"byteOffset" : 0,
			"byteLength" : 9576,
			"target" : 34962
		},
		{
			"buffer" : 0,
			"byteOffset" : 9576,
			"byteLength" : 9576,
			"target" : 34962
		},
		{
			"buffer" : 0,
			"byteOffset" : 19152,
			"byteLength" : 9576,
			"target" : 34962
		},
		{
			"buffer" : 0,
			"byteOffset" : 28728,
			"byteLength" : 1596,
			"target" : 34963
		}
	],
	"buffers" : [
		{
			"uri" : "B331101635801063C0.bin",
			"byteLength" : 30324
		}
	]
}
