{
	"asset" : {
		"generator" : "FME 2023.2.2.0",
		"version" : "2.0"
	},
	"materials" : [
		{
			"name" : "default_material",
			"pbrMetallicRoughness" : {
				"baseColorFactor" : [ 1, 1, 1, 1 ],
				"roughnessFactor" : 0.30000000000000004,
				"metallicFactor" : 0.5
			}
		}
	],
	"meshes" : [
		{
			"primitives" : [
				{
					"attributes" : {
						"NORMAL" : 1,
						"POSITION" : 0,
						"COLOR_0" : 2
					},
					"indices" : 3,
					"material" : 0,
					"mode" : 4
				}
			]
		}
	],
	"nodes" : [
		{
			"name" : "B186121466401062G0",
			"matrix" : [ 1, 0, 0, 0, 0, 0, -1, 0, 0, 1, 0, 0, 818609.375, 6.447400093078613, -814661.625, 1 ],
			"children" : [ 1 ]
		},
		{
			"mesh" : 0
		}
	],
	"scenes" : [
		{
			"nodes" : [ 0 ]
		}
	],
	"scene" : 0,
	"accessors" : [
		{
			"bufferView" : 0,
			"byteOffset" : 0,
			"componentType" : 5126,
			"count" : 321,
			"type" : "VEC3",
			"min" : [ -4.375, -7, 0 ],
			"max" : [ 4.4375, 7, 6.126799583435059 ]
		},
		{
			"bufferView" : 1,
			"byteOffset" : 0,
			"componentType" : 5126,
			"count" : 321,
			"type" : "VEC3",
			"min" : [ -0.991117000579834, -0.9867405891418457, -1 ],
			"max" : [ 0.991117000579834, 0.9867405891418457, 1 ]
		},
		{
			"bufferView" : 2,
			"byteOffset" : 0,
			"componentType" : 5126,
			"count" : 321,
			"type" : "VEC3"
		},
		{
			"bufferView" : 3,
			"byteOffset" : 0,
			"componentType" : 5123,
			"count" : 321,
			"type" : "SCALAR",
			"min" : [ 0 ],
			"max" : [ 320 ]
		}
	],
	"bufferViews" : [
		{
			"buffer" : 0,
			"byteOffset" : 0,
			"byteLength" : 3852,
			"target" : 34962
		},
		{
			"buffer" : 0,
			"byteOffset" : 3852,
			"byteLength" : 3852,
			"target" : 34962
		},
		{
			"buffer" : 0,
			"byteOffset" : 7704,
			"byteLength" : 3852,
			"target" : 34962
		},
		{
			"buffer" : 0,
			"byteOffset" : 11556,
			"byteLength" : 642,
			"target" : 34963
		}
	],
	"buffers" : [
		{
			"uri" : "B186121466401062G0.bin",
			"byteLength" : 12198
		}
	]
}
