{
	"asset" : {
		"generator" : "FME 2023.1.0.0",
		"version" : "2.0"
	},
	"materials" : [
		{
			"name" : "default_material",
			"pbrMetallicRoughness" : {
				"baseColorFactor" : [ 1, 1, 1, 1 ],
				"roughnessFactor" : 0.30000000000000004,
				"metallicFactor" : 0.5
			}
		}
	],
	"meshes" : [
		{
			"primitives" : [
				{
					"attributes" : {
						"NORMAL" : 1,
						"POSITION" : 0,
						"COLOR_0" : 2
					},
					"indices" : 3,
					"material" : 0,
					"mode" : 4
				}
			]
		}
	],
	"nodes" : [
		{
			"name" : "B336591581701063C0",
			"matrix" : [ 1, 0, 0, 0, 0, 0, -1, 0, 0, 1, 0, 0, 833662.1875, 77.34500122070312, -815817.875, 1 ],
			"children" : [ 1 ]
		},
		{
			"mesh" : 0
		}
	],
	"scenes" : [
		{
			"nodes" : [ 0 ]
		}
	],
	"scene" : 0,
	"accessors" : [
		{
			"bufferView" : 0,
			"byteOffset" : 0,
			"componentType" : 5126,
			"count" : 300,
			"type" : "VEC3",
			"min" : [ -6.681640625, -6.365234375, 0 ],
			"max" : [ 6.681640625, 6.365234375, 19.170997619628906 ]
		},
		{
			"bufferView" : 1,
			"byteOffset" : 0,
			"componentType" : 5126,
			"count" : 300,
			"type" : "VEC3",
			"min" : [ -0.739646852016449, -0.7384156584739685, -1 ],
			"max" : [ 0.7388501167297363, 0.7383915185928345, 1 ]
		},
		{
			"bufferView" : 2,
			"byteOffset" : 0,
			"componentType" : 5126,
			"count" : 300,
			"type" : "VEC3"
		},
		{
			"bufferView" : 3,
			"byteOffset" : 0,
			"componentType" : 5123,
			"count" : 300,
			"type" : "SCALAR",
			"min" : [ 0 ],
			"max" : [ 299 ]
		}
	],
	"bufferViews" : [
		{
			"buffer" : 0,
			"byteOffset" : 0,
			"byteLength" : 3600,
			"target" : 34962
		},
		{
			"buffer" : 0,
			"byteOffset" : 3600,
			"byteLength" : 3600,
			"target" : 34962
		},
		{
			"buffer" : 0,
			"byteOffset" : 7200,
			"byteLength" : 3600,
			"target" : 34962
		},
		{
			"buffer" : 0,
			"byteOffset" : 10800,
			"byteLength" : 600,
			"target" : 34963
		}
	],
	"buffers" : [
		{
			"uri" : "B336591581701063C0.bin",
			"byteLength" : 11400
		}
	]
}
