{
	"asset" : {
		"generator" : "FME 2022.2.4.0",
		"version" : "2.0"
	},
	"materials" : [
		{
			"name" : "default_material",
			"pbrMetallicRoughness" : {
				"baseColorFactor" : [ 1, 1, 1, 1 ],
				"roughnessFactor" : 0.30000000000000004,
				"metallicFactor" : 0.5
			}
		}
	],
	"meshes" : [
		{
			"primitives" : [
				{
					"attributes" : {
						"NORMAL" : 1,
						"POSITION" : 0,
						"COLOR_0" : 2
					},
					"indices" : 3,
					"material" : 0,
					"mode" : 4
				}
			]
		}
	],
	"nodes" : [
		{
			"name" : "B342601604001063C0",
			"matrix" : [ 1, 0, 0, 0, 0, 0, -1, 0, 0, 1, 0, 0, 834259, 3.2279999256134033, -816040, 1 ],
			"children" : [ 1 ]
		},
		{
			"mesh" : 0
		}
	],
	"scenes" : [
		{
			"nodes" : [ 0 ]
		}
	],
	"scene" : 0,
	"accessors" : [
		{
			"bufferView" : 0,
			"byteOffset" : 0,
			"componentType" : 5126,
			"count" : 900,
			"type" : "VEC3",
			"min" : [ -14.232421875, -10.48828125, 0 ],
			"max" : [ 14.3388671875, 10.41015625, 33.41999816894531 ]
		},
		{
			"bufferView" : 1,
			"byteOffset" : 0,
			"componentType" : 5126,
			"count" : 900,
			"type" : "VEC3",
			"min" : [ -0.8213323950767517, -0.822673499584198, -1 ],
			"max" : [ 0.8214837312698364, 0.8211092948913574, 1 ]
		},
		{
			"bufferView" : 2,
			"byteOffset" : 0,
			"componentType" : 5126,
			"count" : 900,
			"type" : "VEC3"
		},
		{
			"bufferView" : 3,
			"byteOffset" : 0,
			"componentType" : 5123,
			"count" : 900,
			"type" : "SCALAR",
			"min" : [ 0 ],
			"max" : [ 899 ]
		}
	],
	"bufferViews" : [
		{
			"buffer" : 0,
			"byteOffset" : 0,
			"byteLength" : 10800,
			"target" : 34962
		},
		{
			"buffer" : 0,
			"byteOffset" : 10800,
			"byteLength" : 10800,
			"target" : 34962
		},
		{
			"buffer" : 0,
			"byteOffset" : 21600,
			"byteLength" : 10800,
			"target" : 34962
		},
		{
			"buffer" : 0,
			"byteOffset" : 32400,
			"byteLength" : 1800,
			"target" : 34963
		}
	],
	"buffers" : [
		{
			"uri" : "B342601604001063C0.bin",
			"byteLength" : 34200
		}
	]
}
