{
	"asset" : {
		"generator" : "FME 2022.2.4.0",
		"version" : "2.0"
	},
	"images" : [
		{
			"uri" : "T10500192000106E11_001.jpg"
		}
	],
	"samplers" : [
		{
			"wrapS" : 10497,
			"wrapT" : 10497,
			"magFilter" : 9729,
			"minFilter" : 9986
		}
	],
	"textures" : [
		{
			"source" : 0,
			"sampler" : 0
		}
	],
	"materials" : [
		{
			"name" : "T10500192000106E11",
			"pbrMetallicRoughness" : {
				"baseColorTexture" : {
					"index" : 0,
					"texCoord" : 0
				},
				"roughnessFactor" : 0.984375,
				"metallicFactor" : 0.5
			}
		}
	],
	"meshes" : [
		{
			"primitives" : [
				{
					"attributes" : {
						"NORMAL" : 1,
						"POSITION" : 0,
						"TEXCOORD_0" : 2
					},
					"indices" : 3,
					"material" : 0,
					"mode" : 4
				}
			]
		}
	],
	"nodes" : [
		{
			"name" : "T10500192000106E11",
			"matrix" : [ 1, 0, 0, 0, 0, 0, -1, 0, 0, 1, 0, 0, 810875, 3.513151168823242, -819500, 1 ],
			"children" : [ 1 ]
		},
		{
			"mesh" : 0
		}
	],
	"scenes" : [
		{
			"nodes" : [ 0 ]
		}
	],
	"scene" : 0,
	"accessors" : [
		{
			"bufferView" : 0,
			"byteOffset" : 0,
			"componentType" : 5126,
			"count" : 3378,
			"type" : "VEC3",
			"min" : [ -375, -300, 0 ],
			"max" : [ 375, 300, 3.8242621421813965 ]
		},
		{
			"bufferView" : 1,
			"byteOffset" : 0,
			"componentType" : 5126,
			"count" : 3378,
			"type" : "VEC3",
			"min" : [ -0.29575487971305847, -0.3494296669960022, 0.9115224480628967 ],
			"max" : [ 0.4060095250606537, 0.2430722713470459, 0.9999999403953552 ]
		},
		{
			"bufferView" : 2,
			"byteOffset" : 0,
			"componentType" : 5126,
			"count" : 3378,
			"type" : "VEC2",
			"min" : [ 0.00013318657875061035, 0.0001665353775024414 ],
			"max" : [ 0.9998668432235718, 0.9998334646224976 ]
		},
		{
			"bufferView" : 3,
			"byteOffset" : 0,
			"componentType" : 5123,
			"count" : 3378,
			"type" : "SCALAR",
			"min" : [ 0 ],
			"max" : [ 3377 ]
		}
	],
	"bufferViews" : [
		{
			"buffer" : 0,
			"byteOffset" : 0,
			"byteLength" : 40536,
			"target" : 34962
		},
		{
			"buffer" : 0,
			"byteOffset" : 40536,
			"byteLength" : 40536,
			"target" : 34962
		},
		{
			"buffer" : 0,
			"byteOffset" : 81072,
			"byteLength" : 27024,
			"target" : 34962
		},
		{
			"buffer" : 0,
			"byteOffset" : 108096,
			"byteLength" : 6756,
			"target" : 34963
		}
	],
	"buffers" : [
		{
			"uri" : "T10500192000106E11.bin",
			"byteLength" : 114852
		}
	]
}
