{
	"asset" : {
		"generator" : "FME 2022.2.4.0",
		"version" : "2.0"
	},
	"materials" : [
		{
			"name" : "default_material",
			"pbrMetallicRoughness" : {
				"baseColorFactor" : [ 1, 1, 1, 1 ],
				"roughnessFactor" : 0.30000000000000004,
				"metallicFactor" : 0.5
			}
		}
	],
	"meshes" : [
		{
			"primitives" : [
				{
					"attributes" : {
						"NORMAL" : 1,
						"POSITION" : 0,
						"COLOR_0" : 2
					},
					"indices" : 3,
					"material" : 0,
					"mode" : 4
				}
			]
		}
	],
	"nodes" : [
		{
			"name" : "B165951277801062G0",
			"matrix" : [ 1, 0, 0, 0, 0, 0, -1, 0, 0, 1, 0, 0, 816595.375, 67.7782974243164, -812779, 1 ],
			"children" : [ 1 ]
		},
		{
			"mesh" : 0
		}
	],
	"scenes" : [
		{
			"nodes" : [ 0 ]
		}
	],
	"scene" : 0,
	"accessors" : [
		{
			"bufferView" : 0,
			"byteOffset" : 0,
			"componentType" : 5126,
			"count" : 114,
			"type" : "VEC3",
			"min" : [ -2.875, -3, 0 ],
			"max" : [ 2.875, 3.0625, 3.6117019653320312 ]
		},
		{
			"bufferView" : 1,
			"byteOffset" : 0,
			"componentType" : 5126,
			"count" : 114,
			"type" : "VEC3",
			"min" : [ -0.83158940076828, -0.8317860960960388, -0.9648062586784363 ],
			"max" : [ 0.831589937210083, 0.8317861557006836, 0.9327624440193176 ]
		},
		{
			"bufferView" : 2,
			"byteOffset" : 0,
			"componentType" : 5126,
			"count" : 114,
			"type" : "VEC3"
		},
		{
			"bufferView" : 3,
			"byteOffset" : 0,
			"componentType" : 5121,
			"count" : 114,
			"type" : "SCALAR",
			"min" : [ 0 ],
			"max" : [ 113 ]
		}
	],
	"bufferViews" : [
		{
			"buffer" : 0,
			"byteOffset" : 0,
			"byteLength" : 1368,
			"target" : 34962
		},
		{
			"buffer" : 0,
			"byteOffset" : 1368,
			"byteLength" : 1368,
			"target" : 34962
		},
		{
			"buffer" : 0,
			"byteOffset" : 2736,
			"byteLength" : 1368,
			"target" : 34962
		},
		{
			"buffer" : 0,
			"byteOffset" : 4104,
			"byteLength" : 114,
			"target" : 34963
		}
	],
	"buffers" : [
		{
			"uri" : "B165951277801062G0.bin",
			"byteLength" : 4218
		}
	]
}
