{
	"asset" : {
		"generator" : "FME 2023.1.0.0",
		"version" : "2.0"
	},
	"materials" : [
		{
			"name" : "default_material",
			"pbrMetallicRoughness" : {
				"baseColorFactor" : [ 1, 1, 1, 1 ],
				"roughnessFactor" : 0.30000000000000004,
				"metallicFactor" : 0.5
			}
		}
	],
	"meshes" : [
		{
			"primitives" : [
				{
					"attributes" : {
						"NORMAL" : 1,
						"POSITION" : 0,
						"COLOR_0" : 2
					},
					"indices" : 3,
					"material" : 0,
					"mode" : 4
				}
			]
		}
	],
	"nodes" : [
		{
			"name" : "B333171653501063C0",
			"matrix" : [ 1, 0, 0, 0, 0, 0, -1, 0, 0, 1, 0, 0, 833314.375, 3.3619961738586426, -816529.1875, 1 ],
			"children" : [ 1 ]
		},
		{
			"mesh" : 0
		}
	],
	"scenes" : [
		{
			"nodes" : [ 0 ]
		}
	],
	"scene" : 0,
	"accessors" : [
		{
			"bufferView" : 0,
			"byteOffset" : 0,
			"componentType" : 5126,
			"count" : 405,
			"type" : "VEC3",
			"min" : [ -8.3427734375, -9.1181640625, 0 ],
			"max" : [ 8.3427734375, 9.119140625, 23.040000915527344 ]
		},
		{
			"bufferView" : 1,
			"byteOffset" : 0,
			"componentType" : 5126,
			"count" : 405,
			"type" : "VEC3",
			"min" : [ -0.7711708545684814, -0.7600497007369995, -0.9365692138671875 ],
			"max" : [ 0.7611222267150879, 0.7612432837486267, 1 ]
		},
		{
			"bufferView" : 2,
			"byteOffset" : 0,
			"componentType" : 5126,
			"count" : 405,
			"type" : "VEC3"
		},
		{
			"bufferView" : 3,
			"byteOffset" : 0,
			"componentType" : 5123,
			"count" : 405,
			"type" : "SCALAR",
			"min" : [ 0 ],
			"max" : [ 404 ]
		}
	],
	"bufferViews" : [
		{
			"buffer" : 0,
			"byteOffset" : 0,
			"byteLength" : 4860,
			"target" : 34962
		},
		{
			"buffer" : 0,
			"byteOffset" : 4860,
			"byteLength" : 4860,
			"target" : 34962
		},
		{
			"buffer" : 0,
			"byteOffset" : 9720,
			"byteLength" : 4860,
			"target" : 34962
		},
		{
			"buffer" : 0,
			"byteOffset" : 14580,
			"byteLength" : 810,
			"target" : 34963
		}
	],
	"buffers" : [
		{
			"uri" : "B333171653501063C0.bin",
			"byteLength" : 15390
		}
	]
}
