{"accessors":[{"bufferView":0,"componentType":5126,"count":30528,"type":"VEC3"},{"bufferView":1,"componentType":5126,"count":30528,"type":"VEC3"},{"bufferView":2,"componentType":5126,"count":30528,"max":[14.1826171875,23.470703125,198.13168334960938],"min":[-14.2275390625,-23.525390625,0.0],"type":"VEC3"},{"bufferView":3,"componentType":5123,"count":35040,"max":[30527],"min":[0],"type":"SCALAR"}],"asset":{"generator":"FME 2023.2.2.0","version":"2.0"},"bufferViews":[{"buffer":0,"byteLength":366336,"byteOffset":0,"target":34962},{"buffer":0,"byteLength":366336,"byteOffset":366336,"target":34962},{"buffer":0,"byteLength":366336,"byteOffset":732672,"target":34962},{"buffer":0,"byteLength":70080,"byteOffset":1099008,"target":34963}],"buffers":[{"byteLength":1169088,"uri":"buffer.bin"}],"materials":[{"name":"default_material","pbrMetallicRoughness":{"baseColorFactor":[1,1,1,1],"metallicFactor":0.5,"roughnessFactor":0.30000000000000004}}],"meshes":[{"primitives":[{"attributes":{"COLOR_0":0,"NORMAL":1,"POSITION":2},"indices":3,"material":0,"mode":4}]}],"nodes":[{"children":[1],"matrix":[1,0,0,0,0,0,-1,0,0,1,0,0,834867.5,24.59661102294922,-818307.125,1],"name":"B348671830601063C0"},{"mesh":0}],"scene":0,"scenes":[{"nodes":[0]}]}
