{
	"asset" : {
		"generator" : "FME 2023.1.0.0",
		"version" : "2.0"
	},
	"materials" : [
		{
			"name" : "default_material",
			"pbrMetallicRoughness" : {
				"baseColorFactor" : [ 1, 1, 1, 1 ],
				"roughnessFactor" : 0.30000000000000004,
				"metallicFactor" : 0.5
			}
		}
	],
	"meshes" : [
		{
			"primitives" : [
				{
					"attributes" : {
						"NORMAL" : 1,
						"POSITION" : 0,
						"COLOR_0" : 2
					},
					"indices" : 3,
					"material" : 0,
					"mode" : 4
				}
			]
		}
	],
	"nodes" : [
		{
			"name" : "B358931528901063C0",
			"matrix" : [ 1, 0, 0, 0, 0, 0, -1, 0, 0, 1, 0, 0, 835894.875, 3.9140000343322754, -815285.75, 1 ],
			"children" : [ 1 ]
		},
		{
			"mesh" : 0
		}
	],
	"scenes" : [
		{
			"nodes" : [ 0 ]
		}
	],
	"scene" : 0,
	"accessors" : [
		{
			"bufferView" : 0,
			"byteOffset" : 0,
			"componentType" : 5126,
			"count" : 531,
			"type" : "VEC3",
			"min" : [ -3.591796875, -8.130859375, 0 ],
			"max" : [ 3.591796875, 8.130859375, 22.915000915527344 ]
		},
		{
			"bufferView" : 1,
			"byteOffset" : 0,
			"componentType" : 5126,
			"count" : 531,
			"type" : "VEC3",
			"min" : [ -0.9946652054786682, -0.9948670268058777, -1 ],
			"max" : [ 1, 0.9948108196258545, 1 ]
		},
		{
			"bufferView" : 2,
			"byteOffset" : 0,
			"componentType" : 5126,
			"count" : 531,
			"type" : "VEC3"
		},
		{
			"bufferView" : 3,
			"byteOffset" : 0,
			"componentType" : 5123,
			"count" : 531,
			"type" : "SCALAR",
			"min" : [ 0 ],
			"max" : [ 530 ]
		}
	],
	"bufferViews" : [
		{
			"buffer" : 0,
			"byteOffset" : 0,
			"byteLength" : 6372,
			"target" : 34962
		},
		{
			"buffer" : 0,
			"byteOffset" : 6372,
			"byteLength" : 6372,
			"target" : 34962
		},
		{
			"buffer" : 0,
			"byteOffset" : 12744,
			"byteLength" : 6372,
			"target" : 34962
		},
		{
			"buffer" : 0,
			"byteOffset" : 19116,
			"byteLength" : 1062,
			"target" : 34963
		}
	],
	"buffers" : [
		{
			"uri" : "B358931528901063C0.bin",
			"byteLength" : 20178
		}
	]
}
