{
	"asset" : {
		"generator" : "FME 2023.2.1.0",
		"version" : "2.0"
	},
	"materials" : [
		{
			"name" : "default_material",
			"pbrMetallicRoughness" : {
				"baseColorFactor" : [ 1, 1, 1, 1 ],
				"roughnessFactor" : 0.30000000000000004,
				"metallicFactor" : 0.5
			}
		}
	],
	"meshes" : [
		{
			"primitives" : [
				{
					"attributes" : {
						"NORMAL" : 1,
						"POSITION" : 0,
						"COLOR_0" : 2
					},
					"indices" : 3,
					"material" : 0,
					"mode" : 4
				}
			]
		}
	],
	"nodes" : [
		{
			"name" : "B332831622501063C0",
			"matrix" : [ 1, 0, 0, 0, 0, 0, -1, 0, 0, 1, 0, 0, 833283.9375, 34.650001525878906, -816225.75, 1 ],
			"children" : [ 1 ]
		},
		{
			"mesh" : 0
		}
	],
	"scenes" : [
		{
			"nodes" : [ 0 ]
		}
	],
	"scene" : 0,
	"accessors" : [
		{
			"bufferView" : 0,
			"byteOffset" : 0,
			"componentType" : 5126,
			"count" : 2340,
			"type" : "VEC3",
			"min" : [ -9.2490234375, -8.0634765625, 0 ],
			"max" : [ 9.27734375, 8.08984375, 83.89199829101562 ]
		},
		{
			"bufferView" : 1,
			"byteOffset" : 0,
			"componentType" : 5126,
			"count" : 2340,
			"type" : "VEC3",
			"min" : [ -0.9996187090873718, -0.9999589920043945, -1 ],
			"max" : [ 1, 0.9999510645866394, 1 ]
		},
		{
			"bufferView" : 2,
			"byteOffset" : 0,
			"componentType" : 5126,
			"count" : 2340,
			"type" : "VEC3"
		},
		{
			"bufferView" : 3,
			"byteOffset" : 0,
			"componentType" : 5123,
			"count" : 2340,
			"type" : "SCALAR",
			"min" : [ 0 ],
			"max" : [ 2339 ]
		}
	],
	"bufferViews" : [
		{
			"buffer" : 0,
			"byteOffset" : 0,
			"byteLength" : 28080,
			"target" : 34962
		},
		{
			"buffer" : 0,
			"byteOffset" : 28080,
			"byteLength" : 28080,
			"target" : 34962
		},
		{
			"buffer" : 0,
			"byteOffset" : 56160,
			"byteLength" : 28080,
			"target" : 34962
		},
		{
			"buffer" : 0,
			"byteOffset" : 84240,
			"byteLength" : 4680,
			"target" : 34963
		}
	],
	"buffers" : [
		{
			"uri" : "B332831622501063C0.bin",
			"byteLength" : 88920
		}
	]
}
