{
	"asset" : {
		"generator" : "FME 2022.2.4.0",
		"version" : "2.0"
	},
	"materials" : [
		{
			"name" : "default_material",
			"pbrMetallicRoughness" : {
				"baseColorFactor" : [ 1, 1, 1, 1 ],
				"roughnessFactor" : 0.30000000000000004,
				"metallicFactor" : 0.5
			}
		}
	],
	"meshes" : [
		{
			"primitives" : [
				{
					"attributes" : {
						"NORMAL" : 1,
						"POSITION" : 0,
						"COLOR_0" : 2
					},
					"indices" : 3,
					"material" : 0,
					"mode" : 4
				}
			]
		}
	],
	"nodes" : [
		{
			"name" : "B358871537401063C0",
			"matrix" : [ 1, 0, 0, 0, 0, 0, -1, 0, 0, 1, 0, 0, 835877, 18.22699737548828, -815374.8125, 1 ],
			"children" : [ 1 ]
		},
		{
			"mesh" : 0
		}
	],
	"scenes" : [
		{
			"nodes" : [ 0 ]
		}
	],
	"scene" : 0,
	"accessors" : [
		{
			"bufferView" : 0,
			"byteOffset" : 0,
			"componentType" : 5126,
			"count" : 3315,
			"type" : "VEC3",
			"min" : [ -14.2138671875, -21.2060546875, 0 ],
			"max" : [ 14.2138671875, 21.205078125, 115.58300018310547 ]
		},
		{
			"bufferView" : 1,
			"byteOffset" : 0,
			"componentType" : 5126,
			"count" : 3315,
			"type" : "VEC3",
			"min" : [ -0.9943513870239258, -0.9942386150360107, -1 ],
			"max" : [ 0.9944892525672913, 0.9944581389427185, 1 ]
		},
		{
			"bufferView" : 2,
			"byteOffset" : 0,
			"componentType" : 5126,
			"count" : 3315,
			"type" : "VEC3"
		},
		{
			"bufferView" : 3,
			"byteOffset" : 0,
			"componentType" : 5123,
			"count" : 3315,
			"type" : "SCALAR",
			"min" : [ 0 ],
			"max" : [ 3314 ]
		}
	],
	"bufferViews" : [
		{
			"buffer" : 0,
			"byteOffset" : 0,
			"byteLength" : 39780,
			"target" : 34962
		},
		{
			"buffer" : 0,
			"byteOffset" : 39780,
			"byteLength" : 39780,
			"target" : 34962
		},
		{
			"buffer" : 0,
			"byteOffset" : 79560,
			"byteLength" : 39780,
			"target" : 34962
		},
		{
			"buffer" : 0,
			"byteOffset" : 119340,
			"byteLength" : 6630,
			"target" : 34963
		}
	],
	"buffers" : [
		{
			"uri" : "B358871537401063C0.bin",
			"byteLength" : 125970
		}
	]
}
