{
	"asset" : {
		"generator" : "FME 2023.1.0.0",
		"version" : "2.0"
	},
	"materials" : [
		{
			"name" : "default_material",
			"pbrMetallicRoughness" : {
				"baseColorFactor" : [ 1, 1, 1, 1 ],
				"roughnessFactor" : 0.30000000000000004,
				"metallicFactor" : 0.5
			}
		}
	],
	"meshes" : [
		{
			"primitives" : [
				{
					"attributes" : {
						"NORMAL" : 1,
						"POSITION" : 0,
						"COLOR_0" : 2
					},
					"indices" : 3,
					"material" : 0,
					"mode" : 4
				}
			]
		}
	],
	"nodes" : [
		{
			"name" : "B354071530701063C0",
			"matrix" : [ 1, 0, 0, 0, 0, 0, -1, 0, 0, 1, 0, 0, 835404.625, 15.706999778747559, -815302.8125, 1 ],
			"children" : [ 1 ]
		},
		{
			"mesh" : 0
		}
	],
	"scenes" : [
		{
			"nodes" : [ 0 ]
		}
	],
	"scene" : 0,
	"accessors" : [
		{
			"bufferView" : 0,
			"byteOffset" : 0,
			"componentType" : 5126,
			"count" : 453,
			"type" : "VEC3",
			"min" : [ -5.9404296875, -6.400390625, 0 ],
			"max" : [ 5.94140625, 6.400390625, 22.6510009765625 ]
		},
		{
			"bufferView" : 1,
			"byteOffset" : 0,
			"componentType" : 5126,
			"count" : 453,
			"type" : "VEC3",
			"min" : [ -0.8139092922210693, -0.8177576661109924, -1 ],
			"max" : [ 0.9438194036483765, 1, 1 ]
		},
		{
			"bufferView" : 2,
			"byteOffset" : 0,
			"componentType" : 5126,
			"count" : 453,
			"type" : "VEC3"
		},
		{
			"bufferView" : 3,
			"byteOffset" : 0,
			"componentType" : 5123,
			"count" : 453,
			"type" : "SCALAR",
			"min" : [ 0 ],
			"max" : [ 452 ]
		}
	],
	"bufferViews" : [
		{
			"buffer" : 0,
			"byteOffset" : 0,
			"byteLength" : 5436,
			"target" : 34962
		},
		{
			"buffer" : 0,
			"byteOffset" : 5436,
			"byteLength" : 5436,
			"target" : 34962
		},
		{
			"buffer" : 0,
			"byteOffset" : 10872,
			"byteLength" : 5436,
			"target" : 34962
		},
		{
			"buffer" : 0,
			"byteOffset" : 16308,
			"byteLength" : 906,
			"target" : 34963
		}
	],
	"buffers" : [
		{
			"uri" : "B354071530701063C0.bin",
			"byteLength" : 17214
		}
	]
}
