{
	"asset" : {
		"generator" : "FME 2023.1.0.0",
		"version" : "2.0"
	},
	"materials" : [
		{
			"name" : "default_material",
			"pbrMetallicRoughness" : {
				"baseColorFactor" : [ 1, 1, 1, 1 ],
				"roughnessFactor" : 0.30000000000000004,
				"metallicFactor" : 0.5
			}
		}
	],
	"meshes" : [
		{
			"primitives" : [
				{
					"attributes" : {
						"NORMAL" : 1,
						"POSITION" : 0,
						"COLOR_0" : 2
					},
					"indices" : 3,
					"material" : 0,
					"mode" : 4
				}
			]
		}
	],
	"nodes" : [
		{
			"name" : "B338261585601063C0",
			"matrix" : [ 1, 0, 0, 0, 0, 0, -1, 0, 0, 1, 0, 0, 833824.1875, 45.38799285888672, -815851.9375, 1 ],
			"children" : [ 1 ]
		},
		{
			"mesh" : 0
		}
	],
	"scenes" : [
		{
			"nodes" : [ 0 ]
		}
	],
	"scene" : 0,
	"accessors" : [
		{
			"bufferView" : 0,
			"byteOffset" : 0,
			"componentType" : 5126,
			"count" : 783,
			"type" : "VEC3",
			"min" : [ -7.86328125, -8.060546875, 0 ],
			"max" : [ 7.86328125, 8.060546875, 23.774002075195312 ]
		},
		{
			"bufferView" : 1,
			"byteOffset" : 0,
			"componentType" : 5126,
			"count" : 783,
			"type" : "VEC3",
			"min" : [ -0.9758002758026123, -0.9762831330299377, -1 ],
			"max" : [ 0.9747588038444519, 0.9796984791755676, 1 ]
		},
		{
			"bufferView" : 2,
			"byteOffset" : 0,
			"componentType" : 5126,
			"count" : 783,
			"type" : "VEC3"
		},
		{
			"bufferView" : 3,
			"byteOffset" : 0,
			"componentType" : 5123,
			"count" : 783,
			"type" : "SCALAR",
			"min" : [ 0 ],
			"max" : [ 782 ]
		}
	],
	"bufferViews" : [
		{
			"buffer" : 0,
			"byteOffset" : 0,
			"byteLength" : 9396,
			"target" : 34962
		},
		{
			"buffer" : 0,
			"byteOffset" : 9396,
			"byteLength" : 9396,
			"target" : 34962
		},
		{
			"buffer" : 0,
			"byteOffset" : 18792,
			"byteLength" : 9396,
			"target" : 34962
		},
		{
			"buffer" : 0,
			"byteOffset" : 28188,
			"byteLength" : 1566,
			"target" : 34963
		}
	],
	"buffers" : [
		{
			"uri" : "B338261585601063C0.bin",
			"byteLength" : 29754
		}
	]
}
