{
	"asset" : {
		"generator" : "FME 2023.2.1.0",
		"version" : "2.0"
	},
	"materials" : [
		{
			"name" : "default_material",
			"pbrMetallicRoughness" : {
				"baseColorFactor" : [ 1, 1, 1, 1 ],
				"roughnessFactor" : 0.30000000000000004,
				"metallicFactor" : 0.5
			}
		}
	],
	"meshes" : [
		{
			"primitives" : [
				{
					"attributes" : {
						"NORMAL" : 1,
						"POSITION" : 0,
						"COLOR_0" : 2
					},
					"indices" : 3,
					"material" : 0,
					"mode" : 4
				}
			]
		}
	],
	"nodes" : [
		{
			"name" : "B338591556001063C0",
			"matrix" : [ 1, 0, 0, 0, 0, 0, -1, 0, 0, 1, 0, 0, 833859.6875, 108.93599700927734, -815560.9375, 1 ],
			"children" : [ 1 ]
		},
		{
			"mesh" : 0
		}
	],
	"scenes" : [
		{
			"nodes" : [ 0 ]
		}
	],
	"scene" : 0,
	"accessors" : [
		{
			"bufferView" : 0,
			"byteOffset" : 0,
			"componentType" : 5126,
			"count" : 108,
			"type" : "VEC3",
			"min" : [ -3.1884765625, -1.8115234375, 0 ],
			"max" : [ 3.1884765625, 1.810546875, 2.5960006713867188 ]
		},
		{
			"bufferView" : 1,
			"byteOffset" : 0,
			"componentType" : 5126,
			"count" : 108,
			"type" : "VEC3",
			"min" : [ -0.9992656111717224, -0.9978854060173035, -0.000545930175576359 ],
			"max" : [ 0.9991657733917236, 0.9981183409690857, 1 ]
		},
		{
			"bufferView" : 2,
			"byteOffset" : 0,
			"componentType" : 5126,
			"count" : 108,
			"type" : "VEC3"
		},
		{
			"bufferView" : 3,
			"byteOffset" : 0,
			"componentType" : 5121,
			"count" : 108,
			"type" : "SCALAR",
			"min" : [ 0 ],
			"max" : [ 107 ]
		}
	],
	"bufferViews" : [
		{
			"buffer" : 0,
			"byteOffset" : 0,
			"byteLength" : 1296,
			"target" : 34962
		},
		{
			"buffer" : 0,
			"byteOffset" : 1296,
			"byteLength" : 1296,
			"target" : 34962
		},
		{
			"buffer" : 0,
			"byteOffset" : 2592,
			"byteLength" : 1296,
			"target" : 34962
		},
		{
			"buffer" : 0,
			"byteOffset" : 3888,
			"byteLength" : 108,
			"target" : 34963
		}
	],
	"buffers" : [
		{
			"uri" : "B338591556001063C0.bin",
			"byteLength" : 3996
		}
	]
}
