{
	"asset" : {
		"generator" : "FME 2023.2.1.0",
		"version" : "2.0"
	},
	"materials" : [
		{
			"name" : "default_material",
			"pbrMetallicRoughness" : {
				"baseColorFactor" : [ 1, 1, 1, 1 ],
				"roughnessFactor" : 0.30000000000000004,
				"metallicFactor" : 0.5
			}
		}
	],
	"meshes" : [
		{
			"primitives" : [
				{
					"attributes" : {
						"NORMAL" : 1,
						"POSITION" : 0,
						"COLOR_0" : 2
					},
					"indices" : 3,
					"material" : 0,
					"mode" : 4
				}
			]
		}
	],
	"nodes" : [
		{
			"name" : "B336131603701063C0",
			"matrix" : [ 1, 0, 0, 0, 0, 0, -1, 0, 0, 1, 0, 0, 833613.8125, 51.371002197265625, -816036.625, 1 ],
			"children" : [ 1 ]
		},
		{
			"mesh" : 0
		}
	],
	"scenes" : [
		{
			"nodes" : [ 0 ]
		}
	],
	"scene" : 0,
	"accessors" : [
		{
			"bufferView" : 0,
			"byteOffset" : 0,
			"componentType" : 5126,
			"count" : 570,
			"type" : "VEC3",
			"min" : [ -4.521484375, -4.708984375, 0 ],
			"max" : [ 4.5224609375, 4.7099609375, 12.620002746582031 ]
		},
		{
			"bufferView" : 1,
			"byteOffset" : 0,
			"componentType" : 5126,
			"count" : 570,
			"type" : "VEC3",
			"min" : [ -0.7463088631629944, -0.729296088218689, -1 ],
			"max" : [ 0.73848557472229, 0.7419670224189758, 1 ]
		},
		{
			"bufferView" : 2,
			"byteOffset" : 0,
			"componentType" : 5126,
			"count" : 570,
			"type" : "VEC3"
		},
		{
			"bufferView" : 3,
			"byteOffset" : 0,
			"componentType" : 5123,
			"count" : 570,
			"type" : "SCALAR",
			"min" : [ 0 ],
			"max" : [ 569 ]
		}
	],
	"bufferViews" : [
		{
			"buffer" : 0,
			"byteOffset" : 0,
			"byteLength" : 6840,
			"target" : 34962
		},
		{
			"buffer" : 0,
			"byteOffset" : 6840,
			"byteLength" : 6840,
			"target" : 34962
		},
		{
			"buffer" : 0,
			"byteOffset" : 13680,
			"byteLength" : 6840,
			"target" : 34962
		},
		{
			"buffer" : 0,
			"byteOffset" : 20520,
			"byteLength" : 1140,
			"target" : 34963
		}
	],
	"buffers" : [
		{
			"uri" : "B336131603701063C0.bin",
			"byteLength" : 21660
		}
	]
}
