{
	"asset" : {
		"generator" : "FME 2022.2.4.0",
		"version" : "2.0"
	},
	"materials" : [
		{
			"name" : "default_material",
			"pbrMetallicRoughness" : {
				"baseColorFactor" : [ 1, 1, 1, 1 ],
				"roughnessFactor" : 0.30000000000000004,
				"metallicFactor" : 0.5
			}
		}
	],
	"meshes" : [
		{
			"primitives" : [
				{
					"attributes" : {
						"NORMAL" : 1,
						"POSITION" : 0,
						"COLOR_0" : 2
					},
					"indices" : 3,
					"material" : 0,
					"mode" : 4
				}
			]
		}
	],
	"nodes" : [
		{
			"name" : "B330361655801063C0",
			"matrix" : [ 1, 0, 0, 0, 0, 0, -1, 0, 0, 1, 0, 0, 833039.1875, 2.799999952316284, -816567.375, 1 ],
			"children" : [ 1 ]
		},
		{
			"mesh" : 0
		}
	],
	"scenes" : [
		{
			"nodes" : [ 0 ]
		}
	],
	"scene" : 0,
	"accessors" : [
		{
			"bufferView" : 0,
			"byteOffset" : 0,
			"componentType" : 5126,
			"count" : 939,
			"type" : "VEC3",
			"min" : [ -8.28466796875, -13.703125, 0 ],
			"max" : [ 8.2841796875, 13.7041015625, 42.97100067138672 ]
		},
		{
			"bufferView" : 1,
			"byteOffset" : 0,
			"componentType" : 5126,
			"count" : 939,
			"type" : "VEC3",
			"min" : [ -0.9963053464889526, -0.9968889355659485, -1 ],
			"max" : [ 0.9974815845489502, 0.9962067604064941, 1 ]
		},
		{
			"bufferView" : 2,
			"byteOffset" : 0,
			"componentType" : 5126,
			"count" : 939,
			"type" : "VEC3"
		},
		{
			"bufferView" : 3,
			"byteOffset" : 0,
			"componentType" : 5123,
			"count" : 939,
			"type" : "SCALAR",
			"min" : [ 0 ],
			"max" : [ 938 ]
		}
	],
	"bufferViews" : [
		{
			"buffer" : 0,
			"byteOffset" : 0,
			"byteLength" : 11268,
			"target" : 34962
		},
		{
			"buffer" : 0,
			"byteOffset" : 11268,
			"byteLength" : 11268,
			"target" : 34962
		},
		{
			"buffer" : 0,
			"byteOffset" : 22536,
			"byteLength" : 11268,
			"target" : 34962
		},
		{
			"buffer" : 0,
			"byteOffset" : 33804,
			"byteLength" : 1878,
			"target" : 34963
		}
	],
	"buffers" : [
		{
			"uri" : "B330361655801063C0.bin",
			"byteLength" : 35682
		}
	]
}
