{
	"asset" : {
		"generator" : "FME 2023.2.1.0",
		"version" : "2.0"
	},
	"materials" : [
		{
			"name" : "default_material",
			"pbrMetallicRoughness" : {
				"baseColorFactor" : [ 1, 1, 1, 1 ],
				"roughnessFactor" : 0.30000000000000004,
				"metallicFactor" : 0.5
			}
		}
	],
	"meshes" : [
		{
			"primitives" : [
				{
					"attributes" : {
						"NORMAL" : 1,
						"POSITION" : 0,
						"COLOR_0" : 2
					},
					"indices" : 3,
					"material" : 0,
					"mode" : 4
				}
			]
		}
	],
	"nodes" : [
		{
			"name" : "B333021651302063C0",
			"matrix" : [ 1, 0, 0, 0, 0, 0, -1, 0, 0, 1, 0, 0, 833302.0625, 3.3619956970214844, -816512.125, 1 ],
			"children" : [ 1 ]
		},
		{
			"mesh" : 0
		}
	],
	"scenes" : [
		{
			"nodes" : [ 0 ]
		}
	],
	"scene" : 0,
	"accessors" : [
		{
			"bufferView" : 0,
			"byteOffset" : 0,
			"componentType" : 5126,
			"count" : 420,
			"type" : "VEC3",
			"min" : [ -8.2919921875, -8.85546875, 0 ],
			"max" : [ 8.29296875, 8.85546875, 14.31100082397461 ]
		},
		{
			"bufferView" : 1,
			"byteOffset" : 0,
			"componentType" : 5126,
			"count" : 420,
			"type" : "VEC3",
			"min" : [ -0.8087360858917236, -0.7668629884719849, -1 ],
			"max" : [ 0.7819912433624268, 0.7566498517990112, 1 ]
		},
		{
			"bufferView" : 2,
			"byteOffset" : 0,
			"componentType" : 5126,
			"count" : 420,
			"type" : "VEC3"
		},
		{
			"bufferView" : 3,
			"byteOffset" : 0,
			"componentType" : 5123,
			"count" : 420,
			"type" : "SCALAR",
			"min" : [ 0 ],
			"max" : [ 419 ]
		}
	],
	"bufferViews" : [
		{
			"buffer" : 0,
			"byteOffset" : 0,
			"byteLength" : 5040,
			"target" : 34962
		},
		{
			"buffer" : 0,
			"byteOffset" : 5040,
			"byteLength" : 5040,
			"target" : 34962
		},
		{
			"buffer" : 0,
			"byteOffset" : 10080,
			"byteLength" : 5040,
			"target" : 34962
		},
		{
			"buffer" : 0,
			"byteOffset" : 15120,
			"byteLength" : 840,
			"target" : 34963
		}
	],
	"buffers" : [
		{
			"uri" : "B333021651302063C0.bin",
			"byteLength" : 15960
		}
	]
}
