{
	"asset" : {
		"generator" : "FME 2023.1.0.0",
		"version" : "2.0"
	},
	"images" : [
		{
			"uri" : "T15750288000106E10_001.jpg"
		}
	],
	"samplers" : [
		{
			"wrapS" : 10497,
			"wrapT" : 10497,
			"magFilter" : 9729,
			"minFilter" : 9986
		}
	],
	"textures" : [
		{
			"source" : 0,
			"sampler" : 0
		}
	],
	"materials" : [
		{
			"name" : "T15750288000106E10",
			"pbrMetallicRoughness" : {
				"baseColorTexture" : {
					"index" : 0,
					"texCoord" : 0
				},
				"roughnessFactor" : 0.984375,
				"metallicFactor" : 0.5
			}
		}
	],
	"meshes" : [
		{
			"primitives" : [
				{
					"attributes" : {
						"NORMAL" : 1,
						"POSITION" : 0,
						"TEXCOORD_0" : 2
					},
					"indices" : 3,
					"material" : 0,
					"mode" : 4
				}
			]
		}
	],
	"nodes" : [
		{
			"name" : "T15750288000106E10",
			"matrix" : [ 1, 0, 0, 0, 0, 0, -1, 0, 0, 1, 0, 0, 816125, 0.0565948486328125, -829100, 1 ],
			"children" : [ 1 ]
		},
		{
			"mesh" : 0
		}
	],
	"scenes" : [
		{
			"nodes" : [ 0 ]
		}
	],
	"scene" : 0,
	"accessors" : [
		{
			"bufferView" : 0,
			"byteOffset" : 0,
			"componentType" : 5126,
			"count" : 183660,
			"type" : "VEC3",
			"min" : [ -375.0009765625, -300, -1.9073486328125e-6 ],
			"max" : [ 375, 300, 251.88687133789062 ]
		},
		{
			"bufferView" : 1,
			"byteOffset" : 0,
			"componentType" : 5126,
			"count" : 183660,
			"type" : "VEC3",
			"min" : [ -1, -0.9998500347137451, -1 ],
			"max" : [ 1, 0.9995912909507751, 1 ]
		},
		{
			"bufferView" : 2,
			"byteOffset" : 0,
			"componentType" : 5126,
			"count" : 183660,
			"type" : "VEC2",
			"min" : [ 6.67572021484375e-5, 8.320808410644531e-5 ],
			"max" : [ 0.999934196472168, 0.9999167919158936 ]
		},
		{
			"bufferView" : 3,
			"byteOffset" : 0,
			"componentType" : 5125,
			"count" : 183660,
			"type" : "SCALAR",
			"min" : [ 0 ],
			"max" : [ 183659 ]
		}
	],
	"bufferViews" : [
		{
			"buffer" : 0,
			"byteOffset" : 0,
			"byteLength" : 2203920,
			"target" : 34962
		},
		{
			"buffer" : 0,
			"byteOffset" : 2203920,
			"byteLength" : 2203920,
			"target" : 34962
		},
		{
			"buffer" : 0,
			"byteOffset" : 4407840,
			"byteLength" : 1469280,
			"target" : 34962
		},
		{
			"buffer" : 0,
			"byteOffset" : 5877120,
			"byteLength" : 734640,
			"target" : 34963
		}
	],
	"buffers" : [
		{
			"uri" : "T15750288000106E10.bin",
			"byteLength" : 6611760
		}
	]
}