{
	"asset" : {
		"generator" : "FME 2023.1.0.0",
		"version" : "2.0"
	},
	"materials" : [
		{
			"name" : "default_material",
			"pbrMetallicRoughness" : {
				"baseColorFactor" : [ 1, 1, 1, 1 ],
				"roughnessFactor" : 0.30000000000000004,
				"metallicFactor" : 0.5
			}
		}
	],
	"meshes" : [
		{
			"primitives" : [
				{
					"attributes" : {
						"NORMAL" : 1,
						"POSITION" : 0,
						"COLOR_0" : 2
					},
					"indices" : 3,
					"material" : 0,
					"mode" : 4
				}
			]
		}
	],
	"nodes" : [
		{
			"name" : "B164751257101062G0",
			"matrix" : [ 1, 0, 0, 0, 0, 0, -1, 0, 0, 1, 0, 0, 816474.625, 54.73249816894531, -812569.125, 1 ],
			"children" : [ 1 ]
		},
		{
			"mesh" : 0
		}
	],
	"scenes" : [
		{
			"nodes" : [ 0 ]
		}
	],
	"scene" : 0,
	"accessors" : [
		{
			"bufferView" : 0,
			"byteOffset" : 0,
			"componentType" : 5126,
			"count" : 165,
			"type" : "VEC3",
			"min" : [ -5.875, -8.125, 0 ],
			"max" : [ 5.8125, 8.1875, 5.589302062988281 ]
		},
		{
			"bufferView" : 1,
			"byteOffset" : 0,
			"componentType" : 5126,
			"count" : 165,
			"type" : "VEC3",
			"min" : [ -0.8206475377082825, -0.8209614753723145, -1 ],
			"max" : [ 0.8234236836433411, 0.8038811683654785, 0.9952201843261719 ]
		},
		{
			"bufferView" : 2,
			"byteOffset" : 0,
			"componentType" : 5126,
			"count" : 165,
			"type" : "VEC3"
		},
		{
			"bufferView" : 3,
			"byteOffset" : 0,
			"componentType" : 5121,
			"count" : 165,
			"type" : "SCALAR",
			"min" : [ 0 ],
			"max" : [ 164 ]
		}
	],
	"bufferViews" : [
		{
			"buffer" : 0,
			"byteOffset" : 0,
			"byteLength" : 1980,
			"target" : 34962
		},
		{
			"buffer" : 0,
			"byteOffset" : 1980,
			"byteLength" : 1980,
			"target" : 34962
		},
		{
			"buffer" : 0,
			"byteOffset" : 3960,
			"byteLength" : 1980,
			"target" : 34962
		},
		{
			"buffer" : 0,
			"byteOffset" : 5940,
			"byteLength" : 165,
			"target" : 34963
		}
	],
	"buffers" : [
		{
			"uri" : "B164751257101062G0.bin",
			"byteLength" : 6105
		}
	]
}
