{
	"asset" : {
		"generator" : "FME 2022.2.4.0",
		"version" : "2.0"
	},
	"materials" : [
		{
			"name" : "default_material",
			"pbrMetallicRoughness" : {
				"baseColorFactor" : [ 1, 1, 1, 1 ],
				"roughnessFactor" : 0.30000000000000004,
				"metallicFactor" : 0.5
			}
		}
	],
	"meshes" : [
		{
			"primitives" : [
				{
					"attributes" : {
						"NORMAL" : 1,
						"POSITION" : 0,
						"COLOR_0" : 2
					},
					"indices" : 3,
					"material" : 0,
					"mode" : 4
				}
			]
		}
	],
	"nodes" : [
		{
			"name" : "B341421605901063C0",
			"matrix" : [ 1, 0, 0, 0, 0, 0, -1, 0, 0, 1, 0, 0, 834144.9375, 3.490999937057495, -816056.375, 1 ],
			"children" : [ 1 ]
		},
		{
			"mesh" : 0
		}
	],
	"scenes" : [
		{
			"nodes" : [ 0 ]
		}
	],
	"scene" : 0,
	"accessors" : [
		{
			"bufferView" : 0,
			"byteOffset" : 0,
			"componentType" : 5126,
			"count" : 144,
			"type" : "VEC3",
			"min" : [ -5.3251953125, -6.0751953125, 0 ],
			"max" : [ 5.2880859375, 5.96875, 26.250001907348633 ]
		},
		{
			"bufferView" : 1,
			"byteOffset" : 0,
			"componentType" : 5126,
			"count" : 144,
			"type" : "VEC3",
			"min" : [ -0.8179344534873962, -0.7786219120025635, -0.44509997963905334 ],
			"max" : [ 0.9064885973930359, 0.8574930429458618, 1 ]
		},
		{
			"bufferView" : 2,
			"byteOffset" : 0,
			"componentType" : 5126,
			"count" : 144,
			"type" : "VEC3"
		},
		{
			"bufferView" : 3,
			"byteOffset" : 0,
			"componentType" : 5121,
			"count" : 144,
			"type" : "SCALAR",
			"min" : [ 0 ],
			"max" : [ 143 ]
		}
	],
	"bufferViews" : [
		{
			"buffer" : 0,
			"byteOffset" : 0,
			"byteLength" : 1728,
			"target" : 34962
		},
		{
			"buffer" : 0,
			"byteOffset" : 1728,
			"byteLength" : 1728,
			"target" : 34962
		},
		{
			"buffer" : 0,
			"byteOffset" : 3456,
			"byteLength" : 1728,
			"target" : 34962
		},
		{
			"buffer" : 0,
			"byteOffset" : 5184,
			"byteLength" : 144,
			"target" : 34963
		}
	],
	"buffers" : [
		{
			"uri" : "B341421605901063C0.bin",
			"byteLength" : 5328
		}
	]
}
